M48
; DRILL file {KiCad 5.1.5+dfsg1-2build2} date lun 01 mar 2021 21:19:49
; FORMAT={-:-/ absolute / metric / decimal}
; #@! TF.CreationDate,2021-03-01T21:19:49+01:00
; #@! TF.GenerationSoftware,Kicad,Pcbnew,5.1.5+dfsg1-2build2
; #@! TF.FileFunction,Plated,1,2,PTH
FMAT,2
METRIC
T1C0.300
T2C0.305
T3C0.600
T4C0.750
T5C0.800
T6C0.850
T7C0.900
T8C1.000
T9C1.500
%
G90
G05
T1
X20.8Y-33.4
X21.3Y-32.5
X21.3Y-34.3
X21.8Y-33.4
T2
X1.1Y-66.6
X2.0Y-31.3
X2.1Y-35.7
X2.6Y-69.1
X4.1Y-50.4
X4.1Y-56.1
X4.1Y-60.6
X4.2Y-39.2
X4.2Y-44.0
X4.8Y-25.5
X5.2Y-29.9
X6.2Y-33.2
X6.4Y-37.3
X7.3Y-47.5
X7.4Y-53.5
X7.4Y-58.7
X7.4Y-63.0
X8.4Y-42.4
X8.4Y-66.6
X9.5Y-25.1
X9.5Y-69.0
X10.2Y-38.3
X10.2Y-45.0
X10.5Y-66.6
X11.0Y-25.0
X11.2Y-48.6
X11.4Y-57.9
X11.8Y-30.8
X12.9Y-50.9
X12.9Y-51.9
X13.1Y-48.4
X13.2Y-61.8
X13.3Y-53.6
X13.3Y-55.8
X13.4Y-25.8
X13.4Y-28.8
X13.8Y-36.7
X13.9Y-64.6
X14.1Y-33.4
X14.7Y-40.8
X14.8Y-39.2
X15.1Y-48.5
X15.1Y-50.4
X15.4Y-62.2
X15.6Y-66.3
X15.6Y-68.6
X16.0Y-30.8
X16.2Y-37.5
X16.2Y-62.5
X16.35Y-28.65
X16.7Y-64.1
X16.8Y-43.4
X16.9Y-62.1
X17.0Y-50.4
X17.1Y-25.8
X17.1Y-38.4
X17.2Y-53.6
X17.7Y-29.7
X17.8Y-23.3
X17.8Y-45.6
X17.9Y-37.5
X18.4Y-63.4
X18.5Y-42.3
X18.8Y-25.3
X18.8Y-38.4
X19.0Y-46.8
X19.2Y-31.3
X19.4Y-48.7
X19.4Y-50.1
X19.7Y-43.9
X19.7Y-59.8
X19.8Y-58.0
X19.9Y-30.5
X19.9Y-56.3
X19.9Y-58.8
X20.2Y-38.4
X20.3Y-63.9
X20.5Y-52.8
X21.6Y-36.9
X21.7Y-50.0
X21.8Y-47.0
X21.9Y-28.3
X21.9Y-29.8
X22.0Y-43.3
X22.5Y-49.9
X22.7Y-46.0
X22.7Y-49.1
X23.0Y-53.8
X23.2Y-56.8
X23.3Y-28.2
X23.3Y-29.2
X23.4Y-43.4
X23.7Y-32.8
X23.9Y-64.0
X24.0Y-36.6
X24.0Y-38.0
X24.2Y-48.3
X24.2Y-59.8
X24.25Y-31.1
X24.3Y-53.8
X24.3Y-55.5
X24.5Y-50.8
X24.6Y-35.6
X24.7Y-32.4
X24.7Y-49.8
X25.0Y-21.2
X25.6Y-62.1
X26.0Y-50.8
X26.0Y-55.5
X26.0Y-56.9
X26.3Y-36.0
X26.5Y-38.3
X26.6Y-49.8
X26.8Y-42.7
X26.9Y-59.8
X27.1Y-45.3
X27.1Y-46.8
X27.1Y-64.0
X27.5Y-21.2
X28.1Y-30.6
X28.1Y-33.2
X28.1Y-35.7
X28.7Y-39.2
X28.8Y-37.8
X28.9Y-48.7
X28.9Y-50.1
X29.1Y-54.2
X29.4Y-42.1
X29.4Y-44.8
X29.9Y-61.3
X30.0Y-29.1
X30.4Y-60.5
X30.5Y-48.7
X30.7Y-55.8
X30.9Y-28.4
X30.9Y-54.3
X31.1Y-63.9
X31.3Y-66.9
X31.6Y-23.5
X31.6Y-25.0
X31.8Y-28.4
X32.2Y-59.1
X32.5Y-25.9
X32.5Y-57.6
X32.7Y-34.3
X32.7Y-41.2
X32.8Y-42.1
X32.9Y-65.2
X33.0Y-29.3
X33.3Y-26.7
X33.55Y-62.83
X33.575Y-53.5
X33.587Y-51.9
X33.587Y-55.1
X33.6Y-42.7
X34.0Y-35.7
X34.2Y-36.6
X34.5Y-29.0
X34.5Y-62.8
X34.9Y-37.2
X35.0Y-25.8
X35.0Y-58.1
X35.4Y-28.1
X35.4Y-43.2
X35.45Y-62.83
X35.7Y-29.9
X35.9Y-33.9
X36.0Y-35.6
X36.1Y-64.8
X36.2Y-43.6
X36.5Y-29.1
X36.8Y-34.6
X36.9Y-25.8
X36.9Y-38.1
X36.9Y-45.4
X37.0Y-44.1
X37.2Y-31.2
X37.5Y-57.1
X37.6Y-60.6
X37.6Y-61.5
X37.7Y-37.4
X37.8Y-26.9
X37.9Y-62.8
X38.0Y-45.9
X38.1Y-47.4
X38.1Y-53.8
X38.5Y-35.0
X38.7Y-60.6
X38.7Y-61.5
X39.0Y-37.8
X39.0Y-39.6
X39.1Y-63.6
X39.2Y-35.3
X39.2Y-57.1
X39.797Y-44.9
X39.8Y-47.5
X39.8Y-53.6
X40.608Y-45.797
X40.9Y-33.9
X40.9Y-61.4
X41.1Y-57.1
X41.6Y-35.3
X42.0Y-53.1
X42.2Y-34.0
X42.4Y-30.0
X42.4Y-43.1
X42.5Y-41.3
X42.5Y-44.7
X42.6Y-61.3
X43.2Y-65.3
X43.2Y-67.7
X43.4Y-57.1
X43.6Y-35.8
X44.0Y-59.3
X44.3Y-57.1
X44.6Y-40.0
X44.6Y-63.3
X44.9Y-59.3
X45.1Y-45.1
X45.1Y-51.5
X45.2Y-26.8
X45.2Y-57.1
X45.6Y-54.0
X46.1Y-51.8
X46.6Y-55.7
X46.7Y-37.6
X47.3Y-48.0
X47.4Y-55.1
X47.5Y-43.9
X47.5Y-46.5
X47.9Y-41.0
X48.0Y-34.4
X48.0Y-35.4
X48.3Y-57.68
X48.3Y-61.462
X48.5Y-27.6
X48.8Y-63.6
X49.1Y-47.7
X49.2Y-51.2
X49.2Y-54.0
X49.4Y-34.0
X49.4Y-38.3
X49.4Y-43.3
T4
X3.4Y-66.8
X5.4Y-66.8
T5
X45.9Y-65.2
X45.9Y-67.7
T6
X35.1Y-65.837
X40.1Y-65.837
T7
X3.0Y-28.5
X7.0Y-28.5
X23.0Y-67.6
X25.0Y-67.6
X27.0Y-67.6
T8
X40.1Y-22.2
X40.1Y-24.74
X42.64Y-22.2
X42.64Y-24.74
X45.18Y-22.2
X45.18Y-24.74
X47.72Y-22.2
X47.72Y-24.74
X21.19Y-22.27
X23.73Y-22.27
X26.27Y-22.27
X28.81Y-22.27
X2.5Y-22.0
X5.04Y-22.0
X7.58Y-22.0
X14.1Y-43.46
X14.1Y-46.0
T9
X20.9Y-67.6
X29.1Y-67.6
T3
G00X34.1Y-68.888
M15
G01X34.1Y-68.188
M16
G05
G00X41.1Y-68.188
M15
G01X41.1Y-68.888
M16
G05
T0
M30
