G04 #@! TF.GenerationSoftware,KiCad,Pcbnew,5.0.2-bee76a0~70~ubuntu18.04.1*
G04 #@! TF.CreationDate,2019-10-29T20:18:18+01:00*
G04 #@! TF.ProjectId,time2time,74696d65-3274-4696-9d65-2e6b69636164,V1.0*
G04 #@! TF.SameCoordinates,PX7735940PY3473bc0*
G04 #@! TF.FileFunction,Copper,L2,Bot*
G04 #@! TF.FilePolarity,Positive*
%FSLAX46Y46*%
G04 Gerber Fmt 4.6, Leading zero omitted, Abs format (unit mm)*
G04 Created by KiCad (PCBNEW 5.0.2-bee76a0~70~ubuntu18.04.1) date mar 29 oct 2019 20:18:18 CET*
%MOMM*%
%LPD*%
G01*
G04 APERTURE LIST*
G04 #@! TA.AperFunction,NonConductor*
%ADD10C,0.150000*%
G04 #@! TD*
G04 #@! TA.AperFunction,EtchedComponent*
%ADD11C,0.100000*%
G04 #@! TD*
G04 #@! TA.AperFunction,ComponentPad*
%ADD12R,1.600000X1.600000*%
G04 #@! TD*
G04 #@! TA.AperFunction,ComponentPad*
%ADD13C,1.600000*%
G04 #@! TD*
G04 #@! TA.AperFunction,ComponentPad*
%ADD14C,1.450000*%
G04 #@! TD*
G04 #@! TA.AperFunction,ComponentPad*
%ADD15O,1.200000X1.900000*%
G04 #@! TD*
G04 #@! TA.AperFunction,Conductor*
%ADD16C,0.100000*%
G04 #@! TD*
G04 #@! TA.AperFunction,ComponentPad*
%ADD17C,1.200000*%
G04 #@! TD*
G04 #@! TA.AperFunction,ComponentPad*
%ADD18O,1.200000X1.750000*%
G04 #@! TD*
G04 #@! TA.AperFunction,ComponentPad*
%ADD19R,1.700000X1.700000*%
G04 #@! TD*
G04 #@! TA.AperFunction,ComponentPad*
%ADD20O,1.700000X1.700000*%
G04 #@! TD*
G04 #@! TA.AperFunction,SMDPad,CuDef*
%ADD21R,1.500000X1.000000*%
G04 #@! TD*
G04 #@! TA.AperFunction,BGAPad,CuDef*
%ADD22C,1.500000*%
G04 #@! TD*
G04 #@! TA.AperFunction,ViaPad*
%ADD23C,0.500000*%
G04 #@! TD*
G04 #@! TA.AperFunction,ComponentPad*
%ADD24R,1.500000X2.500000*%
G04 #@! TD*
G04 #@! TA.AperFunction,ComponentPad*
%ADD25O,1.500000X2.500000*%
G04 #@! TD*
G04 #@! TA.AperFunction,ComponentPad*
%ADD26O,2.200000X3.500000*%
G04 #@! TD*
G04 #@! TA.AperFunction,ViaPad*
%ADD27C,0.600000*%
G04 #@! TD*
G04 #@! TA.AperFunction,Conductor*
%ADD28C,0.300000*%
G04 #@! TD*
G04 #@! TA.AperFunction,Conductor*
%ADD29C,0.250000*%
G04 #@! TD*
G04 #@! TA.AperFunction,Conductor*
%ADD30C,0.254000*%
G04 #@! TD*
G04 APERTURE END LIST*
D10*
X50000000Y-68000000D02*
G75*
G02X48000000Y-70000000I-2000000J0D01*
G01*
X2000000Y-70000000D02*
G75*
G02X0Y-68000000I0J2000000D01*
G01*
X0Y-22000000D02*
G75*
G02X2000000Y-20000000I2000000J0D01*
G01*
X9500000Y-18000000D02*
G75*
G02X7500000Y-20000000I-2000000J0D01*
G01*
X42500000Y-20000000D02*
G75*
G02X40500000Y-18000000I0J2000000D01*
G01*
X48000000Y-20000000D02*
G75*
G02X50000000Y-22000000I0J-2000000D01*
G01*
X37700000Y0D02*
G75*
G02X40500000Y-2800000I0J-2800000D01*
G01*
X9500000Y-2800000D02*
G75*
G02X12300000Y0I2800000J0D01*
G01*
X42500000Y-20000000D02*
X48000000Y-20000000D01*
X9500000Y-2800000D02*
X9500000Y-18000000D01*
X37700000Y0D02*
X12300000Y0D01*
X40500000Y-18000000D02*
X40500000Y-2800000D01*
X36600000Y-23000000D02*
G75*
G03X36600000Y-23000000I-1100000J0D01*
G01*
X15600000Y-23000000D02*
G75*
G03X15600000Y-23000000I-1100000J0D01*
G01*
X39300000Y-3000000D02*
G75*
G03X39300000Y-3000000I-1600000J0D01*
G01*
X13900000Y-3000000D02*
G75*
G03X13900000Y-3000000I-1600000J0D01*
G01*
X0Y-22000000D02*
X0Y-68000000D01*
X7500000Y-20000000D02*
X2000000Y-20000000D01*
X50000000Y-68000000D02*
X50000000Y-22000000D01*
X2000000Y-70000000D02*
X48000000Y-70000000D01*
D11*
G04 #@! TO.C,JP201*
G36*
X42500000Y-52750000D02*
X42500000Y-52250000D01*
X41900000Y-52250000D01*
X41900000Y-52750000D01*
X42500000Y-52750000D01*
G37*
G04 #@! TO.C,JP204*
G36*
X39800000Y-62550000D02*
X39800000Y-62050000D01*
X39200000Y-62050000D01*
X39200000Y-62550000D01*
X39800000Y-62550000D01*
G37*
G04 #@! TD*
D12*
G04 #@! TO.P,BZ301,1*
G04 #@! TO.N,+3V3*
X3000000Y-28500000D03*
D13*
G04 #@! TO.P,BZ301,2*
G04 #@! TO.N,Net-(BZ301-Pad2)*
X7000000Y-28500000D03*
G04 #@! TD*
D12*
G04 #@! TO.P,C202,1*
G04 #@! TO.N,VCC*
X45900000Y-65200000D03*
D13*
G04 #@! TO.P,C202,2*
G04 #@! TO.N,GNDPWR*
X45900000Y-67700000D03*
G04 #@! TD*
D14*
G04 #@! TO.P,J201,6*
G04 #@! TO.N,GNDPWR*
X35100000Y-65837500D03*
X40100000Y-65837500D03*
D15*
X34100000Y-68537500D03*
X41100000Y-68537500D03*
G04 #@! TD*
D16*
G04 #@! TO.N,Net-(F201-Pad2)*
G04 #@! TO.C,J202*
G36*
X3774505Y-65926204D02*
X3798773Y-65929804D01*
X3822572Y-65935765D01*
X3845671Y-65944030D01*
X3867850Y-65954520D01*
X3888893Y-65967132D01*
X3908599Y-65981747D01*
X3926777Y-65998223D01*
X3943253Y-66016401D01*
X3957868Y-66036107D01*
X3970480Y-66057150D01*
X3980970Y-66079329D01*
X3989235Y-66102428D01*
X3995196Y-66126227D01*
X3998796Y-66150495D01*
X4000000Y-66174999D01*
X4000000Y-67425001D01*
X3998796Y-67449505D01*
X3995196Y-67473773D01*
X3989235Y-67497572D01*
X3980970Y-67520671D01*
X3970480Y-67542850D01*
X3957868Y-67563893D01*
X3943253Y-67583599D01*
X3926777Y-67601777D01*
X3908599Y-67618253D01*
X3888893Y-67632868D01*
X3867850Y-67645480D01*
X3845671Y-67655970D01*
X3822572Y-67664235D01*
X3798773Y-67670196D01*
X3774505Y-67673796D01*
X3750001Y-67675000D01*
X3049999Y-67675000D01*
X3025495Y-67673796D01*
X3001227Y-67670196D01*
X2977428Y-67664235D01*
X2954329Y-67655970D01*
X2932150Y-67645480D01*
X2911107Y-67632868D01*
X2891401Y-67618253D01*
X2873223Y-67601777D01*
X2856747Y-67583599D01*
X2842132Y-67563893D01*
X2829520Y-67542850D01*
X2819030Y-67520671D01*
X2810765Y-67497572D01*
X2804804Y-67473773D01*
X2801204Y-67449505D01*
X2800000Y-67425001D01*
X2800000Y-66174999D01*
X2801204Y-66150495D01*
X2804804Y-66126227D01*
X2810765Y-66102428D01*
X2819030Y-66079329D01*
X2829520Y-66057150D01*
X2842132Y-66036107D01*
X2856747Y-66016401D01*
X2873223Y-65998223D01*
X2891401Y-65981747D01*
X2911107Y-65967132D01*
X2932150Y-65954520D01*
X2954329Y-65944030D01*
X2977428Y-65935765D01*
X3001227Y-65929804D01*
X3025495Y-65926204D01*
X3049999Y-65925000D01*
X3750001Y-65925000D01*
X3774505Y-65926204D01*
X3774505Y-65926204D01*
G37*
D17*
G04 #@! TD*
G04 #@! TO.P,J202,1*
G04 #@! TO.N,Net-(F201-Pad2)*
X3400000Y-66800000D03*
D18*
G04 #@! TO.P,J202,2*
G04 #@! TO.N,GNDPWR*
X5400000Y-66800000D03*
G04 #@! TD*
D19*
G04 #@! TO.P,J301,1*
G04 #@! TO.N,GNDS*
X21190000Y-22270000D03*
D20*
G04 #@! TO.P,J301,2*
G04 #@! TO.N,+3V3*
X23730000Y-22270000D03*
G04 #@! TO.P,J301,3*
G04 #@! TO.N,/microcontroller/I2C_SCL_DISP*
X26270000Y-22270000D03*
G04 #@! TO.P,J301,4*
G04 #@! TO.N,/microcontroller/I2C_SDA_DISP*
X28810000Y-22270000D03*
G04 #@! TD*
D19*
G04 #@! TO.P,J302,1*
G04 #@! TO.N,/microcontroller/EXP1*
X40100000Y-22200000D03*
D20*
G04 #@! TO.P,J302,2*
G04 #@! TO.N,/microcontroller/EXP3*
X40100000Y-24740000D03*
G04 #@! TO.P,J302,3*
G04 #@! TO.N,/microcontroller/EXP2*
X42640000Y-22200000D03*
G04 #@! TO.P,J302,4*
G04 #@! TO.N,/microcontroller/EXP4*
X42640000Y-24740000D03*
G04 #@! TO.P,J302,5*
G04 #@! TO.N,+12V*
X45180000Y-22200000D03*
G04 #@! TO.P,J302,6*
G04 #@! TO.N,/microcontroller/EXP5*
X45180000Y-24740000D03*
G04 #@! TO.P,J302,7*
G04 #@! TO.N,+3V3*
X47720000Y-22200000D03*
G04 #@! TO.P,J302,8*
G04 #@! TO.N,GNDS*
X47720000Y-24740000D03*
G04 #@! TD*
D19*
G04 #@! TO.P,J303,1*
G04 #@! TO.N,GNDS*
X2500000Y-22000000D03*
D20*
G04 #@! TO.P,J303,2*
G04 #@! TO.N,/microcontroller/SENSOR*
X5040000Y-22000000D03*
G04 #@! TO.P,J303,3*
G04 #@! TO.N,+12V*
X7580000Y-22000000D03*
G04 #@! TD*
D21*
G04 #@! TO.P,JP201,1*
G04 #@! TO.N,GND*
X42200000Y-53150000D03*
G04 #@! TO.P,JP201,2*
G04 #@! TO.N,GNDS*
X42200000Y-51850000D03*
G04 #@! TD*
G04 #@! TO.P,JP301,1*
G04 #@! TO.N,GNDS*
X46300000Y-41300000D03*
G04 #@! TO.P,JP301,2*
G04 #@! TO.N,/microcontroller/JP_ADD1*
X46300000Y-40000000D03*
G04 #@! TO.P,JP301,3*
G04 #@! TO.N,+3V3*
X46300000Y-38700000D03*
G04 #@! TD*
G04 #@! TO.P,JP302,3*
G04 #@! TO.N,+3V3*
X43800000Y-38700000D03*
G04 #@! TO.P,JP302,2*
G04 #@! TO.N,/microcontroller/JP_ADD2*
X43800000Y-40000000D03*
G04 #@! TO.P,JP302,1*
G04 #@! TO.N,GNDS*
X43800000Y-41300000D03*
G04 #@! TD*
G04 #@! TO.P,JP303,3*
G04 #@! TO.N,+3V3*
X41300000Y-38700000D03*
G04 #@! TO.P,JP303,2*
G04 #@! TO.N,/microcontroller/JP_ADD3*
X41300000Y-40000000D03*
G04 #@! TO.P,JP303,1*
G04 #@! TO.N,GNDS*
X41300000Y-41300000D03*
G04 #@! TD*
D19*
G04 #@! TO.P,TH201,1*
G04 #@! TO.N,Net-(R206-Pad1)*
X14100000Y-46000000D03*
D20*
G04 #@! TO.P,TH201,2*
G04 #@! TO.N,GNDPWR*
X14100000Y-43460000D03*
G04 #@! TD*
D22*
G04 #@! TO.P,TP201,1*
G04 #@! TO.N,GNDPWR*
X29000000Y-63100000D03*
G04 #@! TD*
G04 #@! TO.P,TP202,1*
G04 #@! TO.N,/microcontroller/USB4*
X35000000Y-58100000D03*
G04 #@! TD*
G04 #@! TO.P,TP203,1*
G04 #@! TO.N,/microcontroller/USB3*
X32200000Y-59100000D03*
G04 #@! TD*
G04 #@! TO.P,TP204,1*
G04 #@! TO.N,/microcontroller/USB2*
X31800000Y-62100000D03*
G04 #@! TD*
G04 #@! TO.P,TP205,1*
G04 #@! TO.N,VCC*
X34700000Y-61100000D03*
G04 #@! TD*
G04 #@! TO.P,TP206,1*
G04 #@! TO.N,+12V*
X48300000Y-60400000D03*
G04 #@! TD*
G04 #@! TO.P,TP207,1*
G04 #@! TO.N,+BATT*
X42400000Y-30000000D03*
G04 #@! TD*
G04 #@! TO.P,TP208,1*
G04 #@! TO.N,+3V3*
X23400000Y-30900000D03*
G04 #@! TD*
G04 #@! TO.P,TP209,1*
G04 #@! TO.N,+5V*
X19900000Y-44700000D03*
G04 #@! TD*
D23*
G04 #@! TO.N,GNDREF*
G04 #@! TO.C,U202*
X21300000Y-34350000D03*
X20725000Y-33400000D03*
X21875000Y-33400000D03*
X21300000Y-32450000D03*
G04 #@! TD*
D24*
G04 #@! TO.P,SW1,1*
G04 #@! TO.N,N/C*
X27000000Y-67600000D03*
D25*
G04 #@! TO.P,SW1,2*
G04 #@! TO.N,Net-(F201-Pad1)*
X25000000Y-67600000D03*
G04 #@! TO.P,SW1,3*
G04 #@! TO.N,+BATT*
X23000000Y-67600000D03*
D26*
G04 #@! TO.P,SW1,*
G04 #@! TO.N,*
X29100000Y-67600000D03*
X20900000Y-67600000D03*
G04 #@! TD*
D21*
G04 #@! TO.P,JP204,1*
G04 #@! TO.N,GNDPWR*
X39500000Y-62950000D03*
G04 #@! TO.P,JP204,2*
G04 #@! TO.N,GND*
X39500000Y-61650000D03*
G04 #@! TD*
D27*
G04 #@! TO.N,GNDS*
X42500000Y-41300000D03*
X39000000Y-39600000D03*
X39000000Y-37800000D03*
G04 #@! TO.N,+3V3*
X46640767Y-37370010D03*
X24250000Y-31100000D03*
X19900000Y-30500000D03*
X37800000Y-26900000D03*
G04 #@! TO.N,+5V*
X19900000Y-56300000D03*
X19700000Y-43900000D03*
X32500000Y-57600000D03*
G04 #@! TO.N,GNDREF*
X19200000Y-31300000D03*
X17900000Y-37500000D03*
X21900000Y-29800000D03*
X21900000Y-28300000D03*
X23300000Y-29200000D03*
X23300000Y-28200000D03*
X16350000Y-28650000D03*
X17700000Y-29700000D03*
X16000000Y-30800000D03*
X16200000Y-37500000D03*
X17100000Y-38400000D03*
X18800000Y-38400000D03*
X20200000Y-38400000D03*
X21600000Y-36900000D03*
X24000000Y-38000000D03*
X24000000Y-36600000D03*
X24600000Y-35600000D03*
X23700000Y-32800000D03*
X24700000Y-32400000D03*
G04 #@! TO.N,VCC*
X35450000Y-62830000D03*
X36200000Y-64700000D03*
X20500000Y-52800000D03*
X22000000Y-43300000D03*
X22700000Y-49100000D03*
X19000000Y-46800000D03*
G04 #@! TO.N,GNDPWR*
X21800000Y-47000000D03*
X22700000Y-46000000D03*
X26800000Y-42700000D03*
X27100000Y-45300000D03*
X27100000Y-46800000D03*
X24200000Y-48300000D03*
X24700000Y-49800000D03*
X26600000Y-49800000D03*
X26000000Y-50800000D03*
X18500000Y-42300000D03*
X16800000Y-43400000D03*
X17800000Y-45600000D03*
X19400000Y-48700000D03*
X19400000Y-50100000D03*
X17000000Y-50400000D03*
X15100000Y-50400000D03*
X15100000Y-48500000D03*
X13100000Y-48400000D03*
X12900000Y-50900000D03*
X13300000Y-53600000D03*
X13300000Y-55800000D03*
X17200000Y-53600000D03*
X23000000Y-53800000D03*
X24300000Y-53800000D03*
X24200000Y-55600000D03*
X26100000Y-55600000D03*
X26100000Y-57000000D03*
X23200000Y-56800000D03*
X24200000Y-59800000D03*
X26900000Y-59800000D03*
X19700000Y-59800000D03*
X13200000Y-61800000D03*
X8400000Y-66600000D03*
X10500000Y-66600000D03*
X9500000Y-69000000D03*
X2600000Y-69100000D03*
X1100000Y-66600000D03*
X15600000Y-66300000D03*
X15600000Y-68600000D03*
X13900000Y-64600000D03*
X16700000Y-64100000D03*
X20300000Y-63900000D03*
X23900000Y-64000000D03*
X27100000Y-64000000D03*
X25600000Y-62100000D03*
X31100000Y-63900000D03*
X32900000Y-65200000D03*
X34500000Y-62800000D03*
X31300000Y-66900000D03*
X37900000Y-62800000D03*
X43200000Y-65300000D03*
X43200000Y-67700000D03*
X48800000Y-63600000D03*
X44600000Y-63300000D03*
X39100000Y-63600000D03*
G04 #@! TO.N,+BATT*
X42400000Y-30000000D03*
X37700000Y-37400000D03*
X23400000Y-43400000D03*
X35400000Y-43200000D03*
G04 #@! TO.N,+12V*
X48300000Y-61462500D03*
X33000000Y-29300000D03*
X48300000Y-57680000D03*
G04 #@! TO.N,GND*
X42000000Y-53100000D03*
X37600000Y-60600000D03*
X44300000Y-57100000D03*
X43400000Y-57100000D03*
X45200000Y-57100000D03*
X46600000Y-55700000D03*
X47400000Y-55100000D03*
X45600000Y-54000000D03*
X38100000Y-53800000D03*
X39800000Y-53600000D03*
X41100000Y-57100000D03*
X39200000Y-57100000D03*
X37500000Y-57100000D03*
X37600000Y-61500000D03*
X38700000Y-61500000D03*
X38700000Y-60600000D03*
X42600000Y-61300000D03*
X40900000Y-61400000D03*
X44000000Y-59300000D03*
X44900000Y-59300000D03*
X49200000Y-54000000D03*
G04 #@! TO.N,Net-(C307-Pad2)*
X36900000Y-45400000D03*
X30700000Y-55800000D03*
G04 #@! TO.N,/microcontroller/USB4*
X35000000Y-58100000D03*
G04 #@! TO.N,/microcontroller/USB3*
X19800000Y-58000000D03*
X32200000Y-59100000D03*
G04 #@! TO.N,/microcontroller/USB2*
X33550000Y-62830000D03*
X19900000Y-58800000D03*
G04 #@! TO.N,/microcontroller/I2C_SCL_DISP*
X30900000Y-28400000D03*
X40608092Y-45796976D03*
G04 #@! TO.N,/microcontroller/I2C_SDA_DISP*
X39796942Y-44803058D03*
X31800000Y-28400000D03*
G04 #@! TO.N,/microcontroller/EXP1*
X34000000Y-35700000D03*
G04 #@! TO.N,/microcontroller/EXP3*
X47300000Y-48000000D03*
X45200000Y-26800000D03*
G04 #@! TO.N,/microcontroller/EXP2*
X36900000Y-38100000D03*
G04 #@! TO.N,/microcontroller/EXP4*
X37200000Y-31200000D03*
G04 #@! TO.N,/microcontroller/EXP5*
X35900000Y-33900000D03*
G04 #@! TO.N,/microcontroller/SENSOR*
X34500000Y-29000000D03*
G04 #@! TO.N,/microcontroller/JP_ADD1*
X41700000Y-35500000D03*
G04 #@! TO.N,/microcontroller/JP_ADD2*
X42200000Y-34000000D03*
X44600000Y-40000000D03*
X43356241Y-35913130D03*
G04 #@! TO.N,/microcontroller/JP_ADD3*
X40900000Y-33900000D03*
G04 #@! TO.N,/microcontroller/SLEEP_12V*
X32700000Y-34300000D03*
X46100000Y-51800000D03*
G04 #@! TO.N,/microcontroller/PW_STATE2*
X33587500Y-55100000D03*
X21700000Y-50000000D03*
G04 #@! TO.N,/microcontroller/PW_STATE1*
X33575000Y-53500000D03*
X22500000Y-49900000D03*
G04 #@! TO.N,/supply & charger/POWER_GOOD*
X33587500Y-51900000D03*
X24500000Y-50800000D03*
G04 #@! TO.N,/microcontroller/BUTTON1*
X14700000Y-40800000D03*
X32800000Y-42100000D03*
G04 #@! TO.N,/microcontroller/BUTTON2*
X11200000Y-48600000D03*
X32700000Y-41200000D03*
G04 #@! TO.N,/microcontroller/BOOT*
X12900000Y-51900000D03*
X11400000Y-57900000D03*
G04 #@! TO.N,/microcontroller/LED_R*
X36300000Y-43600000D03*
X18800000Y-25300000D03*
G04 #@! TO.N,/microcontroller/LED_G*
X30000000Y-29100000D03*
X17800000Y-23300000D03*
G04 #@! TO.N,/microcontroller/RTS*
X15400000Y-62200000D03*
X18400000Y-63400000D03*
G04 #@! TO.N,/microcontroller/LED_B*
X33600000Y-42700000D03*
X11000000Y-25000000D03*
G04 #@! TO.N,/microcontroller/BUZZER_PWM*
X28700000Y-39200000D03*
X14800000Y-39200000D03*
G04 #@! TO.N,/microcontroller/UART_RX*
X29900000Y-61300000D03*
G04 #@! TO.N,/microcontroller/UART_TX*
X16200000Y-62600000D03*
X30300000Y-60500000D03*
G04 #@! TO.N,/microcontroller/UART_RX*
X16900000Y-62100000D03*
G04 #@! TO.N,GNDS*
X38000000Y-45900000D03*
X45100000Y-51500000D03*
X36500000Y-29100000D03*
X36900000Y-25800000D03*
X30900000Y-54300000D03*
X8400000Y-42400000D03*
X32800000Y-26200000D03*
X7400000Y-63000000D03*
X7400000Y-58700000D03*
X4100000Y-56100000D03*
X4100000Y-60600000D03*
X7400000Y-53500000D03*
X4100000Y-50400000D03*
X7300000Y-47500000D03*
X4200000Y-44000000D03*
X10200000Y-45000000D03*
X4200000Y-39200000D03*
X2100000Y-35700000D03*
X2000000Y-31300000D03*
X10200000Y-38300000D03*
X6400000Y-37300000D03*
X6200000Y-33200000D03*
X5200000Y-29900000D03*
X13800000Y-36700000D03*
X13400000Y-28800000D03*
X11800000Y-30800000D03*
X14100000Y-33400000D03*
X9500000Y-25100000D03*
X4800000Y-25500000D03*
X17100000Y-25800000D03*
X13400000Y-25800000D03*
X25000000Y-21200000D03*
X27500000Y-21200000D03*
X31500000Y-24900000D03*
X31700000Y-22400000D03*
X35000000Y-25800000D03*
X35400000Y-28100000D03*
X35700000Y-29900000D03*
X48500000Y-27600000D03*
X48000000Y-34400000D03*
X48000000Y-35400000D03*
X38600000Y-35000000D03*
X39400000Y-35300000D03*
X47900000Y-41000000D03*
X47500000Y-43900000D03*
X47500000Y-46500000D03*
X45100000Y-45100000D03*
X42500000Y-44700000D03*
X36800000Y-34600000D03*
X36000000Y-35600000D03*
X34200000Y-36600000D03*
X34900000Y-37200000D03*
X28100000Y-30600000D03*
X28100000Y-33200000D03*
X28100000Y-35700000D03*
X28800000Y-37800000D03*
X26300000Y-36000000D03*
X26500000Y-38300000D03*
X29400000Y-42100000D03*
X29400000Y-44800000D03*
X28900000Y-48700000D03*
X28900000Y-50100000D03*
X30500000Y-48700000D03*
X38100000Y-47400000D03*
X39800000Y-47500000D03*
X29100000Y-54200000D03*
X49100000Y-47700000D03*
X49200000Y-51200000D03*
X49400000Y-34000000D03*
X49400000Y-38300000D03*
X49400000Y-43300000D03*
X42400000Y-43100000D03*
X37100000Y-44200000D03*
G04 #@! TD*
D28*
G04 #@! TO.N,+3V3*
X46300000Y-38700000D02*
X43800000Y-38700000D01*
X43800000Y-38700000D02*
X41300000Y-38700000D01*
X46300000Y-38700000D02*
X46300000Y-37710777D01*
X46340768Y-37670009D02*
X46640767Y-37370010D01*
X46300000Y-37710777D02*
X46340768Y-37670009D01*
X23400000Y-30900000D02*
X24050000Y-30900000D01*
X24050000Y-30900000D02*
X24250000Y-31100000D01*
X23400000Y-30900000D02*
X20300000Y-30900000D01*
X20300000Y-30900000D02*
X19900000Y-30500000D01*
X37375736Y-26900000D02*
X37800000Y-26900000D01*
X34700000Y-26900000D02*
X37375736Y-26900000D01*
X31500000Y-23700000D02*
X34700000Y-26900000D01*
X23730000Y-22270000D02*
X25160000Y-23700000D01*
X25160000Y-23700000D02*
X31500000Y-23700000D01*
G04 #@! TO.N,+5V*
X19900000Y-55875736D02*
X18100000Y-54075736D01*
X19900000Y-56300000D02*
X19900000Y-55875736D01*
X18100000Y-46500000D02*
X19900000Y-44700000D01*
X18100000Y-54075736D02*
X18100000Y-46500000D01*
X19700000Y-44500000D02*
X19900000Y-44700000D01*
X19700000Y-43900000D02*
X19700000Y-44500000D01*
X19900000Y-56300000D02*
X21200000Y-57600000D01*
X21200000Y-57600000D02*
X32500000Y-57600000D01*
G04 #@! TO.N,VCC*
X34700000Y-61100000D02*
X34700000Y-62080000D01*
X34700000Y-62080000D02*
X35450000Y-62830000D01*
X35450000Y-63950000D02*
X36200000Y-64700000D01*
X35450000Y-62830000D02*
X35450000Y-63950000D01*
X44800000Y-65200000D02*
X45900000Y-65200000D01*
X44000001Y-64400001D02*
X44800000Y-65200000D01*
X36499999Y-64400001D02*
X44000001Y-64400001D01*
X36200000Y-64700000D02*
X36499999Y-64400001D01*
X34700000Y-61100000D02*
X33600000Y-60000000D01*
X33600000Y-60000000D02*
X33600000Y-57700000D01*
X33600000Y-57700000D02*
X32300000Y-56400000D01*
X32300000Y-56400000D02*
X24100000Y-56400000D01*
X24100000Y-56400000D02*
X20500000Y-52800000D01*
X21500000Y-49100000D02*
X22700000Y-49100000D01*
X21500000Y-49100000D02*
X20500000Y-49100000D01*
X20500000Y-49100000D02*
X20500000Y-52800000D01*
X20500000Y-46600000D02*
X20500000Y-49100000D01*
X20500000Y-46600000D02*
X19200000Y-46600000D01*
X19200000Y-46600000D02*
X19000000Y-46800000D01*
X22000000Y-45100000D02*
X22000000Y-43300000D01*
X20500000Y-46600000D02*
X22000000Y-45100000D01*
G04 #@! TO.N,+BATT*
X37700000Y-34700000D02*
X42400000Y-30000000D01*
X37700000Y-37400000D02*
X37700000Y-34700000D01*
X35200000Y-43400000D02*
X35400000Y-43200000D01*
X23400000Y-43400000D02*
X35200000Y-43400000D01*
X22700000Y-42700000D02*
X19700000Y-42700000D01*
X23400000Y-43400000D02*
X22700000Y-42700000D01*
X19700000Y-42700000D02*
X14200000Y-48200000D01*
X14200000Y-48200000D02*
X14200000Y-63400000D01*
X14200000Y-63400000D02*
X15600000Y-64800000D01*
X23000000Y-66050000D02*
X21750000Y-64800000D01*
X21750000Y-64800000D02*
X15600000Y-64800000D01*
X23000000Y-67600000D02*
X23000000Y-66050000D01*
G04 #@! TO.N,+12V*
X48300000Y-60400000D02*
X48300000Y-61462500D01*
X33344130Y-30632134D02*
X33342656Y-30630660D01*
X33344130Y-30632134D02*
X33344130Y-29644130D01*
X33344130Y-29644130D02*
X33000000Y-29300000D01*
X33000000Y-28300000D02*
X33000000Y-29300000D01*
X9100000Y-22000000D02*
X10900000Y-20200000D01*
X7580000Y-22000000D02*
X9100000Y-22000000D01*
X10900000Y-20200000D02*
X15700000Y-20200000D01*
X15700000Y-20200000D02*
X20400000Y-24900000D01*
X20400000Y-24900000D02*
X29600000Y-24900000D01*
X29600000Y-24900000D02*
X33000000Y-28300000D01*
X33344130Y-36744130D02*
X33344130Y-30632134D01*
X48300000Y-57680000D02*
X48300000Y-51700000D01*
X48300000Y-51700000D02*
X33344130Y-36744130D01*
G04 #@! TO.N,Net-(C307-Pad2)*
X36900000Y-53475736D02*
X36900000Y-45400000D01*
X30700000Y-55800000D02*
X34575736Y-55800000D01*
X34575736Y-55800000D02*
X36900000Y-53475736D01*
G04 #@! TO.N,/microcontroller/USB3*
X20224264Y-58000000D02*
X19800000Y-58000000D01*
X20574265Y-58350001D02*
X20224264Y-58000000D01*
X32200000Y-59100000D02*
X31450001Y-58350001D01*
X31450001Y-58350001D02*
X20574265Y-58350001D01*
G04 #@! TO.N,/microcontroller/USB2*
X32530000Y-62830000D02*
X31800000Y-62100000D01*
X33550000Y-62830000D02*
X32530000Y-62830000D01*
X20199999Y-59099999D02*
X19900000Y-58800000D01*
X29860660Y-59100000D02*
X20199999Y-59099999D01*
X31800000Y-61039340D02*
X29860660Y-59100000D01*
X31800000Y-62100000D02*
X31800000Y-61039340D01*
G04 #@! TO.N,/microcontroller/I2C_SCL_DISP*
X39947258Y-45796976D02*
X40183828Y-45796976D01*
X40183828Y-45796976D02*
X40608092Y-45796976D01*
X30900000Y-36749718D02*
X39947258Y-45796976D01*
X30900000Y-28400000D02*
X30900000Y-36749718D01*
G04 #@! TO.N,/microcontroller/I2C_SDA_DISP*
X39496943Y-44503059D02*
X39796942Y-44803058D01*
X31800000Y-36806116D02*
X39496943Y-44503059D01*
X31800000Y-28400000D02*
X31800000Y-36806116D01*
G04 #@! TO.N,/microcontroller/EXP1*
X38950000Y-22200000D02*
X38600000Y-22550000D01*
X40100000Y-22200000D02*
X38950000Y-22200000D01*
X38600000Y-22550000D02*
X38600000Y-28100000D01*
X34000000Y-32700000D02*
X34000000Y-35700000D01*
X38600000Y-28100000D02*
X34000000Y-32700000D01*
G04 #@! TO.N,/microcontroller/EXP3*
X47400000Y-29000000D02*
X48700000Y-30300000D01*
X48700000Y-30300000D02*
X48700000Y-46600000D01*
X48700000Y-46600000D02*
X47300000Y-48000000D01*
X47400000Y-29000000D02*
X45200000Y-26800000D01*
G04 #@! TO.N,/microcontroller/EXP2*
X35000000Y-36200000D02*
X36900000Y-38100000D01*
X41400000Y-26100000D02*
X35000000Y-32500000D01*
X42640000Y-22200000D02*
X41400000Y-23440000D01*
X35000000Y-32500000D02*
X35000000Y-36200000D01*
X41400000Y-23440000D02*
X41400000Y-26100000D01*
G04 #@! TO.N,/microcontroller/EXP4*
X42640000Y-25760000D02*
X42640000Y-24740000D01*
X37200000Y-31200000D02*
X42640000Y-25760000D01*
G04 #@! TO.N,/microcontroller/EXP5*
X45060000Y-24740000D02*
X45180000Y-24740000D01*
X35900000Y-33900000D02*
X45060000Y-24740000D01*
G04 #@! TO.N,/microcontroller/SENSOR*
X29800000Y-24300000D02*
X34500000Y-29000000D01*
X6440000Y-20600000D02*
X9600000Y-20600000D01*
X5040000Y-22000000D02*
X6440000Y-20600000D01*
X9600000Y-20600000D02*
X10600000Y-19600000D01*
X10600000Y-19600000D02*
X16000000Y-19600000D01*
X16000000Y-19600000D02*
X20700000Y-24300000D01*
X20700000Y-24300000D02*
X29800000Y-24300000D01*
G04 #@! TO.N,/microcontroller/JP_ADD1*
X41700000Y-35500000D02*
X43000000Y-36800000D01*
X43000000Y-36800000D02*
X46900000Y-36800000D01*
X46900000Y-36800000D02*
X47600000Y-37500000D01*
X47350000Y-40000000D02*
X46300000Y-40000000D01*
X47600000Y-39750000D02*
X47350000Y-40000000D01*
X47600000Y-37500000D02*
X47600000Y-39750000D01*
G04 #@! TO.N,/microcontroller/JP_ADD2*
X44600000Y-40000000D02*
X43800000Y-40000000D01*
X43056242Y-35613131D02*
X43356241Y-35913130D01*
X42200000Y-34000000D02*
X42200000Y-34756889D01*
X42200000Y-34756889D02*
X43056242Y-35613131D01*
G04 #@! TO.N,/microcontroller/JP_ADD3*
X40900000Y-33900000D02*
X40900000Y-36400000D01*
X40900000Y-36400000D02*
X39800000Y-37500000D01*
X40250000Y-40000000D02*
X41300000Y-40000000D01*
X39800000Y-39550000D02*
X40250000Y-40000000D01*
X39800000Y-37500000D02*
X39800000Y-39550000D01*
G04 #@! TO.N,/microcontroller/SLEEP_12V*
X32700000Y-36900000D02*
X32700000Y-34300000D01*
X46100000Y-51800000D02*
X46100000Y-50300000D01*
X46100000Y-50300000D02*
X32700000Y-36900000D01*
G04 #@! TO.N,/microcontroller/PW_STATE2*
X33587500Y-55100000D02*
X33050000Y-55100000D01*
X33050000Y-55100000D02*
X26800000Y-55100000D01*
X26800000Y-55100000D02*
X21700000Y-50000000D01*
G04 #@! TO.N,/microcontroller/PW_STATE1*
X33575000Y-53500000D02*
X26208722Y-53500000D01*
X26208722Y-53500000D02*
X26200000Y-53500000D01*
X26100000Y-53500000D02*
X22500000Y-49900000D01*
X26208722Y-53500000D02*
X26100000Y-53500000D01*
G04 #@! TO.N,/supply & charger/POWER_GOOD*
X33587500Y-51900000D02*
X26100000Y-51900000D01*
X26100000Y-51900000D02*
X25600000Y-51900000D01*
X25600000Y-51900000D02*
X24500000Y-50800000D01*
G04 #@! TO.N,/microcontroller/BUTTON1*
X32375736Y-42100000D02*
X32800000Y-42100000D01*
X14700000Y-40800000D02*
X31075736Y-40800000D01*
X31075736Y-40800000D02*
X32375736Y-42100000D01*
G04 #@! TO.N,/microcontroller/BUTTON2*
X11200000Y-43100000D02*
X14109897Y-40190103D01*
X14109897Y-40190103D02*
X31690103Y-40190103D01*
X31690103Y-40190103D02*
X32700000Y-41200000D01*
X11200000Y-43100000D02*
X11200000Y-48600000D01*
G04 #@! TO.N,/microcontroller/BOOT*
X12900000Y-51900000D02*
X12000000Y-52800000D01*
X11400000Y-53400000D02*
X12000000Y-52800000D01*
X11400000Y-57900000D02*
X11400000Y-53400000D01*
G04 #@! TO.N,/microcontroller/LED_R*
X36300000Y-43000000D02*
X36300000Y-43600000D01*
X30200000Y-36900000D02*
X36300000Y-43000000D01*
X30200000Y-30200000D02*
X30200000Y-36900000D01*
X26400000Y-26400000D02*
X30200000Y-30200000D01*
X18800000Y-25300000D02*
X19900000Y-26400000D01*
X19900000Y-26400000D02*
X26400000Y-26400000D01*
G04 #@! TO.N,/microcontroller/LED_G*
X26600000Y-25700000D02*
X20393884Y-25700000D01*
X30000000Y-29100000D02*
X26600000Y-25700000D01*
X20393884Y-25700000D02*
X20200000Y-25700000D01*
X20200000Y-25700000D02*
X17800000Y-23300000D01*
G04 #@! TO.N,/microcontroller/RTS*
X15400000Y-62200000D02*
X15400000Y-62900000D01*
X15400000Y-62900000D02*
X15900000Y-63400000D01*
X18400000Y-63400000D02*
X15900000Y-63400000D01*
G04 #@! TO.N,/microcontroller/LED_B*
X26100000Y-27000000D02*
X29500000Y-30400000D01*
X29500000Y-30400000D02*
X29500000Y-37000000D01*
X29500000Y-37000000D02*
X33600000Y-41100000D01*
X33600000Y-41100000D02*
X33600000Y-42700000D01*
X26100000Y-27000000D02*
X13000000Y-27000000D01*
X13000000Y-27000000D02*
X11000000Y-25000000D01*
G04 #@! TO.N,/microcontroller/BUZZER_PWM*
X28700000Y-39200000D02*
X14800000Y-39200000D01*
G04 #@! TO.N,/microcontroller/UART_RX*
X17700000Y-61300000D02*
X16900000Y-62100000D01*
X29900000Y-61300000D02*
X17700000Y-61300000D01*
G04 #@! TO.N,/microcontroller/UART_TX*
X30300000Y-60500000D02*
X18500000Y-60500000D01*
X16200000Y-62600000D02*
X16200000Y-61700000D01*
X17400000Y-60500000D02*
X18500000Y-60500000D01*
X16200000Y-61700000D02*
X17400000Y-60500000D01*
G04 #@! TD*
D29*
G04 #@! TO.N,GNDREF*
G36*
X25175000Y-38725000D02*
X15325000Y-38725000D01*
X15325000Y-34756217D01*
X21070560Y-34756217D01*
X21095194Y-34844555D01*
X21300042Y-34885285D01*
X21504806Y-34844555D01*
X21529440Y-34756217D01*
X21300000Y-34526777D01*
X21070560Y-34756217D01*
X15325000Y-34756217D01*
X15325000Y-34350042D01*
X20764715Y-34350042D01*
X20805445Y-34554806D01*
X20893783Y-34579440D01*
X21123223Y-34350000D01*
X21476777Y-34350000D01*
X21706217Y-34579440D01*
X21794555Y-34554806D01*
X21835285Y-34349958D01*
X21794555Y-34145194D01*
X21706217Y-34120560D01*
X21476777Y-34350000D01*
X21123223Y-34350000D01*
X20893783Y-34120560D01*
X20805445Y-34145194D01*
X20764715Y-34350042D01*
X15325000Y-34350042D01*
X15325000Y-33943783D01*
X21070560Y-33943783D01*
X21300000Y-34173223D01*
X21529440Y-33943783D01*
X21504806Y-33855445D01*
X21299958Y-33814715D01*
X21095194Y-33855445D01*
X21070560Y-33943783D01*
X15325000Y-33943783D01*
X15325000Y-33806217D01*
X20495560Y-33806217D01*
X20520194Y-33894555D01*
X20725042Y-33935285D01*
X20929806Y-33894555D01*
X20954440Y-33806217D01*
X21645560Y-33806217D01*
X21670194Y-33894555D01*
X21875042Y-33935285D01*
X22079806Y-33894555D01*
X22104440Y-33806217D01*
X21875000Y-33576777D01*
X21645560Y-33806217D01*
X20954440Y-33806217D01*
X20725000Y-33576777D01*
X20495560Y-33806217D01*
X15325000Y-33806217D01*
X15325000Y-33400042D01*
X20189715Y-33400042D01*
X20230445Y-33604806D01*
X20318783Y-33629440D01*
X20548223Y-33400000D01*
X20901777Y-33400000D01*
X21131217Y-33629440D01*
X21219555Y-33604806D01*
X21260268Y-33400042D01*
X21339715Y-33400042D01*
X21380445Y-33604806D01*
X21468783Y-33629440D01*
X21698223Y-33400000D01*
X22051777Y-33400000D01*
X22281217Y-33629440D01*
X22369555Y-33604806D01*
X22410285Y-33399958D01*
X22369555Y-33195194D01*
X22281217Y-33170560D01*
X22051777Y-33400000D01*
X21698223Y-33400000D01*
X21468783Y-33170560D01*
X21380445Y-33195194D01*
X21339715Y-33400042D01*
X21260268Y-33400042D01*
X21260285Y-33399958D01*
X21219555Y-33195194D01*
X21131217Y-33170560D01*
X20901777Y-33400000D01*
X20548223Y-33400000D01*
X20318783Y-33170560D01*
X20230445Y-33195194D01*
X20189715Y-33400042D01*
X15325000Y-33400042D01*
X15325000Y-32993783D01*
X20495560Y-32993783D01*
X20725000Y-33223223D01*
X20954440Y-32993783D01*
X21645560Y-32993783D01*
X21875000Y-33223223D01*
X22104440Y-32993783D01*
X22079806Y-32905445D01*
X21874958Y-32864715D01*
X21670194Y-32905445D01*
X21645560Y-32993783D01*
X20954440Y-32993783D01*
X20929806Y-32905445D01*
X20724958Y-32864715D01*
X20520194Y-32905445D01*
X20495560Y-32993783D01*
X15325000Y-32993783D01*
X15325000Y-32856217D01*
X21070560Y-32856217D01*
X21095194Y-32944555D01*
X21300042Y-32985285D01*
X21504806Y-32944555D01*
X21529440Y-32856217D01*
X21300000Y-32626777D01*
X21070560Y-32856217D01*
X15325000Y-32856217D01*
X15325000Y-32450042D01*
X20764715Y-32450042D01*
X20805445Y-32654806D01*
X20893783Y-32679440D01*
X21123223Y-32450000D01*
X21476777Y-32450000D01*
X21706217Y-32679440D01*
X21794555Y-32654806D01*
X21835285Y-32449958D01*
X21794555Y-32245194D01*
X21706217Y-32220560D01*
X21476777Y-32450000D01*
X21123223Y-32450000D01*
X20893783Y-32220560D01*
X20805445Y-32245194D01*
X20764715Y-32450042D01*
X15325000Y-32450042D01*
X15325000Y-32043783D01*
X21070560Y-32043783D01*
X21300000Y-32273223D01*
X21529440Y-32043783D01*
X21504806Y-31955445D01*
X21299958Y-31914715D01*
X21095194Y-31955445D01*
X21070560Y-32043783D01*
X15325000Y-32043783D01*
X15325000Y-30375680D01*
X19275000Y-30375680D01*
X19275000Y-30624320D01*
X19370151Y-30854034D01*
X19545966Y-31029849D01*
X19775680Y-31125000D01*
X19853249Y-31125000D01*
X19931049Y-31202800D01*
X19957545Y-31242455D01*
X19997199Y-31268951D01*
X19997201Y-31268953D01*
X20079140Y-31323702D01*
X20114665Y-31347439D01*
X20253221Y-31375000D01*
X20253225Y-31375000D01*
X20299999Y-31384304D01*
X20346773Y-31375000D01*
X22433180Y-31375000D01*
X22488659Y-31508938D01*
X22791062Y-31811341D01*
X23186169Y-31975000D01*
X23613831Y-31975000D01*
X24008938Y-31811341D01*
X24104183Y-31716096D01*
X24125680Y-31725000D01*
X24374320Y-31725000D01*
X24604034Y-31629849D01*
X24779849Y-31454034D01*
X24875000Y-31224320D01*
X24875000Y-30975680D01*
X24779849Y-30745966D01*
X24604034Y-30570151D01*
X24390267Y-30481605D01*
X24311341Y-30291062D01*
X24008938Y-29988659D01*
X23613831Y-29825000D01*
X23186169Y-29825000D01*
X22791062Y-29988659D01*
X22488659Y-30291062D01*
X22433180Y-30425000D01*
X20525000Y-30425000D01*
X20525000Y-30375680D01*
X20429849Y-30145966D01*
X20254034Y-29970151D01*
X20024320Y-29875000D01*
X19775680Y-29875000D01*
X19545966Y-29970151D01*
X19370151Y-30145966D01*
X19275000Y-30375680D01*
X15325000Y-30375680D01*
X15325000Y-27525000D01*
X25175000Y-27525000D01*
X25175000Y-38725000D01*
X25175000Y-38725000D01*
G37*
X25175000Y-38725000D02*
X15325000Y-38725000D01*
X15325000Y-34756217D01*
X21070560Y-34756217D01*
X21095194Y-34844555D01*
X21300042Y-34885285D01*
X21504806Y-34844555D01*
X21529440Y-34756217D01*
X21300000Y-34526777D01*
X21070560Y-34756217D01*
X15325000Y-34756217D01*
X15325000Y-34350042D01*
X20764715Y-34350042D01*
X20805445Y-34554806D01*
X20893783Y-34579440D01*
X21123223Y-34350000D01*
X21476777Y-34350000D01*
X21706217Y-34579440D01*
X21794555Y-34554806D01*
X21835285Y-34349958D01*
X21794555Y-34145194D01*
X21706217Y-34120560D01*
X21476777Y-34350000D01*
X21123223Y-34350000D01*
X20893783Y-34120560D01*
X20805445Y-34145194D01*
X20764715Y-34350042D01*
X15325000Y-34350042D01*
X15325000Y-33943783D01*
X21070560Y-33943783D01*
X21300000Y-34173223D01*
X21529440Y-33943783D01*
X21504806Y-33855445D01*
X21299958Y-33814715D01*
X21095194Y-33855445D01*
X21070560Y-33943783D01*
X15325000Y-33943783D01*
X15325000Y-33806217D01*
X20495560Y-33806217D01*
X20520194Y-33894555D01*
X20725042Y-33935285D01*
X20929806Y-33894555D01*
X20954440Y-33806217D01*
X21645560Y-33806217D01*
X21670194Y-33894555D01*
X21875042Y-33935285D01*
X22079806Y-33894555D01*
X22104440Y-33806217D01*
X21875000Y-33576777D01*
X21645560Y-33806217D01*
X20954440Y-33806217D01*
X20725000Y-33576777D01*
X20495560Y-33806217D01*
X15325000Y-33806217D01*
X15325000Y-33400042D01*
X20189715Y-33400042D01*
X20230445Y-33604806D01*
X20318783Y-33629440D01*
X20548223Y-33400000D01*
X20901777Y-33400000D01*
X21131217Y-33629440D01*
X21219555Y-33604806D01*
X21260268Y-33400042D01*
X21339715Y-33400042D01*
X21380445Y-33604806D01*
X21468783Y-33629440D01*
X21698223Y-33400000D01*
X22051777Y-33400000D01*
X22281217Y-33629440D01*
X22369555Y-33604806D01*
X22410285Y-33399958D01*
X22369555Y-33195194D01*
X22281217Y-33170560D01*
X22051777Y-33400000D01*
X21698223Y-33400000D01*
X21468783Y-33170560D01*
X21380445Y-33195194D01*
X21339715Y-33400042D01*
X21260268Y-33400042D01*
X21260285Y-33399958D01*
X21219555Y-33195194D01*
X21131217Y-33170560D01*
X20901777Y-33400000D01*
X20548223Y-33400000D01*
X20318783Y-33170560D01*
X20230445Y-33195194D01*
X20189715Y-33400042D01*
X15325000Y-33400042D01*
X15325000Y-32993783D01*
X20495560Y-32993783D01*
X20725000Y-33223223D01*
X20954440Y-32993783D01*
X21645560Y-32993783D01*
X21875000Y-33223223D01*
X22104440Y-32993783D01*
X22079806Y-32905445D01*
X21874958Y-32864715D01*
X21670194Y-32905445D01*
X21645560Y-32993783D01*
X20954440Y-32993783D01*
X20929806Y-32905445D01*
X20724958Y-32864715D01*
X20520194Y-32905445D01*
X20495560Y-32993783D01*
X15325000Y-32993783D01*
X15325000Y-32856217D01*
X21070560Y-32856217D01*
X21095194Y-32944555D01*
X21300042Y-32985285D01*
X21504806Y-32944555D01*
X21529440Y-32856217D01*
X21300000Y-32626777D01*
X21070560Y-32856217D01*
X15325000Y-32856217D01*
X15325000Y-32450042D01*
X20764715Y-32450042D01*
X20805445Y-32654806D01*
X20893783Y-32679440D01*
X21123223Y-32450000D01*
X21476777Y-32450000D01*
X21706217Y-32679440D01*
X21794555Y-32654806D01*
X21835285Y-32449958D01*
X21794555Y-32245194D01*
X21706217Y-32220560D01*
X21476777Y-32450000D01*
X21123223Y-32450000D01*
X20893783Y-32220560D01*
X20805445Y-32245194D01*
X20764715Y-32450042D01*
X15325000Y-32450042D01*
X15325000Y-32043783D01*
X21070560Y-32043783D01*
X21300000Y-32273223D01*
X21529440Y-32043783D01*
X21504806Y-31955445D01*
X21299958Y-31914715D01*
X21095194Y-31955445D01*
X21070560Y-32043783D01*
X15325000Y-32043783D01*
X15325000Y-30375680D01*
X19275000Y-30375680D01*
X19275000Y-30624320D01*
X19370151Y-30854034D01*
X19545966Y-31029849D01*
X19775680Y-31125000D01*
X19853249Y-31125000D01*
X19931049Y-31202800D01*
X19957545Y-31242455D01*
X19997199Y-31268951D01*
X19997201Y-31268953D01*
X20079140Y-31323702D01*
X20114665Y-31347439D01*
X20253221Y-31375000D01*
X20253225Y-31375000D01*
X20299999Y-31384304D01*
X20346773Y-31375000D01*
X22433180Y-31375000D01*
X22488659Y-31508938D01*
X22791062Y-31811341D01*
X23186169Y-31975000D01*
X23613831Y-31975000D01*
X24008938Y-31811341D01*
X24104183Y-31716096D01*
X24125680Y-31725000D01*
X24374320Y-31725000D01*
X24604034Y-31629849D01*
X24779849Y-31454034D01*
X24875000Y-31224320D01*
X24875000Y-30975680D01*
X24779849Y-30745966D01*
X24604034Y-30570151D01*
X24390267Y-30481605D01*
X24311341Y-30291062D01*
X24008938Y-29988659D01*
X23613831Y-29825000D01*
X23186169Y-29825000D01*
X22791062Y-29988659D01*
X22488659Y-30291062D01*
X22433180Y-30425000D01*
X20525000Y-30425000D01*
X20525000Y-30375680D01*
X20429849Y-30145966D01*
X20254034Y-29970151D01*
X20024320Y-29875000D01*
X19775680Y-29875000D01*
X19545966Y-29970151D01*
X19370151Y-30145966D01*
X19275000Y-30375680D01*
X15325000Y-30375680D01*
X15325000Y-27525000D01*
X25175000Y-27525000D01*
X25175000Y-38725000D01*
D30*
G04 #@! TO.N,GNDS*
G36*
X5478296Y-20887125D02*
X5155920Y-20823000D01*
X4924080Y-20823000D01*
X4580758Y-20891291D01*
X4191431Y-21151431D01*
X3931291Y-21540758D01*
X3839942Y-22000000D01*
X3931291Y-22459242D01*
X4191431Y-22848569D01*
X4580758Y-23108709D01*
X4924080Y-23177000D01*
X5155920Y-23177000D01*
X5499242Y-23108709D01*
X5888569Y-22848569D01*
X6148709Y-22459242D01*
X6240058Y-22000000D01*
X6152875Y-21561704D01*
X6637580Y-21077000D01*
X6842825Y-21077000D01*
X6731431Y-21151431D01*
X6471291Y-21540758D01*
X6379942Y-22000000D01*
X6471291Y-22459242D01*
X6731431Y-22848569D01*
X7120758Y-23108709D01*
X7464080Y-23177000D01*
X7695920Y-23177000D01*
X8039242Y-23108709D01*
X8201936Y-23000000D01*
X12978000Y-23000000D01*
X13093855Y-23582444D01*
X13423783Y-24076217D01*
X13917556Y-24406145D01*
X14500000Y-24522000D01*
X15082444Y-24406145D01*
X15576217Y-24076217D01*
X15906145Y-23582444D01*
X16022000Y-23000000D01*
X15906145Y-22417556D01*
X15576217Y-21923783D01*
X15082444Y-21593855D01*
X14500000Y-21478000D01*
X13917556Y-21593855D01*
X13423783Y-21923783D01*
X13093855Y-22417556D01*
X12978000Y-23000000D01*
X8201936Y-23000000D01*
X8428569Y-22848569D01*
X8676843Y-22477000D01*
X9053029Y-22477000D01*
X9100000Y-22486343D01*
X9146971Y-22477000D01*
X9146975Y-22477000D01*
X9286116Y-22449323D01*
X9443897Y-22343897D01*
X9470508Y-22304071D01*
X11097579Y-20677000D01*
X15502421Y-20677000D01*
X17550222Y-22724801D01*
X17444833Y-22768455D01*
X17268455Y-22944833D01*
X17173000Y-23175282D01*
X17173000Y-23424718D01*
X17268455Y-23655167D01*
X17444833Y-23831545D01*
X17675282Y-23927000D01*
X17752421Y-23927000D01*
X18550222Y-24724801D01*
X18444833Y-24768455D01*
X18268455Y-24944833D01*
X18173000Y-25175282D01*
X18173000Y-25424718D01*
X18268455Y-25655167D01*
X18444833Y-25831545D01*
X18675282Y-25927000D01*
X18752421Y-25927000D01*
X19348420Y-26523000D01*
X13197580Y-26523000D01*
X11627000Y-24952421D01*
X11627000Y-24875282D01*
X11531545Y-24644833D01*
X11355167Y-24468455D01*
X11124718Y-24373000D01*
X10875282Y-24373000D01*
X10644833Y-24468455D01*
X10468455Y-24644833D01*
X10373000Y-24875282D01*
X10373000Y-25124718D01*
X10468455Y-25355167D01*
X10644833Y-25531545D01*
X10875282Y-25627000D01*
X10952421Y-25627000D01*
X12629493Y-27304073D01*
X12656103Y-27343897D01*
X12813884Y-27449323D01*
X12953025Y-27477000D01*
X12953028Y-27477000D01*
X12999999Y-27486343D01*
X13046970Y-27477000D01*
X14873000Y-27477000D01*
X14873000Y-38573000D01*
X14675282Y-38573000D01*
X14444833Y-38668455D01*
X14268455Y-38844833D01*
X14173000Y-39075282D01*
X14173000Y-39324718D01*
X14268455Y-39555167D01*
X14426391Y-39713103D01*
X14156868Y-39713103D01*
X14109897Y-39703760D01*
X14062926Y-39713103D01*
X14062922Y-39713103D01*
X13923781Y-39740780D01*
X13766000Y-39846206D01*
X13739391Y-39886029D01*
X12352420Y-41273000D01*
X12300000Y-41273000D01*
X12174863Y-41297891D01*
X12068776Y-41368776D01*
X11997891Y-41474863D01*
X11973000Y-41600000D01*
X11973000Y-41652421D01*
X10895929Y-42729492D01*
X10856103Y-42756103D01*
X10750677Y-42913885D01*
X10723000Y-43053026D01*
X10723000Y-43053029D01*
X10713657Y-43100000D01*
X10723000Y-43146971D01*
X10723001Y-48190287D01*
X10668455Y-48244833D01*
X10573000Y-48475282D01*
X10573000Y-48724718D01*
X10668455Y-48955167D01*
X10844833Y-49131545D01*
X11075282Y-49227000D01*
X11324718Y-49227000D01*
X11555167Y-49131545D01*
X11731545Y-48955167D01*
X11827000Y-48724718D01*
X11827000Y-48475282D01*
X11731545Y-48244833D01*
X11677000Y-48190288D01*
X11677000Y-43297579D01*
X11973000Y-43001579D01*
X11973000Y-52152421D01*
X11695929Y-52429492D01*
X11695926Y-52429494D01*
X11095926Y-53029494D01*
X11056104Y-53056103D01*
X11029495Y-53095926D01*
X11029494Y-53095927D01*
X10950677Y-53213885D01*
X10913657Y-53400000D01*
X10923001Y-53446976D01*
X10923000Y-57490288D01*
X10868455Y-57544833D01*
X10773000Y-57775282D01*
X10773000Y-58024718D01*
X10868455Y-58255167D01*
X11044833Y-58431545D01*
X11275282Y-58527000D01*
X11524718Y-58527000D01*
X11755167Y-58431545D01*
X11931545Y-58255167D01*
X11973000Y-58155086D01*
X11973000Y-64573000D01*
X402000Y-64573000D01*
X402000Y-27700000D01*
X1866594Y-27700000D01*
X1866594Y-29300000D01*
X1891973Y-29427589D01*
X1964246Y-29535754D01*
X2072411Y-29608027D01*
X2200000Y-29633406D01*
X3800000Y-29633406D01*
X3927589Y-29608027D01*
X4035754Y-29535754D01*
X4108027Y-29427589D01*
X4133406Y-29300000D01*
X4133406Y-28275826D01*
X5873000Y-28275826D01*
X5873000Y-28724174D01*
X6044576Y-29138394D01*
X6361606Y-29455424D01*
X6775826Y-29627000D01*
X7224174Y-29627000D01*
X7638394Y-29455424D01*
X7955424Y-29138394D01*
X8127000Y-28724174D01*
X8127000Y-28275826D01*
X7955424Y-27861606D01*
X7638394Y-27544576D01*
X7224174Y-27373000D01*
X6775826Y-27373000D01*
X6361606Y-27544576D01*
X6044576Y-27861606D01*
X5873000Y-28275826D01*
X4133406Y-28275826D01*
X4133406Y-27700000D01*
X4108027Y-27572411D01*
X4035754Y-27464246D01*
X3927589Y-27391973D01*
X3800000Y-27366594D01*
X2200000Y-27366594D01*
X2072411Y-27391973D01*
X1964246Y-27464246D01*
X1891973Y-27572411D01*
X1866594Y-27700000D01*
X402000Y-27700000D01*
X402000Y-22208750D01*
X1323000Y-22208750D01*
X1323000Y-22915044D01*
X1372783Y-23035230D01*
X1464769Y-23127217D01*
X1584955Y-23177000D01*
X2291250Y-23177000D01*
X2373000Y-23095250D01*
X2373000Y-22127000D01*
X2627000Y-22127000D01*
X2627000Y-23095250D01*
X2708750Y-23177000D01*
X3415045Y-23177000D01*
X3535231Y-23127217D01*
X3627217Y-23035230D01*
X3677000Y-22915044D01*
X3677000Y-22208750D01*
X3595250Y-22127000D01*
X2627000Y-22127000D01*
X2373000Y-22127000D01*
X1404750Y-22127000D01*
X1323000Y-22208750D01*
X402000Y-22208750D01*
X402000Y-22028639D01*
X470167Y-21552646D01*
X657217Y-21141254D01*
X705726Y-21084956D01*
X1323000Y-21084956D01*
X1323000Y-21791250D01*
X1404750Y-21873000D01*
X2373000Y-21873000D01*
X2373000Y-20904750D01*
X2627000Y-20904750D01*
X2627000Y-21873000D01*
X3595250Y-21873000D01*
X3677000Y-21791250D01*
X3677000Y-21084956D01*
X3627217Y-20964770D01*
X3535231Y-20872783D01*
X3415045Y-20823000D01*
X2708750Y-20823000D01*
X2627000Y-20904750D01*
X2373000Y-20904750D01*
X2291250Y-20823000D01*
X1584955Y-20823000D01*
X1464769Y-20872783D01*
X1372783Y-20964770D01*
X1323000Y-21084956D01*
X705726Y-21084956D01*
X952212Y-20798895D01*
X1331437Y-20553094D01*
X1777721Y-20419627D01*
X2014921Y-20402000D01*
X5963420Y-20402000D01*
X5478296Y-20887125D01*
X5478296Y-20887125D01*
G37*
X5478296Y-20887125D02*
X5155920Y-20823000D01*
X4924080Y-20823000D01*
X4580758Y-20891291D01*
X4191431Y-21151431D01*
X3931291Y-21540758D01*
X3839942Y-22000000D01*
X3931291Y-22459242D01*
X4191431Y-22848569D01*
X4580758Y-23108709D01*
X4924080Y-23177000D01*
X5155920Y-23177000D01*
X5499242Y-23108709D01*
X5888569Y-22848569D01*
X6148709Y-22459242D01*
X6240058Y-22000000D01*
X6152875Y-21561704D01*
X6637580Y-21077000D01*
X6842825Y-21077000D01*
X6731431Y-21151431D01*
X6471291Y-21540758D01*
X6379942Y-22000000D01*
X6471291Y-22459242D01*
X6731431Y-22848569D01*
X7120758Y-23108709D01*
X7464080Y-23177000D01*
X7695920Y-23177000D01*
X8039242Y-23108709D01*
X8201936Y-23000000D01*
X12978000Y-23000000D01*
X13093855Y-23582444D01*
X13423783Y-24076217D01*
X13917556Y-24406145D01*
X14500000Y-24522000D01*
X15082444Y-24406145D01*
X15576217Y-24076217D01*
X15906145Y-23582444D01*
X16022000Y-23000000D01*
X15906145Y-22417556D01*
X15576217Y-21923783D01*
X15082444Y-21593855D01*
X14500000Y-21478000D01*
X13917556Y-21593855D01*
X13423783Y-21923783D01*
X13093855Y-22417556D01*
X12978000Y-23000000D01*
X8201936Y-23000000D01*
X8428569Y-22848569D01*
X8676843Y-22477000D01*
X9053029Y-22477000D01*
X9100000Y-22486343D01*
X9146971Y-22477000D01*
X9146975Y-22477000D01*
X9286116Y-22449323D01*
X9443897Y-22343897D01*
X9470508Y-22304071D01*
X11097579Y-20677000D01*
X15502421Y-20677000D01*
X17550222Y-22724801D01*
X17444833Y-22768455D01*
X17268455Y-22944833D01*
X17173000Y-23175282D01*
X17173000Y-23424718D01*
X17268455Y-23655167D01*
X17444833Y-23831545D01*
X17675282Y-23927000D01*
X17752421Y-23927000D01*
X18550222Y-24724801D01*
X18444833Y-24768455D01*
X18268455Y-24944833D01*
X18173000Y-25175282D01*
X18173000Y-25424718D01*
X18268455Y-25655167D01*
X18444833Y-25831545D01*
X18675282Y-25927000D01*
X18752421Y-25927000D01*
X19348420Y-26523000D01*
X13197580Y-26523000D01*
X11627000Y-24952421D01*
X11627000Y-24875282D01*
X11531545Y-24644833D01*
X11355167Y-24468455D01*
X11124718Y-24373000D01*
X10875282Y-24373000D01*
X10644833Y-24468455D01*
X10468455Y-24644833D01*
X10373000Y-24875282D01*
X10373000Y-25124718D01*
X10468455Y-25355167D01*
X10644833Y-25531545D01*
X10875282Y-25627000D01*
X10952421Y-25627000D01*
X12629493Y-27304073D01*
X12656103Y-27343897D01*
X12813884Y-27449323D01*
X12953025Y-27477000D01*
X12953028Y-27477000D01*
X12999999Y-27486343D01*
X13046970Y-27477000D01*
X14873000Y-27477000D01*
X14873000Y-38573000D01*
X14675282Y-38573000D01*
X14444833Y-38668455D01*
X14268455Y-38844833D01*
X14173000Y-39075282D01*
X14173000Y-39324718D01*
X14268455Y-39555167D01*
X14426391Y-39713103D01*
X14156868Y-39713103D01*
X14109897Y-39703760D01*
X14062926Y-39713103D01*
X14062922Y-39713103D01*
X13923781Y-39740780D01*
X13766000Y-39846206D01*
X13739391Y-39886029D01*
X12352420Y-41273000D01*
X12300000Y-41273000D01*
X12174863Y-41297891D01*
X12068776Y-41368776D01*
X11997891Y-41474863D01*
X11973000Y-41600000D01*
X11973000Y-41652421D01*
X10895929Y-42729492D01*
X10856103Y-42756103D01*
X10750677Y-42913885D01*
X10723000Y-43053026D01*
X10723000Y-43053029D01*
X10713657Y-43100000D01*
X10723000Y-43146971D01*
X10723001Y-48190287D01*
X10668455Y-48244833D01*
X10573000Y-48475282D01*
X10573000Y-48724718D01*
X10668455Y-48955167D01*
X10844833Y-49131545D01*
X11075282Y-49227000D01*
X11324718Y-49227000D01*
X11555167Y-49131545D01*
X11731545Y-48955167D01*
X11827000Y-48724718D01*
X11827000Y-48475282D01*
X11731545Y-48244833D01*
X11677000Y-48190288D01*
X11677000Y-43297579D01*
X11973000Y-43001579D01*
X11973000Y-52152421D01*
X11695929Y-52429492D01*
X11695926Y-52429494D01*
X11095926Y-53029494D01*
X11056104Y-53056103D01*
X11029495Y-53095926D01*
X11029494Y-53095927D01*
X10950677Y-53213885D01*
X10913657Y-53400000D01*
X10923001Y-53446976D01*
X10923000Y-57490288D01*
X10868455Y-57544833D01*
X10773000Y-57775282D01*
X10773000Y-58024718D01*
X10868455Y-58255167D01*
X11044833Y-58431545D01*
X11275282Y-58527000D01*
X11524718Y-58527000D01*
X11755167Y-58431545D01*
X11931545Y-58255167D01*
X11973000Y-58155086D01*
X11973000Y-64573000D01*
X402000Y-64573000D01*
X402000Y-27700000D01*
X1866594Y-27700000D01*
X1866594Y-29300000D01*
X1891973Y-29427589D01*
X1964246Y-29535754D01*
X2072411Y-29608027D01*
X2200000Y-29633406D01*
X3800000Y-29633406D01*
X3927589Y-29608027D01*
X4035754Y-29535754D01*
X4108027Y-29427589D01*
X4133406Y-29300000D01*
X4133406Y-28275826D01*
X5873000Y-28275826D01*
X5873000Y-28724174D01*
X6044576Y-29138394D01*
X6361606Y-29455424D01*
X6775826Y-29627000D01*
X7224174Y-29627000D01*
X7638394Y-29455424D01*
X7955424Y-29138394D01*
X8127000Y-28724174D01*
X8127000Y-28275826D01*
X7955424Y-27861606D01*
X7638394Y-27544576D01*
X7224174Y-27373000D01*
X6775826Y-27373000D01*
X6361606Y-27544576D01*
X6044576Y-27861606D01*
X5873000Y-28275826D01*
X4133406Y-28275826D01*
X4133406Y-27700000D01*
X4108027Y-27572411D01*
X4035754Y-27464246D01*
X3927589Y-27391973D01*
X3800000Y-27366594D01*
X2200000Y-27366594D01*
X2072411Y-27391973D01*
X1964246Y-27464246D01*
X1891973Y-27572411D01*
X1866594Y-27700000D01*
X402000Y-27700000D01*
X402000Y-22208750D01*
X1323000Y-22208750D01*
X1323000Y-22915044D01*
X1372783Y-23035230D01*
X1464769Y-23127217D01*
X1584955Y-23177000D01*
X2291250Y-23177000D01*
X2373000Y-23095250D01*
X2373000Y-22127000D01*
X2627000Y-22127000D01*
X2627000Y-23095250D01*
X2708750Y-23177000D01*
X3415045Y-23177000D01*
X3535231Y-23127217D01*
X3627217Y-23035230D01*
X3677000Y-22915044D01*
X3677000Y-22208750D01*
X3595250Y-22127000D01*
X2627000Y-22127000D01*
X2373000Y-22127000D01*
X1404750Y-22127000D01*
X1323000Y-22208750D01*
X402000Y-22208750D01*
X402000Y-22028639D01*
X470167Y-21552646D01*
X657217Y-21141254D01*
X705726Y-21084956D01*
X1323000Y-21084956D01*
X1323000Y-21791250D01*
X1404750Y-21873000D01*
X2373000Y-21873000D01*
X2373000Y-20904750D01*
X2627000Y-20904750D01*
X2627000Y-21873000D01*
X3595250Y-21873000D01*
X3677000Y-21791250D01*
X3677000Y-21084956D01*
X3627217Y-20964770D01*
X3535231Y-20872783D01*
X3415045Y-20823000D01*
X2708750Y-20823000D01*
X2627000Y-20904750D01*
X2373000Y-20904750D01*
X2291250Y-20823000D01*
X1584955Y-20823000D01*
X1464769Y-20872783D01*
X1372783Y-20964770D01*
X1323000Y-21084956D01*
X705726Y-21084956D01*
X952212Y-20798895D01*
X1331437Y-20553094D01*
X1777721Y-20419627D01*
X2014921Y-20402000D01*
X5963420Y-20402000D01*
X5478296Y-20887125D01*
G36*
X39576752Y-46101050D02*
X39603361Y-46140873D01*
X39761142Y-46246299D01*
X39900283Y-46273976D01*
X39900287Y-46273976D01*
X39947258Y-46283319D01*
X39994229Y-46273976D01*
X40198380Y-46273976D01*
X40252925Y-46328521D01*
X40483374Y-46423976D01*
X40732810Y-46423976D01*
X40963259Y-46328521D01*
X41139637Y-46152143D01*
X41180035Y-46054614D01*
X45623001Y-50497581D01*
X45623000Y-51390288D01*
X45568455Y-51444833D01*
X45473000Y-51675282D01*
X45473000Y-51924718D01*
X45568455Y-52155167D01*
X45586288Y-52173000D01*
X43277000Y-52173000D01*
X43277000Y-52058750D01*
X43195250Y-51977000D01*
X42668702Y-51977000D01*
X42625137Y-51947891D01*
X42500000Y-51923000D01*
X41900000Y-51923000D01*
X41774863Y-51947891D01*
X41731298Y-51977000D01*
X41204750Y-51977000D01*
X41123000Y-52058750D01*
X41123000Y-52173000D01*
X37377000Y-52173000D01*
X37377000Y-51284956D01*
X41123000Y-51284956D01*
X41123000Y-51641250D01*
X41204750Y-51723000D01*
X42073000Y-51723000D01*
X42073000Y-51104750D01*
X42327000Y-51104750D01*
X42327000Y-51723000D01*
X43195250Y-51723000D01*
X43277000Y-51641250D01*
X43277000Y-51284956D01*
X43227217Y-51164770D01*
X43135231Y-51072783D01*
X43015045Y-51023000D01*
X42408750Y-51023000D01*
X42327000Y-51104750D01*
X42073000Y-51104750D01*
X41991250Y-51023000D01*
X41384955Y-51023000D01*
X41264769Y-51072783D01*
X41172783Y-51164770D01*
X41123000Y-51284956D01*
X37377000Y-51284956D01*
X37377000Y-45809712D01*
X37431545Y-45755167D01*
X37527000Y-45524718D01*
X37527000Y-45275282D01*
X37431545Y-45044833D01*
X37255167Y-44868455D01*
X37024718Y-44773000D01*
X36775282Y-44773000D01*
X36544833Y-44868455D01*
X36368455Y-45044833D01*
X36273000Y-45275282D01*
X36273000Y-45524718D01*
X36368455Y-45755167D01*
X36423001Y-45809713D01*
X36423000Y-52337284D01*
X36397891Y-52374863D01*
X36373000Y-52500000D01*
X36373000Y-53328156D01*
X34378157Y-55323000D01*
X34173790Y-55323000D01*
X34214500Y-55224718D01*
X34214500Y-54975282D01*
X34119045Y-54744833D01*
X33942667Y-54568455D01*
X33712218Y-54473000D01*
X33462782Y-54473000D01*
X33232333Y-54568455D01*
X33177788Y-54623000D01*
X28127000Y-54623000D01*
X28127000Y-53977000D01*
X33165288Y-53977000D01*
X33219833Y-54031545D01*
X33450282Y-54127000D01*
X33699718Y-54127000D01*
X33930167Y-54031545D01*
X34106545Y-53855167D01*
X34202000Y-53624718D01*
X34202000Y-53375282D01*
X34106545Y-53144833D01*
X33930167Y-52968455D01*
X33699718Y-52873000D01*
X33450282Y-52873000D01*
X33219833Y-52968455D01*
X33165288Y-53023000D01*
X28127000Y-53023000D01*
X28127000Y-52377000D01*
X33177788Y-52377000D01*
X33232333Y-52431545D01*
X33462782Y-52527000D01*
X33712218Y-52527000D01*
X33942667Y-52431545D01*
X34119045Y-52255167D01*
X34214500Y-52024718D01*
X34214500Y-51775282D01*
X34119045Y-51544833D01*
X33942667Y-51368455D01*
X33712218Y-51273000D01*
X33462782Y-51273000D01*
X33232333Y-51368455D01*
X33177788Y-51423000D01*
X28127000Y-51423000D01*
X28127000Y-43877000D01*
X35153029Y-43877000D01*
X35200000Y-43886343D01*
X35246971Y-43877000D01*
X35246975Y-43877000D01*
X35386116Y-43849323D01*
X35419525Y-43827000D01*
X35524718Y-43827000D01*
X35687447Y-43759596D01*
X35768455Y-43955167D01*
X35944833Y-44131545D01*
X36175282Y-44227000D01*
X36424718Y-44227000D01*
X36655167Y-44131545D01*
X36831545Y-43955167D01*
X36927000Y-43724718D01*
X36927000Y-43475282D01*
X36910041Y-43434338D01*
X39576752Y-46101050D01*
X39576752Y-46101050D01*
G37*
X39576752Y-46101050D02*
X39603361Y-46140873D01*
X39761142Y-46246299D01*
X39900283Y-46273976D01*
X39900287Y-46273976D01*
X39947258Y-46283319D01*
X39994229Y-46273976D01*
X40198380Y-46273976D01*
X40252925Y-46328521D01*
X40483374Y-46423976D01*
X40732810Y-46423976D01*
X40963259Y-46328521D01*
X41139637Y-46152143D01*
X41180035Y-46054614D01*
X45623001Y-50497581D01*
X45623000Y-51390288D01*
X45568455Y-51444833D01*
X45473000Y-51675282D01*
X45473000Y-51924718D01*
X45568455Y-52155167D01*
X45586288Y-52173000D01*
X43277000Y-52173000D01*
X43277000Y-52058750D01*
X43195250Y-51977000D01*
X42668702Y-51977000D01*
X42625137Y-51947891D01*
X42500000Y-51923000D01*
X41900000Y-51923000D01*
X41774863Y-51947891D01*
X41731298Y-51977000D01*
X41204750Y-51977000D01*
X41123000Y-52058750D01*
X41123000Y-52173000D01*
X37377000Y-52173000D01*
X37377000Y-51284956D01*
X41123000Y-51284956D01*
X41123000Y-51641250D01*
X41204750Y-51723000D01*
X42073000Y-51723000D01*
X42073000Y-51104750D01*
X42327000Y-51104750D01*
X42327000Y-51723000D01*
X43195250Y-51723000D01*
X43277000Y-51641250D01*
X43277000Y-51284956D01*
X43227217Y-51164770D01*
X43135231Y-51072783D01*
X43015045Y-51023000D01*
X42408750Y-51023000D01*
X42327000Y-51104750D01*
X42073000Y-51104750D01*
X41991250Y-51023000D01*
X41384955Y-51023000D01*
X41264769Y-51072783D01*
X41172783Y-51164770D01*
X41123000Y-51284956D01*
X37377000Y-51284956D01*
X37377000Y-45809712D01*
X37431545Y-45755167D01*
X37527000Y-45524718D01*
X37527000Y-45275282D01*
X37431545Y-45044833D01*
X37255167Y-44868455D01*
X37024718Y-44773000D01*
X36775282Y-44773000D01*
X36544833Y-44868455D01*
X36368455Y-45044833D01*
X36273000Y-45275282D01*
X36273000Y-45524718D01*
X36368455Y-45755167D01*
X36423001Y-45809713D01*
X36423000Y-52337284D01*
X36397891Y-52374863D01*
X36373000Y-52500000D01*
X36373000Y-53328156D01*
X34378157Y-55323000D01*
X34173790Y-55323000D01*
X34214500Y-55224718D01*
X34214500Y-54975282D01*
X34119045Y-54744833D01*
X33942667Y-54568455D01*
X33712218Y-54473000D01*
X33462782Y-54473000D01*
X33232333Y-54568455D01*
X33177788Y-54623000D01*
X28127000Y-54623000D01*
X28127000Y-53977000D01*
X33165288Y-53977000D01*
X33219833Y-54031545D01*
X33450282Y-54127000D01*
X33699718Y-54127000D01*
X33930167Y-54031545D01*
X34106545Y-53855167D01*
X34202000Y-53624718D01*
X34202000Y-53375282D01*
X34106545Y-53144833D01*
X33930167Y-52968455D01*
X33699718Y-52873000D01*
X33450282Y-52873000D01*
X33219833Y-52968455D01*
X33165288Y-53023000D01*
X28127000Y-53023000D01*
X28127000Y-52377000D01*
X33177788Y-52377000D01*
X33232333Y-52431545D01*
X33462782Y-52527000D01*
X33712218Y-52527000D01*
X33942667Y-52431545D01*
X34119045Y-52255167D01*
X34214500Y-52024718D01*
X34214500Y-51775282D01*
X34119045Y-51544833D01*
X33942667Y-51368455D01*
X33712218Y-51273000D01*
X33462782Y-51273000D01*
X33232333Y-51368455D01*
X33177788Y-51423000D01*
X28127000Y-51423000D01*
X28127000Y-43877000D01*
X35153029Y-43877000D01*
X35200000Y-43886343D01*
X35246971Y-43877000D01*
X35246975Y-43877000D01*
X35386116Y-43849323D01*
X35419525Y-43827000D01*
X35524718Y-43827000D01*
X35687447Y-43759596D01*
X35768455Y-43955167D01*
X35944833Y-44131545D01*
X36175282Y-44227000D01*
X36424718Y-44227000D01*
X36655167Y-44131545D01*
X36831545Y-43955167D01*
X36927000Y-43724718D01*
X36927000Y-43475282D01*
X36910041Y-43434338D01*
X39576752Y-46101050D01*
G36*
X41772279Y-20285561D02*
X41824677Y-20300883D01*
X41876821Y-20316825D01*
X41881676Y-20317551D01*
X41881678Y-20317551D01*
X42432256Y-20396400D01*
X42460410Y-20402000D01*
X47971361Y-20402000D01*
X48447354Y-20470167D01*
X48858746Y-20657217D01*
X49201105Y-20952212D01*
X49446906Y-21331437D01*
X49580373Y-21777721D01*
X49598001Y-22014935D01*
X49598000Y-52173000D01*
X48777000Y-52173000D01*
X48777000Y-51746970D01*
X48786343Y-51699999D01*
X48777000Y-51653028D01*
X48777000Y-51653025D01*
X48749323Y-51513884D01*
X48643897Y-51356103D01*
X48604074Y-51329494D01*
X38783330Y-41508750D01*
X40223000Y-41508750D01*
X40223000Y-41865044D01*
X40272783Y-41985230D01*
X40364769Y-42077217D01*
X40484955Y-42127000D01*
X41091250Y-42127000D01*
X41173000Y-42045250D01*
X41173000Y-41427000D01*
X41427000Y-41427000D01*
X41427000Y-42045250D01*
X41508750Y-42127000D01*
X42115045Y-42127000D01*
X42235231Y-42077217D01*
X42327217Y-41985230D01*
X42377000Y-41865044D01*
X42377000Y-41508750D01*
X42723000Y-41508750D01*
X42723000Y-41865044D01*
X42772783Y-41985230D01*
X42864769Y-42077217D01*
X42984955Y-42127000D01*
X43591250Y-42127000D01*
X43673000Y-42045250D01*
X43673000Y-41427000D01*
X43927000Y-41427000D01*
X43927000Y-42045250D01*
X44008750Y-42127000D01*
X44615045Y-42127000D01*
X44735231Y-42077217D01*
X44827217Y-41985230D01*
X44877000Y-41865044D01*
X44877000Y-41508750D01*
X45223000Y-41508750D01*
X45223000Y-41865044D01*
X45272783Y-41985230D01*
X45364769Y-42077217D01*
X45484955Y-42127000D01*
X46091250Y-42127000D01*
X46173000Y-42045250D01*
X46173000Y-41427000D01*
X46427000Y-41427000D01*
X46427000Y-42045250D01*
X46508750Y-42127000D01*
X47115045Y-42127000D01*
X47235231Y-42077217D01*
X47327217Y-41985230D01*
X47377000Y-41865044D01*
X47377000Y-41508750D01*
X47295250Y-41427000D01*
X46427000Y-41427000D01*
X46173000Y-41427000D01*
X45304750Y-41427000D01*
X45223000Y-41508750D01*
X44877000Y-41508750D01*
X44795250Y-41427000D01*
X43927000Y-41427000D01*
X43673000Y-41427000D01*
X42804750Y-41427000D01*
X42723000Y-41508750D01*
X42377000Y-41508750D01*
X42295250Y-41427000D01*
X41427000Y-41427000D01*
X41173000Y-41427000D01*
X40304750Y-41427000D01*
X40223000Y-41508750D01*
X38783330Y-41508750D01*
X33821130Y-36546551D01*
X33821130Y-36304570D01*
X33875282Y-36327000D01*
X34124718Y-36327000D01*
X34355167Y-36231545D01*
X34523001Y-36063711D01*
X34523001Y-36153024D01*
X34513657Y-36200000D01*
X34550677Y-36386115D01*
X34624051Y-36495926D01*
X34656104Y-36543897D01*
X34695927Y-36570506D01*
X36273000Y-38147580D01*
X36273000Y-38224718D01*
X36368455Y-38455167D01*
X36544833Y-38631545D01*
X36775282Y-38727000D01*
X37024718Y-38727000D01*
X37255167Y-38631545D01*
X37431545Y-38455167D01*
X37527000Y-38224718D01*
X37527000Y-38007001D01*
X37575282Y-38027000D01*
X37824718Y-38027000D01*
X38055167Y-37931545D01*
X38231545Y-37755167D01*
X38327000Y-37524718D01*
X38327000Y-37500000D01*
X39313657Y-37500000D01*
X39323000Y-37546971D01*
X39323001Y-39503024D01*
X39313657Y-39550000D01*
X39350677Y-39736115D01*
X39424238Y-39846206D01*
X39456104Y-39893897D01*
X39495926Y-39920505D01*
X39879494Y-40304074D01*
X39906103Y-40343897D01*
X40063884Y-40449323D01*
X40203025Y-40477000D01*
X40203028Y-40477000D01*
X40216594Y-40479698D01*
X40216594Y-40500000D01*
X40241973Y-40627589D01*
X40257715Y-40651148D01*
X40223000Y-40734956D01*
X40223000Y-41091250D01*
X40304750Y-41173000D01*
X41173000Y-41173000D01*
X41173000Y-41153000D01*
X41427000Y-41153000D01*
X41427000Y-41173000D01*
X42295250Y-41173000D01*
X42377000Y-41091250D01*
X42377000Y-40734956D01*
X42342285Y-40651148D01*
X42358027Y-40627589D01*
X42383406Y-40500000D01*
X42383406Y-39500000D01*
X42358027Y-39372411D01*
X42343053Y-39350000D01*
X42358027Y-39327589D01*
X42383406Y-39200000D01*
X42383406Y-39177000D01*
X42716594Y-39177000D01*
X42716594Y-39200000D01*
X42741973Y-39327589D01*
X42756947Y-39350000D01*
X42741973Y-39372411D01*
X42716594Y-39500000D01*
X42716594Y-40500000D01*
X42741973Y-40627589D01*
X42757715Y-40651148D01*
X42723000Y-40734956D01*
X42723000Y-41091250D01*
X42804750Y-41173000D01*
X43673000Y-41173000D01*
X43673000Y-41153000D01*
X43927000Y-41153000D01*
X43927000Y-41173000D01*
X44795250Y-41173000D01*
X44877000Y-41091250D01*
X44877000Y-40734956D01*
X44842285Y-40651148D01*
X44858027Y-40627589D01*
X44870124Y-40566771D01*
X44955167Y-40531545D01*
X45131545Y-40355167D01*
X45216594Y-40149840D01*
X45216594Y-40500000D01*
X45241973Y-40627589D01*
X45257715Y-40651148D01*
X45223000Y-40734956D01*
X45223000Y-41091250D01*
X45304750Y-41173000D01*
X46173000Y-41173000D01*
X46173000Y-41153000D01*
X46427000Y-41153000D01*
X46427000Y-41173000D01*
X47295250Y-41173000D01*
X47377000Y-41091250D01*
X47377000Y-40734956D01*
X47342285Y-40651148D01*
X47358027Y-40627589D01*
X47383406Y-40500000D01*
X47383406Y-40479698D01*
X47396971Y-40477000D01*
X47396975Y-40477000D01*
X47536116Y-40449323D01*
X47693897Y-40343897D01*
X47720508Y-40304071D01*
X47904069Y-40120509D01*
X47943897Y-40093897D01*
X48049323Y-39936116D01*
X48077000Y-39796975D01*
X48077000Y-39796971D01*
X48086343Y-39750001D01*
X48077000Y-39703031D01*
X48077000Y-37546969D01*
X48086343Y-37499999D01*
X48077000Y-37453029D01*
X48077000Y-37453025D01*
X48049323Y-37313884D01*
X47943897Y-37156103D01*
X47904072Y-37129493D01*
X47270508Y-36495929D01*
X47243897Y-36456103D01*
X47086116Y-36350677D01*
X46946975Y-36323000D01*
X46946971Y-36323000D01*
X46900000Y-36313657D01*
X46853029Y-36323000D01*
X43833083Y-36323000D01*
X43887786Y-36268297D01*
X43983241Y-36037848D01*
X43983241Y-35788412D01*
X43887786Y-35557963D01*
X43711408Y-35381585D01*
X43480959Y-35286130D01*
X43403821Y-35286130D01*
X42677000Y-34559310D01*
X42677000Y-34409712D01*
X42731545Y-34355167D01*
X42827000Y-34124718D01*
X42827000Y-33875282D01*
X42731545Y-33644833D01*
X42555167Y-33468455D01*
X42324718Y-33373000D01*
X42075282Y-33373000D01*
X41844833Y-33468455D01*
X41668455Y-33644833D01*
X41573000Y-33875282D01*
X41573000Y-34124718D01*
X41668455Y-34355167D01*
X41723001Y-34409713D01*
X41723001Y-34709913D01*
X41713657Y-34756889D01*
X41736753Y-34873000D01*
X41575282Y-34873000D01*
X41377000Y-34955131D01*
X41377000Y-34309712D01*
X41431545Y-34255167D01*
X41527000Y-34024718D01*
X41527000Y-33775282D01*
X41431545Y-33544833D01*
X41255167Y-33368455D01*
X41024718Y-33273000D01*
X40775282Y-33273000D01*
X40544833Y-33368455D01*
X40368455Y-33544833D01*
X40273000Y-33775282D01*
X40273000Y-34024718D01*
X40368455Y-34255167D01*
X40423000Y-34309712D01*
X40423001Y-36202419D01*
X39495929Y-37129492D01*
X39456103Y-37156103D01*
X39350677Y-37313885D01*
X39323000Y-37453026D01*
X39323000Y-37453029D01*
X39313657Y-37500000D01*
X38327000Y-37500000D01*
X38327000Y-37275282D01*
X38231545Y-37044833D01*
X38177000Y-36990288D01*
X38177000Y-34897579D01*
X42052700Y-31021880D01*
X42185771Y-31077000D01*
X42614229Y-31077000D01*
X43010072Y-30913037D01*
X43313037Y-30610072D01*
X43477000Y-30214229D01*
X43477000Y-29785771D01*
X43313037Y-29389928D01*
X43010072Y-29086963D01*
X42614229Y-28923000D01*
X42185771Y-28923000D01*
X41789928Y-29086963D01*
X41486963Y-29389928D01*
X41323000Y-29785771D01*
X41323000Y-30214229D01*
X41378120Y-30347300D01*
X37395927Y-34329494D01*
X37356104Y-34356103D01*
X37329495Y-34395926D01*
X37329494Y-34395927D01*
X37250677Y-34513885D01*
X37213657Y-34700000D01*
X37223001Y-34746976D01*
X37223000Y-36990288D01*
X37168455Y-37044833D01*
X37073000Y-37275282D01*
X37073000Y-37492999D01*
X37024718Y-37473000D01*
X36947580Y-37473000D01*
X35477000Y-36002421D01*
X35477000Y-34363712D01*
X35544833Y-34431545D01*
X35775282Y-34527000D01*
X36024718Y-34527000D01*
X36255167Y-34431545D01*
X36431545Y-34255167D01*
X36527000Y-34024718D01*
X36527000Y-33947579D01*
X43799297Y-26675282D01*
X44573000Y-26675282D01*
X44573000Y-26924718D01*
X44668455Y-27155167D01*
X44844833Y-27331545D01*
X45075282Y-27427000D01*
X45152421Y-27427000D01*
X47095926Y-29370506D01*
X47095929Y-29370508D01*
X48223000Y-30497580D01*
X48223001Y-46402419D01*
X47252421Y-47373000D01*
X47175282Y-47373000D01*
X46944833Y-47468455D01*
X46768455Y-47644833D01*
X46673000Y-47875282D01*
X46673000Y-48124718D01*
X46768455Y-48355167D01*
X46944833Y-48531545D01*
X47175282Y-48627000D01*
X47424718Y-48627000D01*
X47655167Y-48531545D01*
X47831545Y-48355167D01*
X47927000Y-48124718D01*
X47927000Y-48047579D01*
X49004074Y-46970506D01*
X49043897Y-46943897D01*
X49149323Y-46786116D01*
X49177000Y-46646975D01*
X49177000Y-46646971D01*
X49186343Y-46600000D01*
X49177000Y-46553029D01*
X49177000Y-30346975D01*
X49186344Y-30300000D01*
X49149323Y-30113884D01*
X49070506Y-29995926D01*
X49043897Y-29956103D01*
X49004075Y-29929495D01*
X47770508Y-28695929D01*
X47770506Y-28695926D01*
X45827000Y-26752421D01*
X45827000Y-26675282D01*
X45731545Y-26444833D01*
X45555167Y-26268455D01*
X45324718Y-26173000D01*
X45075282Y-26173000D01*
X44844833Y-26268455D01*
X44668455Y-26444833D01*
X44573000Y-26675282D01*
X43799297Y-26675282D01*
X44663877Y-25810703D01*
X44720758Y-25848709D01*
X45064080Y-25917000D01*
X45295920Y-25917000D01*
X45639242Y-25848709D01*
X46028569Y-25588569D01*
X46288709Y-25199242D01*
X46318696Y-25048487D01*
X46584134Y-25048487D01*
X46788650Y-25459682D01*
X47134955Y-25761312D01*
X47411515Y-25875855D01*
X47593000Y-25827862D01*
X47593000Y-24867000D01*
X47847000Y-24867000D01*
X47847000Y-25827862D01*
X48028485Y-25875855D01*
X48305045Y-25761312D01*
X48651350Y-25459682D01*
X48855866Y-25048487D01*
X48808390Y-24867000D01*
X47847000Y-24867000D01*
X47593000Y-24867000D01*
X46631610Y-24867000D01*
X46584134Y-25048487D01*
X46318696Y-25048487D01*
X46380058Y-24740000D01*
X46318697Y-24431513D01*
X46584134Y-24431513D01*
X46631610Y-24613000D01*
X47593000Y-24613000D01*
X47593000Y-23652138D01*
X47847000Y-23652138D01*
X47847000Y-24613000D01*
X48808390Y-24613000D01*
X48855866Y-24431513D01*
X48651350Y-24020318D01*
X48305045Y-23718688D01*
X48028485Y-23604145D01*
X47847000Y-23652138D01*
X47593000Y-23652138D01*
X47411515Y-23604145D01*
X47134955Y-23718688D01*
X46788650Y-24020318D01*
X46584134Y-24431513D01*
X46318697Y-24431513D01*
X46288709Y-24280758D01*
X46028569Y-23891431D01*
X45639242Y-23631291D01*
X45295920Y-23563000D01*
X45064080Y-23563000D01*
X44720758Y-23631291D01*
X44331431Y-23891431D01*
X44071291Y-24280758D01*
X43979942Y-24740000D01*
X44047215Y-25078205D01*
X37827000Y-31298421D01*
X37827000Y-31247579D01*
X42944075Y-26130505D01*
X42983897Y-26103897D01*
X43089323Y-25946116D01*
X43110148Y-25841422D01*
X43488569Y-25588569D01*
X43748709Y-25199242D01*
X43840058Y-24740000D01*
X43748709Y-24280758D01*
X43488569Y-23891431D01*
X43099242Y-23631291D01*
X42755920Y-23563000D01*
X42524080Y-23563000D01*
X42180758Y-23631291D01*
X41877000Y-23834256D01*
X41877000Y-23637579D01*
X42201704Y-23312875D01*
X42524080Y-23377000D01*
X42755920Y-23377000D01*
X43099242Y-23308709D01*
X43488569Y-23048569D01*
X43748709Y-22659242D01*
X43840058Y-22200000D01*
X43979942Y-22200000D01*
X44071291Y-22659242D01*
X44331431Y-23048569D01*
X44720758Y-23308709D01*
X45064080Y-23377000D01*
X45295920Y-23377000D01*
X45639242Y-23308709D01*
X46028569Y-23048569D01*
X46288709Y-22659242D01*
X46380058Y-22200000D01*
X46519942Y-22200000D01*
X46611291Y-22659242D01*
X46871431Y-23048569D01*
X47260758Y-23308709D01*
X47604080Y-23377000D01*
X47835920Y-23377000D01*
X48179242Y-23308709D01*
X48568569Y-23048569D01*
X48828709Y-22659242D01*
X48920058Y-22200000D01*
X48828709Y-21740758D01*
X48568569Y-21351431D01*
X48179242Y-21091291D01*
X47835920Y-21023000D01*
X47604080Y-21023000D01*
X47260758Y-21091291D01*
X46871431Y-21351431D01*
X46611291Y-21740758D01*
X46519942Y-22200000D01*
X46380058Y-22200000D01*
X46288709Y-21740758D01*
X46028569Y-21351431D01*
X45639242Y-21091291D01*
X45295920Y-21023000D01*
X45064080Y-21023000D01*
X44720758Y-21091291D01*
X44331431Y-21351431D01*
X44071291Y-21740758D01*
X43979942Y-22200000D01*
X43840058Y-22200000D01*
X43748709Y-21740758D01*
X43488569Y-21351431D01*
X43099242Y-21091291D01*
X42755920Y-21023000D01*
X42524080Y-21023000D01*
X42180758Y-21091291D01*
X41791431Y-21351431D01*
X41531291Y-21740758D01*
X41439942Y-22200000D01*
X41527125Y-22638296D01*
X41283406Y-22882015D01*
X41283406Y-21350000D01*
X41258027Y-21222411D01*
X41185754Y-21114246D01*
X41077589Y-21041973D01*
X40950000Y-21016594D01*
X39250000Y-21016594D01*
X39122411Y-21041973D01*
X39014246Y-21114246D01*
X38941973Y-21222411D01*
X38916594Y-21350000D01*
X38916594Y-21720302D01*
X38903029Y-21723000D01*
X38903025Y-21723000D01*
X38763884Y-21750677D01*
X38652368Y-21825190D01*
X38606103Y-21856103D01*
X38579494Y-21895926D01*
X38295928Y-22179493D01*
X38256103Y-22206103D01*
X38150677Y-22363885D01*
X38123000Y-22503026D01*
X38123000Y-22503029D01*
X38113657Y-22550000D01*
X38123000Y-22596971D01*
X38123001Y-26355131D01*
X37924718Y-26273000D01*
X37675282Y-26273000D01*
X37444833Y-26368455D01*
X37390288Y-26423000D01*
X34897579Y-26423000D01*
X31870508Y-23395929D01*
X31843897Y-23356103D01*
X31686116Y-23250677D01*
X31546975Y-23223000D01*
X31546971Y-23223000D01*
X31500000Y-23213657D01*
X31453029Y-23223000D01*
X29502277Y-23223000D01*
X29658569Y-23118569D01*
X29737794Y-23000000D01*
X33978000Y-23000000D01*
X34093855Y-23582444D01*
X34423783Y-24076217D01*
X34917556Y-24406145D01*
X35500000Y-24522000D01*
X36082444Y-24406145D01*
X36576217Y-24076217D01*
X36906145Y-23582444D01*
X37022000Y-23000000D01*
X36906145Y-22417556D01*
X36576217Y-21923783D01*
X36082444Y-21593855D01*
X35500000Y-21478000D01*
X34917556Y-21593855D01*
X34423783Y-21923783D01*
X34093855Y-22417556D01*
X33978000Y-23000000D01*
X29737794Y-23000000D01*
X29918709Y-22729242D01*
X30010058Y-22270000D01*
X29918709Y-21810758D01*
X29658569Y-21421431D01*
X29269242Y-21161291D01*
X28925920Y-21093000D01*
X28694080Y-21093000D01*
X28350758Y-21161291D01*
X27961431Y-21421431D01*
X27701291Y-21810758D01*
X27609942Y-22270000D01*
X27701291Y-22729242D01*
X27961431Y-23118569D01*
X28117723Y-23223000D01*
X26962277Y-23223000D01*
X27118569Y-23118569D01*
X27378709Y-22729242D01*
X27470058Y-22270000D01*
X27378709Y-21810758D01*
X27118569Y-21421431D01*
X26729242Y-21161291D01*
X26385920Y-21093000D01*
X26154080Y-21093000D01*
X25810758Y-21161291D01*
X25421431Y-21421431D01*
X25161291Y-21810758D01*
X25069942Y-22270000D01*
X25161291Y-22729242D01*
X25421431Y-23118569D01*
X25577723Y-23223000D01*
X25357579Y-23223000D01*
X24842875Y-22708296D01*
X24930058Y-22270000D01*
X24838709Y-21810758D01*
X24578569Y-21421431D01*
X24189242Y-21161291D01*
X23845920Y-21093000D01*
X23614080Y-21093000D01*
X23270758Y-21161291D01*
X22881431Y-21421431D01*
X22621291Y-21810758D01*
X22529942Y-22270000D01*
X22621291Y-22729242D01*
X22881431Y-23118569D01*
X23270758Y-23378709D01*
X23614080Y-23447000D01*
X23845920Y-23447000D01*
X24168296Y-23382875D01*
X24608421Y-23823000D01*
X20897580Y-23823000D01*
X20521580Y-23447000D01*
X20981250Y-23447000D01*
X21063000Y-23365250D01*
X21063000Y-22397000D01*
X21317000Y-22397000D01*
X21317000Y-23365250D01*
X21398750Y-23447000D01*
X22105045Y-23447000D01*
X22225231Y-23397217D01*
X22317217Y-23305230D01*
X22367000Y-23185044D01*
X22367000Y-22478750D01*
X22285250Y-22397000D01*
X21317000Y-22397000D01*
X21063000Y-22397000D01*
X20094750Y-22397000D01*
X20013000Y-22478750D01*
X20013000Y-22938420D01*
X18429536Y-21354956D01*
X20013000Y-21354956D01*
X20013000Y-22061250D01*
X20094750Y-22143000D01*
X21063000Y-22143000D01*
X21063000Y-21174750D01*
X21317000Y-21174750D01*
X21317000Y-22143000D01*
X22285250Y-22143000D01*
X22367000Y-22061250D01*
X22367000Y-21354956D01*
X22317217Y-21234770D01*
X22225231Y-21142783D01*
X22105045Y-21093000D01*
X21398750Y-21093000D01*
X21317000Y-21174750D01*
X21063000Y-21174750D01*
X20981250Y-21093000D01*
X20274955Y-21093000D01*
X20154769Y-21142783D01*
X20062783Y-21234770D01*
X20013000Y-21354956D01*
X18429536Y-21354956D01*
X17201579Y-20127000D01*
X41423543Y-20127000D01*
X41772279Y-20285561D01*
X41772279Y-20285561D01*
G37*
X41772279Y-20285561D02*
X41824677Y-20300883D01*
X41876821Y-20316825D01*
X41881676Y-20317551D01*
X41881678Y-20317551D01*
X42432256Y-20396400D01*
X42460410Y-20402000D01*
X47971361Y-20402000D01*
X48447354Y-20470167D01*
X48858746Y-20657217D01*
X49201105Y-20952212D01*
X49446906Y-21331437D01*
X49580373Y-21777721D01*
X49598001Y-22014935D01*
X49598000Y-52173000D01*
X48777000Y-52173000D01*
X48777000Y-51746970D01*
X48786343Y-51699999D01*
X48777000Y-51653028D01*
X48777000Y-51653025D01*
X48749323Y-51513884D01*
X48643897Y-51356103D01*
X48604074Y-51329494D01*
X38783330Y-41508750D01*
X40223000Y-41508750D01*
X40223000Y-41865044D01*
X40272783Y-41985230D01*
X40364769Y-42077217D01*
X40484955Y-42127000D01*
X41091250Y-42127000D01*
X41173000Y-42045250D01*
X41173000Y-41427000D01*
X41427000Y-41427000D01*
X41427000Y-42045250D01*
X41508750Y-42127000D01*
X42115045Y-42127000D01*
X42235231Y-42077217D01*
X42327217Y-41985230D01*
X42377000Y-41865044D01*
X42377000Y-41508750D01*
X42723000Y-41508750D01*
X42723000Y-41865044D01*
X42772783Y-41985230D01*
X42864769Y-42077217D01*
X42984955Y-42127000D01*
X43591250Y-42127000D01*
X43673000Y-42045250D01*
X43673000Y-41427000D01*
X43927000Y-41427000D01*
X43927000Y-42045250D01*
X44008750Y-42127000D01*
X44615045Y-42127000D01*
X44735231Y-42077217D01*
X44827217Y-41985230D01*
X44877000Y-41865044D01*
X44877000Y-41508750D01*
X45223000Y-41508750D01*
X45223000Y-41865044D01*
X45272783Y-41985230D01*
X45364769Y-42077217D01*
X45484955Y-42127000D01*
X46091250Y-42127000D01*
X46173000Y-42045250D01*
X46173000Y-41427000D01*
X46427000Y-41427000D01*
X46427000Y-42045250D01*
X46508750Y-42127000D01*
X47115045Y-42127000D01*
X47235231Y-42077217D01*
X47327217Y-41985230D01*
X47377000Y-41865044D01*
X47377000Y-41508750D01*
X47295250Y-41427000D01*
X46427000Y-41427000D01*
X46173000Y-41427000D01*
X45304750Y-41427000D01*
X45223000Y-41508750D01*
X44877000Y-41508750D01*
X44795250Y-41427000D01*
X43927000Y-41427000D01*
X43673000Y-41427000D01*
X42804750Y-41427000D01*
X42723000Y-41508750D01*
X42377000Y-41508750D01*
X42295250Y-41427000D01*
X41427000Y-41427000D01*
X41173000Y-41427000D01*
X40304750Y-41427000D01*
X40223000Y-41508750D01*
X38783330Y-41508750D01*
X33821130Y-36546551D01*
X33821130Y-36304570D01*
X33875282Y-36327000D01*
X34124718Y-36327000D01*
X34355167Y-36231545D01*
X34523001Y-36063711D01*
X34523001Y-36153024D01*
X34513657Y-36200000D01*
X34550677Y-36386115D01*
X34624051Y-36495926D01*
X34656104Y-36543897D01*
X34695927Y-36570506D01*
X36273000Y-38147580D01*
X36273000Y-38224718D01*
X36368455Y-38455167D01*
X36544833Y-38631545D01*
X36775282Y-38727000D01*
X37024718Y-38727000D01*
X37255167Y-38631545D01*
X37431545Y-38455167D01*
X37527000Y-38224718D01*
X37527000Y-38007001D01*
X37575282Y-38027000D01*
X37824718Y-38027000D01*
X38055167Y-37931545D01*
X38231545Y-37755167D01*
X38327000Y-37524718D01*
X38327000Y-37500000D01*
X39313657Y-37500000D01*
X39323000Y-37546971D01*
X39323001Y-39503024D01*
X39313657Y-39550000D01*
X39350677Y-39736115D01*
X39424238Y-39846206D01*
X39456104Y-39893897D01*
X39495926Y-39920505D01*
X39879494Y-40304074D01*
X39906103Y-40343897D01*
X40063884Y-40449323D01*
X40203025Y-40477000D01*
X40203028Y-40477000D01*
X40216594Y-40479698D01*
X40216594Y-40500000D01*
X40241973Y-40627589D01*
X40257715Y-40651148D01*
X40223000Y-40734956D01*
X40223000Y-41091250D01*
X40304750Y-41173000D01*
X41173000Y-41173000D01*
X41173000Y-41153000D01*
X41427000Y-41153000D01*
X41427000Y-41173000D01*
X42295250Y-41173000D01*
X42377000Y-41091250D01*
X42377000Y-40734956D01*
X42342285Y-40651148D01*
X42358027Y-40627589D01*
X42383406Y-40500000D01*
X42383406Y-39500000D01*
X42358027Y-39372411D01*
X42343053Y-39350000D01*
X42358027Y-39327589D01*
X42383406Y-39200000D01*
X42383406Y-39177000D01*
X42716594Y-39177000D01*
X42716594Y-39200000D01*
X42741973Y-39327589D01*
X42756947Y-39350000D01*
X42741973Y-39372411D01*
X42716594Y-39500000D01*
X42716594Y-40500000D01*
X42741973Y-40627589D01*
X42757715Y-40651148D01*
X42723000Y-40734956D01*
X42723000Y-41091250D01*
X42804750Y-41173000D01*
X43673000Y-41173000D01*
X43673000Y-41153000D01*
X43927000Y-41153000D01*
X43927000Y-41173000D01*
X44795250Y-41173000D01*
X44877000Y-41091250D01*
X44877000Y-40734956D01*
X44842285Y-40651148D01*
X44858027Y-40627589D01*
X44870124Y-40566771D01*
X44955167Y-40531545D01*
X45131545Y-40355167D01*
X45216594Y-40149840D01*
X45216594Y-40500000D01*
X45241973Y-40627589D01*
X45257715Y-40651148D01*
X45223000Y-40734956D01*
X45223000Y-41091250D01*
X45304750Y-41173000D01*
X46173000Y-41173000D01*
X46173000Y-41153000D01*
X46427000Y-41153000D01*
X46427000Y-41173000D01*
X47295250Y-41173000D01*
X47377000Y-41091250D01*
X47377000Y-40734956D01*
X47342285Y-40651148D01*
X47358027Y-40627589D01*
X47383406Y-40500000D01*
X47383406Y-40479698D01*
X47396971Y-40477000D01*
X47396975Y-40477000D01*
X47536116Y-40449323D01*
X47693897Y-40343897D01*
X47720508Y-40304071D01*
X47904069Y-40120509D01*
X47943897Y-40093897D01*
X48049323Y-39936116D01*
X48077000Y-39796975D01*
X48077000Y-39796971D01*
X48086343Y-39750001D01*
X48077000Y-39703031D01*
X48077000Y-37546969D01*
X48086343Y-37499999D01*
X48077000Y-37453029D01*
X48077000Y-37453025D01*
X48049323Y-37313884D01*
X47943897Y-37156103D01*
X47904072Y-37129493D01*
X47270508Y-36495929D01*
X47243897Y-36456103D01*
X47086116Y-36350677D01*
X46946975Y-36323000D01*
X46946971Y-36323000D01*
X46900000Y-36313657D01*
X46853029Y-36323000D01*
X43833083Y-36323000D01*
X43887786Y-36268297D01*
X43983241Y-36037848D01*
X43983241Y-35788412D01*
X43887786Y-35557963D01*
X43711408Y-35381585D01*
X43480959Y-35286130D01*
X43403821Y-35286130D01*
X42677000Y-34559310D01*
X42677000Y-34409712D01*
X42731545Y-34355167D01*
X42827000Y-34124718D01*
X42827000Y-33875282D01*
X42731545Y-33644833D01*
X42555167Y-33468455D01*
X42324718Y-33373000D01*
X42075282Y-33373000D01*
X41844833Y-33468455D01*
X41668455Y-33644833D01*
X41573000Y-33875282D01*
X41573000Y-34124718D01*
X41668455Y-34355167D01*
X41723001Y-34409713D01*
X41723001Y-34709913D01*
X41713657Y-34756889D01*
X41736753Y-34873000D01*
X41575282Y-34873000D01*
X41377000Y-34955131D01*
X41377000Y-34309712D01*
X41431545Y-34255167D01*
X41527000Y-34024718D01*
X41527000Y-33775282D01*
X41431545Y-33544833D01*
X41255167Y-33368455D01*
X41024718Y-33273000D01*
X40775282Y-33273000D01*
X40544833Y-33368455D01*
X40368455Y-33544833D01*
X40273000Y-33775282D01*
X40273000Y-34024718D01*
X40368455Y-34255167D01*
X40423000Y-34309712D01*
X40423001Y-36202419D01*
X39495929Y-37129492D01*
X39456103Y-37156103D01*
X39350677Y-37313885D01*
X39323000Y-37453026D01*
X39323000Y-37453029D01*
X39313657Y-37500000D01*
X38327000Y-37500000D01*
X38327000Y-37275282D01*
X38231545Y-37044833D01*
X38177000Y-36990288D01*
X38177000Y-34897579D01*
X42052700Y-31021880D01*
X42185771Y-31077000D01*
X42614229Y-31077000D01*
X43010072Y-30913037D01*
X43313037Y-30610072D01*
X43477000Y-30214229D01*
X43477000Y-29785771D01*
X43313037Y-29389928D01*
X43010072Y-29086963D01*
X42614229Y-28923000D01*
X42185771Y-28923000D01*
X41789928Y-29086963D01*
X41486963Y-29389928D01*
X41323000Y-29785771D01*
X41323000Y-30214229D01*
X41378120Y-30347300D01*
X37395927Y-34329494D01*
X37356104Y-34356103D01*
X37329495Y-34395926D01*
X37329494Y-34395927D01*
X37250677Y-34513885D01*
X37213657Y-34700000D01*
X37223001Y-34746976D01*
X37223000Y-36990288D01*
X37168455Y-37044833D01*
X37073000Y-37275282D01*
X37073000Y-37492999D01*
X37024718Y-37473000D01*
X36947580Y-37473000D01*
X35477000Y-36002421D01*
X35477000Y-34363712D01*
X35544833Y-34431545D01*
X35775282Y-34527000D01*
X36024718Y-34527000D01*
X36255167Y-34431545D01*
X36431545Y-34255167D01*
X36527000Y-34024718D01*
X36527000Y-33947579D01*
X43799297Y-26675282D01*
X44573000Y-26675282D01*
X44573000Y-26924718D01*
X44668455Y-27155167D01*
X44844833Y-27331545D01*
X45075282Y-27427000D01*
X45152421Y-27427000D01*
X47095926Y-29370506D01*
X47095929Y-29370508D01*
X48223000Y-30497580D01*
X48223001Y-46402419D01*
X47252421Y-47373000D01*
X47175282Y-47373000D01*
X46944833Y-47468455D01*
X46768455Y-47644833D01*
X46673000Y-47875282D01*
X46673000Y-48124718D01*
X46768455Y-48355167D01*
X46944833Y-48531545D01*
X47175282Y-48627000D01*
X47424718Y-48627000D01*
X47655167Y-48531545D01*
X47831545Y-48355167D01*
X47927000Y-48124718D01*
X47927000Y-48047579D01*
X49004074Y-46970506D01*
X49043897Y-46943897D01*
X49149323Y-46786116D01*
X49177000Y-46646975D01*
X49177000Y-46646971D01*
X49186343Y-46600000D01*
X49177000Y-46553029D01*
X49177000Y-30346975D01*
X49186344Y-30300000D01*
X49149323Y-30113884D01*
X49070506Y-29995926D01*
X49043897Y-29956103D01*
X49004075Y-29929495D01*
X47770508Y-28695929D01*
X47770506Y-28695926D01*
X45827000Y-26752421D01*
X45827000Y-26675282D01*
X45731545Y-26444833D01*
X45555167Y-26268455D01*
X45324718Y-26173000D01*
X45075282Y-26173000D01*
X44844833Y-26268455D01*
X44668455Y-26444833D01*
X44573000Y-26675282D01*
X43799297Y-26675282D01*
X44663877Y-25810703D01*
X44720758Y-25848709D01*
X45064080Y-25917000D01*
X45295920Y-25917000D01*
X45639242Y-25848709D01*
X46028569Y-25588569D01*
X46288709Y-25199242D01*
X46318696Y-25048487D01*
X46584134Y-25048487D01*
X46788650Y-25459682D01*
X47134955Y-25761312D01*
X47411515Y-25875855D01*
X47593000Y-25827862D01*
X47593000Y-24867000D01*
X47847000Y-24867000D01*
X47847000Y-25827862D01*
X48028485Y-25875855D01*
X48305045Y-25761312D01*
X48651350Y-25459682D01*
X48855866Y-25048487D01*
X48808390Y-24867000D01*
X47847000Y-24867000D01*
X47593000Y-24867000D01*
X46631610Y-24867000D01*
X46584134Y-25048487D01*
X46318696Y-25048487D01*
X46380058Y-24740000D01*
X46318697Y-24431513D01*
X46584134Y-24431513D01*
X46631610Y-24613000D01*
X47593000Y-24613000D01*
X47593000Y-23652138D01*
X47847000Y-23652138D01*
X47847000Y-24613000D01*
X48808390Y-24613000D01*
X48855866Y-24431513D01*
X48651350Y-24020318D01*
X48305045Y-23718688D01*
X48028485Y-23604145D01*
X47847000Y-23652138D01*
X47593000Y-23652138D01*
X47411515Y-23604145D01*
X47134955Y-23718688D01*
X46788650Y-24020318D01*
X46584134Y-24431513D01*
X46318697Y-24431513D01*
X46288709Y-24280758D01*
X46028569Y-23891431D01*
X45639242Y-23631291D01*
X45295920Y-23563000D01*
X45064080Y-23563000D01*
X44720758Y-23631291D01*
X44331431Y-23891431D01*
X44071291Y-24280758D01*
X43979942Y-24740000D01*
X44047215Y-25078205D01*
X37827000Y-31298421D01*
X37827000Y-31247579D01*
X42944075Y-26130505D01*
X42983897Y-26103897D01*
X43089323Y-25946116D01*
X43110148Y-25841422D01*
X43488569Y-25588569D01*
X43748709Y-25199242D01*
X43840058Y-24740000D01*
X43748709Y-24280758D01*
X43488569Y-23891431D01*
X43099242Y-23631291D01*
X42755920Y-23563000D01*
X42524080Y-23563000D01*
X42180758Y-23631291D01*
X41877000Y-23834256D01*
X41877000Y-23637579D01*
X42201704Y-23312875D01*
X42524080Y-23377000D01*
X42755920Y-23377000D01*
X43099242Y-23308709D01*
X43488569Y-23048569D01*
X43748709Y-22659242D01*
X43840058Y-22200000D01*
X43979942Y-22200000D01*
X44071291Y-22659242D01*
X44331431Y-23048569D01*
X44720758Y-23308709D01*
X45064080Y-23377000D01*
X45295920Y-23377000D01*
X45639242Y-23308709D01*
X46028569Y-23048569D01*
X46288709Y-22659242D01*
X46380058Y-22200000D01*
X46519942Y-22200000D01*
X46611291Y-22659242D01*
X46871431Y-23048569D01*
X47260758Y-23308709D01*
X47604080Y-23377000D01*
X47835920Y-23377000D01*
X48179242Y-23308709D01*
X48568569Y-23048569D01*
X48828709Y-22659242D01*
X48920058Y-22200000D01*
X48828709Y-21740758D01*
X48568569Y-21351431D01*
X48179242Y-21091291D01*
X47835920Y-21023000D01*
X47604080Y-21023000D01*
X47260758Y-21091291D01*
X46871431Y-21351431D01*
X46611291Y-21740758D01*
X46519942Y-22200000D01*
X46380058Y-22200000D01*
X46288709Y-21740758D01*
X46028569Y-21351431D01*
X45639242Y-21091291D01*
X45295920Y-21023000D01*
X45064080Y-21023000D01*
X44720758Y-21091291D01*
X44331431Y-21351431D01*
X44071291Y-21740758D01*
X43979942Y-22200000D01*
X43840058Y-22200000D01*
X43748709Y-21740758D01*
X43488569Y-21351431D01*
X43099242Y-21091291D01*
X42755920Y-21023000D01*
X42524080Y-21023000D01*
X42180758Y-21091291D01*
X41791431Y-21351431D01*
X41531291Y-21740758D01*
X41439942Y-22200000D01*
X41527125Y-22638296D01*
X41283406Y-22882015D01*
X41283406Y-21350000D01*
X41258027Y-21222411D01*
X41185754Y-21114246D01*
X41077589Y-21041973D01*
X40950000Y-21016594D01*
X39250000Y-21016594D01*
X39122411Y-21041973D01*
X39014246Y-21114246D01*
X38941973Y-21222411D01*
X38916594Y-21350000D01*
X38916594Y-21720302D01*
X38903029Y-21723000D01*
X38903025Y-21723000D01*
X38763884Y-21750677D01*
X38652368Y-21825190D01*
X38606103Y-21856103D01*
X38579494Y-21895926D01*
X38295928Y-22179493D01*
X38256103Y-22206103D01*
X38150677Y-22363885D01*
X38123000Y-22503026D01*
X38123000Y-22503029D01*
X38113657Y-22550000D01*
X38123000Y-22596971D01*
X38123001Y-26355131D01*
X37924718Y-26273000D01*
X37675282Y-26273000D01*
X37444833Y-26368455D01*
X37390288Y-26423000D01*
X34897579Y-26423000D01*
X31870508Y-23395929D01*
X31843897Y-23356103D01*
X31686116Y-23250677D01*
X31546975Y-23223000D01*
X31546971Y-23223000D01*
X31500000Y-23213657D01*
X31453029Y-23223000D01*
X29502277Y-23223000D01*
X29658569Y-23118569D01*
X29737794Y-23000000D01*
X33978000Y-23000000D01*
X34093855Y-23582444D01*
X34423783Y-24076217D01*
X34917556Y-24406145D01*
X35500000Y-24522000D01*
X36082444Y-24406145D01*
X36576217Y-24076217D01*
X36906145Y-23582444D01*
X37022000Y-23000000D01*
X36906145Y-22417556D01*
X36576217Y-21923783D01*
X36082444Y-21593855D01*
X35500000Y-21478000D01*
X34917556Y-21593855D01*
X34423783Y-21923783D01*
X34093855Y-22417556D01*
X33978000Y-23000000D01*
X29737794Y-23000000D01*
X29918709Y-22729242D01*
X30010058Y-22270000D01*
X29918709Y-21810758D01*
X29658569Y-21421431D01*
X29269242Y-21161291D01*
X28925920Y-21093000D01*
X28694080Y-21093000D01*
X28350758Y-21161291D01*
X27961431Y-21421431D01*
X27701291Y-21810758D01*
X27609942Y-22270000D01*
X27701291Y-22729242D01*
X27961431Y-23118569D01*
X28117723Y-23223000D01*
X26962277Y-23223000D01*
X27118569Y-23118569D01*
X27378709Y-22729242D01*
X27470058Y-22270000D01*
X27378709Y-21810758D01*
X27118569Y-21421431D01*
X26729242Y-21161291D01*
X26385920Y-21093000D01*
X26154080Y-21093000D01*
X25810758Y-21161291D01*
X25421431Y-21421431D01*
X25161291Y-21810758D01*
X25069942Y-22270000D01*
X25161291Y-22729242D01*
X25421431Y-23118569D01*
X25577723Y-23223000D01*
X25357579Y-23223000D01*
X24842875Y-22708296D01*
X24930058Y-22270000D01*
X24838709Y-21810758D01*
X24578569Y-21421431D01*
X24189242Y-21161291D01*
X23845920Y-21093000D01*
X23614080Y-21093000D01*
X23270758Y-21161291D01*
X22881431Y-21421431D01*
X22621291Y-21810758D01*
X22529942Y-22270000D01*
X22621291Y-22729242D01*
X22881431Y-23118569D01*
X23270758Y-23378709D01*
X23614080Y-23447000D01*
X23845920Y-23447000D01*
X24168296Y-23382875D01*
X24608421Y-23823000D01*
X20897580Y-23823000D01*
X20521580Y-23447000D01*
X20981250Y-23447000D01*
X21063000Y-23365250D01*
X21063000Y-22397000D01*
X21317000Y-22397000D01*
X21317000Y-23365250D01*
X21398750Y-23447000D01*
X22105045Y-23447000D01*
X22225231Y-23397217D01*
X22317217Y-23305230D01*
X22367000Y-23185044D01*
X22367000Y-22478750D01*
X22285250Y-22397000D01*
X21317000Y-22397000D01*
X21063000Y-22397000D01*
X20094750Y-22397000D01*
X20013000Y-22478750D01*
X20013000Y-22938420D01*
X18429536Y-21354956D01*
X20013000Y-21354956D01*
X20013000Y-22061250D01*
X20094750Y-22143000D01*
X21063000Y-22143000D01*
X21063000Y-21174750D01*
X21317000Y-21174750D01*
X21317000Y-22143000D01*
X22285250Y-22143000D01*
X22367000Y-22061250D01*
X22367000Y-21354956D01*
X22317217Y-21234770D01*
X22225231Y-21142783D01*
X22105045Y-21093000D01*
X21398750Y-21093000D01*
X21317000Y-21174750D01*
X21063000Y-21174750D01*
X20981250Y-21093000D01*
X20274955Y-21093000D01*
X20154769Y-21142783D01*
X20062783Y-21234770D01*
X20013000Y-21354956D01*
X18429536Y-21354956D01*
X17201579Y-20127000D01*
X41423543Y-20127000D01*
X41772279Y-20285561D01*
G36*
X32005230Y-42404074D02*
X32031839Y-42443897D01*
X32071662Y-42470506D01*
X32189620Y-42549323D01*
X32375736Y-42586344D01*
X32395667Y-42582379D01*
X32444833Y-42631545D01*
X32675282Y-42727000D01*
X32924718Y-42727000D01*
X32973000Y-42707001D01*
X32973000Y-42824718D01*
X33013710Y-42923000D01*
X28127000Y-42923000D01*
X28127000Y-41600000D01*
X28102109Y-41474863D01*
X28031224Y-41368776D01*
X27925137Y-41297891D01*
X27820110Y-41277000D01*
X30878157Y-41277000D01*
X32005230Y-42404074D01*
X32005230Y-42404074D01*
G37*
X32005230Y-42404074D02*
X32031839Y-42443897D01*
X32071662Y-42470506D01*
X32189620Y-42549323D01*
X32375736Y-42586344D01*
X32395667Y-42582379D01*
X32444833Y-42631545D01*
X32675282Y-42727000D01*
X32924718Y-42727000D01*
X32973000Y-42707001D01*
X32973000Y-42824718D01*
X33013710Y-42923000D01*
X28127000Y-42923000D01*
X28127000Y-41600000D01*
X28102109Y-41474863D01*
X28031224Y-41368776D01*
X27925137Y-41297891D01*
X27820110Y-41277000D01*
X30878157Y-41277000D01*
X32005230Y-42404074D01*
G36*
X29023000Y-30597580D02*
X29023001Y-36953024D01*
X29013657Y-37000000D01*
X29050677Y-37186115D01*
X29126441Y-37299503D01*
X29156104Y-37343897D01*
X29195927Y-37370506D01*
X31538523Y-39713103D01*
X29073609Y-39713103D01*
X29231545Y-39555167D01*
X29327000Y-39324718D01*
X29327000Y-39075282D01*
X29231545Y-38844833D01*
X29055167Y-38668455D01*
X28824718Y-38573000D01*
X28575282Y-38573000D01*
X28344833Y-38668455D01*
X28290288Y-38723000D01*
X25627000Y-38723000D01*
X25627000Y-27477000D01*
X25902421Y-27477000D01*
X29023000Y-30597580D01*
X29023000Y-30597580D01*
G37*
X29023000Y-30597580D02*
X29023001Y-36953024D01*
X29013657Y-37000000D01*
X29050677Y-37186115D01*
X29126441Y-37299503D01*
X29156104Y-37343897D01*
X29195927Y-37370506D01*
X31538523Y-39713103D01*
X29073609Y-39713103D01*
X29231545Y-39555167D01*
X29327000Y-39324718D01*
X29327000Y-39075282D01*
X29231545Y-38844833D01*
X29055167Y-38668455D01*
X28824718Y-38573000D01*
X28575282Y-38573000D01*
X28344833Y-38668455D01*
X28290288Y-38723000D01*
X25627000Y-38723000D01*
X25627000Y-27477000D01*
X25902421Y-27477000D01*
X29023000Y-30597580D01*
G36*
X34329492Y-27204071D02*
X34356103Y-27243897D01*
X34513884Y-27349323D01*
X34653025Y-27377000D01*
X34653029Y-27377000D01*
X34699999Y-27386343D01*
X34746969Y-27377000D01*
X37390288Y-27377000D01*
X37444833Y-27431545D01*
X37675282Y-27527000D01*
X37924718Y-27527000D01*
X38123001Y-27444869D01*
X38123001Y-27902419D01*
X33821130Y-32204291D01*
X33821130Y-30679108D01*
X33830474Y-30632134D01*
X33821130Y-30585159D01*
X33821130Y-29691100D01*
X33830473Y-29644129D01*
X33821130Y-29597158D01*
X33821130Y-29597155D01*
X33793453Y-29458014D01*
X33688027Y-29300233D01*
X33648204Y-29273624D01*
X33627000Y-29252420D01*
X33627000Y-29175282D01*
X33531545Y-28944833D01*
X33477000Y-28890288D01*
X33477000Y-28651580D01*
X33873000Y-29047580D01*
X33873000Y-29124718D01*
X33968455Y-29355167D01*
X34144833Y-29531545D01*
X34375282Y-29627000D01*
X34624718Y-29627000D01*
X34855167Y-29531545D01*
X35031545Y-29355167D01*
X35127000Y-29124718D01*
X35127000Y-28875282D01*
X35031545Y-28644833D01*
X34855167Y-28468455D01*
X34624718Y-28373000D01*
X34547580Y-28373000D01*
X30351579Y-24177000D01*
X31302421Y-24177000D01*
X34329492Y-27204071D01*
X34329492Y-27204071D01*
G37*
X34329492Y-27204071D02*
X34356103Y-27243897D01*
X34513884Y-27349323D01*
X34653025Y-27377000D01*
X34653029Y-27377000D01*
X34699999Y-27386343D01*
X34746969Y-27377000D01*
X37390288Y-27377000D01*
X37444833Y-27431545D01*
X37675282Y-27527000D01*
X37924718Y-27527000D01*
X38123001Y-27444869D01*
X38123001Y-27902419D01*
X33821130Y-32204291D01*
X33821130Y-30679108D01*
X33830474Y-30632134D01*
X33821130Y-30585159D01*
X33821130Y-29691100D01*
X33830473Y-29644129D01*
X33821130Y-29597158D01*
X33821130Y-29597155D01*
X33793453Y-29458014D01*
X33688027Y-29300233D01*
X33648204Y-29273624D01*
X33627000Y-29252420D01*
X33627000Y-29175282D01*
X33531545Y-28944833D01*
X33477000Y-28890288D01*
X33477000Y-28651580D01*
X33873000Y-29047580D01*
X33873000Y-29124718D01*
X33968455Y-29355167D01*
X34144833Y-29531545D01*
X34375282Y-29627000D01*
X34624718Y-29627000D01*
X34855167Y-29531545D01*
X35031545Y-29355167D01*
X35127000Y-29124718D01*
X35127000Y-28875282D01*
X35031545Y-28644833D01*
X34855167Y-28468455D01*
X34624718Y-28373000D01*
X34547580Y-28373000D01*
X30351579Y-24177000D01*
X31302421Y-24177000D01*
X34329492Y-27204071D01*
D29*
G04 #@! TO.N,GNDPWR*
G36*
X19075000Y-44004721D02*
X18988659Y-44091062D01*
X18825000Y-44486169D01*
X18825000Y-44913831D01*
X18880479Y-45047770D01*
X17797202Y-46131047D01*
X17757546Y-46157545D01*
X17731048Y-46197202D01*
X17731047Y-46197203D01*
X17652562Y-46314665D01*
X17615696Y-46500000D01*
X17625001Y-46546779D01*
X17625000Y-54028962D01*
X17615696Y-54075736D01*
X17625000Y-54122510D01*
X17625000Y-54122514D01*
X17652561Y-54261070D01*
X17757545Y-54418191D01*
X17797205Y-54444691D01*
X19349158Y-55996646D01*
X19275000Y-56175680D01*
X19275000Y-56424320D01*
X19370151Y-56654034D01*
X19545966Y-56829849D01*
X19775680Y-56925000D01*
X19853250Y-56925000D01*
X20803250Y-57875001D01*
X20771016Y-57875001D01*
X20593218Y-57697204D01*
X20566719Y-57657545D01*
X20409599Y-57552561D01*
X20271043Y-57525000D01*
X20271038Y-57525000D01*
X20224264Y-57515696D01*
X20203675Y-57519792D01*
X20154034Y-57470151D01*
X19924320Y-57375000D01*
X19675680Y-57375000D01*
X19445966Y-57470151D01*
X19270151Y-57645966D01*
X19175000Y-57875680D01*
X19175000Y-58124320D01*
X19270151Y-58354034D01*
X19367788Y-58451671D01*
X19275000Y-58675680D01*
X19275000Y-58924320D01*
X19370151Y-59154034D01*
X19545966Y-59329849D01*
X19775680Y-59425000D01*
X19845882Y-59425000D01*
X19857544Y-59442453D01*
X19897201Y-59468951D01*
X19897202Y-59468952D01*
X20014663Y-59547438D01*
X20199999Y-59584303D01*
X20246779Y-59574998D01*
X29663910Y-59575000D01*
X30025936Y-59937026D01*
X29945966Y-59970151D01*
X29891117Y-60025000D01*
X17446773Y-60025000D01*
X17399999Y-60015696D01*
X17353225Y-60025000D01*
X17353221Y-60025000D01*
X17214665Y-60052561D01*
X17214663Y-60052562D01*
X17214664Y-60052562D01*
X17097201Y-60131047D01*
X17097199Y-60131049D01*
X17057545Y-60157545D01*
X17031049Y-60197199D01*
X15897202Y-61331048D01*
X15857546Y-61357545D01*
X15831048Y-61397202D01*
X15831047Y-61397203D01*
X15752562Y-61514665D01*
X15724100Y-61657752D01*
X15524320Y-61575000D01*
X15275680Y-61575000D01*
X15045966Y-61670151D01*
X14870151Y-61845966D01*
X14775000Y-62075680D01*
X14775000Y-62324320D01*
X14870151Y-62554034D01*
X14925001Y-62608884D01*
X14925001Y-62853222D01*
X14915696Y-62900000D01*
X14952562Y-63085335D01*
X15010774Y-63172455D01*
X15057546Y-63242455D01*
X15097202Y-63268952D01*
X15531046Y-63702797D01*
X15557545Y-63742455D01*
X15714665Y-63847439D01*
X15853221Y-63875000D01*
X15853226Y-63875000D01*
X15900000Y-63884304D01*
X15946774Y-63875000D01*
X17991117Y-63875000D01*
X18045966Y-63929849D01*
X18275680Y-64025000D01*
X18524320Y-64025000D01*
X18754034Y-63929849D01*
X18808349Y-63875534D01*
X28406899Y-63875534D01*
X28494777Y-64014847D01*
X28883332Y-64138549D01*
X29289648Y-64104141D01*
X29505223Y-64014847D01*
X29593101Y-63875534D01*
X29000000Y-63282434D01*
X28406899Y-63875534D01*
X18808349Y-63875534D01*
X18929849Y-63754034D01*
X19025000Y-63524320D01*
X19025000Y-63275680D01*
X18929849Y-63045966D01*
X18867215Y-62983332D01*
X27961451Y-62983332D01*
X27995859Y-63389648D01*
X28085153Y-63605223D01*
X28224466Y-63693101D01*
X28817566Y-63100000D01*
X29182434Y-63100000D01*
X29775534Y-63693101D01*
X29914847Y-63605223D01*
X30038549Y-63216668D01*
X30004141Y-62810352D01*
X29914847Y-62594777D01*
X29775534Y-62506899D01*
X29182434Y-63100000D01*
X28817566Y-63100000D01*
X28224466Y-62506899D01*
X28085153Y-62594777D01*
X27961451Y-62983332D01*
X18867215Y-62983332D01*
X18754034Y-62870151D01*
X18524320Y-62775000D01*
X18275680Y-62775000D01*
X18045966Y-62870151D01*
X17991117Y-62925000D01*
X16741875Y-62925000D01*
X16824718Y-62725000D01*
X17024320Y-62725000D01*
X17254034Y-62629849D01*
X17429849Y-62454034D01*
X17483518Y-62324466D01*
X28406899Y-62324466D01*
X29000000Y-62917566D01*
X29593101Y-62324466D01*
X29505223Y-62185153D01*
X29116668Y-62061451D01*
X28710352Y-62095859D01*
X28494777Y-62185153D01*
X28406899Y-62324466D01*
X17483518Y-62324466D01*
X17525000Y-62224320D01*
X17525000Y-62146750D01*
X17896751Y-61775000D01*
X29491117Y-61775000D01*
X29545966Y-61829849D01*
X29775680Y-61925000D01*
X30024320Y-61925000D01*
X30254034Y-61829849D01*
X30429849Y-61654034D01*
X30525000Y-61424320D01*
X30525000Y-61175680D01*
X30492338Y-61096826D01*
X30654034Y-61029849D01*
X30829849Y-60854034D01*
X30862974Y-60774064D01*
X31252231Y-61163322D01*
X31191062Y-61188659D01*
X30888659Y-61491062D01*
X30725000Y-61886169D01*
X30725000Y-62313831D01*
X30888659Y-62708938D01*
X31191062Y-63011341D01*
X31586169Y-63175000D01*
X32013831Y-63175000D01*
X32147770Y-63119521D01*
X32161047Y-63132798D01*
X32187545Y-63172455D01*
X32344665Y-63277439D01*
X32483221Y-63305000D01*
X32483226Y-63305000D01*
X32530000Y-63314304D01*
X32576774Y-63305000D01*
X33141117Y-63305000D01*
X33195966Y-63359849D01*
X33425680Y-63455000D01*
X33674320Y-63455000D01*
X33904034Y-63359849D01*
X34079849Y-63184034D01*
X34175000Y-62954320D01*
X34175000Y-62705680D01*
X34079849Y-62475966D01*
X33904034Y-62300151D01*
X33674320Y-62205000D01*
X33425680Y-62205000D01*
X33195966Y-62300151D01*
X33141117Y-62355000D01*
X32857947Y-62355000D01*
X32875000Y-62313831D01*
X32875000Y-61886169D01*
X32711341Y-61491062D01*
X32408938Y-61188659D01*
X32275000Y-61133180D01*
X32275000Y-61086114D01*
X32284304Y-61039340D01*
X32275000Y-60992566D01*
X32275000Y-60992561D01*
X32247439Y-60854005D01*
X32142455Y-60696885D01*
X32102798Y-60670387D01*
X30257411Y-58825001D01*
X31150337Y-58825001D01*
X31125000Y-58886169D01*
X31125000Y-59313831D01*
X31288659Y-59708938D01*
X31591062Y-60011341D01*
X31986169Y-60175000D01*
X32413831Y-60175000D01*
X32808938Y-60011341D01*
X33111341Y-59708938D01*
X33125000Y-59675962D01*
X33125000Y-59953226D01*
X33115696Y-60000000D01*
X33125000Y-60046774D01*
X33125000Y-60046778D01*
X33152561Y-60185334D01*
X33257545Y-60342455D01*
X33297205Y-60368955D01*
X33680480Y-60752230D01*
X33625000Y-60886169D01*
X33625000Y-61313831D01*
X33788659Y-61708938D01*
X34091062Y-62011341D01*
X34218826Y-62064263D01*
X34215696Y-62080000D01*
X34252562Y-62265335D01*
X34330890Y-62382561D01*
X34357546Y-62422455D01*
X34397202Y-62448952D01*
X34825000Y-62876751D01*
X34825000Y-62954320D01*
X34920151Y-63184034D01*
X34975000Y-63238883D01*
X34975001Y-63903222D01*
X34965696Y-63950000D01*
X34975001Y-63996779D01*
X35002562Y-64135335D01*
X35107546Y-64292455D01*
X35147202Y-64318952D01*
X35575000Y-64746751D01*
X35575000Y-64824320D01*
X35670151Y-65054034D01*
X35685591Y-65069474D01*
X35674912Y-65080152D01*
X35590121Y-64943438D01*
X35210670Y-64823934D01*
X34814371Y-64858736D01*
X34609879Y-64943438D01*
X34525087Y-65080153D01*
X35100000Y-65655066D01*
X35114142Y-65640924D01*
X35296576Y-65823358D01*
X35282434Y-65837500D01*
X35857347Y-66412413D01*
X35994062Y-66327621D01*
X36113566Y-65948170D01*
X36094129Y-65726830D01*
X39086434Y-65726830D01*
X39121236Y-66123129D01*
X39205938Y-66327621D01*
X39342653Y-66412413D01*
X39917566Y-65837500D01*
X40282434Y-65837500D01*
X40857347Y-66412413D01*
X40994062Y-66327621D01*
X41113566Y-65948170D01*
X41078764Y-65551871D01*
X40994062Y-65347379D01*
X40857347Y-65262587D01*
X40282434Y-65837500D01*
X39917566Y-65837500D01*
X39342653Y-65262587D01*
X39205938Y-65347379D01*
X39086434Y-65726830D01*
X36094129Y-65726830D01*
X36078764Y-65551871D01*
X35994062Y-65347379D01*
X35857348Y-65262588D01*
X35877164Y-65242772D01*
X36075680Y-65325000D01*
X36324320Y-65325000D01*
X36554034Y-65229849D01*
X36729849Y-65054034D01*
X36804007Y-64875001D01*
X39775103Y-64875001D01*
X39609879Y-64943438D01*
X39525087Y-65080153D01*
X40100000Y-65655066D01*
X40674913Y-65080153D01*
X40590121Y-64943438D01*
X40372819Y-64875001D01*
X43803251Y-64875001D01*
X44431049Y-65502801D01*
X44457545Y-65542455D01*
X44497199Y-65568951D01*
X44497201Y-65568953D01*
X44534138Y-65593633D01*
X44614665Y-65647439D01*
X44753221Y-65675000D01*
X44753225Y-65675000D01*
X44768633Y-65678065D01*
X44768633Y-66000000D01*
X44793857Y-66126809D01*
X44865688Y-66234312D01*
X44973191Y-66306143D01*
X45100000Y-66331367D01*
X46700000Y-66331367D01*
X46826809Y-66306143D01*
X46934312Y-66234312D01*
X47006143Y-66126809D01*
X47031367Y-66000000D01*
X47031367Y-64400000D01*
X47006143Y-64273191D01*
X46934312Y-64165688D01*
X46826809Y-64093857D01*
X46700000Y-64068633D01*
X45100000Y-64068633D01*
X44973191Y-64093857D01*
X44865688Y-64165688D01*
X44793857Y-64273191D01*
X44768633Y-64400000D01*
X44768633Y-64496882D01*
X44368955Y-64097205D01*
X44342456Y-64057546D01*
X44185336Y-63952562D01*
X44046780Y-63925001D01*
X44046775Y-63925001D01*
X44000001Y-63915697D01*
X43953227Y-63925001D01*
X36546774Y-63925001D01*
X36499999Y-63915697D01*
X36453224Y-63925001D01*
X36453220Y-63925001D01*
X36343271Y-63946872D01*
X36314663Y-63952562D01*
X36251326Y-63994883D01*
X36200557Y-64028806D01*
X35925000Y-63753250D01*
X35925000Y-63238883D01*
X35979849Y-63184034D01*
X35994878Y-63147750D01*
X38475000Y-63147750D01*
X38475000Y-63504701D01*
X38516866Y-63605775D01*
X38594225Y-63683134D01*
X38695299Y-63725000D01*
X39302250Y-63725000D01*
X39371000Y-63656250D01*
X39371000Y-63079000D01*
X39629000Y-63079000D01*
X39629000Y-63656250D01*
X39697750Y-63725000D01*
X40304701Y-63725000D01*
X40405775Y-63683134D01*
X40483134Y-63605775D01*
X40525000Y-63504701D01*
X40525000Y-63147750D01*
X40456250Y-63079000D01*
X39629000Y-63079000D01*
X39371000Y-63079000D01*
X38543750Y-63079000D01*
X38475000Y-63147750D01*
X35994878Y-63147750D01*
X36075000Y-62954320D01*
X36075000Y-62705680D01*
X35979849Y-62475966D01*
X35804034Y-62300151D01*
X35574320Y-62205000D01*
X35496751Y-62205000D01*
X35304804Y-62013053D01*
X35308938Y-62011341D01*
X35611341Y-61708938D01*
X35775000Y-61313831D01*
X35775000Y-60886169D01*
X35611341Y-60491062D01*
X35308938Y-60188659D01*
X34913831Y-60025000D01*
X34486169Y-60025000D01*
X34352230Y-60080480D01*
X34075000Y-59803250D01*
X34075000Y-58675962D01*
X34088659Y-58708938D01*
X34391062Y-59011341D01*
X34786169Y-59175000D01*
X35213831Y-59175000D01*
X35608938Y-59011341D01*
X35911341Y-58708938D01*
X36075000Y-58313831D01*
X36075000Y-57886169D01*
X35911341Y-57491062D01*
X35608938Y-57188659D01*
X35213831Y-57025000D01*
X36375000Y-57025000D01*
X36375000Y-62300000D01*
X36399739Y-62424372D01*
X36470190Y-62529810D01*
X36575628Y-62600261D01*
X36700000Y-62625000D01*
X38475000Y-62625000D01*
X38475000Y-62752250D01*
X38543750Y-62821000D01*
X39031836Y-62821000D01*
X39075628Y-62850261D01*
X39200000Y-62875000D01*
X39800000Y-62875000D01*
X39924372Y-62850261D01*
X39968164Y-62821000D01*
X40456250Y-62821000D01*
X40525000Y-62752250D01*
X40525000Y-62625000D01*
X49600000Y-62625000D01*
X49600000Y-67971504D01*
X49531772Y-68447922D01*
X49344487Y-68859834D01*
X49049117Y-69202626D01*
X48669411Y-69448739D01*
X48222641Y-69582352D01*
X47985159Y-69600000D01*
X41622055Y-69600000D01*
X41627501Y-69597435D01*
X41859028Y-69341528D01*
X41975000Y-69016500D01*
X41975000Y-68666500D01*
X41229000Y-68666500D01*
X41229000Y-68686500D01*
X40971000Y-68686500D01*
X40971000Y-68666500D01*
X40225000Y-68666500D01*
X40225000Y-69016500D01*
X40340972Y-69341528D01*
X40572499Y-69597435D01*
X40577945Y-69600000D01*
X34622055Y-69600000D01*
X34627501Y-69597435D01*
X34859028Y-69341528D01*
X34975000Y-69016500D01*
X34975000Y-68666500D01*
X34229000Y-68666500D01*
X34229000Y-68686500D01*
X33971000Y-68686500D01*
X33971000Y-68666500D01*
X33225000Y-68666500D01*
X33225000Y-69016500D01*
X33340972Y-69341528D01*
X33572499Y-69597435D01*
X33577945Y-69600000D01*
X29617396Y-69600000D01*
X29656006Y-69592320D01*
X30127366Y-69277367D01*
X30442320Y-68806007D01*
X30500824Y-68511885D01*
X45270548Y-68511885D01*
X45364594Y-68656392D01*
X45771344Y-68788483D01*
X46197681Y-68754861D01*
X46435406Y-68656392D01*
X46529452Y-68511885D01*
X45900000Y-67882434D01*
X45270548Y-68511885D01*
X30500824Y-68511885D01*
X30525000Y-68390348D01*
X30525000Y-68058500D01*
X33225000Y-68058500D01*
X33225000Y-68408500D01*
X33971000Y-68408500D01*
X33971000Y-67391637D01*
X34229000Y-67391637D01*
X34229000Y-68408500D01*
X34975000Y-68408500D01*
X34975000Y-68058500D01*
X40225000Y-68058500D01*
X40225000Y-68408500D01*
X40971000Y-68408500D01*
X40971000Y-67391637D01*
X41229000Y-67391637D01*
X41229000Y-68408500D01*
X41975000Y-68408500D01*
X41975000Y-68058500D01*
X41859028Y-67733472D01*
X41712346Y-67571344D01*
X44811517Y-67571344D01*
X44845139Y-67997681D01*
X44943608Y-68235406D01*
X45088115Y-68329452D01*
X45717566Y-67700000D01*
X46082434Y-67700000D01*
X46711885Y-68329452D01*
X46856392Y-68235406D01*
X46988483Y-67828656D01*
X46954861Y-67402319D01*
X46856392Y-67164594D01*
X46711885Y-67070548D01*
X46082434Y-67700000D01*
X45717566Y-67700000D01*
X45088115Y-67070548D01*
X44943608Y-67164594D01*
X44811517Y-67571344D01*
X41712346Y-67571344D01*
X41627501Y-67477565D01*
X41362796Y-67352896D01*
X41229000Y-67391637D01*
X40971000Y-67391637D01*
X40837204Y-67352896D01*
X40572499Y-67477565D01*
X40340972Y-67733472D01*
X40225000Y-68058500D01*
X34975000Y-68058500D01*
X34859028Y-67733472D01*
X34627501Y-67477565D01*
X34362796Y-67352896D01*
X34229000Y-67391637D01*
X33971000Y-67391637D01*
X33837204Y-67352896D01*
X33572499Y-67477565D01*
X33340972Y-67733472D01*
X33225000Y-68058500D01*
X30525000Y-68058500D01*
X30525000Y-66888115D01*
X45270548Y-66888115D01*
X45900000Y-67517566D01*
X46529452Y-66888115D01*
X46435406Y-66743608D01*
X46028656Y-66611517D01*
X45602319Y-66645139D01*
X45364594Y-66743608D01*
X45270548Y-66888115D01*
X30525000Y-66888115D01*
X30525000Y-66809652D01*
X30482273Y-66594847D01*
X34525087Y-66594847D01*
X34609879Y-66731562D01*
X34989330Y-66851066D01*
X35385629Y-66816264D01*
X35590121Y-66731562D01*
X35674913Y-66594847D01*
X39525087Y-66594847D01*
X39609879Y-66731562D01*
X39989330Y-66851066D01*
X40385629Y-66816264D01*
X40590121Y-66731562D01*
X40674913Y-66594847D01*
X40100000Y-66019934D01*
X39525087Y-66594847D01*
X35674913Y-66594847D01*
X35100000Y-66019934D01*
X34525087Y-66594847D01*
X30482273Y-66594847D01*
X30442320Y-66393993D01*
X30127367Y-65922633D01*
X29834328Y-65726830D01*
X34086434Y-65726830D01*
X34121236Y-66123129D01*
X34205938Y-66327621D01*
X34342653Y-66412413D01*
X34917566Y-65837500D01*
X34342653Y-65262587D01*
X34205938Y-65347379D01*
X34086434Y-65726830D01*
X29834328Y-65726830D01*
X29656007Y-65607680D01*
X29100000Y-65497083D01*
X28543994Y-65607680D01*
X28072634Y-65922633D01*
X27956193Y-66096899D01*
X27876809Y-66043857D01*
X27750000Y-66018633D01*
X26250000Y-66018633D01*
X26123191Y-66043857D01*
X26015688Y-66115688D01*
X25943857Y-66223191D01*
X25918633Y-66350000D01*
X25918633Y-66539884D01*
X25775031Y-66324969D01*
X25419444Y-66087373D01*
X25000000Y-66003940D01*
X24580557Y-66087373D01*
X24224970Y-66324969D01*
X24000001Y-66661659D01*
X23775031Y-66324969D01*
X23475000Y-66124494D01*
X23475000Y-66096774D01*
X23484304Y-66050000D01*
X23475000Y-66003226D01*
X23475000Y-66003221D01*
X23447439Y-65864665D01*
X23386735Y-65773814D01*
X23368953Y-65747202D01*
X23342455Y-65707545D01*
X23302798Y-65681047D01*
X22118955Y-64497205D01*
X22092455Y-64457545D01*
X21935335Y-64352561D01*
X21796779Y-64325000D01*
X21796774Y-64325000D01*
X21750000Y-64315696D01*
X21703226Y-64325000D01*
X15796751Y-64325000D01*
X14675000Y-63203250D01*
X14675000Y-48396750D01*
X19075000Y-43996751D01*
X19075000Y-44004721D01*
X19075000Y-44004721D01*
G37*
X19075000Y-44004721D02*
X18988659Y-44091062D01*
X18825000Y-44486169D01*
X18825000Y-44913831D01*
X18880479Y-45047770D01*
X17797202Y-46131047D01*
X17757546Y-46157545D01*
X17731048Y-46197202D01*
X17731047Y-46197203D01*
X17652562Y-46314665D01*
X17615696Y-46500000D01*
X17625001Y-46546779D01*
X17625000Y-54028962D01*
X17615696Y-54075736D01*
X17625000Y-54122510D01*
X17625000Y-54122514D01*
X17652561Y-54261070D01*
X17757545Y-54418191D01*
X17797205Y-54444691D01*
X19349158Y-55996646D01*
X19275000Y-56175680D01*
X19275000Y-56424320D01*
X19370151Y-56654034D01*
X19545966Y-56829849D01*
X19775680Y-56925000D01*
X19853250Y-56925000D01*
X20803250Y-57875001D01*
X20771016Y-57875001D01*
X20593218Y-57697204D01*
X20566719Y-57657545D01*
X20409599Y-57552561D01*
X20271043Y-57525000D01*
X20271038Y-57525000D01*
X20224264Y-57515696D01*
X20203675Y-57519792D01*
X20154034Y-57470151D01*
X19924320Y-57375000D01*
X19675680Y-57375000D01*
X19445966Y-57470151D01*
X19270151Y-57645966D01*
X19175000Y-57875680D01*
X19175000Y-58124320D01*
X19270151Y-58354034D01*
X19367788Y-58451671D01*
X19275000Y-58675680D01*
X19275000Y-58924320D01*
X19370151Y-59154034D01*
X19545966Y-59329849D01*
X19775680Y-59425000D01*
X19845882Y-59425000D01*
X19857544Y-59442453D01*
X19897201Y-59468951D01*
X19897202Y-59468952D01*
X20014663Y-59547438D01*
X20199999Y-59584303D01*
X20246779Y-59574998D01*
X29663910Y-59575000D01*
X30025936Y-59937026D01*
X29945966Y-59970151D01*
X29891117Y-60025000D01*
X17446773Y-60025000D01*
X17399999Y-60015696D01*
X17353225Y-60025000D01*
X17353221Y-60025000D01*
X17214665Y-60052561D01*
X17214663Y-60052562D01*
X17214664Y-60052562D01*
X17097201Y-60131047D01*
X17097199Y-60131049D01*
X17057545Y-60157545D01*
X17031049Y-60197199D01*
X15897202Y-61331048D01*
X15857546Y-61357545D01*
X15831048Y-61397202D01*
X15831047Y-61397203D01*
X15752562Y-61514665D01*
X15724100Y-61657752D01*
X15524320Y-61575000D01*
X15275680Y-61575000D01*
X15045966Y-61670151D01*
X14870151Y-61845966D01*
X14775000Y-62075680D01*
X14775000Y-62324320D01*
X14870151Y-62554034D01*
X14925001Y-62608884D01*
X14925001Y-62853222D01*
X14915696Y-62900000D01*
X14952562Y-63085335D01*
X15010774Y-63172455D01*
X15057546Y-63242455D01*
X15097202Y-63268952D01*
X15531046Y-63702797D01*
X15557545Y-63742455D01*
X15714665Y-63847439D01*
X15853221Y-63875000D01*
X15853226Y-63875000D01*
X15900000Y-63884304D01*
X15946774Y-63875000D01*
X17991117Y-63875000D01*
X18045966Y-63929849D01*
X18275680Y-64025000D01*
X18524320Y-64025000D01*
X18754034Y-63929849D01*
X18808349Y-63875534D01*
X28406899Y-63875534D01*
X28494777Y-64014847D01*
X28883332Y-64138549D01*
X29289648Y-64104141D01*
X29505223Y-64014847D01*
X29593101Y-63875534D01*
X29000000Y-63282434D01*
X28406899Y-63875534D01*
X18808349Y-63875534D01*
X18929849Y-63754034D01*
X19025000Y-63524320D01*
X19025000Y-63275680D01*
X18929849Y-63045966D01*
X18867215Y-62983332D01*
X27961451Y-62983332D01*
X27995859Y-63389648D01*
X28085153Y-63605223D01*
X28224466Y-63693101D01*
X28817566Y-63100000D01*
X29182434Y-63100000D01*
X29775534Y-63693101D01*
X29914847Y-63605223D01*
X30038549Y-63216668D01*
X30004141Y-62810352D01*
X29914847Y-62594777D01*
X29775534Y-62506899D01*
X29182434Y-63100000D01*
X28817566Y-63100000D01*
X28224466Y-62506899D01*
X28085153Y-62594777D01*
X27961451Y-62983332D01*
X18867215Y-62983332D01*
X18754034Y-62870151D01*
X18524320Y-62775000D01*
X18275680Y-62775000D01*
X18045966Y-62870151D01*
X17991117Y-62925000D01*
X16741875Y-62925000D01*
X16824718Y-62725000D01*
X17024320Y-62725000D01*
X17254034Y-62629849D01*
X17429849Y-62454034D01*
X17483518Y-62324466D01*
X28406899Y-62324466D01*
X29000000Y-62917566D01*
X29593101Y-62324466D01*
X29505223Y-62185153D01*
X29116668Y-62061451D01*
X28710352Y-62095859D01*
X28494777Y-62185153D01*
X28406899Y-62324466D01*
X17483518Y-62324466D01*
X17525000Y-62224320D01*
X17525000Y-62146750D01*
X17896751Y-61775000D01*
X29491117Y-61775000D01*
X29545966Y-61829849D01*
X29775680Y-61925000D01*
X30024320Y-61925000D01*
X30254034Y-61829849D01*
X30429849Y-61654034D01*
X30525000Y-61424320D01*
X30525000Y-61175680D01*
X30492338Y-61096826D01*
X30654034Y-61029849D01*
X30829849Y-60854034D01*
X30862974Y-60774064D01*
X31252231Y-61163322D01*
X31191062Y-61188659D01*
X30888659Y-61491062D01*
X30725000Y-61886169D01*
X30725000Y-62313831D01*
X30888659Y-62708938D01*
X31191062Y-63011341D01*
X31586169Y-63175000D01*
X32013831Y-63175000D01*
X32147770Y-63119521D01*
X32161047Y-63132798D01*
X32187545Y-63172455D01*
X32344665Y-63277439D01*
X32483221Y-63305000D01*
X32483226Y-63305000D01*
X32530000Y-63314304D01*
X32576774Y-63305000D01*
X33141117Y-63305000D01*
X33195966Y-63359849D01*
X33425680Y-63455000D01*
X33674320Y-63455000D01*
X33904034Y-63359849D01*
X34079849Y-63184034D01*
X34175000Y-62954320D01*
X34175000Y-62705680D01*
X34079849Y-62475966D01*
X33904034Y-62300151D01*
X33674320Y-62205000D01*
X33425680Y-62205000D01*
X33195966Y-62300151D01*
X33141117Y-62355000D01*
X32857947Y-62355000D01*
X32875000Y-62313831D01*
X32875000Y-61886169D01*
X32711341Y-61491062D01*
X32408938Y-61188659D01*
X32275000Y-61133180D01*
X32275000Y-61086114D01*
X32284304Y-61039340D01*
X32275000Y-60992566D01*
X32275000Y-60992561D01*
X32247439Y-60854005D01*
X32142455Y-60696885D01*
X32102798Y-60670387D01*
X30257411Y-58825001D01*
X31150337Y-58825001D01*
X31125000Y-58886169D01*
X31125000Y-59313831D01*
X31288659Y-59708938D01*
X31591062Y-60011341D01*
X31986169Y-60175000D01*
X32413831Y-60175000D01*
X32808938Y-60011341D01*
X33111341Y-59708938D01*
X33125000Y-59675962D01*
X33125000Y-59953226D01*
X33115696Y-60000000D01*
X33125000Y-60046774D01*
X33125000Y-60046778D01*
X33152561Y-60185334D01*
X33257545Y-60342455D01*
X33297205Y-60368955D01*
X33680480Y-60752230D01*
X33625000Y-60886169D01*
X33625000Y-61313831D01*
X33788659Y-61708938D01*
X34091062Y-62011341D01*
X34218826Y-62064263D01*
X34215696Y-62080000D01*
X34252562Y-62265335D01*
X34330890Y-62382561D01*
X34357546Y-62422455D01*
X34397202Y-62448952D01*
X34825000Y-62876751D01*
X34825000Y-62954320D01*
X34920151Y-63184034D01*
X34975000Y-63238883D01*
X34975001Y-63903222D01*
X34965696Y-63950000D01*
X34975001Y-63996779D01*
X35002562Y-64135335D01*
X35107546Y-64292455D01*
X35147202Y-64318952D01*
X35575000Y-64746751D01*
X35575000Y-64824320D01*
X35670151Y-65054034D01*
X35685591Y-65069474D01*
X35674912Y-65080152D01*
X35590121Y-64943438D01*
X35210670Y-64823934D01*
X34814371Y-64858736D01*
X34609879Y-64943438D01*
X34525087Y-65080153D01*
X35100000Y-65655066D01*
X35114142Y-65640924D01*
X35296576Y-65823358D01*
X35282434Y-65837500D01*
X35857347Y-66412413D01*
X35994062Y-66327621D01*
X36113566Y-65948170D01*
X36094129Y-65726830D01*
X39086434Y-65726830D01*
X39121236Y-66123129D01*
X39205938Y-66327621D01*
X39342653Y-66412413D01*
X39917566Y-65837500D01*
X40282434Y-65837500D01*
X40857347Y-66412413D01*
X40994062Y-66327621D01*
X41113566Y-65948170D01*
X41078764Y-65551871D01*
X40994062Y-65347379D01*
X40857347Y-65262587D01*
X40282434Y-65837500D01*
X39917566Y-65837500D01*
X39342653Y-65262587D01*
X39205938Y-65347379D01*
X39086434Y-65726830D01*
X36094129Y-65726830D01*
X36078764Y-65551871D01*
X35994062Y-65347379D01*
X35857348Y-65262588D01*
X35877164Y-65242772D01*
X36075680Y-65325000D01*
X36324320Y-65325000D01*
X36554034Y-65229849D01*
X36729849Y-65054034D01*
X36804007Y-64875001D01*
X39775103Y-64875001D01*
X39609879Y-64943438D01*
X39525087Y-65080153D01*
X40100000Y-65655066D01*
X40674913Y-65080153D01*
X40590121Y-64943438D01*
X40372819Y-64875001D01*
X43803251Y-64875001D01*
X44431049Y-65502801D01*
X44457545Y-65542455D01*
X44497199Y-65568951D01*
X44497201Y-65568953D01*
X44534138Y-65593633D01*
X44614665Y-65647439D01*
X44753221Y-65675000D01*
X44753225Y-65675000D01*
X44768633Y-65678065D01*
X44768633Y-66000000D01*
X44793857Y-66126809D01*
X44865688Y-66234312D01*
X44973191Y-66306143D01*
X45100000Y-66331367D01*
X46700000Y-66331367D01*
X46826809Y-66306143D01*
X46934312Y-66234312D01*
X47006143Y-66126809D01*
X47031367Y-66000000D01*
X47031367Y-64400000D01*
X47006143Y-64273191D01*
X46934312Y-64165688D01*
X46826809Y-64093857D01*
X46700000Y-64068633D01*
X45100000Y-64068633D01*
X44973191Y-64093857D01*
X44865688Y-64165688D01*
X44793857Y-64273191D01*
X44768633Y-64400000D01*
X44768633Y-64496882D01*
X44368955Y-64097205D01*
X44342456Y-64057546D01*
X44185336Y-63952562D01*
X44046780Y-63925001D01*
X44046775Y-63925001D01*
X44000001Y-63915697D01*
X43953227Y-63925001D01*
X36546774Y-63925001D01*
X36499999Y-63915697D01*
X36453224Y-63925001D01*
X36453220Y-63925001D01*
X36343271Y-63946872D01*
X36314663Y-63952562D01*
X36251326Y-63994883D01*
X36200557Y-64028806D01*
X35925000Y-63753250D01*
X35925000Y-63238883D01*
X35979849Y-63184034D01*
X35994878Y-63147750D01*
X38475000Y-63147750D01*
X38475000Y-63504701D01*
X38516866Y-63605775D01*
X38594225Y-63683134D01*
X38695299Y-63725000D01*
X39302250Y-63725000D01*
X39371000Y-63656250D01*
X39371000Y-63079000D01*
X39629000Y-63079000D01*
X39629000Y-63656250D01*
X39697750Y-63725000D01*
X40304701Y-63725000D01*
X40405775Y-63683134D01*
X40483134Y-63605775D01*
X40525000Y-63504701D01*
X40525000Y-63147750D01*
X40456250Y-63079000D01*
X39629000Y-63079000D01*
X39371000Y-63079000D01*
X38543750Y-63079000D01*
X38475000Y-63147750D01*
X35994878Y-63147750D01*
X36075000Y-62954320D01*
X36075000Y-62705680D01*
X35979849Y-62475966D01*
X35804034Y-62300151D01*
X35574320Y-62205000D01*
X35496751Y-62205000D01*
X35304804Y-62013053D01*
X35308938Y-62011341D01*
X35611341Y-61708938D01*
X35775000Y-61313831D01*
X35775000Y-60886169D01*
X35611341Y-60491062D01*
X35308938Y-60188659D01*
X34913831Y-60025000D01*
X34486169Y-60025000D01*
X34352230Y-60080480D01*
X34075000Y-59803250D01*
X34075000Y-58675962D01*
X34088659Y-58708938D01*
X34391062Y-59011341D01*
X34786169Y-59175000D01*
X35213831Y-59175000D01*
X35608938Y-59011341D01*
X35911341Y-58708938D01*
X36075000Y-58313831D01*
X36075000Y-57886169D01*
X35911341Y-57491062D01*
X35608938Y-57188659D01*
X35213831Y-57025000D01*
X36375000Y-57025000D01*
X36375000Y-62300000D01*
X36399739Y-62424372D01*
X36470190Y-62529810D01*
X36575628Y-62600261D01*
X36700000Y-62625000D01*
X38475000Y-62625000D01*
X38475000Y-62752250D01*
X38543750Y-62821000D01*
X39031836Y-62821000D01*
X39075628Y-62850261D01*
X39200000Y-62875000D01*
X39800000Y-62875000D01*
X39924372Y-62850261D01*
X39968164Y-62821000D01*
X40456250Y-62821000D01*
X40525000Y-62752250D01*
X40525000Y-62625000D01*
X49600000Y-62625000D01*
X49600000Y-67971504D01*
X49531772Y-68447922D01*
X49344487Y-68859834D01*
X49049117Y-69202626D01*
X48669411Y-69448739D01*
X48222641Y-69582352D01*
X47985159Y-69600000D01*
X41622055Y-69600000D01*
X41627501Y-69597435D01*
X41859028Y-69341528D01*
X41975000Y-69016500D01*
X41975000Y-68666500D01*
X41229000Y-68666500D01*
X41229000Y-68686500D01*
X40971000Y-68686500D01*
X40971000Y-68666500D01*
X40225000Y-68666500D01*
X40225000Y-69016500D01*
X40340972Y-69341528D01*
X40572499Y-69597435D01*
X40577945Y-69600000D01*
X34622055Y-69600000D01*
X34627501Y-69597435D01*
X34859028Y-69341528D01*
X34975000Y-69016500D01*
X34975000Y-68666500D01*
X34229000Y-68666500D01*
X34229000Y-68686500D01*
X33971000Y-68686500D01*
X33971000Y-68666500D01*
X33225000Y-68666500D01*
X33225000Y-69016500D01*
X33340972Y-69341528D01*
X33572499Y-69597435D01*
X33577945Y-69600000D01*
X29617396Y-69600000D01*
X29656006Y-69592320D01*
X30127366Y-69277367D01*
X30442320Y-68806007D01*
X30500824Y-68511885D01*
X45270548Y-68511885D01*
X45364594Y-68656392D01*
X45771344Y-68788483D01*
X46197681Y-68754861D01*
X46435406Y-68656392D01*
X46529452Y-68511885D01*
X45900000Y-67882434D01*
X45270548Y-68511885D01*
X30500824Y-68511885D01*
X30525000Y-68390348D01*
X30525000Y-68058500D01*
X33225000Y-68058500D01*
X33225000Y-68408500D01*
X33971000Y-68408500D01*
X33971000Y-67391637D01*
X34229000Y-67391637D01*
X34229000Y-68408500D01*
X34975000Y-68408500D01*
X34975000Y-68058500D01*
X40225000Y-68058500D01*
X40225000Y-68408500D01*
X40971000Y-68408500D01*
X40971000Y-67391637D01*
X41229000Y-67391637D01*
X41229000Y-68408500D01*
X41975000Y-68408500D01*
X41975000Y-68058500D01*
X41859028Y-67733472D01*
X41712346Y-67571344D01*
X44811517Y-67571344D01*
X44845139Y-67997681D01*
X44943608Y-68235406D01*
X45088115Y-68329452D01*
X45717566Y-67700000D01*
X46082434Y-67700000D01*
X46711885Y-68329452D01*
X46856392Y-68235406D01*
X46988483Y-67828656D01*
X46954861Y-67402319D01*
X46856392Y-67164594D01*
X46711885Y-67070548D01*
X46082434Y-67700000D01*
X45717566Y-67700000D01*
X45088115Y-67070548D01*
X44943608Y-67164594D01*
X44811517Y-67571344D01*
X41712346Y-67571344D01*
X41627501Y-67477565D01*
X41362796Y-67352896D01*
X41229000Y-67391637D01*
X40971000Y-67391637D01*
X40837204Y-67352896D01*
X40572499Y-67477565D01*
X40340972Y-67733472D01*
X40225000Y-68058500D01*
X34975000Y-68058500D01*
X34859028Y-67733472D01*
X34627501Y-67477565D01*
X34362796Y-67352896D01*
X34229000Y-67391637D01*
X33971000Y-67391637D01*
X33837204Y-67352896D01*
X33572499Y-67477565D01*
X33340972Y-67733472D01*
X33225000Y-68058500D01*
X30525000Y-68058500D01*
X30525000Y-66888115D01*
X45270548Y-66888115D01*
X45900000Y-67517566D01*
X46529452Y-66888115D01*
X46435406Y-66743608D01*
X46028656Y-66611517D01*
X45602319Y-66645139D01*
X45364594Y-66743608D01*
X45270548Y-66888115D01*
X30525000Y-66888115D01*
X30525000Y-66809652D01*
X30482273Y-66594847D01*
X34525087Y-66594847D01*
X34609879Y-66731562D01*
X34989330Y-66851066D01*
X35385629Y-66816264D01*
X35590121Y-66731562D01*
X35674913Y-66594847D01*
X39525087Y-66594847D01*
X39609879Y-66731562D01*
X39989330Y-66851066D01*
X40385629Y-66816264D01*
X40590121Y-66731562D01*
X40674913Y-66594847D01*
X40100000Y-66019934D01*
X39525087Y-66594847D01*
X35674913Y-66594847D01*
X35100000Y-66019934D01*
X34525087Y-66594847D01*
X30482273Y-66594847D01*
X30442320Y-66393993D01*
X30127367Y-65922633D01*
X29834328Y-65726830D01*
X34086434Y-65726830D01*
X34121236Y-66123129D01*
X34205938Y-66327621D01*
X34342653Y-66412413D01*
X34917566Y-65837500D01*
X34342653Y-65262587D01*
X34205938Y-65347379D01*
X34086434Y-65726830D01*
X29834328Y-65726830D01*
X29656007Y-65607680D01*
X29100000Y-65497083D01*
X28543994Y-65607680D01*
X28072634Y-65922633D01*
X27956193Y-66096899D01*
X27876809Y-66043857D01*
X27750000Y-66018633D01*
X26250000Y-66018633D01*
X26123191Y-66043857D01*
X26015688Y-66115688D01*
X25943857Y-66223191D01*
X25918633Y-66350000D01*
X25918633Y-66539884D01*
X25775031Y-66324969D01*
X25419444Y-66087373D01*
X25000000Y-66003940D01*
X24580557Y-66087373D01*
X24224970Y-66324969D01*
X24000001Y-66661659D01*
X23775031Y-66324969D01*
X23475000Y-66124494D01*
X23475000Y-66096774D01*
X23484304Y-66050000D01*
X23475000Y-66003226D01*
X23475000Y-66003221D01*
X23447439Y-65864665D01*
X23386735Y-65773814D01*
X23368953Y-65747202D01*
X23342455Y-65707545D01*
X23302798Y-65681047D01*
X22118955Y-64497205D01*
X22092455Y-64457545D01*
X21935335Y-64352561D01*
X21796779Y-64325000D01*
X21796774Y-64325000D01*
X21750000Y-64315696D01*
X21703226Y-64325000D01*
X15796751Y-64325000D01*
X14675000Y-63203250D01*
X14675000Y-48396750D01*
X19075000Y-43996751D01*
X19075000Y-44004721D01*
G36*
X14899739Y-41824372D02*
X14970190Y-41929810D01*
X15075628Y-42000261D01*
X15200000Y-42025000D01*
X25300000Y-42025000D01*
X25424372Y-42000261D01*
X25529810Y-41929810D01*
X25600261Y-41824372D01*
X25620027Y-41725000D01*
X27675000Y-41725000D01*
X27675000Y-42925000D01*
X23808883Y-42925000D01*
X23754034Y-42870151D01*
X23524320Y-42775000D01*
X23446751Y-42775000D01*
X23068954Y-42397204D01*
X23042455Y-42357545D01*
X22885335Y-42252561D01*
X22746779Y-42225000D01*
X22746774Y-42225000D01*
X22700000Y-42215696D01*
X22653226Y-42225000D01*
X19746775Y-42225000D01*
X19700000Y-42215696D01*
X19653225Y-42225000D01*
X19653221Y-42225000D01*
X19543272Y-42246871D01*
X19514664Y-42252561D01*
X19397202Y-42331047D01*
X19357545Y-42357545D01*
X19331047Y-42397202D01*
X15281367Y-46446883D01*
X15281367Y-45150000D01*
X15256143Y-45023191D01*
X15184312Y-44915688D01*
X15076809Y-44843857D01*
X14950000Y-44818633D01*
X13250000Y-44818633D01*
X13123191Y-44843857D01*
X13015688Y-44915688D01*
X12943857Y-45023191D01*
X12918633Y-45150000D01*
X12918633Y-46850000D01*
X12943857Y-46976809D01*
X13015688Y-47084312D01*
X13123191Y-47156143D01*
X13250000Y-47181367D01*
X14546883Y-47181367D01*
X13897205Y-47831045D01*
X13857545Y-47857545D01*
X13752561Y-48014666D01*
X13725000Y-48153222D01*
X13725000Y-48153226D01*
X13715696Y-48200000D01*
X13725000Y-48246774D01*
X13725001Y-63353221D01*
X13715696Y-63400000D01*
X13752562Y-63585335D01*
X13824569Y-63693101D01*
X13857546Y-63742455D01*
X13897203Y-63768953D01*
X15231046Y-65102797D01*
X15257545Y-65142455D01*
X15414665Y-65247439D01*
X15553221Y-65275000D01*
X15553226Y-65275000D01*
X15600000Y-65284304D01*
X15646774Y-65275000D01*
X21553250Y-65275000D01*
X22451713Y-66173464D01*
X22224970Y-66324969D01*
X22210585Y-66346498D01*
X21927367Y-65922633D01*
X21456007Y-65607680D01*
X20900000Y-65497083D01*
X20343994Y-65607680D01*
X19872634Y-65922633D01*
X19557680Y-66393993D01*
X19475000Y-66809652D01*
X19475000Y-68390347D01*
X19557680Y-68806006D01*
X19872633Y-69277366D01*
X20343993Y-69592320D01*
X20382603Y-69600000D01*
X2028496Y-69600000D01*
X1552078Y-69531772D01*
X1140166Y-69344487D01*
X797374Y-69049117D01*
X551261Y-68669411D01*
X417648Y-68222641D01*
X400000Y-67985159D01*
X400000Y-66174999D01*
X2468633Y-66174999D01*
X2468633Y-67425001D01*
X2512887Y-67647480D01*
X2638911Y-67836089D01*
X2827520Y-67962113D01*
X3049999Y-68006367D01*
X3750001Y-68006367D01*
X3972480Y-67962113D01*
X4161089Y-67836089D01*
X4287113Y-67647480D01*
X4331367Y-67425001D01*
X4331367Y-66929000D01*
X4525000Y-66929000D01*
X4525000Y-67204000D01*
X4640972Y-67529028D01*
X4872499Y-67784935D01*
X5137204Y-67909604D01*
X5271000Y-67870863D01*
X5271000Y-66929000D01*
X5529000Y-66929000D01*
X5529000Y-67870863D01*
X5662796Y-67909604D01*
X5927501Y-67784935D01*
X6159028Y-67529028D01*
X6275000Y-67204000D01*
X6275000Y-66929000D01*
X5529000Y-66929000D01*
X5271000Y-66929000D01*
X4525000Y-66929000D01*
X4331367Y-66929000D01*
X4331367Y-66396000D01*
X4525000Y-66396000D01*
X4525000Y-66671000D01*
X5271000Y-66671000D01*
X5271000Y-65729137D01*
X5529000Y-65729137D01*
X5529000Y-66671000D01*
X6275000Y-66671000D01*
X6275000Y-66396000D01*
X6159028Y-66070972D01*
X5927501Y-65815065D01*
X5662796Y-65690396D01*
X5529000Y-65729137D01*
X5271000Y-65729137D01*
X5137204Y-65690396D01*
X4872499Y-65815065D01*
X4640972Y-66070972D01*
X4525000Y-66396000D01*
X4331367Y-66396000D01*
X4331367Y-66174999D01*
X4287113Y-65952520D01*
X4161089Y-65763911D01*
X3972480Y-65637887D01*
X3750001Y-65593633D01*
X3049999Y-65593633D01*
X2827520Y-65637887D01*
X2638911Y-65763911D01*
X2512887Y-65952520D01*
X2468633Y-66174999D01*
X400000Y-66174999D01*
X400000Y-65025000D01*
X12300000Y-65025000D01*
X12347835Y-65015485D01*
X12388388Y-64988388D01*
X12415485Y-64947835D01*
X12425000Y-64900000D01*
X12425000Y-53046750D01*
X12946751Y-52525000D01*
X13024320Y-52525000D01*
X13254034Y-52429849D01*
X13429849Y-52254034D01*
X13525000Y-52024320D01*
X13525000Y-51775680D01*
X13429849Y-51545966D01*
X13254034Y-51370151D01*
X13024320Y-51275000D01*
X12775680Y-51275000D01*
X12545966Y-51370151D01*
X12425000Y-51491117D01*
X12425000Y-43762240D01*
X13016359Y-43762240D01*
X13120023Y-44012542D01*
X13406068Y-44345503D01*
X13797758Y-44543654D01*
X13971000Y-44508843D01*
X13971000Y-43589000D01*
X14229000Y-43589000D01*
X14229000Y-44508843D01*
X14402242Y-44543654D01*
X14793932Y-44345503D01*
X15079977Y-44012542D01*
X15183641Y-43762240D01*
X15148343Y-43589000D01*
X14229000Y-43589000D01*
X13971000Y-43589000D01*
X13051657Y-43589000D01*
X13016359Y-43762240D01*
X12425000Y-43762240D01*
X12425000Y-43157760D01*
X13016359Y-43157760D01*
X13051657Y-43331000D01*
X13971000Y-43331000D01*
X13971000Y-42411157D01*
X14229000Y-42411157D01*
X14229000Y-43331000D01*
X15148343Y-43331000D01*
X15183641Y-43157760D01*
X15079977Y-42907458D01*
X14793932Y-42574497D01*
X14402242Y-42376346D01*
X14229000Y-42411157D01*
X13971000Y-42411157D01*
X13797758Y-42376346D01*
X13406068Y-42574497D01*
X13120023Y-42907458D01*
X13016359Y-43157760D01*
X12425000Y-43157760D01*
X12425000Y-42546750D01*
X13246751Y-41725000D01*
X14879973Y-41725000D01*
X14899739Y-41824372D01*
X14899739Y-41824372D01*
G37*
X14899739Y-41824372D02*
X14970190Y-41929810D01*
X15075628Y-42000261D01*
X15200000Y-42025000D01*
X25300000Y-42025000D01*
X25424372Y-42000261D01*
X25529810Y-41929810D01*
X25600261Y-41824372D01*
X25620027Y-41725000D01*
X27675000Y-41725000D01*
X27675000Y-42925000D01*
X23808883Y-42925000D01*
X23754034Y-42870151D01*
X23524320Y-42775000D01*
X23446751Y-42775000D01*
X23068954Y-42397204D01*
X23042455Y-42357545D01*
X22885335Y-42252561D01*
X22746779Y-42225000D01*
X22746774Y-42225000D01*
X22700000Y-42215696D01*
X22653226Y-42225000D01*
X19746775Y-42225000D01*
X19700000Y-42215696D01*
X19653225Y-42225000D01*
X19653221Y-42225000D01*
X19543272Y-42246871D01*
X19514664Y-42252561D01*
X19397202Y-42331047D01*
X19357545Y-42357545D01*
X19331047Y-42397202D01*
X15281367Y-46446883D01*
X15281367Y-45150000D01*
X15256143Y-45023191D01*
X15184312Y-44915688D01*
X15076809Y-44843857D01*
X14950000Y-44818633D01*
X13250000Y-44818633D01*
X13123191Y-44843857D01*
X13015688Y-44915688D01*
X12943857Y-45023191D01*
X12918633Y-45150000D01*
X12918633Y-46850000D01*
X12943857Y-46976809D01*
X13015688Y-47084312D01*
X13123191Y-47156143D01*
X13250000Y-47181367D01*
X14546883Y-47181367D01*
X13897205Y-47831045D01*
X13857545Y-47857545D01*
X13752561Y-48014666D01*
X13725000Y-48153222D01*
X13725000Y-48153226D01*
X13715696Y-48200000D01*
X13725000Y-48246774D01*
X13725001Y-63353221D01*
X13715696Y-63400000D01*
X13752562Y-63585335D01*
X13824569Y-63693101D01*
X13857546Y-63742455D01*
X13897203Y-63768953D01*
X15231046Y-65102797D01*
X15257545Y-65142455D01*
X15414665Y-65247439D01*
X15553221Y-65275000D01*
X15553226Y-65275000D01*
X15600000Y-65284304D01*
X15646774Y-65275000D01*
X21553250Y-65275000D01*
X22451713Y-66173464D01*
X22224970Y-66324969D01*
X22210585Y-66346498D01*
X21927367Y-65922633D01*
X21456007Y-65607680D01*
X20900000Y-65497083D01*
X20343994Y-65607680D01*
X19872634Y-65922633D01*
X19557680Y-66393993D01*
X19475000Y-66809652D01*
X19475000Y-68390347D01*
X19557680Y-68806006D01*
X19872633Y-69277366D01*
X20343993Y-69592320D01*
X20382603Y-69600000D01*
X2028496Y-69600000D01*
X1552078Y-69531772D01*
X1140166Y-69344487D01*
X797374Y-69049117D01*
X551261Y-68669411D01*
X417648Y-68222641D01*
X400000Y-67985159D01*
X400000Y-66174999D01*
X2468633Y-66174999D01*
X2468633Y-67425001D01*
X2512887Y-67647480D01*
X2638911Y-67836089D01*
X2827520Y-67962113D01*
X3049999Y-68006367D01*
X3750001Y-68006367D01*
X3972480Y-67962113D01*
X4161089Y-67836089D01*
X4287113Y-67647480D01*
X4331367Y-67425001D01*
X4331367Y-66929000D01*
X4525000Y-66929000D01*
X4525000Y-67204000D01*
X4640972Y-67529028D01*
X4872499Y-67784935D01*
X5137204Y-67909604D01*
X5271000Y-67870863D01*
X5271000Y-66929000D01*
X5529000Y-66929000D01*
X5529000Y-67870863D01*
X5662796Y-67909604D01*
X5927501Y-67784935D01*
X6159028Y-67529028D01*
X6275000Y-67204000D01*
X6275000Y-66929000D01*
X5529000Y-66929000D01*
X5271000Y-66929000D01*
X4525000Y-66929000D01*
X4331367Y-66929000D01*
X4331367Y-66396000D01*
X4525000Y-66396000D01*
X4525000Y-66671000D01*
X5271000Y-66671000D01*
X5271000Y-65729137D01*
X5529000Y-65729137D01*
X5529000Y-66671000D01*
X6275000Y-66671000D01*
X6275000Y-66396000D01*
X6159028Y-66070972D01*
X5927501Y-65815065D01*
X5662796Y-65690396D01*
X5529000Y-65729137D01*
X5271000Y-65729137D01*
X5137204Y-65690396D01*
X4872499Y-65815065D01*
X4640972Y-66070972D01*
X4525000Y-66396000D01*
X4331367Y-66396000D01*
X4331367Y-66174999D01*
X4287113Y-65952520D01*
X4161089Y-65763911D01*
X3972480Y-65637887D01*
X3750001Y-65593633D01*
X3049999Y-65593633D01*
X2827520Y-65637887D01*
X2638911Y-65763911D01*
X2512887Y-65952520D01*
X2468633Y-66174999D01*
X400000Y-66174999D01*
X400000Y-65025000D01*
X12300000Y-65025000D01*
X12347835Y-65015485D01*
X12388388Y-64988388D01*
X12415485Y-64947835D01*
X12425000Y-64900000D01*
X12425000Y-53046750D01*
X12946751Y-52525000D01*
X13024320Y-52525000D01*
X13254034Y-52429849D01*
X13429849Y-52254034D01*
X13525000Y-52024320D01*
X13525000Y-51775680D01*
X13429849Y-51545966D01*
X13254034Y-51370151D01*
X13024320Y-51275000D01*
X12775680Y-51275000D01*
X12545966Y-51370151D01*
X12425000Y-51491117D01*
X12425000Y-43762240D01*
X13016359Y-43762240D01*
X13120023Y-44012542D01*
X13406068Y-44345503D01*
X13797758Y-44543654D01*
X13971000Y-44508843D01*
X13971000Y-43589000D01*
X14229000Y-43589000D01*
X14229000Y-44508843D01*
X14402242Y-44543654D01*
X14793932Y-44345503D01*
X15079977Y-44012542D01*
X15183641Y-43762240D01*
X15148343Y-43589000D01*
X14229000Y-43589000D01*
X13971000Y-43589000D01*
X13051657Y-43589000D01*
X13016359Y-43762240D01*
X12425000Y-43762240D01*
X12425000Y-43157760D01*
X13016359Y-43157760D01*
X13051657Y-43331000D01*
X13971000Y-43331000D01*
X13971000Y-42411157D01*
X14229000Y-42411157D01*
X14229000Y-43331000D01*
X15148343Y-43331000D01*
X15183641Y-43157760D01*
X15079977Y-42907458D01*
X14793932Y-42574497D01*
X14402242Y-42376346D01*
X14229000Y-42411157D01*
X13971000Y-42411157D01*
X13797758Y-42376346D01*
X13406068Y-42574497D01*
X13120023Y-42907458D01*
X13016359Y-43157760D01*
X12425000Y-43157760D01*
X12425000Y-42546750D01*
X13246751Y-41725000D01*
X14879973Y-41725000D01*
X14899739Y-41824372D01*
G36*
X20025001Y-49053216D02*
X20015695Y-49100000D01*
X20025000Y-49146779D01*
X20025001Y-52391116D01*
X19970151Y-52445966D01*
X19875000Y-52675680D01*
X19875000Y-52924320D01*
X19970151Y-53154034D01*
X20145966Y-53329849D01*
X20375680Y-53425000D01*
X20453250Y-53425000D01*
X23731046Y-56702797D01*
X23757545Y-56742455D01*
X23914665Y-56847439D01*
X24053221Y-56875000D01*
X24053226Y-56875000D01*
X24100000Y-56884304D01*
X24146774Y-56875000D01*
X27675000Y-56875000D01*
X27675000Y-56900000D01*
X27684515Y-56947835D01*
X27711612Y-56988388D01*
X27752165Y-57015485D01*
X27800000Y-57025000D01*
X32253250Y-57025000D01*
X32253754Y-57025504D01*
X32145966Y-57070151D01*
X32091117Y-57125000D01*
X21396751Y-57125000D01*
X20525000Y-56253250D01*
X20525000Y-56175680D01*
X20429849Y-55945966D01*
X20380208Y-55896325D01*
X20384304Y-55875735D01*
X20375000Y-55828961D01*
X20375000Y-55828957D01*
X20347439Y-55690401D01*
X20296834Y-55614665D01*
X20268953Y-55572937D01*
X20268951Y-55572935D01*
X20242455Y-55533281D01*
X20202801Y-55506785D01*
X18575000Y-53878986D01*
X18575000Y-47258883D01*
X18645966Y-47329849D01*
X18875680Y-47425000D01*
X19124320Y-47425000D01*
X19354034Y-47329849D01*
X19529849Y-47154034D01*
X19562586Y-47075000D01*
X20025000Y-47075000D01*
X20025001Y-49053216D01*
X20025001Y-49053216D01*
G37*
X20025001Y-49053216D02*
X20015695Y-49100000D01*
X20025000Y-49146779D01*
X20025001Y-52391116D01*
X19970151Y-52445966D01*
X19875000Y-52675680D01*
X19875000Y-52924320D01*
X19970151Y-53154034D01*
X20145966Y-53329849D01*
X20375680Y-53425000D01*
X20453250Y-53425000D01*
X23731046Y-56702797D01*
X23757545Y-56742455D01*
X23914665Y-56847439D01*
X24053221Y-56875000D01*
X24053226Y-56875000D01*
X24100000Y-56884304D01*
X24146774Y-56875000D01*
X27675000Y-56875000D01*
X27675000Y-56900000D01*
X27684515Y-56947835D01*
X27711612Y-56988388D01*
X27752165Y-57015485D01*
X27800000Y-57025000D01*
X32253250Y-57025000D01*
X32253754Y-57025504D01*
X32145966Y-57070151D01*
X32091117Y-57125000D01*
X21396751Y-57125000D01*
X20525000Y-56253250D01*
X20525000Y-56175680D01*
X20429849Y-55945966D01*
X20380208Y-55896325D01*
X20384304Y-55875735D01*
X20375000Y-55828961D01*
X20375000Y-55828957D01*
X20347439Y-55690401D01*
X20296834Y-55614665D01*
X20268953Y-55572937D01*
X20268951Y-55572935D01*
X20242455Y-55533281D01*
X20202801Y-55506785D01*
X18575000Y-53878986D01*
X18575000Y-47258883D01*
X18645966Y-47329849D01*
X18875680Y-47425000D01*
X19124320Y-47425000D01*
X19354034Y-47329849D01*
X19529849Y-47154034D01*
X19562586Y-47075000D01*
X20025000Y-47075000D01*
X20025001Y-49053216D01*
G36*
X21170151Y-49645966D02*
X21075000Y-49875680D01*
X21075000Y-50124320D01*
X21170151Y-50354034D01*
X21345966Y-50529849D01*
X21575680Y-50625000D01*
X21653250Y-50625000D01*
X26431049Y-55402801D01*
X26457545Y-55442455D01*
X26497199Y-55468951D01*
X26497201Y-55468953D01*
X26539481Y-55497203D01*
X26614665Y-55547439D01*
X26753221Y-55575000D01*
X26753225Y-55575000D01*
X26799999Y-55584304D01*
X26846773Y-55575000D01*
X27675000Y-55575000D01*
X27675000Y-55925000D01*
X24296751Y-55925000D01*
X21125000Y-52753250D01*
X21125000Y-52675680D01*
X21029849Y-52445966D01*
X20975000Y-52391117D01*
X20975000Y-49575000D01*
X21241117Y-49575000D01*
X21170151Y-49645966D01*
X21170151Y-49645966D01*
G37*
X21170151Y-49645966D02*
X21075000Y-49875680D01*
X21075000Y-50124320D01*
X21170151Y-50354034D01*
X21345966Y-50529849D01*
X21575680Y-50625000D01*
X21653250Y-50625000D01*
X26431049Y-55402801D01*
X26457545Y-55442455D01*
X26497199Y-55468951D01*
X26497201Y-55468953D01*
X26539481Y-55497203D01*
X26614665Y-55547439D01*
X26753221Y-55575000D01*
X26753225Y-55575000D01*
X26799999Y-55584304D01*
X26846773Y-55575000D01*
X27675000Y-55575000D01*
X27675000Y-55925000D01*
X24296751Y-55925000D01*
X21125000Y-52753250D01*
X21125000Y-52675680D01*
X21029849Y-52445966D01*
X20975000Y-52391117D01*
X20975000Y-49575000D01*
X21241117Y-49575000D01*
X21170151Y-49645966D01*
G36*
X22775000Y-43446751D02*
X22775000Y-43524320D01*
X22870151Y-43754034D01*
X23045966Y-43929849D01*
X23275680Y-44025000D01*
X23524320Y-44025000D01*
X23754034Y-43929849D01*
X23808883Y-43875000D01*
X27675000Y-43875000D01*
X27675000Y-51425000D01*
X25796751Y-51425000D01*
X25125000Y-50753250D01*
X25125000Y-50675680D01*
X25029849Y-50445966D01*
X24854034Y-50270151D01*
X24624320Y-50175000D01*
X24375680Y-50175000D01*
X24145966Y-50270151D01*
X23970151Y-50445966D01*
X23896214Y-50624464D01*
X23125000Y-49853250D01*
X23125000Y-49775680D01*
X23061501Y-49622382D01*
X23229849Y-49454034D01*
X23325000Y-49224320D01*
X23325000Y-48975680D01*
X23229849Y-48745966D01*
X23054034Y-48570151D01*
X22824320Y-48475000D01*
X22575680Y-48475000D01*
X22345966Y-48570151D01*
X22291117Y-48625000D01*
X20975000Y-48625000D01*
X20975000Y-46796750D01*
X22302802Y-45468950D01*
X22342455Y-45442455D01*
X22368951Y-45402801D01*
X22368953Y-45402799D01*
X22431668Y-45308938D01*
X22447439Y-45285335D01*
X22475000Y-45146779D01*
X22475000Y-45146775D01*
X22484304Y-45100001D01*
X22475000Y-45053227D01*
X22475000Y-43708883D01*
X22529849Y-43654034D01*
X22625000Y-43424320D01*
X22625000Y-43296751D01*
X22775000Y-43446751D01*
X22775000Y-43446751D01*
G37*
X22775000Y-43446751D02*
X22775000Y-43524320D01*
X22870151Y-43754034D01*
X23045966Y-43929849D01*
X23275680Y-44025000D01*
X23524320Y-44025000D01*
X23754034Y-43929849D01*
X23808883Y-43875000D01*
X27675000Y-43875000D01*
X27675000Y-51425000D01*
X25796751Y-51425000D01*
X25125000Y-50753250D01*
X25125000Y-50675680D01*
X25029849Y-50445966D01*
X24854034Y-50270151D01*
X24624320Y-50175000D01*
X24375680Y-50175000D01*
X24145966Y-50270151D01*
X23970151Y-50445966D01*
X23896214Y-50624464D01*
X23125000Y-49853250D01*
X23125000Y-49775680D01*
X23061501Y-49622382D01*
X23229849Y-49454034D01*
X23325000Y-49224320D01*
X23325000Y-48975680D01*
X23229849Y-48745966D01*
X23054034Y-48570151D01*
X22824320Y-48475000D01*
X22575680Y-48475000D01*
X22345966Y-48570151D01*
X22291117Y-48625000D01*
X20975000Y-48625000D01*
X20975000Y-46796750D01*
X22302802Y-45468950D01*
X22342455Y-45442455D01*
X22368951Y-45402801D01*
X22368953Y-45402799D01*
X22431668Y-45308938D01*
X22447439Y-45285335D01*
X22475000Y-45146779D01*
X22475000Y-45146775D01*
X22484304Y-45100001D01*
X22475000Y-45053227D01*
X22475000Y-43708883D01*
X22529849Y-43654034D01*
X22625000Y-43424320D01*
X22625000Y-43296751D01*
X22775000Y-43446751D01*
G04 #@! TO.N,GND*
G36*
X41175000Y-52952250D02*
X41243750Y-53021000D01*
X41731836Y-53021000D01*
X41775628Y-53050261D01*
X41900000Y-53075000D01*
X42500000Y-53075000D01*
X42624372Y-53050261D01*
X42668164Y-53021000D01*
X43156250Y-53021000D01*
X43225000Y-52952250D01*
X43225000Y-52625000D01*
X47825001Y-52625000D01*
X47825000Y-57271117D01*
X47770151Y-57325966D01*
X47675000Y-57555680D01*
X47675000Y-57804320D01*
X47770151Y-58034034D01*
X47945966Y-58209849D01*
X48175680Y-58305000D01*
X48424320Y-58305000D01*
X48654034Y-58209849D01*
X48829849Y-58034034D01*
X48925000Y-57804320D01*
X48925000Y-57555680D01*
X48829849Y-57325966D01*
X48775000Y-57271117D01*
X48775000Y-52625000D01*
X49600000Y-52625000D01*
X49600000Y-62175000D01*
X40525000Y-62175000D01*
X40525000Y-61847750D01*
X40456250Y-61779000D01*
X39968164Y-61779000D01*
X39924372Y-61749739D01*
X39800000Y-61725000D01*
X39200000Y-61725000D01*
X39075628Y-61749739D01*
X39031836Y-61779000D01*
X38543750Y-61779000D01*
X38475000Y-61847750D01*
X38475000Y-62175000D01*
X36825000Y-62175000D01*
X36825000Y-61095299D01*
X38475000Y-61095299D01*
X38475000Y-61452250D01*
X38543750Y-61521000D01*
X39371000Y-61521000D01*
X39371000Y-60943750D01*
X39629000Y-60943750D01*
X39629000Y-61521000D01*
X40456250Y-61521000D01*
X40525000Y-61452250D01*
X40525000Y-61095299D01*
X40483134Y-60994225D01*
X40405775Y-60916866D01*
X40304701Y-60875000D01*
X39697750Y-60875000D01*
X39629000Y-60943750D01*
X39371000Y-60943750D01*
X39302250Y-60875000D01*
X38695299Y-60875000D01*
X38594225Y-60916866D01*
X38516866Y-60994225D01*
X38475000Y-61095299D01*
X36825000Y-61095299D01*
X36825000Y-60186169D01*
X47225000Y-60186169D01*
X47225000Y-60613831D01*
X47388659Y-61008938D01*
X47687565Y-61307844D01*
X47675000Y-61338180D01*
X47675000Y-61586820D01*
X47770151Y-61816534D01*
X47945966Y-61992349D01*
X48175680Y-62087500D01*
X48424320Y-62087500D01*
X48654034Y-61992349D01*
X48829849Y-61816534D01*
X48925000Y-61586820D01*
X48925000Y-61338180D01*
X48912435Y-61307844D01*
X49211341Y-61008938D01*
X49375000Y-60613831D01*
X49375000Y-60186169D01*
X49211341Y-59791062D01*
X48908938Y-59488659D01*
X48513831Y-59325000D01*
X48086169Y-59325000D01*
X47691062Y-59488659D01*
X47388659Y-59791062D01*
X47225000Y-60186169D01*
X36825000Y-60186169D01*
X36825000Y-54222487D01*
X37202799Y-53844688D01*
X37242455Y-53818191D01*
X37268953Y-53778534D01*
X37347439Y-53661072D01*
X37353129Y-53632464D01*
X37375000Y-53522515D01*
X37375000Y-53522511D01*
X37384304Y-53475736D01*
X37375000Y-53428961D01*
X37375000Y-53347750D01*
X41175000Y-53347750D01*
X41175000Y-53704701D01*
X41216866Y-53805775D01*
X41294225Y-53883134D01*
X41395299Y-53925000D01*
X42002250Y-53925000D01*
X42071000Y-53856250D01*
X42071000Y-53279000D01*
X42329000Y-53279000D01*
X42329000Y-53856250D01*
X42397750Y-53925000D01*
X43004701Y-53925000D01*
X43105775Y-53883134D01*
X43183134Y-53805775D01*
X43225000Y-53704701D01*
X43225000Y-53347750D01*
X43156250Y-53279000D01*
X42329000Y-53279000D01*
X42071000Y-53279000D01*
X41243750Y-53279000D01*
X41175000Y-53347750D01*
X37375000Y-53347750D01*
X37375000Y-52625000D01*
X41175000Y-52625000D01*
X41175000Y-52952250D01*
X41175000Y-52952250D01*
G37*
X41175000Y-52952250D02*
X41243750Y-53021000D01*
X41731836Y-53021000D01*
X41775628Y-53050261D01*
X41900000Y-53075000D01*
X42500000Y-53075000D01*
X42624372Y-53050261D01*
X42668164Y-53021000D01*
X43156250Y-53021000D01*
X43225000Y-52952250D01*
X43225000Y-52625000D01*
X47825001Y-52625000D01*
X47825000Y-57271117D01*
X47770151Y-57325966D01*
X47675000Y-57555680D01*
X47675000Y-57804320D01*
X47770151Y-58034034D01*
X47945966Y-58209849D01*
X48175680Y-58305000D01*
X48424320Y-58305000D01*
X48654034Y-58209849D01*
X48829849Y-58034034D01*
X48925000Y-57804320D01*
X48925000Y-57555680D01*
X48829849Y-57325966D01*
X48775000Y-57271117D01*
X48775000Y-52625000D01*
X49600000Y-52625000D01*
X49600000Y-62175000D01*
X40525000Y-62175000D01*
X40525000Y-61847750D01*
X40456250Y-61779000D01*
X39968164Y-61779000D01*
X39924372Y-61749739D01*
X39800000Y-61725000D01*
X39200000Y-61725000D01*
X39075628Y-61749739D01*
X39031836Y-61779000D01*
X38543750Y-61779000D01*
X38475000Y-61847750D01*
X38475000Y-62175000D01*
X36825000Y-62175000D01*
X36825000Y-61095299D01*
X38475000Y-61095299D01*
X38475000Y-61452250D01*
X38543750Y-61521000D01*
X39371000Y-61521000D01*
X39371000Y-60943750D01*
X39629000Y-60943750D01*
X39629000Y-61521000D01*
X40456250Y-61521000D01*
X40525000Y-61452250D01*
X40525000Y-61095299D01*
X40483134Y-60994225D01*
X40405775Y-60916866D01*
X40304701Y-60875000D01*
X39697750Y-60875000D01*
X39629000Y-60943750D01*
X39371000Y-60943750D01*
X39302250Y-60875000D01*
X38695299Y-60875000D01*
X38594225Y-60916866D01*
X38516866Y-60994225D01*
X38475000Y-61095299D01*
X36825000Y-61095299D01*
X36825000Y-60186169D01*
X47225000Y-60186169D01*
X47225000Y-60613831D01*
X47388659Y-61008938D01*
X47687565Y-61307844D01*
X47675000Y-61338180D01*
X47675000Y-61586820D01*
X47770151Y-61816534D01*
X47945966Y-61992349D01*
X48175680Y-62087500D01*
X48424320Y-62087500D01*
X48654034Y-61992349D01*
X48829849Y-61816534D01*
X48925000Y-61586820D01*
X48925000Y-61338180D01*
X48912435Y-61307844D01*
X49211341Y-61008938D01*
X49375000Y-60613831D01*
X49375000Y-60186169D01*
X49211341Y-59791062D01*
X48908938Y-59488659D01*
X48513831Y-59325000D01*
X48086169Y-59325000D01*
X47691062Y-59488659D01*
X47388659Y-59791062D01*
X47225000Y-60186169D01*
X36825000Y-60186169D01*
X36825000Y-54222487D01*
X37202799Y-53844688D01*
X37242455Y-53818191D01*
X37268953Y-53778534D01*
X37347439Y-53661072D01*
X37353129Y-53632464D01*
X37375000Y-53522515D01*
X37375000Y-53522511D01*
X37384304Y-53475736D01*
X37375000Y-53428961D01*
X37375000Y-53347750D01*
X41175000Y-53347750D01*
X41175000Y-53704701D01*
X41216866Y-53805775D01*
X41294225Y-53883134D01*
X41395299Y-53925000D01*
X42002250Y-53925000D01*
X42071000Y-53856250D01*
X42071000Y-53279000D01*
X42329000Y-53279000D01*
X42329000Y-53856250D01*
X42397750Y-53925000D01*
X43004701Y-53925000D01*
X43105775Y-53883134D01*
X43183134Y-53805775D01*
X43225000Y-53704701D01*
X43225000Y-53347750D01*
X43156250Y-53279000D01*
X42329000Y-53279000D01*
X42071000Y-53279000D01*
X41243750Y-53279000D01*
X41175000Y-53347750D01*
X37375000Y-53347750D01*
X37375000Y-52625000D01*
X41175000Y-52625000D01*
X41175000Y-52952250D01*
G04 #@! TD*
M02*
