G04 #@! TF.GenerationSoftware,KiCad,Pcbnew,5.1.5+dfsg1-2build2*
G04 #@! TF.CreationDate,2021-03-01T21:19:45+01:00*
G04 #@! TF.ProjectId,time2time,74696d65-3274-4696-9d65-2e6b69636164,V1.0*
G04 #@! TF.SameCoordinates,PX7735940PY3473bc0*
G04 #@! TF.FileFunction,Soldermask,Bot*
G04 #@! TF.FilePolarity,Negative*
%FSLAX46Y46*%
G04 Gerber Fmt 4.6, Leading zero omitted, Abs format (unit mm)*
G04 Created by KiCad (PCBNEW 5.1.5+dfsg1-2build2) date 2021-03-01 21:19:45*
%MOMM*%
%LPD*%
G04 APERTURE LIST*
%ADD10C,0.150000*%
%ADD11C,0.100000*%
G04 APERTURE END LIST*
D10*
X50000000Y-68000000D02*
G75*
G02X48000000Y-70000000I-2000000J0D01*
G01*
X2000000Y-70000000D02*
G75*
G02X0Y-68000000I0J2000000D01*
G01*
X0Y-22000000D02*
G75*
G02X2000000Y-20000000I2000000J0D01*
G01*
X9500000Y-18000000D02*
G75*
G02X7500000Y-20000000I-2000000J0D01*
G01*
X42500000Y-20000000D02*
G75*
G02X40500000Y-18000000I0J2000000D01*
G01*
X48000000Y-20000000D02*
G75*
G02X50000000Y-22000000I0J-2000000D01*
G01*
X37700000Y0D02*
G75*
G02X40500000Y-2800000I0J-2800000D01*
G01*
X9500000Y-2800000D02*
G75*
G02X12300000Y0I2800000J0D01*
G01*
X42500000Y-20000000D02*
X48000000Y-20000000D01*
X9500000Y-2800000D02*
X9500000Y-18000000D01*
X37700000Y0D02*
X12300000Y0D01*
X40500000Y-18000000D02*
X40500000Y-2800000D01*
X36600000Y-23000000D02*
G75*
G03X36600000Y-23000000I-1100000J0D01*
G01*
X15600000Y-23000000D02*
G75*
G03X15600000Y-23000000I-1100000J0D01*
G01*
X39300000Y-3000000D02*
G75*
G03X39300000Y-3000000I-1600000J0D01*
G01*
X13900000Y-3000000D02*
G75*
G03X13900000Y-3000000I-1600000J0D01*
G01*
X0Y-22000000D02*
X0Y-68000000D01*
X7500000Y-20000000D02*
X2000000Y-20000000D01*
X50000000Y-68000000D02*
X50000000Y-22000000D01*
X2000000Y-70000000D02*
X48000000Y-70000000D01*
D11*
G36*
X34227618Y-67545920D02*
G01*
X34294610Y-67566242D01*
X34350336Y-67583146D01*
X34463425Y-67643594D01*
X34562554Y-67724946D01*
X34643906Y-67824075D01*
X34704354Y-67937164D01*
X34707710Y-67948228D01*
X34741580Y-68059882D01*
X34751000Y-68155527D01*
X34751000Y-68919473D01*
X34741580Y-69015118D01*
X34714040Y-69105904D01*
X34704354Y-69137836D01*
X34643906Y-69250925D01*
X34562554Y-69350053D01*
X34463424Y-69431406D01*
X34350335Y-69491854D01*
X34318403Y-69501540D01*
X34227617Y-69529080D01*
X34100000Y-69541649D01*
X33972382Y-69529080D01*
X33881596Y-69501540D01*
X33849664Y-69491854D01*
X33736575Y-69431406D01*
X33637447Y-69350054D01*
X33556094Y-69250924D01*
X33495646Y-69137835D01*
X33474407Y-69067818D01*
X33458420Y-69015117D01*
X33449000Y-68919472D01*
X33449000Y-68155527D01*
X33458420Y-68059882D01*
X33495645Y-67937168D01*
X33520608Y-67890466D01*
X33556095Y-67824075D01*
X33637447Y-67724946D01*
X33736576Y-67643594D01*
X33849665Y-67583146D01*
X33905391Y-67566242D01*
X33972383Y-67545920D01*
X34100000Y-67533351D01*
X34227618Y-67545920D01*
G37*
G36*
X41227617Y-67545920D02*
G01*
X41294609Y-67566242D01*
X41350335Y-67583146D01*
X41463424Y-67643594D01*
X41562554Y-67724947D01*
X41643906Y-67824075D01*
X41704354Y-67937164D01*
X41707710Y-67948228D01*
X41741580Y-68059882D01*
X41751000Y-68155527D01*
X41751000Y-68919473D01*
X41741580Y-69015118D01*
X41714040Y-69105904D01*
X41704354Y-69137836D01*
X41643906Y-69250925D01*
X41562554Y-69350054D01*
X41463425Y-69431406D01*
X41350336Y-69491854D01*
X41318404Y-69501540D01*
X41227618Y-69529080D01*
X41100000Y-69541649D01*
X40972383Y-69529080D01*
X40881597Y-69501540D01*
X40849665Y-69491854D01*
X40736576Y-69431406D01*
X40637447Y-69350054D01*
X40556095Y-69250925D01*
X40495648Y-69137837D01*
X40495645Y-69137832D01*
X40458420Y-69015118D01*
X40449000Y-68919473D01*
X40449000Y-68155528D01*
X40458420Y-68059883D01*
X40495645Y-67937169D01*
X40495646Y-67937165D01*
X40556094Y-67824076D01*
X40637447Y-67724946D01*
X40736575Y-67643594D01*
X40849664Y-67583146D01*
X40905390Y-67566242D01*
X40972382Y-67545920D01*
X41100000Y-67533351D01*
X41227617Y-67545920D01*
G37*
G36*
X21125635Y-65815654D02*
G01*
X21342600Y-65881470D01*
X21342602Y-65881471D01*
X21542555Y-65988347D01*
X21717818Y-66132182D01*
X21861653Y-66307445D01*
X21960848Y-66493028D01*
X21968530Y-66507400D01*
X21991669Y-66583679D01*
X22034986Y-66726475D01*
X22038908Y-66746196D01*
X22048284Y-66768835D01*
X22061897Y-66789210D01*
X22079223Y-66806538D01*
X22099597Y-66820153D01*
X22122236Y-66829531D01*
X22146269Y-66834313D01*
X22170773Y-66834314D01*
X22194806Y-66829534D01*
X22217445Y-66820158D01*
X22237820Y-66806545D01*
X22255148Y-66789219D01*
X22268765Y-66768841D01*
X22330772Y-66652835D01*
X22430868Y-66530867D01*
X22552836Y-66430771D01*
X22691988Y-66356392D01*
X22742319Y-66341125D01*
X22842978Y-66310590D01*
X23000000Y-66295125D01*
X23157023Y-66310590D01*
X23257682Y-66341125D01*
X23308013Y-66356392D01*
X23447165Y-66430771D01*
X23569133Y-66530867D01*
X23669229Y-66652835D01*
X23743608Y-66791987D01*
X23756447Y-66834313D01*
X23789410Y-66942977D01*
X23801000Y-67060655D01*
X23801000Y-68139345D01*
X23789410Y-68257023D01*
X23758875Y-68357682D01*
X23743608Y-68408013D01*
X23718948Y-68454148D01*
X23669229Y-68547165D01*
X23569133Y-68669133D01*
X23472798Y-68748192D01*
X23447164Y-68769229D01*
X23308012Y-68843608D01*
X23257681Y-68858875D01*
X23157022Y-68889410D01*
X23000000Y-68904875D01*
X22842977Y-68889410D01*
X22742318Y-68858875D01*
X22691987Y-68843608D01*
X22552835Y-68769229D01*
X22497916Y-68724158D01*
X22430867Y-68669133D01*
X22330771Y-68547164D01*
X22292537Y-68475633D01*
X22268765Y-68431160D01*
X22255151Y-68410786D01*
X22237824Y-68393459D01*
X22217450Y-68379845D01*
X22194811Y-68370468D01*
X22170777Y-68365688D01*
X22146273Y-68365688D01*
X22122240Y-68370469D01*
X22099601Y-68379846D01*
X22079227Y-68393460D01*
X22061900Y-68410787D01*
X22048286Y-68431161D01*
X22038909Y-68453800D01*
X22034988Y-68473517D01*
X22034346Y-68475633D01*
X22034346Y-68475635D01*
X21968530Y-68692599D01*
X21968529Y-68692602D01*
X21861653Y-68892555D01*
X21782652Y-68988817D01*
X21717818Y-69067818D01*
X21569204Y-69189781D01*
X21542553Y-69211653D01*
X21342601Y-69318529D01*
X21342599Y-69318530D01*
X21125634Y-69384346D01*
X20900000Y-69406569D01*
X20674365Y-69384346D01*
X20457400Y-69318530D01*
X20457398Y-69318529D01*
X20257445Y-69211653D01*
X20161183Y-69132652D01*
X20082182Y-69067818D01*
X19938348Y-68892554D01*
X19912186Y-68843608D01*
X19831471Y-68692601D01*
X19827996Y-68681145D01*
X19765654Y-68475634D01*
X19757561Y-68393460D01*
X19749000Y-68306544D01*
X19749000Y-66893455D01*
X19765654Y-66724366D01*
X19808331Y-66583679D01*
X19831470Y-66507400D01*
X19839152Y-66493028D01*
X19938348Y-66307446D01*
X20082183Y-66132182D01*
X20257446Y-65988347D01*
X20457399Y-65881471D01*
X20457401Y-65881470D01*
X20674366Y-65815654D01*
X20900000Y-65793431D01*
X21125635Y-65815654D01*
G37*
G36*
X29325635Y-65815654D02*
G01*
X29542600Y-65881470D01*
X29542602Y-65881471D01*
X29742555Y-65988347D01*
X29917818Y-66132182D01*
X30061653Y-66307445D01*
X30160848Y-66493028D01*
X30168530Y-66507400D01*
X30191669Y-66583679D01*
X30234346Y-66724366D01*
X30251000Y-66893455D01*
X30251000Y-68306545D01*
X30241006Y-68408011D01*
X30234346Y-68475635D01*
X30172005Y-68681146D01*
X30168529Y-68692602D01*
X30061653Y-68892555D01*
X29982652Y-68988817D01*
X29917818Y-69067818D01*
X29769204Y-69189781D01*
X29742553Y-69211653D01*
X29542601Y-69318529D01*
X29542599Y-69318530D01*
X29325634Y-69384346D01*
X29100000Y-69406569D01*
X28874365Y-69384346D01*
X28657400Y-69318530D01*
X28657398Y-69318529D01*
X28457445Y-69211653D01*
X28361183Y-69132652D01*
X28282182Y-69067818D01*
X28138348Y-68892554D01*
X28112186Y-68843608D01*
X28036238Y-68701520D01*
X28022625Y-68681146D01*
X28005298Y-68663819D01*
X27984923Y-68650205D01*
X27962285Y-68640827D01*
X27938251Y-68636047D01*
X27913747Y-68636047D01*
X27889714Y-68640827D01*
X27867075Y-68650205D01*
X27846701Y-68663818D01*
X27829374Y-68681145D01*
X27815760Y-68701520D01*
X27806382Y-68724158D01*
X27801602Y-68748192D01*
X27801000Y-68760444D01*
X27801000Y-68901000D01*
X26199000Y-68901000D01*
X26199000Y-66299000D01*
X27801000Y-66299000D01*
X27801000Y-66439555D01*
X27803402Y-66463941D01*
X27810515Y-66487390D01*
X27822066Y-66509001D01*
X27837611Y-66527943D01*
X27856553Y-66543488D01*
X27878164Y-66555039D01*
X27901613Y-66562152D01*
X27925999Y-66564554D01*
X27950385Y-66562152D01*
X27973834Y-66555039D01*
X27995445Y-66543488D01*
X28014387Y-66527943D01*
X28036238Y-66498479D01*
X28138348Y-66307446D01*
X28282183Y-66132182D01*
X28457446Y-65988347D01*
X28657399Y-65881471D01*
X28657401Y-65881470D01*
X28874366Y-65815654D01*
X29100000Y-65793431D01*
X29325635Y-65815654D01*
G37*
G36*
X25157023Y-66310590D02*
G01*
X25257682Y-66341125D01*
X25308013Y-66356392D01*
X25447165Y-66430771D01*
X25569133Y-66530867D01*
X25669229Y-66652835D01*
X25743608Y-66791987D01*
X25756447Y-66834313D01*
X25789410Y-66942977D01*
X25801000Y-67060655D01*
X25801000Y-68139345D01*
X25789410Y-68257023D01*
X25758875Y-68357682D01*
X25743608Y-68408013D01*
X25718948Y-68454148D01*
X25669229Y-68547165D01*
X25569133Y-68669133D01*
X25472798Y-68748192D01*
X25447164Y-68769229D01*
X25308012Y-68843608D01*
X25257681Y-68858875D01*
X25157022Y-68889410D01*
X25000000Y-68904875D01*
X24842977Y-68889410D01*
X24742318Y-68858875D01*
X24691987Y-68843608D01*
X24552835Y-68769229D01*
X24497916Y-68724158D01*
X24430867Y-68669133D01*
X24330771Y-68547164D01*
X24292537Y-68475633D01*
X24256392Y-68408012D01*
X24225613Y-68306545D01*
X24210590Y-68257022D01*
X24199000Y-68139344D01*
X24199001Y-67060655D01*
X24210591Y-66942977D01*
X24243554Y-66834313D01*
X24256393Y-66791987D01*
X24330772Y-66652835D01*
X24430868Y-66530867D01*
X24552836Y-66430771D01*
X24691988Y-66356392D01*
X24742319Y-66341125D01*
X24842978Y-66310590D01*
X25000000Y-66295125D01*
X25157023Y-66310590D01*
G37*
G36*
X46148228Y-66881703D02*
G01*
X46303100Y-66945853D01*
X46442481Y-67038985D01*
X46561015Y-67157519D01*
X46654147Y-67296900D01*
X46718297Y-67451772D01*
X46751000Y-67616184D01*
X46751000Y-67783816D01*
X46718297Y-67948228D01*
X46654147Y-68103100D01*
X46561015Y-68242481D01*
X46442481Y-68361015D01*
X46303100Y-68454147D01*
X46148228Y-68518297D01*
X45983816Y-68551000D01*
X45816184Y-68551000D01*
X45651772Y-68518297D01*
X45496900Y-68454147D01*
X45357519Y-68361015D01*
X45238985Y-68242481D01*
X45145853Y-68103100D01*
X45081703Y-67948228D01*
X45049000Y-67783816D01*
X45049000Y-67616184D01*
X45081703Y-67451772D01*
X45145853Y-67296900D01*
X45238985Y-67157519D01*
X45357519Y-67038985D01*
X45496900Y-66945853D01*
X45651772Y-66881703D01*
X45816184Y-66849000D01*
X45983816Y-66849000D01*
X46148228Y-66881703D01*
G37*
G36*
X5527617Y-65883420D02*
G01*
X5608399Y-65907925D01*
X5650335Y-65920646D01*
X5763424Y-65981094D01*
X5862554Y-66062447D01*
X5943906Y-66161575D01*
X6004354Y-66274664D01*
X6010561Y-66295125D01*
X6041580Y-66397382D01*
X6051000Y-66493027D01*
X6051000Y-67106973D01*
X6041580Y-67202618D01*
X6014040Y-67293404D01*
X6004354Y-67325336D01*
X5943906Y-67438425D01*
X5862554Y-67537554D01*
X5763425Y-67618906D01*
X5650336Y-67679354D01*
X5618404Y-67689040D01*
X5527618Y-67716580D01*
X5400000Y-67729149D01*
X5272383Y-67716580D01*
X5181597Y-67689040D01*
X5149665Y-67679354D01*
X5036576Y-67618906D01*
X4937447Y-67537554D01*
X4856096Y-67438427D01*
X4856095Y-67438425D01*
X4795647Y-67325336D01*
X4795645Y-67325333D01*
X4783237Y-67284427D01*
X4758420Y-67202618D01*
X4749000Y-67106973D01*
X4749000Y-66493028D01*
X4758420Y-66397383D01*
X4795645Y-66274669D01*
X4795646Y-66274665D01*
X4856094Y-66161576D01*
X4937447Y-66062446D01*
X5036575Y-65981094D01*
X5149664Y-65920646D01*
X5191600Y-65907925D01*
X5272382Y-65883420D01*
X5400000Y-65870851D01*
X5527617Y-65883420D01*
G37*
G36*
X3891242Y-65878404D02*
G01*
X3928337Y-65889657D01*
X3962515Y-65907925D01*
X3992481Y-65932519D01*
X4017075Y-65962485D01*
X4035343Y-65996663D01*
X4046596Y-66033758D01*
X4051000Y-66078474D01*
X4051000Y-67521526D01*
X4046596Y-67566242D01*
X4035343Y-67603337D01*
X4017075Y-67637515D01*
X3992481Y-67667481D01*
X3962515Y-67692075D01*
X3928337Y-67710343D01*
X3891242Y-67721596D01*
X3846526Y-67726000D01*
X2953474Y-67726000D01*
X2908758Y-67721596D01*
X2871663Y-67710343D01*
X2837485Y-67692075D01*
X2807519Y-67667481D01*
X2782925Y-67637515D01*
X2764657Y-67603337D01*
X2753404Y-67566242D01*
X2749000Y-67521526D01*
X2749000Y-66078474D01*
X2753404Y-66033758D01*
X2764657Y-65996663D01*
X2782925Y-65962485D01*
X2807519Y-65932519D01*
X2837485Y-65907925D01*
X2871663Y-65889657D01*
X2908758Y-65878404D01*
X2953474Y-65874000D01*
X3846526Y-65874000D01*
X3891242Y-65878404D01*
G37*
G36*
X40326348Y-65091320D02*
G01*
X40326350Y-65091321D01*
X40326351Y-65091321D01*
X40467574Y-65149817D01*
X40467577Y-65149819D01*
X40594669Y-65234739D01*
X40702761Y-65342831D01*
X40787681Y-65469923D01*
X40787683Y-65469926D01*
X40846179Y-65611149D01*
X40846180Y-65611152D01*
X40876000Y-65761069D01*
X40876000Y-65913931D01*
X40846459Y-66062447D01*
X40846179Y-66063851D01*
X40787683Y-66205074D01*
X40787681Y-66205077D01*
X40702761Y-66332169D01*
X40594669Y-66440261D01*
X40559229Y-66463941D01*
X40467574Y-66525183D01*
X40326351Y-66583679D01*
X40326350Y-66583679D01*
X40326348Y-66583680D01*
X40176431Y-66613500D01*
X40023569Y-66613500D01*
X39873652Y-66583680D01*
X39873650Y-66583679D01*
X39873649Y-66583679D01*
X39732426Y-66525183D01*
X39640771Y-66463941D01*
X39605331Y-66440261D01*
X39497239Y-66332169D01*
X39412319Y-66205077D01*
X39412317Y-66205074D01*
X39353821Y-66063851D01*
X39353542Y-66062447D01*
X39324000Y-65913931D01*
X39324000Y-65761069D01*
X39353820Y-65611152D01*
X39353821Y-65611149D01*
X39412317Y-65469926D01*
X39412319Y-65469923D01*
X39497239Y-65342831D01*
X39605331Y-65234739D01*
X39732423Y-65149819D01*
X39732426Y-65149817D01*
X39873649Y-65091321D01*
X39873650Y-65091321D01*
X39873652Y-65091320D01*
X40023569Y-65061500D01*
X40176431Y-65061500D01*
X40326348Y-65091320D01*
G37*
G36*
X35326348Y-65091320D02*
G01*
X35326350Y-65091321D01*
X35326351Y-65091321D01*
X35467574Y-65149817D01*
X35467577Y-65149819D01*
X35594669Y-65234739D01*
X35702761Y-65342831D01*
X35787681Y-65469923D01*
X35787683Y-65469926D01*
X35846179Y-65611149D01*
X35846180Y-65611152D01*
X35876000Y-65761069D01*
X35876000Y-65913931D01*
X35846459Y-66062447D01*
X35846179Y-66063851D01*
X35787683Y-66205074D01*
X35787681Y-66205077D01*
X35702761Y-66332169D01*
X35594669Y-66440261D01*
X35559229Y-66463941D01*
X35467574Y-66525183D01*
X35326351Y-66583679D01*
X35326350Y-66583679D01*
X35326348Y-66583680D01*
X35176431Y-66613500D01*
X35023569Y-66613500D01*
X34873652Y-66583680D01*
X34873650Y-66583679D01*
X34873649Y-66583679D01*
X34732426Y-66525183D01*
X34640771Y-66463941D01*
X34605331Y-66440261D01*
X34497239Y-66332169D01*
X34412319Y-66205077D01*
X34412317Y-66205074D01*
X34353821Y-66063851D01*
X34353542Y-66062447D01*
X34324000Y-65913931D01*
X34324000Y-65761069D01*
X34353820Y-65611152D01*
X34353821Y-65611149D01*
X34412317Y-65469926D01*
X34412319Y-65469923D01*
X34497239Y-65342831D01*
X34605331Y-65234739D01*
X34732423Y-65149819D01*
X34732426Y-65149817D01*
X34873649Y-65091321D01*
X34873650Y-65091321D01*
X34873652Y-65091320D01*
X35023569Y-65061500D01*
X35176431Y-65061500D01*
X35326348Y-65091320D01*
G37*
G36*
X46751000Y-66051000D02*
G01*
X45049000Y-66051000D01*
X45049000Y-64349000D01*
X46751000Y-64349000D01*
X46751000Y-66051000D01*
G37*
G36*
X29233642Y-62329781D02*
G01*
X29379414Y-62390162D01*
X29379416Y-62390163D01*
X29510608Y-62477822D01*
X29622178Y-62589392D01*
X29709837Y-62720584D01*
X29709838Y-62720586D01*
X29770219Y-62866358D01*
X29801000Y-63021107D01*
X29801000Y-63178893D01*
X29770219Y-63333642D01*
X29709838Y-63479414D01*
X29709837Y-63479416D01*
X29622178Y-63610608D01*
X29510608Y-63722178D01*
X29379416Y-63809837D01*
X29379415Y-63809838D01*
X29379414Y-63809838D01*
X29233642Y-63870219D01*
X29078893Y-63901000D01*
X28921107Y-63901000D01*
X28766358Y-63870219D01*
X28620586Y-63809838D01*
X28620585Y-63809838D01*
X28620584Y-63809837D01*
X28489392Y-63722178D01*
X28377822Y-63610608D01*
X28290163Y-63479416D01*
X28290162Y-63479414D01*
X28229781Y-63333642D01*
X28199000Y-63178893D01*
X28199000Y-63021107D01*
X28229781Y-62866358D01*
X28290162Y-62720586D01*
X28290163Y-62720584D01*
X28377822Y-62589392D01*
X28489392Y-62477822D01*
X28620584Y-62390163D01*
X28620586Y-62390162D01*
X28766358Y-62329781D01*
X28921107Y-62299000D01*
X29078893Y-62299000D01*
X29233642Y-62329781D01*
G37*
G36*
X40301000Y-63501000D02*
G01*
X38699000Y-63501000D01*
X38699000Y-61099000D01*
X40301000Y-61099000D01*
X40301000Y-63501000D01*
G37*
G36*
X32033642Y-61329781D02*
G01*
X32179414Y-61390162D01*
X32179416Y-61390163D01*
X32310608Y-61477822D01*
X32422178Y-61589392D01*
X32509837Y-61720584D01*
X32509838Y-61720586D01*
X32570219Y-61866358D01*
X32601000Y-62021107D01*
X32601000Y-62178893D01*
X32570219Y-62333642D01*
X32510497Y-62477822D01*
X32509837Y-62479416D01*
X32422178Y-62610608D01*
X32310608Y-62722178D01*
X32179416Y-62809837D01*
X32179415Y-62809838D01*
X32179414Y-62809838D01*
X32033642Y-62870219D01*
X31878893Y-62901000D01*
X31721107Y-62901000D01*
X31566358Y-62870219D01*
X31420586Y-62809838D01*
X31420585Y-62809838D01*
X31420584Y-62809837D01*
X31289392Y-62722178D01*
X31177822Y-62610608D01*
X31090163Y-62479416D01*
X31089503Y-62477822D01*
X31029781Y-62333642D01*
X30999000Y-62178893D01*
X30999000Y-62021107D01*
X31029781Y-61866358D01*
X31090162Y-61720586D01*
X31090163Y-61720584D01*
X31177822Y-61589392D01*
X31289392Y-61477822D01*
X31420584Y-61390163D01*
X31420586Y-61390162D01*
X31566358Y-61329781D01*
X31721107Y-61299000D01*
X31878893Y-61299000D01*
X32033642Y-61329781D01*
G37*
G36*
X34933642Y-60329781D02*
G01*
X35079414Y-60390162D01*
X35079416Y-60390163D01*
X35210608Y-60477822D01*
X35322178Y-60589392D01*
X35351745Y-60633643D01*
X35409838Y-60720586D01*
X35470219Y-60866358D01*
X35501000Y-61021107D01*
X35501000Y-61178893D01*
X35470219Y-61333642D01*
X35446807Y-61390163D01*
X35409837Y-61479416D01*
X35322178Y-61610608D01*
X35210608Y-61722178D01*
X35079416Y-61809837D01*
X35079415Y-61809838D01*
X35079414Y-61809838D01*
X34933642Y-61870219D01*
X34778893Y-61901000D01*
X34621107Y-61901000D01*
X34466358Y-61870219D01*
X34320586Y-61809838D01*
X34320585Y-61809838D01*
X34320584Y-61809837D01*
X34189392Y-61722178D01*
X34077822Y-61610608D01*
X33990163Y-61479416D01*
X33953193Y-61390163D01*
X33929781Y-61333642D01*
X33899000Y-61178893D01*
X33899000Y-61021107D01*
X33929781Y-60866358D01*
X33990162Y-60720586D01*
X34048255Y-60633643D01*
X34077822Y-60589392D01*
X34189392Y-60477822D01*
X34320584Y-60390163D01*
X34320586Y-60390162D01*
X34466358Y-60329781D01*
X34621107Y-60299000D01*
X34778893Y-60299000D01*
X34933642Y-60329781D01*
G37*
G36*
X48533642Y-59629781D02*
G01*
X48679414Y-59690162D01*
X48679416Y-59690163D01*
X48810608Y-59777822D01*
X48922178Y-59889392D01*
X48929934Y-59901000D01*
X49009838Y-60020586D01*
X49070219Y-60166358D01*
X49101000Y-60321107D01*
X49101000Y-60478893D01*
X49070219Y-60633642D01*
X49034206Y-60720584D01*
X49009837Y-60779416D01*
X48922178Y-60910608D01*
X48810608Y-61022178D01*
X48679416Y-61109837D01*
X48679415Y-61109838D01*
X48679414Y-61109838D01*
X48533642Y-61170219D01*
X48378893Y-61201000D01*
X48221107Y-61201000D01*
X48066358Y-61170219D01*
X47920586Y-61109838D01*
X47920585Y-61109838D01*
X47920584Y-61109837D01*
X47789392Y-61022178D01*
X47677822Y-60910608D01*
X47590163Y-60779416D01*
X47565794Y-60720584D01*
X47529781Y-60633642D01*
X47499000Y-60478893D01*
X47499000Y-60321107D01*
X47529781Y-60166358D01*
X47590162Y-60020586D01*
X47670066Y-59901000D01*
X47677822Y-59889392D01*
X47789392Y-59777822D01*
X47920584Y-59690163D01*
X47920586Y-59690162D01*
X48066358Y-59629781D01*
X48221107Y-59599000D01*
X48378893Y-59599000D01*
X48533642Y-59629781D01*
G37*
G36*
X32433642Y-58329781D02*
G01*
X32579414Y-58390162D01*
X32579416Y-58390163D01*
X32710608Y-58477822D01*
X32822178Y-58589392D01*
X32909837Y-58720584D01*
X32909838Y-58720586D01*
X32970219Y-58866358D01*
X33001000Y-59021107D01*
X33001000Y-59178893D01*
X32970219Y-59333642D01*
X32909838Y-59479414D01*
X32909837Y-59479416D01*
X32822178Y-59610608D01*
X32710608Y-59722178D01*
X32579416Y-59809837D01*
X32579415Y-59809838D01*
X32579414Y-59809838D01*
X32433642Y-59870219D01*
X32278893Y-59901000D01*
X32121107Y-59901000D01*
X31966358Y-59870219D01*
X31820586Y-59809838D01*
X31820585Y-59809838D01*
X31820584Y-59809837D01*
X31689392Y-59722178D01*
X31577822Y-59610608D01*
X31490163Y-59479416D01*
X31490162Y-59479414D01*
X31429781Y-59333642D01*
X31399000Y-59178893D01*
X31399000Y-59021107D01*
X31429781Y-58866358D01*
X31490162Y-58720586D01*
X31490163Y-58720584D01*
X31577822Y-58589392D01*
X31689392Y-58477822D01*
X31820584Y-58390163D01*
X31820586Y-58390162D01*
X31966358Y-58329781D01*
X32121107Y-58299000D01*
X32278893Y-58299000D01*
X32433642Y-58329781D01*
G37*
G36*
X35233642Y-57329781D02*
G01*
X35379414Y-57390162D01*
X35379416Y-57390163D01*
X35510608Y-57477822D01*
X35622178Y-57589392D01*
X35709837Y-57720584D01*
X35709838Y-57720586D01*
X35770219Y-57866358D01*
X35801000Y-58021107D01*
X35801000Y-58178893D01*
X35770219Y-58333642D01*
X35746807Y-58390163D01*
X35709837Y-58479416D01*
X35622178Y-58610608D01*
X35510608Y-58722178D01*
X35379416Y-58809837D01*
X35379415Y-58809838D01*
X35379414Y-58809838D01*
X35233642Y-58870219D01*
X35078893Y-58901000D01*
X34921107Y-58901000D01*
X34766358Y-58870219D01*
X34620586Y-58809838D01*
X34620585Y-58809838D01*
X34620584Y-58809837D01*
X34489392Y-58722178D01*
X34377822Y-58610608D01*
X34290163Y-58479416D01*
X34253193Y-58390163D01*
X34229781Y-58333642D01*
X34199000Y-58178893D01*
X34199000Y-58021107D01*
X34229781Y-57866358D01*
X34290162Y-57720586D01*
X34290163Y-57720584D01*
X34377822Y-57589392D01*
X34489392Y-57477822D01*
X34620584Y-57390163D01*
X34620586Y-57390162D01*
X34766358Y-57329781D01*
X34921107Y-57299000D01*
X35078893Y-57299000D01*
X35233642Y-57329781D01*
G37*
G36*
X43001000Y-53701000D02*
G01*
X41399000Y-53701000D01*
X41399000Y-51299000D01*
X43001000Y-51299000D01*
X43001000Y-53701000D01*
G37*
G36*
X15001000Y-46901000D02*
G01*
X13199000Y-46901000D01*
X13199000Y-45099000D01*
X15001000Y-45099000D01*
X15001000Y-46901000D01*
G37*
G36*
X20133642Y-43929781D02*
G01*
X20279414Y-43990162D01*
X20279416Y-43990163D01*
X20410608Y-44077822D01*
X20522178Y-44189392D01*
X20609837Y-44320584D01*
X20609838Y-44320586D01*
X20670219Y-44466358D01*
X20701000Y-44621107D01*
X20701000Y-44778893D01*
X20670219Y-44933642D01*
X20609838Y-45079414D01*
X20609837Y-45079416D01*
X20522178Y-45210608D01*
X20410608Y-45322178D01*
X20279416Y-45409837D01*
X20279415Y-45409838D01*
X20279414Y-45409838D01*
X20133642Y-45470219D01*
X19978893Y-45501000D01*
X19821107Y-45501000D01*
X19666358Y-45470219D01*
X19520586Y-45409838D01*
X19520585Y-45409838D01*
X19520584Y-45409837D01*
X19389392Y-45322178D01*
X19277822Y-45210608D01*
X19190163Y-45079416D01*
X19190162Y-45079414D01*
X19129781Y-44933642D01*
X19099000Y-44778893D01*
X19099000Y-44621107D01*
X19129781Y-44466358D01*
X19190162Y-44320586D01*
X19190163Y-44320584D01*
X19277822Y-44189392D01*
X19389392Y-44077822D01*
X19520584Y-43990163D01*
X19520586Y-43990162D01*
X19666358Y-43929781D01*
X19821107Y-43899000D01*
X19978893Y-43899000D01*
X20133642Y-43929781D01*
G37*
G36*
X14213512Y-42563927D02*
G01*
X14362812Y-42593624D01*
X14526784Y-42661544D01*
X14674354Y-42760147D01*
X14799853Y-42885646D01*
X14898456Y-43033216D01*
X14966376Y-43197188D01*
X15001000Y-43371259D01*
X15001000Y-43548741D01*
X14966376Y-43722812D01*
X14898456Y-43886784D01*
X14799853Y-44034354D01*
X14674354Y-44159853D01*
X14526784Y-44258456D01*
X14362812Y-44326376D01*
X14213512Y-44356073D01*
X14188742Y-44361000D01*
X14011258Y-44361000D01*
X13986488Y-44356073D01*
X13837188Y-44326376D01*
X13673216Y-44258456D01*
X13525646Y-44159853D01*
X13400147Y-44034354D01*
X13301544Y-43886784D01*
X13233624Y-43722812D01*
X13199000Y-43548741D01*
X13199000Y-43371259D01*
X13233624Y-43197188D01*
X13301544Y-43033216D01*
X13400147Y-42885646D01*
X13525646Y-42760147D01*
X13673216Y-42661544D01*
X13837188Y-42593624D01*
X13986488Y-42563927D01*
X14011258Y-42559000D01*
X14188742Y-42559000D01*
X14213512Y-42563927D01*
G37*
G36*
X47101000Y-41851000D02*
G01*
X45499000Y-41851000D01*
X45499000Y-38149000D01*
X47101000Y-38149000D01*
X47101000Y-41851000D01*
G37*
G36*
X42101000Y-41851000D02*
G01*
X40499000Y-41851000D01*
X40499000Y-38149000D01*
X42101000Y-38149000D01*
X42101000Y-41851000D01*
G37*
G36*
X44601000Y-41851000D02*
G01*
X42999000Y-41851000D01*
X42999000Y-38149000D01*
X44601000Y-38149000D01*
X44601000Y-41851000D01*
G37*
G36*
X23633642Y-30129781D02*
G01*
X23779414Y-30190162D01*
X23779416Y-30190163D01*
X23910608Y-30277822D01*
X24022178Y-30389392D01*
X24103171Y-30510608D01*
X24109838Y-30520586D01*
X24170219Y-30666358D01*
X24201000Y-30821107D01*
X24201000Y-30978893D01*
X24170219Y-31133642D01*
X24109838Y-31279414D01*
X24109837Y-31279416D01*
X24022178Y-31410608D01*
X23910608Y-31522178D01*
X23779416Y-31609837D01*
X23779415Y-31609838D01*
X23779414Y-31609838D01*
X23633642Y-31670219D01*
X23478893Y-31701000D01*
X23321107Y-31701000D01*
X23166358Y-31670219D01*
X23020586Y-31609838D01*
X23020585Y-31609838D01*
X23020584Y-31609837D01*
X22889392Y-31522178D01*
X22777822Y-31410608D01*
X22690163Y-31279416D01*
X22690162Y-31279414D01*
X22629781Y-31133642D01*
X22599000Y-30978893D01*
X22599000Y-30821107D01*
X22629781Y-30666358D01*
X22690162Y-30520586D01*
X22696829Y-30510608D01*
X22777822Y-30389392D01*
X22889392Y-30277822D01*
X23020584Y-30190163D01*
X23020586Y-30190162D01*
X23166358Y-30129781D01*
X23321107Y-30099000D01*
X23478893Y-30099000D01*
X23633642Y-30129781D01*
G37*
G36*
X42633642Y-29229781D02*
G01*
X42779414Y-29290162D01*
X42779416Y-29290163D01*
X42910608Y-29377822D01*
X43022178Y-29489392D01*
X43109837Y-29620584D01*
X43109838Y-29620586D01*
X43170219Y-29766358D01*
X43201000Y-29921107D01*
X43201000Y-30078893D01*
X43170219Y-30233642D01*
X43151919Y-30277822D01*
X43109837Y-30379416D01*
X43022178Y-30510608D01*
X42910608Y-30622178D01*
X42779416Y-30709837D01*
X42779415Y-30709838D01*
X42779414Y-30709838D01*
X42633642Y-30770219D01*
X42478893Y-30801000D01*
X42321107Y-30801000D01*
X42166358Y-30770219D01*
X42020586Y-30709838D01*
X42020585Y-30709838D01*
X42020584Y-30709837D01*
X41889392Y-30622178D01*
X41777822Y-30510608D01*
X41690163Y-30379416D01*
X41648081Y-30277822D01*
X41629781Y-30233642D01*
X41599000Y-30078893D01*
X41599000Y-29921107D01*
X41629781Y-29766358D01*
X41690162Y-29620586D01*
X41690163Y-29620584D01*
X41777822Y-29489392D01*
X41889392Y-29377822D01*
X42020584Y-29290163D01*
X42020586Y-29290162D01*
X42166358Y-29229781D01*
X42321107Y-29199000D01*
X42478893Y-29199000D01*
X42633642Y-29229781D01*
G37*
G36*
X7248228Y-27681703D02*
G01*
X7403100Y-27745853D01*
X7542481Y-27838985D01*
X7661015Y-27957519D01*
X7754147Y-28096900D01*
X7818297Y-28251772D01*
X7851000Y-28416184D01*
X7851000Y-28583816D01*
X7818297Y-28748228D01*
X7754147Y-28903100D01*
X7661015Y-29042481D01*
X7542481Y-29161015D01*
X7403100Y-29254147D01*
X7248228Y-29318297D01*
X7083816Y-29351000D01*
X6916184Y-29351000D01*
X6751772Y-29318297D01*
X6596900Y-29254147D01*
X6457519Y-29161015D01*
X6338985Y-29042481D01*
X6245853Y-28903100D01*
X6181703Y-28748228D01*
X6149000Y-28583816D01*
X6149000Y-28416184D01*
X6181703Y-28251772D01*
X6245853Y-28096900D01*
X6338985Y-27957519D01*
X6457519Y-27838985D01*
X6596900Y-27745853D01*
X6751772Y-27681703D01*
X6916184Y-27649000D01*
X7083816Y-27649000D01*
X7248228Y-27681703D01*
G37*
G36*
X3851000Y-29351000D02*
G01*
X2149000Y-29351000D01*
X2149000Y-27649000D01*
X3851000Y-27649000D01*
X3851000Y-29351000D01*
G37*
G36*
X45293512Y-23843927D02*
G01*
X45442812Y-23873624D01*
X45606784Y-23941544D01*
X45754354Y-24040147D01*
X45879853Y-24165646D01*
X45978456Y-24313216D01*
X46046376Y-24477188D01*
X46081000Y-24651259D01*
X46081000Y-24828741D01*
X46046376Y-25002812D01*
X45978456Y-25166784D01*
X45879853Y-25314354D01*
X45754354Y-25439853D01*
X45606784Y-25538456D01*
X45442812Y-25606376D01*
X45293512Y-25636073D01*
X45268742Y-25641000D01*
X45091258Y-25641000D01*
X45066488Y-25636073D01*
X44917188Y-25606376D01*
X44753216Y-25538456D01*
X44605646Y-25439853D01*
X44480147Y-25314354D01*
X44381544Y-25166784D01*
X44313624Y-25002812D01*
X44279000Y-24828741D01*
X44279000Y-24651259D01*
X44313624Y-24477188D01*
X44381544Y-24313216D01*
X44480147Y-24165646D01*
X44605646Y-24040147D01*
X44753216Y-23941544D01*
X44917188Y-23873624D01*
X45066488Y-23843927D01*
X45091258Y-23839000D01*
X45268742Y-23839000D01*
X45293512Y-23843927D01*
G37*
G36*
X47833512Y-23843927D02*
G01*
X47982812Y-23873624D01*
X48146784Y-23941544D01*
X48294354Y-24040147D01*
X48419853Y-24165646D01*
X48518456Y-24313216D01*
X48586376Y-24477188D01*
X48621000Y-24651259D01*
X48621000Y-24828741D01*
X48586376Y-25002812D01*
X48518456Y-25166784D01*
X48419853Y-25314354D01*
X48294354Y-25439853D01*
X48146784Y-25538456D01*
X47982812Y-25606376D01*
X47833512Y-25636073D01*
X47808742Y-25641000D01*
X47631258Y-25641000D01*
X47606488Y-25636073D01*
X47457188Y-25606376D01*
X47293216Y-25538456D01*
X47145646Y-25439853D01*
X47020147Y-25314354D01*
X46921544Y-25166784D01*
X46853624Y-25002812D01*
X46819000Y-24828741D01*
X46819000Y-24651259D01*
X46853624Y-24477188D01*
X46921544Y-24313216D01*
X47020147Y-24165646D01*
X47145646Y-24040147D01*
X47293216Y-23941544D01*
X47457188Y-23873624D01*
X47606488Y-23843927D01*
X47631258Y-23839000D01*
X47808742Y-23839000D01*
X47833512Y-23843927D01*
G37*
G36*
X42753512Y-23843927D02*
G01*
X42902812Y-23873624D01*
X43066784Y-23941544D01*
X43214354Y-24040147D01*
X43339853Y-24165646D01*
X43438456Y-24313216D01*
X43506376Y-24477188D01*
X43541000Y-24651259D01*
X43541000Y-24828741D01*
X43506376Y-25002812D01*
X43438456Y-25166784D01*
X43339853Y-25314354D01*
X43214354Y-25439853D01*
X43066784Y-25538456D01*
X42902812Y-25606376D01*
X42753512Y-25636073D01*
X42728742Y-25641000D01*
X42551258Y-25641000D01*
X42526488Y-25636073D01*
X42377188Y-25606376D01*
X42213216Y-25538456D01*
X42065646Y-25439853D01*
X41940147Y-25314354D01*
X41841544Y-25166784D01*
X41773624Y-25002812D01*
X41739000Y-24828741D01*
X41739000Y-24651259D01*
X41773624Y-24477188D01*
X41841544Y-24313216D01*
X41940147Y-24165646D01*
X42065646Y-24040147D01*
X42213216Y-23941544D01*
X42377188Y-23873624D01*
X42526488Y-23843927D01*
X42551258Y-23839000D01*
X42728742Y-23839000D01*
X42753512Y-23843927D01*
G37*
G36*
X40213512Y-23843927D02*
G01*
X40362812Y-23873624D01*
X40526784Y-23941544D01*
X40674354Y-24040147D01*
X40799853Y-24165646D01*
X40898456Y-24313216D01*
X40966376Y-24477188D01*
X41001000Y-24651259D01*
X41001000Y-24828741D01*
X40966376Y-25002812D01*
X40898456Y-25166784D01*
X40799853Y-25314354D01*
X40674354Y-25439853D01*
X40526784Y-25538456D01*
X40362812Y-25606376D01*
X40213512Y-25636073D01*
X40188742Y-25641000D01*
X40011258Y-25641000D01*
X39986488Y-25636073D01*
X39837188Y-25606376D01*
X39673216Y-25538456D01*
X39525646Y-25439853D01*
X39400147Y-25314354D01*
X39301544Y-25166784D01*
X39233624Y-25002812D01*
X39199000Y-24828741D01*
X39199000Y-24651259D01*
X39233624Y-24477188D01*
X39301544Y-24313216D01*
X39400147Y-24165646D01*
X39525646Y-24040147D01*
X39673216Y-23941544D01*
X39837188Y-23873624D01*
X39986488Y-23843927D01*
X40011258Y-23839000D01*
X40188742Y-23839000D01*
X40213512Y-23843927D01*
G37*
G36*
X22091000Y-23171000D02*
G01*
X20289000Y-23171000D01*
X20289000Y-21369000D01*
X22091000Y-21369000D01*
X22091000Y-23171000D01*
G37*
G36*
X28923512Y-21373927D02*
G01*
X29072812Y-21403624D01*
X29236784Y-21471544D01*
X29384354Y-21570147D01*
X29509853Y-21695646D01*
X29608456Y-21843216D01*
X29676376Y-22007188D01*
X29711000Y-22181259D01*
X29711000Y-22358741D01*
X29676376Y-22532812D01*
X29608456Y-22696784D01*
X29509853Y-22844354D01*
X29384354Y-22969853D01*
X29236784Y-23068456D01*
X29072812Y-23136376D01*
X28923512Y-23166073D01*
X28898742Y-23171000D01*
X28721258Y-23171000D01*
X28696488Y-23166073D01*
X28547188Y-23136376D01*
X28383216Y-23068456D01*
X28235646Y-22969853D01*
X28110147Y-22844354D01*
X28011544Y-22696784D01*
X27943624Y-22532812D01*
X27909000Y-22358741D01*
X27909000Y-22181259D01*
X27943624Y-22007188D01*
X28011544Y-21843216D01*
X28110147Y-21695646D01*
X28235646Y-21570147D01*
X28383216Y-21471544D01*
X28547188Y-21403624D01*
X28696488Y-21373927D01*
X28721258Y-21369000D01*
X28898742Y-21369000D01*
X28923512Y-21373927D01*
G37*
G36*
X26383512Y-21373927D02*
G01*
X26532812Y-21403624D01*
X26696784Y-21471544D01*
X26844354Y-21570147D01*
X26969853Y-21695646D01*
X27068456Y-21843216D01*
X27136376Y-22007188D01*
X27171000Y-22181259D01*
X27171000Y-22358741D01*
X27136376Y-22532812D01*
X27068456Y-22696784D01*
X26969853Y-22844354D01*
X26844354Y-22969853D01*
X26696784Y-23068456D01*
X26532812Y-23136376D01*
X26383512Y-23166073D01*
X26358742Y-23171000D01*
X26181258Y-23171000D01*
X26156488Y-23166073D01*
X26007188Y-23136376D01*
X25843216Y-23068456D01*
X25695646Y-22969853D01*
X25570147Y-22844354D01*
X25471544Y-22696784D01*
X25403624Y-22532812D01*
X25369000Y-22358741D01*
X25369000Y-22181259D01*
X25403624Y-22007188D01*
X25471544Y-21843216D01*
X25570147Y-21695646D01*
X25695646Y-21570147D01*
X25843216Y-21471544D01*
X26007188Y-21403624D01*
X26156488Y-21373927D01*
X26181258Y-21369000D01*
X26358742Y-21369000D01*
X26383512Y-21373927D01*
G37*
G36*
X23843512Y-21373927D02*
G01*
X23992812Y-21403624D01*
X24156784Y-21471544D01*
X24304354Y-21570147D01*
X24429853Y-21695646D01*
X24528456Y-21843216D01*
X24596376Y-22007188D01*
X24631000Y-22181259D01*
X24631000Y-22358741D01*
X24596376Y-22532812D01*
X24528456Y-22696784D01*
X24429853Y-22844354D01*
X24304354Y-22969853D01*
X24156784Y-23068456D01*
X23992812Y-23136376D01*
X23843512Y-23166073D01*
X23818742Y-23171000D01*
X23641258Y-23171000D01*
X23616488Y-23166073D01*
X23467188Y-23136376D01*
X23303216Y-23068456D01*
X23155646Y-22969853D01*
X23030147Y-22844354D01*
X22931544Y-22696784D01*
X22863624Y-22532812D01*
X22829000Y-22358741D01*
X22829000Y-22181259D01*
X22863624Y-22007188D01*
X22931544Y-21843216D01*
X23030147Y-21695646D01*
X23155646Y-21570147D01*
X23303216Y-21471544D01*
X23467188Y-21403624D01*
X23616488Y-21373927D01*
X23641258Y-21369000D01*
X23818742Y-21369000D01*
X23843512Y-21373927D01*
G37*
G36*
X41001000Y-23101000D02*
G01*
X39199000Y-23101000D01*
X39199000Y-21299000D01*
X41001000Y-21299000D01*
X41001000Y-23101000D01*
G37*
G36*
X42734508Y-21300147D02*
G01*
X42902812Y-21333624D01*
X43066784Y-21401544D01*
X43214354Y-21500147D01*
X43339853Y-21625646D01*
X43438456Y-21773216D01*
X43506376Y-21937188D01*
X43541000Y-22111259D01*
X43541000Y-22288741D01*
X43506376Y-22462812D01*
X43438456Y-22626784D01*
X43339853Y-22774354D01*
X43214354Y-22899853D01*
X43066784Y-22998456D01*
X42902812Y-23066376D01*
X42753512Y-23096073D01*
X42728742Y-23101000D01*
X42551258Y-23101000D01*
X42526488Y-23096073D01*
X42377188Y-23066376D01*
X42213216Y-22998456D01*
X42065646Y-22899853D01*
X41940147Y-22774354D01*
X41841544Y-22626784D01*
X41773624Y-22462812D01*
X41739000Y-22288741D01*
X41739000Y-22111259D01*
X41773624Y-21937188D01*
X41841544Y-21773216D01*
X41940147Y-21625646D01*
X42065646Y-21500147D01*
X42213216Y-21401544D01*
X42377188Y-21333624D01*
X42545492Y-21300147D01*
X42551258Y-21299000D01*
X42728742Y-21299000D01*
X42734508Y-21300147D01*
G37*
G36*
X45274508Y-21300147D02*
G01*
X45442812Y-21333624D01*
X45606784Y-21401544D01*
X45754354Y-21500147D01*
X45879853Y-21625646D01*
X45978456Y-21773216D01*
X46046376Y-21937188D01*
X46081000Y-22111259D01*
X46081000Y-22288741D01*
X46046376Y-22462812D01*
X45978456Y-22626784D01*
X45879853Y-22774354D01*
X45754354Y-22899853D01*
X45606784Y-22998456D01*
X45442812Y-23066376D01*
X45293512Y-23096073D01*
X45268742Y-23101000D01*
X45091258Y-23101000D01*
X45066488Y-23096073D01*
X44917188Y-23066376D01*
X44753216Y-22998456D01*
X44605646Y-22899853D01*
X44480147Y-22774354D01*
X44381544Y-22626784D01*
X44313624Y-22462812D01*
X44279000Y-22288741D01*
X44279000Y-22111259D01*
X44313624Y-21937188D01*
X44381544Y-21773216D01*
X44480147Y-21625646D01*
X44605646Y-21500147D01*
X44753216Y-21401544D01*
X44917188Y-21333624D01*
X45085492Y-21300147D01*
X45091258Y-21299000D01*
X45268742Y-21299000D01*
X45274508Y-21300147D01*
G37*
G36*
X47814508Y-21300147D02*
G01*
X47982812Y-21333624D01*
X48146784Y-21401544D01*
X48294354Y-21500147D01*
X48419853Y-21625646D01*
X48518456Y-21773216D01*
X48586376Y-21937188D01*
X48621000Y-22111259D01*
X48621000Y-22288741D01*
X48586376Y-22462812D01*
X48518456Y-22626784D01*
X48419853Y-22774354D01*
X48294354Y-22899853D01*
X48146784Y-22998456D01*
X47982812Y-23066376D01*
X47833512Y-23096073D01*
X47808742Y-23101000D01*
X47631258Y-23101000D01*
X47606488Y-23096073D01*
X47457188Y-23066376D01*
X47293216Y-22998456D01*
X47145646Y-22899853D01*
X47020147Y-22774354D01*
X46921544Y-22626784D01*
X46853624Y-22462812D01*
X46819000Y-22288741D01*
X46819000Y-22111259D01*
X46853624Y-21937188D01*
X46921544Y-21773216D01*
X47020147Y-21625646D01*
X47145646Y-21500147D01*
X47293216Y-21401544D01*
X47457188Y-21333624D01*
X47625492Y-21300147D01*
X47631258Y-21299000D01*
X47808742Y-21299000D01*
X47814508Y-21300147D01*
G37*
G36*
X7693512Y-21103927D02*
G01*
X7842812Y-21133624D01*
X8006784Y-21201544D01*
X8154354Y-21300147D01*
X8279853Y-21425646D01*
X8378456Y-21573216D01*
X8446376Y-21737188D01*
X8481000Y-21911259D01*
X8481000Y-22088741D01*
X8446376Y-22262812D01*
X8378456Y-22426784D01*
X8279853Y-22574354D01*
X8154354Y-22699853D01*
X8006784Y-22798456D01*
X7842812Y-22866376D01*
X7693512Y-22896073D01*
X7668742Y-22901000D01*
X7491258Y-22901000D01*
X7466488Y-22896073D01*
X7317188Y-22866376D01*
X7153216Y-22798456D01*
X7005646Y-22699853D01*
X6880147Y-22574354D01*
X6781544Y-22426784D01*
X6713624Y-22262812D01*
X6679000Y-22088741D01*
X6679000Y-21911259D01*
X6713624Y-21737188D01*
X6781544Y-21573216D01*
X6880147Y-21425646D01*
X7005646Y-21300147D01*
X7153216Y-21201544D01*
X7317188Y-21133624D01*
X7466488Y-21103927D01*
X7491258Y-21099000D01*
X7668742Y-21099000D01*
X7693512Y-21103927D01*
G37*
G36*
X3401000Y-22901000D02*
G01*
X1599000Y-22901000D01*
X1599000Y-21099000D01*
X3401000Y-21099000D01*
X3401000Y-22901000D01*
G37*
G36*
X5153512Y-21103927D02*
G01*
X5302812Y-21133624D01*
X5466784Y-21201544D01*
X5614354Y-21300147D01*
X5739853Y-21425646D01*
X5838456Y-21573216D01*
X5906376Y-21737188D01*
X5941000Y-21911259D01*
X5941000Y-22088741D01*
X5906376Y-22262812D01*
X5838456Y-22426784D01*
X5739853Y-22574354D01*
X5614354Y-22699853D01*
X5466784Y-22798456D01*
X5302812Y-22866376D01*
X5153512Y-22896073D01*
X5128742Y-22901000D01*
X4951258Y-22901000D01*
X4926488Y-22896073D01*
X4777188Y-22866376D01*
X4613216Y-22798456D01*
X4465646Y-22699853D01*
X4340147Y-22574354D01*
X4241544Y-22426784D01*
X4173624Y-22262812D01*
X4139000Y-22088741D01*
X4139000Y-21911259D01*
X4173624Y-21737188D01*
X4241544Y-21573216D01*
X4340147Y-21425646D01*
X4465646Y-21300147D01*
X4613216Y-21201544D01*
X4777188Y-21133624D01*
X4926488Y-21103927D01*
X4951258Y-21099000D01*
X5128742Y-21099000D01*
X5153512Y-21103927D01*
G37*
M02*
