G04 #@! TF.GenerationSoftware,KiCad,Pcbnew,5.1.5+dfsg1-2build2*
G04 #@! TF.CreationDate,2021-02-28T17:12:47+01:00*
G04 #@! TF.ProjectId,time2time,74696d65-3274-4696-9d65-2e6b69636164,V1.0*
G04 #@! TF.SameCoordinates,PX7735940PY3473bc0*
G04 #@! TF.FileFunction,Copper,L2,Bot*
G04 #@! TF.FilePolarity,Positive*
%FSLAX46Y46*%
G04 Gerber Fmt 4.6, Leading zero omitted, Abs format (unit mm)*
G04 Created by KiCad (PCBNEW 5.1.5+dfsg1-2build2) date 2021-02-28 17:12:47*
%MOMM*%
%LPD*%
G04 APERTURE LIST*
%ADD10C,0.150000*%
%ADD11C,0.100000*%
%ADD12R,1.600000X1.600000*%
%ADD13C,1.600000*%
%ADD14C,1.450000*%
%ADD15O,1.200000X1.900000*%
%ADD16O,1.200000X1.750000*%
%ADD17R,1.700000X1.700000*%
%ADD18O,1.700000X1.700000*%
%ADD19R,1.500000X1.000000*%
%ADD20C,1.500000*%
%ADD21C,0.500000*%
%ADD22R,1.500000X2.500000*%
%ADD23O,1.500000X2.500000*%
%ADD24O,2.200000X3.500000*%
%ADD25C,0.600000*%
%ADD26C,0.300000*%
%ADD27C,0.250000*%
%ADD28C,0.254000*%
G04 APERTURE END LIST*
D10*
X50000000Y-68000000D02*
G75*
G02X48000000Y-70000000I-2000000J0D01*
G01*
X2000000Y-70000000D02*
G75*
G02X0Y-68000000I0J2000000D01*
G01*
X0Y-22000000D02*
G75*
G02X2000000Y-20000000I2000000J0D01*
G01*
X9500000Y-18000000D02*
G75*
G02X7500000Y-20000000I-2000000J0D01*
G01*
X42500000Y-20000000D02*
G75*
G02X40500000Y-18000000I0J2000000D01*
G01*
X48000000Y-20000000D02*
G75*
G02X50000000Y-22000000I0J-2000000D01*
G01*
X37700000Y0D02*
G75*
G02X40500000Y-2800000I0J-2800000D01*
G01*
X9500000Y-2800000D02*
G75*
G02X12300000Y0I2800000J0D01*
G01*
X42500000Y-20000000D02*
X48000000Y-20000000D01*
X9500000Y-2800000D02*
X9500000Y-18000000D01*
X37700000Y0D02*
X12300000Y0D01*
X40500000Y-18000000D02*
X40500000Y-2800000D01*
X36600000Y-23000000D02*
G75*
G03X36600000Y-23000000I-1100000J0D01*
G01*
X15600000Y-23000000D02*
G75*
G03X15600000Y-23000000I-1100000J0D01*
G01*
X39300000Y-3000000D02*
G75*
G03X39300000Y-3000000I-1600000J0D01*
G01*
X13900000Y-3000000D02*
G75*
G03X13900000Y-3000000I-1600000J0D01*
G01*
X0Y-22000000D02*
X0Y-68000000D01*
X7500000Y-20000000D02*
X2000000Y-20000000D01*
X50000000Y-68000000D02*
X50000000Y-22000000D01*
X2000000Y-70000000D02*
X48000000Y-70000000D01*
D11*
G36*
X42500000Y-52750000D02*
G01*
X42500000Y-52250000D01*
X41900000Y-52250000D01*
X41900000Y-52750000D01*
X42500000Y-52750000D01*
G37*
G36*
X39800000Y-62550000D02*
G01*
X39800000Y-62050000D01*
X39200000Y-62050000D01*
X39200000Y-62550000D01*
X39800000Y-62550000D01*
G37*
D12*
X3000000Y-28500000D03*
D13*
X7000000Y-28500000D03*
D12*
X45900000Y-65200000D03*
D13*
X45900000Y-67700000D03*
D14*
X35100000Y-65837500D03*
X40100000Y-65837500D03*
D15*
X34100000Y-68537500D03*
X41100000Y-68537500D03*
G04 #@! TA.AperFunction,ComponentPad*
D11*
G36*
X3774505Y-65926204D02*
G01*
X3798773Y-65929804D01*
X3822572Y-65935765D01*
X3845671Y-65944030D01*
X3867850Y-65954520D01*
X3888893Y-65967132D01*
X3908599Y-65981747D01*
X3926777Y-65998223D01*
X3943253Y-66016401D01*
X3957868Y-66036107D01*
X3970480Y-66057150D01*
X3980970Y-66079329D01*
X3989235Y-66102428D01*
X3995196Y-66126227D01*
X3998796Y-66150495D01*
X4000000Y-66174999D01*
X4000000Y-67425001D01*
X3998796Y-67449505D01*
X3995196Y-67473773D01*
X3989235Y-67497572D01*
X3980970Y-67520671D01*
X3970480Y-67542850D01*
X3957868Y-67563893D01*
X3943253Y-67583599D01*
X3926777Y-67601777D01*
X3908599Y-67618253D01*
X3888893Y-67632868D01*
X3867850Y-67645480D01*
X3845671Y-67655970D01*
X3822572Y-67664235D01*
X3798773Y-67670196D01*
X3774505Y-67673796D01*
X3750001Y-67675000D01*
X3049999Y-67675000D01*
X3025495Y-67673796D01*
X3001227Y-67670196D01*
X2977428Y-67664235D01*
X2954329Y-67655970D01*
X2932150Y-67645480D01*
X2911107Y-67632868D01*
X2891401Y-67618253D01*
X2873223Y-67601777D01*
X2856747Y-67583599D01*
X2842132Y-67563893D01*
X2829520Y-67542850D01*
X2819030Y-67520671D01*
X2810765Y-67497572D01*
X2804804Y-67473773D01*
X2801204Y-67449505D01*
X2800000Y-67425001D01*
X2800000Y-66174999D01*
X2801204Y-66150495D01*
X2804804Y-66126227D01*
X2810765Y-66102428D01*
X2819030Y-66079329D01*
X2829520Y-66057150D01*
X2842132Y-66036107D01*
X2856747Y-66016401D01*
X2873223Y-65998223D01*
X2891401Y-65981747D01*
X2911107Y-65967132D01*
X2932150Y-65954520D01*
X2954329Y-65944030D01*
X2977428Y-65935765D01*
X3001227Y-65929804D01*
X3025495Y-65926204D01*
X3049999Y-65925000D01*
X3750001Y-65925000D01*
X3774505Y-65926204D01*
G37*
G04 #@! TD.AperFunction*
D16*
X5400000Y-66800000D03*
D17*
X21190000Y-22270000D03*
D18*
X23730000Y-22270000D03*
X26270000Y-22270000D03*
X28810000Y-22270000D03*
D17*
X40100000Y-22200000D03*
D18*
X40100000Y-24740000D03*
X42640000Y-22200000D03*
X42640000Y-24740000D03*
X45180000Y-22200000D03*
X45180000Y-24740000D03*
X47720000Y-22200000D03*
X47720000Y-24740000D03*
D17*
X2500000Y-22000000D03*
D18*
X5040000Y-22000000D03*
X7580000Y-22000000D03*
D19*
X42200000Y-53150000D03*
X42200000Y-51850000D03*
X46300000Y-41300000D03*
X46300000Y-40000000D03*
X46300000Y-38700000D03*
X43800000Y-38700000D03*
X43800000Y-40000000D03*
X43800000Y-41300000D03*
X41300000Y-38700000D03*
X41300000Y-40000000D03*
X41300000Y-41300000D03*
D17*
X14100000Y-46000000D03*
D18*
X14100000Y-43460000D03*
D20*
X29000000Y-63100000D03*
X35000000Y-58100000D03*
X32200000Y-59100000D03*
X31800000Y-62100000D03*
X34700000Y-61100000D03*
X48300000Y-60400000D03*
X42400000Y-30000000D03*
X23400000Y-30900000D03*
X19900000Y-44700000D03*
D21*
X21300000Y-34350000D03*
X20725000Y-33400000D03*
X21875000Y-33400000D03*
X21300000Y-32450000D03*
D22*
X27000000Y-67600000D03*
D23*
X25000000Y-67600000D03*
X23000000Y-67600000D03*
D24*
X29100000Y-67600000D03*
X20900000Y-67600000D03*
D19*
X39500000Y-62950000D03*
X39500000Y-61650000D03*
D25*
X46640767Y-37370010D03*
X24250000Y-31100000D03*
X19900000Y-30500000D03*
X37800000Y-26900000D03*
X19900000Y-56300000D03*
X19700000Y-43900000D03*
X32500000Y-57600000D03*
X19200000Y-31300000D03*
X17900000Y-37500000D03*
X21900000Y-29800000D03*
X21900000Y-28300000D03*
X23300000Y-29200000D03*
X23300000Y-28200000D03*
X16350000Y-28650000D03*
X17700000Y-29700000D03*
X16000000Y-30800000D03*
X16200000Y-37500000D03*
X17100000Y-38400000D03*
X18800000Y-38400000D03*
X20200000Y-38400000D03*
X21600000Y-36900000D03*
X24000000Y-38000000D03*
X24000000Y-36600000D03*
X24600000Y-35600000D03*
X23700000Y-32800000D03*
X24700000Y-32400000D03*
X35450000Y-62830000D03*
X36200000Y-64700000D03*
X20500000Y-52800000D03*
X22000000Y-43300000D03*
X22700000Y-49100000D03*
X19000000Y-46800000D03*
X21800000Y-47000000D03*
X22700000Y-46000000D03*
X26800000Y-42700000D03*
X27100000Y-45300000D03*
X27100000Y-46800000D03*
X24200000Y-48300000D03*
X24700000Y-49800000D03*
X26600000Y-49800000D03*
X26000000Y-50800000D03*
X18500000Y-42300000D03*
X16800000Y-43400000D03*
X17800000Y-45600000D03*
X19400000Y-48700000D03*
X19400000Y-50100000D03*
X17000000Y-50400000D03*
X15100000Y-50400000D03*
X15100000Y-48500000D03*
X13100000Y-48400000D03*
X12900000Y-50900000D03*
X13300000Y-53600000D03*
X13300000Y-55800000D03*
X17200000Y-53600000D03*
X23000000Y-53800000D03*
X24300000Y-53800000D03*
X24200000Y-55600000D03*
X26100000Y-55600000D03*
X26100000Y-57000000D03*
X23200000Y-56800000D03*
X24200000Y-59800000D03*
X26900000Y-59800000D03*
X19700000Y-59800000D03*
X13200000Y-61800000D03*
X8400000Y-66600000D03*
X10500000Y-66600000D03*
X9500000Y-69000000D03*
X2600000Y-69100000D03*
X1100000Y-66600000D03*
X15600000Y-66300000D03*
X15600000Y-68600000D03*
X13900000Y-64600000D03*
X16700000Y-64100000D03*
X20300000Y-63900000D03*
X23900000Y-64000000D03*
X27100000Y-64000000D03*
X25600000Y-62100000D03*
X31100000Y-63900000D03*
X32900000Y-65200000D03*
X34500000Y-62800000D03*
X31300000Y-66900000D03*
X37900000Y-62800000D03*
X43200000Y-65300000D03*
X43200000Y-67700000D03*
X48800000Y-63600000D03*
X44600000Y-63300000D03*
X39100000Y-63600000D03*
X42400000Y-30000000D03*
X37700000Y-37400000D03*
X23400000Y-43400000D03*
X35400000Y-43200000D03*
X48300000Y-61462500D03*
X33000000Y-29300000D03*
X48300000Y-57680000D03*
X42000000Y-53100000D03*
X37600000Y-60600000D03*
X44300000Y-57100000D03*
X43400000Y-57100000D03*
X45200000Y-57100000D03*
X46600000Y-55700000D03*
X47400000Y-55100000D03*
X45600000Y-54000000D03*
X38100000Y-53800000D03*
X39800000Y-53600000D03*
X41100000Y-57100000D03*
X39200000Y-57100000D03*
X37500000Y-57100000D03*
X37600000Y-61500000D03*
X38700000Y-61500000D03*
X38700000Y-60600000D03*
X42600000Y-61300000D03*
X40900000Y-61400000D03*
X44000000Y-59300000D03*
X44900000Y-59300000D03*
X49200000Y-54000000D03*
X36900000Y-45400000D03*
X30700000Y-55800000D03*
X35000000Y-58100000D03*
X19800000Y-58000000D03*
X32200000Y-59100000D03*
X33550000Y-62830000D03*
X19900000Y-58800000D03*
X30900000Y-28400000D03*
X40608092Y-45796976D03*
X39796942Y-44803058D03*
X31800000Y-28400000D03*
X34000000Y-35700000D03*
X47300000Y-48000000D03*
X45200000Y-26800000D03*
X36900000Y-38100000D03*
X37200000Y-31200000D03*
X35900000Y-33900000D03*
X34500000Y-29000000D03*
X41700000Y-35500000D03*
X42200000Y-34000000D03*
X44600000Y-40000000D03*
X43356241Y-35913130D03*
X40900000Y-33900000D03*
X33587500Y-55100000D03*
X21700000Y-50000000D03*
X33587500Y-51900000D03*
X24500000Y-50800000D03*
X14700000Y-40800000D03*
X32800000Y-42100000D03*
X11200000Y-48600000D03*
X32700000Y-41200000D03*
X12900000Y-51900000D03*
X11400000Y-57900000D03*
X36300000Y-43600000D03*
X18800000Y-25300000D03*
X30000000Y-29100000D03*
X17800000Y-23300000D03*
X15400000Y-62200000D03*
X18400000Y-63400000D03*
X33600000Y-42700000D03*
X11000000Y-25000000D03*
X42500000Y-41300000D03*
X39000000Y-39600000D03*
X39000000Y-37800000D03*
X38000000Y-45900000D03*
X45100000Y-51500000D03*
X36500000Y-29100000D03*
X36900000Y-25800000D03*
X30900000Y-54300000D03*
X8400000Y-42400000D03*
X33300000Y-26700000D03*
X7400000Y-63000000D03*
X7400000Y-58700000D03*
X4100000Y-56100000D03*
X4100000Y-60600000D03*
X7400000Y-53500000D03*
X4100000Y-50400000D03*
X7300000Y-47500000D03*
X4200000Y-44000000D03*
X10200000Y-45000000D03*
X4200000Y-39200000D03*
X2100000Y-35700000D03*
X2000000Y-31300000D03*
X10200000Y-38300000D03*
X6400000Y-37300000D03*
X6200000Y-33200000D03*
X5200000Y-29900000D03*
X13800000Y-36700000D03*
X13400000Y-28800000D03*
X11800000Y-30800000D03*
X14100000Y-33400000D03*
X9500000Y-25100000D03*
X4800000Y-25500000D03*
X17100000Y-25800000D03*
X13400000Y-25800000D03*
X25000000Y-21200000D03*
X27500000Y-21200000D03*
X31600000Y-25000000D03*
X31600000Y-23500000D03*
X35000000Y-25800000D03*
X35400000Y-28100000D03*
X35700000Y-29900000D03*
X48500000Y-27600000D03*
X48000000Y-34400000D03*
X48000000Y-35400000D03*
X38600000Y-35000000D03*
X39400000Y-35300000D03*
X47900000Y-41000000D03*
X47500000Y-43900000D03*
X47500000Y-46500000D03*
X45100000Y-45100000D03*
X42500000Y-44700000D03*
X36800000Y-34600000D03*
X36000000Y-35600000D03*
X34200000Y-36600000D03*
X34900000Y-37200000D03*
X28100000Y-30600000D03*
X28100000Y-33200000D03*
X28100000Y-35700000D03*
X28800000Y-37800000D03*
X26300000Y-36000000D03*
X26500000Y-38300000D03*
X29400000Y-42100000D03*
X29400000Y-44800000D03*
X28900000Y-48700000D03*
X28900000Y-50100000D03*
X30500000Y-48700000D03*
X38100000Y-47400000D03*
X39800000Y-47500000D03*
X29100000Y-54200000D03*
X49100000Y-47700000D03*
X49200000Y-51200000D03*
X49400000Y-34000000D03*
X49400000Y-38300000D03*
X49400000Y-43300000D03*
X42400000Y-43100000D03*
X37100000Y-44200000D03*
X32500000Y-25900000D03*
X32700000Y-34300000D03*
X46100000Y-51800000D03*
X33575000Y-53500000D03*
X22500000Y-49900000D03*
X28700000Y-39200000D03*
X14800000Y-39200000D03*
X16200000Y-62600000D03*
X30300000Y-60500000D03*
X29900000Y-61300000D03*
X16900000Y-62100000D03*
D26*
X46300000Y-38700000D02*
X43800000Y-38700000D01*
X43800000Y-38700000D02*
X41300000Y-38700000D01*
X46300000Y-38700000D02*
X46300000Y-37710777D01*
X46340768Y-37670009D02*
X46640767Y-37370010D01*
X46300000Y-37710777D02*
X46340768Y-37670009D01*
X23400000Y-30900000D02*
X24050000Y-30900000D01*
X24050000Y-30900000D02*
X24250000Y-31100000D01*
X23400000Y-30900000D02*
X20300000Y-30900000D01*
X20300000Y-30900000D02*
X19900000Y-30500000D01*
X37375736Y-26900000D02*
X37800000Y-26900000D01*
X34700000Y-26900000D02*
X37375736Y-26900000D01*
X31500000Y-23700000D02*
X34700000Y-26900000D01*
X23730000Y-22270000D02*
X25160000Y-23700000D01*
X25160000Y-23700000D02*
X31500000Y-23700000D01*
X19900000Y-55875736D02*
X18100000Y-54075736D01*
X19900000Y-56300000D02*
X19900000Y-55875736D01*
X18100000Y-46500000D02*
X19900000Y-44700000D01*
X18100000Y-54075736D02*
X18100000Y-46500000D01*
X19700000Y-44500000D02*
X19900000Y-44700000D01*
X19700000Y-43900000D02*
X19700000Y-44500000D01*
X19900000Y-56300000D02*
X21200000Y-57600000D01*
X21200000Y-57600000D02*
X32500000Y-57600000D01*
X34700000Y-61100000D02*
X34700000Y-62080000D01*
X34700000Y-62080000D02*
X35450000Y-62830000D01*
X35450000Y-63950000D02*
X36200000Y-64700000D01*
X35450000Y-62830000D02*
X35450000Y-63950000D01*
X44800000Y-65200000D02*
X45900000Y-65200000D01*
X44000001Y-64400001D02*
X44800000Y-65200000D01*
X36499999Y-64400001D02*
X44000001Y-64400001D01*
X36200000Y-64700000D02*
X36499999Y-64400001D01*
X34700000Y-61100000D02*
X33600000Y-60000000D01*
X33600000Y-60000000D02*
X33600000Y-57700000D01*
X33600000Y-57700000D02*
X32300000Y-56400000D01*
X32300000Y-56400000D02*
X24100000Y-56400000D01*
X24100000Y-56400000D02*
X20500000Y-52800000D01*
X21500000Y-49100000D02*
X22700000Y-49100000D01*
X21500000Y-49100000D02*
X20500000Y-49100000D01*
X20500000Y-49100000D02*
X20500000Y-52800000D01*
X20500000Y-46600000D02*
X20500000Y-49100000D01*
X20500000Y-46600000D02*
X19200000Y-46600000D01*
X19200000Y-46600000D02*
X19000000Y-46800000D01*
X22000000Y-45100000D02*
X22000000Y-43300000D01*
X20500000Y-46600000D02*
X22000000Y-45100000D01*
X37700000Y-34700000D02*
X42400000Y-30000000D01*
X37700000Y-37400000D02*
X37700000Y-34700000D01*
X35200000Y-43400000D02*
X35400000Y-43200000D01*
X23400000Y-43400000D02*
X35200000Y-43400000D01*
X22700000Y-42700000D02*
X19700000Y-42700000D01*
X23400000Y-43400000D02*
X22700000Y-42700000D01*
X19700000Y-42700000D02*
X14200000Y-48200000D01*
X14200000Y-48200000D02*
X14200000Y-63400000D01*
X14200000Y-63400000D02*
X15600000Y-64800000D01*
X23000000Y-66050000D02*
X21750000Y-64800000D01*
X21750000Y-64800000D02*
X15600000Y-64800000D01*
X23000000Y-67600000D02*
X23000000Y-66050000D01*
X48300000Y-60400000D02*
X48300000Y-61462500D01*
X33344130Y-30632134D02*
X33342656Y-30630660D01*
X33344130Y-30632134D02*
X33344130Y-29644130D01*
X33344130Y-29644130D02*
X33000000Y-29300000D01*
X33000000Y-28300000D02*
X33000000Y-29300000D01*
X9100000Y-22000000D02*
X10900000Y-20200000D01*
X7580000Y-22000000D02*
X9100000Y-22000000D01*
X10900000Y-20200000D02*
X15700000Y-20200000D01*
X15700000Y-20200000D02*
X20400000Y-24900000D01*
X20400000Y-24900000D02*
X29600000Y-24900000D01*
X29600000Y-24900000D02*
X33000000Y-28300000D01*
X33344130Y-36744130D02*
X33344130Y-30632134D01*
X48300000Y-57680000D02*
X48300000Y-51700000D01*
X48300000Y-51700000D02*
X33344130Y-36744130D01*
X36900000Y-53475736D02*
X36900000Y-45400000D01*
X30700000Y-55800000D02*
X34575736Y-55800000D01*
X34575736Y-55800000D02*
X36900000Y-53475736D01*
X20224264Y-58000000D02*
X19800000Y-58000000D01*
X20574265Y-58350001D02*
X20224264Y-58000000D01*
X32200000Y-59100000D02*
X31450001Y-58350001D01*
X31450001Y-58350001D02*
X20574265Y-58350001D01*
X32530000Y-62830000D02*
X31800000Y-62100000D01*
X33550000Y-62830000D02*
X32530000Y-62830000D01*
X20199999Y-59099999D02*
X19900000Y-58800000D01*
X29860660Y-59100000D02*
X20199999Y-59099999D01*
X31800000Y-61039340D02*
X29860660Y-59100000D01*
X31800000Y-62100000D02*
X31800000Y-61039340D01*
X39947258Y-45796976D02*
X40183828Y-45796976D01*
X40183828Y-45796976D02*
X40608092Y-45796976D01*
X30900000Y-36749718D02*
X39947258Y-45796976D01*
X30900000Y-28400000D02*
X30900000Y-36749718D01*
X39496943Y-44503059D02*
X39796942Y-44803058D01*
X31800000Y-36806116D02*
X39496943Y-44503059D01*
X31800000Y-28400000D02*
X31800000Y-36806116D01*
X38950000Y-22200000D02*
X38600000Y-22550000D01*
X40100000Y-22200000D02*
X38950000Y-22200000D01*
X38600000Y-22550000D02*
X38600000Y-28100000D01*
X34000000Y-32700000D02*
X34000000Y-35700000D01*
X38600000Y-28100000D02*
X34000000Y-32700000D01*
X47400000Y-29000000D02*
X48700000Y-30300000D01*
X48700000Y-30300000D02*
X48700000Y-46600000D01*
X48700000Y-46600000D02*
X47300000Y-48000000D01*
X47400000Y-29000000D02*
X45200000Y-26800000D01*
X35000000Y-36200000D02*
X36900000Y-38100000D01*
X41400000Y-26100000D02*
X35000000Y-32500000D01*
X42640000Y-22200000D02*
X41400000Y-23440000D01*
X35000000Y-32500000D02*
X35000000Y-36200000D01*
X41400000Y-23440000D02*
X41400000Y-26100000D01*
X42640000Y-25760000D02*
X42640000Y-24740000D01*
X37200000Y-31200000D02*
X42640000Y-25760000D01*
X45060000Y-24740000D02*
X45180000Y-24740000D01*
X35900000Y-33900000D02*
X45060000Y-24740000D01*
X6440000Y-20600000D02*
X9600000Y-20600000D01*
X5040000Y-22000000D02*
X6440000Y-20600000D01*
X9600000Y-20600000D02*
X10600000Y-19600000D01*
X10600000Y-19600000D02*
X16000000Y-19600000D01*
X16000000Y-19600000D02*
X20700000Y-24300000D01*
X20700000Y-24300000D02*
X29800000Y-24300000D01*
X41700000Y-35500000D02*
X43000000Y-36800000D01*
X43000000Y-36800000D02*
X46900000Y-36800000D01*
X46900000Y-36800000D02*
X47600000Y-37500000D01*
X47350000Y-40000000D02*
X46300000Y-40000000D01*
X47600000Y-39750000D02*
X47350000Y-40000000D01*
X47600000Y-37500000D02*
X47600000Y-39750000D01*
X44600000Y-40000000D02*
X43800000Y-40000000D01*
X43056242Y-35613131D02*
X43356241Y-35913130D01*
X42200000Y-34000000D02*
X42200000Y-34756889D01*
X42200000Y-34756889D02*
X43056242Y-35613131D01*
X40900000Y-33900000D02*
X40900000Y-36400000D01*
X40900000Y-36400000D02*
X39800000Y-37500000D01*
X40250000Y-40000000D02*
X41300000Y-40000000D01*
X39800000Y-39550000D02*
X40250000Y-40000000D01*
X39800000Y-37500000D02*
X39800000Y-39550000D01*
X33587500Y-55100000D02*
X33050000Y-55100000D01*
X33050000Y-55100000D02*
X26800000Y-55100000D01*
X26800000Y-55100000D02*
X21700000Y-50000000D01*
X33587500Y-51900000D02*
X26100000Y-51900000D01*
X26100000Y-51900000D02*
X25600000Y-51900000D01*
X25600000Y-51900000D02*
X24500000Y-50800000D01*
X32375736Y-42100000D02*
X32800000Y-42100000D01*
X14700000Y-40800000D02*
X31075736Y-40800000D01*
X31075736Y-40800000D02*
X32375736Y-42100000D01*
X11200000Y-43100000D02*
X14109897Y-40190103D01*
X14109897Y-40190103D02*
X31690103Y-40190103D01*
X31690103Y-40190103D02*
X32700000Y-41200000D01*
X11200000Y-43100000D02*
X11200000Y-48600000D01*
X12900000Y-51900000D02*
X12000000Y-52800000D01*
X11400000Y-53400000D02*
X12000000Y-52800000D01*
X11400000Y-57900000D02*
X11400000Y-53400000D01*
X36300000Y-43000000D02*
X36300000Y-43600000D01*
X30200000Y-36900000D02*
X36300000Y-43000000D01*
X30200000Y-30200000D02*
X30200000Y-36900000D01*
X26400000Y-26400000D02*
X30200000Y-30200000D01*
X18800000Y-25300000D02*
X19900000Y-26400000D01*
X19900000Y-26400000D02*
X26400000Y-26400000D01*
X26600000Y-25700000D02*
X20393884Y-25700000D01*
X30000000Y-29100000D02*
X26600000Y-25700000D01*
X20393884Y-25700000D02*
X20200000Y-25700000D01*
X20200000Y-25700000D02*
X17800000Y-23300000D01*
X15400000Y-62200000D02*
X15400000Y-62900000D01*
X15400000Y-62900000D02*
X15900000Y-63400000D01*
X18400000Y-63400000D02*
X15900000Y-63400000D01*
X26100000Y-27000000D02*
X29500000Y-30400000D01*
X29500000Y-30400000D02*
X29500000Y-37000000D01*
X29500000Y-37000000D02*
X33600000Y-41100000D01*
X33600000Y-41100000D02*
X33600000Y-42700000D01*
X26100000Y-27000000D02*
X13000000Y-27000000D01*
X13000000Y-27000000D02*
X11000000Y-25000000D01*
X31600000Y-23600000D02*
X31500000Y-23700000D01*
X31600000Y-23500000D02*
X31600000Y-23600000D01*
X31600000Y-25000000D02*
X31100000Y-25500000D01*
X31100000Y-25500000D02*
X34500000Y-29000000D01*
X29800000Y-24300000D02*
X31100000Y-25500000D01*
X32700000Y-36900000D02*
X32700000Y-34300000D01*
X46100000Y-51800000D02*
X46100000Y-50300000D01*
X46100000Y-50300000D02*
X32700000Y-36900000D01*
X33575000Y-53500000D02*
X26208722Y-53500000D01*
X26208722Y-53500000D02*
X26200000Y-53500000D01*
X26100000Y-53500000D02*
X22500000Y-49900000D01*
X26208722Y-53500000D02*
X26100000Y-53500000D01*
X28700000Y-39200000D02*
X14800000Y-39200000D01*
X30300000Y-60500000D02*
X18500000Y-60500000D01*
X16200000Y-62600000D02*
X16200000Y-61700000D01*
X17400000Y-60500000D02*
X18500000Y-60500000D01*
X16200000Y-61700000D02*
X17400000Y-60500000D01*
X17700000Y-61300000D02*
X16900000Y-62100000D01*
X29900000Y-61300000D02*
X17700000Y-61300000D01*
D27*
G36*
X25175000Y-38725000D02*
G01*
X15325000Y-38725000D01*
X15325000Y-34750529D01*
X21076248Y-34750529D01*
X21099877Y-34838108D01*
X21198947Y-34867771D01*
X21301901Y-34877537D01*
X21404782Y-34867029D01*
X21500123Y-34838108D01*
X21523752Y-34750529D01*
X21300000Y-34526777D01*
X21076248Y-34750529D01*
X15325000Y-34750529D01*
X15325000Y-34351901D01*
X20772463Y-34351901D01*
X20782971Y-34454782D01*
X20811892Y-34550123D01*
X20899471Y-34573752D01*
X21123223Y-34350000D01*
X21476777Y-34350000D01*
X21700529Y-34573752D01*
X21788108Y-34550123D01*
X21817771Y-34451053D01*
X21827537Y-34348099D01*
X21817029Y-34245218D01*
X21788108Y-34149877D01*
X21700529Y-34126248D01*
X21476777Y-34350000D01*
X21123223Y-34350000D01*
X20899471Y-34126248D01*
X20811892Y-34149877D01*
X20782229Y-34248947D01*
X20772463Y-34351901D01*
X15325000Y-34351901D01*
X15325000Y-33949471D01*
X21076248Y-33949471D01*
X21300000Y-34173223D01*
X21523752Y-33949471D01*
X21500123Y-33861892D01*
X21401053Y-33832229D01*
X21298099Y-33822463D01*
X21195218Y-33832971D01*
X21099877Y-33861892D01*
X21076248Y-33949471D01*
X15325000Y-33949471D01*
X15325000Y-33800529D01*
X20501248Y-33800529D01*
X20524877Y-33888108D01*
X20623947Y-33917771D01*
X20726901Y-33927537D01*
X20829782Y-33917029D01*
X20925123Y-33888108D01*
X20948752Y-33800529D01*
X21651248Y-33800529D01*
X21674877Y-33888108D01*
X21773947Y-33917771D01*
X21876901Y-33927537D01*
X21979782Y-33917029D01*
X22075123Y-33888108D01*
X22098752Y-33800529D01*
X21875000Y-33576777D01*
X21651248Y-33800529D01*
X20948752Y-33800529D01*
X20725000Y-33576777D01*
X20501248Y-33800529D01*
X15325000Y-33800529D01*
X15325000Y-33401901D01*
X20197463Y-33401901D01*
X20207971Y-33504782D01*
X20236892Y-33600123D01*
X20324471Y-33623752D01*
X20548223Y-33400000D01*
X20901777Y-33400000D01*
X21125529Y-33623752D01*
X21213108Y-33600123D01*
X21242771Y-33501053D01*
X21252176Y-33401901D01*
X21347463Y-33401901D01*
X21357971Y-33504782D01*
X21386892Y-33600123D01*
X21474471Y-33623752D01*
X21698223Y-33400000D01*
X22051777Y-33400000D01*
X22275529Y-33623752D01*
X22363108Y-33600123D01*
X22392771Y-33501053D01*
X22402537Y-33398099D01*
X22392029Y-33295218D01*
X22363108Y-33199877D01*
X22275529Y-33176248D01*
X22051777Y-33400000D01*
X21698223Y-33400000D01*
X21474471Y-33176248D01*
X21386892Y-33199877D01*
X21357229Y-33298947D01*
X21347463Y-33401901D01*
X21252176Y-33401901D01*
X21252537Y-33398099D01*
X21242029Y-33295218D01*
X21213108Y-33199877D01*
X21125529Y-33176248D01*
X20901777Y-33400000D01*
X20548223Y-33400000D01*
X20324471Y-33176248D01*
X20236892Y-33199877D01*
X20207229Y-33298947D01*
X20197463Y-33401901D01*
X15325000Y-33401901D01*
X15325000Y-32999471D01*
X20501248Y-32999471D01*
X20725000Y-33223223D01*
X20948752Y-32999471D01*
X21651248Y-32999471D01*
X21875000Y-33223223D01*
X22098752Y-32999471D01*
X22075123Y-32911892D01*
X21976053Y-32882229D01*
X21873099Y-32872463D01*
X21770218Y-32882971D01*
X21674877Y-32911892D01*
X21651248Y-32999471D01*
X20948752Y-32999471D01*
X20925123Y-32911892D01*
X20826053Y-32882229D01*
X20723099Y-32872463D01*
X20620218Y-32882971D01*
X20524877Y-32911892D01*
X20501248Y-32999471D01*
X15325000Y-32999471D01*
X15325000Y-32850529D01*
X21076248Y-32850529D01*
X21099877Y-32938108D01*
X21198947Y-32967771D01*
X21301901Y-32977537D01*
X21404782Y-32967029D01*
X21500123Y-32938108D01*
X21523752Y-32850529D01*
X21300000Y-32626777D01*
X21076248Y-32850529D01*
X15325000Y-32850529D01*
X15325000Y-32451901D01*
X20772463Y-32451901D01*
X20782971Y-32554782D01*
X20811892Y-32650123D01*
X20899471Y-32673752D01*
X21123223Y-32450000D01*
X21476777Y-32450000D01*
X21700529Y-32673752D01*
X21788108Y-32650123D01*
X21817771Y-32551053D01*
X21827537Y-32448099D01*
X21817029Y-32345218D01*
X21788108Y-32249877D01*
X21700529Y-32226248D01*
X21476777Y-32450000D01*
X21123223Y-32450000D01*
X20899471Y-32226248D01*
X20811892Y-32249877D01*
X20782229Y-32348947D01*
X20772463Y-32451901D01*
X15325000Y-32451901D01*
X15325000Y-32049471D01*
X21076248Y-32049471D01*
X21300000Y-32273223D01*
X21523752Y-32049471D01*
X21500123Y-31961892D01*
X21401053Y-31932229D01*
X21298099Y-31922463D01*
X21195218Y-31932971D01*
X21099877Y-31961892D01*
X21076248Y-32049471D01*
X15325000Y-32049471D01*
X15325000Y-30438443D01*
X19275000Y-30438443D01*
X19275000Y-30561557D01*
X19299019Y-30682306D01*
X19346132Y-30796048D01*
X19414531Y-30898414D01*
X19501586Y-30985469D01*
X19603952Y-31053868D01*
X19717694Y-31100981D01*
X19838443Y-31125000D01*
X19853249Y-31125000D01*
X19947620Y-31219371D01*
X19962499Y-31237501D01*
X20034827Y-31296859D01*
X20117346Y-31340966D01*
X20179722Y-31359888D01*
X20206883Y-31368127D01*
X20299999Y-31377298D01*
X20323331Y-31375000D01*
X22433181Y-31375000D01*
X22447348Y-31409203D01*
X22564993Y-31585272D01*
X22714728Y-31735007D01*
X22890797Y-31852652D01*
X23086434Y-31933688D01*
X23294122Y-31975000D01*
X23505878Y-31975000D01*
X23713566Y-31933688D01*
X23909203Y-31852652D01*
X24085272Y-31735007D01*
X24110736Y-31709543D01*
X24188443Y-31725000D01*
X24311557Y-31725000D01*
X24432306Y-31700981D01*
X24546048Y-31653868D01*
X24648414Y-31585469D01*
X24735469Y-31498414D01*
X24803868Y-31396048D01*
X24850981Y-31282306D01*
X24875000Y-31161557D01*
X24875000Y-31038443D01*
X24850981Y-30917694D01*
X24803868Y-30803952D01*
X24735469Y-30701586D01*
X24648414Y-30614531D01*
X24546048Y-30546132D01*
X24432306Y-30499019D01*
X24394352Y-30491469D01*
X24352652Y-30390797D01*
X24235007Y-30214728D01*
X24085272Y-30064993D01*
X23909203Y-29947348D01*
X23713566Y-29866312D01*
X23505878Y-29825000D01*
X23294122Y-29825000D01*
X23086434Y-29866312D01*
X22890797Y-29947348D01*
X22714728Y-30064993D01*
X22564993Y-30214728D01*
X22447348Y-30390797D01*
X22433181Y-30425000D01*
X20522326Y-30425000D01*
X20500981Y-30317694D01*
X20453868Y-30203952D01*
X20385469Y-30101586D01*
X20298414Y-30014531D01*
X20196048Y-29946132D01*
X20082306Y-29899019D01*
X19961557Y-29875000D01*
X19838443Y-29875000D01*
X19717694Y-29899019D01*
X19603952Y-29946132D01*
X19501586Y-30014531D01*
X19414531Y-30101586D01*
X19346132Y-30203952D01*
X19299019Y-30317694D01*
X19275000Y-30438443D01*
X15325000Y-30438443D01*
X15325000Y-27525000D01*
X25175000Y-27525000D01*
X25175000Y-38725000D01*
G37*
X25175000Y-38725000D02*
X15325000Y-38725000D01*
X15325000Y-34750529D01*
X21076248Y-34750529D01*
X21099877Y-34838108D01*
X21198947Y-34867771D01*
X21301901Y-34877537D01*
X21404782Y-34867029D01*
X21500123Y-34838108D01*
X21523752Y-34750529D01*
X21300000Y-34526777D01*
X21076248Y-34750529D01*
X15325000Y-34750529D01*
X15325000Y-34351901D01*
X20772463Y-34351901D01*
X20782971Y-34454782D01*
X20811892Y-34550123D01*
X20899471Y-34573752D01*
X21123223Y-34350000D01*
X21476777Y-34350000D01*
X21700529Y-34573752D01*
X21788108Y-34550123D01*
X21817771Y-34451053D01*
X21827537Y-34348099D01*
X21817029Y-34245218D01*
X21788108Y-34149877D01*
X21700529Y-34126248D01*
X21476777Y-34350000D01*
X21123223Y-34350000D01*
X20899471Y-34126248D01*
X20811892Y-34149877D01*
X20782229Y-34248947D01*
X20772463Y-34351901D01*
X15325000Y-34351901D01*
X15325000Y-33949471D01*
X21076248Y-33949471D01*
X21300000Y-34173223D01*
X21523752Y-33949471D01*
X21500123Y-33861892D01*
X21401053Y-33832229D01*
X21298099Y-33822463D01*
X21195218Y-33832971D01*
X21099877Y-33861892D01*
X21076248Y-33949471D01*
X15325000Y-33949471D01*
X15325000Y-33800529D01*
X20501248Y-33800529D01*
X20524877Y-33888108D01*
X20623947Y-33917771D01*
X20726901Y-33927537D01*
X20829782Y-33917029D01*
X20925123Y-33888108D01*
X20948752Y-33800529D01*
X21651248Y-33800529D01*
X21674877Y-33888108D01*
X21773947Y-33917771D01*
X21876901Y-33927537D01*
X21979782Y-33917029D01*
X22075123Y-33888108D01*
X22098752Y-33800529D01*
X21875000Y-33576777D01*
X21651248Y-33800529D01*
X20948752Y-33800529D01*
X20725000Y-33576777D01*
X20501248Y-33800529D01*
X15325000Y-33800529D01*
X15325000Y-33401901D01*
X20197463Y-33401901D01*
X20207971Y-33504782D01*
X20236892Y-33600123D01*
X20324471Y-33623752D01*
X20548223Y-33400000D01*
X20901777Y-33400000D01*
X21125529Y-33623752D01*
X21213108Y-33600123D01*
X21242771Y-33501053D01*
X21252176Y-33401901D01*
X21347463Y-33401901D01*
X21357971Y-33504782D01*
X21386892Y-33600123D01*
X21474471Y-33623752D01*
X21698223Y-33400000D01*
X22051777Y-33400000D01*
X22275529Y-33623752D01*
X22363108Y-33600123D01*
X22392771Y-33501053D01*
X22402537Y-33398099D01*
X22392029Y-33295218D01*
X22363108Y-33199877D01*
X22275529Y-33176248D01*
X22051777Y-33400000D01*
X21698223Y-33400000D01*
X21474471Y-33176248D01*
X21386892Y-33199877D01*
X21357229Y-33298947D01*
X21347463Y-33401901D01*
X21252176Y-33401901D01*
X21252537Y-33398099D01*
X21242029Y-33295218D01*
X21213108Y-33199877D01*
X21125529Y-33176248D01*
X20901777Y-33400000D01*
X20548223Y-33400000D01*
X20324471Y-33176248D01*
X20236892Y-33199877D01*
X20207229Y-33298947D01*
X20197463Y-33401901D01*
X15325000Y-33401901D01*
X15325000Y-32999471D01*
X20501248Y-32999471D01*
X20725000Y-33223223D01*
X20948752Y-32999471D01*
X21651248Y-32999471D01*
X21875000Y-33223223D01*
X22098752Y-32999471D01*
X22075123Y-32911892D01*
X21976053Y-32882229D01*
X21873099Y-32872463D01*
X21770218Y-32882971D01*
X21674877Y-32911892D01*
X21651248Y-32999471D01*
X20948752Y-32999471D01*
X20925123Y-32911892D01*
X20826053Y-32882229D01*
X20723099Y-32872463D01*
X20620218Y-32882971D01*
X20524877Y-32911892D01*
X20501248Y-32999471D01*
X15325000Y-32999471D01*
X15325000Y-32850529D01*
X21076248Y-32850529D01*
X21099877Y-32938108D01*
X21198947Y-32967771D01*
X21301901Y-32977537D01*
X21404782Y-32967029D01*
X21500123Y-32938108D01*
X21523752Y-32850529D01*
X21300000Y-32626777D01*
X21076248Y-32850529D01*
X15325000Y-32850529D01*
X15325000Y-32451901D01*
X20772463Y-32451901D01*
X20782971Y-32554782D01*
X20811892Y-32650123D01*
X20899471Y-32673752D01*
X21123223Y-32450000D01*
X21476777Y-32450000D01*
X21700529Y-32673752D01*
X21788108Y-32650123D01*
X21817771Y-32551053D01*
X21827537Y-32448099D01*
X21817029Y-32345218D01*
X21788108Y-32249877D01*
X21700529Y-32226248D01*
X21476777Y-32450000D01*
X21123223Y-32450000D01*
X20899471Y-32226248D01*
X20811892Y-32249877D01*
X20782229Y-32348947D01*
X20772463Y-32451901D01*
X15325000Y-32451901D01*
X15325000Y-32049471D01*
X21076248Y-32049471D01*
X21300000Y-32273223D01*
X21523752Y-32049471D01*
X21500123Y-31961892D01*
X21401053Y-31932229D01*
X21298099Y-31922463D01*
X21195218Y-31932971D01*
X21099877Y-31961892D01*
X21076248Y-32049471D01*
X15325000Y-32049471D01*
X15325000Y-30438443D01*
X19275000Y-30438443D01*
X19275000Y-30561557D01*
X19299019Y-30682306D01*
X19346132Y-30796048D01*
X19414531Y-30898414D01*
X19501586Y-30985469D01*
X19603952Y-31053868D01*
X19717694Y-31100981D01*
X19838443Y-31125000D01*
X19853249Y-31125000D01*
X19947620Y-31219371D01*
X19962499Y-31237501D01*
X20034827Y-31296859D01*
X20117346Y-31340966D01*
X20179722Y-31359888D01*
X20206883Y-31368127D01*
X20299999Y-31377298D01*
X20323331Y-31375000D01*
X22433181Y-31375000D01*
X22447348Y-31409203D01*
X22564993Y-31585272D01*
X22714728Y-31735007D01*
X22890797Y-31852652D01*
X23086434Y-31933688D01*
X23294122Y-31975000D01*
X23505878Y-31975000D01*
X23713566Y-31933688D01*
X23909203Y-31852652D01*
X24085272Y-31735007D01*
X24110736Y-31709543D01*
X24188443Y-31725000D01*
X24311557Y-31725000D01*
X24432306Y-31700981D01*
X24546048Y-31653868D01*
X24648414Y-31585469D01*
X24735469Y-31498414D01*
X24803868Y-31396048D01*
X24850981Y-31282306D01*
X24875000Y-31161557D01*
X24875000Y-31038443D01*
X24850981Y-30917694D01*
X24803868Y-30803952D01*
X24735469Y-30701586D01*
X24648414Y-30614531D01*
X24546048Y-30546132D01*
X24432306Y-30499019D01*
X24394352Y-30491469D01*
X24352652Y-30390797D01*
X24235007Y-30214728D01*
X24085272Y-30064993D01*
X23909203Y-29947348D01*
X23713566Y-29866312D01*
X23505878Y-29825000D01*
X23294122Y-29825000D01*
X23086434Y-29866312D01*
X22890797Y-29947348D01*
X22714728Y-30064993D01*
X22564993Y-30214728D01*
X22447348Y-30390797D01*
X22433181Y-30425000D01*
X20522326Y-30425000D01*
X20500981Y-30317694D01*
X20453868Y-30203952D01*
X20385469Y-30101586D01*
X20298414Y-30014531D01*
X20196048Y-29946132D01*
X20082306Y-29899019D01*
X19961557Y-29875000D01*
X19838443Y-29875000D01*
X19717694Y-29899019D01*
X19603952Y-29946132D01*
X19501586Y-30014531D01*
X19414531Y-30101586D01*
X19346132Y-30203952D01*
X19299019Y-30317694D01*
X19275000Y-30438443D01*
X15325000Y-30438443D01*
X15325000Y-27525000D01*
X25175000Y-27525000D01*
X25175000Y-38725000D01*
D28*
G36*
X5463837Y-20901583D02*
G01*
X5383318Y-20868231D01*
X5155924Y-20823000D01*
X4924076Y-20823000D01*
X4696682Y-20868231D01*
X4482481Y-20956956D01*
X4289706Y-21085764D01*
X4125764Y-21249706D01*
X3996956Y-21442481D01*
X3908231Y-21656682D01*
X3863000Y-21884076D01*
X3863000Y-22115924D01*
X3908231Y-22343318D01*
X3996956Y-22557519D01*
X4125764Y-22750294D01*
X4289706Y-22914236D01*
X4482481Y-23043044D01*
X4696682Y-23131769D01*
X4924076Y-23177000D01*
X5155924Y-23177000D01*
X5383318Y-23131769D01*
X5597519Y-23043044D01*
X5790294Y-22914236D01*
X5954236Y-22750294D01*
X6083044Y-22557519D01*
X6171769Y-22343318D01*
X6217000Y-22115924D01*
X6217000Y-21884076D01*
X6171769Y-21656682D01*
X6138417Y-21576163D01*
X6637580Y-21077000D01*
X6842822Y-21077000D01*
X6829706Y-21085764D01*
X6665764Y-21249706D01*
X6536956Y-21442481D01*
X6448231Y-21656682D01*
X6403000Y-21884076D01*
X6403000Y-22115924D01*
X6448231Y-22343318D01*
X6536956Y-22557519D01*
X6665764Y-22750294D01*
X6829706Y-22914236D01*
X7022481Y-23043044D01*
X7236682Y-23131769D01*
X7464076Y-23177000D01*
X7695924Y-23177000D01*
X7923318Y-23131769D01*
X8137519Y-23043044D01*
X8330294Y-22914236D01*
X8393712Y-22850818D01*
X12985329Y-22850818D01*
X12985329Y-23149182D01*
X13043537Y-23441813D01*
X13157716Y-23717466D01*
X13323478Y-23965547D01*
X13534453Y-24176522D01*
X13782534Y-24342284D01*
X14058187Y-24456463D01*
X14350818Y-24514671D01*
X14649182Y-24514671D01*
X14941813Y-24456463D01*
X15217466Y-24342284D01*
X15465547Y-24176522D01*
X15676522Y-23965547D01*
X15842284Y-23717466D01*
X15956463Y-23441813D01*
X16014671Y-23149182D01*
X16014671Y-22850818D01*
X15956463Y-22558187D01*
X15842284Y-22282534D01*
X15676522Y-22034453D01*
X15465547Y-21823478D01*
X15217466Y-21657716D01*
X14941813Y-21543537D01*
X14649182Y-21485329D01*
X14350818Y-21485329D01*
X14058187Y-21543537D01*
X13782534Y-21657716D01*
X13534453Y-21823478D01*
X13323478Y-22034453D01*
X13157716Y-22282534D01*
X13043537Y-22558187D01*
X12985329Y-22850818D01*
X8393712Y-22850818D01*
X8494236Y-22750294D01*
X8623044Y-22557519D01*
X8656396Y-22477000D01*
X9076585Y-22477000D01*
X9100000Y-22479306D01*
X9123415Y-22477000D01*
X9123423Y-22477000D01*
X9193508Y-22470097D01*
X9283423Y-22442822D01*
X9366289Y-22398529D01*
X9438921Y-22338921D01*
X9453855Y-22320724D01*
X11097580Y-20677000D01*
X15502421Y-20677000D01*
X17550222Y-22724802D01*
X17503004Y-22744360D01*
X17400311Y-22812977D01*
X17312977Y-22900311D01*
X17244360Y-23003004D01*
X17197095Y-23117111D01*
X17173000Y-23238246D01*
X17173000Y-23361754D01*
X17197095Y-23482889D01*
X17244360Y-23596996D01*
X17312977Y-23699689D01*
X17400311Y-23787023D01*
X17503004Y-23855640D01*
X17617111Y-23902905D01*
X17738246Y-23927000D01*
X17752421Y-23927000D01*
X18550222Y-24724802D01*
X18503004Y-24744360D01*
X18400311Y-24812977D01*
X18312977Y-24900311D01*
X18244360Y-25003004D01*
X18197095Y-25117111D01*
X18173000Y-25238246D01*
X18173000Y-25361754D01*
X18197095Y-25482889D01*
X18244360Y-25596996D01*
X18312977Y-25699689D01*
X18400311Y-25787023D01*
X18503004Y-25855640D01*
X18617111Y-25902905D01*
X18738246Y-25927000D01*
X18752421Y-25927000D01*
X19348420Y-26523000D01*
X13197580Y-26523000D01*
X11627000Y-24952421D01*
X11627000Y-24938246D01*
X11602905Y-24817111D01*
X11555640Y-24703004D01*
X11487023Y-24600311D01*
X11399689Y-24512977D01*
X11296996Y-24444360D01*
X11182889Y-24397095D01*
X11061754Y-24373000D01*
X10938246Y-24373000D01*
X10817111Y-24397095D01*
X10703004Y-24444360D01*
X10600311Y-24512977D01*
X10512977Y-24600311D01*
X10444360Y-24703004D01*
X10397095Y-24817111D01*
X10373000Y-24938246D01*
X10373000Y-25061754D01*
X10397095Y-25182889D01*
X10444360Y-25296996D01*
X10512977Y-25399689D01*
X10600311Y-25487023D01*
X10703004Y-25555640D01*
X10817111Y-25602905D01*
X10938246Y-25627000D01*
X10952421Y-25627000D01*
X12646147Y-27320727D01*
X12661079Y-27338921D01*
X12733711Y-27398529D01*
X12816577Y-27442822D01*
X12906492Y-27470097D01*
X12976577Y-27477000D01*
X12976584Y-27477000D01*
X12999999Y-27479306D01*
X13023414Y-27477000D01*
X14873000Y-27477000D01*
X14873000Y-38575237D01*
X14861754Y-38573000D01*
X14738246Y-38573000D01*
X14617111Y-38597095D01*
X14503004Y-38644360D01*
X14400311Y-38712977D01*
X14312977Y-38800311D01*
X14244360Y-38903004D01*
X14197095Y-39017111D01*
X14173000Y-39138246D01*
X14173000Y-39261754D01*
X14197095Y-39382889D01*
X14244360Y-39496996D01*
X14312977Y-39599689D01*
X14400311Y-39687023D01*
X14439343Y-39713103D01*
X14133312Y-39713103D01*
X14109897Y-39710797D01*
X14086482Y-39713103D01*
X14086474Y-39713103D01*
X14016389Y-39720006D01*
X13926474Y-39747281D01*
X13843608Y-39791574D01*
X13800442Y-39827000D01*
X13770976Y-39851182D01*
X13756046Y-39869374D01*
X12352420Y-41273000D01*
X12300000Y-41273000D01*
X12236205Y-41279283D01*
X12174863Y-41297891D01*
X12118329Y-41328109D01*
X12068776Y-41368776D01*
X12028109Y-41418329D01*
X11997891Y-41474863D01*
X11979283Y-41536205D01*
X11973000Y-41600000D01*
X11973000Y-41652421D01*
X10879276Y-42746145D01*
X10861079Y-42761079D01*
X10801471Y-42833711D01*
X10757178Y-42916578D01*
X10729903Y-43006493D01*
X10723000Y-43076578D01*
X10723000Y-43076585D01*
X10720694Y-43100000D01*
X10723000Y-43123415D01*
X10723001Y-48190287D01*
X10712977Y-48200311D01*
X10644360Y-48303004D01*
X10597095Y-48417111D01*
X10573000Y-48538246D01*
X10573000Y-48661754D01*
X10597095Y-48782889D01*
X10644360Y-48896996D01*
X10712977Y-48999689D01*
X10800311Y-49087023D01*
X10903004Y-49155640D01*
X11017111Y-49202905D01*
X11138246Y-49227000D01*
X11261754Y-49227000D01*
X11382889Y-49202905D01*
X11496996Y-49155640D01*
X11599689Y-49087023D01*
X11687023Y-48999689D01*
X11755640Y-48896996D01*
X11802905Y-48782889D01*
X11827000Y-48661754D01*
X11827000Y-48538246D01*
X11802905Y-48417111D01*
X11755640Y-48303004D01*
X11687023Y-48200311D01*
X11677000Y-48190288D01*
X11677000Y-43297579D01*
X11973000Y-43001579D01*
X11973000Y-52152421D01*
X11679277Y-52446144D01*
X11679272Y-52446148D01*
X11079271Y-53046150D01*
X11061080Y-53061079D01*
X11001472Y-53133711D01*
X10977796Y-53178005D01*
X10957178Y-53216578D01*
X10929903Y-53306493D01*
X10920694Y-53400000D01*
X10923001Y-53423425D01*
X10923000Y-57490288D01*
X10912977Y-57500311D01*
X10844360Y-57603004D01*
X10797095Y-57717111D01*
X10773000Y-57838246D01*
X10773000Y-57961754D01*
X10797095Y-58082889D01*
X10844360Y-58196996D01*
X10912977Y-58299689D01*
X11000311Y-58387023D01*
X11103004Y-58455640D01*
X11217111Y-58502905D01*
X11338246Y-58527000D01*
X11461754Y-58527000D01*
X11582889Y-58502905D01*
X11696996Y-58455640D01*
X11799689Y-58387023D01*
X11887023Y-58299689D01*
X11955640Y-58196996D01*
X11973000Y-58155086D01*
X11973000Y-64573000D01*
X402000Y-64573000D01*
X402000Y-27700000D01*
X1871418Y-27700000D01*
X1871418Y-29300000D01*
X1877732Y-29364103D01*
X1896430Y-29425743D01*
X1926794Y-29482550D01*
X1967657Y-29532343D01*
X2017450Y-29573206D01*
X2074257Y-29603570D01*
X2135897Y-29622268D01*
X2200000Y-29628582D01*
X3800000Y-29628582D01*
X3864103Y-29622268D01*
X3925743Y-29603570D01*
X3982550Y-29573206D01*
X4032343Y-29532343D01*
X4073206Y-29482550D01*
X4103570Y-29425743D01*
X4122268Y-29364103D01*
X4128582Y-29300000D01*
X4128582Y-28389000D01*
X5873000Y-28389000D01*
X5873000Y-28611000D01*
X5916310Y-28828734D01*
X6001266Y-29033835D01*
X6124602Y-29218421D01*
X6281579Y-29375398D01*
X6466165Y-29498734D01*
X6671266Y-29583690D01*
X6889000Y-29627000D01*
X7111000Y-29627000D01*
X7328734Y-29583690D01*
X7533835Y-29498734D01*
X7718421Y-29375398D01*
X7875398Y-29218421D01*
X7998734Y-29033835D01*
X8083690Y-28828734D01*
X8127000Y-28611000D01*
X8127000Y-28389000D01*
X8083690Y-28171266D01*
X7998734Y-27966165D01*
X7875398Y-27781579D01*
X7718421Y-27624602D01*
X7533835Y-27501266D01*
X7328734Y-27416310D01*
X7111000Y-27373000D01*
X6889000Y-27373000D01*
X6671266Y-27416310D01*
X6466165Y-27501266D01*
X6281579Y-27624602D01*
X6124602Y-27781579D01*
X6001266Y-27966165D01*
X5916310Y-28171266D01*
X5873000Y-28389000D01*
X4128582Y-28389000D01*
X4128582Y-27700000D01*
X4122268Y-27635897D01*
X4103570Y-27574257D01*
X4073206Y-27517450D01*
X4032343Y-27467657D01*
X3982550Y-27426794D01*
X3925743Y-27396430D01*
X3864103Y-27377732D01*
X3800000Y-27371418D01*
X2200000Y-27371418D01*
X2135897Y-27377732D01*
X2074257Y-27396430D01*
X2017450Y-27426794D01*
X1967657Y-27467657D01*
X1926794Y-27517450D01*
X1896430Y-27574257D01*
X1877732Y-27635897D01*
X1871418Y-27700000D01*
X402000Y-27700000D01*
X402000Y-22850000D01*
X1321418Y-22850000D01*
X1327732Y-22914103D01*
X1346430Y-22975743D01*
X1376794Y-23032550D01*
X1417657Y-23082343D01*
X1467450Y-23123206D01*
X1524257Y-23153570D01*
X1585897Y-23172268D01*
X1650000Y-23178582D01*
X2291250Y-23177000D01*
X2373000Y-23095250D01*
X2373000Y-22127000D01*
X2627000Y-22127000D01*
X2627000Y-23095250D01*
X2708750Y-23177000D01*
X3350000Y-23178582D01*
X3414103Y-23172268D01*
X3475743Y-23153570D01*
X3532550Y-23123206D01*
X3582343Y-23082343D01*
X3623206Y-23032550D01*
X3653570Y-22975743D01*
X3672268Y-22914103D01*
X3678582Y-22850000D01*
X3677000Y-22208750D01*
X3595250Y-22127000D01*
X2627000Y-22127000D01*
X2373000Y-22127000D01*
X1404750Y-22127000D01*
X1323000Y-22208750D01*
X1321418Y-22850000D01*
X402000Y-22850000D01*
X402000Y-22019658D01*
X434324Y-21689992D01*
X524357Y-21391786D01*
X652916Y-21150000D01*
X1321418Y-21150000D01*
X1323000Y-21791250D01*
X1404750Y-21873000D01*
X2373000Y-21873000D01*
X2373000Y-20904750D01*
X2627000Y-20904750D01*
X2627000Y-21873000D01*
X3595250Y-21873000D01*
X3677000Y-21791250D01*
X3678582Y-21150000D01*
X3672268Y-21085897D01*
X3653570Y-21024257D01*
X3623206Y-20967450D01*
X3582343Y-20917657D01*
X3532550Y-20876794D01*
X3475743Y-20846430D01*
X3414103Y-20827732D01*
X3350000Y-20821418D01*
X2708750Y-20823000D01*
X2627000Y-20904750D01*
X2373000Y-20904750D01*
X2291250Y-20823000D01*
X1650000Y-20821418D01*
X1585897Y-20827732D01*
X1524257Y-20846430D01*
X1467450Y-20876794D01*
X1417657Y-20917657D01*
X1376794Y-20967450D01*
X1346430Y-21024257D01*
X1327732Y-21085897D01*
X1321418Y-21150000D01*
X652916Y-21150000D01*
X670595Y-21116751D01*
X867473Y-20875355D01*
X1107487Y-20676797D01*
X1381498Y-20528640D01*
X1679064Y-20436528D01*
X2007573Y-20402000D01*
X5963420Y-20402000D01*
X5463837Y-20901583D01*
G37*
X5463837Y-20901583D02*
X5383318Y-20868231D01*
X5155924Y-20823000D01*
X4924076Y-20823000D01*
X4696682Y-20868231D01*
X4482481Y-20956956D01*
X4289706Y-21085764D01*
X4125764Y-21249706D01*
X3996956Y-21442481D01*
X3908231Y-21656682D01*
X3863000Y-21884076D01*
X3863000Y-22115924D01*
X3908231Y-22343318D01*
X3996956Y-22557519D01*
X4125764Y-22750294D01*
X4289706Y-22914236D01*
X4482481Y-23043044D01*
X4696682Y-23131769D01*
X4924076Y-23177000D01*
X5155924Y-23177000D01*
X5383318Y-23131769D01*
X5597519Y-23043044D01*
X5790294Y-22914236D01*
X5954236Y-22750294D01*
X6083044Y-22557519D01*
X6171769Y-22343318D01*
X6217000Y-22115924D01*
X6217000Y-21884076D01*
X6171769Y-21656682D01*
X6138417Y-21576163D01*
X6637580Y-21077000D01*
X6842822Y-21077000D01*
X6829706Y-21085764D01*
X6665764Y-21249706D01*
X6536956Y-21442481D01*
X6448231Y-21656682D01*
X6403000Y-21884076D01*
X6403000Y-22115924D01*
X6448231Y-22343318D01*
X6536956Y-22557519D01*
X6665764Y-22750294D01*
X6829706Y-22914236D01*
X7022481Y-23043044D01*
X7236682Y-23131769D01*
X7464076Y-23177000D01*
X7695924Y-23177000D01*
X7923318Y-23131769D01*
X8137519Y-23043044D01*
X8330294Y-22914236D01*
X8393712Y-22850818D01*
X12985329Y-22850818D01*
X12985329Y-23149182D01*
X13043537Y-23441813D01*
X13157716Y-23717466D01*
X13323478Y-23965547D01*
X13534453Y-24176522D01*
X13782534Y-24342284D01*
X14058187Y-24456463D01*
X14350818Y-24514671D01*
X14649182Y-24514671D01*
X14941813Y-24456463D01*
X15217466Y-24342284D01*
X15465547Y-24176522D01*
X15676522Y-23965547D01*
X15842284Y-23717466D01*
X15956463Y-23441813D01*
X16014671Y-23149182D01*
X16014671Y-22850818D01*
X15956463Y-22558187D01*
X15842284Y-22282534D01*
X15676522Y-22034453D01*
X15465547Y-21823478D01*
X15217466Y-21657716D01*
X14941813Y-21543537D01*
X14649182Y-21485329D01*
X14350818Y-21485329D01*
X14058187Y-21543537D01*
X13782534Y-21657716D01*
X13534453Y-21823478D01*
X13323478Y-22034453D01*
X13157716Y-22282534D01*
X13043537Y-22558187D01*
X12985329Y-22850818D01*
X8393712Y-22850818D01*
X8494236Y-22750294D01*
X8623044Y-22557519D01*
X8656396Y-22477000D01*
X9076585Y-22477000D01*
X9100000Y-22479306D01*
X9123415Y-22477000D01*
X9123423Y-22477000D01*
X9193508Y-22470097D01*
X9283423Y-22442822D01*
X9366289Y-22398529D01*
X9438921Y-22338921D01*
X9453855Y-22320724D01*
X11097580Y-20677000D01*
X15502421Y-20677000D01*
X17550222Y-22724802D01*
X17503004Y-22744360D01*
X17400311Y-22812977D01*
X17312977Y-22900311D01*
X17244360Y-23003004D01*
X17197095Y-23117111D01*
X17173000Y-23238246D01*
X17173000Y-23361754D01*
X17197095Y-23482889D01*
X17244360Y-23596996D01*
X17312977Y-23699689D01*
X17400311Y-23787023D01*
X17503004Y-23855640D01*
X17617111Y-23902905D01*
X17738246Y-23927000D01*
X17752421Y-23927000D01*
X18550222Y-24724802D01*
X18503004Y-24744360D01*
X18400311Y-24812977D01*
X18312977Y-24900311D01*
X18244360Y-25003004D01*
X18197095Y-25117111D01*
X18173000Y-25238246D01*
X18173000Y-25361754D01*
X18197095Y-25482889D01*
X18244360Y-25596996D01*
X18312977Y-25699689D01*
X18400311Y-25787023D01*
X18503004Y-25855640D01*
X18617111Y-25902905D01*
X18738246Y-25927000D01*
X18752421Y-25927000D01*
X19348420Y-26523000D01*
X13197580Y-26523000D01*
X11627000Y-24952421D01*
X11627000Y-24938246D01*
X11602905Y-24817111D01*
X11555640Y-24703004D01*
X11487023Y-24600311D01*
X11399689Y-24512977D01*
X11296996Y-24444360D01*
X11182889Y-24397095D01*
X11061754Y-24373000D01*
X10938246Y-24373000D01*
X10817111Y-24397095D01*
X10703004Y-24444360D01*
X10600311Y-24512977D01*
X10512977Y-24600311D01*
X10444360Y-24703004D01*
X10397095Y-24817111D01*
X10373000Y-24938246D01*
X10373000Y-25061754D01*
X10397095Y-25182889D01*
X10444360Y-25296996D01*
X10512977Y-25399689D01*
X10600311Y-25487023D01*
X10703004Y-25555640D01*
X10817111Y-25602905D01*
X10938246Y-25627000D01*
X10952421Y-25627000D01*
X12646147Y-27320727D01*
X12661079Y-27338921D01*
X12733711Y-27398529D01*
X12816577Y-27442822D01*
X12906492Y-27470097D01*
X12976577Y-27477000D01*
X12976584Y-27477000D01*
X12999999Y-27479306D01*
X13023414Y-27477000D01*
X14873000Y-27477000D01*
X14873000Y-38575237D01*
X14861754Y-38573000D01*
X14738246Y-38573000D01*
X14617111Y-38597095D01*
X14503004Y-38644360D01*
X14400311Y-38712977D01*
X14312977Y-38800311D01*
X14244360Y-38903004D01*
X14197095Y-39017111D01*
X14173000Y-39138246D01*
X14173000Y-39261754D01*
X14197095Y-39382889D01*
X14244360Y-39496996D01*
X14312977Y-39599689D01*
X14400311Y-39687023D01*
X14439343Y-39713103D01*
X14133312Y-39713103D01*
X14109897Y-39710797D01*
X14086482Y-39713103D01*
X14086474Y-39713103D01*
X14016389Y-39720006D01*
X13926474Y-39747281D01*
X13843608Y-39791574D01*
X13800442Y-39827000D01*
X13770976Y-39851182D01*
X13756046Y-39869374D01*
X12352420Y-41273000D01*
X12300000Y-41273000D01*
X12236205Y-41279283D01*
X12174863Y-41297891D01*
X12118329Y-41328109D01*
X12068776Y-41368776D01*
X12028109Y-41418329D01*
X11997891Y-41474863D01*
X11979283Y-41536205D01*
X11973000Y-41600000D01*
X11973000Y-41652421D01*
X10879276Y-42746145D01*
X10861079Y-42761079D01*
X10801471Y-42833711D01*
X10757178Y-42916578D01*
X10729903Y-43006493D01*
X10723000Y-43076578D01*
X10723000Y-43076585D01*
X10720694Y-43100000D01*
X10723000Y-43123415D01*
X10723001Y-48190287D01*
X10712977Y-48200311D01*
X10644360Y-48303004D01*
X10597095Y-48417111D01*
X10573000Y-48538246D01*
X10573000Y-48661754D01*
X10597095Y-48782889D01*
X10644360Y-48896996D01*
X10712977Y-48999689D01*
X10800311Y-49087023D01*
X10903004Y-49155640D01*
X11017111Y-49202905D01*
X11138246Y-49227000D01*
X11261754Y-49227000D01*
X11382889Y-49202905D01*
X11496996Y-49155640D01*
X11599689Y-49087023D01*
X11687023Y-48999689D01*
X11755640Y-48896996D01*
X11802905Y-48782889D01*
X11827000Y-48661754D01*
X11827000Y-48538246D01*
X11802905Y-48417111D01*
X11755640Y-48303004D01*
X11687023Y-48200311D01*
X11677000Y-48190288D01*
X11677000Y-43297579D01*
X11973000Y-43001579D01*
X11973000Y-52152421D01*
X11679277Y-52446144D01*
X11679272Y-52446148D01*
X11079271Y-53046150D01*
X11061080Y-53061079D01*
X11001472Y-53133711D01*
X10977796Y-53178005D01*
X10957178Y-53216578D01*
X10929903Y-53306493D01*
X10920694Y-53400000D01*
X10923001Y-53423425D01*
X10923000Y-57490288D01*
X10912977Y-57500311D01*
X10844360Y-57603004D01*
X10797095Y-57717111D01*
X10773000Y-57838246D01*
X10773000Y-57961754D01*
X10797095Y-58082889D01*
X10844360Y-58196996D01*
X10912977Y-58299689D01*
X11000311Y-58387023D01*
X11103004Y-58455640D01*
X11217111Y-58502905D01*
X11338246Y-58527000D01*
X11461754Y-58527000D01*
X11582889Y-58502905D01*
X11696996Y-58455640D01*
X11799689Y-58387023D01*
X11887023Y-58299689D01*
X11955640Y-58196996D01*
X11973000Y-58155086D01*
X11973000Y-64573000D01*
X402000Y-64573000D01*
X402000Y-27700000D01*
X1871418Y-27700000D01*
X1871418Y-29300000D01*
X1877732Y-29364103D01*
X1896430Y-29425743D01*
X1926794Y-29482550D01*
X1967657Y-29532343D01*
X2017450Y-29573206D01*
X2074257Y-29603570D01*
X2135897Y-29622268D01*
X2200000Y-29628582D01*
X3800000Y-29628582D01*
X3864103Y-29622268D01*
X3925743Y-29603570D01*
X3982550Y-29573206D01*
X4032343Y-29532343D01*
X4073206Y-29482550D01*
X4103570Y-29425743D01*
X4122268Y-29364103D01*
X4128582Y-29300000D01*
X4128582Y-28389000D01*
X5873000Y-28389000D01*
X5873000Y-28611000D01*
X5916310Y-28828734D01*
X6001266Y-29033835D01*
X6124602Y-29218421D01*
X6281579Y-29375398D01*
X6466165Y-29498734D01*
X6671266Y-29583690D01*
X6889000Y-29627000D01*
X7111000Y-29627000D01*
X7328734Y-29583690D01*
X7533835Y-29498734D01*
X7718421Y-29375398D01*
X7875398Y-29218421D01*
X7998734Y-29033835D01*
X8083690Y-28828734D01*
X8127000Y-28611000D01*
X8127000Y-28389000D01*
X8083690Y-28171266D01*
X7998734Y-27966165D01*
X7875398Y-27781579D01*
X7718421Y-27624602D01*
X7533835Y-27501266D01*
X7328734Y-27416310D01*
X7111000Y-27373000D01*
X6889000Y-27373000D01*
X6671266Y-27416310D01*
X6466165Y-27501266D01*
X6281579Y-27624602D01*
X6124602Y-27781579D01*
X6001266Y-27966165D01*
X5916310Y-28171266D01*
X5873000Y-28389000D01*
X4128582Y-28389000D01*
X4128582Y-27700000D01*
X4122268Y-27635897D01*
X4103570Y-27574257D01*
X4073206Y-27517450D01*
X4032343Y-27467657D01*
X3982550Y-27426794D01*
X3925743Y-27396430D01*
X3864103Y-27377732D01*
X3800000Y-27371418D01*
X2200000Y-27371418D01*
X2135897Y-27377732D01*
X2074257Y-27396430D01*
X2017450Y-27426794D01*
X1967657Y-27467657D01*
X1926794Y-27517450D01*
X1896430Y-27574257D01*
X1877732Y-27635897D01*
X1871418Y-27700000D01*
X402000Y-27700000D01*
X402000Y-22850000D01*
X1321418Y-22850000D01*
X1327732Y-22914103D01*
X1346430Y-22975743D01*
X1376794Y-23032550D01*
X1417657Y-23082343D01*
X1467450Y-23123206D01*
X1524257Y-23153570D01*
X1585897Y-23172268D01*
X1650000Y-23178582D01*
X2291250Y-23177000D01*
X2373000Y-23095250D01*
X2373000Y-22127000D01*
X2627000Y-22127000D01*
X2627000Y-23095250D01*
X2708750Y-23177000D01*
X3350000Y-23178582D01*
X3414103Y-23172268D01*
X3475743Y-23153570D01*
X3532550Y-23123206D01*
X3582343Y-23082343D01*
X3623206Y-23032550D01*
X3653570Y-22975743D01*
X3672268Y-22914103D01*
X3678582Y-22850000D01*
X3677000Y-22208750D01*
X3595250Y-22127000D01*
X2627000Y-22127000D01*
X2373000Y-22127000D01*
X1404750Y-22127000D01*
X1323000Y-22208750D01*
X1321418Y-22850000D01*
X402000Y-22850000D01*
X402000Y-22019658D01*
X434324Y-21689992D01*
X524357Y-21391786D01*
X652916Y-21150000D01*
X1321418Y-21150000D01*
X1323000Y-21791250D01*
X1404750Y-21873000D01*
X2373000Y-21873000D01*
X2373000Y-20904750D01*
X2627000Y-20904750D01*
X2627000Y-21873000D01*
X3595250Y-21873000D01*
X3677000Y-21791250D01*
X3678582Y-21150000D01*
X3672268Y-21085897D01*
X3653570Y-21024257D01*
X3623206Y-20967450D01*
X3582343Y-20917657D01*
X3532550Y-20876794D01*
X3475743Y-20846430D01*
X3414103Y-20827732D01*
X3350000Y-20821418D01*
X2708750Y-20823000D01*
X2627000Y-20904750D01*
X2373000Y-20904750D01*
X2291250Y-20823000D01*
X1650000Y-20821418D01*
X1585897Y-20827732D01*
X1524257Y-20846430D01*
X1467450Y-20876794D01*
X1417657Y-20917657D01*
X1376794Y-20967450D01*
X1346430Y-21024257D01*
X1327732Y-21085897D01*
X1321418Y-21150000D01*
X652916Y-21150000D01*
X670595Y-21116751D01*
X867473Y-20875355D01*
X1107487Y-20676797D01*
X1381498Y-20528640D01*
X1679064Y-20436528D01*
X2007573Y-20402000D01*
X5963420Y-20402000D01*
X5463837Y-20901583D01*
G36*
X39593408Y-46117706D02*
G01*
X39608337Y-46135897D01*
X39680969Y-46195505D01*
X39763835Y-46239798D01*
X39853750Y-46267073D01*
X39923835Y-46273976D01*
X39923843Y-46273976D01*
X39947258Y-46276282D01*
X39970673Y-46273976D01*
X40198380Y-46273976D01*
X40208403Y-46283999D01*
X40311096Y-46352616D01*
X40425203Y-46399881D01*
X40546338Y-46423976D01*
X40669846Y-46423976D01*
X40790981Y-46399881D01*
X40905088Y-46352616D01*
X41007781Y-46283999D01*
X41095115Y-46196665D01*
X41163732Y-46093972D01*
X41180035Y-46054614D01*
X45623001Y-50497581D01*
X45623000Y-51390288D01*
X45612977Y-51400311D01*
X45544360Y-51503004D01*
X45497095Y-51617111D01*
X45473000Y-51738246D01*
X45473000Y-51861754D01*
X45497095Y-51982889D01*
X45544360Y-52096996D01*
X45595144Y-52173000D01*
X43277621Y-52173000D01*
X43277000Y-52058750D01*
X43195250Y-51977000D01*
X42679333Y-51977000D01*
X42655780Y-51964265D01*
X42628819Y-51949443D01*
X42627727Y-51949097D01*
X42626718Y-51948551D01*
X42597308Y-51939447D01*
X42567987Y-51930146D01*
X42566848Y-51930018D01*
X42565752Y-51929679D01*
X42535135Y-51926461D01*
X42504566Y-51923032D01*
X42502365Y-51923017D01*
X42502283Y-51923008D01*
X42502201Y-51923015D01*
X42500000Y-51923000D01*
X41900000Y-51923000D01*
X41869398Y-51926001D01*
X41838726Y-51928792D01*
X41837624Y-51929116D01*
X41836485Y-51929228D01*
X41807007Y-51938128D01*
X41777504Y-51946811D01*
X41776491Y-51947341D01*
X41775390Y-51947673D01*
X41748190Y-51962136D01*
X41720947Y-51976378D01*
X41720173Y-51977000D01*
X41204750Y-51977000D01*
X41123000Y-52058750D01*
X41122379Y-52173000D01*
X37377000Y-52173000D01*
X37377000Y-51350000D01*
X41121418Y-51350000D01*
X41123000Y-51641250D01*
X41204750Y-51723000D01*
X42073000Y-51723000D01*
X42073000Y-51104750D01*
X42327000Y-51104750D01*
X42327000Y-51723000D01*
X43195250Y-51723000D01*
X43277000Y-51641250D01*
X43278582Y-51350000D01*
X43272268Y-51285897D01*
X43253570Y-51224257D01*
X43223206Y-51167450D01*
X43182343Y-51117657D01*
X43132550Y-51076794D01*
X43075743Y-51046430D01*
X43014103Y-51027732D01*
X42950000Y-51021418D01*
X42408750Y-51023000D01*
X42327000Y-51104750D01*
X42073000Y-51104750D01*
X41991250Y-51023000D01*
X41450000Y-51021418D01*
X41385897Y-51027732D01*
X41324257Y-51046430D01*
X41267450Y-51076794D01*
X41217657Y-51117657D01*
X41176794Y-51167450D01*
X41146430Y-51224257D01*
X41127732Y-51285897D01*
X41121418Y-51350000D01*
X37377000Y-51350000D01*
X37377000Y-45809712D01*
X37387023Y-45799689D01*
X37455640Y-45696996D01*
X37502905Y-45582889D01*
X37527000Y-45461754D01*
X37527000Y-45338246D01*
X37502905Y-45217111D01*
X37455640Y-45103004D01*
X37387023Y-45000311D01*
X37299689Y-44912977D01*
X37196996Y-44844360D01*
X37082889Y-44797095D01*
X36961754Y-44773000D01*
X36838246Y-44773000D01*
X36717111Y-44797095D01*
X36603004Y-44844360D01*
X36500311Y-44912977D01*
X36412977Y-45000311D01*
X36344360Y-45103004D01*
X36297095Y-45217111D01*
X36273000Y-45338246D01*
X36273000Y-45461754D01*
X36297095Y-45582889D01*
X36344360Y-45696996D01*
X36412977Y-45799689D01*
X36423001Y-45809713D01*
X36423000Y-52327887D01*
X36397891Y-52374863D01*
X36379283Y-52436205D01*
X36373000Y-52500000D01*
X36373000Y-53328156D01*
X34378157Y-55323000D01*
X34173790Y-55323000D01*
X34190405Y-55282889D01*
X34214500Y-55161754D01*
X34214500Y-55038246D01*
X34190405Y-54917111D01*
X34143140Y-54803004D01*
X34074523Y-54700311D01*
X33987189Y-54612977D01*
X33884496Y-54544360D01*
X33770389Y-54497095D01*
X33649254Y-54473000D01*
X33525746Y-54473000D01*
X33404611Y-54497095D01*
X33290504Y-54544360D01*
X33187811Y-54612977D01*
X33177788Y-54623000D01*
X28127000Y-54623000D01*
X28127000Y-53977000D01*
X33165288Y-53977000D01*
X33175311Y-53987023D01*
X33278004Y-54055640D01*
X33392111Y-54102905D01*
X33513246Y-54127000D01*
X33636754Y-54127000D01*
X33757889Y-54102905D01*
X33871996Y-54055640D01*
X33974689Y-53987023D01*
X34062023Y-53899689D01*
X34130640Y-53796996D01*
X34177905Y-53682889D01*
X34202000Y-53561754D01*
X34202000Y-53438246D01*
X34177905Y-53317111D01*
X34130640Y-53203004D01*
X34062023Y-53100311D01*
X33974689Y-53012977D01*
X33871996Y-52944360D01*
X33757889Y-52897095D01*
X33636754Y-52873000D01*
X33513246Y-52873000D01*
X33392111Y-52897095D01*
X33278004Y-52944360D01*
X33175311Y-53012977D01*
X33165288Y-53023000D01*
X28127000Y-53023000D01*
X28127000Y-52377000D01*
X33177788Y-52377000D01*
X33187811Y-52387023D01*
X33290504Y-52455640D01*
X33404611Y-52502905D01*
X33525746Y-52527000D01*
X33649254Y-52527000D01*
X33770389Y-52502905D01*
X33884496Y-52455640D01*
X33987189Y-52387023D01*
X34074523Y-52299689D01*
X34143140Y-52196996D01*
X34190405Y-52082889D01*
X34214500Y-51961754D01*
X34214500Y-51838246D01*
X34190405Y-51717111D01*
X34143140Y-51603004D01*
X34074523Y-51500311D01*
X33987189Y-51412977D01*
X33884496Y-51344360D01*
X33770389Y-51297095D01*
X33649254Y-51273000D01*
X33525746Y-51273000D01*
X33404611Y-51297095D01*
X33290504Y-51344360D01*
X33187811Y-51412977D01*
X33177788Y-51423000D01*
X28127000Y-51423000D01*
X28127000Y-43877000D01*
X35176585Y-43877000D01*
X35200000Y-43879306D01*
X35223415Y-43877000D01*
X35223423Y-43877000D01*
X35293508Y-43870097D01*
X35383423Y-43842822D01*
X35413024Y-43827000D01*
X35461754Y-43827000D01*
X35582889Y-43802905D01*
X35692080Y-43757676D01*
X35697095Y-43782889D01*
X35744360Y-43896996D01*
X35812977Y-43999689D01*
X35900311Y-44087023D01*
X36003004Y-44155640D01*
X36117111Y-44202905D01*
X36238246Y-44227000D01*
X36361754Y-44227000D01*
X36482889Y-44202905D01*
X36596996Y-44155640D01*
X36699689Y-44087023D01*
X36787023Y-43999689D01*
X36855640Y-43896996D01*
X36902905Y-43782889D01*
X36927000Y-43661754D01*
X36927000Y-43538246D01*
X36905411Y-43429708D01*
X39593408Y-46117706D01*
G37*
X39593408Y-46117706D02*
X39608337Y-46135897D01*
X39680969Y-46195505D01*
X39763835Y-46239798D01*
X39853750Y-46267073D01*
X39923835Y-46273976D01*
X39923843Y-46273976D01*
X39947258Y-46276282D01*
X39970673Y-46273976D01*
X40198380Y-46273976D01*
X40208403Y-46283999D01*
X40311096Y-46352616D01*
X40425203Y-46399881D01*
X40546338Y-46423976D01*
X40669846Y-46423976D01*
X40790981Y-46399881D01*
X40905088Y-46352616D01*
X41007781Y-46283999D01*
X41095115Y-46196665D01*
X41163732Y-46093972D01*
X41180035Y-46054614D01*
X45623001Y-50497581D01*
X45623000Y-51390288D01*
X45612977Y-51400311D01*
X45544360Y-51503004D01*
X45497095Y-51617111D01*
X45473000Y-51738246D01*
X45473000Y-51861754D01*
X45497095Y-51982889D01*
X45544360Y-52096996D01*
X45595144Y-52173000D01*
X43277621Y-52173000D01*
X43277000Y-52058750D01*
X43195250Y-51977000D01*
X42679333Y-51977000D01*
X42655780Y-51964265D01*
X42628819Y-51949443D01*
X42627727Y-51949097D01*
X42626718Y-51948551D01*
X42597308Y-51939447D01*
X42567987Y-51930146D01*
X42566848Y-51930018D01*
X42565752Y-51929679D01*
X42535135Y-51926461D01*
X42504566Y-51923032D01*
X42502365Y-51923017D01*
X42502283Y-51923008D01*
X42502201Y-51923015D01*
X42500000Y-51923000D01*
X41900000Y-51923000D01*
X41869398Y-51926001D01*
X41838726Y-51928792D01*
X41837624Y-51929116D01*
X41836485Y-51929228D01*
X41807007Y-51938128D01*
X41777504Y-51946811D01*
X41776491Y-51947341D01*
X41775390Y-51947673D01*
X41748190Y-51962136D01*
X41720947Y-51976378D01*
X41720173Y-51977000D01*
X41204750Y-51977000D01*
X41123000Y-52058750D01*
X41122379Y-52173000D01*
X37377000Y-52173000D01*
X37377000Y-51350000D01*
X41121418Y-51350000D01*
X41123000Y-51641250D01*
X41204750Y-51723000D01*
X42073000Y-51723000D01*
X42073000Y-51104750D01*
X42327000Y-51104750D01*
X42327000Y-51723000D01*
X43195250Y-51723000D01*
X43277000Y-51641250D01*
X43278582Y-51350000D01*
X43272268Y-51285897D01*
X43253570Y-51224257D01*
X43223206Y-51167450D01*
X43182343Y-51117657D01*
X43132550Y-51076794D01*
X43075743Y-51046430D01*
X43014103Y-51027732D01*
X42950000Y-51021418D01*
X42408750Y-51023000D01*
X42327000Y-51104750D01*
X42073000Y-51104750D01*
X41991250Y-51023000D01*
X41450000Y-51021418D01*
X41385897Y-51027732D01*
X41324257Y-51046430D01*
X41267450Y-51076794D01*
X41217657Y-51117657D01*
X41176794Y-51167450D01*
X41146430Y-51224257D01*
X41127732Y-51285897D01*
X41121418Y-51350000D01*
X37377000Y-51350000D01*
X37377000Y-45809712D01*
X37387023Y-45799689D01*
X37455640Y-45696996D01*
X37502905Y-45582889D01*
X37527000Y-45461754D01*
X37527000Y-45338246D01*
X37502905Y-45217111D01*
X37455640Y-45103004D01*
X37387023Y-45000311D01*
X37299689Y-44912977D01*
X37196996Y-44844360D01*
X37082889Y-44797095D01*
X36961754Y-44773000D01*
X36838246Y-44773000D01*
X36717111Y-44797095D01*
X36603004Y-44844360D01*
X36500311Y-44912977D01*
X36412977Y-45000311D01*
X36344360Y-45103004D01*
X36297095Y-45217111D01*
X36273000Y-45338246D01*
X36273000Y-45461754D01*
X36297095Y-45582889D01*
X36344360Y-45696996D01*
X36412977Y-45799689D01*
X36423001Y-45809713D01*
X36423000Y-52327887D01*
X36397891Y-52374863D01*
X36379283Y-52436205D01*
X36373000Y-52500000D01*
X36373000Y-53328156D01*
X34378157Y-55323000D01*
X34173790Y-55323000D01*
X34190405Y-55282889D01*
X34214500Y-55161754D01*
X34214500Y-55038246D01*
X34190405Y-54917111D01*
X34143140Y-54803004D01*
X34074523Y-54700311D01*
X33987189Y-54612977D01*
X33884496Y-54544360D01*
X33770389Y-54497095D01*
X33649254Y-54473000D01*
X33525746Y-54473000D01*
X33404611Y-54497095D01*
X33290504Y-54544360D01*
X33187811Y-54612977D01*
X33177788Y-54623000D01*
X28127000Y-54623000D01*
X28127000Y-53977000D01*
X33165288Y-53977000D01*
X33175311Y-53987023D01*
X33278004Y-54055640D01*
X33392111Y-54102905D01*
X33513246Y-54127000D01*
X33636754Y-54127000D01*
X33757889Y-54102905D01*
X33871996Y-54055640D01*
X33974689Y-53987023D01*
X34062023Y-53899689D01*
X34130640Y-53796996D01*
X34177905Y-53682889D01*
X34202000Y-53561754D01*
X34202000Y-53438246D01*
X34177905Y-53317111D01*
X34130640Y-53203004D01*
X34062023Y-53100311D01*
X33974689Y-53012977D01*
X33871996Y-52944360D01*
X33757889Y-52897095D01*
X33636754Y-52873000D01*
X33513246Y-52873000D01*
X33392111Y-52897095D01*
X33278004Y-52944360D01*
X33175311Y-53012977D01*
X33165288Y-53023000D01*
X28127000Y-53023000D01*
X28127000Y-52377000D01*
X33177788Y-52377000D01*
X33187811Y-52387023D01*
X33290504Y-52455640D01*
X33404611Y-52502905D01*
X33525746Y-52527000D01*
X33649254Y-52527000D01*
X33770389Y-52502905D01*
X33884496Y-52455640D01*
X33987189Y-52387023D01*
X34074523Y-52299689D01*
X34143140Y-52196996D01*
X34190405Y-52082889D01*
X34214500Y-51961754D01*
X34214500Y-51838246D01*
X34190405Y-51717111D01*
X34143140Y-51603004D01*
X34074523Y-51500311D01*
X33987189Y-51412977D01*
X33884496Y-51344360D01*
X33770389Y-51297095D01*
X33649254Y-51273000D01*
X33525746Y-51273000D01*
X33404611Y-51297095D01*
X33290504Y-51344360D01*
X33187811Y-51412977D01*
X33177788Y-51423000D01*
X28127000Y-51423000D01*
X28127000Y-43877000D01*
X35176585Y-43877000D01*
X35200000Y-43879306D01*
X35223415Y-43877000D01*
X35223423Y-43877000D01*
X35293508Y-43870097D01*
X35383423Y-43842822D01*
X35413024Y-43827000D01*
X35461754Y-43827000D01*
X35582889Y-43802905D01*
X35692080Y-43757676D01*
X35697095Y-43782889D01*
X35744360Y-43896996D01*
X35812977Y-43999689D01*
X35900311Y-44087023D01*
X36003004Y-44155640D01*
X36117111Y-44202905D01*
X36238246Y-44227000D01*
X36361754Y-44227000D01*
X36482889Y-44202905D01*
X36596996Y-44155640D01*
X36699689Y-44087023D01*
X36787023Y-43999689D01*
X36855640Y-43896996D01*
X36902905Y-43782889D01*
X36927000Y-43661754D01*
X36927000Y-43538246D01*
X36905411Y-43429708D01*
X39593408Y-46117706D01*
G36*
X41549131Y-20204036D02*
G01*
X41582799Y-20217913D01*
X41616306Y-20232275D01*
X41621668Y-20233935D01*
X41995340Y-20346752D01*
X42031069Y-20353827D01*
X42066720Y-20361405D01*
X42072302Y-20361991D01*
X42460487Y-20400053D01*
X42480253Y-20402000D01*
X47980342Y-20402000D01*
X48310008Y-20434324D01*
X48608214Y-20524357D01*
X48883249Y-20670595D01*
X49124645Y-20867473D01*
X49323203Y-21107487D01*
X49471360Y-21381498D01*
X49563472Y-21679064D01*
X49598001Y-22007582D01*
X49598000Y-52173000D01*
X48777000Y-52173000D01*
X48777000Y-51723414D01*
X48779306Y-51699999D01*
X48777000Y-51676584D01*
X48777000Y-51676577D01*
X48770097Y-51606492D01*
X48742822Y-51516577D01*
X48698529Y-51433711D01*
X48638921Y-51361079D01*
X48620730Y-51346150D01*
X39074580Y-41800000D01*
X40221418Y-41800000D01*
X40227732Y-41864103D01*
X40246430Y-41925743D01*
X40276794Y-41982550D01*
X40317657Y-42032343D01*
X40367450Y-42073206D01*
X40424257Y-42103570D01*
X40485897Y-42122268D01*
X40550000Y-42128582D01*
X41091250Y-42127000D01*
X41173000Y-42045250D01*
X41173000Y-41427000D01*
X41427000Y-41427000D01*
X41427000Y-42045250D01*
X41508750Y-42127000D01*
X42050000Y-42128582D01*
X42114103Y-42122268D01*
X42175743Y-42103570D01*
X42232550Y-42073206D01*
X42282343Y-42032343D01*
X42323206Y-41982550D01*
X42353570Y-41925743D01*
X42372268Y-41864103D01*
X42378582Y-41800000D01*
X42721418Y-41800000D01*
X42727732Y-41864103D01*
X42746430Y-41925743D01*
X42776794Y-41982550D01*
X42817657Y-42032343D01*
X42867450Y-42073206D01*
X42924257Y-42103570D01*
X42985897Y-42122268D01*
X43050000Y-42128582D01*
X43591250Y-42127000D01*
X43673000Y-42045250D01*
X43673000Y-41427000D01*
X43927000Y-41427000D01*
X43927000Y-42045250D01*
X44008750Y-42127000D01*
X44550000Y-42128582D01*
X44614103Y-42122268D01*
X44675743Y-42103570D01*
X44732550Y-42073206D01*
X44782343Y-42032343D01*
X44823206Y-41982550D01*
X44853570Y-41925743D01*
X44872268Y-41864103D01*
X44878582Y-41800000D01*
X45221418Y-41800000D01*
X45227732Y-41864103D01*
X45246430Y-41925743D01*
X45276794Y-41982550D01*
X45317657Y-42032343D01*
X45367450Y-42073206D01*
X45424257Y-42103570D01*
X45485897Y-42122268D01*
X45550000Y-42128582D01*
X46091250Y-42127000D01*
X46173000Y-42045250D01*
X46173000Y-41427000D01*
X46427000Y-41427000D01*
X46427000Y-42045250D01*
X46508750Y-42127000D01*
X47050000Y-42128582D01*
X47114103Y-42122268D01*
X47175743Y-42103570D01*
X47232550Y-42073206D01*
X47282343Y-42032343D01*
X47323206Y-41982550D01*
X47353570Y-41925743D01*
X47372268Y-41864103D01*
X47378582Y-41800000D01*
X47377000Y-41508750D01*
X47295250Y-41427000D01*
X46427000Y-41427000D01*
X46173000Y-41427000D01*
X45304750Y-41427000D01*
X45223000Y-41508750D01*
X45221418Y-41800000D01*
X44878582Y-41800000D01*
X44877000Y-41508750D01*
X44795250Y-41427000D01*
X43927000Y-41427000D01*
X43673000Y-41427000D01*
X42804750Y-41427000D01*
X42723000Y-41508750D01*
X42721418Y-41800000D01*
X42378582Y-41800000D01*
X42377000Y-41508750D01*
X42295250Y-41427000D01*
X41427000Y-41427000D01*
X41173000Y-41427000D01*
X40304750Y-41427000D01*
X40223000Y-41508750D01*
X40221418Y-41800000D01*
X39074580Y-41800000D01*
X33821130Y-36546551D01*
X33821130Y-36303704D01*
X33938246Y-36327000D01*
X34061754Y-36327000D01*
X34182889Y-36302905D01*
X34296996Y-36255640D01*
X34399689Y-36187023D01*
X34487023Y-36099689D01*
X34523001Y-36045844D01*
X34523001Y-36176575D01*
X34520694Y-36200000D01*
X34529903Y-36293507D01*
X34557178Y-36383422D01*
X34571811Y-36410797D01*
X34601472Y-36466289D01*
X34623810Y-36493508D01*
X34642298Y-36516035D01*
X34661080Y-36538921D01*
X34679271Y-36553850D01*
X36273000Y-38147580D01*
X36273000Y-38161754D01*
X36297095Y-38282889D01*
X36344360Y-38396996D01*
X36412977Y-38499689D01*
X36500311Y-38587023D01*
X36603004Y-38655640D01*
X36717111Y-38702905D01*
X36838246Y-38727000D01*
X36961754Y-38727000D01*
X37082889Y-38702905D01*
X37196996Y-38655640D01*
X37299689Y-38587023D01*
X37387023Y-38499689D01*
X37455640Y-38396996D01*
X37502905Y-38282889D01*
X37527000Y-38161754D01*
X37527000Y-38038246D01*
X37520088Y-38003497D01*
X37638246Y-38027000D01*
X37761754Y-38027000D01*
X37882889Y-38002905D01*
X37996996Y-37955640D01*
X38099689Y-37887023D01*
X38187023Y-37799689D01*
X38255640Y-37696996D01*
X38302905Y-37582889D01*
X38319392Y-37500000D01*
X39320694Y-37500000D01*
X39323000Y-37523415D01*
X39323001Y-39526575D01*
X39320694Y-39550000D01*
X39329903Y-39643507D01*
X39357178Y-39733422D01*
X39357333Y-39733712D01*
X39401472Y-39816289D01*
X39461080Y-39888921D01*
X39479271Y-39903850D01*
X39896149Y-40320729D01*
X39911079Y-40338921D01*
X39983711Y-40398529D01*
X40066577Y-40442822D01*
X40156492Y-40470097D01*
X40221418Y-40476492D01*
X40221418Y-40500000D01*
X40227732Y-40564103D01*
X40246430Y-40625743D01*
X40259396Y-40650000D01*
X40246430Y-40674257D01*
X40227732Y-40735897D01*
X40221418Y-40800000D01*
X40223000Y-41091250D01*
X40304750Y-41173000D01*
X41173000Y-41173000D01*
X41173000Y-41153000D01*
X41427000Y-41153000D01*
X41427000Y-41173000D01*
X42295250Y-41173000D01*
X42377000Y-41091250D01*
X42378582Y-40800000D01*
X42372268Y-40735897D01*
X42353570Y-40674257D01*
X42340604Y-40650000D01*
X42353570Y-40625743D01*
X42372268Y-40564103D01*
X42378582Y-40500000D01*
X42378582Y-39500000D01*
X42372268Y-39435897D01*
X42353570Y-39374257D01*
X42340604Y-39350000D01*
X42353570Y-39325743D01*
X42372268Y-39264103D01*
X42378582Y-39200000D01*
X42378582Y-39177000D01*
X42721418Y-39177000D01*
X42721418Y-39200000D01*
X42727732Y-39264103D01*
X42746430Y-39325743D01*
X42759396Y-39350000D01*
X42746430Y-39374257D01*
X42727732Y-39435897D01*
X42721418Y-39500000D01*
X42721418Y-40500000D01*
X42727732Y-40564103D01*
X42746430Y-40625743D01*
X42759396Y-40650000D01*
X42746430Y-40674257D01*
X42727732Y-40735897D01*
X42721418Y-40800000D01*
X42723000Y-41091250D01*
X42804750Y-41173000D01*
X43673000Y-41173000D01*
X43673000Y-41153000D01*
X43927000Y-41153000D01*
X43927000Y-41173000D01*
X44795250Y-41173000D01*
X44877000Y-41091250D01*
X44878582Y-40800000D01*
X44872268Y-40735897D01*
X44853570Y-40674257D01*
X44840604Y-40650000D01*
X44853570Y-40625743D01*
X44871651Y-40566139D01*
X44896996Y-40555640D01*
X44999689Y-40487023D01*
X45087023Y-40399689D01*
X45155640Y-40296996D01*
X45202905Y-40182889D01*
X45221418Y-40089817D01*
X45221418Y-40500000D01*
X45227732Y-40564103D01*
X45246430Y-40625743D01*
X45259396Y-40650000D01*
X45246430Y-40674257D01*
X45227732Y-40735897D01*
X45221418Y-40800000D01*
X45223000Y-41091250D01*
X45304750Y-41173000D01*
X46173000Y-41173000D01*
X46173000Y-41153000D01*
X46427000Y-41153000D01*
X46427000Y-41173000D01*
X47295250Y-41173000D01*
X47377000Y-41091250D01*
X47378582Y-40800000D01*
X47372268Y-40735897D01*
X47353570Y-40674257D01*
X47340604Y-40650000D01*
X47353570Y-40625743D01*
X47372268Y-40564103D01*
X47378582Y-40500000D01*
X47378582Y-40476492D01*
X47443508Y-40470097D01*
X47533423Y-40442822D01*
X47616289Y-40398529D01*
X47688921Y-40338921D01*
X47703855Y-40320724D01*
X47920724Y-40103855D01*
X47938921Y-40088921D01*
X47998529Y-40016289D01*
X48042822Y-39933423D01*
X48070097Y-39843508D01*
X48077000Y-39773423D01*
X48077000Y-39773416D01*
X48079306Y-39750001D01*
X48077000Y-39726586D01*
X48077000Y-37523412D01*
X48079306Y-37499999D01*
X48077000Y-37476586D01*
X48077000Y-37476577D01*
X48070097Y-37406492D01*
X48042822Y-37316577D01*
X47998529Y-37233711D01*
X47959855Y-37186587D01*
X47953852Y-37179272D01*
X47953850Y-37179270D01*
X47938921Y-37161079D01*
X47920729Y-37146149D01*
X47253855Y-36479276D01*
X47238921Y-36461079D01*
X47166289Y-36401471D01*
X47083423Y-36357178D01*
X46993508Y-36329903D01*
X46923423Y-36323000D01*
X46923415Y-36323000D01*
X46900000Y-36320694D01*
X46876585Y-36323000D01*
X43833083Y-36323000D01*
X43843264Y-36312819D01*
X43911881Y-36210126D01*
X43959146Y-36096019D01*
X43983241Y-35974884D01*
X43983241Y-35851376D01*
X43959146Y-35730241D01*
X43911881Y-35616134D01*
X43843264Y-35513441D01*
X43755930Y-35426107D01*
X43653237Y-35357490D01*
X43539130Y-35310225D01*
X43417995Y-35286130D01*
X43403821Y-35286130D01*
X42677000Y-34559310D01*
X42677000Y-34409712D01*
X42687023Y-34399689D01*
X42755640Y-34296996D01*
X42802905Y-34182889D01*
X42827000Y-34061754D01*
X42827000Y-33938246D01*
X42802905Y-33817111D01*
X42755640Y-33703004D01*
X42687023Y-33600311D01*
X42599689Y-33512977D01*
X42496996Y-33444360D01*
X42382889Y-33397095D01*
X42261754Y-33373000D01*
X42138246Y-33373000D01*
X42017111Y-33397095D01*
X41903004Y-33444360D01*
X41800311Y-33512977D01*
X41712977Y-33600311D01*
X41644360Y-33703004D01*
X41597095Y-33817111D01*
X41573000Y-33938246D01*
X41573000Y-34061754D01*
X41597095Y-34182889D01*
X41644360Y-34296996D01*
X41712977Y-34399689D01*
X41723001Y-34409713D01*
X41723001Y-34733465D01*
X41720694Y-34756889D01*
X41729903Y-34850396D01*
X41736760Y-34873000D01*
X41638246Y-34873000D01*
X41517111Y-34897095D01*
X41403004Y-34944360D01*
X41377000Y-34961735D01*
X41377000Y-34309712D01*
X41387023Y-34299689D01*
X41455640Y-34196996D01*
X41502905Y-34082889D01*
X41527000Y-33961754D01*
X41527000Y-33838246D01*
X41502905Y-33717111D01*
X41455640Y-33603004D01*
X41387023Y-33500311D01*
X41299689Y-33412977D01*
X41196996Y-33344360D01*
X41082889Y-33297095D01*
X40961754Y-33273000D01*
X40838246Y-33273000D01*
X40717111Y-33297095D01*
X40603004Y-33344360D01*
X40500311Y-33412977D01*
X40412977Y-33500311D01*
X40344360Y-33603004D01*
X40297095Y-33717111D01*
X40273000Y-33838246D01*
X40273000Y-33961754D01*
X40297095Y-34082889D01*
X40344360Y-34196996D01*
X40412977Y-34299689D01*
X40423000Y-34309712D01*
X40423001Y-36202419D01*
X39479276Y-37146145D01*
X39461079Y-37161079D01*
X39401471Y-37233711D01*
X39357178Y-37316578D01*
X39329903Y-37406493D01*
X39323000Y-37476578D01*
X39323000Y-37476585D01*
X39320694Y-37500000D01*
X38319392Y-37500000D01*
X38327000Y-37461754D01*
X38327000Y-37338246D01*
X38302905Y-37217111D01*
X38255640Y-37103004D01*
X38187023Y-37000311D01*
X38177000Y-36990288D01*
X38177000Y-34897579D01*
X42052700Y-31021880D01*
X42085851Y-31035611D01*
X42293925Y-31077000D01*
X42506075Y-31077000D01*
X42714149Y-31035611D01*
X42910151Y-30954425D01*
X43086547Y-30836560D01*
X43236560Y-30686547D01*
X43354425Y-30510151D01*
X43435611Y-30314149D01*
X43477000Y-30106075D01*
X43477000Y-29893925D01*
X43435611Y-29685851D01*
X43354425Y-29489849D01*
X43236560Y-29313453D01*
X43086547Y-29163440D01*
X42910151Y-29045575D01*
X42714149Y-28964389D01*
X42506075Y-28923000D01*
X42293925Y-28923000D01*
X42085851Y-28964389D01*
X41889849Y-29045575D01*
X41713453Y-29163440D01*
X41563440Y-29313453D01*
X41445575Y-29489849D01*
X41364389Y-29685851D01*
X41323000Y-29893925D01*
X41323000Y-30106075D01*
X41364389Y-30314149D01*
X41378120Y-30347300D01*
X37379271Y-34346150D01*
X37361080Y-34361079D01*
X37301472Y-34433711D01*
X37289751Y-34455640D01*
X37257178Y-34516578D01*
X37229903Y-34606493D01*
X37220694Y-34700000D01*
X37223001Y-34723425D01*
X37223000Y-36990288D01*
X37212977Y-37000311D01*
X37144360Y-37103004D01*
X37097095Y-37217111D01*
X37073000Y-37338246D01*
X37073000Y-37461754D01*
X37079912Y-37496503D01*
X36961754Y-37473000D01*
X36947580Y-37473000D01*
X35477000Y-36002421D01*
X35477000Y-34363712D01*
X35500311Y-34387023D01*
X35603004Y-34455640D01*
X35717111Y-34502905D01*
X35838246Y-34527000D01*
X35961754Y-34527000D01*
X36082889Y-34502905D01*
X36196996Y-34455640D01*
X36299689Y-34387023D01*
X36387023Y-34299689D01*
X36455640Y-34196996D01*
X36502905Y-34082889D01*
X36527000Y-33961754D01*
X36527000Y-33947579D01*
X43736333Y-26738246D01*
X44573000Y-26738246D01*
X44573000Y-26861754D01*
X44597095Y-26982889D01*
X44644360Y-27096996D01*
X44712977Y-27199689D01*
X44800311Y-27287023D01*
X44903004Y-27355640D01*
X45017111Y-27402905D01*
X45138246Y-27427000D01*
X45152421Y-27427000D01*
X47079272Y-29353852D01*
X47079277Y-29353856D01*
X48223000Y-30497580D01*
X48223001Y-46402419D01*
X47252421Y-47373000D01*
X47238246Y-47373000D01*
X47117111Y-47397095D01*
X47003004Y-47444360D01*
X46900311Y-47512977D01*
X46812977Y-47600311D01*
X46744360Y-47703004D01*
X46697095Y-47817111D01*
X46673000Y-47938246D01*
X46673000Y-48061754D01*
X46697095Y-48182889D01*
X46744360Y-48296996D01*
X46812977Y-48399689D01*
X46900311Y-48487023D01*
X47003004Y-48555640D01*
X47117111Y-48602905D01*
X47238246Y-48627000D01*
X47361754Y-48627000D01*
X47482889Y-48602905D01*
X47596996Y-48555640D01*
X47699689Y-48487023D01*
X47787023Y-48399689D01*
X47855640Y-48296996D01*
X47902905Y-48182889D01*
X47927000Y-48061754D01*
X47927000Y-48047579D01*
X49020729Y-46953851D01*
X49038921Y-46938921D01*
X49098529Y-46866289D01*
X49142822Y-46783423D01*
X49170097Y-46693508D01*
X49177000Y-46623423D01*
X49177000Y-46623415D01*
X49179306Y-46600000D01*
X49177000Y-46576585D01*
X49177000Y-30323415D01*
X49179306Y-30300000D01*
X49177000Y-30276585D01*
X49177000Y-30276577D01*
X49170097Y-30206492D01*
X49142822Y-30116577D01*
X49098529Y-30033711D01*
X49038921Y-29961079D01*
X49020729Y-29946149D01*
X47753856Y-28679277D01*
X47753852Y-28679272D01*
X45827000Y-26752421D01*
X45827000Y-26738246D01*
X45802905Y-26617111D01*
X45755640Y-26503004D01*
X45687023Y-26400311D01*
X45599689Y-26312977D01*
X45496996Y-26244360D01*
X45382889Y-26197095D01*
X45261754Y-26173000D01*
X45138246Y-26173000D01*
X45017111Y-26197095D01*
X44903004Y-26244360D01*
X44800311Y-26312977D01*
X44712977Y-26400311D01*
X44644360Y-26503004D01*
X44597095Y-26617111D01*
X44573000Y-26738246D01*
X43736333Y-26738246D01*
X44671310Y-25803270D01*
X44836682Y-25871769D01*
X45064076Y-25917000D01*
X45295924Y-25917000D01*
X45523318Y-25871769D01*
X45737519Y-25783044D01*
X45930294Y-25654236D01*
X46094236Y-25490294D01*
X46223044Y-25297519D01*
X46311769Y-25083318D01*
X46318697Y-25048486D01*
X46584139Y-25048486D01*
X46666147Y-25264154D01*
X46788654Y-25459679D01*
X46946952Y-25627547D01*
X47134958Y-25761307D01*
X47345447Y-25855819D01*
X47411515Y-25875855D01*
X47593000Y-25827862D01*
X47593000Y-24867000D01*
X47847000Y-24867000D01*
X47847000Y-25827862D01*
X48028485Y-25875855D01*
X48094553Y-25855819D01*
X48305042Y-25761307D01*
X48493048Y-25627547D01*
X48651346Y-25459679D01*
X48773853Y-25264154D01*
X48855861Y-25048486D01*
X48808384Y-24867000D01*
X47847000Y-24867000D01*
X47593000Y-24867000D01*
X46631616Y-24867000D01*
X46584139Y-25048486D01*
X46318697Y-25048486D01*
X46357000Y-24855924D01*
X46357000Y-24624076D01*
X46318698Y-24431514D01*
X46584139Y-24431514D01*
X46631616Y-24613000D01*
X47593000Y-24613000D01*
X47593000Y-23652138D01*
X47847000Y-23652138D01*
X47847000Y-24613000D01*
X48808384Y-24613000D01*
X48855861Y-24431514D01*
X48773853Y-24215846D01*
X48651346Y-24020321D01*
X48493048Y-23852453D01*
X48305042Y-23718693D01*
X48094553Y-23624181D01*
X48028485Y-23604145D01*
X47847000Y-23652138D01*
X47593000Y-23652138D01*
X47411515Y-23604145D01*
X47345447Y-23624181D01*
X47134958Y-23718693D01*
X46946952Y-23852453D01*
X46788654Y-24020321D01*
X46666147Y-24215846D01*
X46584139Y-24431514D01*
X46318698Y-24431514D01*
X46311769Y-24396682D01*
X46223044Y-24182481D01*
X46094236Y-23989706D01*
X45930294Y-23825764D01*
X45737519Y-23696956D01*
X45523318Y-23608231D01*
X45295924Y-23563000D01*
X45064076Y-23563000D01*
X44836682Y-23608231D01*
X44622481Y-23696956D01*
X44429706Y-23825764D01*
X44265764Y-23989706D01*
X44136956Y-24182481D01*
X44048231Y-24396682D01*
X44003000Y-24624076D01*
X44003000Y-24855924D01*
X44047214Y-25078206D01*
X37817896Y-31307525D01*
X37827000Y-31261754D01*
X37827000Y-31247579D01*
X42960730Y-26113850D01*
X42978921Y-26098921D01*
X43009978Y-26061079D01*
X43038529Y-26026289D01*
X43082822Y-25943423D01*
X43110097Y-25853508D01*
X43112623Y-25827862D01*
X43113614Y-25817799D01*
X43197519Y-25783044D01*
X43390294Y-25654236D01*
X43554236Y-25490294D01*
X43683044Y-25297519D01*
X43771769Y-25083318D01*
X43817000Y-24855924D01*
X43817000Y-24624076D01*
X43771769Y-24396682D01*
X43683044Y-24182481D01*
X43554236Y-23989706D01*
X43390294Y-23825764D01*
X43197519Y-23696956D01*
X42983318Y-23608231D01*
X42755924Y-23563000D01*
X42524076Y-23563000D01*
X42296682Y-23608231D01*
X42082481Y-23696956D01*
X41889706Y-23825764D01*
X41877000Y-23838470D01*
X41877000Y-23637579D01*
X42216163Y-23298417D01*
X42296682Y-23331769D01*
X42524076Y-23377000D01*
X42755924Y-23377000D01*
X42983318Y-23331769D01*
X43197519Y-23243044D01*
X43390294Y-23114236D01*
X43554236Y-22950294D01*
X43683044Y-22757519D01*
X43771769Y-22543318D01*
X43817000Y-22315924D01*
X43817000Y-22084076D01*
X44003000Y-22084076D01*
X44003000Y-22315924D01*
X44048231Y-22543318D01*
X44136956Y-22757519D01*
X44265764Y-22950294D01*
X44429706Y-23114236D01*
X44622481Y-23243044D01*
X44836682Y-23331769D01*
X45064076Y-23377000D01*
X45295924Y-23377000D01*
X45523318Y-23331769D01*
X45737519Y-23243044D01*
X45930294Y-23114236D01*
X46094236Y-22950294D01*
X46223044Y-22757519D01*
X46311769Y-22543318D01*
X46357000Y-22315924D01*
X46357000Y-22084076D01*
X46543000Y-22084076D01*
X46543000Y-22315924D01*
X46588231Y-22543318D01*
X46676956Y-22757519D01*
X46805764Y-22950294D01*
X46969706Y-23114236D01*
X47162481Y-23243044D01*
X47376682Y-23331769D01*
X47604076Y-23377000D01*
X47835924Y-23377000D01*
X48063318Y-23331769D01*
X48277519Y-23243044D01*
X48470294Y-23114236D01*
X48634236Y-22950294D01*
X48763044Y-22757519D01*
X48851769Y-22543318D01*
X48897000Y-22315924D01*
X48897000Y-22084076D01*
X48851769Y-21856682D01*
X48763044Y-21642481D01*
X48634236Y-21449706D01*
X48470294Y-21285764D01*
X48277519Y-21156956D01*
X48063318Y-21068231D01*
X47835924Y-21023000D01*
X47604076Y-21023000D01*
X47376682Y-21068231D01*
X47162481Y-21156956D01*
X46969706Y-21285764D01*
X46805764Y-21449706D01*
X46676956Y-21642481D01*
X46588231Y-21856682D01*
X46543000Y-22084076D01*
X46357000Y-22084076D01*
X46311769Y-21856682D01*
X46223044Y-21642481D01*
X46094236Y-21449706D01*
X45930294Y-21285764D01*
X45737519Y-21156956D01*
X45523318Y-21068231D01*
X45295924Y-21023000D01*
X45064076Y-21023000D01*
X44836682Y-21068231D01*
X44622481Y-21156956D01*
X44429706Y-21285764D01*
X44265764Y-21449706D01*
X44136956Y-21642481D01*
X44048231Y-21856682D01*
X44003000Y-22084076D01*
X43817000Y-22084076D01*
X43771769Y-21856682D01*
X43683044Y-21642481D01*
X43554236Y-21449706D01*
X43390294Y-21285764D01*
X43197519Y-21156956D01*
X42983318Y-21068231D01*
X42755924Y-21023000D01*
X42524076Y-21023000D01*
X42296682Y-21068231D01*
X42082481Y-21156956D01*
X41889706Y-21285764D01*
X41725764Y-21449706D01*
X41596956Y-21642481D01*
X41508231Y-21856682D01*
X41463000Y-22084076D01*
X41463000Y-22315924D01*
X41508231Y-22543318D01*
X41541583Y-22623837D01*
X41278582Y-22886839D01*
X41278582Y-21350000D01*
X41272268Y-21285897D01*
X41253570Y-21224257D01*
X41223206Y-21167450D01*
X41182343Y-21117657D01*
X41132550Y-21076794D01*
X41075743Y-21046430D01*
X41014103Y-21027732D01*
X40950000Y-21021418D01*
X39250000Y-21021418D01*
X39185897Y-21027732D01*
X39124257Y-21046430D01*
X39067450Y-21076794D01*
X39017657Y-21117657D01*
X38976794Y-21167450D01*
X38946430Y-21224257D01*
X38927732Y-21285897D01*
X38921418Y-21350000D01*
X38921418Y-21723508D01*
X38856492Y-21729903D01*
X38766577Y-21757178D01*
X38683711Y-21801471D01*
X38650204Y-21828970D01*
X38611079Y-21861079D01*
X38596149Y-21879271D01*
X38279276Y-22196145D01*
X38261079Y-22211079D01*
X38201471Y-22283711D01*
X38157178Y-22366578D01*
X38129903Y-22456493D01*
X38123000Y-22526578D01*
X38123000Y-22526585D01*
X38120694Y-22550000D01*
X38123000Y-22573415D01*
X38123001Y-26361736D01*
X38096996Y-26344360D01*
X37982889Y-26297095D01*
X37861754Y-26273000D01*
X37738246Y-26273000D01*
X37617111Y-26297095D01*
X37503004Y-26344360D01*
X37400311Y-26412977D01*
X37390288Y-26423000D01*
X34897580Y-26423000D01*
X32189597Y-23715018D01*
X32202905Y-23682889D01*
X32227000Y-23561754D01*
X32227000Y-23438246D01*
X32202905Y-23317111D01*
X32155640Y-23203004D01*
X32087023Y-23100311D01*
X31999689Y-23012977D01*
X31896996Y-22944360D01*
X31782889Y-22897095D01*
X31661754Y-22873000D01*
X31538246Y-22873000D01*
X31417111Y-22897095D01*
X31303004Y-22944360D01*
X31200311Y-23012977D01*
X31112977Y-23100311D01*
X31044360Y-23203004D01*
X31036077Y-23223000D01*
X29502280Y-23223000D01*
X29560294Y-23184236D01*
X29724236Y-23020294D01*
X29837476Y-22850818D01*
X33985329Y-22850818D01*
X33985329Y-23149182D01*
X34043537Y-23441813D01*
X34157716Y-23717466D01*
X34323478Y-23965547D01*
X34534453Y-24176522D01*
X34782534Y-24342284D01*
X35058187Y-24456463D01*
X35350818Y-24514671D01*
X35649182Y-24514671D01*
X35941813Y-24456463D01*
X36217466Y-24342284D01*
X36465547Y-24176522D01*
X36676522Y-23965547D01*
X36842284Y-23717466D01*
X36956463Y-23441813D01*
X37014671Y-23149182D01*
X37014671Y-22850818D01*
X36956463Y-22558187D01*
X36842284Y-22282534D01*
X36676522Y-22034453D01*
X36465547Y-21823478D01*
X36217466Y-21657716D01*
X35941813Y-21543537D01*
X35649182Y-21485329D01*
X35350818Y-21485329D01*
X35058187Y-21543537D01*
X34782534Y-21657716D01*
X34534453Y-21823478D01*
X34323478Y-22034453D01*
X34157716Y-22282534D01*
X34043537Y-22558187D01*
X33985329Y-22850818D01*
X29837476Y-22850818D01*
X29853044Y-22827519D01*
X29941769Y-22613318D01*
X29987000Y-22385924D01*
X29987000Y-22154076D01*
X29941769Y-21926682D01*
X29853044Y-21712481D01*
X29724236Y-21519706D01*
X29560294Y-21355764D01*
X29367519Y-21226956D01*
X29153318Y-21138231D01*
X28925924Y-21093000D01*
X28694076Y-21093000D01*
X28466682Y-21138231D01*
X28252481Y-21226956D01*
X28059706Y-21355764D01*
X27895764Y-21519706D01*
X27766956Y-21712481D01*
X27678231Y-21926682D01*
X27633000Y-22154076D01*
X27633000Y-22385924D01*
X27678231Y-22613318D01*
X27766956Y-22827519D01*
X27895764Y-23020294D01*
X28059706Y-23184236D01*
X28117720Y-23223000D01*
X26962280Y-23223000D01*
X27020294Y-23184236D01*
X27184236Y-23020294D01*
X27313044Y-22827519D01*
X27401769Y-22613318D01*
X27447000Y-22385924D01*
X27447000Y-22154076D01*
X27401769Y-21926682D01*
X27313044Y-21712481D01*
X27184236Y-21519706D01*
X27020294Y-21355764D01*
X26827519Y-21226956D01*
X26613318Y-21138231D01*
X26385924Y-21093000D01*
X26154076Y-21093000D01*
X25926682Y-21138231D01*
X25712481Y-21226956D01*
X25519706Y-21355764D01*
X25355764Y-21519706D01*
X25226956Y-21712481D01*
X25138231Y-21926682D01*
X25093000Y-22154076D01*
X25093000Y-22385924D01*
X25138231Y-22613318D01*
X25226956Y-22827519D01*
X25355764Y-23020294D01*
X25519706Y-23184236D01*
X25577720Y-23223000D01*
X25357580Y-23223000D01*
X24828417Y-22693837D01*
X24861769Y-22613318D01*
X24907000Y-22385924D01*
X24907000Y-22154076D01*
X24861769Y-21926682D01*
X24773044Y-21712481D01*
X24644236Y-21519706D01*
X24480294Y-21355764D01*
X24287519Y-21226956D01*
X24073318Y-21138231D01*
X23845924Y-21093000D01*
X23614076Y-21093000D01*
X23386682Y-21138231D01*
X23172481Y-21226956D01*
X22979706Y-21355764D01*
X22815764Y-21519706D01*
X22686956Y-21712481D01*
X22598231Y-21926682D01*
X22553000Y-22154076D01*
X22553000Y-22385924D01*
X22598231Y-22613318D01*
X22686956Y-22827519D01*
X22815764Y-23020294D01*
X22979706Y-23184236D01*
X23172481Y-23313044D01*
X23386682Y-23401769D01*
X23614076Y-23447000D01*
X23845924Y-23447000D01*
X24073318Y-23401769D01*
X24153837Y-23368417D01*
X24608420Y-23823000D01*
X20897580Y-23823000D01*
X20522711Y-23448131D01*
X20981250Y-23447000D01*
X21063000Y-23365250D01*
X21063000Y-22397000D01*
X21317000Y-22397000D01*
X21317000Y-23365250D01*
X21398750Y-23447000D01*
X22040000Y-23448582D01*
X22104103Y-23442268D01*
X22165743Y-23423570D01*
X22222550Y-23393206D01*
X22272343Y-23352343D01*
X22313206Y-23302550D01*
X22343570Y-23245743D01*
X22362268Y-23184103D01*
X22368582Y-23120000D01*
X22367000Y-22478750D01*
X22285250Y-22397000D01*
X21317000Y-22397000D01*
X21063000Y-22397000D01*
X20094750Y-22397000D01*
X20013000Y-22478750D01*
X20011869Y-22937289D01*
X18494580Y-21420000D01*
X20011418Y-21420000D01*
X20013000Y-22061250D01*
X20094750Y-22143000D01*
X21063000Y-22143000D01*
X21063000Y-21174750D01*
X21317000Y-21174750D01*
X21317000Y-22143000D01*
X22285250Y-22143000D01*
X22367000Y-22061250D01*
X22368582Y-21420000D01*
X22362268Y-21355897D01*
X22343570Y-21294257D01*
X22313206Y-21237450D01*
X22272343Y-21187657D01*
X22222550Y-21146794D01*
X22165743Y-21116430D01*
X22104103Y-21097732D01*
X22040000Y-21091418D01*
X21398750Y-21093000D01*
X21317000Y-21174750D01*
X21063000Y-21174750D01*
X20981250Y-21093000D01*
X20340000Y-21091418D01*
X20275897Y-21097732D01*
X20214257Y-21116430D01*
X20157450Y-21146794D01*
X20107657Y-21187657D01*
X20066794Y-21237450D01*
X20036430Y-21294257D01*
X20017732Y-21355897D01*
X20011418Y-21420000D01*
X18494580Y-21420000D01*
X17201579Y-20127000D01*
X41404247Y-20127000D01*
X41549131Y-20204036D01*
G37*
X41549131Y-20204036D02*
X41582799Y-20217913D01*
X41616306Y-20232275D01*
X41621668Y-20233935D01*
X41995340Y-20346752D01*
X42031069Y-20353827D01*
X42066720Y-20361405D01*
X42072302Y-20361991D01*
X42460487Y-20400053D01*
X42480253Y-20402000D01*
X47980342Y-20402000D01*
X48310008Y-20434324D01*
X48608214Y-20524357D01*
X48883249Y-20670595D01*
X49124645Y-20867473D01*
X49323203Y-21107487D01*
X49471360Y-21381498D01*
X49563472Y-21679064D01*
X49598001Y-22007582D01*
X49598000Y-52173000D01*
X48777000Y-52173000D01*
X48777000Y-51723414D01*
X48779306Y-51699999D01*
X48777000Y-51676584D01*
X48777000Y-51676577D01*
X48770097Y-51606492D01*
X48742822Y-51516577D01*
X48698529Y-51433711D01*
X48638921Y-51361079D01*
X48620730Y-51346150D01*
X39074580Y-41800000D01*
X40221418Y-41800000D01*
X40227732Y-41864103D01*
X40246430Y-41925743D01*
X40276794Y-41982550D01*
X40317657Y-42032343D01*
X40367450Y-42073206D01*
X40424257Y-42103570D01*
X40485897Y-42122268D01*
X40550000Y-42128582D01*
X41091250Y-42127000D01*
X41173000Y-42045250D01*
X41173000Y-41427000D01*
X41427000Y-41427000D01*
X41427000Y-42045250D01*
X41508750Y-42127000D01*
X42050000Y-42128582D01*
X42114103Y-42122268D01*
X42175743Y-42103570D01*
X42232550Y-42073206D01*
X42282343Y-42032343D01*
X42323206Y-41982550D01*
X42353570Y-41925743D01*
X42372268Y-41864103D01*
X42378582Y-41800000D01*
X42721418Y-41800000D01*
X42727732Y-41864103D01*
X42746430Y-41925743D01*
X42776794Y-41982550D01*
X42817657Y-42032343D01*
X42867450Y-42073206D01*
X42924257Y-42103570D01*
X42985897Y-42122268D01*
X43050000Y-42128582D01*
X43591250Y-42127000D01*
X43673000Y-42045250D01*
X43673000Y-41427000D01*
X43927000Y-41427000D01*
X43927000Y-42045250D01*
X44008750Y-42127000D01*
X44550000Y-42128582D01*
X44614103Y-42122268D01*
X44675743Y-42103570D01*
X44732550Y-42073206D01*
X44782343Y-42032343D01*
X44823206Y-41982550D01*
X44853570Y-41925743D01*
X44872268Y-41864103D01*
X44878582Y-41800000D01*
X45221418Y-41800000D01*
X45227732Y-41864103D01*
X45246430Y-41925743D01*
X45276794Y-41982550D01*
X45317657Y-42032343D01*
X45367450Y-42073206D01*
X45424257Y-42103570D01*
X45485897Y-42122268D01*
X45550000Y-42128582D01*
X46091250Y-42127000D01*
X46173000Y-42045250D01*
X46173000Y-41427000D01*
X46427000Y-41427000D01*
X46427000Y-42045250D01*
X46508750Y-42127000D01*
X47050000Y-42128582D01*
X47114103Y-42122268D01*
X47175743Y-42103570D01*
X47232550Y-42073206D01*
X47282343Y-42032343D01*
X47323206Y-41982550D01*
X47353570Y-41925743D01*
X47372268Y-41864103D01*
X47378582Y-41800000D01*
X47377000Y-41508750D01*
X47295250Y-41427000D01*
X46427000Y-41427000D01*
X46173000Y-41427000D01*
X45304750Y-41427000D01*
X45223000Y-41508750D01*
X45221418Y-41800000D01*
X44878582Y-41800000D01*
X44877000Y-41508750D01*
X44795250Y-41427000D01*
X43927000Y-41427000D01*
X43673000Y-41427000D01*
X42804750Y-41427000D01*
X42723000Y-41508750D01*
X42721418Y-41800000D01*
X42378582Y-41800000D01*
X42377000Y-41508750D01*
X42295250Y-41427000D01*
X41427000Y-41427000D01*
X41173000Y-41427000D01*
X40304750Y-41427000D01*
X40223000Y-41508750D01*
X40221418Y-41800000D01*
X39074580Y-41800000D01*
X33821130Y-36546551D01*
X33821130Y-36303704D01*
X33938246Y-36327000D01*
X34061754Y-36327000D01*
X34182889Y-36302905D01*
X34296996Y-36255640D01*
X34399689Y-36187023D01*
X34487023Y-36099689D01*
X34523001Y-36045844D01*
X34523001Y-36176575D01*
X34520694Y-36200000D01*
X34529903Y-36293507D01*
X34557178Y-36383422D01*
X34571811Y-36410797D01*
X34601472Y-36466289D01*
X34623810Y-36493508D01*
X34642298Y-36516035D01*
X34661080Y-36538921D01*
X34679271Y-36553850D01*
X36273000Y-38147580D01*
X36273000Y-38161754D01*
X36297095Y-38282889D01*
X36344360Y-38396996D01*
X36412977Y-38499689D01*
X36500311Y-38587023D01*
X36603004Y-38655640D01*
X36717111Y-38702905D01*
X36838246Y-38727000D01*
X36961754Y-38727000D01*
X37082889Y-38702905D01*
X37196996Y-38655640D01*
X37299689Y-38587023D01*
X37387023Y-38499689D01*
X37455640Y-38396996D01*
X37502905Y-38282889D01*
X37527000Y-38161754D01*
X37527000Y-38038246D01*
X37520088Y-38003497D01*
X37638246Y-38027000D01*
X37761754Y-38027000D01*
X37882889Y-38002905D01*
X37996996Y-37955640D01*
X38099689Y-37887023D01*
X38187023Y-37799689D01*
X38255640Y-37696996D01*
X38302905Y-37582889D01*
X38319392Y-37500000D01*
X39320694Y-37500000D01*
X39323000Y-37523415D01*
X39323001Y-39526575D01*
X39320694Y-39550000D01*
X39329903Y-39643507D01*
X39357178Y-39733422D01*
X39357333Y-39733712D01*
X39401472Y-39816289D01*
X39461080Y-39888921D01*
X39479271Y-39903850D01*
X39896149Y-40320729D01*
X39911079Y-40338921D01*
X39983711Y-40398529D01*
X40066577Y-40442822D01*
X40156492Y-40470097D01*
X40221418Y-40476492D01*
X40221418Y-40500000D01*
X40227732Y-40564103D01*
X40246430Y-40625743D01*
X40259396Y-40650000D01*
X40246430Y-40674257D01*
X40227732Y-40735897D01*
X40221418Y-40800000D01*
X40223000Y-41091250D01*
X40304750Y-41173000D01*
X41173000Y-41173000D01*
X41173000Y-41153000D01*
X41427000Y-41153000D01*
X41427000Y-41173000D01*
X42295250Y-41173000D01*
X42377000Y-41091250D01*
X42378582Y-40800000D01*
X42372268Y-40735897D01*
X42353570Y-40674257D01*
X42340604Y-40650000D01*
X42353570Y-40625743D01*
X42372268Y-40564103D01*
X42378582Y-40500000D01*
X42378582Y-39500000D01*
X42372268Y-39435897D01*
X42353570Y-39374257D01*
X42340604Y-39350000D01*
X42353570Y-39325743D01*
X42372268Y-39264103D01*
X42378582Y-39200000D01*
X42378582Y-39177000D01*
X42721418Y-39177000D01*
X42721418Y-39200000D01*
X42727732Y-39264103D01*
X42746430Y-39325743D01*
X42759396Y-39350000D01*
X42746430Y-39374257D01*
X42727732Y-39435897D01*
X42721418Y-39500000D01*
X42721418Y-40500000D01*
X42727732Y-40564103D01*
X42746430Y-40625743D01*
X42759396Y-40650000D01*
X42746430Y-40674257D01*
X42727732Y-40735897D01*
X42721418Y-40800000D01*
X42723000Y-41091250D01*
X42804750Y-41173000D01*
X43673000Y-41173000D01*
X43673000Y-41153000D01*
X43927000Y-41153000D01*
X43927000Y-41173000D01*
X44795250Y-41173000D01*
X44877000Y-41091250D01*
X44878582Y-40800000D01*
X44872268Y-40735897D01*
X44853570Y-40674257D01*
X44840604Y-40650000D01*
X44853570Y-40625743D01*
X44871651Y-40566139D01*
X44896996Y-40555640D01*
X44999689Y-40487023D01*
X45087023Y-40399689D01*
X45155640Y-40296996D01*
X45202905Y-40182889D01*
X45221418Y-40089817D01*
X45221418Y-40500000D01*
X45227732Y-40564103D01*
X45246430Y-40625743D01*
X45259396Y-40650000D01*
X45246430Y-40674257D01*
X45227732Y-40735897D01*
X45221418Y-40800000D01*
X45223000Y-41091250D01*
X45304750Y-41173000D01*
X46173000Y-41173000D01*
X46173000Y-41153000D01*
X46427000Y-41153000D01*
X46427000Y-41173000D01*
X47295250Y-41173000D01*
X47377000Y-41091250D01*
X47378582Y-40800000D01*
X47372268Y-40735897D01*
X47353570Y-40674257D01*
X47340604Y-40650000D01*
X47353570Y-40625743D01*
X47372268Y-40564103D01*
X47378582Y-40500000D01*
X47378582Y-40476492D01*
X47443508Y-40470097D01*
X47533423Y-40442822D01*
X47616289Y-40398529D01*
X47688921Y-40338921D01*
X47703855Y-40320724D01*
X47920724Y-40103855D01*
X47938921Y-40088921D01*
X47998529Y-40016289D01*
X48042822Y-39933423D01*
X48070097Y-39843508D01*
X48077000Y-39773423D01*
X48077000Y-39773416D01*
X48079306Y-39750001D01*
X48077000Y-39726586D01*
X48077000Y-37523412D01*
X48079306Y-37499999D01*
X48077000Y-37476586D01*
X48077000Y-37476577D01*
X48070097Y-37406492D01*
X48042822Y-37316577D01*
X47998529Y-37233711D01*
X47959855Y-37186587D01*
X47953852Y-37179272D01*
X47953850Y-37179270D01*
X47938921Y-37161079D01*
X47920729Y-37146149D01*
X47253855Y-36479276D01*
X47238921Y-36461079D01*
X47166289Y-36401471D01*
X47083423Y-36357178D01*
X46993508Y-36329903D01*
X46923423Y-36323000D01*
X46923415Y-36323000D01*
X46900000Y-36320694D01*
X46876585Y-36323000D01*
X43833083Y-36323000D01*
X43843264Y-36312819D01*
X43911881Y-36210126D01*
X43959146Y-36096019D01*
X43983241Y-35974884D01*
X43983241Y-35851376D01*
X43959146Y-35730241D01*
X43911881Y-35616134D01*
X43843264Y-35513441D01*
X43755930Y-35426107D01*
X43653237Y-35357490D01*
X43539130Y-35310225D01*
X43417995Y-35286130D01*
X43403821Y-35286130D01*
X42677000Y-34559310D01*
X42677000Y-34409712D01*
X42687023Y-34399689D01*
X42755640Y-34296996D01*
X42802905Y-34182889D01*
X42827000Y-34061754D01*
X42827000Y-33938246D01*
X42802905Y-33817111D01*
X42755640Y-33703004D01*
X42687023Y-33600311D01*
X42599689Y-33512977D01*
X42496996Y-33444360D01*
X42382889Y-33397095D01*
X42261754Y-33373000D01*
X42138246Y-33373000D01*
X42017111Y-33397095D01*
X41903004Y-33444360D01*
X41800311Y-33512977D01*
X41712977Y-33600311D01*
X41644360Y-33703004D01*
X41597095Y-33817111D01*
X41573000Y-33938246D01*
X41573000Y-34061754D01*
X41597095Y-34182889D01*
X41644360Y-34296996D01*
X41712977Y-34399689D01*
X41723001Y-34409713D01*
X41723001Y-34733465D01*
X41720694Y-34756889D01*
X41729903Y-34850396D01*
X41736760Y-34873000D01*
X41638246Y-34873000D01*
X41517111Y-34897095D01*
X41403004Y-34944360D01*
X41377000Y-34961735D01*
X41377000Y-34309712D01*
X41387023Y-34299689D01*
X41455640Y-34196996D01*
X41502905Y-34082889D01*
X41527000Y-33961754D01*
X41527000Y-33838246D01*
X41502905Y-33717111D01*
X41455640Y-33603004D01*
X41387023Y-33500311D01*
X41299689Y-33412977D01*
X41196996Y-33344360D01*
X41082889Y-33297095D01*
X40961754Y-33273000D01*
X40838246Y-33273000D01*
X40717111Y-33297095D01*
X40603004Y-33344360D01*
X40500311Y-33412977D01*
X40412977Y-33500311D01*
X40344360Y-33603004D01*
X40297095Y-33717111D01*
X40273000Y-33838246D01*
X40273000Y-33961754D01*
X40297095Y-34082889D01*
X40344360Y-34196996D01*
X40412977Y-34299689D01*
X40423000Y-34309712D01*
X40423001Y-36202419D01*
X39479276Y-37146145D01*
X39461079Y-37161079D01*
X39401471Y-37233711D01*
X39357178Y-37316578D01*
X39329903Y-37406493D01*
X39323000Y-37476578D01*
X39323000Y-37476585D01*
X39320694Y-37500000D01*
X38319392Y-37500000D01*
X38327000Y-37461754D01*
X38327000Y-37338246D01*
X38302905Y-37217111D01*
X38255640Y-37103004D01*
X38187023Y-37000311D01*
X38177000Y-36990288D01*
X38177000Y-34897579D01*
X42052700Y-31021880D01*
X42085851Y-31035611D01*
X42293925Y-31077000D01*
X42506075Y-31077000D01*
X42714149Y-31035611D01*
X42910151Y-30954425D01*
X43086547Y-30836560D01*
X43236560Y-30686547D01*
X43354425Y-30510151D01*
X43435611Y-30314149D01*
X43477000Y-30106075D01*
X43477000Y-29893925D01*
X43435611Y-29685851D01*
X43354425Y-29489849D01*
X43236560Y-29313453D01*
X43086547Y-29163440D01*
X42910151Y-29045575D01*
X42714149Y-28964389D01*
X42506075Y-28923000D01*
X42293925Y-28923000D01*
X42085851Y-28964389D01*
X41889849Y-29045575D01*
X41713453Y-29163440D01*
X41563440Y-29313453D01*
X41445575Y-29489849D01*
X41364389Y-29685851D01*
X41323000Y-29893925D01*
X41323000Y-30106075D01*
X41364389Y-30314149D01*
X41378120Y-30347300D01*
X37379271Y-34346150D01*
X37361080Y-34361079D01*
X37301472Y-34433711D01*
X37289751Y-34455640D01*
X37257178Y-34516578D01*
X37229903Y-34606493D01*
X37220694Y-34700000D01*
X37223001Y-34723425D01*
X37223000Y-36990288D01*
X37212977Y-37000311D01*
X37144360Y-37103004D01*
X37097095Y-37217111D01*
X37073000Y-37338246D01*
X37073000Y-37461754D01*
X37079912Y-37496503D01*
X36961754Y-37473000D01*
X36947580Y-37473000D01*
X35477000Y-36002421D01*
X35477000Y-34363712D01*
X35500311Y-34387023D01*
X35603004Y-34455640D01*
X35717111Y-34502905D01*
X35838246Y-34527000D01*
X35961754Y-34527000D01*
X36082889Y-34502905D01*
X36196996Y-34455640D01*
X36299689Y-34387023D01*
X36387023Y-34299689D01*
X36455640Y-34196996D01*
X36502905Y-34082889D01*
X36527000Y-33961754D01*
X36527000Y-33947579D01*
X43736333Y-26738246D01*
X44573000Y-26738246D01*
X44573000Y-26861754D01*
X44597095Y-26982889D01*
X44644360Y-27096996D01*
X44712977Y-27199689D01*
X44800311Y-27287023D01*
X44903004Y-27355640D01*
X45017111Y-27402905D01*
X45138246Y-27427000D01*
X45152421Y-27427000D01*
X47079272Y-29353852D01*
X47079277Y-29353856D01*
X48223000Y-30497580D01*
X48223001Y-46402419D01*
X47252421Y-47373000D01*
X47238246Y-47373000D01*
X47117111Y-47397095D01*
X47003004Y-47444360D01*
X46900311Y-47512977D01*
X46812977Y-47600311D01*
X46744360Y-47703004D01*
X46697095Y-47817111D01*
X46673000Y-47938246D01*
X46673000Y-48061754D01*
X46697095Y-48182889D01*
X46744360Y-48296996D01*
X46812977Y-48399689D01*
X46900311Y-48487023D01*
X47003004Y-48555640D01*
X47117111Y-48602905D01*
X47238246Y-48627000D01*
X47361754Y-48627000D01*
X47482889Y-48602905D01*
X47596996Y-48555640D01*
X47699689Y-48487023D01*
X47787023Y-48399689D01*
X47855640Y-48296996D01*
X47902905Y-48182889D01*
X47927000Y-48061754D01*
X47927000Y-48047579D01*
X49020729Y-46953851D01*
X49038921Y-46938921D01*
X49098529Y-46866289D01*
X49142822Y-46783423D01*
X49170097Y-46693508D01*
X49177000Y-46623423D01*
X49177000Y-46623415D01*
X49179306Y-46600000D01*
X49177000Y-46576585D01*
X49177000Y-30323415D01*
X49179306Y-30300000D01*
X49177000Y-30276585D01*
X49177000Y-30276577D01*
X49170097Y-30206492D01*
X49142822Y-30116577D01*
X49098529Y-30033711D01*
X49038921Y-29961079D01*
X49020729Y-29946149D01*
X47753856Y-28679277D01*
X47753852Y-28679272D01*
X45827000Y-26752421D01*
X45827000Y-26738246D01*
X45802905Y-26617111D01*
X45755640Y-26503004D01*
X45687023Y-26400311D01*
X45599689Y-26312977D01*
X45496996Y-26244360D01*
X45382889Y-26197095D01*
X45261754Y-26173000D01*
X45138246Y-26173000D01*
X45017111Y-26197095D01*
X44903004Y-26244360D01*
X44800311Y-26312977D01*
X44712977Y-26400311D01*
X44644360Y-26503004D01*
X44597095Y-26617111D01*
X44573000Y-26738246D01*
X43736333Y-26738246D01*
X44671310Y-25803270D01*
X44836682Y-25871769D01*
X45064076Y-25917000D01*
X45295924Y-25917000D01*
X45523318Y-25871769D01*
X45737519Y-25783044D01*
X45930294Y-25654236D01*
X46094236Y-25490294D01*
X46223044Y-25297519D01*
X46311769Y-25083318D01*
X46318697Y-25048486D01*
X46584139Y-25048486D01*
X46666147Y-25264154D01*
X46788654Y-25459679D01*
X46946952Y-25627547D01*
X47134958Y-25761307D01*
X47345447Y-25855819D01*
X47411515Y-25875855D01*
X47593000Y-25827862D01*
X47593000Y-24867000D01*
X47847000Y-24867000D01*
X47847000Y-25827862D01*
X48028485Y-25875855D01*
X48094553Y-25855819D01*
X48305042Y-25761307D01*
X48493048Y-25627547D01*
X48651346Y-25459679D01*
X48773853Y-25264154D01*
X48855861Y-25048486D01*
X48808384Y-24867000D01*
X47847000Y-24867000D01*
X47593000Y-24867000D01*
X46631616Y-24867000D01*
X46584139Y-25048486D01*
X46318697Y-25048486D01*
X46357000Y-24855924D01*
X46357000Y-24624076D01*
X46318698Y-24431514D01*
X46584139Y-24431514D01*
X46631616Y-24613000D01*
X47593000Y-24613000D01*
X47593000Y-23652138D01*
X47847000Y-23652138D01*
X47847000Y-24613000D01*
X48808384Y-24613000D01*
X48855861Y-24431514D01*
X48773853Y-24215846D01*
X48651346Y-24020321D01*
X48493048Y-23852453D01*
X48305042Y-23718693D01*
X48094553Y-23624181D01*
X48028485Y-23604145D01*
X47847000Y-23652138D01*
X47593000Y-23652138D01*
X47411515Y-23604145D01*
X47345447Y-23624181D01*
X47134958Y-23718693D01*
X46946952Y-23852453D01*
X46788654Y-24020321D01*
X46666147Y-24215846D01*
X46584139Y-24431514D01*
X46318698Y-24431514D01*
X46311769Y-24396682D01*
X46223044Y-24182481D01*
X46094236Y-23989706D01*
X45930294Y-23825764D01*
X45737519Y-23696956D01*
X45523318Y-23608231D01*
X45295924Y-23563000D01*
X45064076Y-23563000D01*
X44836682Y-23608231D01*
X44622481Y-23696956D01*
X44429706Y-23825764D01*
X44265764Y-23989706D01*
X44136956Y-24182481D01*
X44048231Y-24396682D01*
X44003000Y-24624076D01*
X44003000Y-24855924D01*
X44047214Y-25078206D01*
X37817896Y-31307525D01*
X37827000Y-31261754D01*
X37827000Y-31247579D01*
X42960730Y-26113850D01*
X42978921Y-26098921D01*
X43009978Y-26061079D01*
X43038529Y-26026289D01*
X43082822Y-25943423D01*
X43110097Y-25853508D01*
X43112623Y-25827862D01*
X43113614Y-25817799D01*
X43197519Y-25783044D01*
X43390294Y-25654236D01*
X43554236Y-25490294D01*
X43683044Y-25297519D01*
X43771769Y-25083318D01*
X43817000Y-24855924D01*
X43817000Y-24624076D01*
X43771769Y-24396682D01*
X43683044Y-24182481D01*
X43554236Y-23989706D01*
X43390294Y-23825764D01*
X43197519Y-23696956D01*
X42983318Y-23608231D01*
X42755924Y-23563000D01*
X42524076Y-23563000D01*
X42296682Y-23608231D01*
X42082481Y-23696956D01*
X41889706Y-23825764D01*
X41877000Y-23838470D01*
X41877000Y-23637579D01*
X42216163Y-23298417D01*
X42296682Y-23331769D01*
X42524076Y-23377000D01*
X42755924Y-23377000D01*
X42983318Y-23331769D01*
X43197519Y-23243044D01*
X43390294Y-23114236D01*
X43554236Y-22950294D01*
X43683044Y-22757519D01*
X43771769Y-22543318D01*
X43817000Y-22315924D01*
X43817000Y-22084076D01*
X44003000Y-22084076D01*
X44003000Y-22315924D01*
X44048231Y-22543318D01*
X44136956Y-22757519D01*
X44265764Y-22950294D01*
X44429706Y-23114236D01*
X44622481Y-23243044D01*
X44836682Y-23331769D01*
X45064076Y-23377000D01*
X45295924Y-23377000D01*
X45523318Y-23331769D01*
X45737519Y-23243044D01*
X45930294Y-23114236D01*
X46094236Y-22950294D01*
X46223044Y-22757519D01*
X46311769Y-22543318D01*
X46357000Y-22315924D01*
X46357000Y-22084076D01*
X46543000Y-22084076D01*
X46543000Y-22315924D01*
X46588231Y-22543318D01*
X46676956Y-22757519D01*
X46805764Y-22950294D01*
X46969706Y-23114236D01*
X47162481Y-23243044D01*
X47376682Y-23331769D01*
X47604076Y-23377000D01*
X47835924Y-23377000D01*
X48063318Y-23331769D01*
X48277519Y-23243044D01*
X48470294Y-23114236D01*
X48634236Y-22950294D01*
X48763044Y-22757519D01*
X48851769Y-22543318D01*
X48897000Y-22315924D01*
X48897000Y-22084076D01*
X48851769Y-21856682D01*
X48763044Y-21642481D01*
X48634236Y-21449706D01*
X48470294Y-21285764D01*
X48277519Y-21156956D01*
X48063318Y-21068231D01*
X47835924Y-21023000D01*
X47604076Y-21023000D01*
X47376682Y-21068231D01*
X47162481Y-21156956D01*
X46969706Y-21285764D01*
X46805764Y-21449706D01*
X46676956Y-21642481D01*
X46588231Y-21856682D01*
X46543000Y-22084076D01*
X46357000Y-22084076D01*
X46311769Y-21856682D01*
X46223044Y-21642481D01*
X46094236Y-21449706D01*
X45930294Y-21285764D01*
X45737519Y-21156956D01*
X45523318Y-21068231D01*
X45295924Y-21023000D01*
X45064076Y-21023000D01*
X44836682Y-21068231D01*
X44622481Y-21156956D01*
X44429706Y-21285764D01*
X44265764Y-21449706D01*
X44136956Y-21642481D01*
X44048231Y-21856682D01*
X44003000Y-22084076D01*
X43817000Y-22084076D01*
X43771769Y-21856682D01*
X43683044Y-21642481D01*
X43554236Y-21449706D01*
X43390294Y-21285764D01*
X43197519Y-21156956D01*
X42983318Y-21068231D01*
X42755924Y-21023000D01*
X42524076Y-21023000D01*
X42296682Y-21068231D01*
X42082481Y-21156956D01*
X41889706Y-21285764D01*
X41725764Y-21449706D01*
X41596956Y-21642481D01*
X41508231Y-21856682D01*
X41463000Y-22084076D01*
X41463000Y-22315924D01*
X41508231Y-22543318D01*
X41541583Y-22623837D01*
X41278582Y-22886839D01*
X41278582Y-21350000D01*
X41272268Y-21285897D01*
X41253570Y-21224257D01*
X41223206Y-21167450D01*
X41182343Y-21117657D01*
X41132550Y-21076794D01*
X41075743Y-21046430D01*
X41014103Y-21027732D01*
X40950000Y-21021418D01*
X39250000Y-21021418D01*
X39185897Y-21027732D01*
X39124257Y-21046430D01*
X39067450Y-21076794D01*
X39017657Y-21117657D01*
X38976794Y-21167450D01*
X38946430Y-21224257D01*
X38927732Y-21285897D01*
X38921418Y-21350000D01*
X38921418Y-21723508D01*
X38856492Y-21729903D01*
X38766577Y-21757178D01*
X38683711Y-21801471D01*
X38650204Y-21828970D01*
X38611079Y-21861079D01*
X38596149Y-21879271D01*
X38279276Y-22196145D01*
X38261079Y-22211079D01*
X38201471Y-22283711D01*
X38157178Y-22366578D01*
X38129903Y-22456493D01*
X38123000Y-22526578D01*
X38123000Y-22526585D01*
X38120694Y-22550000D01*
X38123000Y-22573415D01*
X38123001Y-26361736D01*
X38096996Y-26344360D01*
X37982889Y-26297095D01*
X37861754Y-26273000D01*
X37738246Y-26273000D01*
X37617111Y-26297095D01*
X37503004Y-26344360D01*
X37400311Y-26412977D01*
X37390288Y-26423000D01*
X34897580Y-26423000D01*
X32189597Y-23715018D01*
X32202905Y-23682889D01*
X32227000Y-23561754D01*
X32227000Y-23438246D01*
X32202905Y-23317111D01*
X32155640Y-23203004D01*
X32087023Y-23100311D01*
X31999689Y-23012977D01*
X31896996Y-22944360D01*
X31782889Y-22897095D01*
X31661754Y-22873000D01*
X31538246Y-22873000D01*
X31417111Y-22897095D01*
X31303004Y-22944360D01*
X31200311Y-23012977D01*
X31112977Y-23100311D01*
X31044360Y-23203004D01*
X31036077Y-23223000D01*
X29502280Y-23223000D01*
X29560294Y-23184236D01*
X29724236Y-23020294D01*
X29837476Y-22850818D01*
X33985329Y-22850818D01*
X33985329Y-23149182D01*
X34043537Y-23441813D01*
X34157716Y-23717466D01*
X34323478Y-23965547D01*
X34534453Y-24176522D01*
X34782534Y-24342284D01*
X35058187Y-24456463D01*
X35350818Y-24514671D01*
X35649182Y-24514671D01*
X35941813Y-24456463D01*
X36217466Y-24342284D01*
X36465547Y-24176522D01*
X36676522Y-23965547D01*
X36842284Y-23717466D01*
X36956463Y-23441813D01*
X37014671Y-23149182D01*
X37014671Y-22850818D01*
X36956463Y-22558187D01*
X36842284Y-22282534D01*
X36676522Y-22034453D01*
X36465547Y-21823478D01*
X36217466Y-21657716D01*
X35941813Y-21543537D01*
X35649182Y-21485329D01*
X35350818Y-21485329D01*
X35058187Y-21543537D01*
X34782534Y-21657716D01*
X34534453Y-21823478D01*
X34323478Y-22034453D01*
X34157716Y-22282534D01*
X34043537Y-22558187D01*
X33985329Y-22850818D01*
X29837476Y-22850818D01*
X29853044Y-22827519D01*
X29941769Y-22613318D01*
X29987000Y-22385924D01*
X29987000Y-22154076D01*
X29941769Y-21926682D01*
X29853044Y-21712481D01*
X29724236Y-21519706D01*
X29560294Y-21355764D01*
X29367519Y-21226956D01*
X29153318Y-21138231D01*
X28925924Y-21093000D01*
X28694076Y-21093000D01*
X28466682Y-21138231D01*
X28252481Y-21226956D01*
X28059706Y-21355764D01*
X27895764Y-21519706D01*
X27766956Y-21712481D01*
X27678231Y-21926682D01*
X27633000Y-22154076D01*
X27633000Y-22385924D01*
X27678231Y-22613318D01*
X27766956Y-22827519D01*
X27895764Y-23020294D01*
X28059706Y-23184236D01*
X28117720Y-23223000D01*
X26962280Y-23223000D01*
X27020294Y-23184236D01*
X27184236Y-23020294D01*
X27313044Y-22827519D01*
X27401769Y-22613318D01*
X27447000Y-22385924D01*
X27447000Y-22154076D01*
X27401769Y-21926682D01*
X27313044Y-21712481D01*
X27184236Y-21519706D01*
X27020294Y-21355764D01*
X26827519Y-21226956D01*
X26613318Y-21138231D01*
X26385924Y-21093000D01*
X26154076Y-21093000D01*
X25926682Y-21138231D01*
X25712481Y-21226956D01*
X25519706Y-21355764D01*
X25355764Y-21519706D01*
X25226956Y-21712481D01*
X25138231Y-21926682D01*
X25093000Y-22154076D01*
X25093000Y-22385924D01*
X25138231Y-22613318D01*
X25226956Y-22827519D01*
X25355764Y-23020294D01*
X25519706Y-23184236D01*
X25577720Y-23223000D01*
X25357580Y-23223000D01*
X24828417Y-22693837D01*
X24861769Y-22613318D01*
X24907000Y-22385924D01*
X24907000Y-22154076D01*
X24861769Y-21926682D01*
X24773044Y-21712481D01*
X24644236Y-21519706D01*
X24480294Y-21355764D01*
X24287519Y-21226956D01*
X24073318Y-21138231D01*
X23845924Y-21093000D01*
X23614076Y-21093000D01*
X23386682Y-21138231D01*
X23172481Y-21226956D01*
X22979706Y-21355764D01*
X22815764Y-21519706D01*
X22686956Y-21712481D01*
X22598231Y-21926682D01*
X22553000Y-22154076D01*
X22553000Y-22385924D01*
X22598231Y-22613318D01*
X22686956Y-22827519D01*
X22815764Y-23020294D01*
X22979706Y-23184236D01*
X23172481Y-23313044D01*
X23386682Y-23401769D01*
X23614076Y-23447000D01*
X23845924Y-23447000D01*
X24073318Y-23401769D01*
X24153837Y-23368417D01*
X24608420Y-23823000D01*
X20897580Y-23823000D01*
X20522711Y-23448131D01*
X20981250Y-23447000D01*
X21063000Y-23365250D01*
X21063000Y-22397000D01*
X21317000Y-22397000D01*
X21317000Y-23365250D01*
X21398750Y-23447000D01*
X22040000Y-23448582D01*
X22104103Y-23442268D01*
X22165743Y-23423570D01*
X22222550Y-23393206D01*
X22272343Y-23352343D01*
X22313206Y-23302550D01*
X22343570Y-23245743D01*
X22362268Y-23184103D01*
X22368582Y-23120000D01*
X22367000Y-22478750D01*
X22285250Y-22397000D01*
X21317000Y-22397000D01*
X21063000Y-22397000D01*
X20094750Y-22397000D01*
X20013000Y-22478750D01*
X20011869Y-22937289D01*
X18494580Y-21420000D01*
X20011418Y-21420000D01*
X20013000Y-22061250D01*
X20094750Y-22143000D01*
X21063000Y-22143000D01*
X21063000Y-21174750D01*
X21317000Y-21174750D01*
X21317000Y-22143000D01*
X22285250Y-22143000D01*
X22367000Y-22061250D01*
X22368582Y-21420000D01*
X22362268Y-21355897D01*
X22343570Y-21294257D01*
X22313206Y-21237450D01*
X22272343Y-21187657D01*
X22222550Y-21146794D01*
X22165743Y-21116430D01*
X22104103Y-21097732D01*
X22040000Y-21091418D01*
X21398750Y-21093000D01*
X21317000Y-21174750D01*
X21063000Y-21174750D01*
X20981250Y-21093000D01*
X20340000Y-21091418D01*
X20275897Y-21097732D01*
X20214257Y-21116430D01*
X20157450Y-21146794D01*
X20107657Y-21187657D01*
X20066794Y-21237450D01*
X20036430Y-21294257D01*
X20017732Y-21355897D01*
X20011418Y-21420000D01*
X18494580Y-21420000D01*
X17201579Y-20127000D01*
X41404247Y-20127000D01*
X41549131Y-20204036D01*
G36*
X32021885Y-42420729D02*
G01*
X32036815Y-42438921D01*
X32109447Y-42498529D01*
X32192313Y-42542822D01*
X32282228Y-42570097D01*
X32352313Y-42577000D01*
X32352321Y-42577000D01*
X32375736Y-42579306D01*
X32391083Y-42577795D01*
X32400311Y-42587023D01*
X32503004Y-42655640D01*
X32617111Y-42702905D01*
X32738246Y-42727000D01*
X32861754Y-42727000D01*
X32973000Y-42704872D01*
X32973000Y-42761754D01*
X32997095Y-42882889D01*
X33013710Y-42923000D01*
X28127000Y-42923000D01*
X28127000Y-41600000D01*
X28120717Y-41536205D01*
X28102109Y-41474863D01*
X28071891Y-41418329D01*
X28031224Y-41368776D01*
X27981671Y-41328109D01*
X27925137Y-41297891D01*
X27863795Y-41279283D01*
X27840614Y-41277000D01*
X30878157Y-41277000D01*
X32021885Y-42420729D01*
G37*
X32021885Y-42420729D02*
X32036815Y-42438921D01*
X32109447Y-42498529D01*
X32192313Y-42542822D01*
X32282228Y-42570097D01*
X32352313Y-42577000D01*
X32352321Y-42577000D01*
X32375736Y-42579306D01*
X32391083Y-42577795D01*
X32400311Y-42587023D01*
X32503004Y-42655640D01*
X32617111Y-42702905D01*
X32738246Y-42727000D01*
X32861754Y-42727000D01*
X32973000Y-42704872D01*
X32973000Y-42761754D01*
X32997095Y-42882889D01*
X33013710Y-42923000D01*
X28127000Y-42923000D01*
X28127000Y-41600000D01*
X28120717Y-41536205D01*
X28102109Y-41474863D01*
X28071891Y-41418329D01*
X28031224Y-41368776D01*
X27981671Y-41328109D01*
X27925137Y-41297891D01*
X27863795Y-41279283D01*
X27840614Y-41277000D01*
X30878157Y-41277000D01*
X32021885Y-42420729D01*
G36*
X29023000Y-30597580D02*
G01*
X29023001Y-36976575D01*
X29020694Y-37000000D01*
X29029903Y-37093507D01*
X29057178Y-37183422D01*
X29067592Y-37202905D01*
X29101472Y-37266289D01*
X29112155Y-37279306D01*
X29143181Y-37317111D01*
X29161080Y-37338921D01*
X29179271Y-37353850D01*
X31538523Y-39713103D01*
X29060657Y-39713103D01*
X29099689Y-39687023D01*
X29187023Y-39599689D01*
X29255640Y-39496996D01*
X29302905Y-39382889D01*
X29327000Y-39261754D01*
X29327000Y-39138246D01*
X29302905Y-39017111D01*
X29255640Y-38903004D01*
X29187023Y-38800311D01*
X29099689Y-38712977D01*
X28996996Y-38644360D01*
X28882889Y-38597095D01*
X28761754Y-38573000D01*
X28638246Y-38573000D01*
X28517111Y-38597095D01*
X28403004Y-38644360D01*
X28300311Y-38712977D01*
X28290288Y-38723000D01*
X25627000Y-38723000D01*
X25627000Y-27477000D01*
X25902421Y-27477000D01*
X29023000Y-30597580D01*
G37*
X29023000Y-30597580D02*
X29023001Y-36976575D01*
X29020694Y-37000000D01*
X29029903Y-37093507D01*
X29057178Y-37183422D01*
X29067592Y-37202905D01*
X29101472Y-37266289D01*
X29112155Y-37279306D01*
X29143181Y-37317111D01*
X29161080Y-37338921D01*
X29179271Y-37353850D01*
X31538523Y-39713103D01*
X29060657Y-39713103D01*
X29099689Y-39687023D01*
X29187023Y-39599689D01*
X29255640Y-39496996D01*
X29302905Y-39382889D01*
X29327000Y-39261754D01*
X29327000Y-39138246D01*
X29302905Y-39017111D01*
X29255640Y-38903004D01*
X29187023Y-38800311D01*
X29099689Y-38712977D01*
X28996996Y-38644360D01*
X28882889Y-38597095D01*
X28761754Y-38573000D01*
X28638246Y-38573000D01*
X28517111Y-38597095D01*
X28403004Y-38644360D01*
X28300311Y-38712977D01*
X28290288Y-38723000D01*
X25627000Y-38723000D01*
X25627000Y-27477000D01*
X25902421Y-27477000D01*
X29023000Y-30597580D01*
G36*
X34346149Y-27220729D02*
G01*
X34361079Y-27238921D01*
X34433711Y-27298529D01*
X34516577Y-27342822D01*
X34579216Y-27361823D01*
X34606491Y-27370097D01*
X34615338Y-27370968D01*
X34676577Y-27377000D01*
X34676584Y-27377000D01*
X34699999Y-27379306D01*
X34723414Y-27377000D01*
X37390288Y-27377000D01*
X37400311Y-27387023D01*
X37503004Y-27455640D01*
X37617111Y-27502905D01*
X37738246Y-27527000D01*
X37861754Y-27527000D01*
X37982889Y-27502905D01*
X38096996Y-27455640D01*
X38123001Y-27438264D01*
X38123001Y-27902419D01*
X33821130Y-32204291D01*
X33821130Y-30655549D01*
X33823436Y-30632134D01*
X33821130Y-30608719D01*
X33821130Y-29667544D01*
X33823436Y-29644129D01*
X33821130Y-29620714D01*
X33821130Y-29620707D01*
X33814227Y-29550622D01*
X33786952Y-29460707D01*
X33742659Y-29377841D01*
X33683051Y-29305209D01*
X33664859Y-29290279D01*
X33627000Y-29252420D01*
X33627000Y-29238246D01*
X33602905Y-29117111D01*
X33555640Y-29003004D01*
X33487023Y-28900311D01*
X33477000Y-28890288D01*
X33477000Y-28631484D01*
X33873000Y-29039131D01*
X33873000Y-29061754D01*
X33897095Y-29182889D01*
X33944360Y-29296996D01*
X34012977Y-29399689D01*
X34100311Y-29487023D01*
X34203004Y-29555640D01*
X34317111Y-29602905D01*
X34438246Y-29627000D01*
X34561754Y-29627000D01*
X34682889Y-29602905D01*
X34796996Y-29555640D01*
X34899689Y-29487023D01*
X34987023Y-29399689D01*
X35055640Y-29296996D01*
X35102905Y-29182889D01*
X35127000Y-29061754D01*
X35127000Y-28938246D01*
X35102905Y-28817111D01*
X35055640Y-28703004D01*
X34987023Y-28600311D01*
X34899689Y-28512977D01*
X34796996Y-28444360D01*
X34682889Y-28397095D01*
X34561754Y-28373000D01*
X34555927Y-28373000D01*
X31841424Y-25578659D01*
X31896996Y-25555640D01*
X31999689Y-25487023D01*
X32087023Y-25399689D01*
X32155640Y-25296996D01*
X32202905Y-25182889D01*
X32220393Y-25094972D01*
X34346149Y-27220729D01*
G37*
X34346149Y-27220729D02*
X34361079Y-27238921D01*
X34433711Y-27298529D01*
X34516577Y-27342822D01*
X34579216Y-27361823D01*
X34606491Y-27370097D01*
X34615338Y-27370968D01*
X34676577Y-27377000D01*
X34676584Y-27377000D01*
X34699999Y-27379306D01*
X34723414Y-27377000D01*
X37390288Y-27377000D01*
X37400311Y-27387023D01*
X37503004Y-27455640D01*
X37617111Y-27502905D01*
X37738246Y-27527000D01*
X37861754Y-27527000D01*
X37982889Y-27502905D01*
X38096996Y-27455640D01*
X38123001Y-27438264D01*
X38123001Y-27902419D01*
X33821130Y-32204291D01*
X33821130Y-30655549D01*
X33823436Y-30632134D01*
X33821130Y-30608719D01*
X33821130Y-29667544D01*
X33823436Y-29644129D01*
X33821130Y-29620714D01*
X33821130Y-29620707D01*
X33814227Y-29550622D01*
X33786952Y-29460707D01*
X33742659Y-29377841D01*
X33683051Y-29305209D01*
X33664859Y-29290279D01*
X33627000Y-29252420D01*
X33627000Y-29238246D01*
X33602905Y-29117111D01*
X33555640Y-29003004D01*
X33487023Y-28900311D01*
X33477000Y-28890288D01*
X33477000Y-28631484D01*
X33873000Y-29039131D01*
X33873000Y-29061754D01*
X33897095Y-29182889D01*
X33944360Y-29296996D01*
X34012977Y-29399689D01*
X34100311Y-29487023D01*
X34203004Y-29555640D01*
X34317111Y-29602905D01*
X34438246Y-29627000D01*
X34561754Y-29627000D01*
X34682889Y-29602905D01*
X34796996Y-29555640D01*
X34899689Y-29487023D01*
X34987023Y-29399689D01*
X35055640Y-29296996D01*
X35102905Y-29182889D01*
X35127000Y-29061754D01*
X35127000Y-28938246D01*
X35102905Y-28817111D01*
X35055640Y-28703004D01*
X34987023Y-28600311D01*
X34899689Y-28512977D01*
X34796996Y-28444360D01*
X34682889Y-28397095D01*
X34561754Y-28373000D01*
X34555927Y-28373000D01*
X31841424Y-25578659D01*
X31896996Y-25555640D01*
X31999689Y-25487023D01*
X32087023Y-25399689D01*
X32155640Y-25296996D01*
X32202905Y-25182889D01*
X32220393Y-25094972D01*
X34346149Y-27220729D01*
D27*
G36*
X19082162Y-43997559D02*
G01*
X19064993Y-44014728D01*
X18947348Y-44190797D01*
X18866312Y-44386434D01*
X18825000Y-44594122D01*
X18825000Y-44805878D01*
X18866312Y-45013566D01*
X18880480Y-45047770D01*
X17780629Y-46147621D01*
X17762500Y-46162499D01*
X17703142Y-46234827D01*
X17678664Y-46280623D01*
X17659035Y-46317346D01*
X17631873Y-46406884D01*
X17622702Y-46500000D01*
X17625001Y-46523342D01*
X17625000Y-54052404D01*
X17622702Y-54075736D01*
X17631873Y-54168852D01*
X17640112Y-54196013D01*
X17659034Y-54258389D01*
X17703141Y-54340909D01*
X17762499Y-54413237D01*
X17780634Y-54428120D01*
X19350271Y-55997758D01*
X19346132Y-56003952D01*
X19299019Y-56117694D01*
X19275000Y-56238443D01*
X19275000Y-56361557D01*
X19299019Y-56482306D01*
X19346132Y-56596048D01*
X19414531Y-56698414D01*
X19501586Y-56785469D01*
X19603952Y-56853868D01*
X19717694Y-56900981D01*
X19838443Y-56925000D01*
X19853250Y-56925000D01*
X20803249Y-57875001D01*
X20771016Y-57875001D01*
X20576648Y-57680633D01*
X20561765Y-57662499D01*
X20489437Y-57603141D01*
X20406918Y-57559034D01*
X20317380Y-57531873D01*
X20247596Y-57525000D01*
X20224264Y-57522702D01*
X20208170Y-57524287D01*
X20198414Y-57514531D01*
X20096048Y-57446132D01*
X19982306Y-57399019D01*
X19861557Y-57375000D01*
X19738443Y-57375000D01*
X19617694Y-57399019D01*
X19503952Y-57446132D01*
X19401586Y-57514531D01*
X19314531Y-57601586D01*
X19246132Y-57703952D01*
X19199019Y-57817694D01*
X19175000Y-57938443D01*
X19175000Y-58061557D01*
X19199019Y-58182306D01*
X19246132Y-58296048D01*
X19314531Y-58398414D01*
X19375747Y-58459630D01*
X19346132Y-58503952D01*
X19299019Y-58617694D01*
X19275000Y-58738443D01*
X19275000Y-58861557D01*
X19299019Y-58982306D01*
X19346132Y-59096048D01*
X19414531Y-59198414D01*
X19501586Y-59285469D01*
X19603952Y-59353868D01*
X19717694Y-59400981D01*
X19838443Y-59425000D01*
X19852240Y-59425000D01*
X19862498Y-59437499D01*
X19880622Y-59452373D01*
X19934826Y-59496857D01*
X20017345Y-59540965D01*
X20106883Y-59568126D01*
X20199999Y-59577297D01*
X20223341Y-59574998D01*
X29663910Y-59575000D01*
X30025936Y-59937026D01*
X30003952Y-59946132D01*
X29901586Y-60014531D01*
X29891117Y-60025000D01*
X17423331Y-60025000D01*
X17399999Y-60022702D01*
X17306883Y-60031873D01*
X17279722Y-60040112D01*
X17217346Y-60059034D01*
X17134827Y-60103141D01*
X17062499Y-60162499D01*
X17047620Y-60180629D01*
X15880629Y-61347621D01*
X15862500Y-61362499D01*
X15803142Y-61434827D01*
X15769986Y-61496858D01*
X15759035Y-61517346D01*
X15731873Y-61606884D01*
X15726034Y-61666168D01*
X15696048Y-61646132D01*
X15582306Y-61599019D01*
X15461557Y-61575000D01*
X15338443Y-61575000D01*
X15217694Y-61599019D01*
X15103952Y-61646132D01*
X15001586Y-61714531D01*
X14914531Y-61801586D01*
X14846132Y-61903952D01*
X14799019Y-62017694D01*
X14775000Y-62138443D01*
X14775000Y-62261557D01*
X14799019Y-62382306D01*
X14846132Y-62496048D01*
X14914531Y-62598414D01*
X14925001Y-62608884D01*
X14925001Y-62876658D01*
X14922702Y-62900000D01*
X14931873Y-62993116D01*
X14949934Y-63052652D01*
X14959035Y-63082654D01*
X15003142Y-63165173D01*
X15062500Y-63237501D01*
X15080629Y-63252379D01*
X15547625Y-63719376D01*
X15562499Y-63737501D01*
X15634827Y-63796859D01*
X15688602Y-63825602D01*
X15717345Y-63840966D01*
X15806884Y-63868127D01*
X15900000Y-63877298D01*
X15923332Y-63875000D01*
X17991117Y-63875000D01*
X18001586Y-63885469D01*
X18103952Y-63953868D01*
X18217694Y-64000981D01*
X18338443Y-64025000D01*
X18461557Y-64025000D01*
X18582306Y-64000981D01*
X18696048Y-63953868D01*
X18798414Y-63885469D01*
X18819137Y-63864746D01*
X28417688Y-63864746D01*
X28503735Y-64002518D01*
X28689343Y-64081993D01*
X28886889Y-64123730D01*
X29088782Y-64126126D01*
X29287264Y-64089088D01*
X29474706Y-64014041D01*
X29496265Y-64002518D01*
X29582312Y-63864746D01*
X29000000Y-63282434D01*
X28417688Y-63864746D01*
X18819137Y-63864746D01*
X18885469Y-63798414D01*
X18953868Y-63696048D01*
X19000981Y-63582306D01*
X19025000Y-63461557D01*
X19025000Y-63338443D01*
X19000981Y-63217694D01*
X18989006Y-63188782D01*
X27973874Y-63188782D01*
X28010912Y-63387264D01*
X28085959Y-63574706D01*
X28097482Y-63596265D01*
X28235254Y-63682312D01*
X28817566Y-63100000D01*
X29182434Y-63100000D01*
X29764746Y-63682312D01*
X29902518Y-63596265D01*
X29981993Y-63410657D01*
X30023730Y-63213111D01*
X30026126Y-63011218D01*
X29989088Y-62812736D01*
X29914041Y-62625294D01*
X29902518Y-62603735D01*
X29764746Y-62517688D01*
X29182434Y-63100000D01*
X28817566Y-63100000D01*
X28235254Y-62517688D01*
X28097482Y-62603735D01*
X28018007Y-62789343D01*
X27976270Y-62986889D01*
X27973874Y-63188782D01*
X18989006Y-63188782D01*
X18953868Y-63103952D01*
X18885469Y-63001586D01*
X18798414Y-62914531D01*
X18696048Y-62846132D01*
X18582306Y-62799019D01*
X18461557Y-62775000D01*
X18338443Y-62775000D01*
X18217694Y-62799019D01*
X18103952Y-62846132D01*
X18001586Y-62914531D01*
X17991117Y-62925000D01*
X16734523Y-62925000D01*
X16753868Y-62896048D01*
X16800981Y-62782306D01*
X16813372Y-62720013D01*
X16838443Y-62725000D01*
X16961557Y-62725000D01*
X17082306Y-62700981D01*
X17196048Y-62653868D01*
X17298414Y-62585469D01*
X17385469Y-62498414D01*
X17453868Y-62396048D01*
X17479049Y-62335254D01*
X28417688Y-62335254D01*
X29000000Y-62917566D01*
X29582312Y-62335254D01*
X29496265Y-62197482D01*
X29310657Y-62118007D01*
X29113111Y-62076270D01*
X28911218Y-62073874D01*
X28712736Y-62110912D01*
X28525294Y-62185959D01*
X28503735Y-62197482D01*
X28417688Y-62335254D01*
X17479049Y-62335254D01*
X17500981Y-62282306D01*
X17525000Y-62161557D01*
X17525000Y-62146751D01*
X17896752Y-61775000D01*
X29491117Y-61775000D01*
X29501586Y-61785469D01*
X29603952Y-61853868D01*
X29717694Y-61900981D01*
X29838443Y-61925000D01*
X29961557Y-61925000D01*
X30082306Y-61900981D01*
X30196048Y-61853868D01*
X30298414Y-61785469D01*
X30385469Y-61698414D01*
X30453868Y-61596048D01*
X30500981Y-61482306D01*
X30525000Y-61361557D01*
X30525000Y-61238443D01*
X30500981Y-61117694D01*
X30492337Y-61096826D01*
X30596048Y-61053868D01*
X30698414Y-60985469D01*
X30785469Y-60898414D01*
X30853868Y-60796048D01*
X30862974Y-60774064D01*
X31258103Y-61169194D01*
X31114728Y-61264993D01*
X30964993Y-61414728D01*
X30847348Y-61590797D01*
X30766312Y-61786434D01*
X30725000Y-61994122D01*
X30725000Y-62205878D01*
X30766312Y-62413566D01*
X30847348Y-62609203D01*
X30964993Y-62785272D01*
X31114728Y-62935007D01*
X31290797Y-63052652D01*
X31486434Y-63133688D01*
X31694122Y-63175000D01*
X31905878Y-63175000D01*
X32113566Y-63133688D01*
X32147769Y-63119521D01*
X32177625Y-63149377D01*
X32192499Y-63167501D01*
X32264827Y-63226859D01*
X32318602Y-63255602D01*
X32347345Y-63270966D01*
X32436884Y-63298127D01*
X32530000Y-63307298D01*
X32553332Y-63305000D01*
X33141117Y-63305000D01*
X33151586Y-63315469D01*
X33253952Y-63383868D01*
X33367694Y-63430981D01*
X33488443Y-63455000D01*
X33611557Y-63455000D01*
X33732306Y-63430981D01*
X33846048Y-63383868D01*
X33948414Y-63315469D01*
X34035469Y-63228414D01*
X34103868Y-63126048D01*
X34150981Y-63012306D01*
X34175000Y-62891557D01*
X34175000Y-62768443D01*
X34150981Y-62647694D01*
X34103868Y-62533952D01*
X34035469Y-62431586D01*
X33948414Y-62344531D01*
X33846048Y-62276132D01*
X33732306Y-62229019D01*
X33611557Y-62205000D01*
X33488443Y-62205000D01*
X33367694Y-62229019D01*
X33253952Y-62276132D01*
X33151586Y-62344531D01*
X33141117Y-62355000D01*
X32845338Y-62355000D01*
X32875000Y-62205878D01*
X32875000Y-61994122D01*
X32833688Y-61786434D01*
X32752652Y-61590797D01*
X32635007Y-61414728D01*
X32485272Y-61264993D01*
X32309203Y-61147348D01*
X32275000Y-61133181D01*
X32275000Y-61062672D01*
X32277298Y-61039340D01*
X32268127Y-60946223D01*
X32256897Y-60909203D01*
X32240966Y-60856686D01*
X32196859Y-60774167D01*
X32137501Y-60701839D01*
X32119372Y-60686961D01*
X30257411Y-58825001D01*
X31158640Y-58825001D01*
X31125000Y-58994122D01*
X31125000Y-59205878D01*
X31166312Y-59413566D01*
X31247348Y-59609203D01*
X31364993Y-59785272D01*
X31514728Y-59935007D01*
X31690797Y-60052652D01*
X31886434Y-60133688D01*
X32094122Y-60175000D01*
X32305878Y-60175000D01*
X32513566Y-60133688D01*
X32709203Y-60052652D01*
X32885272Y-59935007D01*
X33035007Y-59785272D01*
X33125000Y-59650587D01*
X33125000Y-59976667D01*
X33122702Y-60000000D01*
X33131873Y-60093116D01*
X33138369Y-60114531D01*
X33159034Y-60182653D01*
X33203141Y-60265173D01*
X33262499Y-60337501D01*
X33280634Y-60352384D01*
X33680480Y-60752230D01*
X33666312Y-60786434D01*
X33625000Y-60994122D01*
X33625000Y-61205878D01*
X33666312Y-61413566D01*
X33747348Y-61609203D01*
X33864993Y-61785272D01*
X34014728Y-61935007D01*
X34190797Y-62052652D01*
X34224039Y-62066422D01*
X34222702Y-62080000D01*
X34231873Y-62173116D01*
X34255052Y-62249523D01*
X34259035Y-62262654D01*
X34303142Y-62345173D01*
X34362500Y-62417501D01*
X34380629Y-62432379D01*
X34825000Y-62876751D01*
X34825000Y-62891557D01*
X34849019Y-63012306D01*
X34896132Y-63126048D01*
X34964531Y-63228414D01*
X34975000Y-63238883D01*
X34975001Y-63926658D01*
X34972702Y-63950000D01*
X34981873Y-64043116D01*
X34993667Y-64081993D01*
X35009035Y-64132654D01*
X35053142Y-64215173D01*
X35112500Y-64287501D01*
X35130629Y-64302379D01*
X35575000Y-64746751D01*
X35575000Y-64761557D01*
X35599019Y-64882306D01*
X35646132Y-64996048D01*
X35691347Y-65063716D01*
X35664382Y-65090682D01*
X35581379Y-64955471D01*
X35400054Y-64878507D01*
X35207199Y-64838396D01*
X35010224Y-64836680D01*
X34816698Y-64873426D01*
X34634060Y-64947220D01*
X34618621Y-64955471D01*
X34535617Y-65090684D01*
X35100000Y-65655066D01*
X35114142Y-65640924D01*
X35296576Y-65823358D01*
X35282434Y-65837500D01*
X35846816Y-66401883D01*
X35982029Y-66318879D01*
X36058993Y-66137554D01*
X36099104Y-65944699D01*
X36099255Y-65927276D01*
X39099180Y-65927276D01*
X39135926Y-66120802D01*
X39209720Y-66303440D01*
X39217971Y-66318879D01*
X39353184Y-66401883D01*
X39917566Y-65837500D01*
X40282434Y-65837500D01*
X40846816Y-66401883D01*
X40982029Y-66318879D01*
X41058993Y-66137554D01*
X41099104Y-65944699D01*
X41100820Y-65747724D01*
X41064074Y-65554198D01*
X40990280Y-65371560D01*
X40982029Y-65356121D01*
X40846816Y-65273117D01*
X40282434Y-65837500D01*
X39917566Y-65837500D01*
X39353184Y-65273117D01*
X39217971Y-65356121D01*
X39141007Y-65537446D01*
X39100896Y-65730301D01*
X39099180Y-65927276D01*
X36099255Y-65927276D01*
X36100820Y-65747724D01*
X36064074Y-65554198D01*
X35990280Y-65371560D01*
X35982029Y-65356121D01*
X35846818Y-65273118D01*
X35881243Y-65238694D01*
X35903952Y-65253868D01*
X36017694Y-65300981D01*
X36138443Y-65325000D01*
X36261557Y-65325000D01*
X36382306Y-65300981D01*
X36496048Y-65253868D01*
X36598414Y-65185469D01*
X36685469Y-65098414D01*
X36753868Y-64996048D01*
X36800981Y-64882306D01*
X36802434Y-64875001D01*
X39812800Y-64875001D01*
X39634060Y-64947220D01*
X39618621Y-64955471D01*
X39535617Y-65090684D01*
X40100000Y-65655066D01*
X40664383Y-65090684D01*
X40581379Y-64955471D01*
X40400054Y-64878507D01*
X40383197Y-64875001D01*
X43803251Y-64875001D01*
X44447620Y-65519371D01*
X44462499Y-65537501D01*
X44534827Y-65596859D01*
X44617346Y-65640966D01*
X44657482Y-65653141D01*
X44706883Y-65668127D01*
X44773428Y-65674681D01*
X44773428Y-66000000D01*
X44779703Y-66063711D01*
X44798287Y-66124974D01*
X44828465Y-66181434D01*
X44869079Y-66230921D01*
X44918566Y-66271535D01*
X44975026Y-66301713D01*
X45036289Y-66320297D01*
X45100000Y-66326572D01*
X46700000Y-66326572D01*
X46763711Y-66320297D01*
X46824974Y-66301713D01*
X46881434Y-66271535D01*
X46930921Y-66230921D01*
X46971535Y-66181434D01*
X47001713Y-66124974D01*
X47020297Y-66063711D01*
X47026572Y-66000000D01*
X47026572Y-64400000D01*
X47020297Y-64336289D01*
X47001713Y-64275026D01*
X46971535Y-64218566D01*
X46930921Y-64169079D01*
X46881434Y-64128465D01*
X46824974Y-64098287D01*
X46763711Y-64079703D01*
X46700000Y-64073428D01*
X45100000Y-64073428D01*
X45036289Y-64079703D01*
X44975026Y-64098287D01*
X44918566Y-64128465D01*
X44869079Y-64169079D01*
X44828465Y-64218566D01*
X44798287Y-64275026D01*
X44779703Y-64336289D01*
X44773428Y-64400000D01*
X44773428Y-64501677D01*
X44352385Y-64080635D01*
X44337502Y-64062500D01*
X44265174Y-64003142D01*
X44182655Y-63959035D01*
X44093117Y-63931874D01*
X44023333Y-63925001D01*
X44000001Y-63922703D01*
X43976669Y-63925001D01*
X36523331Y-63925001D01*
X36499999Y-63922703D01*
X36476667Y-63925001D01*
X36406883Y-63931874D01*
X36317345Y-63959035D01*
X36234826Y-64003142D01*
X36201908Y-64030157D01*
X35925000Y-63753250D01*
X35925000Y-63450000D01*
X38473669Y-63450000D01*
X38478979Y-63503910D01*
X38494703Y-63555747D01*
X38520239Y-63603521D01*
X38554604Y-63645396D01*
X38596479Y-63679761D01*
X38644253Y-63705297D01*
X38696090Y-63721021D01*
X38750000Y-63726331D01*
X39302250Y-63725000D01*
X39371000Y-63656250D01*
X39371000Y-63079000D01*
X39629000Y-63079000D01*
X39629000Y-63656250D01*
X39697750Y-63725000D01*
X40250000Y-63726331D01*
X40303910Y-63721021D01*
X40355747Y-63705297D01*
X40403521Y-63679761D01*
X40445396Y-63645396D01*
X40479761Y-63603521D01*
X40505297Y-63555747D01*
X40521021Y-63503910D01*
X40526331Y-63450000D01*
X40525000Y-63147750D01*
X40456250Y-63079000D01*
X39629000Y-63079000D01*
X39371000Y-63079000D01*
X38543750Y-63079000D01*
X38475000Y-63147750D01*
X38473669Y-63450000D01*
X35925000Y-63450000D01*
X35925000Y-63238883D01*
X35935469Y-63228414D01*
X36003868Y-63126048D01*
X36050981Y-63012306D01*
X36075000Y-62891557D01*
X36075000Y-62768443D01*
X36050981Y-62647694D01*
X36003868Y-62533952D01*
X35935469Y-62431586D01*
X35848414Y-62344531D01*
X35746048Y-62276132D01*
X35632306Y-62229019D01*
X35511557Y-62205000D01*
X35496751Y-62205000D01*
X35290249Y-61998499D01*
X35385272Y-61935007D01*
X35535007Y-61785272D01*
X35652652Y-61609203D01*
X35733688Y-61413566D01*
X35775000Y-61205878D01*
X35775000Y-60994122D01*
X35733688Y-60786434D01*
X35652652Y-60590797D01*
X35535007Y-60414728D01*
X35385272Y-60264993D01*
X35209203Y-60147348D01*
X35013566Y-60066312D01*
X34805878Y-60025000D01*
X34594122Y-60025000D01*
X34386434Y-60066312D01*
X34352230Y-60080480D01*
X34075000Y-59803250D01*
X34075000Y-58650587D01*
X34164993Y-58785272D01*
X34314728Y-58935007D01*
X34490797Y-59052652D01*
X34686434Y-59133688D01*
X34894122Y-59175000D01*
X35105878Y-59175000D01*
X35313566Y-59133688D01*
X35509203Y-59052652D01*
X35685272Y-58935007D01*
X35835007Y-58785272D01*
X35952652Y-58609203D01*
X36033688Y-58413566D01*
X36075000Y-58205878D01*
X36075000Y-57994122D01*
X36033688Y-57786434D01*
X35952652Y-57590797D01*
X35835007Y-57414728D01*
X35685272Y-57264993D01*
X35509203Y-57147348D01*
X35313566Y-57066312D01*
X35105878Y-57025000D01*
X36375000Y-57025000D01*
X36375000Y-62300000D01*
X36381245Y-62363404D01*
X36399739Y-62424372D01*
X36429772Y-62480560D01*
X36470190Y-62529810D01*
X36519440Y-62570228D01*
X36575628Y-62600261D01*
X36636596Y-62618755D01*
X36700000Y-62625000D01*
X38474440Y-62625000D01*
X38475000Y-62752250D01*
X38543750Y-62821000D01*
X39021153Y-62821000D01*
X39045207Y-62834006D01*
X39071969Y-62848719D01*
X39073052Y-62849062D01*
X39074057Y-62849606D01*
X39103318Y-62858664D01*
X39132429Y-62867898D01*
X39133561Y-62868025D01*
X39134650Y-62868362D01*
X39165085Y-62871561D01*
X39195462Y-62874968D01*
X39197649Y-62874983D01*
X39197731Y-62874992D01*
X39197813Y-62874985D01*
X39200000Y-62875000D01*
X39800000Y-62875000D01*
X39830441Y-62872015D01*
X39860899Y-62869243D01*
X39861993Y-62868921D01*
X39863126Y-62868810D01*
X39892354Y-62859985D01*
X39921747Y-62851335D01*
X39922760Y-62850806D01*
X39923848Y-62850477D01*
X39950817Y-62836137D01*
X39977958Y-62821948D01*
X39978847Y-62821234D01*
X39979286Y-62821000D01*
X40456250Y-62821000D01*
X40525000Y-62752250D01*
X40525560Y-62625000D01*
X49600000Y-62625000D01*
X49600000Y-67980435D01*
X49567646Y-68310403D01*
X49477500Y-68608982D01*
X49331076Y-68884364D01*
X49133950Y-69126064D01*
X48893637Y-69324869D01*
X48619279Y-69473214D01*
X48321343Y-69565440D01*
X47992531Y-69600000D01*
X41623230Y-69600000D01*
X41627501Y-69597435D01*
X41755867Y-69480883D01*
X41859028Y-69341528D01*
X41933020Y-69184725D01*
X41975000Y-69016500D01*
X41975000Y-68666500D01*
X41229000Y-68666500D01*
X41229000Y-68686500D01*
X40971000Y-68686500D01*
X40971000Y-68666500D01*
X40225000Y-68666500D01*
X40225000Y-69016500D01*
X40266980Y-69184725D01*
X40340972Y-69341528D01*
X40444133Y-69480883D01*
X40572499Y-69597435D01*
X40576770Y-69600000D01*
X34623230Y-69600000D01*
X34627501Y-69597435D01*
X34755867Y-69480883D01*
X34859028Y-69341528D01*
X34933020Y-69184725D01*
X34975000Y-69016500D01*
X34975000Y-68666500D01*
X34229000Y-68666500D01*
X34229000Y-68686500D01*
X33971000Y-68686500D01*
X33971000Y-68666500D01*
X33225000Y-68666500D01*
X33225000Y-69016500D01*
X33266980Y-69184725D01*
X33340972Y-69341528D01*
X33444133Y-69480883D01*
X33572499Y-69597435D01*
X33576770Y-69600000D01*
X29558618Y-69600000D01*
X29647961Y-69572898D01*
X29895517Y-69440576D01*
X30112501Y-69262502D01*
X30290576Y-69045518D01*
X30422898Y-68797962D01*
X30504381Y-68529349D01*
X30507214Y-68500580D01*
X45281854Y-68500580D01*
X45373980Y-68643471D01*
X45568150Y-68727964D01*
X45775072Y-68772953D01*
X45986795Y-68776709D01*
X46195183Y-68739088D01*
X46392228Y-68661534D01*
X46426020Y-68643471D01*
X46518146Y-68500580D01*
X45900000Y-67882434D01*
X45281854Y-68500580D01*
X30507214Y-68500580D01*
X30525000Y-68319997D01*
X30525000Y-68058500D01*
X33225000Y-68058500D01*
X33225000Y-68408500D01*
X33971000Y-68408500D01*
X33971000Y-67391637D01*
X34229000Y-67391637D01*
X34229000Y-68408500D01*
X34975000Y-68408500D01*
X34975000Y-68058500D01*
X40225000Y-68058500D01*
X40225000Y-68408500D01*
X40971000Y-68408500D01*
X40971000Y-67391637D01*
X41229000Y-67391637D01*
X41229000Y-68408500D01*
X41975000Y-68408500D01*
X41975000Y-68058500D01*
X41933020Y-67890275D01*
X41884190Y-67786795D01*
X44823291Y-67786795D01*
X44860912Y-67995183D01*
X44938466Y-68192228D01*
X44956529Y-68226020D01*
X45099420Y-68318146D01*
X45717566Y-67700000D01*
X46082434Y-67700000D01*
X46700580Y-68318146D01*
X46843471Y-68226020D01*
X46927964Y-68031850D01*
X46972953Y-67824928D01*
X46976709Y-67613205D01*
X46939088Y-67404817D01*
X46861534Y-67207772D01*
X46843471Y-67173980D01*
X46700580Y-67081854D01*
X46082434Y-67700000D01*
X45717566Y-67700000D01*
X45099420Y-67081854D01*
X44956529Y-67173980D01*
X44872036Y-67368150D01*
X44827047Y-67575072D01*
X44823291Y-67786795D01*
X41884190Y-67786795D01*
X41859028Y-67733472D01*
X41755867Y-67594117D01*
X41627501Y-67477565D01*
X41478864Y-67388296D01*
X41362796Y-67352896D01*
X41229000Y-67391637D01*
X40971000Y-67391637D01*
X40837204Y-67352896D01*
X40721136Y-67388296D01*
X40572499Y-67477565D01*
X40444133Y-67594117D01*
X40340972Y-67733472D01*
X40266980Y-67890275D01*
X40225000Y-68058500D01*
X34975000Y-68058500D01*
X34933020Y-67890275D01*
X34859028Y-67733472D01*
X34755867Y-67594117D01*
X34627501Y-67477565D01*
X34478864Y-67388296D01*
X34362796Y-67352896D01*
X34229000Y-67391637D01*
X33971000Y-67391637D01*
X33837204Y-67352896D01*
X33721136Y-67388296D01*
X33572499Y-67477565D01*
X33444133Y-67594117D01*
X33340972Y-67733472D01*
X33266980Y-67890275D01*
X33225000Y-68058500D01*
X30525000Y-68058500D01*
X30525000Y-66899420D01*
X45281854Y-66899420D01*
X45900000Y-67517566D01*
X46518146Y-66899420D01*
X46426020Y-66756529D01*
X46231850Y-66672036D01*
X46024928Y-66627047D01*
X45813205Y-66623291D01*
X45604817Y-66660912D01*
X45407772Y-66738466D01*
X45373980Y-66756529D01*
X45281854Y-66899420D01*
X30525000Y-66899420D01*
X30525000Y-66880003D01*
X30504381Y-66670651D01*
X30478192Y-66584316D01*
X34535617Y-66584316D01*
X34618621Y-66719529D01*
X34799946Y-66796493D01*
X34992801Y-66836604D01*
X35189776Y-66838320D01*
X35383302Y-66801574D01*
X35565940Y-66727780D01*
X35581379Y-66719529D01*
X35664383Y-66584316D01*
X39535617Y-66584316D01*
X39618621Y-66719529D01*
X39799946Y-66796493D01*
X39992801Y-66836604D01*
X40189776Y-66838320D01*
X40383302Y-66801574D01*
X40565940Y-66727780D01*
X40581379Y-66719529D01*
X40664383Y-66584316D01*
X40100000Y-66019934D01*
X39535617Y-66584316D01*
X35664383Y-66584316D01*
X35100000Y-66019934D01*
X34535617Y-66584316D01*
X30478192Y-66584316D01*
X30422898Y-66402038D01*
X30290576Y-66154482D01*
X30112502Y-65937498D01*
X30100047Y-65927276D01*
X34099180Y-65927276D01*
X34135926Y-66120802D01*
X34209720Y-66303440D01*
X34217971Y-66318879D01*
X34353184Y-66401883D01*
X34917566Y-65837500D01*
X34353184Y-65273117D01*
X34217971Y-65356121D01*
X34141007Y-65537446D01*
X34100896Y-65730301D01*
X34099180Y-65927276D01*
X30100047Y-65927276D01*
X29895518Y-65759424D01*
X29647962Y-65627102D01*
X29379349Y-65545619D01*
X29100000Y-65518106D01*
X28820652Y-65545619D01*
X28552039Y-65627102D01*
X28304483Y-65759424D01*
X28087499Y-65937498D01*
X27955561Y-66098266D01*
X27931434Y-66078465D01*
X27874974Y-66048287D01*
X27813711Y-66029703D01*
X27750000Y-66023428D01*
X26250000Y-66023428D01*
X26186289Y-66029703D01*
X26125026Y-66048287D01*
X26068566Y-66078465D01*
X26019079Y-66119079D01*
X25978465Y-66168566D01*
X25948287Y-66225026D01*
X25929703Y-66286289D01*
X25923428Y-66350000D01*
X25923428Y-66547156D01*
X25898154Y-66499872D01*
X25763817Y-66336183D01*
X25600128Y-66201846D01*
X25413375Y-66102024D01*
X25210737Y-66040555D01*
X25000000Y-66019799D01*
X24789264Y-66040555D01*
X24586626Y-66102024D01*
X24399873Y-66201846D01*
X24236184Y-66336183D01*
X24101847Y-66499872D01*
X24002025Y-66686625D01*
X24000000Y-66693299D01*
X23997976Y-66686625D01*
X23898154Y-66499872D01*
X23763817Y-66336183D01*
X23600128Y-66201846D01*
X23475000Y-66134963D01*
X23475000Y-66073332D01*
X23477298Y-66050000D01*
X23468127Y-65956883D01*
X23459146Y-65927276D01*
X23440966Y-65867346D01*
X23396859Y-65784827D01*
X23337501Y-65712499D01*
X23319371Y-65697620D01*
X22102384Y-64480634D01*
X22087501Y-64462499D01*
X22015173Y-64403141D01*
X21932654Y-64359034D01*
X21843116Y-64331873D01*
X21773332Y-64325000D01*
X21750000Y-64322702D01*
X21726668Y-64325000D01*
X15796751Y-64325000D01*
X14675000Y-63203250D01*
X14675000Y-48396750D01*
X19080839Y-43990912D01*
X19082162Y-43997559D01*
G37*
X19082162Y-43997559D02*
X19064993Y-44014728D01*
X18947348Y-44190797D01*
X18866312Y-44386434D01*
X18825000Y-44594122D01*
X18825000Y-44805878D01*
X18866312Y-45013566D01*
X18880480Y-45047770D01*
X17780629Y-46147621D01*
X17762500Y-46162499D01*
X17703142Y-46234827D01*
X17678664Y-46280623D01*
X17659035Y-46317346D01*
X17631873Y-46406884D01*
X17622702Y-46500000D01*
X17625001Y-46523342D01*
X17625000Y-54052404D01*
X17622702Y-54075736D01*
X17631873Y-54168852D01*
X17640112Y-54196013D01*
X17659034Y-54258389D01*
X17703141Y-54340909D01*
X17762499Y-54413237D01*
X17780634Y-54428120D01*
X19350271Y-55997758D01*
X19346132Y-56003952D01*
X19299019Y-56117694D01*
X19275000Y-56238443D01*
X19275000Y-56361557D01*
X19299019Y-56482306D01*
X19346132Y-56596048D01*
X19414531Y-56698414D01*
X19501586Y-56785469D01*
X19603952Y-56853868D01*
X19717694Y-56900981D01*
X19838443Y-56925000D01*
X19853250Y-56925000D01*
X20803249Y-57875001D01*
X20771016Y-57875001D01*
X20576648Y-57680633D01*
X20561765Y-57662499D01*
X20489437Y-57603141D01*
X20406918Y-57559034D01*
X20317380Y-57531873D01*
X20247596Y-57525000D01*
X20224264Y-57522702D01*
X20208170Y-57524287D01*
X20198414Y-57514531D01*
X20096048Y-57446132D01*
X19982306Y-57399019D01*
X19861557Y-57375000D01*
X19738443Y-57375000D01*
X19617694Y-57399019D01*
X19503952Y-57446132D01*
X19401586Y-57514531D01*
X19314531Y-57601586D01*
X19246132Y-57703952D01*
X19199019Y-57817694D01*
X19175000Y-57938443D01*
X19175000Y-58061557D01*
X19199019Y-58182306D01*
X19246132Y-58296048D01*
X19314531Y-58398414D01*
X19375747Y-58459630D01*
X19346132Y-58503952D01*
X19299019Y-58617694D01*
X19275000Y-58738443D01*
X19275000Y-58861557D01*
X19299019Y-58982306D01*
X19346132Y-59096048D01*
X19414531Y-59198414D01*
X19501586Y-59285469D01*
X19603952Y-59353868D01*
X19717694Y-59400981D01*
X19838443Y-59425000D01*
X19852240Y-59425000D01*
X19862498Y-59437499D01*
X19880622Y-59452373D01*
X19934826Y-59496857D01*
X20017345Y-59540965D01*
X20106883Y-59568126D01*
X20199999Y-59577297D01*
X20223341Y-59574998D01*
X29663910Y-59575000D01*
X30025936Y-59937026D01*
X30003952Y-59946132D01*
X29901586Y-60014531D01*
X29891117Y-60025000D01*
X17423331Y-60025000D01*
X17399999Y-60022702D01*
X17306883Y-60031873D01*
X17279722Y-60040112D01*
X17217346Y-60059034D01*
X17134827Y-60103141D01*
X17062499Y-60162499D01*
X17047620Y-60180629D01*
X15880629Y-61347621D01*
X15862500Y-61362499D01*
X15803142Y-61434827D01*
X15769986Y-61496858D01*
X15759035Y-61517346D01*
X15731873Y-61606884D01*
X15726034Y-61666168D01*
X15696048Y-61646132D01*
X15582306Y-61599019D01*
X15461557Y-61575000D01*
X15338443Y-61575000D01*
X15217694Y-61599019D01*
X15103952Y-61646132D01*
X15001586Y-61714531D01*
X14914531Y-61801586D01*
X14846132Y-61903952D01*
X14799019Y-62017694D01*
X14775000Y-62138443D01*
X14775000Y-62261557D01*
X14799019Y-62382306D01*
X14846132Y-62496048D01*
X14914531Y-62598414D01*
X14925001Y-62608884D01*
X14925001Y-62876658D01*
X14922702Y-62900000D01*
X14931873Y-62993116D01*
X14949934Y-63052652D01*
X14959035Y-63082654D01*
X15003142Y-63165173D01*
X15062500Y-63237501D01*
X15080629Y-63252379D01*
X15547625Y-63719376D01*
X15562499Y-63737501D01*
X15634827Y-63796859D01*
X15688602Y-63825602D01*
X15717345Y-63840966D01*
X15806884Y-63868127D01*
X15900000Y-63877298D01*
X15923332Y-63875000D01*
X17991117Y-63875000D01*
X18001586Y-63885469D01*
X18103952Y-63953868D01*
X18217694Y-64000981D01*
X18338443Y-64025000D01*
X18461557Y-64025000D01*
X18582306Y-64000981D01*
X18696048Y-63953868D01*
X18798414Y-63885469D01*
X18819137Y-63864746D01*
X28417688Y-63864746D01*
X28503735Y-64002518D01*
X28689343Y-64081993D01*
X28886889Y-64123730D01*
X29088782Y-64126126D01*
X29287264Y-64089088D01*
X29474706Y-64014041D01*
X29496265Y-64002518D01*
X29582312Y-63864746D01*
X29000000Y-63282434D01*
X28417688Y-63864746D01*
X18819137Y-63864746D01*
X18885469Y-63798414D01*
X18953868Y-63696048D01*
X19000981Y-63582306D01*
X19025000Y-63461557D01*
X19025000Y-63338443D01*
X19000981Y-63217694D01*
X18989006Y-63188782D01*
X27973874Y-63188782D01*
X28010912Y-63387264D01*
X28085959Y-63574706D01*
X28097482Y-63596265D01*
X28235254Y-63682312D01*
X28817566Y-63100000D01*
X29182434Y-63100000D01*
X29764746Y-63682312D01*
X29902518Y-63596265D01*
X29981993Y-63410657D01*
X30023730Y-63213111D01*
X30026126Y-63011218D01*
X29989088Y-62812736D01*
X29914041Y-62625294D01*
X29902518Y-62603735D01*
X29764746Y-62517688D01*
X29182434Y-63100000D01*
X28817566Y-63100000D01*
X28235254Y-62517688D01*
X28097482Y-62603735D01*
X28018007Y-62789343D01*
X27976270Y-62986889D01*
X27973874Y-63188782D01*
X18989006Y-63188782D01*
X18953868Y-63103952D01*
X18885469Y-63001586D01*
X18798414Y-62914531D01*
X18696048Y-62846132D01*
X18582306Y-62799019D01*
X18461557Y-62775000D01*
X18338443Y-62775000D01*
X18217694Y-62799019D01*
X18103952Y-62846132D01*
X18001586Y-62914531D01*
X17991117Y-62925000D01*
X16734523Y-62925000D01*
X16753868Y-62896048D01*
X16800981Y-62782306D01*
X16813372Y-62720013D01*
X16838443Y-62725000D01*
X16961557Y-62725000D01*
X17082306Y-62700981D01*
X17196048Y-62653868D01*
X17298414Y-62585469D01*
X17385469Y-62498414D01*
X17453868Y-62396048D01*
X17479049Y-62335254D01*
X28417688Y-62335254D01*
X29000000Y-62917566D01*
X29582312Y-62335254D01*
X29496265Y-62197482D01*
X29310657Y-62118007D01*
X29113111Y-62076270D01*
X28911218Y-62073874D01*
X28712736Y-62110912D01*
X28525294Y-62185959D01*
X28503735Y-62197482D01*
X28417688Y-62335254D01*
X17479049Y-62335254D01*
X17500981Y-62282306D01*
X17525000Y-62161557D01*
X17525000Y-62146751D01*
X17896752Y-61775000D01*
X29491117Y-61775000D01*
X29501586Y-61785469D01*
X29603952Y-61853868D01*
X29717694Y-61900981D01*
X29838443Y-61925000D01*
X29961557Y-61925000D01*
X30082306Y-61900981D01*
X30196048Y-61853868D01*
X30298414Y-61785469D01*
X30385469Y-61698414D01*
X30453868Y-61596048D01*
X30500981Y-61482306D01*
X30525000Y-61361557D01*
X30525000Y-61238443D01*
X30500981Y-61117694D01*
X30492337Y-61096826D01*
X30596048Y-61053868D01*
X30698414Y-60985469D01*
X30785469Y-60898414D01*
X30853868Y-60796048D01*
X30862974Y-60774064D01*
X31258103Y-61169194D01*
X31114728Y-61264993D01*
X30964993Y-61414728D01*
X30847348Y-61590797D01*
X30766312Y-61786434D01*
X30725000Y-61994122D01*
X30725000Y-62205878D01*
X30766312Y-62413566D01*
X30847348Y-62609203D01*
X30964993Y-62785272D01*
X31114728Y-62935007D01*
X31290797Y-63052652D01*
X31486434Y-63133688D01*
X31694122Y-63175000D01*
X31905878Y-63175000D01*
X32113566Y-63133688D01*
X32147769Y-63119521D01*
X32177625Y-63149377D01*
X32192499Y-63167501D01*
X32264827Y-63226859D01*
X32318602Y-63255602D01*
X32347345Y-63270966D01*
X32436884Y-63298127D01*
X32530000Y-63307298D01*
X32553332Y-63305000D01*
X33141117Y-63305000D01*
X33151586Y-63315469D01*
X33253952Y-63383868D01*
X33367694Y-63430981D01*
X33488443Y-63455000D01*
X33611557Y-63455000D01*
X33732306Y-63430981D01*
X33846048Y-63383868D01*
X33948414Y-63315469D01*
X34035469Y-63228414D01*
X34103868Y-63126048D01*
X34150981Y-63012306D01*
X34175000Y-62891557D01*
X34175000Y-62768443D01*
X34150981Y-62647694D01*
X34103868Y-62533952D01*
X34035469Y-62431586D01*
X33948414Y-62344531D01*
X33846048Y-62276132D01*
X33732306Y-62229019D01*
X33611557Y-62205000D01*
X33488443Y-62205000D01*
X33367694Y-62229019D01*
X33253952Y-62276132D01*
X33151586Y-62344531D01*
X33141117Y-62355000D01*
X32845338Y-62355000D01*
X32875000Y-62205878D01*
X32875000Y-61994122D01*
X32833688Y-61786434D01*
X32752652Y-61590797D01*
X32635007Y-61414728D01*
X32485272Y-61264993D01*
X32309203Y-61147348D01*
X32275000Y-61133181D01*
X32275000Y-61062672D01*
X32277298Y-61039340D01*
X32268127Y-60946223D01*
X32256897Y-60909203D01*
X32240966Y-60856686D01*
X32196859Y-60774167D01*
X32137501Y-60701839D01*
X32119372Y-60686961D01*
X30257411Y-58825001D01*
X31158640Y-58825001D01*
X31125000Y-58994122D01*
X31125000Y-59205878D01*
X31166312Y-59413566D01*
X31247348Y-59609203D01*
X31364993Y-59785272D01*
X31514728Y-59935007D01*
X31690797Y-60052652D01*
X31886434Y-60133688D01*
X32094122Y-60175000D01*
X32305878Y-60175000D01*
X32513566Y-60133688D01*
X32709203Y-60052652D01*
X32885272Y-59935007D01*
X33035007Y-59785272D01*
X33125000Y-59650587D01*
X33125000Y-59976667D01*
X33122702Y-60000000D01*
X33131873Y-60093116D01*
X33138369Y-60114531D01*
X33159034Y-60182653D01*
X33203141Y-60265173D01*
X33262499Y-60337501D01*
X33280634Y-60352384D01*
X33680480Y-60752230D01*
X33666312Y-60786434D01*
X33625000Y-60994122D01*
X33625000Y-61205878D01*
X33666312Y-61413566D01*
X33747348Y-61609203D01*
X33864993Y-61785272D01*
X34014728Y-61935007D01*
X34190797Y-62052652D01*
X34224039Y-62066422D01*
X34222702Y-62080000D01*
X34231873Y-62173116D01*
X34255052Y-62249523D01*
X34259035Y-62262654D01*
X34303142Y-62345173D01*
X34362500Y-62417501D01*
X34380629Y-62432379D01*
X34825000Y-62876751D01*
X34825000Y-62891557D01*
X34849019Y-63012306D01*
X34896132Y-63126048D01*
X34964531Y-63228414D01*
X34975000Y-63238883D01*
X34975001Y-63926658D01*
X34972702Y-63950000D01*
X34981873Y-64043116D01*
X34993667Y-64081993D01*
X35009035Y-64132654D01*
X35053142Y-64215173D01*
X35112500Y-64287501D01*
X35130629Y-64302379D01*
X35575000Y-64746751D01*
X35575000Y-64761557D01*
X35599019Y-64882306D01*
X35646132Y-64996048D01*
X35691347Y-65063716D01*
X35664382Y-65090682D01*
X35581379Y-64955471D01*
X35400054Y-64878507D01*
X35207199Y-64838396D01*
X35010224Y-64836680D01*
X34816698Y-64873426D01*
X34634060Y-64947220D01*
X34618621Y-64955471D01*
X34535617Y-65090684D01*
X35100000Y-65655066D01*
X35114142Y-65640924D01*
X35296576Y-65823358D01*
X35282434Y-65837500D01*
X35846816Y-66401883D01*
X35982029Y-66318879D01*
X36058993Y-66137554D01*
X36099104Y-65944699D01*
X36099255Y-65927276D01*
X39099180Y-65927276D01*
X39135926Y-66120802D01*
X39209720Y-66303440D01*
X39217971Y-66318879D01*
X39353184Y-66401883D01*
X39917566Y-65837500D01*
X40282434Y-65837500D01*
X40846816Y-66401883D01*
X40982029Y-66318879D01*
X41058993Y-66137554D01*
X41099104Y-65944699D01*
X41100820Y-65747724D01*
X41064074Y-65554198D01*
X40990280Y-65371560D01*
X40982029Y-65356121D01*
X40846816Y-65273117D01*
X40282434Y-65837500D01*
X39917566Y-65837500D01*
X39353184Y-65273117D01*
X39217971Y-65356121D01*
X39141007Y-65537446D01*
X39100896Y-65730301D01*
X39099180Y-65927276D01*
X36099255Y-65927276D01*
X36100820Y-65747724D01*
X36064074Y-65554198D01*
X35990280Y-65371560D01*
X35982029Y-65356121D01*
X35846818Y-65273118D01*
X35881243Y-65238694D01*
X35903952Y-65253868D01*
X36017694Y-65300981D01*
X36138443Y-65325000D01*
X36261557Y-65325000D01*
X36382306Y-65300981D01*
X36496048Y-65253868D01*
X36598414Y-65185469D01*
X36685469Y-65098414D01*
X36753868Y-64996048D01*
X36800981Y-64882306D01*
X36802434Y-64875001D01*
X39812800Y-64875001D01*
X39634060Y-64947220D01*
X39618621Y-64955471D01*
X39535617Y-65090684D01*
X40100000Y-65655066D01*
X40664383Y-65090684D01*
X40581379Y-64955471D01*
X40400054Y-64878507D01*
X40383197Y-64875001D01*
X43803251Y-64875001D01*
X44447620Y-65519371D01*
X44462499Y-65537501D01*
X44534827Y-65596859D01*
X44617346Y-65640966D01*
X44657482Y-65653141D01*
X44706883Y-65668127D01*
X44773428Y-65674681D01*
X44773428Y-66000000D01*
X44779703Y-66063711D01*
X44798287Y-66124974D01*
X44828465Y-66181434D01*
X44869079Y-66230921D01*
X44918566Y-66271535D01*
X44975026Y-66301713D01*
X45036289Y-66320297D01*
X45100000Y-66326572D01*
X46700000Y-66326572D01*
X46763711Y-66320297D01*
X46824974Y-66301713D01*
X46881434Y-66271535D01*
X46930921Y-66230921D01*
X46971535Y-66181434D01*
X47001713Y-66124974D01*
X47020297Y-66063711D01*
X47026572Y-66000000D01*
X47026572Y-64400000D01*
X47020297Y-64336289D01*
X47001713Y-64275026D01*
X46971535Y-64218566D01*
X46930921Y-64169079D01*
X46881434Y-64128465D01*
X46824974Y-64098287D01*
X46763711Y-64079703D01*
X46700000Y-64073428D01*
X45100000Y-64073428D01*
X45036289Y-64079703D01*
X44975026Y-64098287D01*
X44918566Y-64128465D01*
X44869079Y-64169079D01*
X44828465Y-64218566D01*
X44798287Y-64275026D01*
X44779703Y-64336289D01*
X44773428Y-64400000D01*
X44773428Y-64501677D01*
X44352385Y-64080635D01*
X44337502Y-64062500D01*
X44265174Y-64003142D01*
X44182655Y-63959035D01*
X44093117Y-63931874D01*
X44023333Y-63925001D01*
X44000001Y-63922703D01*
X43976669Y-63925001D01*
X36523331Y-63925001D01*
X36499999Y-63922703D01*
X36476667Y-63925001D01*
X36406883Y-63931874D01*
X36317345Y-63959035D01*
X36234826Y-64003142D01*
X36201908Y-64030157D01*
X35925000Y-63753250D01*
X35925000Y-63450000D01*
X38473669Y-63450000D01*
X38478979Y-63503910D01*
X38494703Y-63555747D01*
X38520239Y-63603521D01*
X38554604Y-63645396D01*
X38596479Y-63679761D01*
X38644253Y-63705297D01*
X38696090Y-63721021D01*
X38750000Y-63726331D01*
X39302250Y-63725000D01*
X39371000Y-63656250D01*
X39371000Y-63079000D01*
X39629000Y-63079000D01*
X39629000Y-63656250D01*
X39697750Y-63725000D01*
X40250000Y-63726331D01*
X40303910Y-63721021D01*
X40355747Y-63705297D01*
X40403521Y-63679761D01*
X40445396Y-63645396D01*
X40479761Y-63603521D01*
X40505297Y-63555747D01*
X40521021Y-63503910D01*
X40526331Y-63450000D01*
X40525000Y-63147750D01*
X40456250Y-63079000D01*
X39629000Y-63079000D01*
X39371000Y-63079000D01*
X38543750Y-63079000D01*
X38475000Y-63147750D01*
X38473669Y-63450000D01*
X35925000Y-63450000D01*
X35925000Y-63238883D01*
X35935469Y-63228414D01*
X36003868Y-63126048D01*
X36050981Y-63012306D01*
X36075000Y-62891557D01*
X36075000Y-62768443D01*
X36050981Y-62647694D01*
X36003868Y-62533952D01*
X35935469Y-62431586D01*
X35848414Y-62344531D01*
X35746048Y-62276132D01*
X35632306Y-62229019D01*
X35511557Y-62205000D01*
X35496751Y-62205000D01*
X35290249Y-61998499D01*
X35385272Y-61935007D01*
X35535007Y-61785272D01*
X35652652Y-61609203D01*
X35733688Y-61413566D01*
X35775000Y-61205878D01*
X35775000Y-60994122D01*
X35733688Y-60786434D01*
X35652652Y-60590797D01*
X35535007Y-60414728D01*
X35385272Y-60264993D01*
X35209203Y-60147348D01*
X35013566Y-60066312D01*
X34805878Y-60025000D01*
X34594122Y-60025000D01*
X34386434Y-60066312D01*
X34352230Y-60080480D01*
X34075000Y-59803250D01*
X34075000Y-58650587D01*
X34164993Y-58785272D01*
X34314728Y-58935007D01*
X34490797Y-59052652D01*
X34686434Y-59133688D01*
X34894122Y-59175000D01*
X35105878Y-59175000D01*
X35313566Y-59133688D01*
X35509203Y-59052652D01*
X35685272Y-58935007D01*
X35835007Y-58785272D01*
X35952652Y-58609203D01*
X36033688Y-58413566D01*
X36075000Y-58205878D01*
X36075000Y-57994122D01*
X36033688Y-57786434D01*
X35952652Y-57590797D01*
X35835007Y-57414728D01*
X35685272Y-57264993D01*
X35509203Y-57147348D01*
X35313566Y-57066312D01*
X35105878Y-57025000D01*
X36375000Y-57025000D01*
X36375000Y-62300000D01*
X36381245Y-62363404D01*
X36399739Y-62424372D01*
X36429772Y-62480560D01*
X36470190Y-62529810D01*
X36519440Y-62570228D01*
X36575628Y-62600261D01*
X36636596Y-62618755D01*
X36700000Y-62625000D01*
X38474440Y-62625000D01*
X38475000Y-62752250D01*
X38543750Y-62821000D01*
X39021153Y-62821000D01*
X39045207Y-62834006D01*
X39071969Y-62848719D01*
X39073052Y-62849062D01*
X39074057Y-62849606D01*
X39103318Y-62858664D01*
X39132429Y-62867898D01*
X39133561Y-62868025D01*
X39134650Y-62868362D01*
X39165085Y-62871561D01*
X39195462Y-62874968D01*
X39197649Y-62874983D01*
X39197731Y-62874992D01*
X39197813Y-62874985D01*
X39200000Y-62875000D01*
X39800000Y-62875000D01*
X39830441Y-62872015D01*
X39860899Y-62869243D01*
X39861993Y-62868921D01*
X39863126Y-62868810D01*
X39892354Y-62859985D01*
X39921747Y-62851335D01*
X39922760Y-62850806D01*
X39923848Y-62850477D01*
X39950817Y-62836137D01*
X39977958Y-62821948D01*
X39978847Y-62821234D01*
X39979286Y-62821000D01*
X40456250Y-62821000D01*
X40525000Y-62752250D01*
X40525560Y-62625000D01*
X49600000Y-62625000D01*
X49600000Y-67980435D01*
X49567646Y-68310403D01*
X49477500Y-68608982D01*
X49331076Y-68884364D01*
X49133950Y-69126064D01*
X48893637Y-69324869D01*
X48619279Y-69473214D01*
X48321343Y-69565440D01*
X47992531Y-69600000D01*
X41623230Y-69600000D01*
X41627501Y-69597435D01*
X41755867Y-69480883D01*
X41859028Y-69341528D01*
X41933020Y-69184725D01*
X41975000Y-69016500D01*
X41975000Y-68666500D01*
X41229000Y-68666500D01*
X41229000Y-68686500D01*
X40971000Y-68686500D01*
X40971000Y-68666500D01*
X40225000Y-68666500D01*
X40225000Y-69016500D01*
X40266980Y-69184725D01*
X40340972Y-69341528D01*
X40444133Y-69480883D01*
X40572499Y-69597435D01*
X40576770Y-69600000D01*
X34623230Y-69600000D01*
X34627501Y-69597435D01*
X34755867Y-69480883D01*
X34859028Y-69341528D01*
X34933020Y-69184725D01*
X34975000Y-69016500D01*
X34975000Y-68666500D01*
X34229000Y-68666500D01*
X34229000Y-68686500D01*
X33971000Y-68686500D01*
X33971000Y-68666500D01*
X33225000Y-68666500D01*
X33225000Y-69016500D01*
X33266980Y-69184725D01*
X33340972Y-69341528D01*
X33444133Y-69480883D01*
X33572499Y-69597435D01*
X33576770Y-69600000D01*
X29558618Y-69600000D01*
X29647961Y-69572898D01*
X29895517Y-69440576D01*
X30112501Y-69262502D01*
X30290576Y-69045518D01*
X30422898Y-68797962D01*
X30504381Y-68529349D01*
X30507214Y-68500580D01*
X45281854Y-68500580D01*
X45373980Y-68643471D01*
X45568150Y-68727964D01*
X45775072Y-68772953D01*
X45986795Y-68776709D01*
X46195183Y-68739088D01*
X46392228Y-68661534D01*
X46426020Y-68643471D01*
X46518146Y-68500580D01*
X45900000Y-67882434D01*
X45281854Y-68500580D01*
X30507214Y-68500580D01*
X30525000Y-68319997D01*
X30525000Y-68058500D01*
X33225000Y-68058500D01*
X33225000Y-68408500D01*
X33971000Y-68408500D01*
X33971000Y-67391637D01*
X34229000Y-67391637D01*
X34229000Y-68408500D01*
X34975000Y-68408500D01*
X34975000Y-68058500D01*
X40225000Y-68058500D01*
X40225000Y-68408500D01*
X40971000Y-68408500D01*
X40971000Y-67391637D01*
X41229000Y-67391637D01*
X41229000Y-68408500D01*
X41975000Y-68408500D01*
X41975000Y-68058500D01*
X41933020Y-67890275D01*
X41884190Y-67786795D01*
X44823291Y-67786795D01*
X44860912Y-67995183D01*
X44938466Y-68192228D01*
X44956529Y-68226020D01*
X45099420Y-68318146D01*
X45717566Y-67700000D01*
X46082434Y-67700000D01*
X46700580Y-68318146D01*
X46843471Y-68226020D01*
X46927964Y-68031850D01*
X46972953Y-67824928D01*
X46976709Y-67613205D01*
X46939088Y-67404817D01*
X46861534Y-67207772D01*
X46843471Y-67173980D01*
X46700580Y-67081854D01*
X46082434Y-67700000D01*
X45717566Y-67700000D01*
X45099420Y-67081854D01*
X44956529Y-67173980D01*
X44872036Y-67368150D01*
X44827047Y-67575072D01*
X44823291Y-67786795D01*
X41884190Y-67786795D01*
X41859028Y-67733472D01*
X41755867Y-67594117D01*
X41627501Y-67477565D01*
X41478864Y-67388296D01*
X41362796Y-67352896D01*
X41229000Y-67391637D01*
X40971000Y-67391637D01*
X40837204Y-67352896D01*
X40721136Y-67388296D01*
X40572499Y-67477565D01*
X40444133Y-67594117D01*
X40340972Y-67733472D01*
X40266980Y-67890275D01*
X40225000Y-68058500D01*
X34975000Y-68058500D01*
X34933020Y-67890275D01*
X34859028Y-67733472D01*
X34755867Y-67594117D01*
X34627501Y-67477565D01*
X34478864Y-67388296D01*
X34362796Y-67352896D01*
X34229000Y-67391637D01*
X33971000Y-67391637D01*
X33837204Y-67352896D01*
X33721136Y-67388296D01*
X33572499Y-67477565D01*
X33444133Y-67594117D01*
X33340972Y-67733472D01*
X33266980Y-67890275D01*
X33225000Y-68058500D01*
X30525000Y-68058500D01*
X30525000Y-66899420D01*
X45281854Y-66899420D01*
X45900000Y-67517566D01*
X46518146Y-66899420D01*
X46426020Y-66756529D01*
X46231850Y-66672036D01*
X46024928Y-66627047D01*
X45813205Y-66623291D01*
X45604817Y-66660912D01*
X45407772Y-66738466D01*
X45373980Y-66756529D01*
X45281854Y-66899420D01*
X30525000Y-66899420D01*
X30525000Y-66880003D01*
X30504381Y-66670651D01*
X30478192Y-66584316D01*
X34535617Y-66584316D01*
X34618621Y-66719529D01*
X34799946Y-66796493D01*
X34992801Y-66836604D01*
X35189776Y-66838320D01*
X35383302Y-66801574D01*
X35565940Y-66727780D01*
X35581379Y-66719529D01*
X35664383Y-66584316D01*
X39535617Y-66584316D01*
X39618621Y-66719529D01*
X39799946Y-66796493D01*
X39992801Y-66836604D01*
X40189776Y-66838320D01*
X40383302Y-66801574D01*
X40565940Y-66727780D01*
X40581379Y-66719529D01*
X40664383Y-66584316D01*
X40100000Y-66019934D01*
X39535617Y-66584316D01*
X35664383Y-66584316D01*
X35100000Y-66019934D01*
X34535617Y-66584316D01*
X30478192Y-66584316D01*
X30422898Y-66402038D01*
X30290576Y-66154482D01*
X30112502Y-65937498D01*
X30100047Y-65927276D01*
X34099180Y-65927276D01*
X34135926Y-66120802D01*
X34209720Y-66303440D01*
X34217971Y-66318879D01*
X34353184Y-66401883D01*
X34917566Y-65837500D01*
X34353184Y-65273117D01*
X34217971Y-65356121D01*
X34141007Y-65537446D01*
X34100896Y-65730301D01*
X34099180Y-65927276D01*
X30100047Y-65927276D01*
X29895518Y-65759424D01*
X29647962Y-65627102D01*
X29379349Y-65545619D01*
X29100000Y-65518106D01*
X28820652Y-65545619D01*
X28552039Y-65627102D01*
X28304483Y-65759424D01*
X28087499Y-65937498D01*
X27955561Y-66098266D01*
X27931434Y-66078465D01*
X27874974Y-66048287D01*
X27813711Y-66029703D01*
X27750000Y-66023428D01*
X26250000Y-66023428D01*
X26186289Y-66029703D01*
X26125026Y-66048287D01*
X26068566Y-66078465D01*
X26019079Y-66119079D01*
X25978465Y-66168566D01*
X25948287Y-66225026D01*
X25929703Y-66286289D01*
X25923428Y-66350000D01*
X25923428Y-66547156D01*
X25898154Y-66499872D01*
X25763817Y-66336183D01*
X25600128Y-66201846D01*
X25413375Y-66102024D01*
X25210737Y-66040555D01*
X25000000Y-66019799D01*
X24789264Y-66040555D01*
X24586626Y-66102024D01*
X24399873Y-66201846D01*
X24236184Y-66336183D01*
X24101847Y-66499872D01*
X24002025Y-66686625D01*
X24000000Y-66693299D01*
X23997976Y-66686625D01*
X23898154Y-66499872D01*
X23763817Y-66336183D01*
X23600128Y-66201846D01*
X23475000Y-66134963D01*
X23475000Y-66073332D01*
X23477298Y-66050000D01*
X23468127Y-65956883D01*
X23459146Y-65927276D01*
X23440966Y-65867346D01*
X23396859Y-65784827D01*
X23337501Y-65712499D01*
X23319371Y-65697620D01*
X22102384Y-64480634D01*
X22087501Y-64462499D01*
X22015173Y-64403141D01*
X21932654Y-64359034D01*
X21843116Y-64331873D01*
X21773332Y-64325000D01*
X21750000Y-64322702D01*
X21726668Y-64325000D01*
X15796751Y-64325000D01*
X14675000Y-63203250D01*
X14675000Y-48396750D01*
X19080839Y-43990912D01*
X19082162Y-43997559D01*
G36*
X14881245Y-41763404D02*
G01*
X14899739Y-41824372D01*
X14929772Y-41880560D01*
X14970190Y-41929810D01*
X15019440Y-41970228D01*
X15075628Y-42000261D01*
X15136596Y-42018755D01*
X15200000Y-42025000D01*
X25300000Y-42025000D01*
X25363404Y-42018755D01*
X25424372Y-42000261D01*
X25480560Y-41970228D01*
X25529810Y-41929810D01*
X25570228Y-41880560D01*
X25600261Y-41824372D01*
X25618755Y-41763404D01*
X25622538Y-41725000D01*
X27675000Y-41725000D01*
X27675000Y-42925000D01*
X23808883Y-42925000D01*
X23798414Y-42914531D01*
X23696048Y-42846132D01*
X23582306Y-42799019D01*
X23461557Y-42775000D01*
X23446751Y-42775000D01*
X23052384Y-42380634D01*
X23037501Y-42362499D01*
X22965173Y-42303141D01*
X22882654Y-42259034D01*
X22793116Y-42231873D01*
X22723332Y-42225000D01*
X22700000Y-42222702D01*
X22676668Y-42225000D01*
X19723332Y-42225000D01*
X19700000Y-42222702D01*
X19676668Y-42225000D01*
X19606884Y-42231873D01*
X19517346Y-42259034D01*
X19434827Y-42303141D01*
X19362499Y-42362499D01*
X19347625Y-42380623D01*
X15276572Y-46451677D01*
X15276572Y-45150000D01*
X15270297Y-45086289D01*
X15251713Y-45025026D01*
X15221535Y-44968566D01*
X15180921Y-44919079D01*
X15131434Y-44878465D01*
X15074974Y-44848287D01*
X15013711Y-44829703D01*
X14950000Y-44823428D01*
X13250000Y-44823428D01*
X13186289Y-44829703D01*
X13125026Y-44848287D01*
X13068566Y-44878465D01*
X13019079Y-44919079D01*
X12978465Y-44968566D01*
X12948287Y-45025026D01*
X12929703Y-45086289D01*
X12923428Y-45150000D01*
X12923428Y-46850000D01*
X12929703Y-46913711D01*
X12948287Y-46974974D01*
X12978465Y-47031434D01*
X13019079Y-47080921D01*
X13068566Y-47121535D01*
X13125026Y-47151713D01*
X13186289Y-47170297D01*
X13250000Y-47176572D01*
X14551678Y-47176572D01*
X13880634Y-47847616D01*
X13862499Y-47862499D01*
X13803141Y-47934827D01*
X13759034Y-48017347D01*
X13745623Y-48061557D01*
X13731873Y-48106884D01*
X13722702Y-48200000D01*
X13725000Y-48223332D01*
X13725001Y-63376658D01*
X13722702Y-63400000D01*
X13731873Y-63493116D01*
X13750303Y-63553868D01*
X13759035Y-63582654D01*
X13803142Y-63665173D01*
X13862500Y-63737501D01*
X13880629Y-63752379D01*
X15247620Y-65119371D01*
X15262499Y-65137501D01*
X15334827Y-65196859D01*
X15417346Y-65240966D01*
X15479722Y-65259888D01*
X15506883Y-65268127D01*
X15600000Y-65277298D01*
X15623332Y-65275000D01*
X21553250Y-65275000D01*
X22452152Y-66173902D01*
X22399873Y-66201846D01*
X22236184Y-66336183D01*
X22206821Y-66371961D01*
X22090576Y-66154482D01*
X21912502Y-65937498D01*
X21695518Y-65759424D01*
X21447962Y-65627102D01*
X21179349Y-65545619D01*
X20900000Y-65518106D01*
X20620652Y-65545619D01*
X20352039Y-65627102D01*
X20104483Y-65759424D01*
X19887499Y-65937498D01*
X19709425Y-66154482D01*
X19577102Y-66402038D01*
X19495619Y-66670651D01*
X19475000Y-66880003D01*
X19475000Y-68319996D01*
X19495619Y-68529348D01*
X19577102Y-68797961D01*
X19709424Y-69045517D01*
X19887498Y-69262501D01*
X20104482Y-69440576D01*
X20352038Y-69572898D01*
X20441381Y-69600000D01*
X2019565Y-69600000D01*
X1689597Y-69567646D01*
X1391018Y-69477500D01*
X1115636Y-69331076D01*
X873936Y-69133950D01*
X675131Y-68893637D01*
X526786Y-68619279D01*
X434560Y-68321343D01*
X400000Y-67992531D01*
X400000Y-66174999D01*
X2473428Y-66174999D01*
X2473428Y-67425001D01*
X2484507Y-67537484D01*
X2517317Y-67645645D01*
X2570598Y-67745327D01*
X2642302Y-67832698D01*
X2729673Y-67904402D01*
X2829355Y-67957683D01*
X2937516Y-67990493D01*
X3049999Y-68001572D01*
X3750001Y-68001572D01*
X3862484Y-67990493D01*
X3970645Y-67957683D01*
X4070327Y-67904402D01*
X4157698Y-67832698D01*
X4229402Y-67745327D01*
X4282683Y-67645645D01*
X4315493Y-67537484D01*
X4326572Y-67425001D01*
X4326572Y-66929000D01*
X4525000Y-66929000D01*
X4525000Y-67204000D01*
X4566980Y-67372225D01*
X4640972Y-67529028D01*
X4744133Y-67668383D01*
X4872499Y-67784935D01*
X5021136Y-67874204D01*
X5137204Y-67909604D01*
X5271000Y-67870863D01*
X5271000Y-66929000D01*
X5529000Y-66929000D01*
X5529000Y-67870863D01*
X5662796Y-67909604D01*
X5778864Y-67874204D01*
X5927501Y-67784935D01*
X6055867Y-67668383D01*
X6159028Y-67529028D01*
X6233020Y-67372225D01*
X6275000Y-67204000D01*
X6275000Y-66929000D01*
X5529000Y-66929000D01*
X5271000Y-66929000D01*
X4525000Y-66929000D01*
X4326572Y-66929000D01*
X4326572Y-66396000D01*
X4525000Y-66396000D01*
X4525000Y-66671000D01*
X5271000Y-66671000D01*
X5271000Y-65729137D01*
X5529000Y-65729137D01*
X5529000Y-66671000D01*
X6275000Y-66671000D01*
X6275000Y-66396000D01*
X6233020Y-66227775D01*
X6159028Y-66070972D01*
X6055867Y-65931617D01*
X5927501Y-65815065D01*
X5778864Y-65725796D01*
X5662796Y-65690396D01*
X5529000Y-65729137D01*
X5271000Y-65729137D01*
X5137204Y-65690396D01*
X5021136Y-65725796D01*
X4872499Y-65815065D01*
X4744133Y-65931617D01*
X4640972Y-66070972D01*
X4566980Y-66227775D01*
X4525000Y-66396000D01*
X4326572Y-66396000D01*
X4326572Y-66174999D01*
X4315493Y-66062516D01*
X4282683Y-65954355D01*
X4229402Y-65854673D01*
X4157698Y-65767302D01*
X4070327Y-65695598D01*
X3970645Y-65642317D01*
X3862484Y-65609507D01*
X3750001Y-65598428D01*
X3049999Y-65598428D01*
X2937516Y-65609507D01*
X2829355Y-65642317D01*
X2729673Y-65695598D01*
X2642302Y-65767302D01*
X2570598Y-65854673D01*
X2517317Y-65954355D01*
X2484507Y-66062516D01*
X2473428Y-66174999D01*
X400000Y-66174999D01*
X400000Y-65025000D01*
X12300000Y-65025000D01*
X12324386Y-65022598D01*
X12347835Y-65015485D01*
X12369446Y-65003934D01*
X12388388Y-64988388D01*
X12403934Y-64969446D01*
X12415485Y-64947835D01*
X12422598Y-64924386D01*
X12425000Y-64900000D01*
X12425000Y-53046750D01*
X12946751Y-52525000D01*
X12961557Y-52525000D01*
X13082306Y-52500981D01*
X13196048Y-52453868D01*
X13298414Y-52385469D01*
X13385469Y-52298414D01*
X13453868Y-52196048D01*
X13500981Y-52082306D01*
X13525000Y-51961557D01*
X13525000Y-51838443D01*
X13500981Y-51717694D01*
X13453868Y-51603952D01*
X13385469Y-51501586D01*
X13298414Y-51414531D01*
X13196048Y-51346132D01*
X13082306Y-51299019D01*
X12961557Y-51275000D01*
X12838443Y-51275000D01*
X12717694Y-51299019D01*
X12603952Y-51346132D01*
X12501586Y-51414531D01*
X12425000Y-51491117D01*
X12425000Y-43762240D01*
X13016359Y-43762240D01*
X13031063Y-43810738D01*
X13120028Y-44012538D01*
X13246653Y-44193104D01*
X13406071Y-44345497D01*
X13592157Y-44463861D01*
X13797759Y-44543647D01*
X13971000Y-44508836D01*
X13971000Y-43589000D01*
X14229000Y-43589000D01*
X14229000Y-44508836D01*
X14402241Y-44543647D01*
X14607843Y-44463861D01*
X14793929Y-44345497D01*
X14953347Y-44193104D01*
X15079972Y-44012538D01*
X15168937Y-43810738D01*
X15183641Y-43762240D01*
X15148343Y-43589000D01*
X14229000Y-43589000D01*
X13971000Y-43589000D01*
X13051657Y-43589000D01*
X13016359Y-43762240D01*
X12425000Y-43762240D01*
X12425000Y-43157760D01*
X13016359Y-43157760D01*
X13051657Y-43331000D01*
X13971000Y-43331000D01*
X13971000Y-42411164D01*
X14229000Y-42411164D01*
X14229000Y-43331000D01*
X15148343Y-43331000D01*
X15183641Y-43157760D01*
X15168937Y-43109262D01*
X15079972Y-42907462D01*
X14953347Y-42726896D01*
X14793929Y-42574503D01*
X14607843Y-42456139D01*
X14402241Y-42376353D01*
X14229000Y-42411164D01*
X13971000Y-42411164D01*
X13797759Y-42376353D01*
X13592157Y-42456139D01*
X13406071Y-42574503D01*
X13246653Y-42726896D01*
X13120028Y-42907462D01*
X13031063Y-43109262D01*
X13016359Y-43157760D01*
X12425000Y-43157760D01*
X12425000Y-42546751D01*
X13246751Y-41725000D01*
X14877462Y-41725000D01*
X14881245Y-41763404D01*
G37*
X14881245Y-41763404D02*
X14899739Y-41824372D01*
X14929772Y-41880560D01*
X14970190Y-41929810D01*
X15019440Y-41970228D01*
X15075628Y-42000261D01*
X15136596Y-42018755D01*
X15200000Y-42025000D01*
X25300000Y-42025000D01*
X25363404Y-42018755D01*
X25424372Y-42000261D01*
X25480560Y-41970228D01*
X25529810Y-41929810D01*
X25570228Y-41880560D01*
X25600261Y-41824372D01*
X25618755Y-41763404D01*
X25622538Y-41725000D01*
X27675000Y-41725000D01*
X27675000Y-42925000D01*
X23808883Y-42925000D01*
X23798414Y-42914531D01*
X23696048Y-42846132D01*
X23582306Y-42799019D01*
X23461557Y-42775000D01*
X23446751Y-42775000D01*
X23052384Y-42380634D01*
X23037501Y-42362499D01*
X22965173Y-42303141D01*
X22882654Y-42259034D01*
X22793116Y-42231873D01*
X22723332Y-42225000D01*
X22700000Y-42222702D01*
X22676668Y-42225000D01*
X19723332Y-42225000D01*
X19700000Y-42222702D01*
X19676668Y-42225000D01*
X19606884Y-42231873D01*
X19517346Y-42259034D01*
X19434827Y-42303141D01*
X19362499Y-42362499D01*
X19347625Y-42380623D01*
X15276572Y-46451677D01*
X15276572Y-45150000D01*
X15270297Y-45086289D01*
X15251713Y-45025026D01*
X15221535Y-44968566D01*
X15180921Y-44919079D01*
X15131434Y-44878465D01*
X15074974Y-44848287D01*
X15013711Y-44829703D01*
X14950000Y-44823428D01*
X13250000Y-44823428D01*
X13186289Y-44829703D01*
X13125026Y-44848287D01*
X13068566Y-44878465D01*
X13019079Y-44919079D01*
X12978465Y-44968566D01*
X12948287Y-45025026D01*
X12929703Y-45086289D01*
X12923428Y-45150000D01*
X12923428Y-46850000D01*
X12929703Y-46913711D01*
X12948287Y-46974974D01*
X12978465Y-47031434D01*
X13019079Y-47080921D01*
X13068566Y-47121535D01*
X13125026Y-47151713D01*
X13186289Y-47170297D01*
X13250000Y-47176572D01*
X14551678Y-47176572D01*
X13880634Y-47847616D01*
X13862499Y-47862499D01*
X13803141Y-47934827D01*
X13759034Y-48017347D01*
X13745623Y-48061557D01*
X13731873Y-48106884D01*
X13722702Y-48200000D01*
X13725000Y-48223332D01*
X13725001Y-63376658D01*
X13722702Y-63400000D01*
X13731873Y-63493116D01*
X13750303Y-63553868D01*
X13759035Y-63582654D01*
X13803142Y-63665173D01*
X13862500Y-63737501D01*
X13880629Y-63752379D01*
X15247620Y-65119371D01*
X15262499Y-65137501D01*
X15334827Y-65196859D01*
X15417346Y-65240966D01*
X15479722Y-65259888D01*
X15506883Y-65268127D01*
X15600000Y-65277298D01*
X15623332Y-65275000D01*
X21553250Y-65275000D01*
X22452152Y-66173902D01*
X22399873Y-66201846D01*
X22236184Y-66336183D01*
X22206821Y-66371961D01*
X22090576Y-66154482D01*
X21912502Y-65937498D01*
X21695518Y-65759424D01*
X21447962Y-65627102D01*
X21179349Y-65545619D01*
X20900000Y-65518106D01*
X20620652Y-65545619D01*
X20352039Y-65627102D01*
X20104483Y-65759424D01*
X19887499Y-65937498D01*
X19709425Y-66154482D01*
X19577102Y-66402038D01*
X19495619Y-66670651D01*
X19475000Y-66880003D01*
X19475000Y-68319996D01*
X19495619Y-68529348D01*
X19577102Y-68797961D01*
X19709424Y-69045517D01*
X19887498Y-69262501D01*
X20104482Y-69440576D01*
X20352038Y-69572898D01*
X20441381Y-69600000D01*
X2019565Y-69600000D01*
X1689597Y-69567646D01*
X1391018Y-69477500D01*
X1115636Y-69331076D01*
X873936Y-69133950D01*
X675131Y-68893637D01*
X526786Y-68619279D01*
X434560Y-68321343D01*
X400000Y-67992531D01*
X400000Y-66174999D01*
X2473428Y-66174999D01*
X2473428Y-67425001D01*
X2484507Y-67537484D01*
X2517317Y-67645645D01*
X2570598Y-67745327D01*
X2642302Y-67832698D01*
X2729673Y-67904402D01*
X2829355Y-67957683D01*
X2937516Y-67990493D01*
X3049999Y-68001572D01*
X3750001Y-68001572D01*
X3862484Y-67990493D01*
X3970645Y-67957683D01*
X4070327Y-67904402D01*
X4157698Y-67832698D01*
X4229402Y-67745327D01*
X4282683Y-67645645D01*
X4315493Y-67537484D01*
X4326572Y-67425001D01*
X4326572Y-66929000D01*
X4525000Y-66929000D01*
X4525000Y-67204000D01*
X4566980Y-67372225D01*
X4640972Y-67529028D01*
X4744133Y-67668383D01*
X4872499Y-67784935D01*
X5021136Y-67874204D01*
X5137204Y-67909604D01*
X5271000Y-67870863D01*
X5271000Y-66929000D01*
X5529000Y-66929000D01*
X5529000Y-67870863D01*
X5662796Y-67909604D01*
X5778864Y-67874204D01*
X5927501Y-67784935D01*
X6055867Y-67668383D01*
X6159028Y-67529028D01*
X6233020Y-67372225D01*
X6275000Y-67204000D01*
X6275000Y-66929000D01*
X5529000Y-66929000D01*
X5271000Y-66929000D01*
X4525000Y-66929000D01*
X4326572Y-66929000D01*
X4326572Y-66396000D01*
X4525000Y-66396000D01*
X4525000Y-66671000D01*
X5271000Y-66671000D01*
X5271000Y-65729137D01*
X5529000Y-65729137D01*
X5529000Y-66671000D01*
X6275000Y-66671000D01*
X6275000Y-66396000D01*
X6233020Y-66227775D01*
X6159028Y-66070972D01*
X6055867Y-65931617D01*
X5927501Y-65815065D01*
X5778864Y-65725796D01*
X5662796Y-65690396D01*
X5529000Y-65729137D01*
X5271000Y-65729137D01*
X5137204Y-65690396D01*
X5021136Y-65725796D01*
X4872499Y-65815065D01*
X4744133Y-65931617D01*
X4640972Y-66070972D01*
X4566980Y-66227775D01*
X4525000Y-66396000D01*
X4326572Y-66396000D01*
X4326572Y-66174999D01*
X4315493Y-66062516D01*
X4282683Y-65954355D01*
X4229402Y-65854673D01*
X4157698Y-65767302D01*
X4070327Y-65695598D01*
X3970645Y-65642317D01*
X3862484Y-65609507D01*
X3750001Y-65598428D01*
X3049999Y-65598428D01*
X2937516Y-65609507D01*
X2829355Y-65642317D01*
X2729673Y-65695598D01*
X2642302Y-65767302D01*
X2570598Y-65854673D01*
X2517317Y-65954355D01*
X2484507Y-66062516D01*
X2473428Y-66174999D01*
X400000Y-66174999D01*
X400000Y-65025000D01*
X12300000Y-65025000D01*
X12324386Y-65022598D01*
X12347835Y-65015485D01*
X12369446Y-65003934D01*
X12388388Y-64988388D01*
X12403934Y-64969446D01*
X12415485Y-64947835D01*
X12422598Y-64924386D01*
X12425000Y-64900000D01*
X12425000Y-53046750D01*
X12946751Y-52525000D01*
X12961557Y-52525000D01*
X13082306Y-52500981D01*
X13196048Y-52453868D01*
X13298414Y-52385469D01*
X13385469Y-52298414D01*
X13453868Y-52196048D01*
X13500981Y-52082306D01*
X13525000Y-51961557D01*
X13525000Y-51838443D01*
X13500981Y-51717694D01*
X13453868Y-51603952D01*
X13385469Y-51501586D01*
X13298414Y-51414531D01*
X13196048Y-51346132D01*
X13082306Y-51299019D01*
X12961557Y-51275000D01*
X12838443Y-51275000D01*
X12717694Y-51299019D01*
X12603952Y-51346132D01*
X12501586Y-51414531D01*
X12425000Y-51491117D01*
X12425000Y-43762240D01*
X13016359Y-43762240D01*
X13031063Y-43810738D01*
X13120028Y-44012538D01*
X13246653Y-44193104D01*
X13406071Y-44345497D01*
X13592157Y-44463861D01*
X13797759Y-44543647D01*
X13971000Y-44508836D01*
X13971000Y-43589000D01*
X14229000Y-43589000D01*
X14229000Y-44508836D01*
X14402241Y-44543647D01*
X14607843Y-44463861D01*
X14793929Y-44345497D01*
X14953347Y-44193104D01*
X15079972Y-44012538D01*
X15168937Y-43810738D01*
X15183641Y-43762240D01*
X15148343Y-43589000D01*
X14229000Y-43589000D01*
X13971000Y-43589000D01*
X13051657Y-43589000D01*
X13016359Y-43762240D01*
X12425000Y-43762240D01*
X12425000Y-43157760D01*
X13016359Y-43157760D01*
X13051657Y-43331000D01*
X13971000Y-43331000D01*
X13971000Y-42411164D01*
X14229000Y-42411164D01*
X14229000Y-43331000D01*
X15148343Y-43331000D01*
X15183641Y-43157760D01*
X15168937Y-43109262D01*
X15079972Y-42907462D01*
X14953347Y-42726896D01*
X14793929Y-42574503D01*
X14607843Y-42456139D01*
X14402241Y-42376353D01*
X14229000Y-42411164D01*
X13971000Y-42411164D01*
X13797759Y-42376353D01*
X13592157Y-42456139D01*
X13406071Y-42574503D01*
X13246653Y-42726896D01*
X13120028Y-42907462D01*
X13031063Y-43109262D01*
X13016359Y-43157760D01*
X12425000Y-43157760D01*
X12425000Y-42546751D01*
X13246751Y-41725000D01*
X14877462Y-41725000D01*
X14881245Y-41763404D01*
G36*
X20025001Y-49076658D02*
G01*
X20022702Y-49100000D01*
X20025000Y-49123332D01*
X20025001Y-52391116D01*
X20014531Y-52401586D01*
X19946132Y-52503952D01*
X19899019Y-52617694D01*
X19875000Y-52738443D01*
X19875000Y-52861557D01*
X19899019Y-52982306D01*
X19946132Y-53096048D01*
X20014531Y-53198414D01*
X20101586Y-53285469D01*
X20203952Y-53353868D01*
X20317694Y-53400981D01*
X20438443Y-53425000D01*
X20453250Y-53425000D01*
X23747625Y-56719377D01*
X23762499Y-56737501D01*
X23834827Y-56796859D01*
X23888602Y-56825602D01*
X23917345Y-56840966D01*
X24006884Y-56868127D01*
X24100000Y-56877298D01*
X24123332Y-56875000D01*
X27675000Y-56875000D01*
X27675000Y-56900000D01*
X27677402Y-56924386D01*
X27684515Y-56947835D01*
X27696066Y-56969446D01*
X27711612Y-56988388D01*
X27730554Y-57003934D01*
X27752165Y-57015485D01*
X27775614Y-57022598D01*
X27800000Y-57025000D01*
X32253249Y-57025000D01*
X32253753Y-57025504D01*
X32203952Y-57046132D01*
X32101586Y-57114531D01*
X32091117Y-57125000D01*
X21396752Y-57125000D01*
X20525000Y-56253250D01*
X20525000Y-56238443D01*
X20500981Y-56117694D01*
X20453868Y-56003952D01*
X20385469Y-55901586D01*
X20375713Y-55891830D01*
X20377298Y-55875735D01*
X20368127Y-55782619D01*
X20359888Y-55755458D01*
X20340966Y-55693082D01*
X20296859Y-55610563D01*
X20237501Y-55538235D01*
X20219371Y-55523357D01*
X18575000Y-53878986D01*
X18575000Y-47258883D01*
X18601586Y-47285469D01*
X18703952Y-47353868D01*
X18817694Y-47400981D01*
X18938443Y-47425000D01*
X19061557Y-47425000D01*
X19182306Y-47400981D01*
X19296048Y-47353868D01*
X19398414Y-47285469D01*
X19485469Y-47198414D01*
X19553868Y-47096048D01*
X19562586Y-47075000D01*
X20025000Y-47075000D01*
X20025001Y-49076658D01*
G37*
X20025001Y-49076658D02*
X20022702Y-49100000D01*
X20025000Y-49123332D01*
X20025001Y-52391116D01*
X20014531Y-52401586D01*
X19946132Y-52503952D01*
X19899019Y-52617694D01*
X19875000Y-52738443D01*
X19875000Y-52861557D01*
X19899019Y-52982306D01*
X19946132Y-53096048D01*
X20014531Y-53198414D01*
X20101586Y-53285469D01*
X20203952Y-53353868D01*
X20317694Y-53400981D01*
X20438443Y-53425000D01*
X20453250Y-53425000D01*
X23747625Y-56719377D01*
X23762499Y-56737501D01*
X23834827Y-56796859D01*
X23888602Y-56825602D01*
X23917345Y-56840966D01*
X24006884Y-56868127D01*
X24100000Y-56877298D01*
X24123332Y-56875000D01*
X27675000Y-56875000D01*
X27675000Y-56900000D01*
X27677402Y-56924386D01*
X27684515Y-56947835D01*
X27696066Y-56969446D01*
X27711612Y-56988388D01*
X27730554Y-57003934D01*
X27752165Y-57015485D01*
X27775614Y-57022598D01*
X27800000Y-57025000D01*
X32253249Y-57025000D01*
X32253753Y-57025504D01*
X32203952Y-57046132D01*
X32101586Y-57114531D01*
X32091117Y-57125000D01*
X21396752Y-57125000D01*
X20525000Y-56253250D01*
X20525000Y-56238443D01*
X20500981Y-56117694D01*
X20453868Y-56003952D01*
X20385469Y-55901586D01*
X20375713Y-55891830D01*
X20377298Y-55875735D01*
X20368127Y-55782619D01*
X20359888Y-55755458D01*
X20340966Y-55693082D01*
X20296859Y-55610563D01*
X20237501Y-55538235D01*
X20219371Y-55523357D01*
X18575000Y-53878986D01*
X18575000Y-47258883D01*
X18601586Y-47285469D01*
X18703952Y-47353868D01*
X18817694Y-47400981D01*
X18938443Y-47425000D01*
X19061557Y-47425000D01*
X19182306Y-47400981D01*
X19296048Y-47353868D01*
X19398414Y-47285469D01*
X19485469Y-47198414D01*
X19553868Y-47096048D01*
X19562586Y-47075000D01*
X20025000Y-47075000D01*
X20025001Y-49076658D01*
G36*
X21214531Y-49601586D02*
G01*
X21146132Y-49703952D01*
X21099019Y-49817694D01*
X21075000Y-49938443D01*
X21075000Y-50061557D01*
X21099019Y-50182306D01*
X21146132Y-50296048D01*
X21214531Y-50398414D01*
X21301586Y-50485469D01*
X21403952Y-50553868D01*
X21517694Y-50600981D01*
X21638443Y-50625000D01*
X21653250Y-50625000D01*
X26447621Y-55419372D01*
X26462499Y-55437501D01*
X26534827Y-55496859D01*
X26617346Y-55540966D01*
X26668087Y-55556358D01*
X26706883Y-55568127D01*
X26799999Y-55577298D01*
X26823331Y-55575000D01*
X27675000Y-55575000D01*
X27675000Y-55925000D01*
X24296752Y-55925000D01*
X21125000Y-52753250D01*
X21125000Y-52738443D01*
X21100981Y-52617694D01*
X21053868Y-52503952D01*
X20985469Y-52401586D01*
X20975000Y-52391117D01*
X20975000Y-49575000D01*
X21241117Y-49575000D01*
X21214531Y-49601586D01*
G37*
X21214531Y-49601586D02*
X21146132Y-49703952D01*
X21099019Y-49817694D01*
X21075000Y-49938443D01*
X21075000Y-50061557D01*
X21099019Y-50182306D01*
X21146132Y-50296048D01*
X21214531Y-50398414D01*
X21301586Y-50485469D01*
X21403952Y-50553868D01*
X21517694Y-50600981D01*
X21638443Y-50625000D01*
X21653250Y-50625000D01*
X26447621Y-55419372D01*
X26462499Y-55437501D01*
X26534827Y-55496859D01*
X26617346Y-55540966D01*
X26668087Y-55556358D01*
X26706883Y-55568127D01*
X26799999Y-55577298D01*
X26823331Y-55575000D01*
X27675000Y-55575000D01*
X27675000Y-55925000D01*
X24296752Y-55925000D01*
X21125000Y-52753250D01*
X21125000Y-52738443D01*
X21100981Y-52617694D01*
X21053868Y-52503952D01*
X20985469Y-52401586D01*
X20975000Y-52391117D01*
X20975000Y-49575000D01*
X21241117Y-49575000D01*
X21214531Y-49601586D01*
G36*
X22775000Y-43446751D02*
G01*
X22775000Y-43461557D01*
X22799019Y-43582306D01*
X22846132Y-43696048D01*
X22914531Y-43798414D01*
X23001586Y-43885469D01*
X23103952Y-43953868D01*
X23217694Y-44000981D01*
X23338443Y-44025000D01*
X23461557Y-44025000D01*
X23582306Y-44000981D01*
X23696048Y-43953868D01*
X23798414Y-43885469D01*
X23808883Y-43875000D01*
X27675000Y-43875000D01*
X27675000Y-51425000D01*
X25796751Y-51425000D01*
X25125000Y-50753250D01*
X25125000Y-50738443D01*
X25100981Y-50617694D01*
X25053868Y-50503952D01*
X24985469Y-50401586D01*
X24898414Y-50314531D01*
X24796048Y-50246132D01*
X24682306Y-50199019D01*
X24561557Y-50175000D01*
X24438443Y-50175000D01*
X24317694Y-50199019D01*
X24203952Y-50246132D01*
X24101586Y-50314531D01*
X24014531Y-50401586D01*
X23946132Y-50503952D01*
X23899019Y-50617694D01*
X23897430Y-50625680D01*
X23125000Y-49853250D01*
X23125000Y-49838443D01*
X23100981Y-49717694D01*
X23057528Y-49612788D01*
X23098414Y-49585469D01*
X23185469Y-49498414D01*
X23253868Y-49396048D01*
X23300981Y-49282306D01*
X23325000Y-49161557D01*
X23325000Y-49038443D01*
X23300981Y-48917694D01*
X23253868Y-48803952D01*
X23185469Y-48701586D01*
X23098414Y-48614531D01*
X22996048Y-48546132D01*
X22882306Y-48499019D01*
X22761557Y-48475000D01*
X22638443Y-48475000D01*
X22517694Y-48499019D01*
X22403952Y-48546132D01*
X22301586Y-48614531D01*
X22291117Y-48625000D01*
X20975000Y-48625000D01*
X20975000Y-46796750D01*
X22319371Y-45452379D01*
X22337501Y-45437501D01*
X22396859Y-45365173D01*
X22440966Y-45282654D01*
X22468127Y-45193116D01*
X22471235Y-45161557D01*
X22477298Y-45100001D01*
X22475000Y-45076669D01*
X22475000Y-43708883D01*
X22485469Y-43698414D01*
X22553868Y-43596048D01*
X22600981Y-43482306D01*
X22625000Y-43361557D01*
X22625000Y-43296750D01*
X22775000Y-43446751D01*
G37*
X22775000Y-43446751D02*
X22775000Y-43461557D01*
X22799019Y-43582306D01*
X22846132Y-43696048D01*
X22914531Y-43798414D01*
X23001586Y-43885469D01*
X23103952Y-43953868D01*
X23217694Y-44000981D01*
X23338443Y-44025000D01*
X23461557Y-44025000D01*
X23582306Y-44000981D01*
X23696048Y-43953868D01*
X23798414Y-43885469D01*
X23808883Y-43875000D01*
X27675000Y-43875000D01*
X27675000Y-51425000D01*
X25796751Y-51425000D01*
X25125000Y-50753250D01*
X25125000Y-50738443D01*
X25100981Y-50617694D01*
X25053868Y-50503952D01*
X24985469Y-50401586D01*
X24898414Y-50314531D01*
X24796048Y-50246132D01*
X24682306Y-50199019D01*
X24561557Y-50175000D01*
X24438443Y-50175000D01*
X24317694Y-50199019D01*
X24203952Y-50246132D01*
X24101586Y-50314531D01*
X24014531Y-50401586D01*
X23946132Y-50503952D01*
X23899019Y-50617694D01*
X23897430Y-50625680D01*
X23125000Y-49853250D01*
X23125000Y-49838443D01*
X23100981Y-49717694D01*
X23057528Y-49612788D01*
X23098414Y-49585469D01*
X23185469Y-49498414D01*
X23253868Y-49396048D01*
X23300981Y-49282306D01*
X23325000Y-49161557D01*
X23325000Y-49038443D01*
X23300981Y-48917694D01*
X23253868Y-48803952D01*
X23185469Y-48701586D01*
X23098414Y-48614531D01*
X22996048Y-48546132D01*
X22882306Y-48499019D01*
X22761557Y-48475000D01*
X22638443Y-48475000D01*
X22517694Y-48499019D01*
X22403952Y-48546132D01*
X22301586Y-48614531D01*
X22291117Y-48625000D01*
X20975000Y-48625000D01*
X20975000Y-46796750D01*
X22319371Y-45452379D01*
X22337501Y-45437501D01*
X22396859Y-45365173D01*
X22440966Y-45282654D01*
X22468127Y-45193116D01*
X22471235Y-45161557D01*
X22477298Y-45100001D01*
X22475000Y-45076669D01*
X22475000Y-43708883D01*
X22485469Y-43698414D01*
X22553868Y-43596048D01*
X22600981Y-43482306D01*
X22625000Y-43361557D01*
X22625000Y-43296750D01*
X22775000Y-43446751D01*
G36*
X41173669Y-52650000D02*
G01*
X41175000Y-52952250D01*
X41243750Y-53021000D01*
X41721153Y-53021000D01*
X41745207Y-53034006D01*
X41771969Y-53048719D01*
X41773052Y-53049062D01*
X41774057Y-53049606D01*
X41803318Y-53058664D01*
X41832429Y-53067898D01*
X41833561Y-53068025D01*
X41834650Y-53068362D01*
X41865085Y-53071561D01*
X41895462Y-53074968D01*
X41897649Y-53074983D01*
X41897731Y-53074992D01*
X41897813Y-53074985D01*
X41900000Y-53075000D01*
X42500000Y-53075000D01*
X42530441Y-53072015D01*
X42560899Y-53069243D01*
X42561993Y-53068921D01*
X42563126Y-53068810D01*
X42592354Y-53059985D01*
X42621747Y-53051335D01*
X42622760Y-53050806D01*
X42623848Y-53050477D01*
X42650817Y-53036137D01*
X42677958Y-53021948D01*
X42678847Y-53021234D01*
X42679286Y-53021000D01*
X43156250Y-53021000D01*
X43225000Y-52952250D01*
X43226331Y-52650000D01*
X43223869Y-52625000D01*
X47825001Y-52625000D01*
X47825000Y-57271117D01*
X47814531Y-57281586D01*
X47746132Y-57383952D01*
X47699019Y-57497694D01*
X47675000Y-57618443D01*
X47675000Y-57741557D01*
X47699019Y-57862306D01*
X47746132Y-57976048D01*
X47814531Y-58078414D01*
X47901586Y-58165469D01*
X48003952Y-58233868D01*
X48117694Y-58280981D01*
X48238443Y-58305000D01*
X48361557Y-58305000D01*
X48482306Y-58280981D01*
X48596048Y-58233868D01*
X48698414Y-58165469D01*
X48785469Y-58078414D01*
X48853868Y-57976048D01*
X48900981Y-57862306D01*
X48925000Y-57741557D01*
X48925000Y-57618443D01*
X48900981Y-57497694D01*
X48853868Y-57383952D01*
X48785469Y-57281586D01*
X48775000Y-57271117D01*
X48775000Y-52625000D01*
X49600000Y-52625000D01*
X49600000Y-62175000D01*
X40523869Y-62175000D01*
X40526331Y-62150000D01*
X40525000Y-61847750D01*
X40456250Y-61779000D01*
X39978847Y-61779000D01*
X39954793Y-61765994D01*
X39928031Y-61751281D01*
X39926948Y-61750938D01*
X39925943Y-61750394D01*
X39896682Y-61741336D01*
X39867571Y-61732102D01*
X39866439Y-61731975D01*
X39865350Y-61731638D01*
X39834915Y-61728439D01*
X39804538Y-61725032D01*
X39802351Y-61725017D01*
X39802269Y-61725008D01*
X39802187Y-61725015D01*
X39800000Y-61725000D01*
X39200000Y-61725000D01*
X39169559Y-61727985D01*
X39139101Y-61730757D01*
X39138007Y-61731079D01*
X39136874Y-61731190D01*
X39107646Y-61740015D01*
X39078253Y-61748665D01*
X39077240Y-61749194D01*
X39076152Y-61749523D01*
X39049183Y-61763863D01*
X39022042Y-61778052D01*
X39021153Y-61778766D01*
X39020714Y-61779000D01*
X38543750Y-61779000D01*
X38475000Y-61847750D01*
X38473669Y-62150000D01*
X38476131Y-62175000D01*
X36825000Y-62175000D01*
X36825000Y-61150000D01*
X38473669Y-61150000D01*
X38475000Y-61452250D01*
X38543750Y-61521000D01*
X39371000Y-61521000D01*
X39371000Y-60943750D01*
X39629000Y-60943750D01*
X39629000Y-61521000D01*
X40456250Y-61521000D01*
X40525000Y-61452250D01*
X40526331Y-61150000D01*
X40521021Y-61096090D01*
X40505297Y-61044253D01*
X40479761Y-60996479D01*
X40445396Y-60954604D01*
X40403521Y-60920239D01*
X40355747Y-60894703D01*
X40303910Y-60878979D01*
X40250000Y-60873669D01*
X39697750Y-60875000D01*
X39629000Y-60943750D01*
X39371000Y-60943750D01*
X39302250Y-60875000D01*
X38750000Y-60873669D01*
X38696090Y-60878979D01*
X38644253Y-60894703D01*
X38596479Y-60920239D01*
X38554604Y-60954604D01*
X38520239Y-60996479D01*
X38494703Y-61044253D01*
X38478979Y-61096090D01*
X38473669Y-61150000D01*
X36825000Y-61150000D01*
X36825000Y-60294122D01*
X47225000Y-60294122D01*
X47225000Y-60505878D01*
X47266312Y-60713566D01*
X47347348Y-60909203D01*
X47464993Y-61085272D01*
X47614728Y-61235007D01*
X47697064Y-61290022D01*
X47675000Y-61400943D01*
X47675000Y-61524057D01*
X47699019Y-61644806D01*
X47746132Y-61758548D01*
X47814531Y-61860914D01*
X47901586Y-61947969D01*
X48003952Y-62016368D01*
X48117694Y-62063481D01*
X48238443Y-62087500D01*
X48361557Y-62087500D01*
X48482306Y-62063481D01*
X48596048Y-62016368D01*
X48698414Y-61947969D01*
X48785469Y-61860914D01*
X48853868Y-61758548D01*
X48900981Y-61644806D01*
X48925000Y-61524057D01*
X48925000Y-61400943D01*
X48902936Y-61290022D01*
X48985272Y-61235007D01*
X49135007Y-61085272D01*
X49252652Y-60909203D01*
X49333688Y-60713566D01*
X49375000Y-60505878D01*
X49375000Y-60294122D01*
X49333688Y-60086434D01*
X49252652Y-59890797D01*
X49135007Y-59714728D01*
X48985272Y-59564993D01*
X48809203Y-59447348D01*
X48613566Y-59366312D01*
X48405878Y-59325000D01*
X48194122Y-59325000D01*
X47986434Y-59366312D01*
X47790797Y-59447348D01*
X47614728Y-59564993D01*
X47464993Y-59714728D01*
X47347348Y-59890797D01*
X47266312Y-60086434D01*
X47225000Y-60294122D01*
X36825000Y-60294122D01*
X36825000Y-54222488D01*
X37219377Y-53828111D01*
X37237501Y-53813237D01*
X37296859Y-53740909D01*
X37340966Y-53658390D01*
X37343511Y-53650000D01*
X41173669Y-53650000D01*
X41178979Y-53703910D01*
X41194703Y-53755747D01*
X41220239Y-53803521D01*
X41254604Y-53845396D01*
X41296479Y-53879761D01*
X41344253Y-53905297D01*
X41396090Y-53921021D01*
X41450000Y-53926331D01*
X42002250Y-53925000D01*
X42071000Y-53856250D01*
X42071000Y-53279000D01*
X42329000Y-53279000D01*
X42329000Y-53856250D01*
X42397750Y-53925000D01*
X42950000Y-53926331D01*
X43003910Y-53921021D01*
X43055747Y-53905297D01*
X43103521Y-53879761D01*
X43145396Y-53845396D01*
X43179761Y-53803521D01*
X43205297Y-53755747D01*
X43221021Y-53703910D01*
X43226331Y-53650000D01*
X43225000Y-53347750D01*
X43156250Y-53279000D01*
X42329000Y-53279000D01*
X42071000Y-53279000D01*
X41243750Y-53279000D01*
X41175000Y-53347750D01*
X41173669Y-53650000D01*
X37343511Y-53650000D01*
X37368127Y-53568852D01*
X37375000Y-53499068D01*
X37375000Y-53499067D01*
X37377298Y-53475736D01*
X37375000Y-53452404D01*
X37375000Y-52625000D01*
X41176131Y-52625000D01*
X41173669Y-52650000D01*
G37*
X41173669Y-52650000D02*
X41175000Y-52952250D01*
X41243750Y-53021000D01*
X41721153Y-53021000D01*
X41745207Y-53034006D01*
X41771969Y-53048719D01*
X41773052Y-53049062D01*
X41774057Y-53049606D01*
X41803318Y-53058664D01*
X41832429Y-53067898D01*
X41833561Y-53068025D01*
X41834650Y-53068362D01*
X41865085Y-53071561D01*
X41895462Y-53074968D01*
X41897649Y-53074983D01*
X41897731Y-53074992D01*
X41897813Y-53074985D01*
X41900000Y-53075000D01*
X42500000Y-53075000D01*
X42530441Y-53072015D01*
X42560899Y-53069243D01*
X42561993Y-53068921D01*
X42563126Y-53068810D01*
X42592354Y-53059985D01*
X42621747Y-53051335D01*
X42622760Y-53050806D01*
X42623848Y-53050477D01*
X42650817Y-53036137D01*
X42677958Y-53021948D01*
X42678847Y-53021234D01*
X42679286Y-53021000D01*
X43156250Y-53021000D01*
X43225000Y-52952250D01*
X43226331Y-52650000D01*
X43223869Y-52625000D01*
X47825001Y-52625000D01*
X47825000Y-57271117D01*
X47814531Y-57281586D01*
X47746132Y-57383952D01*
X47699019Y-57497694D01*
X47675000Y-57618443D01*
X47675000Y-57741557D01*
X47699019Y-57862306D01*
X47746132Y-57976048D01*
X47814531Y-58078414D01*
X47901586Y-58165469D01*
X48003952Y-58233868D01*
X48117694Y-58280981D01*
X48238443Y-58305000D01*
X48361557Y-58305000D01*
X48482306Y-58280981D01*
X48596048Y-58233868D01*
X48698414Y-58165469D01*
X48785469Y-58078414D01*
X48853868Y-57976048D01*
X48900981Y-57862306D01*
X48925000Y-57741557D01*
X48925000Y-57618443D01*
X48900981Y-57497694D01*
X48853868Y-57383952D01*
X48785469Y-57281586D01*
X48775000Y-57271117D01*
X48775000Y-52625000D01*
X49600000Y-52625000D01*
X49600000Y-62175000D01*
X40523869Y-62175000D01*
X40526331Y-62150000D01*
X40525000Y-61847750D01*
X40456250Y-61779000D01*
X39978847Y-61779000D01*
X39954793Y-61765994D01*
X39928031Y-61751281D01*
X39926948Y-61750938D01*
X39925943Y-61750394D01*
X39896682Y-61741336D01*
X39867571Y-61732102D01*
X39866439Y-61731975D01*
X39865350Y-61731638D01*
X39834915Y-61728439D01*
X39804538Y-61725032D01*
X39802351Y-61725017D01*
X39802269Y-61725008D01*
X39802187Y-61725015D01*
X39800000Y-61725000D01*
X39200000Y-61725000D01*
X39169559Y-61727985D01*
X39139101Y-61730757D01*
X39138007Y-61731079D01*
X39136874Y-61731190D01*
X39107646Y-61740015D01*
X39078253Y-61748665D01*
X39077240Y-61749194D01*
X39076152Y-61749523D01*
X39049183Y-61763863D01*
X39022042Y-61778052D01*
X39021153Y-61778766D01*
X39020714Y-61779000D01*
X38543750Y-61779000D01*
X38475000Y-61847750D01*
X38473669Y-62150000D01*
X38476131Y-62175000D01*
X36825000Y-62175000D01*
X36825000Y-61150000D01*
X38473669Y-61150000D01*
X38475000Y-61452250D01*
X38543750Y-61521000D01*
X39371000Y-61521000D01*
X39371000Y-60943750D01*
X39629000Y-60943750D01*
X39629000Y-61521000D01*
X40456250Y-61521000D01*
X40525000Y-61452250D01*
X40526331Y-61150000D01*
X40521021Y-61096090D01*
X40505297Y-61044253D01*
X40479761Y-60996479D01*
X40445396Y-60954604D01*
X40403521Y-60920239D01*
X40355747Y-60894703D01*
X40303910Y-60878979D01*
X40250000Y-60873669D01*
X39697750Y-60875000D01*
X39629000Y-60943750D01*
X39371000Y-60943750D01*
X39302250Y-60875000D01*
X38750000Y-60873669D01*
X38696090Y-60878979D01*
X38644253Y-60894703D01*
X38596479Y-60920239D01*
X38554604Y-60954604D01*
X38520239Y-60996479D01*
X38494703Y-61044253D01*
X38478979Y-61096090D01*
X38473669Y-61150000D01*
X36825000Y-61150000D01*
X36825000Y-60294122D01*
X47225000Y-60294122D01*
X47225000Y-60505878D01*
X47266312Y-60713566D01*
X47347348Y-60909203D01*
X47464993Y-61085272D01*
X47614728Y-61235007D01*
X47697064Y-61290022D01*
X47675000Y-61400943D01*
X47675000Y-61524057D01*
X47699019Y-61644806D01*
X47746132Y-61758548D01*
X47814531Y-61860914D01*
X47901586Y-61947969D01*
X48003952Y-62016368D01*
X48117694Y-62063481D01*
X48238443Y-62087500D01*
X48361557Y-62087500D01*
X48482306Y-62063481D01*
X48596048Y-62016368D01*
X48698414Y-61947969D01*
X48785469Y-61860914D01*
X48853868Y-61758548D01*
X48900981Y-61644806D01*
X48925000Y-61524057D01*
X48925000Y-61400943D01*
X48902936Y-61290022D01*
X48985272Y-61235007D01*
X49135007Y-61085272D01*
X49252652Y-60909203D01*
X49333688Y-60713566D01*
X49375000Y-60505878D01*
X49375000Y-60294122D01*
X49333688Y-60086434D01*
X49252652Y-59890797D01*
X49135007Y-59714728D01*
X48985272Y-59564993D01*
X48809203Y-59447348D01*
X48613566Y-59366312D01*
X48405878Y-59325000D01*
X48194122Y-59325000D01*
X47986434Y-59366312D01*
X47790797Y-59447348D01*
X47614728Y-59564993D01*
X47464993Y-59714728D01*
X47347348Y-59890797D01*
X47266312Y-60086434D01*
X47225000Y-60294122D01*
X36825000Y-60294122D01*
X36825000Y-54222488D01*
X37219377Y-53828111D01*
X37237501Y-53813237D01*
X37296859Y-53740909D01*
X37340966Y-53658390D01*
X37343511Y-53650000D01*
X41173669Y-53650000D01*
X41178979Y-53703910D01*
X41194703Y-53755747D01*
X41220239Y-53803521D01*
X41254604Y-53845396D01*
X41296479Y-53879761D01*
X41344253Y-53905297D01*
X41396090Y-53921021D01*
X41450000Y-53926331D01*
X42002250Y-53925000D01*
X42071000Y-53856250D01*
X42071000Y-53279000D01*
X42329000Y-53279000D01*
X42329000Y-53856250D01*
X42397750Y-53925000D01*
X42950000Y-53926331D01*
X43003910Y-53921021D01*
X43055747Y-53905297D01*
X43103521Y-53879761D01*
X43145396Y-53845396D01*
X43179761Y-53803521D01*
X43205297Y-53755747D01*
X43221021Y-53703910D01*
X43226331Y-53650000D01*
X43225000Y-53347750D01*
X43156250Y-53279000D01*
X42329000Y-53279000D01*
X42071000Y-53279000D01*
X41243750Y-53279000D01*
X41175000Y-53347750D01*
X41173669Y-53650000D01*
X37343511Y-53650000D01*
X37368127Y-53568852D01*
X37375000Y-53499068D01*
X37375000Y-53499067D01*
X37377298Y-53475736D01*
X37375000Y-53452404D01*
X37375000Y-52625000D01*
X41176131Y-52625000D01*
X41173669Y-52650000D01*
M02*
