G04 #@! TF.GenerationSoftware,KiCad,Pcbnew,5.1.5+dfsg1-2build2*
G04 #@! TF.CreationDate,2021-02-28T23:15:09+01:00*
G04 #@! TF.ProjectId,time2time,74696d65-3274-4696-9d65-2e6b69636164,V1.0*
G04 #@! TF.SameCoordinates,PX7735940PY3473bc0*
G04 #@! TF.FileFunction,Soldermask,Top*
G04 #@! TF.FilePolarity,Negative*
%FSLAX46Y46*%
G04 Gerber Fmt 4.6, Leading zero omitted, Abs format (unit mm)*
G04 Created by KiCad (PCBNEW 5.1.5+dfsg1-2build2) date 2021-02-28 23:15:09*
%MOMM*%
%LPD*%
G04 APERTURE LIST*
%ADD10C,0.150000*%
%ADD11C,0.100000*%
G04 APERTURE END LIST*
D10*
X50000000Y-68000000D02*
G75*
G02X48000000Y-70000000I-2000000J0D01*
G01*
X2000000Y-70000000D02*
G75*
G02X0Y-68000000I0J2000000D01*
G01*
X0Y-22000000D02*
G75*
G02X2000000Y-20000000I2000000J0D01*
G01*
X9500000Y-18000000D02*
G75*
G02X7500000Y-20000000I-2000000J0D01*
G01*
X42500000Y-20000000D02*
G75*
G02X40500000Y-18000000I0J2000000D01*
G01*
X48000000Y-20000000D02*
G75*
G02X50000000Y-22000000I0J-2000000D01*
G01*
X37700000Y0D02*
G75*
G02X40500000Y-2800000I0J-2800000D01*
G01*
X9500000Y-2800000D02*
G75*
G02X12300000Y0I2800000J0D01*
G01*
X42500000Y-20000000D02*
X48000000Y-20000000D01*
X9500000Y-2800000D02*
X9500000Y-18000000D01*
X37700000Y0D02*
X12300000Y0D01*
X40500000Y-18000000D02*
X40500000Y-2800000D01*
X36600000Y-23000000D02*
G75*
G03X36600000Y-23000000I-1100000J0D01*
G01*
X15600000Y-23000000D02*
G75*
G03X15600000Y-23000000I-1100000J0D01*
G01*
X39300000Y-3000000D02*
G75*
G03X39300000Y-3000000I-1600000J0D01*
G01*
X13900000Y-3000000D02*
G75*
G03X13900000Y-3000000I-1600000J0D01*
G01*
X0Y-22000000D02*
X0Y-68000000D01*
X7500000Y-20000000D02*
X2000000Y-20000000D01*
X50000000Y-68000000D02*
X50000000Y-22000000D01*
X2000000Y-70000000D02*
X48000000Y-70000000D01*
D11*
G36*
X34125862Y-67535898D02*
G01*
X34138114Y-67536500D01*
X35351000Y-67536500D01*
X35351000Y-69538500D01*
X34138114Y-69538500D01*
X34125862Y-69539102D01*
X34100000Y-69541649D01*
X34074138Y-69539102D01*
X34061886Y-69538500D01*
X33988594Y-69538500D01*
X33971836Y-69529543D01*
X33960299Y-69525415D01*
X33875307Y-69499632D01*
X33849664Y-69491854D01*
X33736575Y-69431406D01*
X33637447Y-69350054D01*
X33556094Y-69250924D01*
X33495646Y-69137835D01*
X33474407Y-69067818D01*
X33458420Y-69015117D01*
X33449000Y-68919472D01*
X33449000Y-68155527D01*
X33458420Y-68059882D01*
X33495645Y-67937168D01*
X33556096Y-67824074D01*
X33637447Y-67724946D01*
X33736576Y-67643594D01*
X33849666Y-67583146D01*
X33849669Y-67583145D01*
X33960290Y-67549588D01*
X33982925Y-67540212D01*
X33988481Y-67536500D01*
X34061886Y-67536500D01*
X34074138Y-67535898D01*
X34100000Y-67533351D01*
X34125862Y-67535898D01*
G37*
G36*
X41125862Y-67535898D02*
G01*
X41138114Y-67536500D01*
X41211406Y-67536500D01*
X41228164Y-67545457D01*
X41239707Y-67549587D01*
X41350331Y-67583145D01*
X41350334Y-67583146D01*
X41463424Y-67643594D01*
X41562554Y-67724947D01*
X41643906Y-67824075D01*
X41704354Y-67937164D01*
X41707710Y-67948228D01*
X41741580Y-68059882D01*
X41751000Y-68155527D01*
X41751000Y-68919473D01*
X41741580Y-69015118D01*
X41714300Y-69105047D01*
X41704354Y-69137836D01*
X41643906Y-69250925D01*
X41562554Y-69350054D01*
X41463425Y-69431406D01*
X41350336Y-69491854D01*
X41324693Y-69499632D01*
X41239708Y-69525413D01*
X41217075Y-69534787D01*
X41211518Y-69538500D01*
X41138114Y-69538500D01*
X41125862Y-69539102D01*
X41100000Y-69541649D01*
X41074138Y-69539102D01*
X41061886Y-69538500D01*
X39849000Y-69538500D01*
X39849000Y-67536500D01*
X41061886Y-67536500D01*
X41074138Y-67535898D01*
X41100000Y-67533351D01*
X41125862Y-67535898D01*
G37*
G36*
X37401000Y-69538500D02*
G01*
X35799000Y-69538500D01*
X35799000Y-67536500D01*
X37401000Y-67536500D01*
X37401000Y-69538500D01*
G37*
G36*
X39401000Y-69538500D02*
G01*
X37799000Y-69538500D01*
X37799000Y-67536500D01*
X39401000Y-67536500D01*
X39401000Y-69538500D01*
G37*
G36*
X29325635Y-65815654D02*
G01*
X29542600Y-65881470D01*
X29542602Y-65881471D01*
X29742555Y-65988347D01*
X29917818Y-66132182D01*
X30061653Y-66307445D01*
X30160848Y-66493028D01*
X30168530Y-66507400D01*
X30232291Y-66717592D01*
X30234346Y-66724366D01*
X30251000Y-66893455D01*
X30251000Y-68306545D01*
X30241006Y-68408011D01*
X30234346Y-68475635D01*
X30172005Y-68681146D01*
X30168529Y-68692602D01*
X30061653Y-68892555D01*
X29983891Y-68987307D01*
X29917818Y-69067818D01*
X29822843Y-69145761D01*
X29742553Y-69211653D01*
X29542601Y-69318529D01*
X29542599Y-69318530D01*
X29325634Y-69384346D01*
X29100000Y-69406569D01*
X28874365Y-69384346D01*
X28657400Y-69318530D01*
X28657398Y-69318529D01*
X28457445Y-69211653D01*
X28327546Y-69105047D01*
X28282182Y-69067818D01*
X28138348Y-68892554D01*
X28112186Y-68843608D01*
X28036238Y-68701520D01*
X28022625Y-68681146D01*
X28005298Y-68663819D01*
X27984923Y-68650205D01*
X27962285Y-68640827D01*
X27938251Y-68636047D01*
X27913747Y-68636047D01*
X27889714Y-68640827D01*
X27867075Y-68650205D01*
X27846701Y-68663818D01*
X27829374Y-68681145D01*
X27815760Y-68701520D01*
X27806382Y-68724158D01*
X27801602Y-68748192D01*
X27801000Y-68760444D01*
X27801000Y-68901000D01*
X26199000Y-68901000D01*
X26199000Y-66299000D01*
X27801000Y-66299000D01*
X27801000Y-66439555D01*
X27803402Y-66463941D01*
X27810515Y-66487390D01*
X27822066Y-66509001D01*
X27837611Y-66527943D01*
X27856553Y-66543488D01*
X27878164Y-66555039D01*
X27901613Y-66562152D01*
X27925999Y-66564554D01*
X27950385Y-66562152D01*
X27973834Y-66555039D01*
X27995445Y-66543488D01*
X28014387Y-66527943D01*
X28036238Y-66498479D01*
X28138348Y-66307446D01*
X28282183Y-66132182D01*
X28457446Y-65988347D01*
X28657399Y-65881471D01*
X28657401Y-65881470D01*
X28874366Y-65815654D01*
X29100000Y-65793431D01*
X29325635Y-65815654D01*
G37*
G36*
X21125635Y-65815654D02*
G01*
X21342600Y-65881470D01*
X21342602Y-65881471D01*
X21542555Y-65988347D01*
X21717818Y-66132182D01*
X21861653Y-66307445D01*
X21960848Y-66493028D01*
X21968530Y-66507400D01*
X22027891Y-66703085D01*
X22034986Y-66726475D01*
X22038908Y-66746196D01*
X22048284Y-66768835D01*
X22061897Y-66789210D01*
X22079223Y-66806538D01*
X22099597Y-66820153D01*
X22122236Y-66829531D01*
X22146269Y-66834313D01*
X22170773Y-66834314D01*
X22194806Y-66829534D01*
X22217445Y-66820158D01*
X22237820Y-66806545D01*
X22255148Y-66789219D01*
X22268765Y-66768841D01*
X22330772Y-66652835D01*
X22430868Y-66530867D01*
X22552836Y-66430771D01*
X22691988Y-66356392D01*
X22742319Y-66341125D01*
X22842978Y-66310590D01*
X23000000Y-66295125D01*
X23157023Y-66310590D01*
X23257682Y-66341125D01*
X23308013Y-66356392D01*
X23447165Y-66430771D01*
X23569133Y-66530867D01*
X23669229Y-66652835D01*
X23743608Y-66791987D01*
X23756447Y-66834313D01*
X23789410Y-66942977D01*
X23801000Y-67060655D01*
X23801000Y-68139345D01*
X23789410Y-68257023D01*
X23758875Y-68357682D01*
X23743608Y-68408013D01*
X23718948Y-68454148D01*
X23669229Y-68547165D01*
X23569133Y-68669133D01*
X23472798Y-68748192D01*
X23447164Y-68769229D01*
X23308012Y-68843608D01*
X23257681Y-68858875D01*
X23157022Y-68889410D01*
X23000000Y-68904875D01*
X22842977Y-68889410D01*
X22742318Y-68858875D01*
X22691987Y-68843608D01*
X22552835Y-68769229D01*
X22497916Y-68724158D01*
X22430867Y-68669133D01*
X22330771Y-68547164D01*
X22292537Y-68475633D01*
X22268765Y-68431160D01*
X22255151Y-68410786D01*
X22237824Y-68393459D01*
X22217450Y-68379845D01*
X22194811Y-68370468D01*
X22170777Y-68365688D01*
X22146273Y-68365688D01*
X22122240Y-68370469D01*
X22099601Y-68379846D01*
X22079227Y-68393460D01*
X22061900Y-68410787D01*
X22048286Y-68431161D01*
X22038909Y-68453800D01*
X22034988Y-68473517D01*
X22034346Y-68475633D01*
X22034346Y-68475635D01*
X21968530Y-68692599D01*
X21968529Y-68692602D01*
X21861653Y-68892555D01*
X21783891Y-68987307D01*
X21717818Y-69067818D01*
X21622843Y-69145761D01*
X21542553Y-69211653D01*
X21342601Y-69318529D01*
X21342599Y-69318530D01*
X21125634Y-69384346D01*
X20900000Y-69406569D01*
X20674365Y-69384346D01*
X20457400Y-69318530D01*
X20457398Y-69318529D01*
X20257445Y-69211653D01*
X20127546Y-69105047D01*
X20082182Y-69067818D01*
X19938348Y-68892554D01*
X19912186Y-68843608D01*
X19831471Y-68692601D01*
X19827996Y-68681145D01*
X19765654Y-68475634D01*
X19757561Y-68393460D01*
X19749000Y-68306544D01*
X19749000Y-66893455D01*
X19765654Y-66724366D01*
X19767709Y-66717592D01*
X19831470Y-66507400D01*
X19839152Y-66493028D01*
X19938348Y-66307446D01*
X20082183Y-66132182D01*
X20257446Y-65988347D01*
X20457399Y-65881471D01*
X20457401Y-65881470D01*
X20674366Y-65815654D01*
X20900000Y-65793431D01*
X21125635Y-65815654D01*
G37*
G36*
X18224807Y-65653498D02*
G01*
X18262818Y-65665029D01*
X18297842Y-65683749D01*
X18328549Y-65708951D01*
X18353751Y-65739658D01*
X18372471Y-65774682D01*
X18384002Y-65812693D01*
X18388500Y-65858363D01*
X18388500Y-68941637D01*
X18384002Y-68987307D01*
X18372471Y-69025318D01*
X18353751Y-69060342D01*
X18328549Y-69091049D01*
X18297842Y-69116251D01*
X18262818Y-69134971D01*
X18224807Y-69146502D01*
X18179137Y-69151000D01*
X17370863Y-69151000D01*
X17325193Y-69146502D01*
X17287182Y-69134971D01*
X17252158Y-69116251D01*
X17221451Y-69091049D01*
X17196249Y-69060342D01*
X17177529Y-69025318D01*
X17165998Y-68987307D01*
X17161500Y-68941637D01*
X17161500Y-65858363D01*
X17165998Y-65812693D01*
X17177529Y-65774682D01*
X17196249Y-65739658D01*
X17221451Y-65708951D01*
X17252158Y-65683749D01*
X17287182Y-65665029D01*
X17325193Y-65653498D01*
X17370863Y-65649000D01*
X18179137Y-65649000D01*
X18224807Y-65653498D01*
G37*
G36*
X13949807Y-65653498D02*
G01*
X13987818Y-65665029D01*
X14022842Y-65683749D01*
X14053549Y-65708951D01*
X14078751Y-65739658D01*
X14097471Y-65774682D01*
X14109002Y-65812693D01*
X14113500Y-65858363D01*
X14113500Y-68941637D01*
X14109002Y-68987307D01*
X14097471Y-69025318D01*
X14078751Y-69060342D01*
X14053549Y-69091049D01*
X14022842Y-69116251D01*
X13987818Y-69134971D01*
X13949807Y-69146502D01*
X13904137Y-69151000D01*
X13095863Y-69151000D01*
X13050193Y-69146502D01*
X13012182Y-69134971D01*
X12977158Y-69116251D01*
X12946451Y-69091049D01*
X12921249Y-69060342D01*
X12902529Y-69025318D01*
X12890998Y-68987307D01*
X12886500Y-68941637D01*
X12886500Y-65858363D01*
X12890998Y-65812693D01*
X12902529Y-65774682D01*
X12921249Y-65739658D01*
X12946451Y-65708951D01*
X12977158Y-65683749D01*
X13012182Y-65665029D01*
X13050193Y-65653498D01*
X13095863Y-65649000D01*
X13904137Y-65649000D01*
X13949807Y-65653498D01*
G37*
G36*
X25157023Y-66310590D02*
G01*
X25257682Y-66341125D01*
X25308013Y-66356392D01*
X25447165Y-66430771D01*
X25569133Y-66530867D01*
X25669229Y-66652835D01*
X25743608Y-66791987D01*
X25756447Y-66834313D01*
X25789410Y-66942977D01*
X25801000Y-67060655D01*
X25801000Y-68139345D01*
X25789410Y-68257023D01*
X25758875Y-68357682D01*
X25743608Y-68408013D01*
X25718948Y-68454148D01*
X25669229Y-68547165D01*
X25569133Y-68669133D01*
X25472798Y-68748192D01*
X25447164Y-68769229D01*
X25308012Y-68843608D01*
X25257681Y-68858875D01*
X25157022Y-68889410D01*
X25000000Y-68904875D01*
X24842977Y-68889410D01*
X24742318Y-68858875D01*
X24691987Y-68843608D01*
X24552835Y-68769229D01*
X24497916Y-68724158D01*
X24430867Y-68669133D01*
X24330771Y-68547164D01*
X24292537Y-68475633D01*
X24256392Y-68408012D01*
X24225613Y-68306545D01*
X24210590Y-68257022D01*
X24199000Y-68139344D01*
X24199001Y-67060655D01*
X24210591Y-66942977D01*
X24243554Y-66834313D01*
X24256393Y-66791987D01*
X24330772Y-66652835D01*
X24430868Y-66530867D01*
X24552836Y-66430771D01*
X24691988Y-66356392D01*
X24742319Y-66341125D01*
X24842978Y-66310590D01*
X25000000Y-66295125D01*
X25157023Y-66310590D01*
G37*
G36*
X46148228Y-66881703D02*
G01*
X46303100Y-66945853D01*
X46442481Y-67038985D01*
X46561015Y-67157519D01*
X46654147Y-67296900D01*
X46718297Y-67451772D01*
X46751000Y-67616184D01*
X46751000Y-67783816D01*
X46718297Y-67948228D01*
X46654147Y-68103100D01*
X46561015Y-68242481D01*
X46442481Y-68361015D01*
X46303100Y-68454147D01*
X46148228Y-68518297D01*
X45983816Y-68551000D01*
X45816184Y-68551000D01*
X45651772Y-68518297D01*
X45496900Y-68454147D01*
X45357519Y-68361015D01*
X45238985Y-68242481D01*
X45145853Y-68103100D01*
X45081703Y-67948228D01*
X45049000Y-67783816D01*
X45049000Y-67616184D01*
X45081703Y-67451772D01*
X45145853Y-67296900D01*
X45238985Y-67157519D01*
X45357519Y-67038985D01*
X45496900Y-66945853D01*
X45651772Y-66881703D01*
X45816184Y-66849000D01*
X45983816Y-66849000D01*
X46148228Y-66881703D01*
G37*
G36*
X5527617Y-65883420D02*
G01*
X5608399Y-65907925D01*
X5650335Y-65920646D01*
X5763424Y-65981094D01*
X5862554Y-66062447D01*
X5943906Y-66161575D01*
X6004354Y-66274664D01*
X6010561Y-66295125D01*
X6041580Y-66397382D01*
X6051000Y-66493027D01*
X6051000Y-67106973D01*
X6041580Y-67202618D01*
X6014040Y-67293404D01*
X6004354Y-67325336D01*
X5943906Y-67438425D01*
X5862554Y-67537554D01*
X5763425Y-67618906D01*
X5650336Y-67679354D01*
X5618404Y-67689040D01*
X5527618Y-67716580D01*
X5400000Y-67729149D01*
X5272383Y-67716580D01*
X5181597Y-67689040D01*
X5149665Y-67679354D01*
X5036576Y-67618906D01*
X4937447Y-67537554D01*
X4856096Y-67438427D01*
X4856095Y-67438425D01*
X4795647Y-67325336D01*
X4795645Y-67325333D01*
X4783237Y-67284427D01*
X4758420Y-67202618D01*
X4749000Y-67106973D01*
X4749000Y-66493028D01*
X4758420Y-66397383D01*
X4795645Y-66274669D01*
X4795646Y-66274665D01*
X4856094Y-66161576D01*
X4937447Y-66062446D01*
X5036575Y-65981094D01*
X5149664Y-65920646D01*
X5191600Y-65907925D01*
X5272382Y-65883420D01*
X5400000Y-65870851D01*
X5527617Y-65883420D01*
G37*
G36*
X3891242Y-65878404D02*
G01*
X3928337Y-65889657D01*
X3962515Y-65907925D01*
X3992481Y-65932519D01*
X4017075Y-65962485D01*
X4035343Y-65996663D01*
X4046596Y-66033758D01*
X4051000Y-66078474D01*
X4051000Y-67521526D01*
X4046596Y-67566242D01*
X4035343Y-67603337D01*
X4017075Y-67637515D01*
X3992481Y-67667481D01*
X3962515Y-67692075D01*
X3928337Y-67710343D01*
X3891242Y-67721596D01*
X3846526Y-67726000D01*
X2953474Y-67726000D01*
X2908758Y-67721596D01*
X2871663Y-67710343D01*
X2837485Y-67692075D01*
X2807519Y-67667481D01*
X2782925Y-67637515D01*
X2764657Y-67603337D01*
X2753404Y-67566242D01*
X2749000Y-67521526D01*
X2749000Y-66078474D01*
X2753404Y-66033758D01*
X2764657Y-65996663D01*
X2782925Y-65962485D01*
X2807519Y-65932519D01*
X2837485Y-65907925D01*
X2871663Y-65889657D01*
X2908758Y-65878404D01*
X2953474Y-65874000D01*
X3846526Y-65874000D01*
X3891242Y-65878404D01*
G37*
G36*
X48079591Y-66703085D02*
G01*
X48113569Y-66713393D01*
X48144890Y-66730134D01*
X48172339Y-66752661D01*
X48194866Y-66780110D01*
X48211607Y-66811431D01*
X48221915Y-66845409D01*
X48226000Y-66886890D01*
X48226000Y-67488110D01*
X48221915Y-67529591D01*
X48211607Y-67563569D01*
X48194866Y-67594890D01*
X48172339Y-67622339D01*
X48144890Y-67644866D01*
X48113569Y-67661607D01*
X48079591Y-67671915D01*
X48038110Y-67676000D01*
X47361890Y-67676000D01*
X47320409Y-67671915D01*
X47286431Y-67661607D01*
X47255110Y-67644866D01*
X47227661Y-67622339D01*
X47205134Y-67594890D01*
X47188393Y-67563569D01*
X47178085Y-67529591D01*
X47174000Y-67488110D01*
X47174000Y-66886890D01*
X47178085Y-66845409D01*
X47188393Y-66811431D01*
X47205134Y-66780110D01*
X47227661Y-66752661D01*
X47255110Y-66730134D01*
X47286431Y-66713393D01*
X47320409Y-66703085D01*
X47361890Y-66699000D01*
X48038110Y-66699000D01*
X48079591Y-66703085D01*
G37*
G36*
X35326348Y-65091320D02*
G01*
X35326350Y-65091321D01*
X35326351Y-65091321D01*
X35467574Y-65149817D01*
X35467577Y-65149819D01*
X35594669Y-65234739D01*
X35702761Y-65342831D01*
X35719745Y-65368250D01*
X35787683Y-65469926D01*
X35808517Y-65520225D01*
X35820068Y-65541836D01*
X35835614Y-65560778D01*
X35854556Y-65576323D01*
X35876166Y-65587874D01*
X35899615Y-65594987D01*
X35924001Y-65597389D01*
X35948387Y-65594987D01*
X35971836Y-65587874D01*
X35993447Y-65576323D01*
X36012389Y-65560777D01*
X36027934Y-65541835D01*
X36039485Y-65520225D01*
X36046598Y-65496776D01*
X36049000Y-65472390D01*
X36049000Y-65111500D01*
X39151000Y-65111500D01*
X39151000Y-65472390D01*
X39153402Y-65496776D01*
X39160515Y-65520225D01*
X39172066Y-65541836D01*
X39187611Y-65560778D01*
X39206553Y-65576323D01*
X39228164Y-65587874D01*
X39251613Y-65594987D01*
X39275999Y-65597389D01*
X39300385Y-65594987D01*
X39323834Y-65587874D01*
X39345445Y-65576323D01*
X39364387Y-65560778D01*
X39379932Y-65541836D01*
X39391483Y-65520225D01*
X39412317Y-65469926D01*
X39480255Y-65368250D01*
X39497239Y-65342831D01*
X39605331Y-65234739D01*
X39732423Y-65149819D01*
X39732426Y-65149817D01*
X39873649Y-65091321D01*
X39873650Y-65091321D01*
X39873652Y-65091320D01*
X40023569Y-65061500D01*
X40176431Y-65061500D01*
X40326348Y-65091320D01*
X40326350Y-65091321D01*
X40326351Y-65091321D01*
X40467574Y-65149817D01*
X40467577Y-65149819D01*
X40594669Y-65234739D01*
X40702761Y-65342831D01*
X40719745Y-65368250D01*
X40787683Y-65469926D01*
X40840479Y-65597389D01*
X40846180Y-65611152D01*
X40876000Y-65761069D01*
X40876000Y-65913931D01*
X40846459Y-66062447D01*
X40846179Y-66063851D01*
X40787683Y-66205074D01*
X40787682Y-66205075D01*
X40787681Y-66205077D01*
X40702761Y-66332169D01*
X40594669Y-66440261D01*
X40559229Y-66463941D01*
X40467574Y-66525183D01*
X40326351Y-66583679D01*
X40326350Y-66583679D01*
X40326348Y-66583680D01*
X40176431Y-66613500D01*
X40023569Y-66613500D01*
X39873652Y-66583680D01*
X39873650Y-66583679D01*
X39873649Y-66583679D01*
X39732426Y-66525183D01*
X39640771Y-66463941D01*
X39605331Y-66440261D01*
X39497239Y-66332169D01*
X39412318Y-66205075D01*
X39412317Y-66205074D01*
X39391481Y-66154772D01*
X39379932Y-66133164D01*
X39364386Y-66114222D01*
X39345444Y-66098677D01*
X39323834Y-66087126D01*
X39300385Y-66080013D01*
X39275999Y-66077611D01*
X39251613Y-66080013D01*
X39228164Y-66087126D01*
X39206553Y-66098677D01*
X39187611Y-66114223D01*
X39172066Y-66133165D01*
X39160515Y-66154775D01*
X39153402Y-66178224D01*
X39151000Y-66202610D01*
X39151000Y-66563500D01*
X36049000Y-66563500D01*
X36049000Y-66202610D01*
X36046598Y-66178224D01*
X36039485Y-66154775D01*
X36027934Y-66133164D01*
X36012389Y-66114222D01*
X35993447Y-66098677D01*
X35971836Y-66087126D01*
X35948387Y-66080013D01*
X35924001Y-66077611D01*
X35899615Y-66080013D01*
X35876166Y-66087126D01*
X35854555Y-66098677D01*
X35835613Y-66114222D01*
X35820068Y-66133164D01*
X35808519Y-66154772D01*
X35787683Y-66205074D01*
X35787682Y-66205075D01*
X35702761Y-66332169D01*
X35594669Y-66440261D01*
X35559229Y-66463941D01*
X35467574Y-66525183D01*
X35326351Y-66583679D01*
X35326350Y-66583679D01*
X35326348Y-66583680D01*
X35176431Y-66613500D01*
X35023569Y-66613500D01*
X34873652Y-66583680D01*
X34873650Y-66583679D01*
X34873649Y-66583679D01*
X34732426Y-66525183D01*
X34640771Y-66463941D01*
X34605331Y-66440261D01*
X34497239Y-66332169D01*
X34412319Y-66205077D01*
X34412318Y-66205075D01*
X34412317Y-66205074D01*
X34353821Y-66063851D01*
X34353542Y-66062447D01*
X34324000Y-65913931D01*
X34324000Y-65761069D01*
X34353820Y-65611152D01*
X34359521Y-65597389D01*
X34412317Y-65469926D01*
X34480255Y-65368250D01*
X34497239Y-65342831D01*
X34605331Y-65234739D01*
X34732423Y-65149819D01*
X34732426Y-65149817D01*
X34873649Y-65091321D01*
X34873650Y-65091321D01*
X34873652Y-65091320D01*
X35023569Y-65061500D01*
X35176431Y-65061500D01*
X35326348Y-65091320D01*
G37*
G36*
X48079591Y-65128085D02*
G01*
X48113569Y-65138393D01*
X48144890Y-65155134D01*
X48172339Y-65177661D01*
X48194866Y-65205110D01*
X48211607Y-65236431D01*
X48221915Y-65270409D01*
X48226000Y-65311890D01*
X48226000Y-65913110D01*
X48221915Y-65954591D01*
X48211607Y-65988569D01*
X48194866Y-66019890D01*
X48172339Y-66047339D01*
X48144890Y-66069866D01*
X48113569Y-66086607D01*
X48079591Y-66096915D01*
X48038110Y-66101000D01*
X47361890Y-66101000D01*
X47320409Y-66096915D01*
X47286431Y-66086607D01*
X47255110Y-66069866D01*
X47227661Y-66047339D01*
X47205134Y-66019890D01*
X47188393Y-65988569D01*
X47178085Y-65954591D01*
X47174000Y-65913110D01*
X47174000Y-65311890D01*
X47178085Y-65270409D01*
X47188393Y-65236431D01*
X47205134Y-65205110D01*
X47227661Y-65177661D01*
X47255110Y-65155134D01*
X47286431Y-65138393D01*
X47320409Y-65128085D01*
X47361890Y-65124000D01*
X48038110Y-65124000D01*
X48079591Y-65128085D01*
G37*
G36*
X46751000Y-66051000D02*
G01*
X45049000Y-66051000D01*
X45049000Y-64349000D01*
X46751000Y-64349000D01*
X46751000Y-66051000D01*
G37*
G36*
X42851000Y-64051000D02*
G01*
X41549000Y-64051000D01*
X41549000Y-63049000D01*
X42851000Y-63049000D01*
X42851000Y-64051000D01*
G37*
G36*
X12054591Y-62678085D02*
G01*
X12088569Y-62688393D01*
X12119890Y-62705134D01*
X12147339Y-62727661D01*
X12169866Y-62755110D01*
X12186607Y-62786431D01*
X12196915Y-62820409D01*
X12201000Y-62861890D01*
X12201000Y-63538110D01*
X12196915Y-63579591D01*
X12186607Y-63613569D01*
X12169866Y-63644890D01*
X12147339Y-63672339D01*
X12119890Y-63694866D01*
X12088569Y-63711607D01*
X12054591Y-63721915D01*
X12013110Y-63726000D01*
X11411890Y-63726000D01*
X11370409Y-63721915D01*
X11336431Y-63711607D01*
X11305110Y-63694866D01*
X11277661Y-63672339D01*
X11255134Y-63644890D01*
X11238393Y-63613569D01*
X11228085Y-63579591D01*
X11224000Y-63538110D01*
X11224000Y-62861890D01*
X11228085Y-62820409D01*
X11238393Y-62786431D01*
X11255134Y-62755110D01*
X11277661Y-62727661D01*
X11305110Y-62705134D01*
X11336431Y-62688393D01*
X11370409Y-62678085D01*
X11411890Y-62674000D01*
X12013110Y-62674000D01*
X12054591Y-62678085D01*
G37*
G36*
X13629591Y-62678085D02*
G01*
X13663569Y-62688393D01*
X13694890Y-62705134D01*
X13722339Y-62727661D01*
X13744866Y-62755110D01*
X13761607Y-62786431D01*
X13771915Y-62820409D01*
X13776000Y-62861890D01*
X13776000Y-63538110D01*
X13771915Y-63579591D01*
X13761607Y-63613569D01*
X13744866Y-63644890D01*
X13722339Y-63672339D01*
X13694890Y-63694866D01*
X13663569Y-63711607D01*
X13629591Y-63721915D01*
X13588110Y-63726000D01*
X12986890Y-63726000D01*
X12945409Y-63721915D01*
X12911431Y-63711607D01*
X12880110Y-63694866D01*
X12852661Y-63672339D01*
X12830134Y-63644890D01*
X12813393Y-63613569D01*
X12803085Y-63579591D01*
X12799000Y-63538110D01*
X12799000Y-62861890D01*
X12803085Y-62820409D01*
X12813393Y-62786431D01*
X12830134Y-62755110D01*
X12852661Y-62727661D01*
X12880110Y-62705134D01*
X12911431Y-62688393D01*
X12945409Y-62678085D01*
X12986890Y-62674000D01*
X13588110Y-62674000D01*
X13629591Y-62678085D01*
G37*
G36*
X10529591Y-62678085D02*
G01*
X10563569Y-62688393D01*
X10594890Y-62705134D01*
X10622339Y-62727661D01*
X10644866Y-62755110D01*
X10661607Y-62786431D01*
X10671915Y-62820409D01*
X10676000Y-62861890D01*
X10676000Y-63538110D01*
X10671915Y-63579591D01*
X10661607Y-63613569D01*
X10644866Y-63644890D01*
X10622339Y-63672339D01*
X10594890Y-63694866D01*
X10563569Y-63711607D01*
X10529591Y-63721915D01*
X10488110Y-63726000D01*
X9886890Y-63726000D01*
X9845409Y-63721915D01*
X9811431Y-63711607D01*
X9780110Y-63694866D01*
X9752661Y-63672339D01*
X9730134Y-63644890D01*
X9713393Y-63613569D01*
X9703085Y-63579591D01*
X9699000Y-63538110D01*
X9699000Y-62861890D01*
X9703085Y-62820409D01*
X9713393Y-62786431D01*
X9730134Y-62755110D01*
X9752661Y-62727661D01*
X9780110Y-62705134D01*
X9811431Y-62688393D01*
X9845409Y-62678085D01*
X9886890Y-62674000D01*
X10488110Y-62674000D01*
X10529591Y-62678085D01*
G37*
G36*
X8954591Y-62678085D02*
G01*
X8988569Y-62688393D01*
X9019890Y-62705134D01*
X9047339Y-62727661D01*
X9069866Y-62755110D01*
X9086607Y-62786431D01*
X9096915Y-62820409D01*
X9101000Y-62861890D01*
X9101000Y-63538110D01*
X9096915Y-63579591D01*
X9086607Y-63613569D01*
X9069866Y-63644890D01*
X9047339Y-63672339D01*
X9019890Y-63694866D01*
X8988569Y-63711607D01*
X8954591Y-63721915D01*
X8913110Y-63726000D01*
X8311890Y-63726000D01*
X8270409Y-63721915D01*
X8236431Y-63711607D01*
X8205110Y-63694866D01*
X8177661Y-63672339D01*
X8155134Y-63644890D01*
X8138393Y-63613569D01*
X8128085Y-63579591D01*
X8124000Y-63538110D01*
X8124000Y-62861890D01*
X8128085Y-62820409D01*
X8138393Y-62786431D01*
X8155134Y-62755110D01*
X8177661Y-62727661D01*
X8205110Y-62705134D01*
X8236431Y-62688393D01*
X8270409Y-62678085D01*
X8311890Y-62674000D01*
X8913110Y-62674000D01*
X8954591Y-62678085D01*
G37*
G36*
X29901000Y-63701000D02*
G01*
X28299000Y-63701000D01*
X28299000Y-62099000D01*
X29901000Y-62099000D01*
X29901000Y-63701000D01*
G37*
G36*
X21929591Y-61978085D02*
G01*
X21963569Y-61988393D01*
X21994890Y-62005134D01*
X22022339Y-62027661D01*
X22044866Y-62055110D01*
X22061607Y-62086431D01*
X22071915Y-62120409D01*
X22076000Y-62161890D01*
X22076000Y-62838110D01*
X22071915Y-62879591D01*
X22061607Y-62913569D01*
X22044866Y-62944890D01*
X22022339Y-62972339D01*
X21994890Y-62994866D01*
X21963569Y-63011607D01*
X21929591Y-63021915D01*
X21888110Y-63026000D01*
X21286890Y-63026000D01*
X21245409Y-63021915D01*
X21211431Y-63011607D01*
X21180110Y-62994866D01*
X21152661Y-62972339D01*
X21130134Y-62944890D01*
X21113393Y-62913569D01*
X21103085Y-62879591D01*
X21099000Y-62838110D01*
X21099000Y-62161890D01*
X21103085Y-62120409D01*
X21113393Y-62086431D01*
X21130134Y-62055110D01*
X21152661Y-62027661D01*
X21180110Y-62005134D01*
X21211431Y-61988393D01*
X21245409Y-61978085D01*
X21286890Y-61974000D01*
X21888110Y-61974000D01*
X21929591Y-61978085D01*
G37*
G36*
X20354591Y-61978085D02*
G01*
X20388569Y-61988393D01*
X20419890Y-62005134D01*
X20447339Y-62027661D01*
X20469866Y-62055110D01*
X20486607Y-62086431D01*
X20496915Y-62120409D01*
X20501000Y-62161890D01*
X20501000Y-62838110D01*
X20496915Y-62879591D01*
X20486607Y-62913569D01*
X20469866Y-62944890D01*
X20447339Y-62972339D01*
X20419890Y-62994866D01*
X20388569Y-63011607D01*
X20354591Y-63021915D01*
X20313110Y-63026000D01*
X19711890Y-63026000D01*
X19670409Y-63021915D01*
X19636431Y-63011607D01*
X19605110Y-62994866D01*
X19577661Y-62972339D01*
X19555134Y-62944890D01*
X19538393Y-62913569D01*
X19528085Y-62879591D01*
X19524000Y-62838110D01*
X19524000Y-62161890D01*
X19528085Y-62120409D01*
X19538393Y-62086431D01*
X19555134Y-62055110D01*
X19577661Y-62027661D01*
X19605110Y-62005134D01*
X19636431Y-61988393D01*
X19670409Y-61978085D01*
X19711890Y-61974000D01*
X20313110Y-61974000D01*
X20354591Y-61978085D01*
G37*
G36*
X35826000Y-62581000D02*
G01*
X33174000Y-62581000D01*
X33174000Y-61419000D01*
X35826000Y-61419000D01*
X35826000Y-62581000D01*
G37*
G36*
X44579591Y-61303085D02*
G01*
X44613569Y-61313393D01*
X44644890Y-61330134D01*
X44672339Y-61352661D01*
X44694866Y-61380110D01*
X44711607Y-61411431D01*
X44721915Y-61445409D01*
X44726000Y-61486890D01*
X44726000Y-62088110D01*
X44721915Y-62129591D01*
X44711607Y-62163569D01*
X44694866Y-62194890D01*
X44672339Y-62222339D01*
X44644890Y-62244866D01*
X44613569Y-62261607D01*
X44579591Y-62271915D01*
X44538110Y-62276000D01*
X43861890Y-62276000D01*
X43820409Y-62271915D01*
X43786431Y-62261607D01*
X43755110Y-62244866D01*
X43727661Y-62222339D01*
X43705134Y-62194890D01*
X43688393Y-62163569D01*
X43678085Y-62129591D01*
X43674000Y-62088110D01*
X43674000Y-61486890D01*
X43678085Y-61445409D01*
X43688393Y-61411431D01*
X43705134Y-61380110D01*
X43727661Y-61352661D01*
X43755110Y-61330134D01*
X43786431Y-61313393D01*
X43820409Y-61303085D01*
X43861890Y-61299000D01*
X44538110Y-61299000D01*
X44579591Y-61303085D01*
G37*
G36*
X46279591Y-61303085D02*
G01*
X46313569Y-61313393D01*
X46344890Y-61330134D01*
X46372339Y-61352661D01*
X46394866Y-61380110D01*
X46411607Y-61411431D01*
X46421915Y-61445409D01*
X46426000Y-61486890D01*
X46426000Y-62088110D01*
X46421915Y-62129591D01*
X46411607Y-62163569D01*
X46394866Y-62194890D01*
X46372339Y-62222339D01*
X46344890Y-62244866D01*
X46313569Y-62261607D01*
X46279591Y-62271915D01*
X46238110Y-62276000D01*
X45561890Y-62276000D01*
X45520409Y-62271915D01*
X45486431Y-62261607D01*
X45455110Y-62244866D01*
X45427661Y-62222339D01*
X45405134Y-62194890D01*
X45388393Y-62163569D01*
X45378085Y-62129591D01*
X45374000Y-62088110D01*
X45374000Y-61486890D01*
X45378085Y-61445409D01*
X45388393Y-61411431D01*
X45405134Y-61380110D01*
X45427661Y-61352661D01*
X45455110Y-61330134D01*
X45486431Y-61313393D01*
X45520409Y-61303085D01*
X45561890Y-61299000D01*
X46238110Y-61299000D01*
X46279591Y-61303085D01*
G37*
G36*
X47779591Y-61303085D02*
G01*
X47813569Y-61313393D01*
X47844890Y-61330134D01*
X47872339Y-61352661D01*
X47894866Y-61380110D01*
X47911607Y-61411431D01*
X47921915Y-61445409D01*
X47926000Y-61486890D01*
X47926000Y-62088110D01*
X47921915Y-62129591D01*
X47911607Y-62163569D01*
X47894866Y-62194890D01*
X47872339Y-62222339D01*
X47844890Y-62244866D01*
X47813569Y-62261607D01*
X47779591Y-62271915D01*
X47738110Y-62276000D01*
X47061890Y-62276000D01*
X47020409Y-62271915D01*
X46986431Y-62261607D01*
X46955110Y-62244866D01*
X46927661Y-62222339D01*
X46905134Y-62194890D01*
X46888393Y-62163569D01*
X46878085Y-62129591D01*
X46874000Y-62088110D01*
X46874000Y-61486890D01*
X46878085Y-61445409D01*
X46888393Y-61411431D01*
X46905134Y-61380110D01*
X46927661Y-61352661D01*
X46955110Y-61330134D01*
X46986431Y-61313393D01*
X47020409Y-61303085D01*
X47061890Y-61299000D01*
X47738110Y-61299000D01*
X47779591Y-61303085D01*
G37*
G36*
X21254591Y-60478085D02*
G01*
X21288569Y-60488393D01*
X21319890Y-60505134D01*
X21347339Y-60527661D01*
X21369866Y-60555110D01*
X21386607Y-60586431D01*
X21396915Y-60620409D01*
X21401000Y-60661890D01*
X21401000Y-61338110D01*
X21396915Y-61379591D01*
X21386607Y-61413569D01*
X21369866Y-61444890D01*
X21347339Y-61472339D01*
X21319890Y-61494866D01*
X21288569Y-61511607D01*
X21254591Y-61521915D01*
X21213110Y-61526000D01*
X20611890Y-61526000D01*
X20570409Y-61521915D01*
X20536431Y-61511607D01*
X20505110Y-61494866D01*
X20477661Y-61472339D01*
X20455134Y-61444890D01*
X20438393Y-61413569D01*
X20428085Y-61379591D01*
X20424000Y-61338110D01*
X20424000Y-60661890D01*
X20428085Y-60620409D01*
X20438393Y-60586431D01*
X20455134Y-60555110D01*
X20477661Y-60527661D01*
X20505110Y-60505134D01*
X20536431Y-60488393D01*
X20570409Y-60478085D01*
X20611890Y-60474000D01*
X21213110Y-60474000D01*
X21254591Y-60478085D01*
G37*
G36*
X22829591Y-60478085D02*
G01*
X22863569Y-60488393D01*
X22894890Y-60505134D01*
X22922339Y-60527661D01*
X22944866Y-60555110D01*
X22961607Y-60586431D01*
X22971915Y-60620409D01*
X22976000Y-60661890D01*
X22976000Y-61338110D01*
X22971915Y-61379591D01*
X22961607Y-61413569D01*
X22944866Y-61444890D01*
X22922339Y-61472339D01*
X22894890Y-61494866D01*
X22863569Y-61511607D01*
X22829591Y-61521915D01*
X22788110Y-61526000D01*
X22186890Y-61526000D01*
X22145409Y-61521915D01*
X22111431Y-61511607D01*
X22080110Y-61494866D01*
X22052661Y-61472339D01*
X22030134Y-61444890D01*
X22013393Y-61413569D01*
X22003085Y-61379591D01*
X21999000Y-61338110D01*
X21999000Y-60661890D01*
X22003085Y-60620409D01*
X22013393Y-60586431D01*
X22030134Y-60555110D01*
X22052661Y-60527661D01*
X22080110Y-60505134D01*
X22111431Y-60488393D01*
X22145409Y-60478085D01*
X22186890Y-60474000D01*
X22788110Y-60474000D01*
X22829591Y-60478085D01*
G37*
G36*
X14705355Y-60600083D02*
G01*
X14710029Y-60601501D01*
X14714330Y-60603800D01*
X14720702Y-60609029D01*
X14741076Y-60622643D01*
X14763715Y-60632020D01*
X14787749Y-60636800D01*
X14812253Y-60636800D01*
X14836286Y-60632019D01*
X14858925Y-60622642D01*
X14879298Y-60609029D01*
X14885670Y-60603800D01*
X14889971Y-60601501D01*
X14894645Y-60600083D01*
X14905641Y-60599000D01*
X15194359Y-60599000D01*
X15205355Y-60600083D01*
X15210029Y-60601501D01*
X15214330Y-60603800D01*
X15220702Y-60609029D01*
X15241076Y-60622643D01*
X15263715Y-60632020D01*
X15287749Y-60636800D01*
X15312253Y-60636800D01*
X15336286Y-60632019D01*
X15358925Y-60622642D01*
X15379298Y-60609029D01*
X15385670Y-60603800D01*
X15389971Y-60601501D01*
X15394645Y-60600083D01*
X15405641Y-60599000D01*
X15694359Y-60599000D01*
X15705355Y-60600083D01*
X15710029Y-60601501D01*
X15714330Y-60603800D01*
X15720702Y-60609029D01*
X15741076Y-60622643D01*
X15763715Y-60632020D01*
X15787749Y-60636800D01*
X15812253Y-60636800D01*
X15836286Y-60632019D01*
X15858925Y-60622642D01*
X15879298Y-60609029D01*
X15885670Y-60603800D01*
X15889971Y-60601501D01*
X15894645Y-60600083D01*
X15905641Y-60599000D01*
X16194359Y-60599000D01*
X16205355Y-60600083D01*
X16210029Y-60601501D01*
X16214330Y-60603800D01*
X16220702Y-60609029D01*
X16241076Y-60622643D01*
X16263715Y-60632020D01*
X16287749Y-60636800D01*
X16312253Y-60636800D01*
X16336286Y-60632019D01*
X16358925Y-60622642D01*
X16379298Y-60609029D01*
X16385670Y-60603800D01*
X16389971Y-60601501D01*
X16394645Y-60600083D01*
X16405641Y-60599000D01*
X16694359Y-60599000D01*
X16705355Y-60600083D01*
X16710029Y-60601501D01*
X16714330Y-60603800D01*
X16720702Y-60609029D01*
X16741076Y-60622643D01*
X16763715Y-60632020D01*
X16787749Y-60636800D01*
X16812253Y-60636800D01*
X16836286Y-60632019D01*
X16858925Y-60622642D01*
X16879298Y-60609029D01*
X16885670Y-60603800D01*
X16889971Y-60601501D01*
X16894645Y-60600083D01*
X16905641Y-60599000D01*
X17194359Y-60599000D01*
X17205355Y-60600083D01*
X17210029Y-60601501D01*
X17214330Y-60603800D01*
X17220702Y-60609029D01*
X17241076Y-60622643D01*
X17263715Y-60632020D01*
X17287749Y-60636800D01*
X17312253Y-60636800D01*
X17336286Y-60632019D01*
X17358925Y-60622642D01*
X17379298Y-60609029D01*
X17385670Y-60603800D01*
X17389971Y-60601501D01*
X17394645Y-60600083D01*
X17405641Y-60599000D01*
X17694359Y-60599000D01*
X17705355Y-60600083D01*
X17710029Y-60601501D01*
X17714331Y-60603800D01*
X17718104Y-60606896D01*
X17721200Y-60610669D01*
X17723499Y-60614971D01*
X17724917Y-60619645D01*
X17726000Y-60630641D01*
X17726000Y-61469359D01*
X17724917Y-61480355D01*
X17723499Y-61485029D01*
X17721200Y-61489331D01*
X17718104Y-61493104D01*
X17714331Y-61496200D01*
X17710029Y-61498499D01*
X17705355Y-61499917D01*
X17694359Y-61501000D01*
X17405641Y-61501000D01*
X17394645Y-61499917D01*
X17389971Y-61498499D01*
X17385670Y-61496200D01*
X17379298Y-61490971D01*
X17358924Y-61477357D01*
X17336285Y-61467980D01*
X17312251Y-61463200D01*
X17287747Y-61463200D01*
X17263714Y-61467981D01*
X17241075Y-61477358D01*
X17220702Y-61490971D01*
X17214330Y-61496200D01*
X17210029Y-61498499D01*
X17205355Y-61499917D01*
X17194359Y-61501000D01*
X16905641Y-61501000D01*
X16894645Y-61499917D01*
X16889971Y-61498499D01*
X16885670Y-61496200D01*
X16879298Y-61490971D01*
X16858924Y-61477357D01*
X16836285Y-61467980D01*
X16812251Y-61463200D01*
X16787747Y-61463200D01*
X16763714Y-61467981D01*
X16741075Y-61477358D01*
X16720702Y-61490971D01*
X16714330Y-61496200D01*
X16710029Y-61498499D01*
X16705355Y-61499917D01*
X16694359Y-61501000D01*
X16405641Y-61501000D01*
X16394645Y-61499917D01*
X16389971Y-61498499D01*
X16385670Y-61496200D01*
X16379298Y-61490971D01*
X16358924Y-61477357D01*
X16336285Y-61467980D01*
X16312251Y-61463200D01*
X16287747Y-61463200D01*
X16263714Y-61467981D01*
X16241075Y-61477358D01*
X16220702Y-61490971D01*
X16214330Y-61496200D01*
X16210029Y-61498499D01*
X16205355Y-61499917D01*
X16194359Y-61501000D01*
X15905641Y-61501000D01*
X15894645Y-61499917D01*
X15889971Y-61498499D01*
X15885670Y-61496200D01*
X15879298Y-61490971D01*
X15858924Y-61477357D01*
X15836285Y-61467980D01*
X15812251Y-61463200D01*
X15787747Y-61463200D01*
X15763714Y-61467981D01*
X15741075Y-61477358D01*
X15720702Y-61490971D01*
X15714330Y-61496200D01*
X15710029Y-61498499D01*
X15705355Y-61499917D01*
X15694359Y-61501000D01*
X15405641Y-61501000D01*
X15394645Y-61499917D01*
X15389971Y-61498499D01*
X15385670Y-61496200D01*
X15379298Y-61490971D01*
X15358924Y-61477357D01*
X15336285Y-61467980D01*
X15312251Y-61463200D01*
X15287747Y-61463200D01*
X15263714Y-61467981D01*
X15241075Y-61477358D01*
X15220702Y-61490971D01*
X15214330Y-61496200D01*
X15210029Y-61498499D01*
X15205355Y-61499917D01*
X15194359Y-61501000D01*
X14905641Y-61501000D01*
X14894645Y-61499917D01*
X14889971Y-61498499D01*
X14885670Y-61496200D01*
X14879298Y-61490971D01*
X14858924Y-61477357D01*
X14836285Y-61467980D01*
X14812251Y-61463200D01*
X14787747Y-61463200D01*
X14763714Y-61467981D01*
X14741075Y-61477358D01*
X14720702Y-61490971D01*
X14714330Y-61496200D01*
X14710029Y-61498499D01*
X14705355Y-61499917D01*
X14694359Y-61501000D01*
X14405641Y-61501000D01*
X14394645Y-61499917D01*
X14389971Y-61498499D01*
X14385669Y-61496200D01*
X14381896Y-61493104D01*
X14378800Y-61489331D01*
X14376501Y-61485029D01*
X14375083Y-61480355D01*
X14374000Y-61469359D01*
X14374000Y-60630641D01*
X14375083Y-60619645D01*
X14376501Y-60614971D01*
X14378800Y-60610669D01*
X14381896Y-60606896D01*
X14385669Y-60603800D01*
X14389971Y-60601501D01*
X14394645Y-60600083D01*
X14405641Y-60599000D01*
X14694359Y-60599000D01*
X14705355Y-60600083D01*
G37*
G36*
X11001000Y-60801000D02*
G01*
X9399000Y-60801000D01*
X9399000Y-59199000D01*
X11001000Y-59199000D01*
X11001000Y-60801000D01*
G37*
G36*
X3201000Y-60801000D02*
G01*
X1599000Y-60801000D01*
X1599000Y-59199000D01*
X3201000Y-59199000D01*
X3201000Y-60801000D01*
G37*
G36*
X42851000Y-60751000D02*
G01*
X41549000Y-60751000D01*
X41549000Y-59749000D01*
X42851000Y-59749000D01*
X42851000Y-60751000D01*
G37*
G36*
X44579591Y-59728085D02*
G01*
X44613569Y-59738393D01*
X44644890Y-59755134D01*
X44672339Y-59777661D01*
X44694866Y-59805110D01*
X44711607Y-59836431D01*
X44721915Y-59870409D01*
X44726000Y-59911890D01*
X44726000Y-60513110D01*
X44721915Y-60554591D01*
X44711607Y-60588569D01*
X44694866Y-60619890D01*
X44672339Y-60647339D01*
X44644890Y-60669866D01*
X44613569Y-60686607D01*
X44579591Y-60696915D01*
X44538110Y-60701000D01*
X43861890Y-60701000D01*
X43820409Y-60696915D01*
X43786431Y-60686607D01*
X43755110Y-60669866D01*
X43727661Y-60647339D01*
X43705134Y-60619890D01*
X43688393Y-60588569D01*
X43678085Y-60554591D01*
X43674000Y-60513110D01*
X43674000Y-59911890D01*
X43678085Y-59870409D01*
X43688393Y-59836431D01*
X43705134Y-59805110D01*
X43727661Y-59777661D01*
X43755110Y-59755134D01*
X43786431Y-59738393D01*
X43820409Y-59728085D01*
X43861890Y-59724000D01*
X44538110Y-59724000D01*
X44579591Y-59728085D01*
G37*
G36*
X47779591Y-59728085D02*
G01*
X47813569Y-59738393D01*
X47844890Y-59755134D01*
X47872339Y-59777661D01*
X47894866Y-59805110D01*
X47911607Y-59836431D01*
X47921915Y-59870409D01*
X47926000Y-59911890D01*
X47926000Y-60513110D01*
X47921915Y-60554591D01*
X47911607Y-60588569D01*
X47894866Y-60619890D01*
X47872339Y-60647339D01*
X47844890Y-60669866D01*
X47813569Y-60686607D01*
X47779591Y-60696915D01*
X47738110Y-60701000D01*
X47061890Y-60701000D01*
X47020409Y-60696915D01*
X46986431Y-60686607D01*
X46955110Y-60669866D01*
X46927661Y-60647339D01*
X46905134Y-60619890D01*
X46888393Y-60588569D01*
X46878085Y-60554591D01*
X46874000Y-60513110D01*
X46874000Y-59911890D01*
X46878085Y-59870409D01*
X46888393Y-59836431D01*
X46905134Y-59805110D01*
X46927661Y-59777661D01*
X46955110Y-59755134D01*
X46986431Y-59738393D01*
X47020409Y-59728085D01*
X47061890Y-59724000D01*
X47738110Y-59724000D01*
X47779591Y-59728085D01*
G37*
G36*
X46279591Y-59728085D02*
G01*
X46313569Y-59738393D01*
X46344890Y-59755134D01*
X46372339Y-59777661D01*
X46394866Y-59805110D01*
X46411607Y-59836431D01*
X46421915Y-59870409D01*
X46426000Y-59911890D01*
X46426000Y-60513110D01*
X46421915Y-60554591D01*
X46411607Y-60588569D01*
X46394866Y-60619890D01*
X46372339Y-60647339D01*
X46344890Y-60669866D01*
X46313569Y-60686607D01*
X46279591Y-60696915D01*
X46238110Y-60701000D01*
X45561890Y-60701000D01*
X45520409Y-60696915D01*
X45486431Y-60686607D01*
X45455110Y-60669866D01*
X45427661Y-60647339D01*
X45405134Y-60619890D01*
X45388393Y-60588569D01*
X45378085Y-60554591D01*
X45374000Y-60513110D01*
X45374000Y-59911890D01*
X45378085Y-59870409D01*
X45388393Y-59836431D01*
X45405134Y-59805110D01*
X45427661Y-59777661D01*
X45455110Y-59755134D01*
X45486431Y-59738393D01*
X45520409Y-59728085D01*
X45561890Y-59724000D01*
X46238110Y-59724000D01*
X46279591Y-59728085D01*
G37*
G36*
X35826000Y-60381000D02*
G01*
X33174000Y-60381000D01*
X33174000Y-59219000D01*
X35826000Y-59219000D01*
X35826000Y-60381000D01*
G37*
G36*
X17654124Y-56877499D02*
G01*
X17682387Y-56886073D01*
X17708434Y-56899996D01*
X17731267Y-56918733D01*
X17750004Y-56941566D01*
X17763927Y-56967613D01*
X17772501Y-56995876D01*
X17776000Y-57031408D01*
X17776000Y-60168592D01*
X17772501Y-60204124D01*
X17763927Y-60232387D01*
X17750004Y-60258434D01*
X17731267Y-60281267D01*
X17708434Y-60300004D01*
X17682387Y-60313927D01*
X17654124Y-60322501D01*
X17618592Y-60326000D01*
X14481408Y-60326000D01*
X14445876Y-60322501D01*
X14417613Y-60313927D01*
X14391566Y-60300004D01*
X14368733Y-60281267D01*
X14349996Y-60258434D01*
X14336073Y-60232387D01*
X14327499Y-60204124D01*
X14324000Y-60168592D01*
X14324000Y-57031408D01*
X14327499Y-56995876D01*
X14336073Y-56967613D01*
X14349996Y-56941566D01*
X14368733Y-56918733D01*
X14391566Y-56899996D01*
X14417613Y-56886073D01*
X14445876Y-56877499D01*
X14481408Y-56874000D01*
X17618592Y-56874000D01*
X17654124Y-56877499D01*
G37*
G36*
X18930355Y-56925083D02*
G01*
X18935029Y-56926501D01*
X18939331Y-56928800D01*
X18943104Y-56931896D01*
X18946200Y-56935669D01*
X18948499Y-56939971D01*
X18949917Y-56944645D01*
X18951000Y-56955641D01*
X18951000Y-57244359D01*
X18949917Y-57255355D01*
X18948499Y-57260029D01*
X18946200Y-57264330D01*
X18940971Y-57270702D01*
X18927357Y-57291076D01*
X18917980Y-57313715D01*
X18913200Y-57337749D01*
X18913200Y-57362253D01*
X18917981Y-57386286D01*
X18927358Y-57408925D01*
X18940971Y-57429298D01*
X18946200Y-57435670D01*
X18948499Y-57439971D01*
X18949917Y-57444645D01*
X18951000Y-57455641D01*
X18951000Y-57744359D01*
X18949917Y-57755355D01*
X18948499Y-57760029D01*
X18946200Y-57764330D01*
X18940971Y-57770702D01*
X18927357Y-57791076D01*
X18917980Y-57813715D01*
X18913200Y-57837749D01*
X18913200Y-57862253D01*
X18917981Y-57886286D01*
X18927358Y-57908925D01*
X18940971Y-57929298D01*
X18946200Y-57935670D01*
X18948499Y-57939971D01*
X18949917Y-57944645D01*
X18951000Y-57955641D01*
X18951000Y-58244359D01*
X18949917Y-58255355D01*
X18948499Y-58260029D01*
X18946200Y-58264330D01*
X18940971Y-58270702D01*
X18927357Y-58291076D01*
X18917980Y-58313715D01*
X18913200Y-58337749D01*
X18913200Y-58362253D01*
X18917981Y-58386286D01*
X18927358Y-58408925D01*
X18940971Y-58429298D01*
X18946200Y-58435670D01*
X18948499Y-58439971D01*
X18949917Y-58444645D01*
X18951000Y-58455641D01*
X18951000Y-58744359D01*
X18949917Y-58755355D01*
X18948499Y-58760029D01*
X18946200Y-58764330D01*
X18940971Y-58770702D01*
X18927357Y-58791076D01*
X18917980Y-58813715D01*
X18913200Y-58837749D01*
X18913200Y-58862253D01*
X18917981Y-58886286D01*
X18927358Y-58908925D01*
X18940971Y-58929298D01*
X18946200Y-58935670D01*
X18948499Y-58939971D01*
X18949917Y-58944645D01*
X18951000Y-58955641D01*
X18951000Y-59244359D01*
X18949917Y-59255355D01*
X18948499Y-59260029D01*
X18946200Y-59264330D01*
X18940971Y-59270702D01*
X18927357Y-59291076D01*
X18917980Y-59313715D01*
X18913200Y-59337749D01*
X18913200Y-59362253D01*
X18917981Y-59386286D01*
X18927358Y-59408925D01*
X18940971Y-59429298D01*
X18946200Y-59435670D01*
X18948499Y-59439971D01*
X18949917Y-59444645D01*
X18951000Y-59455641D01*
X18951000Y-59744359D01*
X18949917Y-59755355D01*
X18948499Y-59760029D01*
X18946200Y-59764330D01*
X18940971Y-59770702D01*
X18927357Y-59791076D01*
X18917980Y-59813715D01*
X18913200Y-59837749D01*
X18913200Y-59862253D01*
X18917981Y-59886286D01*
X18927358Y-59908925D01*
X18940971Y-59929298D01*
X18946200Y-59935670D01*
X18948499Y-59939971D01*
X18949917Y-59944645D01*
X18951000Y-59955641D01*
X18951000Y-60244359D01*
X18949917Y-60255355D01*
X18948499Y-60260029D01*
X18946200Y-60264331D01*
X18943104Y-60268104D01*
X18939331Y-60271200D01*
X18935029Y-60273499D01*
X18930355Y-60274917D01*
X18919359Y-60276000D01*
X18080641Y-60276000D01*
X18069645Y-60274917D01*
X18064971Y-60273499D01*
X18060669Y-60271200D01*
X18056896Y-60268104D01*
X18053800Y-60264331D01*
X18051501Y-60260029D01*
X18050083Y-60255355D01*
X18049000Y-60244359D01*
X18049000Y-59955641D01*
X18050083Y-59944645D01*
X18051501Y-59939971D01*
X18053800Y-59935670D01*
X18059029Y-59929298D01*
X18072643Y-59908924D01*
X18082020Y-59886285D01*
X18086800Y-59862251D01*
X18086800Y-59837747D01*
X18082019Y-59813714D01*
X18072642Y-59791075D01*
X18059029Y-59770702D01*
X18053800Y-59764330D01*
X18051501Y-59760029D01*
X18050083Y-59755355D01*
X18049000Y-59744359D01*
X18049000Y-59455641D01*
X18050083Y-59444645D01*
X18051501Y-59439971D01*
X18053800Y-59435670D01*
X18059029Y-59429298D01*
X18072643Y-59408924D01*
X18082020Y-59386285D01*
X18086800Y-59362251D01*
X18086800Y-59337747D01*
X18082019Y-59313714D01*
X18072642Y-59291075D01*
X18059029Y-59270702D01*
X18053800Y-59264330D01*
X18051501Y-59260029D01*
X18050083Y-59255355D01*
X18049000Y-59244359D01*
X18049000Y-58955641D01*
X18050083Y-58944645D01*
X18051501Y-58939971D01*
X18053800Y-58935670D01*
X18059029Y-58929298D01*
X18072643Y-58908924D01*
X18082020Y-58886285D01*
X18086800Y-58862251D01*
X18086800Y-58837747D01*
X18082019Y-58813714D01*
X18072642Y-58791075D01*
X18059029Y-58770702D01*
X18053800Y-58764330D01*
X18051501Y-58760029D01*
X18050083Y-58755355D01*
X18049000Y-58744359D01*
X18049000Y-58455641D01*
X18050083Y-58444645D01*
X18051501Y-58439971D01*
X18053800Y-58435670D01*
X18059029Y-58429298D01*
X18072643Y-58408924D01*
X18082020Y-58386285D01*
X18086800Y-58362251D01*
X18086800Y-58337747D01*
X18082019Y-58313714D01*
X18072642Y-58291075D01*
X18059029Y-58270702D01*
X18053800Y-58264330D01*
X18051501Y-58260029D01*
X18050083Y-58255355D01*
X18049000Y-58244359D01*
X18049000Y-57955641D01*
X18050083Y-57944645D01*
X18051501Y-57939971D01*
X18053800Y-57935670D01*
X18059029Y-57929298D01*
X18072643Y-57908924D01*
X18082020Y-57886285D01*
X18086800Y-57862251D01*
X18086800Y-57837747D01*
X18082019Y-57813714D01*
X18072642Y-57791075D01*
X18059029Y-57770702D01*
X18053800Y-57764330D01*
X18051501Y-57760029D01*
X18050083Y-57755355D01*
X18049000Y-57744359D01*
X18049000Y-57455641D01*
X18050083Y-57444645D01*
X18051501Y-57439971D01*
X18053800Y-57435670D01*
X18059029Y-57429298D01*
X18072643Y-57408924D01*
X18082020Y-57386285D01*
X18086800Y-57362251D01*
X18086800Y-57337747D01*
X18082019Y-57313714D01*
X18072642Y-57291075D01*
X18059029Y-57270702D01*
X18053800Y-57264330D01*
X18051501Y-57260029D01*
X18050083Y-57255355D01*
X18049000Y-57244359D01*
X18049000Y-56955641D01*
X18050083Y-56944645D01*
X18051501Y-56939971D01*
X18053800Y-56935669D01*
X18056896Y-56931896D01*
X18060669Y-56928800D01*
X18064971Y-56926501D01*
X18069645Y-56925083D01*
X18080641Y-56924000D01*
X18919359Y-56924000D01*
X18930355Y-56925083D01*
G37*
G36*
X14030355Y-56925083D02*
G01*
X14035029Y-56926501D01*
X14039331Y-56928800D01*
X14043104Y-56931896D01*
X14046200Y-56935669D01*
X14048499Y-56939971D01*
X14049917Y-56944645D01*
X14051000Y-56955641D01*
X14051000Y-57244359D01*
X14049917Y-57255355D01*
X14048499Y-57260029D01*
X14046200Y-57264330D01*
X14040971Y-57270702D01*
X14027357Y-57291076D01*
X14017980Y-57313715D01*
X14013200Y-57337749D01*
X14013200Y-57362253D01*
X14017981Y-57386286D01*
X14027358Y-57408925D01*
X14040971Y-57429298D01*
X14046200Y-57435670D01*
X14048499Y-57439971D01*
X14049917Y-57444645D01*
X14051000Y-57455641D01*
X14051000Y-57744359D01*
X14049917Y-57755355D01*
X14048499Y-57760029D01*
X14046200Y-57764330D01*
X14040971Y-57770702D01*
X14027357Y-57791076D01*
X14017980Y-57813715D01*
X14013200Y-57837749D01*
X14013200Y-57862253D01*
X14017981Y-57886286D01*
X14027358Y-57908925D01*
X14040971Y-57929298D01*
X14046200Y-57935670D01*
X14048499Y-57939971D01*
X14049917Y-57944645D01*
X14051000Y-57955641D01*
X14051000Y-58244359D01*
X14049917Y-58255355D01*
X14048499Y-58260029D01*
X14046200Y-58264330D01*
X14040971Y-58270702D01*
X14027357Y-58291076D01*
X14017980Y-58313715D01*
X14013200Y-58337749D01*
X14013200Y-58362253D01*
X14017981Y-58386286D01*
X14027358Y-58408925D01*
X14040971Y-58429298D01*
X14046200Y-58435670D01*
X14048499Y-58439971D01*
X14049917Y-58444645D01*
X14051000Y-58455641D01*
X14051000Y-58744359D01*
X14049917Y-58755355D01*
X14048499Y-58760029D01*
X14046200Y-58764330D01*
X14040971Y-58770702D01*
X14027357Y-58791076D01*
X14017980Y-58813715D01*
X14013200Y-58837749D01*
X14013200Y-58862253D01*
X14017981Y-58886286D01*
X14027358Y-58908925D01*
X14040971Y-58929298D01*
X14046200Y-58935670D01*
X14048499Y-58939971D01*
X14049917Y-58944645D01*
X14051000Y-58955641D01*
X14051000Y-59244359D01*
X14049917Y-59255355D01*
X14048499Y-59260029D01*
X14046200Y-59264330D01*
X14040971Y-59270702D01*
X14027357Y-59291076D01*
X14017980Y-59313715D01*
X14013200Y-59337749D01*
X14013200Y-59362253D01*
X14017981Y-59386286D01*
X14027358Y-59408925D01*
X14040971Y-59429298D01*
X14046200Y-59435670D01*
X14048499Y-59439971D01*
X14049917Y-59444645D01*
X14051000Y-59455641D01*
X14051000Y-59744359D01*
X14049917Y-59755355D01*
X14048499Y-59760029D01*
X14046200Y-59764330D01*
X14040971Y-59770702D01*
X14027357Y-59791076D01*
X14017980Y-59813715D01*
X14013200Y-59837749D01*
X14013200Y-59862253D01*
X14017981Y-59886286D01*
X14027358Y-59908925D01*
X14040971Y-59929298D01*
X14046200Y-59935670D01*
X14048499Y-59939971D01*
X14049917Y-59944645D01*
X14051000Y-59955641D01*
X14051000Y-60244359D01*
X14049917Y-60255355D01*
X14048499Y-60260029D01*
X14046200Y-60264331D01*
X14043104Y-60268104D01*
X14039331Y-60271200D01*
X14035029Y-60273499D01*
X14030355Y-60274917D01*
X14019359Y-60276000D01*
X13180641Y-60276000D01*
X13169645Y-60274917D01*
X13164971Y-60273499D01*
X13160669Y-60271200D01*
X13156896Y-60268104D01*
X13153800Y-60264331D01*
X13151501Y-60260029D01*
X13150083Y-60255355D01*
X13149000Y-60244359D01*
X13149000Y-59955641D01*
X13150083Y-59944645D01*
X13151501Y-59939971D01*
X13153800Y-59935670D01*
X13159029Y-59929298D01*
X13172643Y-59908924D01*
X13182020Y-59886285D01*
X13186800Y-59862251D01*
X13186800Y-59837747D01*
X13182019Y-59813714D01*
X13172642Y-59791075D01*
X13159029Y-59770702D01*
X13153800Y-59764330D01*
X13151501Y-59760029D01*
X13150083Y-59755355D01*
X13149000Y-59744359D01*
X13149000Y-59455641D01*
X13150083Y-59444645D01*
X13151501Y-59439971D01*
X13153800Y-59435670D01*
X13159029Y-59429298D01*
X13172643Y-59408924D01*
X13182020Y-59386285D01*
X13186800Y-59362251D01*
X13186800Y-59337747D01*
X13182019Y-59313714D01*
X13172642Y-59291075D01*
X13159029Y-59270702D01*
X13153800Y-59264330D01*
X13151501Y-59260029D01*
X13150083Y-59255355D01*
X13149000Y-59244359D01*
X13149000Y-58955641D01*
X13150083Y-58944645D01*
X13151501Y-58939971D01*
X13153800Y-58935670D01*
X13159029Y-58929298D01*
X13172643Y-58908924D01*
X13182020Y-58886285D01*
X13186800Y-58862251D01*
X13186800Y-58837747D01*
X13182019Y-58813714D01*
X13172642Y-58791075D01*
X13159029Y-58770702D01*
X13153800Y-58764330D01*
X13151501Y-58760029D01*
X13150083Y-58755355D01*
X13149000Y-58744359D01*
X13149000Y-58455641D01*
X13150083Y-58444645D01*
X13151501Y-58439971D01*
X13153800Y-58435670D01*
X13159029Y-58429298D01*
X13172643Y-58408924D01*
X13182020Y-58386285D01*
X13186800Y-58362251D01*
X13186800Y-58337747D01*
X13182019Y-58313714D01*
X13172642Y-58291075D01*
X13159029Y-58270702D01*
X13153800Y-58264330D01*
X13151501Y-58260029D01*
X13150083Y-58255355D01*
X13149000Y-58244359D01*
X13149000Y-57955641D01*
X13150083Y-57944645D01*
X13151501Y-57939971D01*
X13153800Y-57935670D01*
X13159029Y-57929298D01*
X13172643Y-57908924D01*
X13182020Y-57886285D01*
X13186800Y-57862251D01*
X13186800Y-57837747D01*
X13182019Y-57813714D01*
X13172642Y-57791075D01*
X13159029Y-57770702D01*
X13153800Y-57764330D01*
X13151501Y-57760029D01*
X13150083Y-57755355D01*
X13149000Y-57744359D01*
X13149000Y-57455641D01*
X13150083Y-57444645D01*
X13151501Y-57439971D01*
X13153800Y-57435670D01*
X13159029Y-57429298D01*
X13172643Y-57408924D01*
X13182020Y-57386285D01*
X13186800Y-57362251D01*
X13186800Y-57337747D01*
X13182019Y-57313714D01*
X13172642Y-57291075D01*
X13159029Y-57270702D01*
X13153800Y-57264330D01*
X13151501Y-57260029D01*
X13150083Y-57255355D01*
X13149000Y-57244359D01*
X13149000Y-56955641D01*
X13150083Y-56944645D01*
X13151501Y-56939971D01*
X13153800Y-56935669D01*
X13156896Y-56931896D01*
X13160669Y-56928800D01*
X13164971Y-56926501D01*
X13169645Y-56925083D01*
X13180641Y-56924000D01*
X14019359Y-56924000D01*
X14030355Y-56925083D01*
G37*
G36*
X22829591Y-58778085D02*
G01*
X22863569Y-58788393D01*
X22894890Y-58805134D01*
X22922339Y-58827661D01*
X22944866Y-58855110D01*
X22961607Y-58886431D01*
X22971915Y-58920409D01*
X22976000Y-58961890D01*
X22976000Y-59638110D01*
X22971915Y-59679591D01*
X22961607Y-59713569D01*
X22944866Y-59744890D01*
X22922339Y-59772339D01*
X22894890Y-59794866D01*
X22863569Y-59811607D01*
X22829591Y-59821915D01*
X22788110Y-59826000D01*
X22186890Y-59826000D01*
X22145409Y-59821915D01*
X22111431Y-59811607D01*
X22080110Y-59794866D01*
X22052661Y-59772339D01*
X22030134Y-59744890D01*
X22013393Y-59713569D01*
X22003085Y-59679591D01*
X21999000Y-59638110D01*
X21999000Y-58961890D01*
X22003085Y-58920409D01*
X22013393Y-58886431D01*
X22030134Y-58855110D01*
X22052661Y-58827661D01*
X22080110Y-58805134D01*
X22111431Y-58788393D01*
X22145409Y-58778085D01*
X22186890Y-58774000D01*
X22788110Y-58774000D01*
X22829591Y-58778085D01*
G37*
G36*
X21254591Y-58778085D02*
G01*
X21288569Y-58788393D01*
X21319890Y-58805134D01*
X21347339Y-58827661D01*
X21369866Y-58855110D01*
X21386607Y-58886431D01*
X21396915Y-58920409D01*
X21401000Y-58961890D01*
X21401000Y-59638110D01*
X21396915Y-59679591D01*
X21386607Y-59713569D01*
X21369866Y-59744890D01*
X21347339Y-59772339D01*
X21319890Y-59794866D01*
X21288569Y-59811607D01*
X21254591Y-59821915D01*
X21213110Y-59826000D01*
X20611890Y-59826000D01*
X20570409Y-59821915D01*
X20536431Y-59811607D01*
X20505110Y-59794866D01*
X20477661Y-59772339D01*
X20455134Y-59744890D01*
X20438393Y-59713569D01*
X20428085Y-59679591D01*
X20424000Y-59638110D01*
X20424000Y-58961890D01*
X20428085Y-58920409D01*
X20438393Y-58886431D01*
X20455134Y-58855110D01*
X20477661Y-58827661D01*
X20505110Y-58805134D01*
X20536431Y-58788393D01*
X20570409Y-58778085D01*
X20611890Y-58774000D01*
X21213110Y-58774000D01*
X21254591Y-58778085D01*
G37*
G36*
X40601000Y-59751000D02*
G01*
X37599000Y-59751000D01*
X37599000Y-57849000D01*
X40601000Y-57849000D01*
X40601000Y-59751000D01*
G37*
G36*
X47279591Y-58203085D02*
G01*
X47313569Y-58213393D01*
X47344890Y-58230134D01*
X47372339Y-58252661D01*
X47394866Y-58280110D01*
X47411607Y-58311431D01*
X47421915Y-58345409D01*
X47426000Y-58386890D01*
X47426000Y-58988110D01*
X47421915Y-59029591D01*
X47411607Y-59063569D01*
X47394866Y-59094890D01*
X47372339Y-59122339D01*
X47344890Y-59144866D01*
X47313569Y-59161607D01*
X47279591Y-59171915D01*
X47238110Y-59176000D01*
X46561890Y-59176000D01*
X46520409Y-59171915D01*
X46486431Y-59161607D01*
X46455110Y-59144866D01*
X46427661Y-59122339D01*
X46405134Y-59094890D01*
X46388393Y-59063569D01*
X46378085Y-59029591D01*
X46374000Y-58988110D01*
X46374000Y-58386890D01*
X46378085Y-58345409D01*
X46388393Y-58311431D01*
X46405134Y-58280110D01*
X46427661Y-58252661D01*
X46455110Y-58230134D01*
X46486431Y-58213393D01*
X46520409Y-58203085D01*
X46561890Y-58199000D01*
X47238110Y-58199000D01*
X47279591Y-58203085D01*
G37*
G36*
X45626000Y-58781000D02*
G01*
X42974000Y-58781000D01*
X42974000Y-57619000D01*
X45626000Y-57619000D01*
X45626000Y-58781000D01*
G37*
G36*
X22829591Y-57278085D02*
G01*
X22863569Y-57288393D01*
X22894890Y-57305134D01*
X22922339Y-57327661D01*
X22944866Y-57355110D01*
X22961607Y-57386431D01*
X22971915Y-57420409D01*
X22976000Y-57461890D01*
X22976000Y-58138110D01*
X22971915Y-58179591D01*
X22961607Y-58213569D01*
X22944866Y-58244890D01*
X22922339Y-58272339D01*
X22894890Y-58294866D01*
X22863569Y-58311607D01*
X22829591Y-58321915D01*
X22788110Y-58326000D01*
X22186890Y-58326000D01*
X22145409Y-58321915D01*
X22111431Y-58311607D01*
X22080110Y-58294866D01*
X22052661Y-58272339D01*
X22030134Y-58244890D01*
X22013393Y-58213569D01*
X22003085Y-58179591D01*
X21999000Y-58138110D01*
X21999000Y-57461890D01*
X22003085Y-57420409D01*
X22013393Y-57386431D01*
X22030134Y-57355110D01*
X22052661Y-57327661D01*
X22080110Y-57305134D01*
X22111431Y-57288393D01*
X22145409Y-57278085D01*
X22186890Y-57274000D01*
X22788110Y-57274000D01*
X22829591Y-57278085D01*
G37*
G36*
X21254591Y-57278085D02*
G01*
X21288569Y-57288393D01*
X21319890Y-57305134D01*
X21347339Y-57327661D01*
X21369866Y-57355110D01*
X21386607Y-57386431D01*
X21396915Y-57420409D01*
X21401000Y-57461890D01*
X21401000Y-58138110D01*
X21396915Y-58179591D01*
X21386607Y-58213569D01*
X21369866Y-58244890D01*
X21347339Y-58272339D01*
X21319890Y-58294866D01*
X21288569Y-58311607D01*
X21254591Y-58321915D01*
X21213110Y-58326000D01*
X20611890Y-58326000D01*
X20570409Y-58321915D01*
X20536431Y-58311607D01*
X20505110Y-58294866D01*
X20477661Y-58272339D01*
X20455134Y-58244890D01*
X20438393Y-58213569D01*
X20428085Y-58179591D01*
X20424000Y-58138110D01*
X20424000Y-57461890D01*
X20428085Y-57420409D01*
X20438393Y-57386431D01*
X20455134Y-57355110D01*
X20477661Y-57327661D01*
X20505110Y-57305134D01*
X20536431Y-57288393D01*
X20570409Y-57278085D01*
X20611890Y-57274000D01*
X21213110Y-57274000D01*
X21254591Y-57278085D01*
G37*
G36*
X47279591Y-56628085D02*
G01*
X47313569Y-56638393D01*
X47344890Y-56655134D01*
X47372339Y-56677661D01*
X47394866Y-56705110D01*
X47411607Y-56736431D01*
X47421915Y-56770409D01*
X47426000Y-56811890D01*
X47426000Y-57413110D01*
X47421915Y-57454591D01*
X47411607Y-57488569D01*
X47394866Y-57519890D01*
X47372339Y-57547339D01*
X47344890Y-57569866D01*
X47313569Y-57586607D01*
X47279591Y-57596915D01*
X47238110Y-57601000D01*
X46561890Y-57601000D01*
X46520409Y-57596915D01*
X46486431Y-57586607D01*
X46455110Y-57569866D01*
X46427661Y-57547339D01*
X46405134Y-57519890D01*
X46388393Y-57488569D01*
X46378085Y-57454591D01*
X46374000Y-57413110D01*
X46374000Y-56811890D01*
X46378085Y-56770409D01*
X46388393Y-56736431D01*
X46405134Y-56705110D01*
X46427661Y-56677661D01*
X46455110Y-56655134D01*
X46486431Y-56638393D01*
X46520409Y-56628085D01*
X46561890Y-56624000D01*
X47238110Y-56624000D01*
X47279591Y-56628085D01*
G37*
G36*
X10154591Y-56478085D02*
G01*
X10188569Y-56488393D01*
X10219890Y-56505134D01*
X10247339Y-56527661D01*
X10269866Y-56555110D01*
X10286607Y-56586431D01*
X10296915Y-56620409D01*
X10301000Y-56661890D01*
X10301000Y-57338110D01*
X10296915Y-57379591D01*
X10286607Y-57413569D01*
X10269866Y-57444890D01*
X10247339Y-57472339D01*
X10219890Y-57494866D01*
X10188569Y-57511607D01*
X10154591Y-57521915D01*
X10113110Y-57526000D01*
X9511890Y-57526000D01*
X9470409Y-57521915D01*
X9436431Y-57511607D01*
X9405110Y-57494866D01*
X9377661Y-57472339D01*
X9355134Y-57444890D01*
X9338393Y-57413569D01*
X9328085Y-57379591D01*
X9324000Y-57338110D01*
X9324000Y-56661890D01*
X9328085Y-56620409D01*
X9338393Y-56586431D01*
X9355134Y-56555110D01*
X9377661Y-56527661D01*
X9405110Y-56505134D01*
X9436431Y-56488393D01*
X9470409Y-56478085D01*
X9511890Y-56474000D01*
X10113110Y-56474000D01*
X10154591Y-56478085D01*
G37*
G36*
X11729591Y-56478085D02*
G01*
X11763569Y-56488393D01*
X11794890Y-56505134D01*
X11822339Y-56527661D01*
X11844866Y-56555110D01*
X11861607Y-56586431D01*
X11871915Y-56620409D01*
X11876000Y-56661890D01*
X11876000Y-57338110D01*
X11871915Y-57379591D01*
X11861607Y-57413569D01*
X11844866Y-57444890D01*
X11822339Y-57472339D01*
X11794890Y-57494866D01*
X11763569Y-57511607D01*
X11729591Y-57521915D01*
X11688110Y-57526000D01*
X11086890Y-57526000D01*
X11045409Y-57521915D01*
X11011431Y-57511607D01*
X10980110Y-57494866D01*
X10952661Y-57472339D01*
X10930134Y-57444890D01*
X10913393Y-57413569D01*
X10903085Y-57379591D01*
X10899000Y-57338110D01*
X10899000Y-56661890D01*
X10903085Y-56620409D01*
X10913393Y-56586431D01*
X10930134Y-56555110D01*
X10952661Y-56527661D01*
X10980110Y-56505134D01*
X11011431Y-56488393D01*
X11045409Y-56478085D01*
X11086890Y-56474000D01*
X11688110Y-56474000D01*
X11729591Y-56478085D01*
G37*
G36*
X21254591Y-55778085D02*
G01*
X21288569Y-55788393D01*
X21319890Y-55805134D01*
X21347339Y-55827661D01*
X21369866Y-55855110D01*
X21386607Y-55886431D01*
X21396915Y-55920409D01*
X21401000Y-55961890D01*
X21401000Y-56638110D01*
X21396915Y-56679591D01*
X21386607Y-56713569D01*
X21369866Y-56744890D01*
X21347339Y-56772339D01*
X21319890Y-56794866D01*
X21288569Y-56811607D01*
X21254591Y-56821915D01*
X21213110Y-56826000D01*
X20611890Y-56826000D01*
X20570409Y-56821915D01*
X20536431Y-56811607D01*
X20505110Y-56794866D01*
X20477661Y-56772339D01*
X20455134Y-56744890D01*
X20438393Y-56713569D01*
X20428085Y-56679591D01*
X20424000Y-56638110D01*
X20424000Y-55961890D01*
X20428085Y-55920409D01*
X20438393Y-55886431D01*
X20455134Y-55855110D01*
X20477661Y-55827661D01*
X20505110Y-55805134D01*
X20536431Y-55788393D01*
X20570409Y-55778085D01*
X20611890Y-55774000D01*
X21213110Y-55774000D01*
X21254591Y-55778085D01*
G37*
G36*
X22829591Y-55778085D02*
G01*
X22863569Y-55788393D01*
X22894890Y-55805134D01*
X22922339Y-55827661D01*
X22944866Y-55855110D01*
X22961607Y-55886431D01*
X22971915Y-55920409D01*
X22976000Y-55961890D01*
X22976000Y-56638110D01*
X22971915Y-56679591D01*
X22961607Y-56713569D01*
X22944866Y-56744890D01*
X22922339Y-56772339D01*
X22894890Y-56794866D01*
X22863569Y-56811607D01*
X22829591Y-56821915D01*
X22788110Y-56826000D01*
X22186890Y-56826000D01*
X22145409Y-56821915D01*
X22111431Y-56811607D01*
X22080110Y-56794866D01*
X22052661Y-56772339D01*
X22030134Y-56744890D01*
X22013393Y-56713569D01*
X22003085Y-56679591D01*
X21999000Y-56638110D01*
X21999000Y-55961890D01*
X22003085Y-55920409D01*
X22013393Y-55886431D01*
X22030134Y-55855110D01*
X22052661Y-55827661D01*
X22080110Y-55805134D01*
X22111431Y-55788393D01*
X22145409Y-55778085D01*
X22186890Y-55774000D01*
X22788110Y-55774000D01*
X22829591Y-55778085D01*
G37*
G36*
X14705355Y-55700083D02*
G01*
X14710029Y-55701501D01*
X14714330Y-55703800D01*
X14720702Y-55709029D01*
X14741076Y-55722643D01*
X14763715Y-55732020D01*
X14787749Y-55736800D01*
X14812253Y-55736800D01*
X14836286Y-55732019D01*
X14858925Y-55722642D01*
X14879298Y-55709029D01*
X14885670Y-55703800D01*
X14889971Y-55701501D01*
X14894645Y-55700083D01*
X14905641Y-55699000D01*
X15194359Y-55699000D01*
X15205355Y-55700083D01*
X15210029Y-55701501D01*
X15214330Y-55703800D01*
X15220702Y-55709029D01*
X15241076Y-55722643D01*
X15263715Y-55732020D01*
X15287749Y-55736800D01*
X15312253Y-55736800D01*
X15336286Y-55732019D01*
X15358925Y-55722642D01*
X15379298Y-55709029D01*
X15385670Y-55703800D01*
X15389971Y-55701501D01*
X15394645Y-55700083D01*
X15405641Y-55699000D01*
X15694359Y-55699000D01*
X15705355Y-55700083D01*
X15710029Y-55701501D01*
X15714330Y-55703800D01*
X15720702Y-55709029D01*
X15741076Y-55722643D01*
X15763715Y-55732020D01*
X15787749Y-55736800D01*
X15812253Y-55736800D01*
X15836286Y-55732019D01*
X15858925Y-55722642D01*
X15879298Y-55709029D01*
X15885670Y-55703800D01*
X15889971Y-55701501D01*
X15894645Y-55700083D01*
X15905641Y-55699000D01*
X16194359Y-55699000D01*
X16205355Y-55700083D01*
X16210029Y-55701501D01*
X16214330Y-55703800D01*
X16220702Y-55709029D01*
X16241076Y-55722643D01*
X16263715Y-55732020D01*
X16287749Y-55736800D01*
X16312253Y-55736800D01*
X16336286Y-55732019D01*
X16358925Y-55722642D01*
X16379298Y-55709029D01*
X16385670Y-55703800D01*
X16389971Y-55701501D01*
X16394645Y-55700083D01*
X16405641Y-55699000D01*
X16694359Y-55699000D01*
X16705355Y-55700083D01*
X16710029Y-55701501D01*
X16714330Y-55703800D01*
X16720702Y-55709029D01*
X16741076Y-55722643D01*
X16763715Y-55732020D01*
X16787749Y-55736800D01*
X16812253Y-55736800D01*
X16836286Y-55732019D01*
X16858925Y-55722642D01*
X16879298Y-55709029D01*
X16885670Y-55703800D01*
X16889971Y-55701501D01*
X16894645Y-55700083D01*
X16905641Y-55699000D01*
X17194359Y-55699000D01*
X17205355Y-55700083D01*
X17210029Y-55701501D01*
X17214330Y-55703800D01*
X17220702Y-55709029D01*
X17241076Y-55722643D01*
X17263715Y-55732020D01*
X17287749Y-55736800D01*
X17312253Y-55736800D01*
X17336286Y-55732019D01*
X17358925Y-55722642D01*
X17379298Y-55709029D01*
X17385670Y-55703800D01*
X17389971Y-55701501D01*
X17394645Y-55700083D01*
X17405641Y-55699000D01*
X17694359Y-55699000D01*
X17705355Y-55700083D01*
X17710029Y-55701501D01*
X17714331Y-55703800D01*
X17718104Y-55706896D01*
X17721200Y-55710669D01*
X17723499Y-55714971D01*
X17724917Y-55719645D01*
X17726000Y-55730641D01*
X17726000Y-56569359D01*
X17724917Y-56580355D01*
X17723499Y-56585029D01*
X17721200Y-56589331D01*
X17718104Y-56593104D01*
X17714331Y-56596200D01*
X17710029Y-56598499D01*
X17705355Y-56599917D01*
X17694359Y-56601000D01*
X17405641Y-56601000D01*
X17394645Y-56599917D01*
X17389971Y-56598499D01*
X17385670Y-56596200D01*
X17379298Y-56590971D01*
X17358924Y-56577357D01*
X17336285Y-56567980D01*
X17312251Y-56563200D01*
X17287747Y-56563200D01*
X17263714Y-56567981D01*
X17241075Y-56577358D01*
X17220702Y-56590971D01*
X17214330Y-56596200D01*
X17210029Y-56598499D01*
X17205355Y-56599917D01*
X17194359Y-56601000D01*
X16905641Y-56601000D01*
X16894645Y-56599917D01*
X16889971Y-56598499D01*
X16885670Y-56596200D01*
X16879298Y-56590971D01*
X16858924Y-56577357D01*
X16836285Y-56567980D01*
X16812251Y-56563200D01*
X16787747Y-56563200D01*
X16763714Y-56567981D01*
X16741075Y-56577358D01*
X16720702Y-56590971D01*
X16714330Y-56596200D01*
X16710029Y-56598499D01*
X16705355Y-56599917D01*
X16694359Y-56601000D01*
X16405641Y-56601000D01*
X16394645Y-56599917D01*
X16389971Y-56598499D01*
X16385670Y-56596200D01*
X16379298Y-56590971D01*
X16358924Y-56577357D01*
X16336285Y-56567980D01*
X16312251Y-56563200D01*
X16287747Y-56563200D01*
X16263714Y-56567981D01*
X16241075Y-56577358D01*
X16220702Y-56590971D01*
X16214330Y-56596200D01*
X16210029Y-56598499D01*
X16205355Y-56599917D01*
X16194359Y-56601000D01*
X15905641Y-56601000D01*
X15894645Y-56599917D01*
X15889971Y-56598499D01*
X15885670Y-56596200D01*
X15879298Y-56590971D01*
X15858924Y-56577357D01*
X15836285Y-56567980D01*
X15812251Y-56563200D01*
X15787747Y-56563200D01*
X15763714Y-56567981D01*
X15741075Y-56577358D01*
X15720702Y-56590971D01*
X15714330Y-56596200D01*
X15710029Y-56598499D01*
X15705355Y-56599917D01*
X15694359Y-56601000D01*
X15405641Y-56601000D01*
X15394645Y-56599917D01*
X15389971Y-56598499D01*
X15385670Y-56596200D01*
X15379298Y-56590971D01*
X15358924Y-56577357D01*
X15336285Y-56567980D01*
X15312251Y-56563200D01*
X15287747Y-56563200D01*
X15263714Y-56567981D01*
X15241075Y-56577358D01*
X15220702Y-56590971D01*
X15214330Y-56596200D01*
X15210029Y-56598499D01*
X15205355Y-56599917D01*
X15194359Y-56601000D01*
X14905641Y-56601000D01*
X14894645Y-56599917D01*
X14889971Y-56598499D01*
X14885670Y-56596200D01*
X14879298Y-56590971D01*
X14858924Y-56577357D01*
X14836285Y-56567980D01*
X14812251Y-56563200D01*
X14787747Y-56563200D01*
X14763714Y-56567981D01*
X14741075Y-56577358D01*
X14720702Y-56590971D01*
X14714330Y-56596200D01*
X14710029Y-56598499D01*
X14705355Y-56599917D01*
X14694359Y-56601000D01*
X14405641Y-56601000D01*
X14394645Y-56599917D01*
X14389971Y-56598499D01*
X14385669Y-56596200D01*
X14381896Y-56593104D01*
X14378800Y-56589331D01*
X14376501Y-56585029D01*
X14375083Y-56580355D01*
X14374000Y-56569359D01*
X14374000Y-55730641D01*
X14375083Y-55719645D01*
X14376501Y-55714971D01*
X14378800Y-55710669D01*
X14381896Y-55706896D01*
X14385669Y-55703800D01*
X14389971Y-55701501D01*
X14394645Y-55700083D01*
X14405641Y-55699000D01*
X14694359Y-55699000D01*
X14705355Y-55700083D01*
G37*
G36*
X45626000Y-56581000D02*
G01*
X44874000Y-56581000D01*
X44874000Y-55419000D01*
X45626000Y-55419000D01*
X45626000Y-56581000D01*
G37*
G36*
X43726000Y-56581000D02*
G01*
X42974000Y-56581000D01*
X42974000Y-55419000D01*
X43726000Y-55419000D01*
X43726000Y-56581000D01*
G37*
G36*
X40601000Y-56551000D02*
G01*
X37599000Y-56551000D01*
X37599000Y-54649000D01*
X40601000Y-54649000D01*
X40601000Y-56551000D01*
G37*
G36*
X11729591Y-54978085D02*
G01*
X11763569Y-54988393D01*
X11794890Y-55005134D01*
X11822339Y-55027661D01*
X11844866Y-55055110D01*
X11861607Y-55086431D01*
X11871915Y-55120409D01*
X11876000Y-55161890D01*
X11876000Y-55838110D01*
X11871915Y-55879591D01*
X11861607Y-55913569D01*
X11844866Y-55944890D01*
X11822339Y-55972339D01*
X11794890Y-55994866D01*
X11763569Y-56011607D01*
X11729591Y-56021915D01*
X11688110Y-56026000D01*
X11086890Y-56026000D01*
X11045409Y-56021915D01*
X11011431Y-56011607D01*
X10980110Y-55994866D01*
X10952661Y-55972339D01*
X10930134Y-55944890D01*
X10913393Y-55913569D01*
X10903085Y-55879591D01*
X10899000Y-55838110D01*
X10899000Y-55161890D01*
X10903085Y-55120409D01*
X10913393Y-55086431D01*
X10930134Y-55055110D01*
X10952661Y-55027661D01*
X10980110Y-55005134D01*
X11011431Y-54988393D01*
X11045409Y-54978085D01*
X11086890Y-54974000D01*
X11688110Y-54974000D01*
X11729591Y-54978085D01*
G37*
G36*
X10154591Y-54978085D02*
G01*
X10188569Y-54988393D01*
X10219890Y-55005134D01*
X10247339Y-55027661D01*
X10269866Y-55055110D01*
X10286607Y-55086431D01*
X10296915Y-55120409D01*
X10301000Y-55161890D01*
X10301000Y-55838110D01*
X10296915Y-55879591D01*
X10286607Y-55913569D01*
X10269866Y-55944890D01*
X10247339Y-55972339D01*
X10219890Y-55994866D01*
X10188569Y-56011607D01*
X10154591Y-56021915D01*
X10113110Y-56026000D01*
X9511890Y-56026000D01*
X9470409Y-56021915D01*
X9436431Y-56011607D01*
X9405110Y-55994866D01*
X9377661Y-55972339D01*
X9355134Y-55944890D01*
X9338393Y-55913569D01*
X9328085Y-55879591D01*
X9324000Y-55838110D01*
X9324000Y-55161890D01*
X9328085Y-55120409D01*
X9338393Y-55086431D01*
X9355134Y-55055110D01*
X9377661Y-55027661D01*
X9405110Y-55005134D01*
X9436431Y-54988393D01*
X9470409Y-54978085D01*
X9511890Y-54974000D01*
X10113110Y-54974000D01*
X10154591Y-54978085D01*
G37*
G36*
X29901000Y-55901000D02*
G01*
X28299000Y-55901000D01*
X28299000Y-54299000D01*
X29901000Y-54299000D01*
X29901000Y-55901000D01*
G37*
G36*
X33929591Y-54578085D02*
G01*
X33963569Y-54588393D01*
X33994890Y-54605134D01*
X34022339Y-54627661D01*
X34044866Y-54655110D01*
X34061607Y-54686431D01*
X34071915Y-54720409D01*
X34076000Y-54761890D01*
X34076000Y-55438110D01*
X34071915Y-55479591D01*
X34061607Y-55513569D01*
X34044866Y-55544890D01*
X34022339Y-55572339D01*
X33994890Y-55594866D01*
X33963569Y-55611607D01*
X33929591Y-55621915D01*
X33888110Y-55626000D01*
X33286890Y-55626000D01*
X33245409Y-55621915D01*
X33211431Y-55611607D01*
X33180110Y-55594866D01*
X33152661Y-55572339D01*
X33130134Y-55544890D01*
X33113393Y-55513569D01*
X33103085Y-55479591D01*
X33099000Y-55438110D01*
X33099000Y-54761890D01*
X33103085Y-54720409D01*
X33113393Y-54686431D01*
X33130134Y-54655110D01*
X33152661Y-54627661D01*
X33180110Y-54605134D01*
X33211431Y-54588393D01*
X33245409Y-54578085D01*
X33286890Y-54574000D01*
X33888110Y-54574000D01*
X33929591Y-54578085D01*
G37*
G36*
X32354591Y-54578085D02*
G01*
X32388569Y-54588393D01*
X32419890Y-54605134D01*
X32447339Y-54627661D01*
X32469866Y-54655110D01*
X32486607Y-54686431D01*
X32496915Y-54720409D01*
X32501000Y-54761890D01*
X32501000Y-55438110D01*
X32496915Y-55479591D01*
X32486607Y-55513569D01*
X32469866Y-55544890D01*
X32447339Y-55572339D01*
X32419890Y-55594866D01*
X32388569Y-55611607D01*
X32354591Y-55621915D01*
X32313110Y-55626000D01*
X31711890Y-55626000D01*
X31670409Y-55621915D01*
X31636431Y-55611607D01*
X31605110Y-55594866D01*
X31577661Y-55572339D01*
X31555134Y-55544890D01*
X31538393Y-55513569D01*
X31528085Y-55479591D01*
X31524000Y-55438110D01*
X31524000Y-54761890D01*
X31528085Y-54720409D01*
X31538393Y-54686431D01*
X31555134Y-54655110D01*
X31577661Y-54627661D01*
X31605110Y-54605134D01*
X31636431Y-54588393D01*
X31670409Y-54578085D01*
X31711890Y-54574000D01*
X32313110Y-54574000D01*
X32354591Y-54578085D01*
G37*
G36*
X22829591Y-54278085D02*
G01*
X22863569Y-54288393D01*
X22894890Y-54305134D01*
X22922339Y-54327661D01*
X22944866Y-54355110D01*
X22961607Y-54386431D01*
X22971915Y-54420409D01*
X22976000Y-54461890D01*
X22976000Y-55138110D01*
X22971915Y-55179591D01*
X22961607Y-55213569D01*
X22944866Y-55244890D01*
X22922339Y-55272339D01*
X22894890Y-55294866D01*
X22863569Y-55311607D01*
X22829591Y-55321915D01*
X22788110Y-55326000D01*
X22186890Y-55326000D01*
X22145409Y-55321915D01*
X22111431Y-55311607D01*
X22080110Y-55294866D01*
X22052661Y-55272339D01*
X22030134Y-55244890D01*
X22013393Y-55213569D01*
X22003085Y-55179591D01*
X21999000Y-55138110D01*
X21999000Y-54461890D01*
X22003085Y-54420409D01*
X22013393Y-54386431D01*
X22030134Y-54355110D01*
X22052661Y-54327661D01*
X22080110Y-54305134D01*
X22111431Y-54288393D01*
X22145409Y-54278085D01*
X22186890Y-54274000D01*
X22788110Y-54274000D01*
X22829591Y-54278085D01*
G37*
G36*
X21254591Y-54278085D02*
G01*
X21288569Y-54288393D01*
X21319890Y-54305134D01*
X21347339Y-54327661D01*
X21369866Y-54355110D01*
X21386607Y-54386431D01*
X21396915Y-54420409D01*
X21401000Y-54461890D01*
X21401000Y-55138110D01*
X21396915Y-55179591D01*
X21386607Y-55213569D01*
X21369866Y-55244890D01*
X21347339Y-55272339D01*
X21319890Y-55294866D01*
X21288569Y-55311607D01*
X21254591Y-55321915D01*
X21213110Y-55326000D01*
X20611890Y-55326000D01*
X20570409Y-55321915D01*
X20536431Y-55311607D01*
X20505110Y-55294866D01*
X20477661Y-55272339D01*
X20455134Y-55244890D01*
X20438393Y-55213569D01*
X20428085Y-55179591D01*
X20424000Y-55138110D01*
X20424000Y-54461890D01*
X20428085Y-54420409D01*
X20438393Y-54386431D01*
X20455134Y-54355110D01*
X20477661Y-54327661D01*
X20505110Y-54305134D01*
X20536431Y-54288393D01*
X20570409Y-54278085D01*
X20611890Y-54274000D01*
X21213110Y-54274000D01*
X21254591Y-54278085D01*
G37*
G36*
X13704591Y-53878085D02*
G01*
X13738569Y-53888393D01*
X13769890Y-53905134D01*
X13797339Y-53927661D01*
X13819866Y-53955110D01*
X13836607Y-53986431D01*
X13846915Y-54020409D01*
X13851000Y-54061890D01*
X13851000Y-54738110D01*
X13846915Y-54779591D01*
X13836607Y-54813569D01*
X13819866Y-54844890D01*
X13797339Y-54872339D01*
X13769890Y-54894866D01*
X13738569Y-54911607D01*
X13704591Y-54921915D01*
X13663110Y-54926000D01*
X13061890Y-54926000D01*
X13020409Y-54921915D01*
X12986431Y-54911607D01*
X12955110Y-54894866D01*
X12927661Y-54872339D01*
X12905134Y-54844890D01*
X12888393Y-54813569D01*
X12878085Y-54779591D01*
X12874000Y-54738110D01*
X12874000Y-54061890D01*
X12878085Y-54020409D01*
X12888393Y-53986431D01*
X12905134Y-53955110D01*
X12927661Y-53927661D01*
X12955110Y-53905134D01*
X12986431Y-53888393D01*
X13020409Y-53878085D01*
X13061890Y-53874000D01*
X13663110Y-53874000D01*
X13704591Y-53878085D01*
G37*
G36*
X15279591Y-53878085D02*
G01*
X15313569Y-53888393D01*
X15344890Y-53905134D01*
X15372339Y-53927661D01*
X15394866Y-53955110D01*
X15411607Y-53986431D01*
X15421915Y-54020409D01*
X15426000Y-54061890D01*
X15426000Y-54738110D01*
X15421915Y-54779591D01*
X15411607Y-54813569D01*
X15394866Y-54844890D01*
X15372339Y-54872339D01*
X15344890Y-54894866D01*
X15313569Y-54911607D01*
X15279591Y-54921915D01*
X15238110Y-54926000D01*
X14636890Y-54926000D01*
X14595409Y-54921915D01*
X14561431Y-54911607D01*
X14530110Y-54894866D01*
X14502661Y-54872339D01*
X14480134Y-54844890D01*
X14463393Y-54813569D01*
X14453085Y-54779591D01*
X14449000Y-54738110D01*
X14449000Y-54061890D01*
X14453085Y-54020409D01*
X14463393Y-53986431D01*
X14480134Y-53955110D01*
X14502661Y-53927661D01*
X14530110Y-53905134D01*
X14561431Y-53888393D01*
X14595409Y-53878085D01*
X14636890Y-53874000D01*
X15238110Y-53874000D01*
X15279591Y-53878085D01*
G37*
G36*
X19829591Y-53915585D02*
G01*
X19863569Y-53925893D01*
X19894890Y-53942634D01*
X19922339Y-53965161D01*
X19944866Y-53992610D01*
X19961607Y-54023931D01*
X19971915Y-54057909D01*
X19976000Y-54099390D01*
X19976000Y-54700610D01*
X19971915Y-54742091D01*
X19961607Y-54776069D01*
X19944866Y-54807390D01*
X19922339Y-54834839D01*
X19894890Y-54857366D01*
X19863569Y-54874107D01*
X19829591Y-54884415D01*
X19788110Y-54888500D01*
X19111890Y-54888500D01*
X19070409Y-54884415D01*
X19036431Y-54874107D01*
X19005110Y-54857366D01*
X18977661Y-54834839D01*
X18955134Y-54807390D01*
X18938393Y-54776069D01*
X18928085Y-54742091D01*
X18924000Y-54700610D01*
X18924000Y-54099390D01*
X18928085Y-54057909D01*
X18938393Y-54023931D01*
X18955134Y-53992610D01*
X18977661Y-53965161D01*
X19005110Y-53942634D01*
X19036431Y-53925893D01*
X19070409Y-53915585D01*
X19111890Y-53911500D01*
X19788110Y-53911500D01*
X19829591Y-53915585D01*
G37*
G36*
X16829591Y-53915585D02*
G01*
X16863569Y-53925893D01*
X16894890Y-53942634D01*
X16922339Y-53965161D01*
X16944866Y-53992610D01*
X16961607Y-54023931D01*
X16971915Y-54057909D01*
X16976000Y-54099390D01*
X16976000Y-54700610D01*
X16971915Y-54742091D01*
X16961607Y-54776069D01*
X16944866Y-54807390D01*
X16922339Y-54834839D01*
X16894890Y-54857366D01*
X16863569Y-54874107D01*
X16829591Y-54884415D01*
X16788110Y-54888500D01*
X16111890Y-54888500D01*
X16070409Y-54884415D01*
X16036431Y-54874107D01*
X16005110Y-54857366D01*
X15977661Y-54834839D01*
X15955134Y-54807390D01*
X15938393Y-54776069D01*
X15928085Y-54742091D01*
X15924000Y-54700610D01*
X15924000Y-54099390D01*
X15928085Y-54057909D01*
X15938393Y-54023931D01*
X15955134Y-53992610D01*
X15977661Y-53965161D01*
X16005110Y-53942634D01*
X16036431Y-53925893D01*
X16070409Y-53915585D01*
X16111890Y-53911500D01*
X16788110Y-53911500D01*
X16829591Y-53915585D01*
G37*
G36*
X18329591Y-53915585D02*
G01*
X18363569Y-53925893D01*
X18394890Y-53942634D01*
X18422339Y-53965161D01*
X18444866Y-53992610D01*
X18461607Y-54023931D01*
X18471915Y-54057909D01*
X18476000Y-54099390D01*
X18476000Y-54700610D01*
X18471915Y-54742091D01*
X18461607Y-54776069D01*
X18444866Y-54807390D01*
X18422339Y-54834839D01*
X18394890Y-54857366D01*
X18363569Y-54874107D01*
X18329591Y-54884415D01*
X18288110Y-54888500D01*
X17611890Y-54888500D01*
X17570409Y-54884415D01*
X17536431Y-54874107D01*
X17505110Y-54857366D01*
X17477661Y-54834839D01*
X17455134Y-54807390D01*
X17438393Y-54776069D01*
X17428085Y-54742091D01*
X17424000Y-54700610D01*
X17424000Y-54099390D01*
X17428085Y-54057909D01*
X17438393Y-54023931D01*
X17455134Y-53992610D01*
X17477661Y-53965161D01*
X17505110Y-53942634D01*
X17536431Y-53925893D01*
X17570409Y-53915585D01*
X17611890Y-53911500D01*
X18288110Y-53911500D01*
X18329591Y-53915585D01*
G37*
G36*
X45329591Y-53778085D02*
G01*
X45363569Y-53788393D01*
X45394890Y-53805134D01*
X45422339Y-53827661D01*
X45444866Y-53855110D01*
X45461607Y-53886431D01*
X45471915Y-53920409D01*
X45476000Y-53961890D01*
X45476000Y-54638110D01*
X45471915Y-54679591D01*
X45461607Y-54713569D01*
X45444866Y-54744890D01*
X45422339Y-54772339D01*
X45394890Y-54794866D01*
X45363569Y-54811607D01*
X45329591Y-54821915D01*
X45288110Y-54826000D01*
X44686890Y-54826000D01*
X44645409Y-54821915D01*
X44611431Y-54811607D01*
X44580110Y-54794866D01*
X44552661Y-54772339D01*
X44530134Y-54744890D01*
X44513393Y-54713569D01*
X44503085Y-54679591D01*
X44499000Y-54638110D01*
X44499000Y-53961890D01*
X44503085Y-53920409D01*
X44513393Y-53886431D01*
X44530134Y-53855110D01*
X44552661Y-53827661D01*
X44580110Y-53805134D01*
X44611431Y-53788393D01*
X44645409Y-53778085D01*
X44686890Y-53774000D01*
X45288110Y-53774000D01*
X45329591Y-53778085D01*
G37*
G36*
X43754591Y-53778085D02*
G01*
X43788569Y-53788393D01*
X43819890Y-53805134D01*
X43847339Y-53827661D01*
X43869866Y-53855110D01*
X43886607Y-53886431D01*
X43896915Y-53920409D01*
X43901000Y-53961890D01*
X43901000Y-54638110D01*
X43896915Y-54679591D01*
X43886607Y-54713569D01*
X43869866Y-54744890D01*
X43847339Y-54772339D01*
X43819890Y-54794866D01*
X43788569Y-54811607D01*
X43754591Y-54821915D01*
X43713110Y-54826000D01*
X43111890Y-54826000D01*
X43070409Y-54821915D01*
X43036431Y-54811607D01*
X43005110Y-54794866D01*
X42977661Y-54772339D01*
X42955134Y-54744890D01*
X42938393Y-54713569D01*
X42928085Y-54679591D01*
X42924000Y-54638110D01*
X42924000Y-53961890D01*
X42928085Y-53920409D01*
X42938393Y-53886431D01*
X42955134Y-53855110D01*
X42977661Y-53827661D01*
X43005110Y-53805134D01*
X43036431Y-53788393D01*
X43070409Y-53778085D01*
X43111890Y-53774000D01*
X43713110Y-53774000D01*
X43754591Y-53778085D01*
G37*
G36*
X47279591Y-53103085D02*
G01*
X47313569Y-53113393D01*
X47344890Y-53130134D01*
X47372339Y-53152661D01*
X47394866Y-53180110D01*
X47411607Y-53211431D01*
X47421915Y-53245409D01*
X47426000Y-53286890D01*
X47426000Y-53888110D01*
X47421915Y-53929591D01*
X47411607Y-53963569D01*
X47394866Y-53994890D01*
X47372339Y-54022339D01*
X47344890Y-54044866D01*
X47313569Y-54061607D01*
X47279591Y-54071915D01*
X47238110Y-54076000D01*
X46561890Y-54076000D01*
X46520409Y-54071915D01*
X46486431Y-54061607D01*
X46455110Y-54044866D01*
X46427661Y-54022339D01*
X46405134Y-53994890D01*
X46388393Y-53963569D01*
X46378085Y-53929591D01*
X46374000Y-53888110D01*
X46374000Y-53286890D01*
X46378085Y-53245409D01*
X46388393Y-53211431D01*
X46405134Y-53180110D01*
X46427661Y-53152661D01*
X46455110Y-53130134D01*
X46486431Y-53113393D01*
X46520409Y-53103085D01*
X46561890Y-53099000D01*
X47238110Y-53099000D01*
X47279591Y-53103085D01*
G37*
G36*
X33917091Y-52978085D02*
G01*
X33951069Y-52988393D01*
X33982390Y-53005134D01*
X34009839Y-53027661D01*
X34032366Y-53055110D01*
X34049107Y-53086431D01*
X34059415Y-53120409D01*
X34063500Y-53161890D01*
X34063500Y-53838110D01*
X34059415Y-53879591D01*
X34049107Y-53913569D01*
X34032366Y-53944890D01*
X34009839Y-53972339D01*
X33982390Y-53994866D01*
X33951069Y-54011607D01*
X33917091Y-54021915D01*
X33875610Y-54026000D01*
X33274390Y-54026000D01*
X33232909Y-54021915D01*
X33198931Y-54011607D01*
X33167610Y-53994866D01*
X33140161Y-53972339D01*
X33117634Y-53944890D01*
X33100893Y-53913569D01*
X33090585Y-53879591D01*
X33086500Y-53838110D01*
X33086500Y-53161890D01*
X33090585Y-53120409D01*
X33100893Y-53086431D01*
X33117634Y-53055110D01*
X33140161Y-53027661D01*
X33167610Y-53005134D01*
X33198931Y-52988393D01*
X33232909Y-52978085D01*
X33274390Y-52974000D01*
X33875610Y-52974000D01*
X33917091Y-52978085D01*
G37*
G36*
X32342091Y-52978085D02*
G01*
X32376069Y-52988393D01*
X32407390Y-53005134D01*
X32434839Y-53027661D01*
X32457366Y-53055110D01*
X32474107Y-53086431D01*
X32484415Y-53120409D01*
X32488500Y-53161890D01*
X32488500Y-53838110D01*
X32484415Y-53879591D01*
X32474107Y-53913569D01*
X32457366Y-53944890D01*
X32434839Y-53972339D01*
X32407390Y-53994866D01*
X32376069Y-54011607D01*
X32342091Y-54021915D01*
X32300610Y-54026000D01*
X31699390Y-54026000D01*
X31657909Y-54021915D01*
X31623931Y-54011607D01*
X31592610Y-53994866D01*
X31565161Y-53972339D01*
X31542634Y-53944890D01*
X31525893Y-53913569D01*
X31515585Y-53879591D01*
X31511500Y-53838110D01*
X31511500Y-53161890D01*
X31515585Y-53120409D01*
X31525893Y-53086431D01*
X31542634Y-53055110D01*
X31565161Y-53027661D01*
X31592610Y-53005134D01*
X31623931Y-52988393D01*
X31657909Y-52978085D01*
X31699390Y-52974000D01*
X32300610Y-52974000D01*
X32342091Y-52978085D01*
G37*
G36*
X16829591Y-52340585D02*
G01*
X16863569Y-52350893D01*
X16894890Y-52367634D01*
X16922339Y-52390161D01*
X16944866Y-52417610D01*
X16961607Y-52448931D01*
X16971915Y-52482909D01*
X16976000Y-52524390D01*
X16976000Y-53125610D01*
X16971915Y-53167091D01*
X16961607Y-53201069D01*
X16944866Y-53232390D01*
X16922339Y-53259839D01*
X16894890Y-53282366D01*
X16863569Y-53299107D01*
X16829591Y-53309415D01*
X16788110Y-53313500D01*
X16111890Y-53313500D01*
X16070409Y-53309415D01*
X16036431Y-53299107D01*
X16005110Y-53282366D01*
X15977661Y-53259839D01*
X15955134Y-53232390D01*
X15938393Y-53201069D01*
X15928085Y-53167091D01*
X15924000Y-53125610D01*
X15924000Y-52524390D01*
X15928085Y-52482909D01*
X15938393Y-52448931D01*
X15955134Y-52417610D01*
X15977661Y-52390161D01*
X16005110Y-52367634D01*
X16036431Y-52350893D01*
X16070409Y-52340585D01*
X16111890Y-52336500D01*
X16788110Y-52336500D01*
X16829591Y-52340585D01*
G37*
G36*
X19829591Y-52340585D02*
G01*
X19863569Y-52350893D01*
X19894890Y-52367634D01*
X19922339Y-52390161D01*
X19944866Y-52417610D01*
X19961607Y-52448931D01*
X19971915Y-52482909D01*
X19976000Y-52524390D01*
X19976000Y-53125610D01*
X19971915Y-53167091D01*
X19961607Y-53201069D01*
X19944866Y-53232390D01*
X19922339Y-53259839D01*
X19894890Y-53282366D01*
X19863569Y-53299107D01*
X19829591Y-53309415D01*
X19788110Y-53313500D01*
X19111890Y-53313500D01*
X19070409Y-53309415D01*
X19036431Y-53299107D01*
X19005110Y-53282366D01*
X18977661Y-53259839D01*
X18955134Y-53232390D01*
X18938393Y-53201069D01*
X18928085Y-53167091D01*
X18924000Y-53125610D01*
X18924000Y-52524390D01*
X18928085Y-52482909D01*
X18938393Y-52448931D01*
X18955134Y-52417610D01*
X18977661Y-52390161D01*
X19005110Y-52367634D01*
X19036431Y-52350893D01*
X19070409Y-52340585D01*
X19111890Y-52336500D01*
X19788110Y-52336500D01*
X19829591Y-52340585D01*
G37*
G36*
X18329591Y-52340585D02*
G01*
X18363569Y-52350893D01*
X18394890Y-52367634D01*
X18422339Y-52390161D01*
X18444866Y-52417610D01*
X18461607Y-52448931D01*
X18471915Y-52482909D01*
X18476000Y-52524390D01*
X18476000Y-53125610D01*
X18471915Y-53167091D01*
X18461607Y-53201069D01*
X18444866Y-53232390D01*
X18422339Y-53259839D01*
X18394890Y-53282366D01*
X18363569Y-53299107D01*
X18329591Y-53309415D01*
X18288110Y-53313500D01*
X17611890Y-53313500D01*
X17570409Y-53309415D01*
X17536431Y-53299107D01*
X17505110Y-53282366D01*
X17477661Y-53259839D01*
X17455134Y-53232390D01*
X17438393Y-53201069D01*
X17428085Y-53167091D01*
X17424000Y-53125610D01*
X17424000Y-52524390D01*
X17428085Y-52482909D01*
X17438393Y-52448931D01*
X17455134Y-52417610D01*
X17477661Y-52390161D01*
X17505110Y-52367634D01*
X17536431Y-52350893D01*
X17570409Y-52340585D01*
X17611890Y-52336500D01*
X18288110Y-52336500D01*
X18329591Y-52340585D01*
G37*
G36*
X43851000Y-53201000D02*
G01*
X43149000Y-53201000D01*
X43149000Y-52399000D01*
X43851000Y-52399000D01*
X43851000Y-53201000D01*
G37*
G36*
X45251000Y-53201000D02*
G01*
X44549000Y-53201000D01*
X44549000Y-52399000D01*
X45251000Y-52399000D01*
X45251000Y-53201000D01*
G37*
G36*
X47279591Y-51528085D02*
G01*
X47313569Y-51538393D01*
X47344890Y-51555134D01*
X47372339Y-51577661D01*
X47394866Y-51605110D01*
X47411607Y-51636431D01*
X47421915Y-51670409D01*
X47426000Y-51711890D01*
X47426000Y-52313110D01*
X47421915Y-52354591D01*
X47411607Y-52388569D01*
X47394866Y-52419890D01*
X47372339Y-52447339D01*
X47344890Y-52469866D01*
X47313569Y-52486607D01*
X47279591Y-52496915D01*
X47238110Y-52501000D01*
X46561890Y-52501000D01*
X46520409Y-52496915D01*
X46486431Y-52486607D01*
X46455110Y-52469866D01*
X46427661Y-52447339D01*
X46405134Y-52419890D01*
X46388393Y-52388569D01*
X46378085Y-52354591D01*
X46374000Y-52313110D01*
X46374000Y-51711890D01*
X46378085Y-51670409D01*
X46388393Y-51636431D01*
X46405134Y-51605110D01*
X46427661Y-51577661D01*
X46455110Y-51555134D01*
X46486431Y-51538393D01*
X46520409Y-51528085D01*
X46561890Y-51524000D01*
X47238110Y-51524000D01*
X47279591Y-51528085D01*
G37*
G36*
X32354591Y-51378085D02*
G01*
X32388569Y-51388393D01*
X32419890Y-51405134D01*
X32447339Y-51427661D01*
X32469866Y-51455110D01*
X32486607Y-51486431D01*
X32496915Y-51520409D01*
X32501000Y-51561890D01*
X32501000Y-52238110D01*
X32496915Y-52279591D01*
X32486607Y-52313569D01*
X32469866Y-52344890D01*
X32447339Y-52372339D01*
X32419890Y-52394866D01*
X32388569Y-52411607D01*
X32354591Y-52421915D01*
X32313110Y-52426000D01*
X31711890Y-52426000D01*
X31670409Y-52421915D01*
X31636431Y-52411607D01*
X31605110Y-52394866D01*
X31577661Y-52372339D01*
X31555134Y-52344890D01*
X31538393Y-52313569D01*
X31528085Y-52279591D01*
X31524000Y-52238110D01*
X31524000Y-51561890D01*
X31528085Y-51520409D01*
X31538393Y-51486431D01*
X31555134Y-51455110D01*
X31577661Y-51427661D01*
X31605110Y-51405134D01*
X31636431Y-51388393D01*
X31670409Y-51378085D01*
X31711890Y-51374000D01*
X32313110Y-51374000D01*
X32354591Y-51378085D01*
G37*
G36*
X33929591Y-51378085D02*
G01*
X33963569Y-51388393D01*
X33994890Y-51405134D01*
X34022339Y-51427661D01*
X34044866Y-51455110D01*
X34061607Y-51486431D01*
X34071915Y-51520409D01*
X34076000Y-51561890D01*
X34076000Y-52238110D01*
X34071915Y-52279591D01*
X34061607Y-52313569D01*
X34044866Y-52344890D01*
X34022339Y-52372339D01*
X33994890Y-52394866D01*
X33963569Y-52411607D01*
X33929591Y-52421915D01*
X33888110Y-52426000D01*
X33286890Y-52426000D01*
X33245409Y-52421915D01*
X33211431Y-52411607D01*
X33180110Y-52394866D01*
X33152661Y-52372339D01*
X33130134Y-52344890D01*
X33113393Y-52313569D01*
X33103085Y-52279591D01*
X33099000Y-52238110D01*
X33099000Y-51561890D01*
X33103085Y-51520409D01*
X33113393Y-51486431D01*
X33130134Y-51455110D01*
X33152661Y-51427661D01*
X33180110Y-51405134D01*
X33211431Y-51388393D01*
X33245409Y-51378085D01*
X33286890Y-51374000D01*
X33888110Y-51374000D01*
X33929591Y-51378085D01*
G37*
G36*
X11001000Y-52301000D02*
G01*
X9399000Y-52301000D01*
X9399000Y-50699000D01*
X11001000Y-50699000D01*
X11001000Y-52301000D01*
G37*
G36*
X3201000Y-52301000D02*
G01*
X1599000Y-52301000D01*
X1599000Y-50699000D01*
X3201000Y-50699000D01*
X3201000Y-52301000D01*
G37*
G36*
X45246000Y-50551000D02*
G01*
X44244000Y-50551000D01*
X44244000Y-48449000D01*
X45246000Y-48449000D01*
X45246000Y-50551000D01*
G37*
G36*
X35086000Y-50551000D02*
G01*
X34084000Y-50551000D01*
X34084000Y-48449000D01*
X35086000Y-48449000D01*
X35086000Y-50551000D01*
G37*
G36*
X33816000Y-50551000D02*
G01*
X32814000Y-50551000D01*
X32814000Y-48449000D01*
X33816000Y-48449000D01*
X33816000Y-50551000D01*
G37*
G36*
X32546000Y-50551000D02*
G01*
X31544000Y-50551000D01*
X31544000Y-48449000D01*
X32546000Y-48449000D01*
X32546000Y-50551000D01*
G37*
G36*
X42706000Y-50551000D02*
G01*
X41704000Y-50551000D01*
X41704000Y-48449000D01*
X42706000Y-48449000D01*
X42706000Y-50551000D01*
G37*
G36*
X43976000Y-50551000D02*
G01*
X42974000Y-50551000D01*
X42974000Y-48449000D01*
X43976000Y-48449000D01*
X43976000Y-50551000D01*
G37*
G36*
X41436000Y-50551000D02*
G01*
X40434000Y-50551000D01*
X40434000Y-48449000D01*
X41436000Y-48449000D01*
X41436000Y-50551000D01*
G37*
G36*
X40166000Y-50551000D02*
G01*
X39164000Y-50551000D01*
X39164000Y-48449000D01*
X40166000Y-48449000D01*
X40166000Y-50551000D01*
G37*
G36*
X37626000Y-50551000D02*
G01*
X36624000Y-50551000D01*
X36624000Y-48449000D01*
X37626000Y-48449000D01*
X37626000Y-50551000D01*
G37*
G36*
X49056000Y-50551000D02*
G01*
X48054000Y-50551000D01*
X48054000Y-48449000D01*
X49056000Y-48449000D01*
X49056000Y-50551000D01*
G37*
G36*
X47786000Y-50551000D02*
G01*
X46784000Y-50551000D01*
X46784000Y-48449000D01*
X47786000Y-48449000D01*
X47786000Y-50551000D01*
G37*
G36*
X46516000Y-50551000D02*
G01*
X45514000Y-50551000D01*
X45514000Y-48449000D01*
X46516000Y-48449000D01*
X46516000Y-50551000D01*
G37*
G36*
X38896000Y-50551000D02*
G01*
X37894000Y-50551000D01*
X37894000Y-48449000D01*
X38896000Y-48449000D01*
X38896000Y-50551000D01*
G37*
G36*
X36356000Y-50551000D02*
G01*
X35354000Y-50551000D01*
X35354000Y-48449000D01*
X36356000Y-48449000D01*
X36356000Y-50551000D01*
G37*
G36*
X18629591Y-48678085D02*
G01*
X18663569Y-48688393D01*
X18694890Y-48705134D01*
X18722339Y-48727661D01*
X18744866Y-48755110D01*
X18761607Y-48786431D01*
X18771915Y-48820409D01*
X18776000Y-48861890D01*
X18776000Y-49538110D01*
X18771915Y-49579591D01*
X18761607Y-49613569D01*
X18744866Y-49644890D01*
X18722339Y-49672339D01*
X18694890Y-49694866D01*
X18663569Y-49711607D01*
X18629591Y-49721915D01*
X18588110Y-49726000D01*
X17986890Y-49726000D01*
X17945409Y-49721915D01*
X17911431Y-49711607D01*
X17880110Y-49694866D01*
X17852661Y-49672339D01*
X17830134Y-49644890D01*
X17813393Y-49613569D01*
X17803085Y-49579591D01*
X17799000Y-49538110D01*
X17799000Y-48861890D01*
X17803085Y-48820409D01*
X17813393Y-48786431D01*
X17830134Y-48755110D01*
X17852661Y-48727661D01*
X17880110Y-48705134D01*
X17911431Y-48688393D01*
X17945409Y-48678085D01*
X17986890Y-48674000D01*
X18588110Y-48674000D01*
X18629591Y-48678085D01*
G37*
G36*
X17054591Y-48678085D02*
G01*
X17088569Y-48688393D01*
X17119890Y-48705134D01*
X17147339Y-48727661D01*
X17169866Y-48755110D01*
X17186607Y-48786431D01*
X17196915Y-48820409D01*
X17201000Y-48861890D01*
X17201000Y-49538110D01*
X17196915Y-49579591D01*
X17186607Y-49613569D01*
X17169866Y-49644890D01*
X17147339Y-49672339D01*
X17119890Y-49694866D01*
X17088569Y-49711607D01*
X17054591Y-49721915D01*
X17013110Y-49726000D01*
X16411890Y-49726000D01*
X16370409Y-49721915D01*
X16336431Y-49711607D01*
X16305110Y-49694866D01*
X16277661Y-49672339D01*
X16255134Y-49644890D01*
X16238393Y-49613569D01*
X16228085Y-49579591D01*
X16224000Y-49538110D01*
X16224000Y-48861890D01*
X16228085Y-48820409D01*
X16238393Y-48786431D01*
X16255134Y-48755110D01*
X16277661Y-48727661D01*
X16305110Y-48705134D01*
X16336431Y-48688393D01*
X16370409Y-48678085D01*
X16411890Y-48674000D01*
X17013110Y-48674000D01*
X17054591Y-48678085D01*
G37*
G36*
X9567091Y-48078085D02*
G01*
X9601069Y-48088393D01*
X9632390Y-48105134D01*
X9659839Y-48127661D01*
X9682366Y-48155110D01*
X9699107Y-48186431D01*
X9709415Y-48220409D01*
X9713500Y-48261890D01*
X9713500Y-48938110D01*
X9709415Y-48979591D01*
X9699107Y-49013569D01*
X9682366Y-49044890D01*
X9659839Y-49072339D01*
X9632390Y-49094866D01*
X9601069Y-49111607D01*
X9567091Y-49121915D01*
X9525610Y-49126000D01*
X8924390Y-49126000D01*
X8882909Y-49121915D01*
X8848931Y-49111607D01*
X8817610Y-49094866D01*
X8790161Y-49072339D01*
X8767634Y-49044890D01*
X8750893Y-49013569D01*
X8740585Y-48979591D01*
X8736500Y-48938110D01*
X8736500Y-48261890D01*
X8740585Y-48220409D01*
X8750893Y-48186431D01*
X8767634Y-48155110D01*
X8790161Y-48127661D01*
X8817610Y-48105134D01*
X8848931Y-48088393D01*
X8882909Y-48078085D01*
X8924390Y-48074000D01*
X9525610Y-48074000D01*
X9567091Y-48078085D01*
G37*
G36*
X11142091Y-48078085D02*
G01*
X11176069Y-48088393D01*
X11207390Y-48105134D01*
X11234839Y-48127661D01*
X11257366Y-48155110D01*
X11274107Y-48186431D01*
X11284415Y-48220409D01*
X11288500Y-48261890D01*
X11288500Y-48938110D01*
X11284415Y-48979591D01*
X11274107Y-49013569D01*
X11257366Y-49044890D01*
X11234839Y-49072339D01*
X11207390Y-49094866D01*
X11176069Y-49111607D01*
X11142091Y-49121915D01*
X11100610Y-49126000D01*
X10499390Y-49126000D01*
X10457909Y-49121915D01*
X10423931Y-49111607D01*
X10392610Y-49094866D01*
X10365161Y-49072339D01*
X10342634Y-49044890D01*
X10325893Y-49013569D01*
X10315585Y-48979591D01*
X10311500Y-48938110D01*
X10311500Y-48261890D01*
X10315585Y-48220409D01*
X10325893Y-48186431D01*
X10342634Y-48155110D01*
X10365161Y-48127661D01*
X10392610Y-48105134D01*
X10423931Y-48088393D01*
X10457909Y-48078085D01*
X10499390Y-48074000D01*
X11100610Y-48074000D01*
X11142091Y-48078085D01*
G37*
G36*
X21055355Y-43700083D02*
G01*
X21060029Y-43701501D01*
X21064330Y-43703800D01*
X21070702Y-43709029D01*
X21091076Y-43722643D01*
X21113715Y-43732020D01*
X21137749Y-43736800D01*
X21162253Y-43736800D01*
X21186286Y-43732019D01*
X21208925Y-43722642D01*
X21229298Y-43709029D01*
X21235670Y-43703800D01*
X21239971Y-43701501D01*
X21244645Y-43700083D01*
X21255641Y-43699000D01*
X21544359Y-43699000D01*
X21555355Y-43700083D01*
X21560029Y-43701501D01*
X21564330Y-43703800D01*
X21570702Y-43709029D01*
X21591076Y-43722643D01*
X21613715Y-43732020D01*
X21637749Y-43736800D01*
X21662253Y-43736800D01*
X21686286Y-43732019D01*
X21708925Y-43722642D01*
X21729298Y-43709029D01*
X21735670Y-43703800D01*
X21739971Y-43701501D01*
X21744645Y-43700083D01*
X21755641Y-43699000D01*
X22044359Y-43699000D01*
X22055355Y-43700083D01*
X22060029Y-43701501D01*
X22064330Y-43703800D01*
X22070702Y-43709029D01*
X22091076Y-43722643D01*
X22113715Y-43732020D01*
X22137749Y-43736800D01*
X22162253Y-43736800D01*
X22186286Y-43732019D01*
X22208925Y-43722642D01*
X22229298Y-43709029D01*
X22235670Y-43703800D01*
X22239971Y-43701501D01*
X22244645Y-43700083D01*
X22255641Y-43699000D01*
X22544359Y-43699000D01*
X22555355Y-43700083D01*
X22560029Y-43701501D01*
X22564330Y-43703800D01*
X22570702Y-43709029D01*
X22591076Y-43722643D01*
X22613715Y-43732020D01*
X22637749Y-43736800D01*
X22662253Y-43736800D01*
X22686286Y-43732019D01*
X22708925Y-43722642D01*
X22729298Y-43709029D01*
X22735670Y-43703800D01*
X22739971Y-43701501D01*
X22744645Y-43700083D01*
X22755641Y-43699000D01*
X23044359Y-43699000D01*
X23055355Y-43700083D01*
X23060029Y-43701501D01*
X23064331Y-43703800D01*
X23068104Y-43706896D01*
X23071200Y-43710669D01*
X23073499Y-43714971D01*
X23074917Y-43719645D01*
X23076000Y-43730641D01*
X23076000Y-44594359D01*
X23074917Y-44605355D01*
X23073499Y-44610029D01*
X23071202Y-44614327D01*
X23064560Y-44622420D01*
X23050946Y-44642795D01*
X23041569Y-44665433D01*
X23036788Y-44689467D01*
X23036788Y-44713971D01*
X23041568Y-44738004D01*
X23050945Y-44760643D01*
X23064559Y-44781018D01*
X23081885Y-44798345D01*
X23102259Y-44811958D01*
X23129464Y-44826500D01*
X23153651Y-44846349D01*
X23173500Y-44870536D01*
X23188042Y-44897741D01*
X23201656Y-44918115D01*
X23218983Y-44935442D01*
X23239358Y-44949055D01*
X23261997Y-44958432D01*
X23286030Y-44963212D01*
X23310534Y-44963212D01*
X23334568Y-44958431D01*
X23357206Y-44949053D01*
X23377580Y-44935440D01*
X23385673Y-44928798D01*
X23389971Y-44926501D01*
X23394645Y-44925083D01*
X23405641Y-44924000D01*
X24269359Y-44924000D01*
X24280355Y-44925083D01*
X24285029Y-44926501D01*
X24289331Y-44928800D01*
X24293104Y-44931896D01*
X24296200Y-44935669D01*
X24298499Y-44939971D01*
X24299917Y-44944645D01*
X24301000Y-44955641D01*
X24301000Y-45244359D01*
X24299917Y-45255355D01*
X24298499Y-45260029D01*
X24296200Y-45264330D01*
X24290971Y-45270702D01*
X24277357Y-45291076D01*
X24267980Y-45313715D01*
X24263200Y-45337749D01*
X24263200Y-45362253D01*
X24267981Y-45386286D01*
X24277358Y-45408925D01*
X24290971Y-45429298D01*
X24296200Y-45435670D01*
X24298499Y-45439971D01*
X24299917Y-45444645D01*
X24301000Y-45455641D01*
X24301000Y-45744359D01*
X24299917Y-45755355D01*
X24298499Y-45760029D01*
X24296200Y-45764330D01*
X24290971Y-45770702D01*
X24277357Y-45791076D01*
X24267980Y-45813715D01*
X24263200Y-45837749D01*
X24263200Y-45862253D01*
X24267981Y-45886286D01*
X24277358Y-45908925D01*
X24290971Y-45929298D01*
X24296200Y-45935670D01*
X24298499Y-45939971D01*
X24299917Y-45944645D01*
X24301000Y-45955641D01*
X24301000Y-46244359D01*
X24299917Y-46255355D01*
X24298499Y-46260029D01*
X24296200Y-46264330D01*
X24290971Y-46270702D01*
X24277357Y-46291076D01*
X24267980Y-46313715D01*
X24263200Y-46337749D01*
X24263200Y-46362253D01*
X24267981Y-46386286D01*
X24277358Y-46408925D01*
X24290971Y-46429298D01*
X24296200Y-46435670D01*
X24298499Y-46439971D01*
X24299917Y-46444645D01*
X24301000Y-46455641D01*
X24301000Y-46744359D01*
X24299917Y-46755355D01*
X24298499Y-46760029D01*
X24296200Y-46764330D01*
X24290971Y-46770702D01*
X24277357Y-46791076D01*
X24267980Y-46813715D01*
X24263200Y-46837749D01*
X24263200Y-46862253D01*
X24267981Y-46886286D01*
X24277358Y-46908925D01*
X24290971Y-46929298D01*
X24296200Y-46935670D01*
X24298499Y-46939971D01*
X24299917Y-46944645D01*
X24301000Y-46955641D01*
X24301000Y-47244359D01*
X24299917Y-47255355D01*
X24298499Y-47260029D01*
X24296200Y-47264331D01*
X24293104Y-47268104D01*
X24289331Y-47271200D01*
X24285029Y-47273499D01*
X24280355Y-47274917D01*
X24269359Y-47276000D01*
X23405641Y-47276000D01*
X23394645Y-47274917D01*
X23389971Y-47273499D01*
X23385673Y-47271202D01*
X23377580Y-47264560D01*
X23357205Y-47250946D01*
X23334567Y-47241569D01*
X23310533Y-47236788D01*
X23286029Y-47236788D01*
X23261996Y-47241568D01*
X23239357Y-47250945D01*
X23218982Y-47264559D01*
X23201655Y-47281885D01*
X23188042Y-47302259D01*
X23173500Y-47329464D01*
X23153651Y-47353651D01*
X23129464Y-47373500D01*
X23102259Y-47388042D01*
X23081885Y-47401656D01*
X23064558Y-47418983D01*
X23050945Y-47439358D01*
X23041568Y-47461997D01*
X23036788Y-47486030D01*
X23036788Y-47510534D01*
X23041569Y-47534568D01*
X23050947Y-47557206D01*
X23064560Y-47577580D01*
X23071202Y-47585673D01*
X23073499Y-47589971D01*
X23074917Y-47594645D01*
X23076000Y-47605641D01*
X23076000Y-48469359D01*
X23074917Y-48480355D01*
X23073499Y-48485029D01*
X23071200Y-48489331D01*
X23068104Y-48493104D01*
X23064331Y-48496200D01*
X23060029Y-48498499D01*
X23055355Y-48499917D01*
X23044359Y-48501000D01*
X22755641Y-48501000D01*
X22744645Y-48499917D01*
X22739971Y-48498499D01*
X22735670Y-48496200D01*
X22729298Y-48490971D01*
X22708924Y-48477357D01*
X22686285Y-48467980D01*
X22662251Y-48463200D01*
X22637747Y-48463200D01*
X22613714Y-48467981D01*
X22591075Y-48477358D01*
X22570702Y-48490971D01*
X22564330Y-48496200D01*
X22560029Y-48498499D01*
X22555355Y-48499917D01*
X22544359Y-48501000D01*
X22255641Y-48501000D01*
X22244645Y-48499917D01*
X22239971Y-48498499D01*
X22235670Y-48496200D01*
X22229298Y-48490971D01*
X22208924Y-48477357D01*
X22186285Y-48467980D01*
X22162251Y-48463200D01*
X22137747Y-48463200D01*
X22113714Y-48467981D01*
X22091075Y-48477358D01*
X22070702Y-48490971D01*
X22064330Y-48496200D01*
X22060029Y-48498499D01*
X22055355Y-48499917D01*
X22044359Y-48501000D01*
X21755641Y-48501000D01*
X21744645Y-48499917D01*
X21739971Y-48498499D01*
X21735670Y-48496200D01*
X21729298Y-48490971D01*
X21708924Y-48477357D01*
X21686285Y-48467980D01*
X21662251Y-48463200D01*
X21637747Y-48463200D01*
X21613714Y-48467981D01*
X21591075Y-48477358D01*
X21570702Y-48490971D01*
X21564330Y-48496200D01*
X21560029Y-48498499D01*
X21555355Y-48499917D01*
X21544359Y-48501000D01*
X21255641Y-48501000D01*
X21244645Y-48499917D01*
X21239971Y-48498499D01*
X21235670Y-48496200D01*
X21229298Y-48490971D01*
X21208924Y-48477357D01*
X21186285Y-48467980D01*
X21162251Y-48463200D01*
X21137747Y-48463200D01*
X21113714Y-48467981D01*
X21091075Y-48477358D01*
X21070702Y-48490971D01*
X21064330Y-48496200D01*
X21060029Y-48498499D01*
X21055355Y-48499917D01*
X21044359Y-48501000D01*
X20755641Y-48501000D01*
X20744645Y-48499917D01*
X20739971Y-48498499D01*
X20735669Y-48496200D01*
X20731896Y-48493104D01*
X20728800Y-48489331D01*
X20726501Y-48485029D01*
X20725083Y-48480355D01*
X20724000Y-48469359D01*
X20724000Y-47605641D01*
X20725083Y-47594645D01*
X20726501Y-47589971D01*
X20728798Y-47585673D01*
X20735440Y-47577580D01*
X20749054Y-47557205D01*
X20758431Y-47534567D01*
X20763212Y-47510533D01*
X20763212Y-47486029D01*
X20758432Y-47461996D01*
X20749055Y-47439357D01*
X20735441Y-47418982D01*
X20718115Y-47401655D01*
X20697741Y-47388042D01*
X20670536Y-47373500D01*
X20646349Y-47353651D01*
X20626500Y-47329464D01*
X20611958Y-47302259D01*
X20598344Y-47281885D01*
X20581017Y-47264558D01*
X20560642Y-47250945D01*
X20538003Y-47241568D01*
X20513970Y-47236788D01*
X20489466Y-47236788D01*
X20465432Y-47241569D01*
X20442794Y-47250947D01*
X20422420Y-47264560D01*
X20414327Y-47271202D01*
X20410029Y-47273499D01*
X20405355Y-47274917D01*
X20394359Y-47276000D01*
X19530641Y-47276000D01*
X19519645Y-47274917D01*
X19514971Y-47273499D01*
X19510669Y-47271200D01*
X19506896Y-47268104D01*
X19503800Y-47264331D01*
X19501501Y-47260029D01*
X19500083Y-47255355D01*
X19499000Y-47244359D01*
X19499000Y-46955641D01*
X19500083Y-46944645D01*
X19501501Y-46939971D01*
X19503800Y-46935670D01*
X19509029Y-46929298D01*
X19522643Y-46908924D01*
X19532020Y-46886285D01*
X19536800Y-46862251D01*
X19536800Y-46837747D01*
X19532019Y-46813714D01*
X19522642Y-46791075D01*
X19509029Y-46770702D01*
X19503800Y-46764330D01*
X19501501Y-46760029D01*
X19500083Y-46755355D01*
X19499000Y-46744359D01*
X19499000Y-46455641D01*
X19500083Y-46444645D01*
X19501501Y-46439971D01*
X19503800Y-46435670D01*
X19509029Y-46429298D01*
X19522643Y-46408924D01*
X19532020Y-46386285D01*
X19536800Y-46362251D01*
X19536800Y-46337747D01*
X19532019Y-46313714D01*
X19522642Y-46291075D01*
X19509029Y-46270702D01*
X19503800Y-46264330D01*
X19501501Y-46260029D01*
X19500083Y-46255355D01*
X19499000Y-46244359D01*
X19499000Y-45955641D01*
X19500083Y-45944645D01*
X19501501Y-45939971D01*
X19503800Y-45935670D01*
X19509029Y-45929298D01*
X19522643Y-45908924D01*
X19532020Y-45886285D01*
X19536800Y-45862251D01*
X19536800Y-45837747D01*
X19532019Y-45813714D01*
X19522642Y-45791075D01*
X19509029Y-45770702D01*
X19503800Y-45764330D01*
X19501501Y-45760029D01*
X19500083Y-45755355D01*
X19499000Y-45744359D01*
X19499000Y-45455641D01*
X19500083Y-45444645D01*
X19501501Y-45439971D01*
X19503800Y-45435670D01*
X19509029Y-45429298D01*
X19522643Y-45408924D01*
X19532020Y-45386285D01*
X19536800Y-45362251D01*
X19536800Y-45337747D01*
X19532019Y-45313714D01*
X19522642Y-45291075D01*
X19509029Y-45270702D01*
X19503800Y-45264330D01*
X19501501Y-45260029D01*
X19500083Y-45255355D01*
X19499000Y-45244359D01*
X19499000Y-44955641D01*
X19500083Y-44944645D01*
X19501501Y-44939971D01*
X19503800Y-44935669D01*
X19506896Y-44931896D01*
X19510669Y-44928800D01*
X19514971Y-44926501D01*
X19519645Y-44925083D01*
X19530641Y-44924000D01*
X20394359Y-44924000D01*
X20405355Y-44925083D01*
X20410029Y-44926501D01*
X20414327Y-44928798D01*
X20422420Y-44935440D01*
X20442795Y-44949054D01*
X20465433Y-44958431D01*
X20489467Y-44963212D01*
X20513971Y-44963212D01*
X20538004Y-44958432D01*
X20560643Y-44949055D01*
X20581018Y-44935441D01*
X20598345Y-44918115D01*
X20611958Y-44897741D01*
X20626500Y-44870536D01*
X20646349Y-44846349D01*
X20670536Y-44826500D01*
X20697741Y-44811958D01*
X20718115Y-44798344D01*
X20735442Y-44781017D01*
X20749055Y-44760642D01*
X20758432Y-44738003D01*
X20763212Y-44713970D01*
X20763212Y-44689466D01*
X20758431Y-44665432D01*
X20749053Y-44642794D01*
X20735440Y-44622420D01*
X20728798Y-44614327D01*
X20726501Y-44610029D01*
X20725083Y-44605355D01*
X20724000Y-44594359D01*
X20724000Y-43730641D01*
X20725083Y-43719645D01*
X20726501Y-43714971D01*
X20728800Y-43710669D01*
X20731896Y-43706896D01*
X20735669Y-43703800D01*
X20739971Y-43701501D01*
X20744645Y-43700083D01*
X20755641Y-43699000D01*
X21044359Y-43699000D01*
X21055355Y-43700083D01*
G37*
G36*
X17042091Y-47178085D02*
G01*
X17076069Y-47188393D01*
X17107390Y-47205134D01*
X17134839Y-47227661D01*
X17157366Y-47255110D01*
X17174107Y-47286431D01*
X17184415Y-47320409D01*
X17188500Y-47361890D01*
X17188500Y-48038110D01*
X17184415Y-48079591D01*
X17174107Y-48113569D01*
X17157366Y-48144890D01*
X17134839Y-48172339D01*
X17107390Y-48194866D01*
X17076069Y-48211607D01*
X17042091Y-48221915D01*
X17000610Y-48226000D01*
X16399390Y-48226000D01*
X16357909Y-48221915D01*
X16323931Y-48211607D01*
X16292610Y-48194866D01*
X16265161Y-48172339D01*
X16242634Y-48144890D01*
X16225893Y-48113569D01*
X16215585Y-48079591D01*
X16211500Y-48038110D01*
X16211500Y-47361890D01*
X16215585Y-47320409D01*
X16225893Y-47286431D01*
X16242634Y-47255110D01*
X16265161Y-47227661D01*
X16292610Y-47205134D01*
X16323931Y-47188393D01*
X16357909Y-47178085D01*
X16399390Y-47174000D01*
X17000610Y-47174000D01*
X17042091Y-47178085D01*
G37*
G36*
X18617091Y-47178085D02*
G01*
X18651069Y-47188393D01*
X18682390Y-47205134D01*
X18709839Y-47227661D01*
X18732366Y-47255110D01*
X18749107Y-47286431D01*
X18759415Y-47320409D01*
X18763500Y-47361890D01*
X18763500Y-48038110D01*
X18759415Y-48079591D01*
X18749107Y-48113569D01*
X18732366Y-48144890D01*
X18709839Y-48172339D01*
X18682390Y-48194866D01*
X18651069Y-48211607D01*
X18617091Y-48221915D01*
X18575610Y-48226000D01*
X17974390Y-48226000D01*
X17932909Y-48221915D01*
X17898931Y-48211607D01*
X17867610Y-48194866D01*
X17840161Y-48172339D01*
X17817634Y-48144890D01*
X17800893Y-48113569D01*
X17790585Y-48079591D01*
X17786500Y-48038110D01*
X17786500Y-47361890D01*
X17790585Y-47320409D01*
X17800893Y-47286431D01*
X17817634Y-47255110D01*
X17840161Y-47227661D01*
X17867610Y-47205134D01*
X17898931Y-47188393D01*
X17932909Y-47178085D01*
X17974390Y-47174000D01*
X18575610Y-47174000D01*
X18617091Y-47178085D01*
G37*
G36*
X27417091Y-47078085D02*
G01*
X27451069Y-47088393D01*
X27482390Y-47105134D01*
X27509839Y-47127661D01*
X27532366Y-47155110D01*
X27549107Y-47186431D01*
X27559415Y-47220409D01*
X27563500Y-47261890D01*
X27563500Y-47938110D01*
X27559415Y-47979591D01*
X27549107Y-48013569D01*
X27532366Y-48044890D01*
X27509839Y-48072339D01*
X27482390Y-48094866D01*
X27451069Y-48111607D01*
X27417091Y-48121915D01*
X27375610Y-48126000D01*
X26774390Y-48126000D01*
X26732909Y-48121915D01*
X26698931Y-48111607D01*
X26667610Y-48094866D01*
X26640161Y-48072339D01*
X26617634Y-48044890D01*
X26600893Y-48013569D01*
X26590585Y-47979591D01*
X26586500Y-47938110D01*
X26586500Y-47261890D01*
X26590585Y-47220409D01*
X26600893Y-47186431D01*
X26617634Y-47155110D01*
X26640161Y-47127661D01*
X26667610Y-47105134D01*
X26698931Y-47088393D01*
X26732909Y-47078085D01*
X26774390Y-47074000D01*
X27375610Y-47074000D01*
X27417091Y-47078085D01*
G37*
G36*
X25842091Y-47078085D02*
G01*
X25876069Y-47088393D01*
X25907390Y-47105134D01*
X25934839Y-47127661D01*
X25957366Y-47155110D01*
X25974107Y-47186431D01*
X25984415Y-47220409D01*
X25988500Y-47261890D01*
X25988500Y-47938110D01*
X25984415Y-47979591D01*
X25974107Y-48013569D01*
X25957366Y-48044890D01*
X25934839Y-48072339D01*
X25907390Y-48094866D01*
X25876069Y-48111607D01*
X25842091Y-48121915D01*
X25800610Y-48126000D01*
X25199390Y-48126000D01*
X25157909Y-48121915D01*
X25123931Y-48111607D01*
X25092610Y-48094866D01*
X25065161Y-48072339D01*
X25042634Y-48044890D01*
X25025893Y-48013569D01*
X25015585Y-47979591D01*
X25011500Y-47938110D01*
X25011500Y-47261890D01*
X25015585Y-47220409D01*
X25025893Y-47186431D01*
X25042634Y-47155110D01*
X25065161Y-47127661D01*
X25092610Y-47105134D01*
X25123931Y-47088393D01*
X25157909Y-47078085D01*
X25199390Y-47074000D01*
X25800610Y-47074000D01*
X25842091Y-47078085D01*
G37*
G36*
X11129591Y-46578085D02*
G01*
X11163569Y-46588393D01*
X11194890Y-46605134D01*
X11222339Y-46627661D01*
X11244866Y-46655110D01*
X11261607Y-46686431D01*
X11271915Y-46720409D01*
X11276000Y-46761890D01*
X11276000Y-47438110D01*
X11271915Y-47479591D01*
X11261607Y-47513569D01*
X11244866Y-47544890D01*
X11222339Y-47572339D01*
X11194890Y-47594866D01*
X11163569Y-47611607D01*
X11129591Y-47621915D01*
X11088110Y-47626000D01*
X10486890Y-47626000D01*
X10445409Y-47621915D01*
X10411431Y-47611607D01*
X10380110Y-47594866D01*
X10352661Y-47572339D01*
X10330134Y-47544890D01*
X10313393Y-47513569D01*
X10303085Y-47479591D01*
X10299000Y-47438110D01*
X10299000Y-46761890D01*
X10303085Y-46720409D01*
X10313393Y-46686431D01*
X10330134Y-46655110D01*
X10352661Y-46627661D01*
X10380110Y-46605134D01*
X10411431Y-46588393D01*
X10445409Y-46578085D01*
X10486890Y-46574000D01*
X11088110Y-46574000D01*
X11129591Y-46578085D01*
G37*
G36*
X9554591Y-46578085D02*
G01*
X9588569Y-46588393D01*
X9619890Y-46605134D01*
X9647339Y-46627661D01*
X9669866Y-46655110D01*
X9686607Y-46686431D01*
X9696915Y-46720409D01*
X9701000Y-46761890D01*
X9701000Y-47438110D01*
X9696915Y-47479591D01*
X9686607Y-47513569D01*
X9669866Y-47544890D01*
X9647339Y-47572339D01*
X9619890Y-47594866D01*
X9588569Y-47611607D01*
X9554591Y-47621915D01*
X9513110Y-47626000D01*
X8911890Y-47626000D01*
X8870409Y-47621915D01*
X8836431Y-47611607D01*
X8805110Y-47594866D01*
X8777661Y-47572339D01*
X8755134Y-47544890D01*
X8738393Y-47513569D01*
X8728085Y-47479591D01*
X8724000Y-47438110D01*
X8724000Y-46761890D01*
X8728085Y-46720409D01*
X8738393Y-46686431D01*
X8755134Y-46655110D01*
X8777661Y-46627661D01*
X8805110Y-46605134D01*
X8836431Y-46588393D01*
X8870409Y-46578085D01*
X8911890Y-46574000D01*
X9513110Y-46574000D01*
X9554591Y-46578085D01*
G37*
G36*
X32096000Y-47216000D02*
G01*
X29994000Y-47216000D01*
X29994000Y-46214000D01*
X32096000Y-46214000D01*
X32096000Y-47216000D01*
G37*
G36*
X15001000Y-46901000D02*
G01*
X13199000Y-46901000D01*
X13199000Y-45099000D01*
X15001000Y-45099000D01*
X15001000Y-46901000D01*
G37*
G36*
X17179591Y-45703085D02*
G01*
X17213569Y-45713393D01*
X17244890Y-45730134D01*
X17272339Y-45752661D01*
X17294866Y-45780110D01*
X17311607Y-45811431D01*
X17321915Y-45845409D01*
X17326000Y-45886890D01*
X17326000Y-46488110D01*
X17321915Y-46529591D01*
X17311607Y-46563569D01*
X17294866Y-46594890D01*
X17272339Y-46622339D01*
X17244890Y-46644866D01*
X17213569Y-46661607D01*
X17179591Y-46671915D01*
X17138110Y-46676000D01*
X16461890Y-46676000D01*
X16420409Y-46671915D01*
X16386431Y-46661607D01*
X16355110Y-46644866D01*
X16327661Y-46622339D01*
X16305134Y-46594890D01*
X16288393Y-46563569D01*
X16278085Y-46529591D01*
X16274000Y-46488110D01*
X16274000Y-45886890D01*
X16278085Y-45845409D01*
X16288393Y-45811431D01*
X16305134Y-45780110D01*
X16327661Y-45752661D01*
X16355110Y-45730134D01*
X16386431Y-45713393D01*
X16420409Y-45703085D01*
X16461890Y-45699000D01*
X17138110Y-45699000D01*
X17179591Y-45703085D01*
G37*
G36*
X25842091Y-45578085D02*
G01*
X25876069Y-45588393D01*
X25907390Y-45605134D01*
X25934839Y-45627661D01*
X25957366Y-45655110D01*
X25974107Y-45686431D01*
X25984415Y-45720409D01*
X25988500Y-45761890D01*
X25988500Y-46438110D01*
X25984415Y-46479591D01*
X25974107Y-46513569D01*
X25957366Y-46544890D01*
X25934839Y-46572339D01*
X25907390Y-46594866D01*
X25876069Y-46611607D01*
X25842091Y-46621915D01*
X25800610Y-46626000D01*
X25199390Y-46626000D01*
X25157909Y-46621915D01*
X25123931Y-46611607D01*
X25092610Y-46594866D01*
X25065161Y-46572339D01*
X25042634Y-46544890D01*
X25025893Y-46513569D01*
X25015585Y-46479591D01*
X25011500Y-46438110D01*
X25011500Y-45761890D01*
X25015585Y-45720409D01*
X25025893Y-45686431D01*
X25042634Y-45655110D01*
X25065161Y-45627661D01*
X25092610Y-45605134D01*
X25123931Y-45588393D01*
X25157909Y-45578085D01*
X25199390Y-45574000D01*
X25800610Y-45574000D01*
X25842091Y-45578085D01*
G37*
G36*
X27417091Y-45578085D02*
G01*
X27451069Y-45588393D01*
X27482390Y-45605134D01*
X27509839Y-45627661D01*
X27532366Y-45655110D01*
X27549107Y-45686431D01*
X27559415Y-45720409D01*
X27563500Y-45761890D01*
X27563500Y-46438110D01*
X27559415Y-46479591D01*
X27549107Y-46513569D01*
X27532366Y-46544890D01*
X27509839Y-46572339D01*
X27482390Y-46594866D01*
X27451069Y-46611607D01*
X27417091Y-46621915D01*
X27375610Y-46626000D01*
X26774390Y-46626000D01*
X26732909Y-46621915D01*
X26698931Y-46611607D01*
X26667610Y-46594866D01*
X26640161Y-46572339D01*
X26617634Y-46544890D01*
X26600893Y-46513569D01*
X26590585Y-46479591D01*
X26586500Y-46438110D01*
X26586500Y-45761890D01*
X26590585Y-45720409D01*
X26600893Y-45686431D01*
X26617634Y-45655110D01*
X26640161Y-45627661D01*
X26667610Y-45605134D01*
X26698931Y-45588393D01*
X26732909Y-45578085D01*
X26774390Y-45574000D01*
X27375610Y-45574000D01*
X27417091Y-45578085D01*
G37*
G36*
X18679591Y-45503085D02*
G01*
X18713569Y-45513393D01*
X18744890Y-45530134D01*
X18772339Y-45552661D01*
X18794866Y-45580110D01*
X18811607Y-45611431D01*
X18821915Y-45645409D01*
X18826000Y-45686890D01*
X18826000Y-46288110D01*
X18821915Y-46329591D01*
X18811607Y-46363569D01*
X18794866Y-46394890D01*
X18772339Y-46422339D01*
X18744890Y-46444866D01*
X18713569Y-46461607D01*
X18679591Y-46471915D01*
X18638110Y-46476000D01*
X17961890Y-46476000D01*
X17920409Y-46471915D01*
X17886431Y-46461607D01*
X17855110Y-46444866D01*
X17827661Y-46422339D01*
X17805134Y-46394890D01*
X17788393Y-46363569D01*
X17778085Y-46329591D01*
X17774000Y-46288110D01*
X17774000Y-45686890D01*
X17778085Y-45645409D01*
X17788393Y-45611431D01*
X17805134Y-45580110D01*
X17827661Y-45552661D01*
X17855110Y-45530134D01*
X17886431Y-45513393D01*
X17920409Y-45503085D01*
X17961890Y-45499000D01*
X18638110Y-45499000D01*
X18679591Y-45503085D01*
G37*
G36*
X32096000Y-45946000D02*
G01*
X29994000Y-45946000D01*
X29994000Y-44944000D01*
X32096000Y-44944000D01*
X32096000Y-45946000D01*
G37*
G36*
X25842091Y-44078085D02*
G01*
X25876069Y-44088393D01*
X25907390Y-44105134D01*
X25934839Y-44127661D01*
X25957366Y-44155110D01*
X25974107Y-44186431D01*
X25984415Y-44220409D01*
X25988500Y-44261890D01*
X25988500Y-44938110D01*
X25984415Y-44979591D01*
X25974107Y-45013569D01*
X25957366Y-45044890D01*
X25934839Y-45072339D01*
X25907390Y-45094866D01*
X25876069Y-45111607D01*
X25842091Y-45121915D01*
X25800610Y-45126000D01*
X25199390Y-45126000D01*
X25157909Y-45121915D01*
X25123931Y-45111607D01*
X25092610Y-45094866D01*
X25065161Y-45072339D01*
X25042634Y-45044890D01*
X25025893Y-45013569D01*
X25015585Y-44979591D01*
X25011500Y-44938110D01*
X25011500Y-44261890D01*
X25015585Y-44220409D01*
X25025893Y-44186431D01*
X25042634Y-44155110D01*
X25065161Y-44127661D01*
X25092610Y-44105134D01*
X25123931Y-44088393D01*
X25157909Y-44078085D01*
X25199390Y-44074000D01*
X25800610Y-44074000D01*
X25842091Y-44078085D01*
G37*
G36*
X27417091Y-44078085D02*
G01*
X27451069Y-44088393D01*
X27482390Y-44105134D01*
X27509839Y-44127661D01*
X27532366Y-44155110D01*
X27549107Y-44186431D01*
X27559415Y-44220409D01*
X27563500Y-44261890D01*
X27563500Y-44938110D01*
X27559415Y-44979591D01*
X27549107Y-45013569D01*
X27532366Y-45044890D01*
X27509839Y-45072339D01*
X27482390Y-45094866D01*
X27451069Y-45111607D01*
X27417091Y-45121915D01*
X27375610Y-45126000D01*
X26774390Y-45126000D01*
X26732909Y-45121915D01*
X26698931Y-45111607D01*
X26667610Y-45094866D01*
X26640161Y-45072339D01*
X26617634Y-45044890D01*
X26600893Y-45013569D01*
X26590585Y-44979591D01*
X26586500Y-44938110D01*
X26586500Y-44261890D01*
X26590585Y-44220409D01*
X26600893Y-44186431D01*
X26617634Y-44155110D01*
X26640161Y-44127661D01*
X26667610Y-44105134D01*
X26698931Y-44088393D01*
X26732909Y-44078085D01*
X26774390Y-44074000D01*
X27375610Y-44074000D01*
X27417091Y-44078085D01*
G37*
G36*
X17179591Y-44128085D02*
G01*
X17213569Y-44138393D01*
X17244890Y-44155134D01*
X17272339Y-44177661D01*
X17294866Y-44205110D01*
X17311607Y-44236431D01*
X17321915Y-44270409D01*
X17326000Y-44311890D01*
X17326000Y-44913110D01*
X17321915Y-44954591D01*
X17311607Y-44988569D01*
X17294866Y-45019890D01*
X17272339Y-45047339D01*
X17244890Y-45069866D01*
X17213569Y-45086607D01*
X17179591Y-45096915D01*
X17138110Y-45101000D01*
X16461890Y-45101000D01*
X16420409Y-45096915D01*
X16386431Y-45086607D01*
X16355110Y-45069866D01*
X16327661Y-45047339D01*
X16305134Y-45019890D01*
X16288393Y-44988569D01*
X16278085Y-44954591D01*
X16274000Y-44913110D01*
X16274000Y-44311890D01*
X16278085Y-44270409D01*
X16288393Y-44236431D01*
X16305134Y-44205110D01*
X16327661Y-44177661D01*
X16355110Y-44155134D01*
X16386431Y-44138393D01*
X16420409Y-44128085D01*
X16461890Y-44124000D01*
X17138110Y-44124000D01*
X17179591Y-44128085D01*
G37*
G36*
X18679591Y-43928085D02*
G01*
X18713569Y-43938393D01*
X18744890Y-43955134D01*
X18772339Y-43977661D01*
X18794866Y-44005110D01*
X18811607Y-44036431D01*
X18821915Y-44070409D01*
X18826000Y-44111890D01*
X18826000Y-44713110D01*
X18821915Y-44754591D01*
X18811607Y-44788569D01*
X18794866Y-44819890D01*
X18772339Y-44847339D01*
X18744890Y-44869866D01*
X18713569Y-44886607D01*
X18679591Y-44896915D01*
X18638110Y-44901000D01*
X17961890Y-44901000D01*
X17920409Y-44896915D01*
X17886431Y-44886607D01*
X17855110Y-44869866D01*
X17827661Y-44847339D01*
X17805134Y-44819890D01*
X17788393Y-44788569D01*
X17778085Y-44754591D01*
X17774000Y-44713110D01*
X17774000Y-44111890D01*
X17778085Y-44070409D01*
X17788393Y-44036431D01*
X17805134Y-44005110D01*
X17827661Y-43977661D01*
X17855110Y-43955134D01*
X17886431Y-43938393D01*
X17920409Y-43928085D01*
X17961890Y-43924000D01*
X18638110Y-43924000D01*
X18679591Y-43928085D01*
G37*
G36*
X32096000Y-44676000D02*
G01*
X29994000Y-44676000D01*
X29994000Y-43674000D01*
X32096000Y-43674000D01*
X32096000Y-44676000D01*
G37*
G36*
X14213512Y-42563927D02*
G01*
X14362812Y-42593624D01*
X14526784Y-42661544D01*
X14674354Y-42760147D01*
X14799853Y-42885646D01*
X14898456Y-43033216D01*
X14966376Y-43197188D01*
X15001000Y-43371259D01*
X15001000Y-43548741D01*
X14966376Y-43722812D01*
X14898456Y-43886784D01*
X14799853Y-44034354D01*
X14674354Y-44159853D01*
X14526784Y-44258456D01*
X14362812Y-44326376D01*
X14213512Y-44356073D01*
X14188742Y-44361000D01*
X14011258Y-44361000D01*
X13986488Y-44356073D01*
X13837188Y-44326376D01*
X13673216Y-44258456D01*
X13525646Y-44159853D01*
X13400147Y-44034354D01*
X13301544Y-43886784D01*
X13233624Y-43722812D01*
X13199000Y-43548741D01*
X13199000Y-43371259D01*
X13233624Y-43197188D01*
X13301544Y-43033216D01*
X13400147Y-42885646D01*
X13525646Y-42760147D01*
X13673216Y-42661544D01*
X13837188Y-42593624D01*
X13986488Y-42563927D01*
X14011258Y-42559000D01*
X14188742Y-42559000D01*
X14213512Y-42563927D01*
G37*
G36*
X11001000Y-43801000D02*
G01*
X9399000Y-43801000D01*
X9399000Y-42199000D01*
X11001000Y-42199000D01*
X11001000Y-43801000D01*
G37*
G36*
X3201000Y-43801000D02*
G01*
X1599000Y-43801000D01*
X1599000Y-42199000D01*
X3201000Y-42199000D01*
X3201000Y-43801000D01*
G37*
G36*
X32096000Y-43406000D02*
G01*
X29994000Y-43406000D01*
X29994000Y-42404000D01*
X32096000Y-42404000D01*
X32096000Y-43406000D01*
G37*
G36*
X21317091Y-42078085D02*
G01*
X21351069Y-42088393D01*
X21382390Y-42105134D01*
X21409839Y-42127661D01*
X21432366Y-42155110D01*
X21449107Y-42186431D01*
X21459415Y-42220409D01*
X21463500Y-42261890D01*
X21463500Y-42938110D01*
X21459415Y-42979591D01*
X21449107Y-43013569D01*
X21432366Y-43044890D01*
X21409839Y-43072339D01*
X21382390Y-43094866D01*
X21351069Y-43111607D01*
X21317091Y-43121915D01*
X21275610Y-43126000D01*
X20674390Y-43126000D01*
X20632909Y-43121915D01*
X20598931Y-43111607D01*
X20567610Y-43094866D01*
X20540161Y-43072339D01*
X20517634Y-43044890D01*
X20500893Y-43013569D01*
X20490585Y-42979591D01*
X20486500Y-42938110D01*
X20486500Y-42261890D01*
X20490585Y-42220409D01*
X20500893Y-42186431D01*
X20517634Y-42155110D01*
X20540161Y-42127661D01*
X20567610Y-42105134D01*
X20598931Y-42088393D01*
X20632909Y-42078085D01*
X20674390Y-42074000D01*
X21275610Y-42074000D01*
X21317091Y-42078085D01*
G37*
G36*
X19742091Y-42078085D02*
G01*
X19776069Y-42088393D01*
X19807390Y-42105134D01*
X19834839Y-42127661D01*
X19857366Y-42155110D01*
X19874107Y-42186431D01*
X19884415Y-42220409D01*
X19888500Y-42261890D01*
X19888500Y-42938110D01*
X19884415Y-42979591D01*
X19874107Y-43013569D01*
X19857366Y-43044890D01*
X19834839Y-43072339D01*
X19807390Y-43094866D01*
X19776069Y-43111607D01*
X19742091Y-43121915D01*
X19700610Y-43126000D01*
X19099390Y-43126000D01*
X19057909Y-43121915D01*
X19023931Y-43111607D01*
X18992610Y-43094866D01*
X18965161Y-43072339D01*
X18942634Y-43044890D01*
X18925893Y-43013569D01*
X18915585Y-42979591D01*
X18911500Y-42938110D01*
X18911500Y-42261890D01*
X18915585Y-42220409D01*
X18925893Y-42186431D01*
X18942634Y-42155110D01*
X18965161Y-42127661D01*
X18992610Y-42105134D01*
X19023931Y-42088393D01*
X19057909Y-42078085D01*
X19099390Y-42074000D01*
X19700610Y-42074000D01*
X19742091Y-42078085D01*
G37*
G36*
X18101000Y-43101000D02*
G01*
X16499000Y-43101000D01*
X16499000Y-40699000D01*
X18101000Y-40699000D01*
X18101000Y-43101000D01*
G37*
G36*
X43606000Y-42551000D02*
G01*
X38504000Y-42551000D01*
X38504000Y-37449000D01*
X43606000Y-37449000D01*
X43606000Y-42551000D01*
G37*
G36*
X32096000Y-42136000D02*
G01*
X29994000Y-42136000D01*
X29994000Y-41134000D01*
X32096000Y-41134000D01*
X32096000Y-42136000D01*
G37*
G36*
X32096000Y-40866000D02*
G01*
X29994000Y-40866000D01*
X29994000Y-39864000D01*
X32096000Y-39864000D01*
X32096000Y-40866000D01*
G37*
G36*
X10054591Y-39278085D02*
G01*
X10088569Y-39288393D01*
X10119890Y-39305134D01*
X10147339Y-39327661D01*
X10169866Y-39355110D01*
X10186607Y-39386431D01*
X10196915Y-39420409D01*
X10201000Y-39461890D01*
X10201000Y-40138110D01*
X10196915Y-40179591D01*
X10186607Y-40213569D01*
X10169866Y-40244890D01*
X10147339Y-40272339D01*
X10119890Y-40294866D01*
X10088569Y-40311607D01*
X10054591Y-40321915D01*
X10013110Y-40326000D01*
X9411890Y-40326000D01*
X9370409Y-40321915D01*
X9336431Y-40311607D01*
X9305110Y-40294866D01*
X9277661Y-40272339D01*
X9255134Y-40244890D01*
X9238393Y-40213569D01*
X9228085Y-40179591D01*
X9224000Y-40138110D01*
X9224000Y-39461890D01*
X9228085Y-39420409D01*
X9238393Y-39386431D01*
X9255134Y-39355110D01*
X9277661Y-39327661D01*
X9305110Y-39305134D01*
X9336431Y-39288393D01*
X9370409Y-39278085D01*
X9411890Y-39274000D01*
X10013110Y-39274000D01*
X10054591Y-39278085D01*
G37*
G36*
X8529591Y-39278085D02*
G01*
X8563569Y-39288393D01*
X8594890Y-39305134D01*
X8622339Y-39327661D01*
X8644866Y-39355110D01*
X8661607Y-39386431D01*
X8671915Y-39420409D01*
X8676000Y-39461890D01*
X8676000Y-40138110D01*
X8671915Y-40179591D01*
X8661607Y-40213569D01*
X8644866Y-40244890D01*
X8622339Y-40272339D01*
X8594890Y-40294866D01*
X8563569Y-40311607D01*
X8529591Y-40321915D01*
X8488110Y-40326000D01*
X7886890Y-40326000D01*
X7845409Y-40321915D01*
X7811431Y-40311607D01*
X7780110Y-40294866D01*
X7752661Y-40272339D01*
X7730134Y-40244890D01*
X7713393Y-40213569D01*
X7703085Y-40179591D01*
X7699000Y-40138110D01*
X7699000Y-39461890D01*
X7703085Y-39420409D01*
X7713393Y-39386431D01*
X7730134Y-39355110D01*
X7752661Y-39327661D01*
X7780110Y-39305134D01*
X7811431Y-39288393D01*
X7845409Y-39278085D01*
X7886890Y-39274000D01*
X8488110Y-39274000D01*
X8529591Y-39278085D01*
G37*
G36*
X6954591Y-39278085D02*
G01*
X6988569Y-39288393D01*
X7019890Y-39305134D01*
X7047339Y-39327661D01*
X7069866Y-39355110D01*
X7086607Y-39386431D01*
X7096915Y-39420409D01*
X7101000Y-39461890D01*
X7101000Y-40138110D01*
X7096915Y-40179591D01*
X7086607Y-40213569D01*
X7069866Y-40244890D01*
X7047339Y-40272339D01*
X7019890Y-40294866D01*
X6988569Y-40311607D01*
X6954591Y-40321915D01*
X6913110Y-40326000D01*
X6311890Y-40326000D01*
X6270409Y-40321915D01*
X6236431Y-40311607D01*
X6205110Y-40294866D01*
X6177661Y-40272339D01*
X6155134Y-40244890D01*
X6138393Y-40213569D01*
X6128085Y-40179591D01*
X6124000Y-40138110D01*
X6124000Y-39461890D01*
X6128085Y-39420409D01*
X6138393Y-39386431D01*
X6155134Y-39355110D01*
X6177661Y-39327661D01*
X6205110Y-39305134D01*
X6236431Y-39288393D01*
X6270409Y-39278085D01*
X6311890Y-39274000D01*
X6913110Y-39274000D01*
X6954591Y-39278085D01*
G37*
G36*
X11629591Y-39278085D02*
G01*
X11663569Y-39288393D01*
X11694890Y-39305134D01*
X11722339Y-39327661D01*
X11744866Y-39355110D01*
X11761607Y-39386431D01*
X11771915Y-39420409D01*
X11776000Y-39461890D01*
X11776000Y-40138110D01*
X11771915Y-40179591D01*
X11761607Y-40213569D01*
X11744866Y-40244890D01*
X11722339Y-40272339D01*
X11694890Y-40294866D01*
X11663569Y-40311607D01*
X11629591Y-40321915D01*
X11588110Y-40326000D01*
X10986890Y-40326000D01*
X10945409Y-40321915D01*
X10911431Y-40311607D01*
X10880110Y-40294866D01*
X10852661Y-40272339D01*
X10830134Y-40244890D01*
X10813393Y-40213569D01*
X10803085Y-40179591D01*
X10799000Y-40138110D01*
X10799000Y-39461890D01*
X10803085Y-39420409D01*
X10813393Y-39386431D01*
X10830134Y-39355110D01*
X10852661Y-39327661D01*
X10880110Y-39305134D01*
X10911431Y-39288393D01*
X10945409Y-39278085D01*
X10986890Y-39274000D01*
X11588110Y-39274000D01*
X11629591Y-39278085D01*
G37*
G36*
X32096000Y-39596000D02*
G01*
X29994000Y-39596000D01*
X29994000Y-38594000D01*
X32096000Y-38594000D01*
X32096000Y-39596000D01*
G37*
G36*
X23179591Y-37390585D02*
G01*
X23213569Y-37400893D01*
X23244890Y-37417634D01*
X23272339Y-37440161D01*
X23294866Y-37467610D01*
X23311607Y-37498931D01*
X23321915Y-37532909D01*
X23326000Y-37574390D01*
X23326000Y-38175610D01*
X23321915Y-38217091D01*
X23311607Y-38251069D01*
X23294866Y-38282390D01*
X23272339Y-38309839D01*
X23244890Y-38332366D01*
X23213569Y-38349107D01*
X23179591Y-38359415D01*
X23138110Y-38363500D01*
X22461890Y-38363500D01*
X22420409Y-38359415D01*
X22386431Y-38349107D01*
X22355110Y-38332366D01*
X22327661Y-38309839D01*
X22305134Y-38282390D01*
X22288393Y-38251069D01*
X22278085Y-38217091D01*
X22274000Y-38175610D01*
X22274000Y-37574390D01*
X22278085Y-37532909D01*
X22288393Y-37498931D01*
X22305134Y-37467610D01*
X22327661Y-37440161D01*
X22355110Y-37417634D01*
X22386431Y-37400893D01*
X22420409Y-37390585D01*
X22461890Y-37386500D01*
X23138110Y-37386500D01*
X23179591Y-37390585D01*
G37*
G36*
X32096000Y-38326000D02*
G01*
X29994000Y-38326000D01*
X29994000Y-37324000D01*
X32096000Y-37324000D01*
X32096000Y-38326000D01*
G37*
G36*
X32096000Y-37056000D02*
G01*
X29994000Y-37056000D01*
X29994000Y-36054000D01*
X32096000Y-36054000D01*
X32096000Y-37056000D01*
G37*
G36*
X10242091Y-35878085D02*
G01*
X10276069Y-35888393D01*
X10307390Y-35905134D01*
X10334839Y-35927661D01*
X10357366Y-35955110D01*
X10374107Y-35986431D01*
X10384415Y-36020409D01*
X10388500Y-36061890D01*
X10388500Y-36738110D01*
X10384415Y-36779591D01*
X10374107Y-36813569D01*
X10357366Y-36844890D01*
X10334839Y-36872339D01*
X10307390Y-36894866D01*
X10276069Y-36911607D01*
X10242091Y-36921915D01*
X10200610Y-36926000D01*
X9599390Y-36926000D01*
X9557909Y-36921915D01*
X9523931Y-36911607D01*
X9492610Y-36894866D01*
X9465161Y-36872339D01*
X9442634Y-36844890D01*
X9425893Y-36813569D01*
X9415585Y-36779591D01*
X9411500Y-36738110D01*
X9411500Y-36061890D01*
X9415585Y-36020409D01*
X9425893Y-35986431D01*
X9442634Y-35955110D01*
X9465161Y-35927661D01*
X9492610Y-35905134D01*
X9523931Y-35888393D01*
X9557909Y-35878085D01*
X9599390Y-35874000D01*
X10200610Y-35874000D01*
X10242091Y-35878085D01*
G37*
G36*
X11817091Y-35878085D02*
G01*
X11851069Y-35888393D01*
X11882390Y-35905134D01*
X11909839Y-35927661D01*
X11932366Y-35955110D01*
X11949107Y-35986431D01*
X11959415Y-36020409D01*
X11963500Y-36061890D01*
X11963500Y-36738110D01*
X11959415Y-36779591D01*
X11949107Y-36813569D01*
X11932366Y-36844890D01*
X11909839Y-36872339D01*
X11882390Y-36894866D01*
X11851069Y-36911607D01*
X11817091Y-36921915D01*
X11775610Y-36926000D01*
X11174390Y-36926000D01*
X11132909Y-36921915D01*
X11098931Y-36911607D01*
X11067610Y-36894866D01*
X11040161Y-36872339D01*
X11017634Y-36844890D01*
X11000893Y-36813569D01*
X10990585Y-36779591D01*
X10986500Y-36738110D01*
X10986500Y-36061890D01*
X10990585Y-36020409D01*
X11000893Y-35986431D01*
X11017634Y-35955110D01*
X11040161Y-35927661D01*
X11067610Y-35905134D01*
X11098931Y-35888393D01*
X11132909Y-35878085D01*
X11174390Y-35874000D01*
X11775610Y-35874000D01*
X11817091Y-35878085D01*
G37*
G36*
X20054591Y-35778085D02*
G01*
X20088569Y-35788393D01*
X20119890Y-35805134D01*
X20147339Y-35827661D01*
X20169866Y-35855110D01*
X20186607Y-35886431D01*
X20196915Y-35920409D01*
X20201000Y-35961890D01*
X20201000Y-36638110D01*
X20196915Y-36679591D01*
X20186607Y-36713569D01*
X20169866Y-36744890D01*
X20147339Y-36772339D01*
X20119890Y-36794866D01*
X20088569Y-36811607D01*
X20054591Y-36821915D01*
X20013110Y-36826000D01*
X19411890Y-36826000D01*
X19370409Y-36821915D01*
X19336431Y-36811607D01*
X19305110Y-36794866D01*
X19277661Y-36772339D01*
X19255134Y-36744890D01*
X19238393Y-36713569D01*
X19228085Y-36679591D01*
X19224000Y-36638110D01*
X19224000Y-35961890D01*
X19228085Y-35920409D01*
X19238393Y-35886431D01*
X19255134Y-35855110D01*
X19277661Y-35827661D01*
X19305110Y-35805134D01*
X19336431Y-35788393D01*
X19370409Y-35778085D01*
X19411890Y-35774000D01*
X20013110Y-35774000D01*
X20054591Y-35778085D01*
G37*
G36*
X21629591Y-35778085D02*
G01*
X21663569Y-35788393D01*
X21694890Y-35805134D01*
X21722339Y-35827661D01*
X21744866Y-35855110D01*
X21761607Y-35886431D01*
X21771915Y-35920409D01*
X21776000Y-35961890D01*
X21776000Y-36638110D01*
X21771915Y-36679591D01*
X21761607Y-36713569D01*
X21744866Y-36744890D01*
X21722339Y-36772339D01*
X21694890Y-36794866D01*
X21663569Y-36811607D01*
X21629591Y-36821915D01*
X21588110Y-36826000D01*
X20986890Y-36826000D01*
X20945409Y-36821915D01*
X20911431Y-36811607D01*
X20880110Y-36794866D01*
X20852661Y-36772339D01*
X20830134Y-36744890D01*
X20813393Y-36713569D01*
X20803085Y-36679591D01*
X20799000Y-36638110D01*
X20799000Y-35961890D01*
X20803085Y-35920409D01*
X20813393Y-35886431D01*
X20830134Y-35855110D01*
X20852661Y-35827661D01*
X20880110Y-35805134D01*
X20911431Y-35788393D01*
X20945409Y-35778085D01*
X20986890Y-35774000D01*
X21588110Y-35774000D01*
X21629591Y-35778085D01*
G37*
G36*
X23179591Y-35815585D02*
G01*
X23213569Y-35825893D01*
X23244890Y-35842634D01*
X23272339Y-35865161D01*
X23294866Y-35892610D01*
X23311607Y-35923931D01*
X23321915Y-35957909D01*
X23326000Y-35999390D01*
X23326000Y-36600610D01*
X23321915Y-36642091D01*
X23311607Y-36676069D01*
X23294866Y-36707390D01*
X23272339Y-36734839D01*
X23244890Y-36757366D01*
X23213569Y-36774107D01*
X23179591Y-36784415D01*
X23138110Y-36788500D01*
X22461890Y-36788500D01*
X22420409Y-36784415D01*
X22386431Y-36774107D01*
X22355110Y-36757366D01*
X22327661Y-36734839D01*
X22305134Y-36707390D01*
X22288393Y-36676069D01*
X22278085Y-36642091D01*
X22274000Y-36600610D01*
X22274000Y-35999390D01*
X22278085Y-35957909D01*
X22288393Y-35923931D01*
X22305134Y-35892610D01*
X22327661Y-35865161D01*
X22355110Y-35842634D01*
X22386431Y-35825893D01*
X22420409Y-35815585D01*
X22461890Y-35811500D01*
X23138110Y-35811500D01*
X23179591Y-35815585D01*
G37*
G36*
X18551000Y-36151000D02*
G01*
X16249000Y-36151000D01*
X16249000Y-34224000D01*
X18551000Y-34224000D01*
X18551000Y-36151000D01*
G37*
G36*
X32096000Y-35786000D02*
G01*
X29994000Y-35786000D01*
X29994000Y-34784000D01*
X32096000Y-34784000D01*
X32096000Y-35786000D01*
G37*
G36*
X8351000Y-35451000D02*
G01*
X7349000Y-35451000D01*
X7349000Y-34149000D01*
X8351000Y-34149000D01*
X8351000Y-35451000D01*
G37*
G36*
X5051000Y-35451000D02*
G01*
X4049000Y-35451000D01*
X4049000Y-34149000D01*
X5051000Y-34149000D01*
X5051000Y-35451000D01*
G37*
G36*
X21184999Y-31649737D02*
G01*
X21194608Y-31652652D01*
X21203472Y-31657390D01*
X21220703Y-31671531D01*
X21241078Y-31685144D01*
X21263717Y-31694521D01*
X21287750Y-31699301D01*
X21312254Y-31699301D01*
X21336287Y-31694520D01*
X21358926Y-31685142D01*
X21379297Y-31671531D01*
X21396528Y-31657390D01*
X21405392Y-31652652D01*
X21415001Y-31649737D01*
X21431140Y-31648148D01*
X21668860Y-31648148D01*
X21684999Y-31649737D01*
X21694608Y-31652652D01*
X21703472Y-31657390D01*
X21711237Y-31663763D01*
X21717610Y-31671528D01*
X21722348Y-31680392D01*
X21725263Y-31690001D01*
X21726852Y-31706140D01*
X21726852Y-32023149D01*
X21729254Y-32047535D01*
X21736367Y-32070984D01*
X21747918Y-32092595D01*
X21763463Y-32111537D01*
X21782405Y-32127082D01*
X21804016Y-32138633D01*
X21827465Y-32145746D01*
X21851851Y-32148148D01*
X22118860Y-32148148D01*
X22134999Y-32149737D01*
X22144608Y-32152652D01*
X22153472Y-32157390D01*
X22161237Y-32163763D01*
X22173803Y-32179075D01*
X22176631Y-32183307D01*
X22193960Y-32200632D01*
X22214335Y-32214245D01*
X22236974Y-32223620D01*
X22273251Y-32229000D01*
X23051000Y-32229000D01*
X23051000Y-34571000D01*
X22273251Y-34571000D01*
X22248865Y-34573402D01*
X22225416Y-34580515D01*
X22203805Y-34592066D01*
X22184863Y-34607611D01*
X22176058Y-34619482D01*
X22175418Y-34618957D01*
X22161237Y-34636237D01*
X22153472Y-34642610D01*
X22144608Y-34647348D01*
X22134999Y-34650263D01*
X22118860Y-34651852D01*
X21851851Y-34651852D01*
X21827465Y-34654254D01*
X21804016Y-34661367D01*
X21782405Y-34672918D01*
X21763463Y-34688463D01*
X21747918Y-34707405D01*
X21736367Y-34729016D01*
X21729254Y-34752465D01*
X21726852Y-34776851D01*
X21726852Y-35093860D01*
X21725263Y-35109999D01*
X21722348Y-35119608D01*
X21717610Y-35128472D01*
X21711237Y-35136237D01*
X21703472Y-35142610D01*
X21694608Y-35147348D01*
X21684999Y-35150263D01*
X21668860Y-35151852D01*
X21431140Y-35151852D01*
X21415001Y-35150263D01*
X21405392Y-35147348D01*
X21396528Y-35142610D01*
X21379297Y-35128469D01*
X21358922Y-35114856D01*
X21336283Y-35105479D01*
X21312250Y-35100699D01*
X21287746Y-35100699D01*
X21263713Y-35105480D01*
X21241074Y-35114858D01*
X21220703Y-35128469D01*
X21203472Y-35142610D01*
X21194608Y-35147348D01*
X21184999Y-35150263D01*
X21168860Y-35151852D01*
X20931140Y-35151852D01*
X20915001Y-35150263D01*
X20905392Y-35147348D01*
X20896528Y-35142610D01*
X20888763Y-35136237D01*
X20882390Y-35128472D01*
X20877652Y-35119608D01*
X20874737Y-35109999D01*
X20873148Y-35093860D01*
X20873148Y-34776851D01*
X20870746Y-34752465D01*
X20863633Y-34729016D01*
X20852082Y-34707405D01*
X20836537Y-34688463D01*
X20817595Y-34672918D01*
X20795984Y-34661367D01*
X20772535Y-34654254D01*
X20748149Y-34651852D01*
X20481140Y-34651852D01*
X20465001Y-34650263D01*
X20455392Y-34647348D01*
X20446528Y-34642610D01*
X20438763Y-34636237D01*
X20426197Y-34620925D01*
X20423369Y-34616693D01*
X20406040Y-34599368D01*
X20385665Y-34585755D01*
X20363026Y-34576380D01*
X20326749Y-34571000D01*
X19549000Y-34571000D01*
X19549000Y-32229000D01*
X20326749Y-32229000D01*
X20351135Y-32226598D01*
X20374584Y-32219485D01*
X20396195Y-32207934D01*
X20415137Y-32192389D01*
X20423942Y-32180518D01*
X20424582Y-32181043D01*
X20438763Y-32163763D01*
X20446528Y-32157390D01*
X20455392Y-32152652D01*
X20465001Y-32149737D01*
X20481140Y-32148148D01*
X20748149Y-32148148D01*
X20772535Y-32145746D01*
X20795984Y-32138633D01*
X20817595Y-32127082D01*
X20836537Y-32111537D01*
X20852082Y-32092595D01*
X20863633Y-32070984D01*
X20870746Y-32047535D01*
X20873148Y-32023149D01*
X20873148Y-31706140D01*
X20874737Y-31690001D01*
X20877652Y-31680392D01*
X20882390Y-31671528D01*
X20888763Y-31663763D01*
X20896528Y-31657390D01*
X20905392Y-31652652D01*
X20915001Y-31649737D01*
X20931140Y-31648148D01*
X21168860Y-31648148D01*
X21184999Y-31649737D01*
G37*
G36*
X12301000Y-35001000D02*
G01*
X11299000Y-35001000D01*
X11299000Y-34099000D01*
X12301000Y-34099000D01*
X12301000Y-35001000D01*
G37*
G36*
X24579591Y-34003085D02*
G01*
X24613569Y-34013393D01*
X24644890Y-34030134D01*
X24672339Y-34052661D01*
X24694866Y-34080110D01*
X24711607Y-34111431D01*
X24721915Y-34145409D01*
X24726000Y-34186890D01*
X24726000Y-34788110D01*
X24721915Y-34829591D01*
X24711607Y-34863569D01*
X24694866Y-34894890D01*
X24672339Y-34922339D01*
X24644890Y-34944866D01*
X24613569Y-34961607D01*
X24579591Y-34971915D01*
X24538110Y-34976000D01*
X23861890Y-34976000D01*
X23820409Y-34971915D01*
X23786431Y-34961607D01*
X23755110Y-34944866D01*
X23727661Y-34922339D01*
X23705134Y-34894890D01*
X23688393Y-34863569D01*
X23678085Y-34829591D01*
X23674000Y-34788110D01*
X23674000Y-34186890D01*
X23678085Y-34145409D01*
X23688393Y-34111431D01*
X23705134Y-34080110D01*
X23727661Y-34052661D01*
X23755110Y-34030134D01*
X23786431Y-34013393D01*
X23820409Y-34003085D01*
X23861890Y-33999000D01*
X24538110Y-33999000D01*
X24579591Y-34003085D01*
G37*
G36*
X10301000Y-34051000D02*
G01*
X9299000Y-34051000D01*
X9299000Y-33149000D01*
X10301000Y-33149000D01*
X10301000Y-34051000D01*
G37*
G36*
X18551000Y-33576000D02*
G01*
X16249000Y-33576000D01*
X16249000Y-31649000D01*
X18551000Y-31649000D01*
X18551000Y-33576000D01*
G37*
G36*
X43976000Y-33551000D02*
G01*
X42974000Y-33551000D01*
X42974000Y-31449000D01*
X43976000Y-31449000D01*
X43976000Y-33551000D01*
G37*
G36*
X32546000Y-33551000D02*
G01*
X31544000Y-33551000D01*
X31544000Y-31449000D01*
X32546000Y-31449000D01*
X32546000Y-33551000D01*
G37*
G36*
X45246000Y-33551000D02*
G01*
X44244000Y-33551000D01*
X44244000Y-31449000D01*
X45246000Y-31449000D01*
X45246000Y-33551000D01*
G37*
G36*
X33816000Y-33551000D02*
G01*
X32814000Y-33551000D01*
X32814000Y-31449000D01*
X33816000Y-31449000D01*
X33816000Y-33551000D01*
G37*
G36*
X35086000Y-33551000D02*
G01*
X34084000Y-33551000D01*
X34084000Y-31449000D01*
X35086000Y-31449000D01*
X35086000Y-33551000D01*
G37*
G36*
X36356000Y-33551000D02*
G01*
X35354000Y-33551000D01*
X35354000Y-31449000D01*
X36356000Y-31449000D01*
X36356000Y-33551000D01*
G37*
G36*
X49056000Y-33551000D02*
G01*
X48054000Y-33551000D01*
X48054000Y-31449000D01*
X49056000Y-31449000D01*
X49056000Y-33551000D01*
G37*
G36*
X47786000Y-33551000D02*
G01*
X46784000Y-33551000D01*
X46784000Y-31449000D01*
X47786000Y-31449000D01*
X47786000Y-33551000D01*
G37*
G36*
X46516000Y-33551000D02*
G01*
X45514000Y-33551000D01*
X45514000Y-31449000D01*
X46516000Y-31449000D01*
X46516000Y-33551000D01*
G37*
G36*
X37626000Y-33551000D02*
G01*
X36624000Y-33551000D01*
X36624000Y-31449000D01*
X37626000Y-31449000D01*
X37626000Y-33551000D01*
G37*
G36*
X38896000Y-33551000D02*
G01*
X37894000Y-33551000D01*
X37894000Y-31449000D01*
X38896000Y-31449000D01*
X38896000Y-33551000D01*
G37*
G36*
X40166000Y-33551000D02*
G01*
X39164000Y-33551000D01*
X39164000Y-31449000D01*
X40166000Y-31449000D01*
X40166000Y-33551000D01*
G37*
G36*
X41436000Y-33551000D02*
G01*
X40434000Y-33551000D01*
X40434000Y-31449000D01*
X41436000Y-31449000D01*
X41436000Y-33551000D01*
G37*
G36*
X42706000Y-33551000D02*
G01*
X41704000Y-33551000D01*
X41704000Y-31449000D01*
X42706000Y-31449000D01*
X42706000Y-33551000D01*
G37*
G36*
X24579591Y-32428085D02*
G01*
X24613569Y-32438393D01*
X24644890Y-32455134D01*
X24672339Y-32477661D01*
X24694866Y-32505110D01*
X24711607Y-32536431D01*
X24721915Y-32570409D01*
X24726000Y-32611890D01*
X24726000Y-33213110D01*
X24721915Y-33254591D01*
X24711607Y-33288569D01*
X24694866Y-33319890D01*
X24672339Y-33347339D01*
X24644890Y-33369866D01*
X24613569Y-33386607D01*
X24579591Y-33396915D01*
X24538110Y-33401000D01*
X23861890Y-33401000D01*
X23820409Y-33396915D01*
X23786431Y-33386607D01*
X23755110Y-33369866D01*
X23727661Y-33347339D01*
X23705134Y-33319890D01*
X23688393Y-33288569D01*
X23678085Y-33254591D01*
X23674000Y-33213110D01*
X23674000Y-32611890D01*
X23678085Y-32570409D01*
X23688393Y-32536431D01*
X23705134Y-32505110D01*
X23727661Y-32477661D01*
X23755110Y-32455134D01*
X23786431Y-32438393D01*
X23820409Y-32428085D01*
X23861890Y-32424000D01*
X24538110Y-32424000D01*
X24579591Y-32428085D01*
G37*
G36*
X12301000Y-33101000D02*
G01*
X11299000Y-33101000D01*
X11299000Y-32199000D01*
X12301000Y-32199000D01*
X12301000Y-33101000D01*
G37*
G36*
X24801000Y-31651000D02*
G01*
X23699000Y-31651000D01*
X23699000Y-30549000D01*
X24801000Y-30549000D01*
X24801000Y-31651000D01*
G37*
G36*
X27301000Y-31651000D02*
G01*
X26199000Y-31651000D01*
X26199000Y-30549000D01*
X27301000Y-30549000D01*
X27301000Y-31651000D01*
G37*
G36*
X21054591Y-29978085D02*
G01*
X21088569Y-29988393D01*
X21119890Y-30005134D01*
X21147339Y-30027661D01*
X21169866Y-30055110D01*
X21186607Y-30086431D01*
X21196915Y-30120409D01*
X21201000Y-30161890D01*
X21201000Y-30838110D01*
X21196915Y-30879591D01*
X21186607Y-30913569D01*
X21169866Y-30944890D01*
X21147339Y-30972339D01*
X21119890Y-30994866D01*
X21088569Y-31011607D01*
X21054591Y-31021915D01*
X21013110Y-31026000D01*
X20411890Y-31026000D01*
X20370409Y-31021915D01*
X20336431Y-31011607D01*
X20305110Y-30994866D01*
X20277661Y-30972339D01*
X20255134Y-30944890D01*
X20238393Y-30913569D01*
X20228085Y-30879591D01*
X20224000Y-30838110D01*
X20224000Y-30161890D01*
X20228085Y-30120409D01*
X20238393Y-30086431D01*
X20255134Y-30055110D01*
X20277661Y-30027661D01*
X20305110Y-30005134D01*
X20336431Y-29988393D01*
X20370409Y-29978085D01*
X20411890Y-29974000D01*
X21013110Y-29974000D01*
X21054591Y-29978085D01*
G37*
G36*
X22629591Y-29978085D02*
G01*
X22663569Y-29988393D01*
X22694890Y-30005134D01*
X22722339Y-30027661D01*
X22744866Y-30055110D01*
X22761607Y-30086431D01*
X22771915Y-30120409D01*
X22776000Y-30161890D01*
X22776000Y-30838110D01*
X22771915Y-30879591D01*
X22761607Y-30913569D01*
X22744866Y-30944890D01*
X22722339Y-30972339D01*
X22694890Y-30994866D01*
X22663569Y-31011607D01*
X22629591Y-31021915D01*
X22588110Y-31026000D01*
X21986890Y-31026000D01*
X21945409Y-31021915D01*
X21911431Y-31011607D01*
X21880110Y-30994866D01*
X21852661Y-30972339D01*
X21830134Y-30944890D01*
X21813393Y-30913569D01*
X21803085Y-30879591D01*
X21799000Y-30838110D01*
X21799000Y-30161890D01*
X21803085Y-30120409D01*
X21813393Y-30086431D01*
X21830134Y-30055110D01*
X21852661Y-30027661D01*
X21880110Y-30005134D01*
X21911431Y-29988393D01*
X21945409Y-29978085D01*
X21986890Y-29974000D01*
X22588110Y-29974000D01*
X22629591Y-29978085D01*
G37*
G36*
X47567091Y-29678085D02*
G01*
X47601069Y-29688393D01*
X47632390Y-29705134D01*
X47659839Y-29727661D01*
X47682366Y-29755110D01*
X47699107Y-29786431D01*
X47709415Y-29820409D01*
X47713500Y-29861890D01*
X47713500Y-30538110D01*
X47709415Y-30579591D01*
X47699107Y-30613569D01*
X47682366Y-30644890D01*
X47659839Y-30672339D01*
X47632390Y-30694866D01*
X47601069Y-30711607D01*
X47567091Y-30721915D01*
X47525610Y-30726000D01*
X46924390Y-30726000D01*
X46882909Y-30721915D01*
X46848931Y-30711607D01*
X46817610Y-30694866D01*
X46790161Y-30672339D01*
X46767634Y-30644890D01*
X46750893Y-30613569D01*
X46740585Y-30579591D01*
X46736500Y-30538110D01*
X46736500Y-29861890D01*
X46740585Y-29820409D01*
X46750893Y-29786431D01*
X46767634Y-29755110D01*
X46790161Y-29727661D01*
X46817610Y-29705134D01*
X46848931Y-29688393D01*
X46882909Y-29678085D01*
X46924390Y-29674000D01*
X47525610Y-29674000D01*
X47567091Y-29678085D01*
G37*
G36*
X49142091Y-29678085D02*
G01*
X49176069Y-29688393D01*
X49207390Y-29705134D01*
X49234839Y-29727661D01*
X49257366Y-29755110D01*
X49274107Y-29786431D01*
X49284415Y-29820409D01*
X49288500Y-29861890D01*
X49288500Y-30538110D01*
X49284415Y-30579591D01*
X49274107Y-30613569D01*
X49257366Y-30644890D01*
X49234839Y-30672339D01*
X49207390Y-30694866D01*
X49176069Y-30711607D01*
X49142091Y-30721915D01*
X49100610Y-30726000D01*
X48499390Y-30726000D01*
X48457909Y-30721915D01*
X48423931Y-30711607D01*
X48392610Y-30694866D01*
X48365161Y-30672339D01*
X48342634Y-30644890D01*
X48325893Y-30613569D01*
X48315585Y-30579591D01*
X48311500Y-30538110D01*
X48311500Y-29861890D01*
X48315585Y-29820409D01*
X48325893Y-29786431D01*
X48342634Y-29755110D01*
X48365161Y-29727661D01*
X48392610Y-29705134D01*
X48423931Y-29688393D01*
X48457909Y-29678085D01*
X48499390Y-29674000D01*
X49100610Y-29674000D01*
X49142091Y-29678085D01*
G37*
G36*
X33342091Y-29478085D02*
G01*
X33376069Y-29488393D01*
X33407390Y-29505134D01*
X33434839Y-29527661D01*
X33457366Y-29555110D01*
X33474107Y-29586431D01*
X33484415Y-29620409D01*
X33488500Y-29661890D01*
X33488500Y-30338110D01*
X33484415Y-30379591D01*
X33474107Y-30413569D01*
X33457366Y-30444890D01*
X33434839Y-30472339D01*
X33407390Y-30494866D01*
X33376069Y-30511607D01*
X33342091Y-30521915D01*
X33300610Y-30526000D01*
X32699390Y-30526000D01*
X32657909Y-30521915D01*
X32623931Y-30511607D01*
X32592610Y-30494866D01*
X32565161Y-30472339D01*
X32542634Y-30444890D01*
X32525893Y-30413569D01*
X32515585Y-30379591D01*
X32511500Y-30338110D01*
X32511500Y-29661890D01*
X32515585Y-29620409D01*
X32525893Y-29586431D01*
X32542634Y-29555110D01*
X32565161Y-29527661D01*
X32592610Y-29505134D01*
X32623931Y-29488393D01*
X32657909Y-29478085D01*
X32699390Y-29474000D01*
X33300610Y-29474000D01*
X33342091Y-29478085D01*
G37*
G36*
X34917091Y-29478085D02*
G01*
X34951069Y-29488393D01*
X34982390Y-29505134D01*
X35009839Y-29527661D01*
X35032366Y-29555110D01*
X35049107Y-29586431D01*
X35059415Y-29620409D01*
X35063500Y-29661890D01*
X35063500Y-30338110D01*
X35059415Y-30379591D01*
X35049107Y-30413569D01*
X35032366Y-30444890D01*
X35009839Y-30472339D01*
X34982390Y-30494866D01*
X34951069Y-30511607D01*
X34917091Y-30521915D01*
X34875610Y-30526000D01*
X34274390Y-30526000D01*
X34232909Y-30521915D01*
X34198931Y-30511607D01*
X34167610Y-30494866D01*
X34140161Y-30472339D01*
X34117634Y-30444890D01*
X34100893Y-30413569D01*
X34090585Y-30379591D01*
X34086500Y-30338110D01*
X34086500Y-29661890D01*
X34090585Y-29620409D01*
X34100893Y-29586431D01*
X34117634Y-29555110D01*
X34140161Y-29527661D01*
X34167610Y-29505134D01*
X34198931Y-29488393D01*
X34232909Y-29478085D01*
X34274390Y-29474000D01*
X34875610Y-29474000D01*
X34917091Y-29478085D01*
G37*
G36*
X36954591Y-29378085D02*
G01*
X36988569Y-29388393D01*
X37019890Y-29405134D01*
X37047339Y-29427661D01*
X37069866Y-29455110D01*
X37086607Y-29486431D01*
X37096915Y-29520409D01*
X37101000Y-29561890D01*
X37101000Y-30238110D01*
X37096915Y-30279591D01*
X37086607Y-30313569D01*
X37069866Y-30344890D01*
X37047339Y-30372339D01*
X37019890Y-30394866D01*
X36988569Y-30411607D01*
X36954591Y-30421915D01*
X36913110Y-30426000D01*
X36311890Y-30426000D01*
X36270409Y-30421915D01*
X36236431Y-30411607D01*
X36205110Y-30394866D01*
X36177661Y-30372339D01*
X36155134Y-30344890D01*
X36138393Y-30313569D01*
X36128085Y-30279591D01*
X36124000Y-30238110D01*
X36124000Y-29561890D01*
X36128085Y-29520409D01*
X36138393Y-29486431D01*
X36155134Y-29455110D01*
X36177661Y-29427661D01*
X36205110Y-29405134D01*
X36236431Y-29388393D01*
X36270409Y-29378085D01*
X36311890Y-29374000D01*
X36913110Y-29374000D01*
X36954591Y-29378085D01*
G37*
G36*
X38529591Y-29378085D02*
G01*
X38563569Y-29388393D01*
X38594890Y-29405134D01*
X38622339Y-29427661D01*
X38644866Y-29455110D01*
X38661607Y-29486431D01*
X38671915Y-29520409D01*
X38676000Y-29561890D01*
X38676000Y-30238110D01*
X38671915Y-30279591D01*
X38661607Y-30313569D01*
X38644866Y-30344890D01*
X38622339Y-30372339D01*
X38594890Y-30394866D01*
X38563569Y-30411607D01*
X38529591Y-30421915D01*
X38488110Y-30426000D01*
X37886890Y-30426000D01*
X37845409Y-30421915D01*
X37811431Y-30411607D01*
X37780110Y-30394866D01*
X37752661Y-30372339D01*
X37730134Y-30344890D01*
X37713393Y-30313569D01*
X37703085Y-30279591D01*
X37699000Y-30238110D01*
X37699000Y-29561890D01*
X37703085Y-29520409D01*
X37713393Y-29486431D01*
X37730134Y-29455110D01*
X37752661Y-29427661D01*
X37780110Y-29405134D01*
X37811431Y-29388393D01*
X37845409Y-29378085D01*
X37886890Y-29374000D01*
X38488110Y-29374000D01*
X38529591Y-29378085D01*
G37*
G36*
X40054591Y-29378085D02*
G01*
X40088569Y-29388393D01*
X40119890Y-29405134D01*
X40147339Y-29427661D01*
X40169866Y-29455110D01*
X40186607Y-29486431D01*
X40196915Y-29520409D01*
X40201000Y-29561890D01*
X40201000Y-30238110D01*
X40196915Y-30279591D01*
X40186607Y-30313569D01*
X40169866Y-30344890D01*
X40147339Y-30372339D01*
X40119890Y-30394866D01*
X40088569Y-30411607D01*
X40054591Y-30421915D01*
X40013110Y-30426000D01*
X39411890Y-30426000D01*
X39370409Y-30421915D01*
X39336431Y-30411607D01*
X39305110Y-30394866D01*
X39277661Y-30372339D01*
X39255134Y-30344890D01*
X39238393Y-30313569D01*
X39228085Y-30279591D01*
X39224000Y-30238110D01*
X39224000Y-29561890D01*
X39228085Y-29520409D01*
X39238393Y-29486431D01*
X39255134Y-29455110D01*
X39277661Y-29427661D01*
X39305110Y-29405134D01*
X39336431Y-29388393D01*
X39370409Y-29378085D01*
X39411890Y-29374000D01*
X40013110Y-29374000D01*
X40054591Y-29378085D01*
G37*
G36*
X41629591Y-29378085D02*
G01*
X41663569Y-29388393D01*
X41694890Y-29405134D01*
X41722339Y-29427661D01*
X41744866Y-29455110D01*
X41761607Y-29486431D01*
X41771915Y-29520409D01*
X41776000Y-29561890D01*
X41776000Y-30238110D01*
X41771915Y-30279591D01*
X41761607Y-30313569D01*
X41744866Y-30344890D01*
X41722339Y-30372339D01*
X41694890Y-30394866D01*
X41663569Y-30411607D01*
X41629591Y-30421915D01*
X41588110Y-30426000D01*
X40986890Y-30426000D01*
X40945409Y-30421915D01*
X40911431Y-30411607D01*
X40880110Y-30394866D01*
X40852661Y-30372339D01*
X40830134Y-30344890D01*
X40813393Y-30313569D01*
X40803085Y-30279591D01*
X40799000Y-30238110D01*
X40799000Y-29561890D01*
X40803085Y-29520409D01*
X40813393Y-29486431D01*
X40830134Y-29455110D01*
X40852661Y-29427661D01*
X40880110Y-29405134D01*
X40911431Y-29388393D01*
X40945409Y-29378085D01*
X40986890Y-29374000D01*
X41588110Y-29374000D01*
X41629591Y-29378085D01*
G37*
G36*
X26601000Y-29601000D02*
G01*
X24199000Y-29601000D01*
X24199000Y-27999000D01*
X26601000Y-27999000D01*
X26601000Y-29601000D01*
G37*
G36*
X21054591Y-28478085D02*
G01*
X21088569Y-28488393D01*
X21119890Y-28505134D01*
X21147339Y-28527661D01*
X21169866Y-28555110D01*
X21186607Y-28586431D01*
X21196915Y-28620409D01*
X21201000Y-28661890D01*
X21201000Y-29338110D01*
X21196915Y-29379591D01*
X21186607Y-29413569D01*
X21169866Y-29444890D01*
X21147339Y-29472339D01*
X21119890Y-29494866D01*
X21088569Y-29511607D01*
X21054591Y-29521915D01*
X21013110Y-29526000D01*
X20411890Y-29526000D01*
X20370409Y-29521915D01*
X20336431Y-29511607D01*
X20305110Y-29494866D01*
X20277661Y-29472339D01*
X20255134Y-29444890D01*
X20238393Y-29413569D01*
X20228085Y-29379591D01*
X20224000Y-29338110D01*
X20224000Y-28661890D01*
X20228085Y-28620409D01*
X20238393Y-28586431D01*
X20255134Y-28555110D01*
X20277661Y-28527661D01*
X20305110Y-28505134D01*
X20336431Y-28488393D01*
X20370409Y-28478085D01*
X20411890Y-28474000D01*
X21013110Y-28474000D01*
X21054591Y-28478085D01*
G37*
G36*
X22629591Y-28478085D02*
G01*
X22663569Y-28488393D01*
X22694890Y-28505134D01*
X22722339Y-28527661D01*
X22744866Y-28555110D01*
X22761607Y-28586431D01*
X22771915Y-28620409D01*
X22776000Y-28661890D01*
X22776000Y-29338110D01*
X22771915Y-29379591D01*
X22761607Y-29413569D01*
X22744866Y-29444890D01*
X22722339Y-29472339D01*
X22694890Y-29494866D01*
X22663569Y-29511607D01*
X22629591Y-29521915D01*
X22588110Y-29526000D01*
X21986890Y-29526000D01*
X21945409Y-29521915D01*
X21911431Y-29511607D01*
X21880110Y-29494866D01*
X21852661Y-29472339D01*
X21830134Y-29444890D01*
X21813393Y-29413569D01*
X21803085Y-29379591D01*
X21799000Y-29338110D01*
X21799000Y-28661890D01*
X21803085Y-28620409D01*
X21813393Y-28586431D01*
X21830134Y-28555110D01*
X21852661Y-28527661D01*
X21880110Y-28505134D01*
X21911431Y-28488393D01*
X21945409Y-28478085D01*
X21986890Y-28474000D01*
X22588110Y-28474000D01*
X22629591Y-28478085D01*
G37*
G36*
X7248228Y-27681703D02*
G01*
X7403100Y-27745853D01*
X7542481Y-27838985D01*
X7661015Y-27957519D01*
X7754147Y-28096900D01*
X7818297Y-28251772D01*
X7851000Y-28416184D01*
X7851000Y-28583816D01*
X7818297Y-28748228D01*
X7754147Y-28903100D01*
X7661015Y-29042481D01*
X7542481Y-29161015D01*
X7403100Y-29254147D01*
X7248228Y-29318297D01*
X7083816Y-29351000D01*
X6916184Y-29351000D01*
X6751772Y-29318297D01*
X6596900Y-29254147D01*
X6457519Y-29161015D01*
X6338985Y-29042481D01*
X6245853Y-28903100D01*
X6181703Y-28748228D01*
X6149000Y-28583816D01*
X6149000Y-28416184D01*
X6181703Y-28251772D01*
X6245853Y-28096900D01*
X6338985Y-27957519D01*
X6457519Y-27838985D01*
X6596900Y-27745853D01*
X6751772Y-27681703D01*
X6916184Y-27649000D01*
X7083816Y-27649000D01*
X7248228Y-27681703D01*
G37*
G36*
X3851000Y-29351000D02*
G01*
X2149000Y-29351000D01*
X2149000Y-27649000D01*
X3851000Y-27649000D01*
X3851000Y-29351000D01*
G37*
G36*
X38542091Y-27778085D02*
G01*
X38576069Y-27788393D01*
X38607390Y-27805134D01*
X38634839Y-27827661D01*
X38657366Y-27855110D01*
X38674107Y-27886431D01*
X38684415Y-27920409D01*
X38688500Y-27961890D01*
X38688500Y-28638110D01*
X38684415Y-28679591D01*
X38674107Y-28713569D01*
X38657366Y-28744890D01*
X38634839Y-28772339D01*
X38607390Y-28794866D01*
X38576069Y-28811607D01*
X38542091Y-28821915D01*
X38500610Y-28826000D01*
X37899390Y-28826000D01*
X37857909Y-28821915D01*
X37823931Y-28811607D01*
X37792610Y-28794866D01*
X37765161Y-28772339D01*
X37742634Y-28744890D01*
X37725893Y-28713569D01*
X37715585Y-28679591D01*
X37711500Y-28638110D01*
X37711500Y-27961890D01*
X37715585Y-27920409D01*
X37725893Y-27886431D01*
X37742634Y-27855110D01*
X37765161Y-27827661D01*
X37792610Y-27805134D01*
X37823931Y-27788393D01*
X37857909Y-27778085D01*
X37899390Y-27774000D01*
X38500610Y-27774000D01*
X38542091Y-27778085D01*
G37*
G36*
X36967091Y-27778085D02*
G01*
X37001069Y-27788393D01*
X37032390Y-27805134D01*
X37059839Y-27827661D01*
X37082366Y-27855110D01*
X37099107Y-27886431D01*
X37109415Y-27920409D01*
X37113500Y-27961890D01*
X37113500Y-28638110D01*
X37109415Y-28679591D01*
X37099107Y-28713569D01*
X37082366Y-28744890D01*
X37059839Y-28772339D01*
X37032390Y-28794866D01*
X37001069Y-28811607D01*
X36967091Y-28821915D01*
X36925610Y-28826000D01*
X36324390Y-28826000D01*
X36282909Y-28821915D01*
X36248931Y-28811607D01*
X36217610Y-28794866D01*
X36190161Y-28772339D01*
X36167634Y-28744890D01*
X36150893Y-28713569D01*
X36140585Y-28679591D01*
X36136500Y-28638110D01*
X36136500Y-27961890D01*
X36140585Y-27920409D01*
X36150893Y-27886431D01*
X36167634Y-27855110D01*
X36190161Y-27827661D01*
X36217610Y-27805134D01*
X36248931Y-27788393D01*
X36282909Y-27778085D01*
X36324390Y-27774000D01*
X36925610Y-27774000D01*
X36967091Y-27778085D01*
G37*
G36*
X43551000Y-28551000D02*
G01*
X42549000Y-28551000D01*
X42549000Y-27249000D01*
X43551000Y-27249000D01*
X43551000Y-28551000D01*
G37*
G36*
X40251000Y-28551000D02*
G01*
X39249000Y-28551000D01*
X39249000Y-27249000D01*
X40251000Y-27249000D01*
X40251000Y-28551000D01*
G37*
G36*
X45293512Y-23843927D02*
G01*
X45442812Y-23873624D01*
X45606784Y-23941544D01*
X45754354Y-24040147D01*
X45879853Y-24165646D01*
X45978456Y-24313216D01*
X46046376Y-24477188D01*
X46081000Y-24651259D01*
X46081000Y-24828741D01*
X46046376Y-25002812D01*
X45978456Y-25166784D01*
X45879853Y-25314354D01*
X45754354Y-25439853D01*
X45606784Y-25538456D01*
X45442812Y-25606376D01*
X45293512Y-25636073D01*
X45268742Y-25641000D01*
X45091258Y-25641000D01*
X45066488Y-25636073D01*
X44917188Y-25606376D01*
X44753216Y-25538456D01*
X44605646Y-25439853D01*
X44480147Y-25314354D01*
X44381544Y-25166784D01*
X44313624Y-25002812D01*
X44279000Y-24828741D01*
X44279000Y-24651259D01*
X44313624Y-24477188D01*
X44381544Y-24313216D01*
X44480147Y-24165646D01*
X44605646Y-24040147D01*
X44753216Y-23941544D01*
X44917188Y-23873624D01*
X45066488Y-23843927D01*
X45091258Y-23839000D01*
X45268742Y-23839000D01*
X45293512Y-23843927D01*
G37*
G36*
X42753512Y-23843927D02*
G01*
X42902812Y-23873624D01*
X43066784Y-23941544D01*
X43214354Y-24040147D01*
X43339853Y-24165646D01*
X43438456Y-24313216D01*
X43506376Y-24477188D01*
X43541000Y-24651259D01*
X43541000Y-24828741D01*
X43506376Y-25002812D01*
X43438456Y-25166784D01*
X43339853Y-25314354D01*
X43214354Y-25439853D01*
X43066784Y-25538456D01*
X42902812Y-25606376D01*
X42753512Y-25636073D01*
X42728742Y-25641000D01*
X42551258Y-25641000D01*
X42526488Y-25636073D01*
X42377188Y-25606376D01*
X42213216Y-25538456D01*
X42065646Y-25439853D01*
X41940147Y-25314354D01*
X41841544Y-25166784D01*
X41773624Y-25002812D01*
X41739000Y-24828741D01*
X41739000Y-24651259D01*
X41773624Y-24477188D01*
X41841544Y-24313216D01*
X41940147Y-24165646D01*
X42065646Y-24040147D01*
X42213216Y-23941544D01*
X42377188Y-23873624D01*
X42526488Y-23843927D01*
X42551258Y-23839000D01*
X42728742Y-23839000D01*
X42753512Y-23843927D01*
G37*
G36*
X47833512Y-23843927D02*
G01*
X47982812Y-23873624D01*
X48146784Y-23941544D01*
X48294354Y-24040147D01*
X48419853Y-24165646D01*
X48518456Y-24313216D01*
X48586376Y-24477188D01*
X48621000Y-24651259D01*
X48621000Y-24828741D01*
X48586376Y-25002812D01*
X48518456Y-25166784D01*
X48419853Y-25314354D01*
X48294354Y-25439853D01*
X48146784Y-25538456D01*
X47982812Y-25606376D01*
X47833512Y-25636073D01*
X47808742Y-25641000D01*
X47631258Y-25641000D01*
X47606488Y-25636073D01*
X47457188Y-25606376D01*
X47293216Y-25538456D01*
X47145646Y-25439853D01*
X47020147Y-25314354D01*
X46921544Y-25166784D01*
X46853624Y-25002812D01*
X46819000Y-24828741D01*
X46819000Y-24651259D01*
X46853624Y-24477188D01*
X46921544Y-24313216D01*
X47020147Y-24165646D01*
X47145646Y-24040147D01*
X47293216Y-23941544D01*
X47457188Y-23873624D01*
X47606488Y-23843927D01*
X47631258Y-23839000D01*
X47808742Y-23839000D01*
X47833512Y-23843927D01*
G37*
G36*
X40213512Y-23843927D02*
G01*
X40362812Y-23873624D01*
X40526784Y-23941544D01*
X40674354Y-24040147D01*
X40799853Y-24165646D01*
X40898456Y-24313216D01*
X40966376Y-24477188D01*
X41001000Y-24651259D01*
X41001000Y-24828741D01*
X40966376Y-25002812D01*
X40898456Y-25166784D01*
X40799853Y-25314354D01*
X40674354Y-25439853D01*
X40526784Y-25538456D01*
X40362812Y-25606376D01*
X40213512Y-25636073D01*
X40188742Y-25641000D01*
X40011258Y-25641000D01*
X39986488Y-25636073D01*
X39837188Y-25606376D01*
X39673216Y-25538456D01*
X39525646Y-25439853D01*
X39400147Y-25314354D01*
X39301544Y-25166784D01*
X39233624Y-25002812D01*
X39199000Y-24828741D01*
X39199000Y-24651259D01*
X39233624Y-24477188D01*
X39301544Y-24313216D01*
X39400147Y-24165646D01*
X39525646Y-24040147D01*
X39673216Y-23941544D01*
X39837188Y-23873624D01*
X39986488Y-23843927D01*
X40011258Y-23839000D01*
X40188742Y-23839000D01*
X40213512Y-23843927D01*
G37*
G36*
X32201000Y-25251000D02*
G01*
X31399000Y-25251000D01*
X31399000Y-24549000D01*
X32201000Y-24549000D01*
X32201000Y-25251000D01*
G37*
G36*
X32201000Y-23851000D02*
G01*
X31399000Y-23851000D01*
X31399000Y-23149000D01*
X32201000Y-23149000D01*
X32201000Y-23851000D01*
G37*
G36*
X23843512Y-21373927D02*
G01*
X23992812Y-21403624D01*
X24156784Y-21471544D01*
X24304354Y-21570147D01*
X24429853Y-21695646D01*
X24528456Y-21843216D01*
X24596376Y-22007188D01*
X24631000Y-22181259D01*
X24631000Y-22358741D01*
X24596376Y-22532812D01*
X24528456Y-22696784D01*
X24429853Y-22844354D01*
X24304354Y-22969853D01*
X24156784Y-23068456D01*
X23992812Y-23136376D01*
X23843512Y-23166073D01*
X23818742Y-23171000D01*
X23641258Y-23171000D01*
X23616488Y-23166073D01*
X23467188Y-23136376D01*
X23303216Y-23068456D01*
X23155646Y-22969853D01*
X23030147Y-22844354D01*
X22931544Y-22696784D01*
X22863624Y-22532812D01*
X22829000Y-22358741D01*
X22829000Y-22181259D01*
X22863624Y-22007188D01*
X22931544Y-21843216D01*
X23030147Y-21695646D01*
X23155646Y-21570147D01*
X23303216Y-21471544D01*
X23467188Y-21403624D01*
X23616488Y-21373927D01*
X23641258Y-21369000D01*
X23818742Y-21369000D01*
X23843512Y-21373927D01*
G37*
G36*
X28923512Y-21373927D02*
G01*
X29072812Y-21403624D01*
X29236784Y-21471544D01*
X29384354Y-21570147D01*
X29509853Y-21695646D01*
X29608456Y-21843216D01*
X29676376Y-22007188D01*
X29711000Y-22181259D01*
X29711000Y-22358741D01*
X29676376Y-22532812D01*
X29608456Y-22696784D01*
X29509853Y-22844354D01*
X29384354Y-22969853D01*
X29236784Y-23068456D01*
X29072812Y-23136376D01*
X28923512Y-23166073D01*
X28898742Y-23171000D01*
X28721258Y-23171000D01*
X28696488Y-23166073D01*
X28547188Y-23136376D01*
X28383216Y-23068456D01*
X28235646Y-22969853D01*
X28110147Y-22844354D01*
X28011544Y-22696784D01*
X27943624Y-22532812D01*
X27909000Y-22358741D01*
X27909000Y-22181259D01*
X27943624Y-22007188D01*
X28011544Y-21843216D01*
X28110147Y-21695646D01*
X28235646Y-21570147D01*
X28383216Y-21471544D01*
X28547188Y-21403624D01*
X28696488Y-21373927D01*
X28721258Y-21369000D01*
X28898742Y-21369000D01*
X28923512Y-21373927D01*
G37*
G36*
X26383512Y-21373927D02*
G01*
X26532812Y-21403624D01*
X26696784Y-21471544D01*
X26844354Y-21570147D01*
X26969853Y-21695646D01*
X27068456Y-21843216D01*
X27136376Y-22007188D01*
X27171000Y-22181259D01*
X27171000Y-22358741D01*
X27136376Y-22532812D01*
X27068456Y-22696784D01*
X26969853Y-22844354D01*
X26844354Y-22969853D01*
X26696784Y-23068456D01*
X26532812Y-23136376D01*
X26383512Y-23166073D01*
X26358742Y-23171000D01*
X26181258Y-23171000D01*
X26156488Y-23166073D01*
X26007188Y-23136376D01*
X25843216Y-23068456D01*
X25695646Y-22969853D01*
X25570147Y-22844354D01*
X25471544Y-22696784D01*
X25403624Y-22532812D01*
X25369000Y-22358741D01*
X25369000Y-22181259D01*
X25403624Y-22007188D01*
X25471544Y-21843216D01*
X25570147Y-21695646D01*
X25695646Y-21570147D01*
X25843216Y-21471544D01*
X26007188Y-21403624D01*
X26156488Y-21373927D01*
X26181258Y-21369000D01*
X26358742Y-21369000D01*
X26383512Y-21373927D01*
G37*
G36*
X22091000Y-23171000D02*
G01*
X20289000Y-23171000D01*
X20289000Y-21369000D01*
X22091000Y-21369000D01*
X22091000Y-23171000D01*
G37*
G36*
X41001000Y-23101000D02*
G01*
X39199000Y-23101000D01*
X39199000Y-21299000D01*
X41001000Y-21299000D01*
X41001000Y-23101000D01*
G37*
G36*
X45274508Y-21300147D02*
G01*
X45442812Y-21333624D01*
X45606784Y-21401544D01*
X45754354Y-21500147D01*
X45879853Y-21625646D01*
X45978456Y-21773216D01*
X46046376Y-21937188D01*
X46081000Y-22111259D01*
X46081000Y-22288741D01*
X46046376Y-22462812D01*
X45978456Y-22626784D01*
X45879853Y-22774354D01*
X45754354Y-22899853D01*
X45606784Y-22998456D01*
X45442812Y-23066376D01*
X45293512Y-23096073D01*
X45268742Y-23101000D01*
X45091258Y-23101000D01*
X45066488Y-23096073D01*
X44917188Y-23066376D01*
X44753216Y-22998456D01*
X44605646Y-22899853D01*
X44480147Y-22774354D01*
X44381544Y-22626784D01*
X44313624Y-22462812D01*
X44279000Y-22288741D01*
X44279000Y-22111259D01*
X44313624Y-21937188D01*
X44381544Y-21773216D01*
X44480147Y-21625646D01*
X44605646Y-21500147D01*
X44753216Y-21401544D01*
X44917188Y-21333624D01*
X45085492Y-21300147D01*
X45091258Y-21299000D01*
X45268742Y-21299000D01*
X45274508Y-21300147D01*
G37*
G36*
X42734508Y-21300147D02*
G01*
X42902812Y-21333624D01*
X43066784Y-21401544D01*
X43214354Y-21500147D01*
X43339853Y-21625646D01*
X43438456Y-21773216D01*
X43506376Y-21937188D01*
X43541000Y-22111259D01*
X43541000Y-22288741D01*
X43506376Y-22462812D01*
X43438456Y-22626784D01*
X43339853Y-22774354D01*
X43214354Y-22899853D01*
X43066784Y-22998456D01*
X42902812Y-23066376D01*
X42753512Y-23096073D01*
X42728742Y-23101000D01*
X42551258Y-23101000D01*
X42526488Y-23096073D01*
X42377188Y-23066376D01*
X42213216Y-22998456D01*
X42065646Y-22899853D01*
X41940147Y-22774354D01*
X41841544Y-22626784D01*
X41773624Y-22462812D01*
X41739000Y-22288741D01*
X41739000Y-22111259D01*
X41773624Y-21937188D01*
X41841544Y-21773216D01*
X41940147Y-21625646D01*
X42065646Y-21500147D01*
X42213216Y-21401544D01*
X42377188Y-21333624D01*
X42545492Y-21300147D01*
X42551258Y-21299000D01*
X42728742Y-21299000D01*
X42734508Y-21300147D01*
G37*
G36*
X47814508Y-21300147D02*
G01*
X47982812Y-21333624D01*
X48146784Y-21401544D01*
X48294354Y-21500147D01*
X48419853Y-21625646D01*
X48518456Y-21773216D01*
X48586376Y-21937188D01*
X48621000Y-22111259D01*
X48621000Y-22288741D01*
X48586376Y-22462812D01*
X48518456Y-22626784D01*
X48419853Y-22774354D01*
X48294354Y-22899853D01*
X48146784Y-22998456D01*
X47982812Y-23066376D01*
X47833512Y-23096073D01*
X47808742Y-23101000D01*
X47631258Y-23101000D01*
X47606488Y-23096073D01*
X47457188Y-23066376D01*
X47293216Y-22998456D01*
X47145646Y-22899853D01*
X47020147Y-22774354D01*
X46921544Y-22626784D01*
X46853624Y-22462812D01*
X46819000Y-22288741D01*
X46819000Y-22111259D01*
X46853624Y-21937188D01*
X46921544Y-21773216D01*
X47020147Y-21625646D01*
X47145646Y-21500147D01*
X47293216Y-21401544D01*
X47457188Y-21333624D01*
X47625492Y-21300147D01*
X47631258Y-21299000D01*
X47808742Y-21299000D01*
X47814508Y-21300147D01*
G37*
G36*
X7693512Y-21103927D02*
G01*
X7842812Y-21133624D01*
X8006784Y-21201544D01*
X8154354Y-21300147D01*
X8279853Y-21425646D01*
X8378456Y-21573216D01*
X8446376Y-21737188D01*
X8481000Y-21911259D01*
X8481000Y-22088741D01*
X8446376Y-22262812D01*
X8378456Y-22426784D01*
X8279853Y-22574354D01*
X8154354Y-22699853D01*
X8006784Y-22798456D01*
X7842812Y-22866376D01*
X7693512Y-22896073D01*
X7668742Y-22901000D01*
X7491258Y-22901000D01*
X7466488Y-22896073D01*
X7317188Y-22866376D01*
X7153216Y-22798456D01*
X7005646Y-22699853D01*
X6880147Y-22574354D01*
X6781544Y-22426784D01*
X6713624Y-22262812D01*
X6679000Y-22088741D01*
X6679000Y-21911259D01*
X6713624Y-21737188D01*
X6781544Y-21573216D01*
X6880147Y-21425646D01*
X7005646Y-21300147D01*
X7153216Y-21201544D01*
X7317188Y-21133624D01*
X7466488Y-21103927D01*
X7491258Y-21099000D01*
X7668742Y-21099000D01*
X7693512Y-21103927D01*
G37*
G36*
X5153512Y-21103927D02*
G01*
X5302812Y-21133624D01*
X5466784Y-21201544D01*
X5614354Y-21300147D01*
X5739853Y-21425646D01*
X5838456Y-21573216D01*
X5906376Y-21737188D01*
X5941000Y-21911259D01*
X5941000Y-22088741D01*
X5906376Y-22262812D01*
X5838456Y-22426784D01*
X5739853Y-22574354D01*
X5614354Y-22699853D01*
X5466784Y-22798456D01*
X5302812Y-22866376D01*
X5153512Y-22896073D01*
X5128742Y-22901000D01*
X4951258Y-22901000D01*
X4926488Y-22896073D01*
X4777188Y-22866376D01*
X4613216Y-22798456D01*
X4465646Y-22699853D01*
X4340147Y-22574354D01*
X4241544Y-22426784D01*
X4173624Y-22262812D01*
X4139000Y-22088741D01*
X4139000Y-21911259D01*
X4173624Y-21737188D01*
X4241544Y-21573216D01*
X4340147Y-21425646D01*
X4465646Y-21300147D01*
X4613216Y-21201544D01*
X4777188Y-21133624D01*
X4926488Y-21103927D01*
X4951258Y-21099000D01*
X5128742Y-21099000D01*
X5153512Y-21103927D01*
G37*
G36*
X3401000Y-22901000D02*
G01*
X1599000Y-22901000D01*
X1599000Y-21099000D01*
X3401000Y-21099000D01*
X3401000Y-22901000D01*
G37*
G36*
X14479591Y-18103085D02*
G01*
X14513569Y-18113393D01*
X14544890Y-18130134D01*
X14572339Y-18152661D01*
X14594866Y-18180110D01*
X14611607Y-18211431D01*
X14621915Y-18245409D01*
X14626000Y-18286890D01*
X14626000Y-18888110D01*
X14621915Y-18929591D01*
X14611607Y-18963569D01*
X14594866Y-18994890D01*
X14572339Y-19022339D01*
X14544890Y-19044866D01*
X14513569Y-19061607D01*
X14479591Y-19071915D01*
X14438110Y-19076000D01*
X13761890Y-19076000D01*
X13720409Y-19071915D01*
X13686431Y-19061607D01*
X13655110Y-19044866D01*
X13627661Y-19022339D01*
X13605134Y-18994890D01*
X13588393Y-18963569D01*
X13578085Y-18929591D01*
X13574000Y-18888110D01*
X13574000Y-18286890D01*
X13578085Y-18245409D01*
X13588393Y-18211431D01*
X13605134Y-18180110D01*
X13627661Y-18152661D01*
X13655110Y-18130134D01*
X13686431Y-18113393D01*
X13720409Y-18103085D01*
X13761890Y-18099000D01*
X14438110Y-18099000D01*
X14479591Y-18103085D01*
G37*
G36*
X12979591Y-18103085D02*
G01*
X13013569Y-18113393D01*
X13044890Y-18130134D01*
X13072339Y-18152661D01*
X13094866Y-18180110D01*
X13111607Y-18211431D01*
X13121915Y-18245409D01*
X13126000Y-18286890D01*
X13126000Y-18888110D01*
X13121915Y-18929591D01*
X13111607Y-18963569D01*
X13094866Y-18994890D01*
X13072339Y-19022339D01*
X13044890Y-19044866D01*
X13013569Y-19061607D01*
X12979591Y-19071915D01*
X12938110Y-19076000D01*
X12261890Y-19076000D01*
X12220409Y-19071915D01*
X12186431Y-19061607D01*
X12155110Y-19044866D01*
X12127661Y-19022339D01*
X12105134Y-18994890D01*
X12088393Y-18963569D01*
X12078085Y-18929591D01*
X12074000Y-18888110D01*
X12074000Y-18286890D01*
X12078085Y-18245409D01*
X12088393Y-18211431D01*
X12105134Y-18180110D01*
X12127661Y-18152661D01*
X12155110Y-18130134D01*
X12186431Y-18113393D01*
X12220409Y-18103085D01*
X12261890Y-18099000D01*
X12938110Y-18099000D01*
X12979591Y-18103085D01*
G37*
G36*
X11479591Y-18103085D02*
G01*
X11513569Y-18113393D01*
X11544890Y-18130134D01*
X11572339Y-18152661D01*
X11594866Y-18180110D01*
X11611607Y-18211431D01*
X11621915Y-18245409D01*
X11626000Y-18286890D01*
X11626000Y-18888110D01*
X11621915Y-18929591D01*
X11611607Y-18963569D01*
X11594866Y-18994890D01*
X11572339Y-19022339D01*
X11544890Y-19044866D01*
X11513569Y-19061607D01*
X11479591Y-19071915D01*
X11438110Y-19076000D01*
X10761890Y-19076000D01*
X10720409Y-19071915D01*
X10686431Y-19061607D01*
X10655110Y-19044866D01*
X10627661Y-19022339D01*
X10605134Y-18994890D01*
X10588393Y-18963569D01*
X10578085Y-18929591D01*
X10574000Y-18888110D01*
X10574000Y-18286890D01*
X10578085Y-18245409D01*
X10588393Y-18211431D01*
X10605134Y-18180110D01*
X10627661Y-18152661D01*
X10655110Y-18130134D01*
X10686431Y-18113393D01*
X10720409Y-18103085D01*
X10761890Y-18099000D01*
X11438110Y-18099000D01*
X11479591Y-18103085D01*
G37*
G36*
X11479591Y-16528085D02*
G01*
X11513569Y-16538393D01*
X11544890Y-16555134D01*
X11572339Y-16577661D01*
X11594866Y-16605110D01*
X11611607Y-16636431D01*
X11621915Y-16670409D01*
X11626000Y-16711890D01*
X11626000Y-17313110D01*
X11621915Y-17354591D01*
X11611607Y-17388569D01*
X11594866Y-17419890D01*
X11572339Y-17447339D01*
X11544890Y-17469866D01*
X11513569Y-17486607D01*
X11479591Y-17496915D01*
X11438110Y-17501000D01*
X10761890Y-17501000D01*
X10720409Y-17496915D01*
X10686431Y-17486607D01*
X10655110Y-17469866D01*
X10627661Y-17447339D01*
X10605134Y-17419890D01*
X10588393Y-17388569D01*
X10578085Y-17354591D01*
X10574000Y-17313110D01*
X10574000Y-16711890D01*
X10578085Y-16670409D01*
X10588393Y-16636431D01*
X10605134Y-16605110D01*
X10627661Y-16577661D01*
X10655110Y-16555134D01*
X10686431Y-16538393D01*
X10720409Y-16528085D01*
X10761890Y-16524000D01*
X11438110Y-16524000D01*
X11479591Y-16528085D01*
G37*
G36*
X14479591Y-16528085D02*
G01*
X14513569Y-16538393D01*
X14544890Y-16555134D01*
X14572339Y-16577661D01*
X14594866Y-16605110D01*
X14611607Y-16636431D01*
X14621915Y-16670409D01*
X14626000Y-16711890D01*
X14626000Y-17313110D01*
X14621915Y-17354591D01*
X14611607Y-17388569D01*
X14594866Y-17419890D01*
X14572339Y-17447339D01*
X14544890Y-17469866D01*
X14513569Y-17486607D01*
X14479591Y-17496915D01*
X14438110Y-17501000D01*
X13761890Y-17501000D01*
X13720409Y-17496915D01*
X13686431Y-17486607D01*
X13655110Y-17469866D01*
X13627661Y-17447339D01*
X13605134Y-17419890D01*
X13588393Y-17388569D01*
X13578085Y-17354591D01*
X13574000Y-17313110D01*
X13574000Y-16711890D01*
X13578085Y-16670409D01*
X13588393Y-16636431D01*
X13605134Y-16605110D01*
X13627661Y-16577661D01*
X13655110Y-16555134D01*
X13686431Y-16538393D01*
X13720409Y-16528085D01*
X13761890Y-16524000D01*
X14438110Y-16524000D01*
X14479591Y-16528085D01*
G37*
G36*
X12979591Y-16528085D02*
G01*
X13013569Y-16538393D01*
X13044890Y-16555134D01*
X13072339Y-16577661D01*
X13094866Y-16605110D01*
X13111607Y-16636431D01*
X13121915Y-16670409D01*
X13126000Y-16711890D01*
X13126000Y-17313110D01*
X13121915Y-17354591D01*
X13111607Y-17388569D01*
X13094866Y-17419890D01*
X13072339Y-17447339D01*
X13044890Y-17469866D01*
X13013569Y-17486607D01*
X12979591Y-17496915D01*
X12938110Y-17501000D01*
X12261890Y-17501000D01*
X12220409Y-17496915D01*
X12186431Y-17486607D01*
X12155110Y-17469866D01*
X12127661Y-17447339D01*
X12105134Y-17419890D01*
X12088393Y-17388569D01*
X12078085Y-17354591D01*
X12074000Y-17313110D01*
X12074000Y-16711890D01*
X12078085Y-16670409D01*
X12088393Y-16636431D01*
X12105134Y-16605110D01*
X12127661Y-16577661D01*
X12155110Y-16555134D01*
X12186431Y-16538393D01*
X12220409Y-16528085D01*
X12261890Y-16524000D01*
X12938110Y-16524000D01*
X12979591Y-16528085D01*
G37*
G36*
X13251000Y-15601000D02*
G01*
X12349000Y-15601000D01*
X12349000Y-14499000D01*
X13251000Y-14499000D01*
X13251000Y-15601000D01*
G37*
G36*
X11851000Y-15601000D02*
G01*
X10949000Y-15601000D01*
X10949000Y-14499000D01*
X11851000Y-14499000D01*
X11851000Y-15601000D01*
G37*
G36*
X13251000Y-13101000D02*
G01*
X12349000Y-13101000D01*
X12349000Y-11999000D01*
X13251000Y-11999000D01*
X13251000Y-13101000D01*
G37*
G36*
X11851000Y-13101000D02*
G01*
X10949000Y-13101000D01*
X10949000Y-11999000D01*
X11851000Y-11999000D01*
X11851000Y-13101000D01*
G37*
M02*
