G04 #@! TF.GenerationSoftware,KiCad,Pcbnew,5.1.5+dfsg1-2build2*
G04 #@! TF.CreationDate,2021-03-01T21:19:45+01:00*
G04 #@! TF.ProjectId,time2time,74696d65-3274-4696-9d65-2e6b69636164,V1.0*
G04 #@! TF.SameCoordinates,PX7735940PY3473bc0*
G04 #@! TF.FileFunction,Legend,Bot*
G04 #@! TF.FilePolarity,Positive*
%FSLAX46Y46*%
G04 Gerber Fmt 4.6, Leading zero omitted, Abs format (unit mm)*
G04 Created by KiCad (PCBNEW 5.1.5+dfsg1-2build2) date 2021-03-01 21:19:45*
%MOMM*%
%LPD*%
G04 APERTURE LIST*
%ADD10C,0.150000*%
%ADD11C,0.200000*%
%ADD12C,0.250000*%
%ADD13C,0.120000*%
%ADD14R,1.702000X1.702000*%
%ADD15C,1.702000*%
%ADD16C,1.552000*%
%ADD17O,1.302000X2.002000*%
%ADD18C,0.100000*%
%ADD19O,1.302000X1.852000*%
%ADD20R,1.802000X1.802000*%
%ADD21O,1.802000X1.802000*%
%ADD22R,1.602000X1.102000*%
%ADD23C,1.602000*%
%ADD24R,1.602000X2.602000*%
%ADD25O,1.602000X2.602000*%
%ADD26O,2.302000X3.602000*%
G04 APERTURE END LIST*
D10*
G36*
X37550000Y-45800000D02*
G01*
X29550000Y-45800000D01*
X29550000Y-37800000D01*
X37550000Y-37800000D01*
X37550000Y-45800000D01*
G37*
X37550000Y-45800000D02*
X29550000Y-45800000D01*
X29550000Y-37800000D01*
X37550000Y-37800000D01*
X37550000Y-45800000D01*
D11*
X8000000Y-23842857D02*
X7600000Y-25042857D01*
X7200000Y-23842857D01*
X5342857Y-24985714D02*
X5171428Y-25042857D01*
X4885714Y-25042857D01*
X4771428Y-24985714D01*
X4714285Y-24928571D01*
X4657142Y-24814285D01*
X4657142Y-24700000D01*
X4714285Y-24585714D01*
X4771428Y-24528571D01*
X4885714Y-24471428D01*
X5114285Y-24414285D01*
X5228571Y-24357142D01*
X5285714Y-24300000D01*
X5342857Y-24185714D01*
X5342857Y-24071428D01*
X5285714Y-23957142D01*
X5228571Y-23900000D01*
X5114285Y-23842857D01*
X4828571Y-23842857D01*
X4657142Y-23900000D01*
X2185714Y-23950000D02*
X2300000Y-23892857D01*
X2471428Y-23892857D01*
X2642857Y-23950000D01*
X2757142Y-24064285D01*
X2814285Y-24178571D01*
X2871428Y-24407142D01*
X2871428Y-24578571D01*
X2814285Y-24807142D01*
X2757142Y-24921428D01*
X2642857Y-25035714D01*
X2471428Y-25092857D01*
X2357142Y-25092857D01*
X2185714Y-25035714D01*
X2128571Y-24978571D01*
X2128571Y-24578571D01*
X2357142Y-24578571D01*
D12*
X38433333Y-7300000D02*
X37900000Y-7300000D01*
X38233333Y-6833333D02*
X38233333Y-8033333D01*
X38166666Y-8166666D01*
X38033333Y-8233333D01*
X37900000Y-8233333D01*
X37433333Y-8233333D02*
X37433333Y-7300000D01*
X37433333Y-6833333D02*
X37500000Y-6900000D01*
X37433333Y-6966666D01*
X37366666Y-6900000D01*
X37433333Y-6833333D01*
X37433333Y-6966666D01*
X36766666Y-8233333D02*
X36766666Y-7300000D01*
X36766666Y-7433333D02*
X36700000Y-7366666D01*
X36566666Y-7300000D01*
X36366666Y-7300000D01*
X36233333Y-7366666D01*
X36166666Y-7500000D01*
X36166666Y-8233333D01*
X36166666Y-7500000D02*
X36100000Y-7366666D01*
X35966666Y-7300000D01*
X35766666Y-7300000D01*
X35633333Y-7366666D01*
X35566666Y-7500000D01*
X35566666Y-8233333D01*
X34366666Y-8166666D02*
X34500000Y-8233333D01*
X34766666Y-8233333D01*
X34900000Y-8166666D01*
X34966666Y-8033333D01*
X34966666Y-7500000D01*
X34900000Y-7366666D01*
X34766666Y-7300000D01*
X34500000Y-7300000D01*
X34366666Y-7366666D01*
X34300000Y-7500000D01*
X34300000Y-7633333D01*
X34966666Y-7766666D01*
X33766666Y-6966666D02*
X33700000Y-6900000D01*
X33566666Y-6833333D01*
X33233333Y-6833333D01*
X33100000Y-6900000D01*
X33033333Y-6966666D01*
X32966666Y-7100000D01*
X32966666Y-7233333D01*
X33033333Y-7433333D01*
X33833333Y-8233333D01*
X32966666Y-8233333D01*
X32566666Y-7300000D02*
X32033333Y-7300000D01*
X32366666Y-6833333D02*
X32366666Y-8033333D01*
X32300000Y-8166666D01*
X32166666Y-8233333D01*
X32033333Y-8233333D01*
X31566666Y-8233333D02*
X31566666Y-7300000D01*
X31566666Y-6833333D02*
X31633333Y-6900000D01*
X31566666Y-6966666D01*
X31500000Y-6900000D01*
X31566666Y-6833333D01*
X31566666Y-6966666D01*
X30900000Y-8233333D02*
X30900000Y-7300000D01*
X30900000Y-7433333D02*
X30833333Y-7366666D01*
X30700000Y-7300000D01*
X30500000Y-7300000D01*
X30366666Y-7366666D01*
X30300000Y-7500000D01*
X30300000Y-8233333D01*
X30300000Y-7500000D02*
X30233333Y-7366666D01*
X30100000Y-7300000D01*
X29900000Y-7300000D01*
X29766666Y-7366666D01*
X29700000Y-7500000D01*
X29700000Y-8233333D01*
X28500000Y-8166666D02*
X28633333Y-8233333D01*
X28900000Y-8233333D01*
X29033333Y-8166666D01*
X29100000Y-8033333D01*
X29100000Y-7500000D01*
X29033333Y-7366666D01*
X28900000Y-7300000D01*
X28633333Y-7300000D01*
X28500000Y-7366666D01*
X28433333Y-7500000D01*
X28433333Y-7633333D01*
X29100000Y-7766666D01*
X26766666Y-7300000D02*
X26766666Y-8700000D01*
X26766666Y-7366666D02*
X26633333Y-7300000D01*
X26366666Y-7300000D01*
X26233333Y-7366666D01*
X26166666Y-7433333D01*
X26100000Y-7566666D01*
X26100000Y-7966666D01*
X26166666Y-8100000D01*
X26233333Y-8166666D01*
X26366666Y-8233333D01*
X26633333Y-8233333D01*
X26766666Y-8166666D01*
X25500000Y-8233333D02*
X25500000Y-7300000D01*
X25500000Y-7566666D02*
X25433333Y-7433333D01*
X25366666Y-7366666D01*
X25233333Y-7300000D01*
X25100000Y-7300000D01*
X24433333Y-8233333D02*
X24566666Y-8166666D01*
X24633333Y-8100000D01*
X24700000Y-7966666D01*
X24700000Y-7566666D01*
X24633333Y-7433333D01*
X24566666Y-7366666D01*
X24433333Y-7300000D01*
X24233333Y-7300000D01*
X24100000Y-7366666D01*
X24033333Y-7433333D01*
X23966666Y-7566666D01*
X23966666Y-7966666D01*
X24033333Y-8100000D01*
X24100000Y-8166666D01*
X24233333Y-8233333D01*
X24433333Y-8233333D01*
X23366666Y-7300000D02*
X23366666Y-8500000D01*
X23433333Y-8633333D01*
X23566666Y-8700000D01*
X23633333Y-8700000D01*
X23366666Y-6833333D02*
X23433333Y-6900000D01*
X23366666Y-6966666D01*
X23300000Y-6900000D01*
X23366666Y-6833333D01*
X23366666Y-6966666D01*
X22166666Y-8166666D02*
X22300000Y-8233333D01*
X22566666Y-8233333D01*
X22700000Y-8166666D01*
X22766666Y-8033333D01*
X22766666Y-7500000D01*
X22700000Y-7366666D01*
X22566666Y-7300000D01*
X22300000Y-7300000D01*
X22166666Y-7366666D01*
X22100000Y-7500000D01*
X22100000Y-7633333D01*
X22766666Y-7766666D01*
X20900000Y-8166666D02*
X21033333Y-8233333D01*
X21300000Y-8233333D01*
X21433333Y-8166666D01*
X21500000Y-8100000D01*
X21566666Y-7966666D01*
X21566666Y-7566666D01*
X21500000Y-7433333D01*
X21433333Y-7366666D01*
X21300000Y-7300000D01*
X21033333Y-7300000D01*
X20900000Y-7366666D01*
X20500000Y-7300000D02*
X19966666Y-7300000D01*
X20300000Y-6833333D02*
X20300000Y-8033333D01*
X20233333Y-8166666D01*
X20100000Y-8233333D01*
X19966666Y-8233333D01*
X18433333Y-7700000D02*
X17366666Y-7700000D01*
X15833333Y-6833333D02*
X15366666Y-8233333D01*
X14900000Y-6833333D01*
X13700000Y-8233333D02*
X14500000Y-8233333D01*
X14100000Y-8233333D02*
X14100000Y-6833333D01*
X14233333Y-7033333D01*
X14366666Y-7166666D01*
X14500000Y-7233333D01*
X13100000Y-8100000D02*
X13033333Y-8166666D01*
X13100000Y-8233333D01*
X13166666Y-8166666D01*
X13100000Y-8100000D01*
X13100000Y-8233333D01*
X11700000Y-8233333D02*
X12500000Y-8233333D01*
X12100000Y-8233333D02*
X12100000Y-6833333D01*
X12233333Y-7033333D01*
X12366666Y-7166666D01*
X12500000Y-7233333D01*
X34433333Y-10583333D02*
X34433333Y-9183333D01*
X34100000Y-9183333D01*
X33900000Y-9250000D01*
X33766666Y-9383333D01*
X33700000Y-9516666D01*
X33633333Y-9783333D01*
X33633333Y-9983333D01*
X33700000Y-10250000D01*
X33766666Y-10383333D01*
X33900000Y-10516666D01*
X34100000Y-10583333D01*
X34433333Y-10583333D01*
X32500000Y-10516666D02*
X32633333Y-10583333D01*
X32900000Y-10583333D01*
X33033333Y-10516666D01*
X33100000Y-10383333D01*
X33100000Y-9850000D01*
X33033333Y-9716666D01*
X32900000Y-9650000D01*
X32633333Y-9650000D01*
X32500000Y-9716666D01*
X32433333Y-9850000D01*
X32433333Y-9983333D01*
X33100000Y-10116666D01*
X31900000Y-10516666D02*
X31766666Y-10583333D01*
X31500000Y-10583333D01*
X31366666Y-10516666D01*
X31300000Y-10383333D01*
X31300000Y-10316666D01*
X31366666Y-10183333D01*
X31500000Y-10116666D01*
X31700000Y-10116666D01*
X31833333Y-10050000D01*
X31900000Y-9916666D01*
X31900000Y-9850000D01*
X31833333Y-9716666D01*
X31700000Y-9650000D01*
X31500000Y-9650000D01*
X31366666Y-9716666D01*
X30700000Y-10583333D02*
X30700000Y-9650000D01*
X30700000Y-9183333D02*
X30766666Y-9250000D01*
X30700000Y-9316666D01*
X30633333Y-9250000D01*
X30700000Y-9183333D01*
X30700000Y-9316666D01*
X29433333Y-9650000D02*
X29433333Y-10783333D01*
X29500000Y-10916666D01*
X29566666Y-10983333D01*
X29700000Y-11050000D01*
X29900000Y-11050000D01*
X30033333Y-10983333D01*
X29433333Y-10516666D02*
X29566666Y-10583333D01*
X29833333Y-10583333D01*
X29966666Y-10516666D01*
X30033333Y-10450000D01*
X30100000Y-10316666D01*
X30100000Y-9916666D01*
X30033333Y-9783333D01*
X29966666Y-9716666D01*
X29833333Y-9650000D01*
X29566666Y-9650000D01*
X29433333Y-9716666D01*
X28766666Y-9650000D02*
X28766666Y-10583333D01*
X28766666Y-9783333D02*
X28700000Y-9716666D01*
X28566666Y-9650000D01*
X28366666Y-9650000D01*
X28233333Y-9716666D01*
X28166666Y-9850000D01*
X28166666Y-10583333D01*
X26966666Y-10516666D02*
X27100000Y-10583333D01*
X27366666Y-10583333D01*
X27500000Y-10516666D01*
X27566666Y-10383333D01*
X27566666Y-9850000D01*
X27500000Y-9716666D01*
X27366666Y-9650000D01*
X27100000Y-9650000D01*
X26966666Y-9716666D01*
X26900000Y-9850000D01*
X26900000Y-9983333D01*
X27566666Y-10116666D01*
X25700000Y-10583333D02*
X25700000Y-9183333D01*
X25700000Y-10516666D02*
X25833333Y-10583333D01*
X26100000Y-10583333D01*
X26233333Y-10516666D01*
X26300000Y-10450000D01*
X26366666Y-10316666D01*
X26366666Y-9916666D01*
X26300000Y-9783333D01*
X26233333Y-9716666D01*
X26100000Y-9650000D01*
X25833333Y-9650000D01*
X25700000Y-9716666D01*
X23966666Y-10583333D02*
X23966666Y-9183333D01*
X23966666Y-9716666D02*
X23833333Y-9650000D01*
X23566666Y-9650000D01*
X23433333Y-9716666D01*
X23366666Y-9783333D01*
X23300000Y-9916666D01*
X23300000Y-10316666D01*
X23366666Y-10450000D01*
X23433333Y-10516666D01*
X23566666Y-10583333D01*
X23833333Y-10583333D01*
X23966666Y-10516666D01*
X22833333Y-9650000D02*
X22500000Y-10583333D01*
X22166666Y-9650000D02*
X22500000Y-10583333D01*
X22633333Y-10916666D01*
X22700000Y-10983333D01*
X22833333Y-11050000D01*
X19766666Y-10583333D02*
X20233333Y-9916666D01*
X20566666Y-10583333D02*
X20566666Y-9183333D01*
X20033333Y-9183333D01*
X19900000Y-9250000D01*
X19833333Y-9316666D01*
X19766666Y-9450000D01*
X19766666Y-9650000D01*
X19833333Y-9783333D01*
X19900000Y-9850000D01*
X20033333Y-9916666D01*
X20566666Y-9916666D01*
X18633333Y-10516666D02*
X18766666Y-10583333D01*
X19033333Y-10583333D01*
X19166666Y-10516666D01*
X19233333Y-10383333D01*
X19233333Y-9850000D01*
X19166666Y-9716666D01*
X19033333Y-9650000D01*
X18766666Y-9650000D01*
X18633333Y-9716666D01*
X18566666Y-9850000D01*
X18566666Y-9983333D01*
X19233333Y-10116666D01*
X18033333Y-10516666D02*
X17900000Y-10583333D01*
X17633333Y-10583333D01*
X17500000Y-10516666D01*
X17433333Y-10383333D01*
X17433333Y-10316666D01*
X17500000Y-10183333D01*
X17633333Y-10116666D01*
X17833333Y-10116666D01*
X17966666Y-10050000D01*
X18033333Y-9916666D01*
X18033333Y-9850000D01*
X17966666Y-9716666D01*
X17833333Y-9650000D01*
X17633333Y-9650000D01*
X17500000Y-9716666D01*
X16233333Y-10583333D02*
X16233333Y-9850000D01*
X16300000Y-9716666D01*
X16433333Y-9650000D01*
X16700000Y-9650000D01*
X16833333Y-9716666D01*
X16233333Y-10516666D02*
X16366666Y-10583333D01*
X16700000Y-10583333D01*
X16833333Y-10516666D01*
X16900000Y-10383333D01*
X16900000Y-10250000D01*
X16833333Y-10116666D01*
X16700000Y-10050000D01*
X16366666Y-10050000D01*
X16233333Y-9983333D01*
X15566666Y-9650000D02*
X15566666Y-10850000D01*
X15633333Y-10983333D01*
X15766666Y-11050000D01*
X15833333Y-11050000D01*
X15566666Y-9183333D02*
X15633333Y-9250000D01*
X15566666Y-9316666D01*
X15500000Y-9250000D01*
X15566666Y-9183333D01*
X15566666Y-9316666D01*
X39066666Y-12933333D02*
X39066666Y-11533333D01*
X38533333Y-11533333D01*
X38400000Y-11600000D01*
X38333333Y-11666666D01*
X38266666Y-11800000D01*
X38266666Y-12000000D01*
X38333333Y-12133333D01*
X38400000Y-12200000D01*
X38533333Y-12266666D01*
X39066666Y-12266666D01*
X37066666Y-12000000D02*
X37066666Y-12933333D01*
X37666666Y-12000000D02*
X37666666Y-12733333D01*
X37600000Y-12866666D01*
X37466666Y-12933333D01*
X37266666Y-12933333D01*
X37133333Y-12866666D01*
X37066666Y-12800000D01*
X36400000Y-12933333D02*
X36400000Y-12000000D01*
X36400000Y-12133333D02*
X36333333Y-12066666D01*
X36200000Y-12000000D01*
X36000000Y-12000000D01*
X35866666Y-12066666D01*
X35800000Y-12200000D01*
X35800000Y-12933333D01*
X35800000Y-12200000D02*
X35733333Y-12066666D01*
X35600000Y-12000000D01*
X35400000Y-12000000D01*
X35266666Y-12066666D01*
X35200000Y-12200000D01*
X35200000Y-12933333D01*
X33933333Y-12933333D02*
X33933333Y-12200000D01*
X34000000Y-12066666D01*
X34133333Y-12000000D01*
X34400000Y-12000000D01*
X34533333Y-12066666D01*
X33933333Y-12866666D02*
X34066666Y-12933333D01*
X34400000Y-12933333D01*
X34533333Y-12866666D01*
X34600000Y-12733333D01*
X34600000Y-12600000D01*
X34533333Y-12466666D01*
X34400000Y-12400000D01*
X34066666Y-12400000D01*
X33933333Y-12333333D01*
X32200000Y-12933333D02*
X32200000Y-11533333D01*
X31666666Y-11533333D01*
X31533333Y-11600000D01*
X31466666Y-11666666D01*
X31400000Y-11800000D01*
X31400000Y-12000000D01*
X31466666Y-12133333D01*
X31533333Y-12200000D01*
X31666666Y-12266666D01*
X32200000Y-12266666D01*
X30800000Y-12933333D02*
X30800000Y-12000000D01*
X30800000Y-12266666D02*
X30733333Y-12133333D01*
X30666666Y-12066666D01*
X30533333Y-12000000D01*
X30400000Y-12000000D01*
X29933333Y-12933333D02*
X29933333Y-12000000D01*
X29933333Y-11533333D02*
X30000000Y-11600000D01*
X29933333Y-11666666D01*
X29866666Y-11600000D01*
X29933333Y-11533333D01*
X29933333Y-11666666D01*
X28666666Y-12933333D02*
X28666666Y-11533333D01*
X28666666Y-12866666D02*
X28800000Y-12933333D01*
X29066666Y-12933333D01*
X29200000Y-12866666D01*
X29266666Y-12800000D01*
X29333333Y-12666666D01*
X29333333Y-12266666D01*
X29266666Y-12133333D01*
X29200000Y-12066666D01*
X29066666Y-12000000D01*
X28800000Y-12000000D01*
X28666666Y-12066666D01*
X27466666Y-12866666D02*
X27600000Y-12933333D01*
X27866666Y-12933333D01*
X28000000Y-12866666D01*
X28066666Y-12733333D01*
X28066666Y-12200000D01*
X28000000Y-12066666D01*
X27866666Y-12000000D01*
X27600000Y-12000000D01*
X27466666Y-12066666D01*
X27400000Y-12200000D01*
X27400000Y-12333333D01*
X28066666Y-12466666D01*
X24933333Y-12933333D02*
X25400000Y-12266666D01*
X25733333Y-12933333D02*
X25733333Y-11533333D01*
X25200000Y-11533333D01*
X25066666Y-11600000D01*
X25000000Y-11666666D01*
X24933333Y-11800000D01*
X24933333Y-12000000D01*
X25000000Y-12133333D01*
X25066666Y-12200000D01*
X25200000Y-12266666D01*
X25733333Y-12266666D01*
X24133333Y-12933333D02*
X24266666Y-12866666D01*
X24333333Y-12800000D01*
X24400000Y-12666666D01*
X24400000Y-12266666D01*
X24333333Y-12133333D01*
X24266666Y-12066666D01*
X24133333Y-12000000D01*
X23933333Y-12000000D01*
X23800000Y-12066666D01*
X23733333Y-12133333D01*
X23666666Y-12266666D01*
X23666666Y-12666666D01*
X23733333Y-12800000D01*
X23800000Y-12866666D01*
X23933333Y-12933333D01*
X24133333Y-12933333D01*
X23066666Y-12933333D02*
X23066666Y-11533333D01*
X23066666Y-12066666D02*
X22933333Y-12000000D01*
X22666666Y-12000000D01*
X22533333Y-12066666D01*
X22466666Y-12133333D01*
X22400000Y-12266666D01*
X22400000Y-12666666D01*
X22466666Y-12800000D01*
X22533333Y-12866666D01*
X22666666Y-12933333D01*
X22933333Y-12933333D01*
X23066666Y-12866666D01*
X21600000Y-12933333D02*
X21733333Y-12866666D01*
X21800000Y-12800000D01*
X21866666Y-12666666D01*
X21866666Y-12266666D01*
X21800000Y-12133333D01*
X21733333Y-12066666D01*
X21600000Y-12000000D01*
X21400000Y-12000000D01*
X21266666Y-12066666D01*
X21200000Y-12133333D01*
X21133333Y-12266666D01*
X21133333Y-12666666D01*
X21200000Y-12800000D01*
X21266666Y-12866666D01*
X21400000Y-12933333D01*
X21600000Y-12933333D01*
X20733333Y-12000000D02*
X20200000Y-12000000D01*
X20533333Y-11533333D02*
X20533333Y-12733333D01*
X20466666Y-12866666D01*
X20333333Y-12933333D01*
X20200000Y-12933333D01*
X19733333Y-12933333D02*
X19733333Y-12000000D01*
X19733333Y-11533333D02*
X19800000Y-11600000D01*
X19733333Y-11666666D01*
X19666666Y-11600000D01*
X19733333Y-11533333D01*
X19733333Y-11666666D01*
X18466666Y-12866666D02*
X18600000Y-12933333D01*
X18866666Y-12933333D01*
X19000000Y-12866666D01*
X19066666Y-12800000D01*
X19133333Y-12666666D01*
X19133333Y-12266666D01*
X19066666Y-12133333D01*
X19000000Y-12066666D01*
X18866666Y-12000000D01*
X18600000Y-12000000D01*
X18466666Y-12066666D01*
X17933333Y-12866666D02*
X17800000Y-12933333D01*
X17533333Y-12933333D01*
X17400000Y-12866666D01*
X17333333Y-12733333D01*
X17333333Y-12666666D01*
X17400000Y-12533333D01*
X17533333Y-12466666D01*
X17733333Y-12466666D01*
X17866666Y-12400000D01*
X17933333Y-12266666D01*
X17933333Y-12200000D01*
X17866666Y-12066666D01*
X17733333Y-12000000D01*
X17533333Y-12000000D01*
X17400000Y-12066666D01*
X15866666Y-11533333D02*
X15066666Y-11533333D01*
X15466666Y-12933333D02*
X15466666Y-11533333D01*
X14066666Y-12866666D02*
X14200000Y-12933333D01*
X14466666Y-12933333D01*
X14600000Y-12866666D01*
X14666666Y-12733333D01*
X14666666Y-12200000D01*
X14600000Y-12066666D01*
X14466666Y-12000000D01*
X14200000Y-12000000D01*
X14066666Y-12066666D01*
X14000000Y-12200000D01*
X14000000Y-12333333D01*
X14666666Y-12466666D01*
X12800000Y-12933333D02*
X12800000Y-12200000D01*
X12866666Y-12066666D01*
X13000000Y-12000000D01*
X13266666Y-12000000D01*
X13400000Y-12066666D01*
X12800000Y-12866666D02*
X12933333Y-12933333D01*
X13266666Y-12933333D01*
X13400000Y-12866666D01*
X13466666Y-12733333D01*
X13466666Y-12600000D01*
X13400000Y-12466666D01*
X13266666Y-12400000D01*
X12933333Y-12400000D01*
X12800000Y-12333333D01*
X12133333Y-12933333D02*
X12133333Y-12000000D01*
X12133333Y-12133333D02*
X12066666Y-12066666D01*
X11933333Y-12000000D01*
X11733333Y-12000000D01*
X11600000Y-12066666D01*
X11533333Y-12200000D01*
X11533333Y-12933333D01*
X11533333Y-12200000D02*
X11466666Y-12066666D01*
X11333333Y-12000000D01*
X11133333Y-12000000D01*
X11000000Y-12066666D01*
X10933333Y-12200000D01*
X10933333Y-12933333D01*
D11*
X39147619Y-40752380D02*
X39052380Y-40752380D01*
X38957142Y-40800000D01*
X38909523Y-40847619D01*
X38861904Y-40942857D01*
X38814285Y-41133333D01*
X38814285Y-41371428D01*
X38861904Y-41561904D01*
X38909523Y-41657142D01*
X38957142Y-41704761D01*
X39052380Y-41752380D01*
X39147619Y-41752380D01*
X39242857Y-41704761D01*
X39290476Y-41657142D01*
X39338095Y-41561904D01*
X39385714Y-41371428D01*
X39385714Y-41133333D01*
X39338095Y-40942857D01*
X39290476Y-40847619D01*
X39242857Y-40800000D01*
X39147619Y-40752380D01*
X39480952Y-40071428D02*
X38719047Y-40071428D01*
X38814285Y-39152380D02*
X39385714Y-39152380D01*
X39100000Y-39152380D02*
X39100000Y-38152380D01*
X39195238Y-38295238D01*
X39290476Y-38390476D01*
X39385714Y-38438095D01*
X46733333Y-37183333D02*
X46733333Y-35783333D01*
X46400000Y-35783333D01*
X46200000Y-35850000D01*
X46066666Y-35983333D01*
X46000000Y-36116666D01*
X45933333Y-36383333D01*
X45933333Y-36583333D01*
X46000000Y-36850000D01*
X46066666Y-36983333D01*
X46200000Y-37116666D01*
X46400000Y-37183333D01*
X46733333Y-37183333D01*
X44800000Y-37116666D02*
X44933333Y-37183333D01*
X45200000Y-37183333D01*
X45333333Y-37116666D01*
X45400000Y-36983333D01*
X45400000Y-36450000D01*
X45333333Y-36316666D01*
X45200000Y-36250000D01*
X44933333Y-36250000D01*
X44800000Y-36316666D01*
X44733333Y-36450000D01*
X44733333Y-36583333D01*
X45400000Y-36716666D01*
X44266666Y-36250000D02*
X43933333Y-37183333D01*
X43600000Y-36250000D01*
X43066666Y-37183333D02*
X43066666Y-36250000D01*
X43066666Y-35783333D02*
X43133333Y-35850000D01*
X43066666Y-35916666D01*
X43000000Y-35850000D01*
X43066666Y-35783333D01*
X43066666Y-35916666D01*
X41800000Y-37116666D02*
X41933333Y-37183333D01*
X42200000Y-37183333D01*
X42333333Y-37116666D01*
X42400000Y-37050000D01*
X42466666Y-36916666D01*
X42466666Y-36516666D01*
X42400000Y-36383333D01*
X42333333Y-36316666D01*
X42200000Y-36250000D01*
X41933333Y-36250000D01*
X41800000Y-36316666D01*
X40666666Y-37116666D02*
X40800000Y-37183333D01*
X41066666Y-37183333D01*
X41200000Y-37116666D01*
X41266666Y-36983333D01*
X41266666Y-36450000D01*
X41200000Y-36316666D01*
X41066666Y-36250000D01*
X40800000Y-36250000D01*
X40666666Y-36316666D01*
X40600000Y-36450000D01*
X40600000Y-36583333D01*
X41266666Y-36716666D01*
X38333333Y-37183333D02*
X38333333Y-36450000D01*
X38400000Y-36316666D01*
X38533333Y-36250000D01*
X38800000Y-36250000D01*
X38933333Y-36316666D01*
X38333333Y-37116666D02*
X38466666Y-37183333D01*
X38800000Y-37183333D01*
X38933333Y-37116666D01*
X39000000Y-36983333D01*
X39000000Y-36850000D01*
X38933333Y-36716666D01*
X38800000Y-36650000D01*
X38466666Y-36650000D01*
X38333333Y-36583333D01*
X37066666Y-37183333D02*
X37066666Y-35783333D01*
X37066666Y-37116666D02*
X37200000Y-37183333D01*
X37466666Y-37183333D01*
X37600000Y-37116666D01*
X37666666Y-37050000D01*
X37733333Y-36916666D01*
X37733333Y-36516666D01*
X37666666Y-36383333D01*
X37600000Y-36316666D01*
X37466666Y-36250000D01*
X37200000Y-36250000D01*
X37066666Y-36316666D01*
X35800000Y-37183333D02*
X35800000Y-35783333D01*
X35800000Y-37116666D02*
X35933333Y-37183333D01*
X36200000Y-37183333D01*
X36333333Y-37116666D01*
X36400000Y-37050000D01*
X36466666Y-36916666D01*
X36466666Y-36516666D01*
X36400000Y-36383333D01*
X36333333Y-36316666D01*
X36200000Y-36250000D01*
X35933333Y-36250000D01*
X35800000Y-36316666D01*
X35133333Y-37183333D02*
X35133333Y-36250000D01*
X35133333Y-36516666D02*
X35066666Y-36383333D01*
X35000000Y-36316666D01*
X34866666Y-36250000D01*
X34733333Y-36250000D01*
X33733333Y-37116666D02*
X33866666Y-37183333D01*
X34133333Y-37183333D01*
X34266666Y-37116666D01*
X34333333Y-36983333D01*
X34333333Y-36450000D01*
X34266666Y-36316666D01*
X34133333Y-36250000D01*
X33866666Y-36250000D01*
X33733333Y-36316666D01*
X33666666Y-36450000D01*
X33666666Y-36583333D01*
X34333333Y-36716666D01*
X33133333Y-37116666D02*
X33000000Y-37183333D01*
X32733333Y-37183333D01*
X32600000Y-37116666D01*
X32533333Y-36983333D01*
X32533333Y-36916666D01*
X32600000Y-36783333D01*
X32733333Y-36716666D01*
X32933333Y-36716666D01*
X33066666Y-36650000D01*
X33133333Y-36516666D01*
X33133333Y-36450000D01*
X33066666Y-36316666D01*
X32933333Y-36250000D01*
X32733333Y-36250000D01*
X32600000Y-36316666D01*
X32000000Y-37116666D02*
X31866666Y-37183333D01*
X31600000Y-37183333D01*
X31466666Y-37116666D01*
X31400000Y-36983333D01*
X31400000Y-36916666D01*
X31466666Y-36783333D01*
X31600000Y-36716666D01*
X31800000Y-36716666D01*
X31933333Y-36650000D01*
X32000000Y-36516666D01*
X32000000Y-36450000D01*
X31933333Y-36316666D01*
X31800000Y-36250000D01*
X31600000Y-36250000D01*
X31466666Y-36316666D01*
D10*
X50000000Y-68000000D02*
G75*
G02X48000000Y-70000000I-2000000J0D01*
G01*
X2000000Y-70000000D02*
G75*
G02X0Y-68000000I0J2000000D01*
G01*
X9500000Y-20000000D02*
X9500000Y-18000000D01*
X0Y-22000000D02*
G75*
G02X2000000Y-20000000I2000000J0D01*
G01*
X9500000Y-18000000D02*
G75*
G02X7500000Y-20000000I-2000000J0D01*
G01*
X42500000Y-20000000D02*
G75*
G02X40500000Y-18000000I0J2000000D01*
G01*
X48000000Y-20000000D02*
G75*
G02X50000000Y-22000000I0J-2000000D01*
G01*
X37700000Y0D02*
G75*
G02X40500000Y-2800000I0J-2800000D01*
G01*
X9500000Y-2800000D02*
G75*
G02X12300000Y0I2800000J0D01*
G01*
X42500000Y-20000000D02*
X48000000Y-20000000D01*
X9500000Y-2800000D02*
X9500000Y-18000000D01*
X37700000Y0D02*
X12300000Y0D01*
X40500000Y-18000000D02*
X40500000Y-2800000D01*
X40500000Y-14000000D02*
X30500000Y-20000000D01*
X30500000Y-20000000D02*
X9500000Y-20000000D01*
X36600000Y-23000000D02*
G75*
G03X36600000Y-23000000I-1100000J0D01*
G01*
X15600000Y-23000000D02*
G75*
G03X15600000Y-23000000I-1100000J0D01*
G01*
X39300000Y-3000000D02*
G75*
G03X39300000Y-3000000I-1600000J0D01*
G01*
X13900000Y-3000000D02*
G75*
G03X13900000Y-3000000I-1600000J0D01*
G01*
X0Y-22000000D02*
X0Y-68000000D01*
X7500000Y-20000000D02*
X2000000Y-20000000D01*
X50000000Y-68000000D02*
X50000000Y-22000000D01*
X2000000Y-70000000D02*
X48000000Y-70000000D01*
D13*
X49170000Y-66450000D02*
G75*
G03X49170000Y-66450000I-3270000J0D01*
G01*
X42670000Y-66450000D02*
X49130000Y-66450000D01*
X42670000Y-66490000D02*
X49130000Y-66490000D01*
X42670000Y-66530000D02*
X49130000Y-66530000D01*
X42672000Y-66570000D02*
X49128000Y-66570000D01*
X42673000Y-66610000D02*
X49127000Y-66610000D01*
X42676000Y-66650000D02*
X49124000Y-66650000D01*
X42678000Y-66690000D02*
X44860000Y-66690000D01*
X46940000Y-66690000D02*
X49122000Y-66690000D01*
X42682000Y-66730000D02*
X44860000Y-66730000D01*
X46940000Y-66730000D02*
X49118000Y-66730000D01*
X42685000Y-66770000D02*
X44860000Y-66770000D01*
X46940000Y-66770000D02*
X49115000Y-66770000D01*
X42689000Y-66810000D02*
X44860000Y-66810000D01*
X46940000Y-66810000D02*
X49111000Y-66810000D01*
X42694000Y-66850000D02*
X44860000Y-66850000D01*
X46940000Y-66850000D02*
X49106000Y-66850000D01*
X42699000Y-66890000D02*
X44860000Y-66890000D01*
X46940000Y-66890000D02*
X49101000Y-66890000D01*
X42705000Y-66930000D02*
X44860000Y-66930000D01*
X46940000Y-66930000D02*
X49095000Y-66930000D01*
X42711000Y-66970000D02*
X44860000Y-66970000D01*
X46940000Y-66970000D02*
X49089000Y-66970000D01*
X42718000Y-67010000D02*
X44860000Y-67010000D01*
X46940000Y-67010000D02*
X49082000Y-67010000D01*
X42725000Y-67050000D02*
X44860000Y-67050000D01*
X46940000Y-67050000D02*
X49075000Y-67050000D01*
X42733000Y-67090000D02*
X44860000Y-67090000D01*
X46940000Y-67090000D02*
X49067000Y-67090000D01*
X42741000Y-67130000D02*
X44860000Y-67130000D01*
X46940000Y-67130000D02*
X49059000Y-67130000D01*
X42750000Y-67171000D02*
X44860000Y-67171000D01*
X46940000Y-67171000D02*
X49050000Y-67171000D01*
X42759000Y-67211000D02*
X44860000Y-67211000D01*
X46940000Y-67211000D02*
X49041000Y-67211000D01*
X42769000Y-67251000D02*
X44860000Y-67251000D01*
X46940000Y-67251000D02*
X49031000Y-67251000D01*
X42779000Y-67291000D02*
X44860000Y-67291000D01*
X46940000Y-67291000D02*
X49021000Y-67291000D01*
X42790000Y-67331000D02*
X44860000Y-67331000D01*
X46940000Y-67331000D02*
X49010000Y-67331000D01*
X42802000Y-67371000D02*
X44860000Y-67371000D01*
X46940000Y-67371000D02*
X48998000Y-67371000D01*
X42814000Y-67411000D02*
X44860000Y-67411000D01*
X46940000Y-67411000D02*
X48986000Y-67411000D01*
X42826000Y-67451000D02*
X44860000Y-67451000D01*
X46940000Y-67451000D02*
X48974000Y-67451000D01*
X42839000Y-67491000D02*
X44860000Y-67491000D01*
X46940000Y-67491000D02*
X48961000Y-67491000D01*
X42853000Y-67531000D02*
X44860000Y-67531000D01*
X46940000Y-67531000D02*
X48947000Y-67531000D01*
X42867000Y-67571000D02*
X44860000Y-67571000D01*
X46940000Y-67571000D02*
X48933000Y-67571000D01*
X42882000Y-67611000D02*
X44860000Y-67611000D01*
X46940000Y-67611000D02*
X48918000Y-67611000D01*
X42898000Y-67651000D02*
X44860000Y-67651000D01*
X46940000Y-67651000D02*
X48902000Y-67651000D01*
X42914000Y-67691000D02*
X44860000Y-67691000D01*
X46940000Y-67691000D02*
X48886000Y-67691000D01*
X42930000Y-67731000D02*
X44860000Y-67731000D01*
X46940000Y-67731000D02*
X48870000Y-67731000D01*
X42948000Y-67771000D02*
X44860000Y-67771000D01*
X46940000Y-67771000D02*
X48852000Y-67771000D01*
X42966000Y-67811000D02*
X44860000Y-67811000D01*
X46940000Y-67811000D02*
X48834000Y-67811000D01*
X42984000Y-67851000D02*
X44860000Y-67851000D01*
X46940000Y-67851000D02*
X48816000Y-67851000D01*
X43004000Y-67891000D02*
X44860000Y-67891000D01*
X46940000Y-67891000D02*
X48796000Y-67891000D01*
X43024000Y-67931000D02*
X44860000Y-67931000D01*
X46940000Y-67931000D02*
X48776000Y-67931000D01*
X43044000Y-67971000D02*
X44860000Y-67971000D01*
X46940000Y-67971000D02*
X48756000Y-67971000D01*
X43066000Y-68011000D02*
X44860000Y-68011000D01*
X46940000Y-68011000D02*
X48734000Y-68011000D01*
X43088000Y-68051000D02*
X44860000Y-68051000D01*
X46940000Y-68051000D02*
X48712000Y-68051000D01*
X43110000Y-68091000D02*
X44860000Y-68091000D01*
X46940000Y-68091000D02*
X48690000Y-68091000D01*
X43134000Y-68131000D02*
X44860000Y-68131000D01*
X46940000Y-68131000D02*
X48666000Y-68131000D01*
X43158000Y-68171000D02*
X44860000Y-68171000D01*
X46940000Y-68171000D02*
X48642000Y-68171000D01*
X43184000Y-68211000D02*
X44860000Y-68211000D01*
X46940000Y-68211000D02*
X48616000Y-68211000D01*
X43210000Y-68251000D02*
X44860000Y-68251000D01*
X46940000Y-68251000D02*
X48590000Y-68251000D01*
X43236000Y-68291000D02*
X44860000Y-68291000D01*
X46940000Y-68291000D02*
X48564000Y-68291000D01*
X43264000Y-68331000D02*
X44860000Y-68331000D01*
X46940000Y-68331000D02*
X48536000Y-68331000D01*
X43293000Y-68371000D02*
X44860000Y-68371000D01*
X46940000Y-68371000D02*
X48507000Y-68371000D01*
X43322000Y-68411000D02*
X44860000Y-68411000D01*
X46940000Y-68411000D02*
X48478000Y-68411000D01*
X43352000Y-68451000D02*
X44860000Y-68451000D01*
X46940000Y-68451000D02*
X48448000Y-68451000D01*
X43384000Y-68491000D02*
X44860000Y-68491000D01*
X46940000Y-68491000D02*
X48416000Y-68491000D01*
X43416000Y-68531000D02*
X44860000Y-68531000D01*
X46940000Y-68531000D02*
X48384000Y-68531000D01*
X43450000Y-68571000D02*
X44860000Y-68571000D01*
X46940000Y-68571000D02*
X48350000Y-68571000D01*
X43484000Y-68611000D02*
X44860000Y-68611000D01*
X46940000Y-68611000D02*
X48316000Y-68611000D01*
X43520000Y-68651000D02*
X44860000Y-68651000D01*
X46940000Y-68651000D02*
X48280000Y-68651000D01*
X43557000Y-68691000D02*
X44860000Y-68691000D01*
X46940000Y-68691000D02*
X48243000Y-68691000D01*
X43595000Y-68731000D02*
X44860000Y-68731000D01*
X46940000Y-68731000D02*
X48205000Y-68731000D01*
X43635000Y-68771000D02*
X48165000Y-68771000D01*
X43676000Y-68811000D02*
X48124000Y-68811000D01*
X43718000Y-68851000D02*
X48082000Y-68851000D01*
X43763000Y-68891000D02*
X48037000Y-68891000D01*
X43808000Y-68931000D02*
X47992000Y-68931000D01*
X43856000Y-68971000D02*
X47944000Y-68971000D01*
X43905000Y-69011000D02*
X47895000Y-69011000D01*
X43956000Y-69051000D02*
X47844000Y-69051000D01*
X44010000Y-69091000D02*
X47790000Y-69091000D01*
X44066000Y-69131000D02*
X47734000Y-69131000D01*
X44124000Y-69171000D02*
X47676000Y-69171000D01*
X44186000Y-69211000D02*
X47614000Y-69211000D01*
X44250000Y-69251000D02*
X47550000Y-69251000D01*
X44319000Y-69291000D02*
X47481000Y-69291000D01*
X44391000Y-69331000D02*
X47409000Y-69331000D01*
X44468000Y-69371000D02*
X47332000Y-69371000D01*
X44550000Y-69411000D02*
X47250000Y-69411000D01*
X44638000Y-69451000D02*
X47162000Y-69451000D01*
X44735000Y-69491000D02*
X47065000Y-69491000D01*
X44841000Y-69531000D02*
X46959000Y-69531000D01*
X44960000Y-69571000D02*
X46840000Y-69571000D01*
X45098000Y-69611000D02*
X46702000Y-69611000D01*
X45267000Y-69651000D02*
X46533000Y-69651000D01*
X45498000Y-69691000D02*
X46302000Y-69691000D01*
X44061000Y-62949759D02*
X44061000Y-63579759D01*
X43746000Y-63264759D02*
X44376000Y-63264759D01*
X1340000Y-68610000D02*
X1340000Y-63890000D01*
X1340000Y-63890000D02*
X7460000Y-63890000D01*
X7460000Y-63890000D02*
X7460000Y-68610000D01*
X7460000Y-68610000D02*
X1340000Y-68610000D01*
X3100000Y-68610000D02*
X3100000Y-68810000D01*
X3100000Y-68810000D02*
X2800000Y-68810000D01*
X2800000Y-68810000D02*
X2800000Y-68610000D01*
X3100000Y-68710000D02*
X2800000Y-68710000D01*
X3900000Y-68610000D02*
X3900000Y-68000000D01*
X3900000Y-68000000D02*
X1950000Y-68000000D01*
X1950000Y-68000000D02*
X1950000Y-64500000D01*
X1950000Y-64500000D02*
X6850000Y-64500000D01*
X6850000Y-64500000D02*
X6850000Y-68000000D01*
X6850000Y-68000000D02*
X4900000Y-68000000D01*
X4900000Y-68000000D02*
X4900000Y-68610000D01*
X1340000Y-67300000D02*
X1950000Y-67300000D01*
X1340000Y-66000000D02*
X1950000Y-66000000D01*
X7460000Y-67300000D02*
X6850000Y-67300000D01*
X7460000Y-66000000D02*
X6850000Y-66000000D01*
X4300000Y-64500000D02*
X4300000Y-65000000D01*
X4300000Y-65000000D02*
X4500000Y-65000000D01*
X4500000Y-65000000D02*
X4500000Y-64500000D01*
X4400000Y-64500000D02*
X4400000Y-65000000D01*
X2290000Y-68910000D02*
X1040000Y-68910000D01*
X1040000Y-68910000D02*
X1040000Y-67660000D01*
X3770000Y-20670000D02*
X3770000Y-23330000D01*
X3770000Y-20670000D02*
X8910000Y-20670000D01*
X8910000Y-20670000D02*
X8910000Y-23330000D01*
X3770000Y-23330000D02*
X8910000Y-23330000D01*
X1170000Y-23330000D02*
X2500000Y-23330000D01*
X1170000Y-22000000D02*
X1170000Y-23330000D01*
X41200000Y-53900000D02*
X43200000Y-53900000D01*
X41200000Y-51100000D02*
X41200000Y-53900000D01*
X43200000Y-51100000D02*
X41200000Y-51100000D01*
X43200000Y-53900000D02*
X43200000Y-51100000D01*
X47300000Y-42050000D02*
X47300000Y-37950000D01*
X47300000Y-37950000D02*
X45300000Y-37950000D01*
X45300000Y-37950000D02*
X45300000Y-42050000D01*
X45300000Y-42050000D02*
X47300000Y-42050000D01*
X45100000Y-41300000D02*
X44800000Y-41600000D01*
X44800000Y-41600000D02*
X44800000Y-41000000D01*
X45100000Y-41300000D02*
X44800000Y-41000000D01*
X42600000Y-41300000D02*
X42300000Y-41000000D01*
X42300000Y-41600000D02*
X42300000Y-41000000D01*
X42600000Y-41300000D02*
X42300000Y-41600000D01*
X42800000Y-42050000D02*
X44800000Y-42050000D01*
X42800000Y-37950000D02*
X42800000Y-42050000D01*
X44800000Y-37950000D02*
X42800000Y-37950000D01*
X44800000Y-42050000D02*
X44800000Y-37950000D01*
X40100000Y-41300000D02*
X39800000Y-41000000D01*
X39800000Y-41600000D02*
X39800000Y-41000000D01*
X40100000Y-41300000D02*
X39800000Y-41600000D01*
X40300000Y-42050000D02*
X42300000Y-42050000D01*
X40300000Y-37950000D02*
X40300000Y-42050000D01*
X42300000Y-37950000D02*
X40300000Y-37950000D01*
X42300000Y-42050000D02*
X42300000Y-37950000D01*
X29950000Y-63100000D02*
G75*
G03X29950000Y-63100000I-950000J0D01*
G01*
X35950000Y-58100000D02*
G75*
G03X35950000Y-58100000I-950000J0D01*
G01*
X33150000Y-59100000D02*
G75*
G03X33150000Y-59100000I-950000J0D01*
G01*
X32750000Y-62100000D02*
G75*
G03X32750000Y-62100000I-950000J0D01*
G01*
X35650000Y-61100000D02*
G75*
G03X35650000Y-61100000I-950000J0D01*
G01*
X49250000Y-60400000D02*
G75*
G03X49250000Y-60400000I-950000J0D01*
G01*
X43350000Y-30000000D02*
G75*
G03X43350000Y-30000000I-950000J0D01*
G01*
X24350000Y-30900000D02*
G75*
G03X24350000Y-30900000I-950000J0D01*
G01*
X20850000Y-44700000D02*
G75*
G03X20850000Y-44700000I-950000J0D01*
G01*
D10*
X29300000Y-65300000D02*
X20700000Y-65300000D01*
X29300000Y-69900000D02*
X27100000Y-69900000D01*
X23000000Y-69900000D02*
X20700000Y-69900000D01*
D13*
X38500000Y-63700000D02*
X40500000Y-63700000D01*
X38500000Y-60900000D02*
X38500000Y-63700000D01*
X40500000Y-60900000D02*
X38500000Y-60900000D01*
X40500000Y-63700000D02*
X40500000Y-60900000D01*
D10*
X46319047Y-62657142D02*
X46366666Y-62704761D01*
X46509523Y-62752380D01*
X46604761Y-62752380D01*
X46747619Y-62704761D01*
X46842857Y-62609523D01*
X46890476Y-62514285D01*
X46938095Y-62323809D01*
X46938095Y-62180952D01*
X46890476Y-61990476D01*
X46842857Y-61895238D01*
X46747619Y-61800000D01*
X46604761Y-61752380D01*
X46509523Y-61752380D01*
X46366666Y-61800000D01*
X46319047Y-61847619D01*
X45938095Y-61847619D02*
X45890476Y-61800000D01*
X45795238Y-61752380D01*
X45557142Y-61752380D01*
X45461904Y-61800000D01*
X45414285Y-61847619D01*
X45366666Y-61942857D01*
X45366666Y-62038095D01*
X45414285Y-62180952D01*
X45985714Y-62752380D01*
X45366666Y-62752380D01*
X44747619Y-61752380D02*
X44652380Y-61752380D01*
X44557142Y-61800000D01*
X44509523Y-61847619D01*
X44461904Y-61942857D01*
X44414285Y-62133333D01*
X44414285Y-62371428D01*
X44461904Y-62561904D01*
X44509523Y-62657142D01*
X44557142Y-62704761D01*
X44652380Y-62752380D01*
X44747619Y-62752380D01*
X44842857Y-62704761D01*
X44890476Y-62657142D01*
X44938095Y-62561904D01*
X44985714Y-62371428D01*
X44985714Y-62133333D01*
X44938095Y-61942857D01*
X44890476Y-61847619D01*
X44842857Y-61800000D01*
X44747619Y-61752380D01*
X44033333Y-61847619D02*
X43985714Y-61800000D01*
X43890476Y-61752380D01*
X43652380Y-61752380D01*
X43557142Y-61800000D01*
X43509523Y-61847619D01*
X43461904Y-61942857D01*
X43461904Y-62038095D01*
X43509523Y-62180952D01*
X44080952Y-62752380D01*
X43461904Y-62752380D01*
X5685714Y-62152380D02*
X5685714Y-62866666D01*
X5733333Y-63009523D01*
X5828571Y-63104761D01*
X5971428Y-63152380D01*
X6066666Y-63152380D01*
X5257142Y-62247619D02*
X5209523Y-62200000D01*
X5114285Y-62152380D01*
X4876190Y-62152380D01*
X4780952Y-62200000D01*
X4733333Y-62247619D01*
X4685714Y-62342857D01*
X4685714Y-62438095D01*
X4733333Y-62580952D01*
X5304761Y-63152380D01*
X4685714Y-63152380D01*
X4066666Y-62152380D02*
X3971428Y-62152380D01*
X3876190Y-62200000D01*
X3828571Y-62247619D01*
X3780952Y-62342857D01*
X3733333Y-62533333D01*
X3733333Y-62771428D01*
X3780952Y-62961904D01*
X3828571Y-63057142D01*
X3876190Y-63104761D01*
X3971428Y-63152380D01*
X4066666Y-63152380D01*
X4161904Y-63104761D01*
X4209523Y-63057142D01*
X4257142Y-62961904D01*
X4304761Y-62771428D01*
X4304761Y-62533333D01*
X4257142Y-62342857D01*
X4209523Y-62247619D01*
X4161904Y-62200000D01*
X4066666Y-62152380D01*
X3352380Y-62247619D02*
X3304761Y-62200000D01*
X3209523Y-62152380D01*
X2971428Y-62152380D01*
X2876190Y-62200000D01*
X2828571Y-62247619D01*
X2780952Y-62342857D01*
X2780952Y-62438095D01*
X2828571Y-62580952D01*
X3400000Y-63152380D01*
X2780952Y-63152380D01*
X9402380Y-20714285D02*
X10116666Y-20714285D01*
X10259523Y-20666666D01*
X10354761Y-20571428D01*
X10402380Y-20428571D01*
X10402380Y-20333333D01*
X9402380Y-21095238D02*
X9402380Y-21714285D01*
X9783333Y-21380952D01*
X9783333Y-21523809D01*
X9830952Y-21619047D01*
X9878571Y-21666666D01*
X9973809Y-21714285D01*
X10211904Y-21714285D01*
X10307142Y-21666666D01*
X10354761Y-21619047D01*
X10402380Y-21523809D01*
X10402380Y-21238095D01*
X10354761Y-21142857D01*
X10307142Y-21095238D01*
X9402380Y-22333333D02*
X9402380Y-22428571D01*
X9450000Y-22523809D01*
X9497619Y-22571428D01*
X9592857Y-22619047D01*
X9783333Y-22666666D01*
X10021428Y-22666666D01*
X10211904Y-22619047D01*
X10307142Y-22571428D01*
X10354761Y-22523809D01*
X10402380Y-22428571D01*
X10402380Y-22333333D01*
X10354761Y-22238095D01*
X10307142Y-22190476D01*
X10211904Y-22142857D01*
X10021428Y-22095238D01*
X9783333Y-22095238D01*
X9592857Y-22142857D01*
X9497619Y-22190476D01*
X9450000Y-22238095D01*
X9402380Y-22333333D01*
X9402380Y-23000000D02*
X9402380Y-23619047D01*
X9783333Y-23285714D01*
X9783333Y-23428571D01*
X9830952Y-23523809D01*
X9878571Y-23571428D01*
X9973809Y-23619047D01*
X10211904Y-23619047D01*
X10307142Y-23571428D01*
X10354761Y-23523809D01*
X10402380Y-23428571D01*
X10402380Y-23142857D01*
X10354761Y-23047619D01*
X10307142Y-23000000D01*
X43652380Y-50714285D02*
X44366666Y-50714285D01*
X44509523Y-50666666D01*
X44604761Y-50571428D01*
X44652380Y-50428571D01*
X44652380Y-50333333D01*
X44652380Y-51190476D02*
X43652380Y-51190476D01*
X43652380Y-51571428D01*
X43700000Y-51666666D01*
X43747619Y-51714285D01*
X43842857Y-51761904D01*
X43985714Y-51761904D01*
X44080952Y-51714285D01*
X44128571Y-51666666D01*
X44176190Y-51571428D01*
X44176190Y-51190476D01*
X43747619Y-52142857D02*
X43700000Y-52190476D01*
X43652380Y-52285714D01*
X43652380Y-52523809D01*
X43700000Y-52619047D01*
X43747619Y-52666666D01*
X43842857Y-52714285D01*
X43938095Y-52714285D01*
X44080952Y-52666666D01*
X44652380Y-52095238D01*
X44652380Y-52714285D01*
X43652380Y-53333333D02*
X43652380Y-53428571D01*
X43700000Y-53523809D01*
X43747619Y-53571428D01*
X43842857Y-53619047D01*
X44033333Y-53666666D01*
X44271428Y-53666666D01*
X44461904Y-53619047D01*
X44557142Y-53571428D01*
X44604761Y-53523809D01*
X44652380Y-53428571D01*
X44652380Y-53333333D01*
X44604761Y-53238095D01*
X44557142Y-53190476D01*
X44461904Y-53142857D01*
X44271428Y-53095238D01*
X44033333Y-53095238D01*
X43842857Y-53142857D01*
X43747619Y-53190476D01*
X43700000Y-53238095D01*
X43652380Y-53333333D01*
X44652380Y-54619047D02*
X44652380Y-54047619D01*
X44652380Y-54333333D02*
X43652380Y-54333333D01*
X43795238Y-54238095D01*
X43890476Y-54142857D01*
X43938095Y-54047619D01*
X45800901Y-42987892D02*
X46515187Y-42987892D01*
X46658044Y-42940273D01*
X46753282Y-42845035D01*
X46800901Y-42702178D01*
X46800901Y-42606940D01*
X46800901Y-43464083D02*
X45800901Y-43464083D01*
X45800901Y-43845035D01*
X45848521Y-43940273D01*
X45896140Y-43987892D01*
X45991378Y-44035511D01*
X46134235Y-44035511D01*
X46229473Y-43987892D01*
X46277092Y-43940273D01*
X46324711Y-43845035D01*
X46324711Y-43464083D01*
X45800901Y-44368845D02*
X45800901Y-44987892D01*
X46181854Y-44654559D01*
X46181854Y-44797416D01*
X46229473Y-44892654D01*
X46277092Y-44940273D01*
X46372330Y-44987892D01*
X46610425Y-44987892D01*
X46705663Y-44940273D01*
X46753282Y-44892654D01*
X46800901Y-44797416D01*
X46800901Y-44511702D01*
X46753282Y-44416464D01*
X46705663Y-44368845D01*
X45800901Y-45606940D02*
X45800901Y-45702178D01*
X45848521Y-45797416D01*
X45896140Y-45845035D01*
X45991378Y-45892654D01*
X46181854Y-45940273D01*
X46419949Y-45940273D01*
X46610425Y-45892654D01*
X46705663Y-45845035D01*
X46753282Y-45797416D01*
X46800901Y-45702178D01*
X46800901Y-45606940D01*
X46753282Y-45511702D01*
X46705663Y-45464083D01*
X46610425Y-45416464D01*
X46419949Y-45368845D01*
X46181854Y-45368845D01*
X45991378Y-45416464D01*
X45896140Y-45464083D01*
X45848521Y-45511702D01*
X45800901Y-45606940D01*
X46800901Y-46892654D02*
X46800901Y-46321226D01*
X46800901Y-46606940D02*
X45800901Y-46606940D01*
X45943759Y-46511702D01*
X46038997Y-46416464D01*
X46086616Y-46321226D01*
X43300901Y-42987892D02*
X44015187Y-42987892D01*
X44158044Y-42940273D01*
X44253282Y-42845035D01*
X44300901Y-42702178D01*
X44300901Y-42606940D01*
X44300901Y-43464083D02*
X43300901Y-43464083D01*
X43300901Y-43845035D01*
X43348521Y-43940273D01*
X43396140Y-43987892D01*
X43491378Y-44035511D01*
X43634235Y-44035511D01*
X43729473Y-43987892D01*
X43777092Y-43940273D01*
X43824711Y-43845035D01*
X43824711Y-43464083D01*
X43300901Y-44368845D02*
X43300901Y-44987892D01*
X43681854Y-44654559D01*
X43681854Y-44797416D01*
X43729473Y-44892654D01*
X43777092Y-44940273D01*
X43872330Y-44987892D01*
X44110425Y-44987892D01*
X44205663Y-44940273D01*
X44253282Y-44892654D01*
X44300901Y-44797416D01*
X44300901Y-44511702D01*
X44253282Y-44416464D01*
X44205663Y-44368845D01*
X43300901Y-45606940D02*
X43300901Y-45702178D01*
X43348521Y-45797416D01*
X43396140Y-45845035D01*
X43491378Y-45892654D01*
X43681854Y-45940273D01*
X43919949Y-45940273D01*
X44110425Y-45892654D01*
X44205663Y-45845035D01*
X44253282Y-45797416D01*
X44300901Y-45702178D01*
X44300901Y-45606940D01*
X44253282Y-45511702D01*
X44205663Y-45464083D01*
X44110425Y-45416464D01*
X43919949Y-45368845D01*
X43681854Y-45368845D01*
X43491378Y-45416464D01*
X43396140Y-45464083D01*
X43348521Y-45511702D01*
X43300901Y-45606940D01*
X43396140Y-46321226D02*
X43348521Y-46368845D01*
X43300901Y-46464083D01*
X43300901Y-46702178D01*
X43348521Y-46797416D01*
X43396140Y-46845035D01*
X43491378Y-46892654D01*
X43586616Y-46892654D01*
X43729473Y-46845035D01*
X44300901Y-46273607D01*
X44300901Y-46892654D01*
X40700901Y-42987892D02*
X41415187Y-42987892D01*
X41558044Y-42940273D01*
X41653282Y-42845035D01*
X41700901Y-42702178D01*
X41700901Y-42606940D01*
X41700901Y-43464083D02*
X40700901Y-43464083D01*
X40700901Y-43845035D01*
X40748521Y-43940273D01*
X40796140Y-43987892D01*
X40891378Y-44035511D01*
X41034235Y-44035511D01*
X41129473Y-43987892D01*
X41177092Y-43940273D01*
X41224711Y-43845035D01*
X41224711Y-43464083D01*
X40700901Y-44368845D02*
X40700901Y-44987892D01*
X41081854Y-44654559D01*
X41081854Y-44797416D01*
X41129473Y-44892654D01*
X41177092Y-44940273D01*
X41272330Y-44987892D01*
X41510425Y-44987892D01*
X41605663Y-44940273D01*
X41653282Y-44892654D01*
X41700901Y-44797416D01*
X41700901Y-44511702D01*
X41653282Y-44416464D01*
X41605663Y-44368845D01*
X40700901Y-45606940D02*
X40700901Y-45702178D01*
X40748521Y-45797416D01*
X40796140Y-45845035D01*
X40891378Y-45892654D01*
X41081854Y-45940273D01*
X41319949Y-45940273D01*
X41510425Y-45892654D01*
X41605663Y-45845035D01*
X41653282Y-45797416D01*
X41700901Y-45702178D01*
X41700901Y-45606940D01*
X41653282Y-45511702D01*
X41605663Y-45464083D01*
X41510425Y-45416464D01*
X41319949Y-45368845D01*
X41081854Y-45368845D01*
X40891378Y-45416464D01*
X40796140Y-45464083D01*
X40748521Y-45511702D01*
X40700901Y-45606940D01*
X40700901Y-46273607D02*
X40700901Y-46892654D01*
X41081854Y-46559321D01*
X41081854Y-46702178D01*
X41129473Y-46797416D01*
X41177092Y-46845035D01*
X41272330Y-46892654D01*
X41510425Y-46892654D01*
X41605663Y-46845035D01*
X41653282Y-46797416D01*
X41700901Y-46702178D01*
X41700901Y-46416464D01*
X41653282Y-46321226D01*
X41605663Y-46273607D01*
X27714285Y-61952380D02*
X27142857Y-61952380D01*
X27428571Y-62952380D02*
X27428571Y-61952380D01*
X26809523Y-62952380D02*
X26809523Y-61952380D01*
X26428571Y-61952380D01*
X26333333Y-62000000D01*
X26285714Y-62047619D01*
X26238095Y-62142857D01*
X26238095Y-62285714D01*
X26285714Y-62380952D01*
X26333333Y-62428571D01*
X26428571Y-62476190D01*
X26809523Y-62476190D01*
X25857142Y-62047619D02*
X25809523Y-62000000D01*
X25714285Y-61952380D01*
X25476190Y-61952380D01*
X25380952Y-62000000D01*
X25333333Y-62047619D01*
X25285714Y-62142857D01*
X25285714Y-62238095D01*
X25333333Y-62380952D01*
X25904761Y-62952380D01*
X25285714Y-62952380D01*
X24666666Y-61952380D02*
X24571428Y-61952380D01*
X24476190Y-62000000D01*
X24428571Y-62047619D01*
X24380952Y-62142857D01*
X24333333Y-62333333D01*
X24333333Y-62571428D01*
X24380952Y-62761904D01*
X24428571Y-62857142D01*
X24476190Y-62904761D01*
X24571428Y-62952380D01*
X24666666Y-62952380D01*
X24761904Y-62904761D01*
X24809523Y-62857142D01*
X24857142Y-62761904D01*
X24904761Y-62571428D01*
X24904761Y-62333333D01*
X24857142Y-62142857D01*
X24809523Y-62047619D01*
X24761904Y-62000000D01*
X24666666Y-61952380D01*
X23380952Y-62952380D02*
X23952380Y-62952380D01*
X23666666Y-62952380D02*
X23666666Y-61952380D01*
X23761904Y-62095238D01*
X23857142Y-62190476D01*
X23952380Y-62238095D01*
X37214285Y-55552380D02*
X36642857Y-55552380D01*
X36928571Y-56552380D02*
X36928571Y-55552380D01*
X36309523Y-56552380D02*
X36309523Y-55552380D01*
X35928571Y-55552380D01*
X35833333Y-55600000D01*
X35785714Y-55647619D01*
X35738095Y-55742857D01*
X35738095Y-55885714D01*
X35785714Y-55980952D01*
X35833333Y-56028571D01*
X35928571Y-56076190D01*
X36309523Y-56076190D01*
X35357142Y-55647619D02*
X35309523Y-55600000D01*
X35214285Y-55552380D01*
X34976190Y-55552380D01*
X34880952Y-55600000D01*
X34833333Y-55647619D01*
X34785714Y-55742857D01*
X34785714Y-55838095D01*
X34833333Y-55980952D01*
X35404761Y-56552380D01*
X34785714Y-56552380D01*
X34166666Y-55552380D02*
X34071428Y-55552380D01*
X33976190Y-55600000D01*
X33928571Y-55647619D01*
X33880952Y-55742857D01*
X33833333Y-55933333D01*
X33833333Y-56171428D01*
X33880952Y-56361904D01*
X33928571Y-56457142D01*
X33976190Y-56504761D01*
X34071428Y-56552380D01*
X34166666Y-56552380D01*
X34261904Y-56504761D01*
X34309523Y-56457142D01*
X34357142Y-56361904D01*
X34404761Y-56171428D01*
X34404761Y-55933333D01*
X34357142Y-55742857D01*
X34309523Y-55647619D01*
X34261904Y-55600000D01*
X34166666Y-55552380D01*
X33452380Y-55647619D02*
X33404761Y-55600000D01*
X33309523Y-55552380D01*
X33071428Y-55552380D01*
X32976190Y-55600000D01*
X32928571Y-55647619D01*
X32880952Y-55742857D01*
X32880952Y-55838095D01*
X32928571Y-55980952D01*
X33500000Y-56552380D01*
X32880952Y-56552380D01*
X31014285Y-57752380D02*
X30442857Y-57752380D01*
X30728571Y-58752380D02*
X30728571Y-57752380D01*
X30109523Y-58752380D02*
X30109523Y-57752380D01*
X29728571Y-57752380D01*
X29633333Y-57800000D01*
X29585714Y-57847619D01*
X29538095Y-57942857D01*
X29538095Y-58085714D01*
X29585714Y-58180952D01*
X29633333Y-58228571D01*
X29728571Y-58276190D01*
X30109523Y-58276190D01*
X29157142Y-57847619D02*
X29109523Y-57800000D01*
X29014285Y-57752380D01*
X28776190Y-57752380D01*
X28680952Y-57800000D01*
X28633333Y-57847619D01*
X28585714Y-57942857D01*
X28585714Y-58038095D01*
X28633333Y-58180952D01*
X29204761Y-58752380D01*
X28585714Y-58752380D01*
X27966666Y-57752380D02*
X27871428Y-57752380D01*
X27776190Y-57800000D01*
X27728571Y-57847619D01*
X27680952Y-57942857D01*
X27633333Y-58133333D01*
X27633333Y-58371428D01*
X27680952Y-58561904D01*
X27728571Y-58657142D01*
X27776190Y-58704761D01*
X27871428Y-58752380D01*
X27966666Y-58752380D01*
X28061904Y-58704761D01*
X28109523Y-58657142D01*
X28157142Y-58561904D01*
X28204761Y-58371428D01*
X28204761Y-58133333D01*
X28157142Y-57942857D01*
X28109523Y-57847619D01*
X28061904Y-57800000D01*
X27966666Y-57752380D01*
X27300000Y-57752380D02*
X26680952Y-57752380D01*
X27014285Y-58133333D01*
X26871428Y-58133333D01*
X26776190Y-58180952D01*
X26728571Y-58228571D01*
X26680952Y-58323809D01*
X26680952Y-58561904D01*
X26728571Y-58657142D01*
X26776190Y-58704761D01*
X26871428Y-58752380D01*
X27157142Y-58752380D01*
X27252380Y-58704761D01*
X27300000Y-58657142D01*
X30768044Y-60842736D02*
X30231077Y-60647296D01*
X30157540Y-61684709D02*
X30499561Y-60745016D01*
X29575826Y-61472982D02*
X29917846Y-60533289D01*
X29559868Y-60402996D01*
X29454087Y-60415170D01*
X29393053Y-60443631D01*
X29315732Y-60516838D01*
X29266872Y-60651080D01*
X29279046Y-60756861D01*
X29307507Y-60817895D01*
X29380715Y-60895216D01*
X29738693Y-61025509D01*
X28990327Y-60297051D02*
X28961867Y-60236017D01*
X28888659Y-60158696D01*
X28664923Y-60077263D01*
X28559141Y-60089437D01*
X28498107Y-60117897D01*
X28420787Y-60191105D01*
X28388213Y-60280599D01*
X28384101Y-60431128D01*
X28725628Y-61163535D01*
X28143913Y-60951809D01*
X27904219Y-59800389D02*
X27814725Y-59767816D01*
X27708943Y-59779990D01*
X27647909Y-59808450D01*
X27570589Y-59881658D01*
X27460695Y-60044361D01*
X27379261Y-60268097D01*
X27358862Y-60463373D01*
X27371036Y-60569154D01*
X27399497Y-60630188D01*
X27472704Y-60707508D01*
X27562199Y-60740082D01*
X27667980Y-60727908D01*
X27729014Y-60699447D01*
X27806335Y-60626239D01*
X27916229Y-60463537D01*
X27997662Y-60239801D01*
X28018061Y-60044525D01*
X28005888Y-59938744D01*
X27977427Y-59877710D01*
X27904219Y-59800389D01*
X26671531Y-59706453D02*
X26443517Y-60332915D01*
X27025560Y-59429908D02*
X27004997Y-60182551D01*
X26423282Y-59970824D01*
X39893451Y-58228076D02*
X39356483Y-58423516D01*
X39966987Y-59265488D02*
X39624967Y-58325796D01*
X39385273Y-59477215D02*
X39043253Y-58537522D01*
X38685274Y-58667816D01*
X38612067Y-58745136D01*
X38583606Y-58806170D01*
X38571432Y-58911952D01*
X38620292Y-59046193D01*
X38697613Y-59119401D01*
X38758647Y-59147862D01*
X38864428Y-59160036D01*
X39222406Y-59029742D01*
X38180881Y-58952750D02*
X38119847Y-58924290D01*
X38014065Y-58912116D01*
X37790329Y-58993549D01*
X37717121Y-59070870D01*
X37688661Y-59131904D01*
X37676487Y-59237685D01*
X37709060Y-59327180D01*
X37802667Y-59445135D01*
X38535075Y-59786662D01*
X37953360Y-59998389D01*
X37029626Y-59270423D02*
X36940131Y-59302996D01*
X36866923Y-59380317D01*
X36838463Y-59441351D01*
X36826289Y-59547132D01*
X36846688Y-59742408D01*
X36928121Y-59966144D01*
X37038015Y-60128846D01*
X37115336Y-60202054D01*
X37176370Y-60230515D01*
X37282151Y-60242689D01*
X37371646Y-60210115D01*
X37444854Y-60132795D01*
X37473314Y-60071761D01*
X37485488Y-59965980D01*
X37465089Y-59770704D01*
X37383655Y-59546967D01*
X37273761Y-59384265D01*
X37196441Y-59311057D01*
X37135407Y-59282597D01*
X37029626Y-59270423D01*
X35866197Y-59693876D02*
X36313669Y-59531009D01*
X36521283Y-59962195D01*
X36460249Y-59933735D01*
X36354468Y-59921561D01*
X36130732Y-60002994D01*
X36057524Y-60080315D01*
X36029063Y-60141349D01*
X36016889Y-60247130D01*
X36098323Y-60470866D01*
X36175643Y-60544074D01*
X36236677Y-60572535D01*
X36342459Y-60584709D01*
X36566195Y-60503275D01*
X36639403Y-60425955D01*
X36667863Y-60364921D01*
X49314285Y-57952380D02*
X48742857Y-57952380D01*
X49028571Y-58952380D02*
X49028571Y-57952380D01*
X48409523Y-58952380D02*
X48409523Y-57952380D01*
X48028571Y-57952380D01*
X47933333Y-58000000D01*
X47885714Y-58047619D01*
X47838095Y-58142857D01*
X47838095Y-58285714D01*
X47885714Y-58380952D01*
X47933333Y-58428571D01*
X48028571Y-58476190D01*
X48409523Y-58476190D01*
X47457142Y-58047619D02*
X47409523Y-58000000D01*
X47314285Y-57952380D01*
X47076190Y-57952380D01*
X46980952Y-58000000D01*
X46933333Y-58047619D01*
X46885714Y-58142857D01*
X46885714Y-58238095D01*
X46933333Y-58380952D01*
X47504761Y-58952380D01*
X46885714Y-58952380D01*
X46266666Y-57952380D02*
X46171428Y-57952380D01*
X46076190Y-58000000D01*
X46028571Y-58047619D01*
X45980952Y-58142857D01*
X45933333Y-58333333D01*
X45933333Y-58571428D01*
X45980952Y-58761904D01*
X46028571Y-58857142D01*
X46076190Y-58904761D01*
X46171428Y-58952380D01*
X46266666Y-58952380D01*
X46361904Y-58904761D01*
X46409523Y-58857142D01*
X46457142Y-58761904D01*
X46504761Y-58571428D01*
X46504761Y-58333333D01*
X46457142Y-58142857D01*
X46409523Y-58047619D01*
X46361904Y-58000000D01*
X46266666Y-57952380D01*
X45076190Y-57952380D02*
X45266666Y-57952380D01*
X45361904Y-58000000D01*
X45409523Y-58047619D01*
X45504761Y-58190476D01*
X45552380Y-58380952D01*
X45552380Y-58761904D01*
X45504761Y-58857142D01*
X45457142Y-58904761D01*
X45361904Y-58952380D01*
X45171428Y-58952380D01*
X45076190Y-58904761D01*
X45028571Y-58857142D01*
X44980952Y-58761904D01*
X44980952Y-58523809D01*
X45028571Y-58428571D01*
X45076190Y-58380952D01*
X45171428Y-58333333D01*
X45361904Y-58333333D01*
X45457142Y-58380952D01*
X45504761Y-58428571D01*
X45552380Y-58523809D01*
X44614285Y-31352380D02*
X44042857Y-31352380D01*
X44328571Y-32352380D02*
X44328571Y-31352380D01*
X43709523Y-32352380D02*
X43709523Y-31352380D01*
X43328571Y-31352380D01*
X43233333Y-31400000D01*
X43185714Y-31447619D01*
X43138095Y-31542857D01*
X43138095Y-31685714D01*
X43185714Y-31780952D01*
X43233333Y-31828571D01*
X43328571Y-31876190D01*
X43709523Y-31876190D01*
X42757142Y-31447619D02*
X42709523Y-31400000D01*
X42614285Y-31352380D01*
X42376190Y-31352380D01*
X42280952Y-31400000D01*
X42233333Y-31447619D01*
X42185714Y-31542857D01*
X42185714Y-31638095D01*
X42233333Y-31780952D01*
X42804761Y-32352380D01*
X42185714Y-32352380D01*
X41566666Y-31352380D02*
X41471428Y-31352380D01*
X41376190Y-31400000D01*
X41328571Y-31447619D01*
X41280952Y-31542857D01*
X41233333Y-31733333D01*
X41233333Y-31971428D01*
X41280952Y-32161904D01*
X41328571Y-32257142D01*
X41376190Y-32304761D01*
X41471428Y-32352380D01*
X41566666Y-32352380D01*
X41661904Y-32304761D01*
X41709523Y-32257142D01*
X41757142Y-32161904D01*
X41804761Y-31971428D01*
X41804761Y-31733333D01*
X41757142Y-31542857D01*
X41709523Y-31447619D01*
X41661904Y-31400000D01*
X41566666Y-31352380D01*
X40900000Y-31352380D02*
X40233333Y-31352380D01*
X40661904Y-32352380D01*
X25614285Y-32252380D02*
X25042857Y-32252380D01*
X25328571Y-33252380D02*
X25328571Y-32252380D01*
X24709523Y-33252380D02*
X24709523Y-32252380D01*
X24328571Y-32252380D01*
X24233333Y-32300000D01*
X24185714Y-32347619D01*
X24138095Y-32442857D01*
X24138095Y-32585714D01*
X24185714Y-32680952D01*
X24233333Y-32728571D01*
X24328571Y-32776190D01*
X24709523Y-32776190D01*
X23757142Y-32347619D02*
X23709523Y-32300000D01*
X23614285Y-32252380D01*
X23376190Y-32252380D01*
X23280952Y-32300000D01*
X23233333Y-32347619D01*
X23185714Y-32442857D01*
X23185714Y-32538095D01*
X23233333Y-32680952D01*
X23804761Y-33252380D01*
X23185714Y-33252380D01*
X22566666Y-32252380D02*
X22471428Y-32252380D01*
X22376190Y-32300000D01*
X22328571Y-32347619D01*
X22280952Y-32442857D01*
X22233333Y-32633333D01*
X22233333Y-32871428D01*
X22280952Y-33061904D01*
X22328571Y-33157142D01*
X22376190Y-33204761D01*
X22471428Y-33252380D01*
X22566666Y-33252380D01*
X22661904Y-33204761D01*
X22709523Y-33157142D01*
X22757142Y-33061904D01*
X22804761Y-32871428D01*
X22804761Y-32633333D01*
X22757142Y-32442857D01*
X22709523Y-32347619D01*
X22661904Y-32300000D01*
X22566666Y-32252380D01*
X21661904Y-32680952D02*
X21757142Y-32633333D01*
X21804761Y-32585714D01*
X21852380Y-32490476D01*
X21852380Y-32442857D01*
X21804761Y-32347619D01*
X21757142Y-32300000D01*
X21661904Y-32252380D01*
X21471428Y-32252380D01*
X21376190Y-32300000D01*
X21328571Y-32347619D01*
X21280952Y-32442857D01*
X21280952Y-32490476D01*
X21328571Y-32585714D01*
X21376190Y-32633333D01*
X21471428Y-32680952D01*
X21661904Y-32680952D01*
X21757142Y-32728571D01*
X21804761Y-32776190D01*
X21852380Y-32871428D01*
X21852380Y-33061904D01*
X21804761Y-33157142D01*
X21757142Y-33204761D01*
X21661904Y-33252380D01*
X21471428Y-33252380D01*
X21376190Y-33204761D01*
X21328571Y-33157142D01*
X21280952Y-33061904D01*
X21280952Y-32871428D01*
X21328571Y-32776190D01*
X21376190Y-32728571D01*
X21471428Y-32680952D01*
X22114285Y-46052380D02*
X21542857Y-46052380D01*
X21828571Y-47052380D02*
X21828571Y-46052380D01*
X21209523Y-47052380D02*
X21209523Y-46052380D01*
X20828571Y-46052380D01*
X20733333Y-46100000D01*
X20685714Y-46147619D01*
X20638095Y-46242857D01*
X20638095Y-46385714D01*
X20685714Y-46480952D01*
X20733333Y-46528571D01*
X20828571Y-46576190D01*
X21209523Y-46576190D01*
X20257142Y-46147619D02*
X20209523Y-46100000D01*
X20114285Y-46052380D01*
X19876190Y-46052380D01*
X19780952Y-46100000D01*
X19733333Y-46147619D01*
X19685714Y-46242857D01*
X19685714Y-46338095D01*
X19733333Y-46480952D01*
X20304761Y-47052380D01*
X19685714Y-47052380D01*
X19066666Y-46052380D02*
X18971428Y-46052380D01*
X18876190Y-46100000D01*
X18828571Y-46147619D01*
X18780952Y-46242857D01*
X18733333Y-46433333D01*
X18733333Y-46671428D01*
X18780952Y-46861904D01*
X18828571Y-46957142D01*
X18876190Y-47004761D01*
X18971428Y-47052380D01*
X19066666Y-47052380D01*
X19161904Y-47004761D01*
X19209523Y-46957142D01*
X19257142Y-46861904D01*
X19304761Y-46671428D01*
X19304761Y-46433333D01*
X19257142Y-46242857D01*
X19209523Y-46147619D01*
X19161904Y-46100000D01*
X19066666Y-46052380D01*
X18257142Y-47052380D02*
X18066666Y-47052380D01*
X17971428Y-47004761D01*
X17923809Y-46957142D01*
X17828571Y-46814285D01*
X17780952Y-46623809D01*
X17780952Y-46242857D01*
X17828571Y-46147619D01*
X17876190Y-46100000D01*
X17971428Y-46052380D01*
X18161904Y-46052380D01*
X18257142Y-46100000D01*
X18304761Y-46147619D01*
X18352380Y-46242857D01*
X18352380Y-46480952D01*
X18304761Y-46576190D01*
X18257142Y-46623809D01*
X18161904Y-46671428D01*
X17971428Y-46671428D01*
X17876190Y-46623809D01*
X17828571Y-46576190D01*
X17780952Y-46480952D01*
X23233333Y-64704761D02*
X23090476Y-64752380D01*
X22852380Y-64752380D01*
X22757142Y-64704761D01*
X22709523Y-64657142D01*
X22661904Y-64561904D01*
X22661904Y-64466666D01*
X22709523Y-64371428D01*
X22757142Y-64323809D01*
X22852380Y-64276190D01*
X23042857Y-64228571D01*
X23138095Y-64180952D01*
X23185714Y-64133333D01*
X23233333Y-64038095D01*
X23233333Y-63942857D01*
X23185714Y-63847619D01*
X23138095Y-63800000D01*
X23042857Y-63752380D01*
X22804761Y-63752380D01*
X22661904Y-63800000D01*
X22328571Y-63752380D02*
X22090476Y-64752380D01*
X21900000Y-64038095D01*
X21709523Y-64752380D01*
X21471428Y-63752380D01*
X20566666Y-64752380D02*
X21138095Y-64752380D01*
X20852380Y-64752380D02*
X20852380Y-63752380D01*
X20947619Y-63895238D01*
X21042857Y-63990476D01*
X21138095Y-64038095D01*
X40952380Y-60514285D02*
X41666666Y-60514285D01*
X41809523Y-60466666D01*
X41904761Y-60371428D01*
X41952380Y-60228571D01*
X41952380Y-60133333D01*
X41952380Y-60990476D02*
X40952380Y-60990476D01*
X40952380Y-61371428D01*
X41000000Y-61466666D01*
X41047619Y-61514285D01*
X41142857Y-61561904D01*
X41285714Y-61561904D01*
X41380952Y-61514285D01*
X41428571Y-61466666D01*
X41476190Y-61371428D01*
X41476190Y-60990476D01*
X41047619Y-61942857D02*
X41000000Y-61990476D01*
X40952380Y-62085714D01*
X40952380Y-62323809D01*
X41000000Y-62419047D01*
X41047619Y-62466666D01*
X41142857Y-62514285D01*
X41238095Y-62514285D01*
X41380952Y-62466666D01*
X41952380Y-61895238D01*
X41952380Y-62514285D01*
X40952380Y-63133333D02*
X40952380Y-63228571D01*
X41000000Y-63323809D01*
X41047619Y-63371428D01*
X41142857Y-63419047D01*
X41333333Y-63466666D01*
X41571428Y-63466666D01*
X41761904Y-63419047D01*
X41857142Y-63371428D01*
X41904761Y-63323809D01*
X41952380Y-63228571D01*
X41952380Y-63133333D01*
X41904761Y-63038095D01*
X41857142Y-62990476D01*
X41761904Y-62942857D01*
X41571428Y-62895238D01*
X41333333Y-62895238D01*
X41142857Y-62942857D01*
X41047619Y-62990476D01*
X41000000Y-63038095D01*
X40952380Y-63133333D01*
X41285714Y-64323809D02*
X41952380Y-64323809D01*
X40904761Y-64085714D02*
X41619047Y-63847619D01*
X41619047Y-64466666D01*
%LPC*%
D14*
X3000000Y-28500000D03*
D15*
X7000000Y-28500000D03*
D14*
X45900000Y-65200000D03*
D15*
X45900000Y-67700000D03*
D16*
X35100000Y-65837500D03*
X40100000Y-65837500D03*
D17*
X34100000Y-68537500D03*
X41100000Y-68537500D03*
D18*
G36*
X3806338Y-65875306D02*
G01*
X3832669Y-65879212D01*
X3858490Y-65885680D01*
X3883553Y-65894648D01*
X3907617Y-65906029D01*
X3930449Y-65919714D01*
X3951830Y-65935571D01*
X3971553Y-65953447D01*
X3989429Y-65973170D01*
X4005286Y-65994551D01*
X4018971Y-66017383D01*
X4030352Y-66041447D01*
X4039320Y-66066510D01*
X4045788Y-66092331D01*
X4049694Y-66118662D01*
X4051000Y-66145249D01*
X4051000Y-67454751D01*
X4049694Y-67481338D01*
X4045788Y-67507669D01*
X4039320Y-67533490D01*
X4030352Y-67558553D01*
X4018971Y-67582617D01*
X4005286Y-67605449D01*
X3989429Y-67626830D01*
X3971553Y-67646553D01*
X3951830Y-67664429D01*
X3930449Y-67680286D01*
X3907617Y-67693971D01*
X3883553Y-67705352D01*
X3858490Y-67714320D01*
X3832669Y-67720788D01*
X3806338Y-67724694D01*
X3779751Y-67726000D01*
X3020249Y-67726000D01*
X2993662Y-67724694D01*
X2967331Y-67720788D01*
X2941510Y-67714320D01*
X2916447Y-67705352D01*
X2892383Y-67693971D01*
X2869551Y-67680286D01*
X2848170Y-67664429D01*
X2828447Y-67646553D01*
X2810571Y-67626830D01*
X2794714Y-67605449D01*
X2781029Y-67582617D01*
X2769648Y-67558553D01*
X2760680Y-67533490D01*
X2754212Y-67507669D01*
X2750306Y-67481338D01*
X2749000Y-67454751D01*
X2749000Y-66145249D01*
X2750306Y-66118662D01*
X2754212Y-66092331D01*
X2760680Y-66066510D01*
X2769648Y-66041447D01*
X2781029Y-66017383D01*
X2794714Y-65994551D01*
X2810571Y-65973170D01*
X2828447Y-65953447D01*
X2848170Y-65935571D01*
X2869551Y-65919714D01*
X2892383Y-65906029D01*
X2916447Y-65894648D01*
X2941510Y-65885680D01*
X2967331Y-65879212D01*
X2993662Y-65875306D01*
X3020249Y-65874000D01*
X3779751Y-65874000D01*
X3806338Y-65875306D01*
G37*
D19*
X5400000Y-66800000D03*
D20*
X21190000Y-22270000D03*
D21*
X23730000Y-22270000D03*
X26270000Y-22270000D03*
X28810000Y-22270000D03*
D20*
X40100000Y-22200000D03*
D21*
X40100000Y-24740000D03*
X42640000Y-22200000D03*
X42640000Y-24740000D03*
X45180000Y-22200000D03*
X45180000Y-24740000D03*
X47720000Y-22200000D03*
X47720000Y-24740000D03*
D20*
X2500000Y-22000000D03*
D21*
X5040000Y-22000000D03*
X7580000Y-22000000D03*
D22*
X42200000Y-53150000D03*
X42200000Y-51850000D03*
X46300000Y-41300000D03*
X46300000Y-40000000D03*
X46300000Y-38700000D03*
X43800000Y-38700000D03*
X43800000Y-40000000D03*
X43800000Y-41300000D03*
X41300000Y-38700000D03*
X41300000Y-40000000D03*
X41300000Y-41300000D03*
D20*
X14100000Y-46000000D03*
D21*
X14100000Y-43460000D03*
D23*
X29000000Y-63100000D03*
X35000000Y-58100000D03*
X32200000Y-59100000D03*
X31800000Y-62100000D03*
X34700000Y-61100000D03*
X48300000Y-60400000D03*
X42400000Y-30000000D03*
X23400000Y-30900000D03*
X19900000Y-44700000D03*
D24*
X27000000Y-67600000D03*
D25*
X25000000Y-67600000D03*
X23000000Y-67600000D03*
D26*
X29100000Y-67600000D03*
X20900000Y-67600000D03*
D22*
X39500000Y-62950000D03*
X39500000Y-61650000D03*
M02*
